<?xml version="1.0" encoding="UTF-8" standalone="no"?>
<svg
   width="16"
   height="16"
   viewBox="0 0 16 16"
   id="svg8694"
   version="1.1"
   inkscape:version="1.1.2 (0a00cf5339, 2022-02-04)"
   sodipodi:docname="system-file-manager.svg"
   xmlns:inkscape="http://www.inkscape.org/namespaces/inkscape"
   xmlns:sodipodi="http://sodipodi.sourceforge.net/DTD/sodipodi-0.dtd"
   xmlns:xlink="http://www.w3.org/1999/xlink"
   xmlns="http://www.w3.org/2000/svg"
   xmlns:svg="http://www.w3.org/2000/svg"
   xmlns:rdf="http://www.w3.org/1999/02/22-rdf-syntax-ns#"
   xmlns:cc="http://creativecommons.org/ns#"
   xmlns:dc="http://purl.org/dc/elements/1.1/">
  <defs
     id="defs8696">
    <linearGradient
       xlink:href="#linearGradient4227"
       id="linearGradient4225-3"
       gradientUnits="userSpaceOnUse"
       x1="396.57101"
       y1="498.798"
       x2="426.57101"
       y2="511.798"
       gradientTransform="matrix(0.24228659,0,0,0.10945197,-92.245086,987.50736)" />
    <linearGradient
       id="linearGradient4227">
      <stop
         offset="0"
         style="stop-color:#f5f5f5;stop-opacity:1"
         id="stop21" />
      <stop
         offset="1"
         style="stop-color:#f9f9f9;stop-opacity:1"
         id="stop23" />
    </linearGradient>
    <linearGradient
       inkscape:collect="always"
       xlink:href="#linearGradient2669"
       id="linearGradient2671"
       x1="386.57144"
       y1="515.79797"
       x2="446.72144"
       y2="515.79797"
       gradientUnits="userSpaceOnUse"
       gradientTransform="matrix(0.25961538,0,0,0.25961538,-100.15989,910.4531)" />
    <linearGradient
       inkscape:collect="always"
       id="linearGradient2669">
      <stop
         style="stop-color:#5599ff;stop-opacity:1;"
         offset="0"
         id="stop2665" />
      <stop
         style="stop-color:#80e5ff;stop-opacity:1"
         offset="1"
         id="stop2667" />
    </linearGradient>
    <linearGradient
       inkscape:collect="always"
       xlink:href="#linearGradient2669"
       id="linearGradient1356"
       x1="1.3"
       y1="1043.7888"
       x2="15.3"
       y2="1043.7888"
       gradientUnits="userSpaceOnUse" />
  </defs>
  <sodipodi:namedview
     id="base"
     pagecolor="#ffffff"
     bordercolor="#666666"
     borderopacity="1.0"
     inkscape:pageopacity="0.0"
     inkscape:pageshadow="2"
     inkscape:zoom="16"
     inkscape:cx="15.28125"
     inkscape:cy="14.25"
     inkscape:document-units="px"
     inkscape:current-layer="layer1"
     showgrid="true"
     units="px"
     inkscape:snap-bbox="true"
     inkscape:bbox-nodes="true"
     inkscape:object-nodes="true"
     inkscape:snap-global="true"
     inkscape:showpageshadow="false"
     showborder="true"
     inkscape:document-rotation="0"
     inkscape:window-width="1920"
     inkscape:window-height="1007"
     inkscape:window-x="0"
     inkscape:window-y="0"
     inkscape:window-maximized="1"
     inkscape:lockguides="false"
     inkscape:pagecheckerboard="0">
    <inkscape:grid
       type="xygrid"
       id="grid9302" />
  </sodipodi:namedview>
  <metadata
     id="metadata8699">
    <rdf:RDF>
      <cc:Work
         rdf:about="">
        <dc:format>image/svg+xml</dc:format>
        <dc:type
           rdf:resource="http://purl.org/dc/dcmitype/StillImage" />
      </cc:Work>
    </rdf:RDF>
  </metadata>
  <g
     inkscape:label="Livello 1"
     inkscape:groupmode="layer"
     id="layer1"
     transform="translate(0,-1036.3622)">
    <path
       inkscape:connector-curvature="0"
       id="fill"
       d="m 0.45962,1038.4411 v 11.6826 c 0.0282,0.3924 0.25961,0.7789 1.01417,0.7789 h 12.9351 c 0.8488,0 1.13817,-0.1296 1.10842,-1.0385 v -9.3461 c -0.25962,-0.5193 -2.07693,-0.1001 -2.07693,-1.6578 -3.11538,-0.2596 -8.82692,0.3597 -8.80843,-1.198 H 1.49744 c -0.51859,0 -1.03782,0.2596 -1.03782,0.7789 z"
       style="color:#1e92ff;fill:#3b445f;fill-opacity:1;fill-rule:nonzero;stroke:none;stroke-width:2.72897"
       class="ColorScheme-ButtonFocus"
       sodipodi:nodetypes="cccccccccc" />
    <path
       d="m 14.75374,1039.7957 h -0.83059 v -0.3066 c 0,-0.5325 -0.23368,-0.795 -0.42974,-0.9215 -0.21024,-0.1356 -0.41669,-0.1425 -0.45614,-0.1425 H 5.73986 c -0.15629,0 -0.30316,-0.1647 -0.45862,-0.3392 -0.19787,-0.2221 -0.42214,-0.4737 -0.7626,-0.4737 H 1.26213 c -0.6055,0 -1.06213,0.4557 -1.06213,1.06 v 11.38 c 0,0.5845 0.47644,1.06 1.06213,1.06 h 13.49161 c 0.58569,0 1.06213,-0.4755 1.06213,-1.06 v -9.1965 c 0,-0.5845 -0.47644,-1.06 -1.06213,-1.06 z m 0.56704,10.2565 c 0,0.312 -0.25431,0.5657 -0.56704,0.5657 H 1.26213 c -0.31273,0 -0.56704,-0.2537 -0.56704,-0.5657 v -11.38 c 0,-0.3329 0.23318,-0.5657 0.56704,-0.5657 h 3.25651 c 0.11833,0 0.25167,0.1496 0.39277,0.3079 0.20051,0.2249 0.45003,0.5048 0.82845,0.5048 h 7.29444 c 0.0748,0 0.28682,0.035 0.36471,0.3226 H 2.03795 c -0.63126,0.013 -0.96132,0.3425 -0.96132,1.0015 l 0.029,9.0615 h 0.30101 c 0,0 -0.0625,6e-4 2.5e-4,6e-4 0.0974,0 0.25109,0.019 0.39467,-0.093 0.25794,-0.202 0.26883,-0.4638 0.26652,-0.5355 l -0.001,-7.4449 c 0,-0.9886 0,-0.9886 0.99018,-0.9886 l 11.69692,0.047 c 0.31272,0 0.56704,0.2539 0.56704,0.5658 v 9.1964 z"
       id="path2-3-3-2-3-6-7"
       sodipodi:nodetypes="scscsscssssssssscsssssscsccccccsccccsscc"
       style="fill:url(#linearGradient2671);fill-opacity:1;stroke-width:0.164892" />
    <path
       inkscape:connector-curvature="0"
       style="fill:url(#linearGradient1356);fill-opacity:1.0;stroke-width:0.262428"
       id="path4151-2-3-3"
       d="m 1.3,1043.6463 v 0.2849 H 1.541367 15.05862 15.3 v -0.2849 H 15.05862 1.541367 Z" />
    <rect
       ry="0.15811108"
       rx="0.34736842"
       y="1042.1622"
       x="2.0999999"
       height="1.423"
       width="13.2"
       style="color:#000000;clip-rule:nonzero;display:inline;overflow:visible;visibility:visible;isolation:auto;mix-blend-mode:normal;color-interpolation:sRGB;color-interpolation-filters:linearRGB;solid-color:#000000;solid-opacity:1;fill:#e6e6e6;fill-opacity:1;fill-rule:nonzero;stroke:none;stroke-width:0.234358;stroke-linecap:butt;stroke-linejoin:miter;stroke-miterlimit:4;stroke-dasharray:none;stroke-dashoffset:0;stroke-opacity:1;marker:none;color-rendering:auto;image-rendering:auto;shape-rendering:auto;text-rendering:auto;enable-background:accumulate"
       id="rect36-5-6" />
  </g>
</svg>
