<?xml version="1.0" encoding="UTF-8" standalone="no"?>
<svg
   width="32"
   version="1.1"
   height="32"
   viewBox="0 0 32 32"
   id="svg17"
   sodipodi:docname="folder-tar.svg"
   inkscape:version="1.1.2 (0a00cf5339, 2022-02-04)"
   xmlns:inkscape="http://www.inkscape.org/namespaces/inkscape"
   xmlns:sodipodi="http://sodipodi.sourceforge.net/DTD/sodipodi-0.dtd"
   xmlns:xlink="http://www.w3.org/1999/xlink"
   xmlns="http://www.w3.org/2000/svg"
   xmlns:svg="http://www.w3.org/2000/svg"
   xmlns:rdf="http://www.w3.org/1999/02/22-rdf-syntax-ns#"
   xmlns:cc="http://creativecommons.org/ns#"
   xmlns:dc="http://purl.org/dc/elements/1.1/">
  <sodipodi:namedview
     pagecolor="#ffffff"
     bordercolor="#666666"
     borderopacity="1"
     objecttolerance="10"
     gridtolerance="10"
     guidetolerance="10"
     inkscape:pageopacity="0"
     inkscape:pageshadow="2"
     inkscape:window-width="1920"
     inkscape:window-height="1007"
     id="namedview19"
     showgrid="true"
     inkscape:zoom="11.313709"
     inkscape:cx="6.67332"
     inkscape:cy="22.539028"
     inkscape:window-x="0"
     inkscape:window-y="0"
     inkscape:window-maximized="1"
     inkscape:current-layer="layer1"
     inkscape:pagecheckerboard="0">
    <inkscape:grid
       type="xygrid"
       id="grid841" />
  </sodipodi:namedview>
  <defs
     id="defs5455">
    <linearGradient
       inkscape:collect="always"
       id="linearGradient1050">
      <stop
         style="stop-color:#00e5b8;stop-opacity:1"
         offset="0"
         id="stop1046" />
      <stop
         style="stop-color:#00c6f8;stop-opacity:1"
         offset="1"
         id="stop1048" />
    </linearGradient>
    <linearGradient
       inkscape:collect="always"
       xlink:href="#linearGradient2669"
       id="linearGradient2671"
       x1="386.57144"
       y1="515.79797"
       x2="446.72144"
       y2="515.79797"
       gradientUnits="userSpaceOnUse"
       gradientTransform="matrix(0.49875312,0,0,0.5,192.76772,273.899)" />
    <linearGradient
       inkscape:collect="always"
       id="linearGradient2669">
      <stop
         style="stop-color:#5599ff;stop-opacity:1;"
         offset="0"
         id="stop2665" />
      <stop
         style="stop-color:#80e5ff;stop-opacity:1"
         offset="1"
         id="stop2667" />
    </linearGradient>
    <linearGradient
       inkscape:collect="always"
       xlink:href="#linearGradient1050"
       id="linearGradient1171"
       gradientUnits="userSpaceOnUse"
       gradientTransform="matrix(0.49875312,0,0,0.5,192.76772,273.899)"
       x1="421.57144"
       y1="522.79797"
       x2="439.57144"
       y2="522.79797" />
  </defs>
  <metadata
     id="metadata5458">
    <rdf:RDF>
      <cc:Work
         rdf:about="">
        <dc:format>image/svg+xml</dc:format>
        <dc:type
           rdf:resource="http://purl.org/dc/dcmitype/StillImage" />
      </cc:Work>
    </rdf:RDF>
  </metadata>
  <g
     inkscape:label="Capa 1"
     inkscape:groupmode="layer"
     id="layer1"
     transform="translate(-384.57143,-515.798)">
    <path
       inkscape:connector-curvature="0"
       id="fill"
       d="m 386.07018,520.298 v 22.5 c 0.0543,0.75566 0.49876,1.5 1.94836,1.5 h 24.84992 c 1.63065,0 2.18656,-0.24951 2.1294,-2 v -18 c -0.49875,-1 -3.99002,0 -3.99002,-3 -5.98504,-0.5 -16.95761,0.5 -16.9221,-2.5 h -6.02177 c -0.99628,0 -1.99379,0.5 -1.99379,1.5 z"
       style="color:#1e92ff;fill:#3b445f;fill-opacity:1;fill-rule:nonzero;stroke:none;stroke-width:5.24924"
       class="ColorScheme-ButtonFocus"
       sodipodi:nodetypes="cccccccccc" />
    <path
       d="m 413.53095,523.00324 h -1.59566 v -0.5905 c 0,-1.02553 -0.44893,-1.531 -0.82559,-1.77469 -0.4039,-0.26114 -0.80051,-0.27446 -0.87628,-0.27446 h -14.01925 c -0.30024,0 -0.5824,-0.31731 -0.88105,-0.65334 -0.38013,-0.42772 -0.811,-0.91225 -1.46505,-0.91225 h -6.25617 c -1.16322,0 -2.04047,0.87766 -2.04047,2.04155 v 21.9169 c 0,1.1258 0.91529,2.04155 2.04047,2.04155 h 25.91905 c 1.12519,0 2.04048,-0.91575 2.04048,-2.04155 v -17.71166 c 0,-1.1258 -0.91529,-2.04155 -2.04048,-2.04155 z m 1.08936,19.75322 c 0,0.60098 -0.48856,1.08963 -1.08936,1.08963 H 387.6119 c -0.60079,0 -1.08935,-0.48865 -1.08935,-1.08963 v -21.91691 c 0,-0.64128 0.44798,-1.08963 1.08935,-1.08963 h 6.25617 c 0.22732,0 0.48349,0.28811 0.75456,0.59304 0.38521,0.43312 0.86457,0.97223 1.59154,0.97223 h 14.01353 c 0.14362,0.004 0.55102,0.0666 0.70066,0.62127 h -21.82601 c -1.21273,0.0251 -1.8468,0.65968 -1.8468,1.92891 l 0.0558,17.45179 h 0.57827 c 0,0 -0.12,0.001 4.9e-4,0.001 0.18706,0 0.48238,0.0367 0.7582,-0.17942 0.49554,-0.38901 0.51647,-0.89321 0.51203,-1.03124 l -0.002,-14.33841 c 0,-1.90384 0,-1.90384 1.90225,-1.90384 l 22.47123,0.0898 c 0.60079,0.002 1.08936,0.48896 1.08936,1.08962 v 17.71166 z"
       id="path2-3-3-2-3-6-7"
       sodipodi:nodetypes="scscsscssssssssscsssssscsccccccsccccsscc"
       style="fill:url(#linearGradient2671);fill-opacity:1;stroke-width:0.317173" />
    <path
       id="Book-7-7"
       class="st0"
       d="m 409.76096,533.048 z m -5.98504,-1.5 c -0.41147,0 -0.74813,-0.3375 -0.74813,-0.75 v 9.75 h 7.10723 c 1.02868,0 1.87033,-0.84375 1.87033,-1.875 v -8.625 h -0.74813 v 1.5 z"
       sodipodi:nodetypes="cccccsccsscccs"
       style="clip-rule:evenodd;fill:url(#linearGradient1171);fill-opacity:1;fill-rule:evenodd;stroke-width:0.187266" />
    <path
       id="Book-s-5-5"
       class="st1"
       d="m 404.52405,530.048 c -0.41147,0 -0.74813,0.3375 -0.74813,0.75 0,0.4125 0.33666,0.75 0.74813,0.75 h -0.74813 c -0.41147,0 -0.74813,-0.3375 -0.74813,-0.75 0,-0.825 0.67332,-1.5 1.49626,-1.5 h 7.4813 v 0.75 z m 6.73317,1.5 v 7.5 c 0,0.825 -0.67332,1.5 -1.49626,1.5 h -5.98504 v 0.75 h 5.98504 c 1.23441,0 2.24439,-1.0125 2.24439,-2.25 v -7.5 z"
       style="fill:#f1f1f1;fill-opacity:1;stroke-width:0.187266" />
    <g
       id="g10-3-3-3"
       transform="matrix(0.30025156,0,0,0.26123705,403.8955,532.69794)"
       style="fill:#1a1a1a;fill-opacity:1">
      <path
         d="M 2.56,0.383 C 1.928,-0.162 0.956,-0.107 0.391,0.504 -0.174,1.117 -0.119,2.057 0.512,2.606 0.574,2.66 5.356,6.906 7.918,14.217 8.792,13.709 9.809,13.41 10.894,13.395 8.116,5.279 2.846,0.629 2.56,0.383 Z"
         id="path2-3-6-5-5"
         style="fill:#1a1a1a;fill-opacity:1" />
      <path
         d="m 21.585,0.504 c -0.563,-0.611 -1.539,-0.67 -2.173,-0.121 -0.286,0.246 -5.555,4.896 -8.332,13.012 1.085,0.016 2.1,0.316 2.973,0.822 C 16.615,6.906 21.399,2.66 21.46,2.605 22.093,2.059 22.15,1.119 21.585,0.504 Z"
         id="path4-7-6-6"
         style="fill:#1a1a1a;fill-opacity:1" />
      <path
         d="m 10.399,17.904 h 1.175 c 1.336,0 2.445,1.225 2.584,2.51 l 0.637,5.732 C 15.48,25.91 16,25.41 16,24.664 V 19.182 C 16,16.532 13.74,14.381 10.998,14.381 8.262,14.381 6,16.531 6,19.182 v 5.482 c 0,0.746 0.508,1.375 1.194,1.613 l 0.613,-5.863 c 0.142,-1.285 1.258,-2.51 2.592,-2.51 z"
         id="path6-5-2-2"
         style="fill:#1a1a1a;fill-opacity:1" />
      <path
         d="m 13.805,26.908 -0.668,-6.391 c -0.082,-0.773 -0.758,-1.613 -1.563,-1.613 h -1.175 c -0.805,0 -1.479,0.84 -1.563,1.613 l -0.668,6.266 c -0.084,0.771 0.175,1.606 0.711,2.183 0.538,0.578 1.302,0.94 2.104,0.94 0.808,0 1.567,-0.314 2.106,-0.893 0.541,-0.575 0.799,-1.333 0.716,-2.105 z m -2.821,1.262 c -0.974,0 -1.764,-0.766 -1.764,-1.709 0,-0.943 0.79,-1.707 1.764,-1.707 0.977,0 1.766,0.764 1.766,1.707 0,0.943 -0.789,1.709 -1.766,1.709 z"
         id="path8-3-9-9"
         style="fill:#1a1a1a;fill-opacity:1" />
    </g>
  </g>
</svg>
