<?xml version="1.0" encoding="UTF-8" standalone="no"?>
<svg
   width="32"
   version="1.1"
   height="32"
   viewBox="0 0 32 32"
   id="svg15"
   sodipodi:docname="folder-blue.svg"
   inkscape:version="1.1.2 (0a00cf5339, 2022-02-04)"
   xmlns:inkscape="http://www.inkscape.org/namespaces/inkscape"
   xmlns:sodipodi="http://sodipodi.sourceforge.net/DTD/sodipodi-0.dtd"
   xmlns:xlink="http://www.w3.org/1999/xlink"
   xmlns="http://www.w3.org/2000/svg"
   xmlns:svg="http://www.w3.org/2000/svg"
   xmlns:rdf="http://www.w3.org/1999/02/22-rdf-syntax-ns#"
   xmlns:cc="http://creativecommons.org/ns#"
   xmlns:dc="http://purl.org/dc/elements/1.1/">
  <sodipodi:namedview
     pagecolor="#ffffff"
     bordercolor="#666666"
     borderopacity="1"
     objecttolerance="10"
     gridtolerance="10"
     guidetolerance="10"
     inkscape:pageopacity="0"
     inkscape:pageshadow="2"
     inkscape:window-width="1920"
     inkscape:window-height="1007"
     id="namedview17"
     showgrid="false"
     inkscape:zoom="9.8125"
     inkscape:cx="-10.343949"
     inkscape:cy="4.4840764"
     inkscape:window-x="0"
     inkscape:window-y="0"
     inkscape:window-maximized="1"
     inkscape:current-layer="layer1"
     inkscape:document-rotation="0"
     inkscape:pagecheckerboard="0" />
  <defs
     id="defs5455">
    <linearGradient
       id="linearGradient4172-7-9">
      <stop
         style="stop-color:#4183d7"
         id="stop4174-9-8" />
      <stop
         offset="1"
         style="stop-color:#5b94df"
         id="stop4176-4-6" />
    </linearGradient>
    <linearGradient
       inkscape:collect="always"
       xlink:href="#linearGradient991-3"
       id="linearGradient1278"
       gradientUnits="userSpaceOnUse"
       gradientTransform="matrix(0.49958317,0,0,0.5,192.44685,273.599)"
       x1="386.57144"
       y1="516.39801"
       x2="446.62146"
       y2="516.39801" />
    <linearGradient
       inkscape:collect="always"
       id="linearGradient991-3">
      <stop
         style="stop-color:#0066ff;stop-opacity:1"
         offset="0"
         id="stop987-6" />
      <stop
         style="stop-color:#0055d4;stop-opacity:1"
         offset="0.03132199"
         id="stop1929-7" />
      <stop
         style="stop-color:#0066ff;stop-opacity:1"
         offset="0.05527586"
         id="stop1263-5" />
      <stop
         style="stop-color:#0055d4;stop-opacity:1"
         offset="0.10902679"
         id="stop1027-3" />
      <stop
         style="stop-color:#3384ff;stop-opacity:1"
         offset="1"
         id="stop989-5" />
    </linearGradient>
  </defs>
  <metadata
     id="metadata5458">
    <rdf:RDF>
      <cc:Work
         rdf:about="">
        <dc:format>image/svg+xml</dc:format>
        <dc:type
           rdf:resource="http://purl.org/dc/dcmitype/StillImage" />
      </cc:Work>
    </rdf:RDF>
  </metadata>
  <g
     inkscape:label="Capa 1"
     inkscape:groupmode="layer"
     id="layer1"
     transform="translate(-384.57143,-515.798)">
    <path
       inkscape:connector-curvature="0"
       id="fill"
       d="m 386.07018,520.298 v 22.5 c 0.0543,0.75565 0.49876,1.5 1.94836,1.5 h 24.84991 c 1.63065,0 2.18656,-0.24951 2.1294,-2 v -18 c -0.49875,-1 -3.99002,0 -3.99002,-3 -5.98503,-0.5 -16.9576,0.5 -16.92208,-2.5 h -6.02177 c -0.99629,0 -1.9938,0.5 -1.9938,1.5 z"
       style="color:#1e92ff;fill:#3b445f;fill-opacity:1;fill-rule:nonzero;stroke:none;stroke-width:5.24924"
       class="ColorScheme-ButtonFocus"
       sodipodi:nodetypes="cccccccccc" />
    <path
       d="m 413.53094,523.00325 h -1.59567 v -0.59051 c 0,-1.02553 -0.44893,-1.53099 -0.82557,-1.77468 -0.4039,-0.26115 -0.80052,-0.27448 -0.8763,-0.27448 h -14.01923 c -0.30024,0 -0.58239,-0.3173 -0.88106,-0.65333 -0.38013,-0.42773 -0.81099,-0.91225 -1.46504,-0.91225 h -6.25617 c -1.16322,0 -2.04047,0.87766 -2.04047,2.04154 v 21.91691 c 0,1.1258 0.91529,2.04155 2.04047,2.04155 h 25.91904 c 1.12519,0 2.04049,-0.91575 2.04049,-2.04155 v -17.71166 c 0,-1.1258 -0.9153,-2.04155 -2.04049,-2.04154 z m 1.08936,19.7532 c 0,0.60099 -0.48856,1.08964 -1.08936,1.08964 H 387.6119 c -0.60079,0 -1.08935,-0.48865 -1.08935,-1.08964 v -21.9169 c 0,-0.64128 0.44798,-1.08964 1.08935,-1.08964 h 6.25617 c 0.22732,0 0.4835,0.28812 0.75457,0.59305 0.3852,0.43312 0.86456,0.97223 1.59154,0.97223 h 14.01351 c 0.14362,0.004 0.55102,0.0666 0.70067,0.62128 h -21.82601 c -1.21272,0.025 -1.8468,0.65968 -1.8468,1.9289 l 0.0558,17.45179 h 0.57827 c 0,0 -0.12,0.001 4.8e-4,0.001 0.18705,0 0.48238,0.0367 0.75821,-0.17942 0.49554,-0.38901 0.51646,-0.89321 0.51203,-1.03125 l -0.003,-14.3384 c 0,-1.90383 0,-1.90383 1.90225,-1.90383 l 22.47123,0.0898 c 0.60078,0.002 1.08935,0.48896 1.08935,1.08962 v 17.71167 z"
       id="path2-3-3-7"
       sodipodi:nodetypes="scscsscssssssssscsssssscsccccccsccccsscc"
       style="fill:url(#linearGradient1278);fill-opacity:1;stroke-width:0.317173" />
  </g>
</svg>
