<?xml version="1.0" encoding="UTF-8" standalone="no"?>
<svg
   width="32"
   version="1.1"
   height="32"
   viewBox="0 0 32 32"
   id="svg15"
   sodipodi:docname="folder-build.svg"
   inkscape:version="1.1.2 (0a00cf5339, 2022-02-04)"
   xmlns:inkscape="http://www.inkscape.org/namespaces/inkscape"
   xmlns:sodipodi="http://sodipodi.sourceforge.net/DTD/sodipodi-0.dtd"
   xmlns:xlink="http://www.w3.org/1999/xlink"
   xmlns="http://www.w3.org/2000/svg"
   xmlns:svg="http://www.w3.org/2000/svg"
   xmlns:rdf="http://www.w3.org/1999/02/22-rdf-syntax-ns#"
   xmlns:cc="http://creativecommons.org/ns#"
   xmlns:dc="http://purl.org/dc/elements/1.1/">
  <sodipodi:namedview
     pagecolor="#ffffff"
     bordercolor="#666666"
     borderopacity="1"
     objecttolerance="10"
     gridtolerance="10"
     guidetolerance="10"
     inkscape:pageopacity="0"
     inkscape:pageshadow="2"
     inkscape:window-width="1920"
     inkscape:window-height="1007"
     id="namedview17"
     showgrid="true"
     inkscape:zoom="9.8125"
     inkscape:cx="-14.522293"
     inkscape:cy="18.140127"
     inkscape:window-x="0"
     inkscape:window-y="0"
     inkscape:window-maximized="1"
     inkscape:current-layer="g4"
     inkscape:pagecheckerboard="0">
    <inkscape:grid
       type="xygrid"
       id="grid862" />
  </sodipodi:namedview>
  <defs
     id="defs5455">
    <linearGradient
       inkscape:collect="always"
       xlink:href="#linearGradient2669"
       id="linearGradient2671"
       x1="386.57144"
       y1="515.79797"
       x2="446.72144"
       y2="515.79797"
       gradientUnits="userSpaceOnUse"
       gradientTransform="matrix(1.3848926,0,0,1.346163,-463.85229,330.12468)" />
    <linearGradient
       inkscape:collect="always"
       id="linearGradient2669">
      <stop
         style="stop-color:#5599ff;stop-opacity:1;"
         offset="0"
         id="stop2665" />
      <stop
         style="stop-color:#80e5ff;stop-opacity:1"
         offset="1"
         id="stop2667" />
    </linearGradient>
    <linearGradient
       inkscape:collect="always"
       xlink:href="#linearGradient1154-3"
       id="linearGradient1136"
       gradientUnits="userSpaceOnUse"
       gradientTransform="matrix(1.3848926,0,0,1.346163,-464.33648,331.5208)"
       x1="425.57144"
       y1="522.79797"
       x2="431.57144"
       y2="524.79797" />
    <linearGradient
       inkscape:collect="always"
       id="linearGradient1154-3">
      <stop
         style="stop-color:#ffffff;stop-opacity:1"
         offset="0"
         id="stop1150-6" />
      <stop
         style="stop-color:#ff5555;stop-opacity:1"
         offset="0.06666645"
         id="stop1768-7" />
      <stop
         style="stop-color:#ffb380;stop-opacity:1"
         offset="1"
         id="stop1152-5" />
    </linearGradient>
  </defs>
  <metadata
     id="metadata5458">
    <rdf:RDF>
      <cc:Work
         rdf:about="">
        <dc:format>image/svg+xml</dc:format>
        <dc:type
           rdf:resource="http://purl.org/dc/dcmitype/StillImage" />
      </cc:Work>
    </rdf:RDF>
  </metadata>
  <g
     inkscape:label="Capa 1"
     inkscape:groupmode="layer"
     id="layer1"
     transform="translate(-384.57143,-515.798)">
    <g
       transform="matrix(0.36013848,0,0,0.37142583,359.81878,151.2823)"
       id="g4">
      <path
         inkscape:connector-curvature="0"
         id="fill"
         d="m 72.892524,993.51114 v 60.57736 c 0.15065,2.0344 1.384893,4.0384 5.410027,4.0384 h 69.000989 c 4.52786,0 6.07147,-0.6717 5.91276,-5.3846 v -48.4618 c -1.3849,-2.6924 -11.07914,0 -11.07914,-8.07703 -16.61871,-1.34617 -47.086354,1.34616 -46.987735,-6.73082 H 78.428702 c -2.766393,0 -5.536178,1.34616 -5.536178,4.03849 z"
         style="color:#1e92ff;fill:#3b445f;fill-opacity:1;fill-rule:nonzero;stroke:none;stroke-width:14.3524"
         class="ColorScheme-ButtonFocus"
         sodipodi:nodetypes="cccccccccc" />
      <path
         d="m 149.14311,1000.7946 h -4.4307 v -1.58989 c 0,-2.76106 -1.24655,-4.12194 -2.29239,-4.77803 -1.12153,-0.70309 -2.22282,-0.73896 -2.43323,-0.73896 h -38.92734 c -0.83367,0 -1.617161,-0.85429 -2.446444,-1.75898 -1.055517,-1.15159 -2.251884,-2.45609 -4.068005,-2.45609 H 77.173435 c -3.22993,0 -5.665803,2.36296 -5.665803,5.49651 v 59.00744 c 0,3.031 2.541513,5.4965 5.665803,5.4965 h 71.969675 c 3.1243,0 5.66581,-2.4655 5.66581,-5.4965 v -47.6855 c 0,-3.0311 -2.54151,-5.4965 -5.66581,-5.4965 z m 3.02482,53.182 c 0,1.618 -1.3566,2.9336 -3.02482,2.9336 H 77.173435 c -1.668214,0 -3.024813,-1.3156 -3.024813,-2.9336 v -59.00744 c 0,-1.72653 1.24391,-2.93364 3.024813,-2.93364 h 17.371566 c 0.631194,0 1.342516,0.7757 2.095191,1.59667 1.069594,1.1661 2.400655,2.61755 4.419258,2.61755 h 38.91148 c 0.3988,0.0108 1.53003,0.17939 1.94554,1.67269 H 81.311979 c -3.367381,0.0674 -5.128036,1.77607 -5.128036,5.19327 l 0.154942,46.9858 h 1.605713 c 0,0 -0.333205,0 0.0014,0 0.51939,0 1.339413,0.099 2.1053,-0.483 1.375959,-1.0474 1.434056,-2.4048 1.421744,-2.7765 l -0.0069,-38.6036 c 0,-5.1257 0,-5.1257 5.281981,-5.1257 l 62.396087,0.2417 c 1.6682,0.01 3.02481,1.3165 3.02481,2.9337 v 47.6855 z"
         id="path2-3-3-2-3-6-7"
         sodipodi:nodetypes="scscsscssssssssscsssssscsccccccsccccsscc"
         style="fill:url(#linearGradient2671);fill-opacity:1;stroke-width:0.867212" />
      <path
         style="color:#232629;fill:url(#linearGradient1136);fill-opacity:1;stroke:none;stroke-width:1.36538"
         d="m 137.70117,1019.0882 -0.43007,1.4277 c -0.88079,-0.071 -1.76812,0.023 -2.6129,0.2761 l -0.73303,-1.3041 -2.43167,1.2909 0.73302,1.3041 c -0.67721,0.5547 -1.23721,1.2285 -1.65268,1.9877 l -1.46333,-0.4154 -0.779,2.5819 1.46873,0.4181 c -0.0734,0.8561 0.0209,1.7213 0.28132,2.5424 l -1.34162,0.7125 1.32809,2.3637 1.34161,-0.7151 c 0.57058,0.6582 1.26651,1.2052 2.04759,1.609 l -0.43008,1.4225 2.65889,0.7572 0.43007,-1.4277 c 0.8808,0.071 1.76812,-0.023 2.61291,-0.2761 l 0.73572,1.3041 2.42898,-1.2909 -0.73302,-1.3041 c 0.67721,-0.5546 1.2372,-1.2285 1.65267,-1.9877 l 1.46333,0.4154 0.77901,-2.5819 -1.46875,-0.418 c 0.0734,-0.8562 -0.0209,-1.7213 -0.2813,-2.5425 l 1.34161,-0.7125 -1.32809,-2.3637 -1.34162,0.7152 c -0.57057,-0.6583 -1.2665,-1.2053 -2.04758,-1.6091 l 0.43007,-1.4224 z m -1.36867,2.7581 c 0.27486,-0.017 0.5522,-0.014 0.8277,0.01 0.36731,0.03 0.73373,0.095 1.09276,0.1972 1.38212,0.3944 2.55301,1.2966 3.26207,2.5162 0.73677,1.2654 0.916,2.7687 0.49499,4.1647 -0.40577,1.3435 -1.33384,2.4816 -2.58855,3.1708 -1.3018,0.7162 -2.84838,0.8904 -4.28452,0.4812 -1.38212,-0.3944 -2.5557,-1.2966 -3.26477,-2.5162 -0.73676,-1.2654 -0.916,-2.7687 -0.49499,-4.1647 0.40578,-1.3435 1.33385,-2.4816 2.58856,-3.1708 0.73226,-0.4029 1.54219,-0.6341 2.36675,-0.6863 z m -18.46073,3.9333 -2.75625,0.2629 0.14877,1.4803 c -0.84479,0.2531 -1.63117,0.6604 -2.31808,1.2016 l -1.18473,-0.9439 -1.75817,2.0797 1.18204,0.9439 c -0.41547,0.7606 -0.67402,1.5916 -0.76819,2.4478 l -1.51743,0.1446 0.27049,2.6792 1.52284,-0.1446 c 0.26036,0.8211 0.6794,1.5855 1.23613,2.2532 l -0.97105,1.1516 2.13955,1.709 0.97104,-1.149 c 0.78247,0.4039 1.63745,0.6552 2.51824,0.7467 l 0.14876,1.475 2.75627,-0.2629 -0.14878,-1.4802 c 0.84479,-0.2531 1.63117,-0.6604 2.31808,-1.2016 l 1.18473,0.9439 1.75816,-2.0797 -1.18202,-0.9439 c 0.41547,-0.7606 0.674,-1.5917 0.76818,-2.4478 l 1.51744,-0.1446 -0.2705,-2.6792 -1.52284,0.1446 c -0.26036,-0.8212 -0.67939,-1.5856 -1.23612,-2.2532 l 0.97105,-1.1517 -2.13955,-1.7089 -0.97106,1.1489 c -0.78246,-0.4038 -1.63742,-0.6551 -2.51822,-0.7467 z m -0.0378,2.808 c 1.06089,0.099 2.07849,0.4964 2.92397,1.1516 1.17023,0.9074 1.91299,2.2351 2.05841,3.6836 0.14126,1.3946 -0.28324,2.7876 -1.18204,3.8833 -0.93341,1.1376 -2.30208,1.8595 -3.79222,2.0009 -1.43475,0.1373 -2.86508,-0.2753 -3.99238,-1.149 -1.17024,-0.9073 -1.913,-2.2377 -2.05841,-3.6862 -0.14126,-1.3946 0.28324,-2.7849 1.18203,-3.8807 0.93342,-1.1375 2.29938,-1.8595 3.78953,-2.0008 0.35868,-0.034 0.7175,-0.035 1.07111,0 z m 11.93389,5.361 v 1.4882 c -0.86695,0.1723 -1.69083,0.5042 -2.42898,0.978 l -1.08195,-1.0516 -1.95832,1.9035 1.08195,1.0517 c -0.48887,0.7175 -0.83297,1.5183 -1.01162,2.361 h -1.52555 v 2.6924 h 1.53096 c 0.17727,0.8427 0.51873,1.6435 1.00621,2.361 l -1.08195,1.0517 1.95832,1.9035 1.08195,-1.0517 c 0.73815,0.4752 1.56203,0.8097 2.42898,0.9834 v 1.4828 h 2.76978 v -1.4881 c 0.86694,-0.1723 1.69082,-0.5042 2.42897,-0.9781 l 1.08194,1.0517 1.95834,-1.9035 -1.08195,-1.0517 c 0.48887,-0.7175 0.83296,-1.5183 1.01161,-2.361 h 1.52556 v -2.6924 h -1.53096 c -0.17727,-0.8427 -0.51873,-1.6435 -1.00621,-2.361 l 1.08195,-1.0517 -1.95834,-1.9035 -1.08194,1.0516 c -0.73815,-0.4752 -1.56203,-0.8096 -2.42897,-0.9833 v -1.4829 z m 1.38489,2.6924 c 1.44167,0 2.82533,0.5463 3.85985,1.5223 1.07329,1.0136 1.67972,2.4071 1.67972,3.8623 0,1.4014 -0.56207,2.7463 -1.56612,3.7519 -1.04282,1.0432 -2.47638,1.6327 -3.97345,1.6327 -1.44167,0 -2.82533,-0.5463 -3.85985,-1.5223 -1.07329,-1.0136 -1.67972,-2.4071 -1.67972,-3.8623 0,-1.4013 0.56207,-2.7463 1.56612,-3.7519 1.04282,-1.0433 2.47638,-1.6327 3.97345,-1.6327 z"
         class="ColorScheme-Text"
         id="path12-5-5" />
    </g>
  </g>
</svg>
