<?xml version="1.0" encoding="UTF-8" standalone="no"?>
<svg
   width="32"
   version="1.1"
   height="32"
   viewBox="0 0 32 32"
   id="svg15"
   sodipodi:docname="folder-git.svg"
   inkscape:version="1.1.2 (0a00cf5339, 2022-02-04)"
   xmlns:inkscape="http://www.inkscape.org/namespaces/inkscape"
   xmlns:sodipodi="http://sodipodi.sourceforge.net/DTD/sodipodi-0.dtd"
   xmlns:xlink="http://www.w3.org/1999/xlink"
   xmlns="http://www.w3.org/2000/svg"
   xmlns:svg="http://www.w3.org/2000/svg"
   xmlns:rdf="http://www.w3.org/1999/02/22-rdf-syntax-ns#"
   xmlns:cc="http://creativecommons.org/ns#"
   xmlns:dc="http://purl.org/dc/elements/1.1/">
  <sodipodi:namedview
     pagecolor="#ffffff"
     bordercolor="#666666"
     borderopacity="1"
     objecttolerance="10"
     gridtolerance="10"
     guidetolerance="10"
     inkscape:pageopacity="0"
     inkscape:pageshadow="2"
     inkscape:window-width="1920"
     inkscape:window-height="1007"
     id="namedview17"
     showgrid="true"
     inkscape:zoom="9.8125"
     inkscape:cx="1.477707"
     inkscape:cy="18.140127"
     inkscape:window-x="0"
     inkscape:window-y="0"
     inkscape:window-maximized="1"
     inkscape:current-layer="layer1"
     inkscape:pagecheckerboard="0">
    <inkscape:grid
       type="xygrid"
       id="grid862" />
  </sodipodi:namedview>
  <defs
     id="defs5455">
    <linearGradient
       inkscape:collect="always"
       id="linearGradient1030">
      <stop
         style="stop-color:#37abc8;stop-opacity:1"
         offset="0"
         id="stop1025" />
      <stop
         style="stop-color:#ffb380;stop-opacity:1"
         offset="1"
         id="stop1028" />
    </linearGradient>
    <linearGradient
       inkscape:collect="always"
       xlink:href="#linearGradient2669"
       id="linearGradient2671"
       x1="386.57144"
       y1="515.79797"
       x2="446.72144"
       y2="515.79797"
       gradientUnits="userSpaceOnUse"
       gradientTransform="matrix(0.49875312,0,0,0.50000021,192.76772,273.89889)" />
    <linearGradient
       inkscape:collect="always"
       id="linearGradient2669">
      <stop
         style="stop-color:#5599ff;stop-opacity:1;"
         offset="0"
         id="stop2665" />
      <stop
         style="stop-color:#80e5ff;stop-opacity:1"
         offset="1"
         id="stop2667" />
    </linearGradient>
    <linearGradient
       inkscape:collect="always"
       xlink:href="#linearGradient1030"
       id="linearGradient1031"
       gradientUnits="userSpaceOnUse"
       gradientTransform="matrix(0.49875312,0,0,0.50000021,192.26894,274.64889)"
       x1="422.57144"
       y1="522.14801"
       x2="440.47244"
       y2="522.14801" />
  </defs>
  <metadata
     id="metadata5458">
    <rdf:RDF>
      <cc:Work
         rdf:about="">
        <dc:format>image/svg+xml</dc:format>
        <dc:type
           rdf:resource="http://purl.org/dc/dcmitype/StillImage" />
      </cc:Work>
    </rdf:RDF>
  </metadata>
  <g
     inkscape:label="Capa 1"
     inkscape:groupmode="layer"
     id="layer1"
     transform="translate(-384.57143,-515.798)">
    <path
       inkscape:connector-curvature="0"
       id="fill"
       d="m 386.07018,520.298 v 22.50004 c 0.0543,0.75566 0.49876,1.49999 1.94836,1.49999 h 24.84991 c 1.63066,0 2.18657,-0.24951 2.12941,-2.00002 v -18 c -0.49875,-1.00001 -3.99002,0 -3.99002,-3.00002 -5.98504,-0.49999 -16.95761,0.50001 -16.92209,-2.49999 h -6.02178 c -0.99628,0 -1.99379,0.5 -1.99379,1.5 z"
       style="color:#1e92ff;fill:#3b445f;fill-opacity:1;fill-rule:nonzero;stroke:none;stroke-width:5.24927"
       class="ColorScheme-ButtonFocus"
       sodipodi:nodetypes="cccccccccc" />
    <path
       d="m 413.53095,523.00325 h -1.59566 v -0.59051 c 0,-1.02554 -0.44893,-1.531 -0.82558,-1.77468 -0.40391,-0.26115 -0.80052,-0.27448 -0.8763,-0.27448 h -14.01923 c -0.30024,0 -0.58241,-0.3173 -0.88106,-0.65333 -0.38013,-0.42772 -0.81099,-0.91225 -1.46505,-0.91225 h -6.25617 c -1.16322,0 -2.04047,0.87767 -2.04047,2.04154 v 21.91691 c 0,1.12585 0.9153,2.04155 2.04047,2.04155 h 25.91905 c 1.12518,0 2.04048,-0.9157 2.04048,-2.04155 v -17.71166 c 0,-1.12579 -0.9153,-2.04154 -2.04048,-2.04154 z m 1.08936,19.7532 c 0,0.60102 -0.48857,1.08965 -1.08936,1.08965 H 387.6119 c -0.60078,0 -1.08935,-0.48863 -1.08935,-1.08965 v -21.91691 c 0,-0.64126 0.44798,-1.08962 1.08935,-1.08962 h 6.25617 c 0.22732,0 0.48349,0.28811 0.75456,0.59304 0.3852,0.43313 0.86457,0.97223 1.59155,0.97223 h 14.01352 c 0.14362,0.004 0.55102,0.0666 0.70066,0.62128 h -21.82601 c -1.21272,0.0251 -1.8468,0.65969 -1.8468,1.9289 l 0.0558,17.45182 h 0.57828 c 0,0 -0.12,0 5e-4,0 0.18706,0 0.48238,0.0369 0.7582,-0.17944 0.49554,-0.389 0.51646,-0.89321 0.51203,-1.03123 l -0.002,-14.33843 c 0,-1.90383 0,-1.90383 1.90225,-1.90383 l 22.47123,0.0898 c 0.60078,0.003 1.08935,0.48896 1.08935,1.08962 v 17.71166 z"
       id="path2-3-3-2-3-6-7"
       sodipodi:nodetypes="scscsscssssssssscsssssscsccccccsccccsscc"
       style="fill:url(#linearGradient2671);fill-opacity:1;stroke-width:0.317173" />
    <path
       style="color:#232629;fill:url(#linearGradient1031);fill-opacity:1;stroke:none;stroke-width:0.536517"
       d="m 404.14437,530.04801 a 1.1159469,1.0318186 0 0 0 -1.11595,1.03181 1.1159469,1.0318186 0 0 0 0.55798,0.87707 v 7.48069 a 1.1159469,1.0318186 0 0 0 -0.55798,0.92862 1.1159469,1.0318186 0 0 0 1.11595,1.03183 1.1159469,1.0318186 0 0 0 1.11595,-1.03183 1.1159469,1.0318186 0 0 0 -0.55797,-0.87705 v -7.51682 a 1.1159469,1.0318186 0 0 0 0.55797,-0.89251 1.1159469,1.0318186 0 0 0 -1.11595,-1.03181 m 1.11595,1.03181 1.67389,1.08343 v -0.56751 h 2.23189 c 0.61825,0 1.11594,0.46432 1.11594,1.03182 v 6.84614 a 1.1159469,1.0318186 0 0 0 -0.55797,0.8925 1.1159469,1.0318186 0 0 0 1.11595,1.03183 1.1159469,1.0318186 0 0 0 1.11595,-1.03183 1.1159469,1.0318186 0 0 0 -0.55798,-0.87705 v -7.37751 c 0,-0.87705 -0.78116,-1.53069 -1.67392,-1.54771 h -2.78986 v -0.51592 z m -1.11595,-0.51589 a 0.55797346,0.51590947 0 0 1 0.55798,0.51589 0.55797346,0.51590947 0 0 1 -0.55798,0.51592 0.55797346,0.51590947 0 0 1 -0.55797,-0.51592 0.55797346,0.51590947 0 0 1 0.55797,-0.51589 m 0,9.28633 a 0.55797346,0.51590947 0 0 1 0.55798,0.51594 0.55797346,0.51590947 0 0 1 -0.55798,0.51589 0.55797346,0.51590947 0 0 1 -0.55797,-0.51589 0.55797346,0.51590947 0 0 1 0.55797,-0.51594 m 6.69565,0 a 0.55797346,0.51590947 0 0 1 0.55797,0.51594 0.55797346,0.51590947 0 0 1 -0.55797,0.51589 0.55797346,0.51590947 0 0 1 -0.55798,-0.51589 0.55797346,0.51590947 0 0 1 0.55798,-0.51594"
       class="ColorScheme-Text"
       id="path12-7-7" />
  </g>
</svg>
