<?xml version="1.0" encoding="UTF-8" standalone="no"?>
<svg
   width="32"
   version="1.1"
   height="32"
   viewBox="0 0 32 32"
   id="svg15"
   sodipodi:docname="folder-desktop.svg"
   inkscape:version="1.1.2 (0a00cf5339, 2022-02-04)"
   xmlns:inkscape="http://www.inkscape.org/namespaces/inkscape"
   xmlns:sodipodi="http://sodipodi.sourceforge.net/DTD/sodipodi-0.dtd"
   xmlns:xlink="http://www.w3.org/1999/xlink"
   xmlns="http://www.w3.org/2000/svg"
   xmlns:svg="http://www.w3.org/2000/svg"
   xmlns:rdf="http://www.w3.org/1999/02/22-rdf-syntax-ns#"
   xmlns:cc="http://creativecommons.org/ns#"
   xmlns:dc="http://purl.org/dc/elements/1.1/">
  <sodipodi:namedview
     pagecolor="#ffffff"
     bordercolor="#666666"
     borderopacity="1"
     objecttolerance="10"
     gridtolerance="10"
     guidetolerance="10"
     inkscape:pageopacity="0"
     inkscape:pageshadow="2"
     inkscape:window-width="1920"
     inkscape:window-height="1007"
     id="namedview17"
     showgrid="true"
     inkscape:zoom="9.8125"
     inkscape:cx="-20.33121"
     inkscape:cy="18.140127"
     inkscape:window-x="0"
     inkscape:window-y="0"
     inkscape:window-maximized="1"
     inkscape:current-layer="g4"
     inkscape:pagecheckerboard="0">
    <inkscape:grid
       type="xygrid"
       id="grid862" />
  </sodipodi:namedview>
  <defs
     id="defs5455">
    <linearGradient
       inkscape:collect="always"
       id="linearGradient1104">
      <stop
         style="stop-color:#00d4aa;stop-opacity:1;"
         offset="0"
         id="stop1100" />
      <stop
         style="stop-color:#2ad4ff;stop-opacity:1"
         offset="1"
         id="stop1102" />
    </linearGradient>
    <linearGradient
       inkscape:collect="always"
       xlink:href="#linearGradient2669"
       id="linearGradient2671"
       x1="386.57144"
       y1="515.79797"
       x2="446.72144"
       y2="515.79797"
       gradientUnits="userSpaceOnUse"
       gradientTransform="matrix(1.3848926,0,0,1.3461636,-463.85227,330.12439)" />
    <linearGradient
       inkscape:collect="always"
       id="linearGradient2669">
      <stop
         style="stop-color:#5599ff;stop-opacity:1;"
         offset="0"
         id="stop2665" />
      <stop
         style="stop-color:#80e5ff;stop-opacity:1"
         offset="1"
         id="stop2667" />
    </linearGradient>
    <linearGradient
       inkscape:collect="always"
       xlink:href="#linearGradient1104"
       id="linearGradient1137"
       gradientUnits="userSpaceOnUse"
       gradientTransform="matrix(1.3848926,0,0,1.3461636,-465.65262,331.33585)"
       x1="415.57144"
       y1="522.59808"
       x2="440.80042"
       y2="522.59808" />
  </defs>
  <metadata
     id="metadata5458">
    <rdf:RDF>
      <cc:Work
         rdf:about="">
        <dc:format>image/svg+xml</dc:format>
        <dc:type
           rdf:resource="http://purl.org/dc/dcmitype/StillImage" />
      </cc:Work>
    </rdf:RDF>
  </metadata>
  <g
     inkscape:label="Capa 1"
     inkscape:groupmode="layer"
     id="layer1"
     transform="translate(-384.57143,-515.798)">
    <g
       transform="matrix(0.36013848,0,0,0.37142583,359.81878,151.2823)"
       id="g4">
      <path
         inkscape:connector-curvature="0"
         id="fill"
         d="m 72.892525,993.51114 v 60.57736 c 0.150648,2.0345 1.384893,4.0385 5.410027,4.0385 h 69.000988 c 4.52787,0 6.07147,-0.6718 5.91276,-5.3846 v -48.462 c -1.38489,-2.6923 -11.07914,0 -11.07914,-8.07693 -16.61871,-1.34617 -47.086354,1.34616 -46.987735,-6.73082 H 78.428702 c -2.766391,0 -5.536177,1.34616 -5.536177,4.03849 z"
         style="color:#1e92ff;fill:#3b445f;fill-opacity:1;fill-rule:nonzero;stroke:none;stroke-width:14.3524"
         class="ColorScheme-ButtonFocus"
         sodipodi:nodetypes="cccccccccc" />
      <path
         d="m 149.14311,1000.7945 h -4.4307 v -1.58979 c 0,-2.76106 -1.24654,-4.12194 -2.29239,-4.77803 -1.12152,-0.70309 -2.22282,-0.73896 -2.43323,-0.73896 h -38.92733 c -0.83368,0 -1.617169,-0.85429 -2.446447,-1.75898 -1.055524,-1.15159 -2.25189,-2.45609 -4.068011,-2.45609 H 77.173435 c -3.229929,0 -5.665803,2.36296 -5.665803,5.49651 v 59.00754 c 0,3.031 2.541513,5.4965 5.665803,5.4965 h 71.969675 c 3.1243,0 5.66582,-2.4655 5.66582,-5.4965 v -47.6857 c 0,-3.031 -2.54152,-5.4965 -5.66582,-5.4965 z m 3.02483,53.1822 c 0,1.618 -1.3566,2.9336 -3.02483,2.9336 H 77.173435 c -1.668214,0 -3.024812,-1.3156 -3.024812,-2.9336 v -59.00754 c 0,-1.72653 1.24391,-2.93364 3.024812,-2.93364 h 17.371567 c 0.631193,0 1.342515,0.7757 2.09519,1.59667 1.069594,1.1661 2.400658,2.61755 4.419268,2.61755 h 38.91148 c 0.39879,0.0108 1.53003,0.17939 1.94554,1.67269 H 81.311979 c -3.36738,0.0674 -5.128035,1.77607 -5.128035,5.19327 l 0.154941,46.9859 h 1.605714 c 0,0 -0.333205,0 0.0014,0 0.519389,0 1.339412,0.099 2.105299,-0.4831 1.37596,-1.0473 1.434057,-2.4048 1.421744,-2.7764 l -0.0069,-38.6037 c 0,-5.1257 0,-5.1257 5.28198,-5.1257 l 62.396088,0.2417 c 1.6682,0.01 3.02482,1.3165 3.02482,2.9337 v 47.6856 z"
         id="path2-3-3-2-3-6-7"
         sodipodi:nodetypes="scscsscssssssssscsssssscsccccccsccccsscc"
         style="fill:url(#linearGradient2671);fill-opacity:1;stroke-width:0.867212" />
      <path
         id="Computer-7-7"
         class="st0"
         d="m 142.6249,1019.7613 h 2.18372 v 19.3847 c 0,2.3694 -1.96535,4.3078 -4.36743,4.3078 h -30.57203 v -4.3078 h 32.75574 z m -7.64301,30.1541 -4.36743,-2.1539 h -9.82672 v 2.1539 z"
         style="fill:url(#linearGradient1137);fill-opacity:1;stroke-width:0.542183" />
      <path
         id="Computer-s-5-5"
         class="st1"
         d="m 112.05289,1039.146 h -2.18373 v -15.077 c 0,-2.3692 1.96534,-4.3077 4.36743,-4.3077 h 30.57203 v 2.154 h -30.57203 c -1.20097,0 -2.1837,0.9691 -2.1837,2.1537 z m 30.57201,0 c 0,2.3694 -1.96534,4.3078 -4.36743,4.3078 H 127.3389 v 2.154 c 0,2.3692 1.96533,4.3076 4.36743,4.3076 h 3.27556 v -2.1539 h -3.27556 c -1.20097,0 -2.18373,-0.9691 -2.18373,-2.1537 h 8.73487 c 3.60322,0 6.55115,-2.9078 6.55115,-6.4618 z"
         style="fill:#f0f0f0;fill-opacity:1;stroke-width:0.542183" />
    </g>
  </g>
</svg>
