<?xml version="1.0" encoding="UTF-8" standalone="no"?>
<svg
   width="32"
   version="1.1"
   height="32"
   viewBox="0 0 32 32"
   id="svg15"
   sodipodi:docname="folder-snap.svg"
   inkscape:version="1.1.2 (0a00cf5339, 2022-02-04)"
   xmlns:inkscape="http://www.inkscape.org/namespaces/inkscape"
   xmlns:sodipodi="http://sodipodi.sourceforge.net/DTD/sodipodi-0.dtd"
   xmlns:xlink="http://www.w3.org/1999/xlink"
   xmlns="http://www.w3.org/2000/svg"
   xmlns:svg="http://www.w3.org/2000/svg"
   xmlns:rdf="http://www.w3.org/1999/02/22-rdf-syntax-ns#"
   xmlns:cc="http://creativecommons.org/ns#"
   xmlns:dc="http://purl.org/dc/elements/1.1/">
  <sodipodi:namedview
     pagecolor="#ffffff"
     bordercolor="#666666"
     borderopacity="1"
     objecttolerance="10"
     gridtolerance="10"
     guidetolerance="10"
     inkscape:pageopacity="0"
     inkscape:pageshadow="2"
     inkscape:window-width="1920"
     inkscape:window-height="1007"
     id="namedview17"
     showgrid="true"
     inkscape:zoom="9.8125"
     inkscape:cx="1.477707"
     inkscape:cy="9.8853503"
     inkscape:window-x="0"
     inkscape:window-y="0"
     inkscape:window-maximized="1"
     inkscape:current-layer="g4"
     inkscape:pagecheckerboard="0">
    <inkscape:grid
       type="xygrid"
       id="grid862" />
  </sodipodi:namedview>
  <defs
     id="defs5455">
    <linearGradient
       inkscape:collect="always"
       id="linearGradient911">
      <stop
         style="stop-color:#00ffff;stop-opacity:1"
         offset="0"
         id="stop907" />
      <stop
         style="stop-color:#ffb380;stop-opacity:1"
         offset="1"
         id="stop909" />
    </linearGradient>
    <linearGradient
       inkscape:collect="always"
       xlink:href="#linearGradient2669"
       id="linearGradient2671"
       x1="386.57144"
       y1="515.79797"
       x2="446.72144"
       y2="515.79797"
       gradientUnits="userSpaceOnUse"
       gradientTransform="matrix(1.3848926,0,0,1.3461637,-463.85227,330.12435)" />
    <linearGradient
       inkscape:collect="always"
       id="linearGradient2669">
      <stop
         style="stop-color:#5599ff;stop-opacity:1;"
         offset="0"
         id="stop2665" />
      <stop
         style="stop-color:#80e5ff;stop-opacity:1"
         offset="1"
         id="stop2667" />
    </linearGradient>
    <linearGradient
       inkscape:collect="always"
       xlink:href="#linearGradient911"
       id="linearGradient1143"
       gradientUnits="userSpaceOnUse"
       gradientTransform="matrix(1.3848926,0,0,1.3461637,-465.23716,331.47051)"
       x1="414.57144"
       y1="521.79797"
       x2="440.57144"
       y2="521.79797" />
  </defs>
  <metadata
     id="metadata5458">
    <rdf:RDF>
      <cc:Work
         rdf:about="">
        <dc:format>image/svg+xml</dc:format>
        <dc:type
           rdf:resource="http://purl.org/dc/dcmitype/StillImage" />
      </cc:Work>
    </rdf:RDF>
  </metadata>
  <g
     inkscape:label="Capa 1"
     inkscape:groupmode="layer"
     id="layer1"
     transform="translate(-384.57143,-515.798)">
    <g
       transform="matrix(0.36013848,0,0,0.37142583,359.81878,151.2823)"
       id="g4">
      <path
         inkscape:connector-curvature="0"
         id="fill"
         d="m 72.892524,993.51114 v 60.57736 c 0.150649,2.0345 1.384893,4.0385 5.410028,4.0385 h 69.000988 c 4.52787,0 6.07147,-0.6718 5.91276,-5.3847 v -48.4619 c -1.38489,-2.6923 -11.07914,0 -11.07914,-8.07693 -16.61871,-1.34617 -47.086354,1.34616 -46.987736,-6.73082 H 78.428702 c -2.766393,0 -5.536178,1.34616 -5.536178,4.03849 z"
         style="color:#1e92ff;fill:#3b445f;fill-opacity:1;fill-rule:nonzero;stroke:none;stroke-width:14.3524"
         class="ColorScheme-ButtonFocus"
         sodipodi:nodetypes="cccccccccc" />
      <path
         d="m 149.14311,1000.7945 h -4.4307 v -1.58979 c 0,-2.76106 -1.24655,-4.12194 -2.29239,-4.77803 -1.12153,-0.70309 -2.22282,-0.73896 -2.43323,-0.73896 h -38.92733 c -0.83368,0 -1.617169,-0.85429 -2.446448,-1.75898 -1.055524,-1.15159 -2.25189,-2.45609 -4.068011,-2.45609 H 77.173435 c -3.22993,0 -5.665803,2.36296 -5.665803,5.49651 v 59.00754 c 0,3.031 2.541513,5.4965 5.665803,5.4965 h 71.969675 c 3.1243,0 5.66582,-2.4655 5.66582,-5.4965 v -47.6857 c 0,-3.031 -2.54152,-5.4965 -5.66582,-5.4965 z m 3.02482,53.1822 c 0,1.618 -1.35659,2.9336 -3.02482,2.9336 H 77.173435 c -1.668214,0 -3.024813,-1.3156 -3.024813,-2.9336 v -59.00754 c 0,-1.72653 1.24391,-2.93364 3.024813,-2.93364 h 17.371566 c 0.631193,0 1.342515,0.7757 2.09519,1.59667 1.069594,1.1661 2.400659,2.61755 4.419269,2.61755 h 38.91148 c 0.39879,0.0108 1.53003,0.17939 1.94554,1.67269 H 81.311979 c -3.36738,0.0674 -5.128036,1.77607 -5.128036,5.19327 l 0.154942,46.9859 h 1.605714 c 0,0 -0.333206,0 0.0014,0 0.519389,0 1.339412,0.099 2.105299,-0.4831 1.37596,-1.0473 1.434056,-2.4048 1.421745,-2.7764 l -0.0069,-38.6037 c 0,-5.1257 0,-5.1257 5.281979,-5.1257 l 62.396088,0.2417 c 1.6682,0.01 3.02482,1.3165 3.02482,2.9337 v 47.6856 z"
         id="path2-3-3-2-3-6-7"
         sodipodi:nodetypes="scscsscssssssssscsssssscsccccccsccccsscc"
         style="fill:url(#linearGradient2671);fill-opacity:1;stroke-width:0.867212" />
      <path
         style="color:#232629;fill:url(#linearGradient1143);fill-opacity:1;stroke:none;stroke-width:1.36538"
         d="m 108.89974,1017.7421 19.38849,18.8463 v -12.1155 z m 20.77339,6.7308 15.23381,6.7308 -4.15468,-6.7308 z m -0.55396,0.4039 -0.13849,10.7693 7.61691,-7.1347 z m -5.67806,8.3462 -9.0018,16.827 13.29496,-12.7885 z"
         class="ColorScheme-Text"
         id="path12-7-7" />
    </g>
  </g>
</svg>
