<?xml version="1.0" encoding="UTF-8" standalone="no"?>
<svg
   width="32"
   version="1.1"
   height="32"
   viewBox="0 0 32 32"
   id="svg17"
   sodipodi:docname="folder-activities.svg"
   inkscape:version="1.1.2 (0a00cf5339, 2022-02-04)"
   xmlns:inkscape="http://www.inkscape.org/namespaces/inkscape"
   xmlns:sodipodi="http://sodipodi.sourceforge.net/DTD/sodipodi-0.dtd"
   xmlns:xlink="http://www.w3.org/1999/xlink"
   xmlns="http://www.w3.org/2000/svg"
   xmlns:svg="http://www.w3.org/2000/svg"
   xmlns:rdf="http://www.w3.org/1999/02/22-rdf-syntax-ns#"
   xmlns:cc="http://creativecommons.org/ns#"
   xmlns:dc="http://purl.org/dc/elements/1.1/">
  <sodipodi:namedview
     pagecolor="#ffffff"
     bordercolor="#666666"
     borderopacity="1"
     objecttolerance="10"
     gridtolerance="10"
     guidetolerance="10"
     inkscape:pageopacity="0"
     inkscape:pageshadow="2"
     inkscape:window-width="1920"
     inkscape:window-height="1007"
     id="namedview19"
     showgrid="false"
     inkscape:zoom="9.8125"
     inkscape:cx="-2.4968153"
     inkscape:cy="8.0509554"
     inkscape:window-x="0"
     inkscape:window-y="0"
     inkscape:window-maximized="1"
     inkscape:current-layer="layer1"
     inkscape:document-rotation="0"
     inkscape:pagecheckerboard="0"
     inkscape:lockguides="false" />
  <defs
     id="defs5455">
    <linearGradient
       inkscape:collect="always"
       id="linearGradient869">
      <stop
         style="stop-color:#ffb380;stop-opacity:1"
         offset="0"
         id="stop865" />
      <stop
         style="stop-color:#00b3e0;stop-opacity:1"
         offset="1"
         id="stop867" />
    </linearGradient>
    <linearGradient
       inkscape:collect="always"
       xlink:href="#linearGradient2669"
       id="linearGradient2671"
       x1="386.57144"
       y1="515.79797"
       x2="446.72144"
       y2="515.79797"
       gradientUnits="userSpaceOnUse"
       gradientTransform="matrix(0.49875312,0,0,0.5,192.76772,273.899)" />
    <linearGradient
       inkscape:collect="always"
       id="linearGradient2669">
      <stop
         style="stop-color:#5599ff;stop-opacity:1;"
         offset="0"
         id="stop2665" />
      <stop
         style="stop-color:#80e5ff;stop-opacity:1"
         offset="1"
         id="stop2667" />
    </linearGradient>
    <linearGradient
       inkscape:collect="always"
       xlink:href="#linearGradient869"
       id="linearGradient1388"
       gradientUnits="userSpaceOnUse"
       gradientTransform="matrix(0.49875312,0,0,0.5,191.91984,274.399)"
       x1="413.77142"
       y1="520.94086"
       x2="439.48572"
       y2="520.94086" />
  </defs>
  <metadata
     id="metadata5458">
    <rdf:RDF>
      <cc:Work
         rdf:about="">
        <dc:format>image/svg+xml</dc:format>
        <dc:type
           rdf:resource="http://purl.org/dc/dcmitype/StillImage" />
      </cc:Work>
    </rdf:RDF>
  </metadata>
  <g
     inkscape:label="Capa 1"
     inkscape:groupmode="layer"
     id="layer1"
     transform="translate(-384.57143,-515.798)">
    <path
       inkscape:connector-curvature="0"
       id="fill"
       d="m 386.07018,520.298 v 22.5 c 0.0543,0.75566 0.49876,1.5 1.94836,1.5 h 24.84992 c 1.63065,0 2.18656,-0.24952 2.1294,-2 v -18 c -0.49875,-1 -3.99002,0 -3.99002,-3 -5.98504,-0.5 -16.95761,0.5 -16.92209,-2.5 h -6.02177 c -0.99629,0 -1.9938,0.5 -1.9938,1.5 z"
       style="color:#1e92ff;fill:#3b445f;fill-opacity:1;fill-rule:nonzero;stroke:none;stroke-width:5.24924"
       class="ColorScheme-ButtonFocus"
       sodipodi:nodetypes="cccccccccc" />
    <path
       d="m 413.53095,523.00324 h -1.59567 v -0.5905 c 0,-1.02553 -0.44893,-1.531 -0.82557,-1.77469 -0.40391,-0.26114 -0.80052,-0.27447 -0.8763,-0.27447 h -14.01923 c -0.30025,0 -0.5824,-0.3173 -0.88106,-0.65333 -0.38013,-0.42773 -0.811,-0.91225 -1.46504,-0.91225 h -6.25618 c -1.16321,0 -2.04047,0.87766 -2.04047,2.04155 v 21.91691 c 0,1.1258 0.9153,2.04154 2.04047,2.04154 h 25.91905 c 1.12519,0 2.04048,-0.91575 2.04048,-2.04154 v -17.71167 c 0,-1.1258 -0.91529,-2.04155 -2.04048,-2.04155 z m 1.08936,19.75322 c 0,0.60097 -0.48857,1.08962 -1.08936,1.08962 H 387.6119 c -0.60079,0 -1.08935,-0.48865 -1.08935,-1.08962 v -21.91691 c 0,-0.64128 0.44798,-1.08964 1.08935,-1.08964 h 6.25617 c 0.22732,0 0.48349,0.28812 0.75456,0.59305 0.3852,0.43312 0.86457,0.97223 1.59155,0.97223 h 14.01352 c 0.14362,0.004 0.55102,0.0666 0.70066,0.62127 h -21.82601 c -1.21273,0.0251 -1.8468,0.65969 -1.8468,1.9289 l 0.0558,17.4518 h 0.57827 c 0,0 -0.11999,0.001 4.9e-4,0.001 0.18706,0 0.48238,0.0367 0.7582,-0.17942 0.49554,-0.38902 0.51647,-0.89322 0.51203,-1.03125 l -0.002,-14.3384 c 0,-1.90384 0,-1.90384 1.90225,-1.90384 l 22.47123,0.0898 c 0.60078,0.002 1.08936,0.48897 1.08936,1.08963 v 17.71166 z"
       id="path2-3-3-2-3-6-7"
       sodipodi:nodetypes="scscsscssssssssscsssssscsccccccsccccsscc"
       style="fill:url(#linearGradient2671);fill-opacity:1;stroke-width:0.317173" />
    <path
       id="Heartbeat-7"
       class="st0"
       d="m 408.1222,539.58371 c 0.47025,0 0.85501,-0.38571 0.85501,-0.85714 0,-0.47143 -0.38476,-0.85714 -0.85501,-0.85714 -0.47025,0 -0.85501,0.38571 -0.85501,0.85714 0,0.47143 0.38476,0.85714 0.85501,0.85714 z M 399.14465,529.298 h 11.97007 v 9 c 0,1.17857 -0.96188,2.14285 -2.13751,2.14285 h -9.83256 v -6 h 2.41538 l 0.7695,-1.86428 1.71001,4.26428 1.32526,-3.10714 0.34201,0.68572 h 4.5529 v -0.85715 h -4.01852 l -0.94051,-1.88571 -1.23975,2.89286 -1.71002,-4.26429 -1.34663,3.27857 h -2.71465 v -0.85714 h 0.85502 z"
       style="clip-rule:evenodd;fill:url(#linearGradient1388);fill-opacity:1;fill-rule:evenodd;stroke-width:0.214018" />
    <path
       id="Heartbeat-s-5"
       class="st1"
       d="m 410.25971,530.15514 h 0.85501 v 2.57143 h 0.855 v 0.85714 h -1.71001 z m -1.71002,10.28571 h -8.55004 v 0.85715 h 8.55004 c 1.41077,0 2.56503,-1.15715 2.56503,-2.57143 v -4.28572 h -0.85501 v 4.28572 c 0,0.94286 -0.76951,1.71428 -1.71002,1.71428 z m -7.69504,-0.85714 h 1.28252 v -0.85714 h -1.28252 z m 2.13752,0 h 1.2825 v -0.85714 h -1.2825 z"
       style="fill:#f2f2f2;fill-opacity:1;stroke-width:0.214018" />
  </g>
</svg>
