<?xml version="1.0" encoding="UTF-8" standalone="no"?>
<svg
   width="32"
   version="1.1"
   height="32"
   viewBox="0 0 32 32"
   id="svg17"
   sodipodi:docname="folder-script.svg"
   inkscape:version="1.1.2 (0a00cf5339, 2022-02-04)"
   xmlns:inkscape="http://www.inkscape.org/namespaces/inkscape"
   xmlns:sodipodi="http://sodipodi.sourceforge.net/DTD/sodipodi-0.dtd"
   xmlns:xlink="http://www.w3.org/1999/xlink"
   xmlns="http://www.w3.org/2000/svg"
   xmlns:svg="http://www.w3.org/2000/svg"
   xmlns:rdf="http://www.w3.org/1999/02/22-rdf-syntax-ns#"
   xmlns:cc="http://creativecommons.org/ns#"
   xmlns:dc="http://purl.org/dc/elements/1.1/">
  <sodipodi:namedview
     pagecolor="#ffffff"
     bordercolor="#666666"
     borderopacity="1"
     objecttolerance="10"
     gridtolerance="10"
     guidetolerance="10"
     inkscape:pageopacity="0"
     inkscape:pageshadow="2"
     inkscape:window-width="1920"
     inkscape:window-height="1007"
     id="namedview19"
     showgrid="false"
     inkscape:zoom="8.9988849"
     inkscape:cx="-17.057669"
     inkscape:cy="2.8892469"
     inkscape:window-x="0"
     inkscape:window-y="0"
     inkscape:window-maximized="1"
     inkscape:current-layer="layer1"
     inkscape:pagecheckerboard="0" />
  <defs
     id="defs5455">
    <linearGradient
       inkscape:collect="always"
       id="linearGradient1408">
      <stop
         style="stop-color:#ccaaff;stop-opacity:1"
         offset="0"
         id="stop1404" />
      <stop
         style="stop-color:#2a7fff;stop-opacity:1"
         offset="1"
         id="stop1406" />
    </linearGradient>
    <linearGradient
       inkscape:collect="always"
       xlink:href="#linearGradient2669"
       id="linearGradient2671"
       x1="386.57144"
       y1="515.79797"
       x2="446.72144"
       y2="515.79797"
       gradientUnits="userSpaceOnUse"
       gradientTransform="matrix(0.49875312,0,0,0.5,192.76772,273.899)" />
    <linearGradient
       inkscape:collect="always"
       id="linearGradient2669">
      <stop
         style="stop-color:#5599ff;stop-opacity:1;"
         offset="0"
         id="stop2665" />
      <stop
         style="stop-color:#80e5ff;stop-opacity:1"
         offset="1"
         id="stop2667" />
    </linearGradient>
    <linearGradient
       inkscape:collect="always"
       xlink:href="#linearGradient1408"
       id="linearGradient1136"
       gradientUnits="userSpaceOnUse"
       gradientTransform="matrix(0.49875312,0,0,0.5,192.76772,273.8875)"
       x1="415.20505"
       y1="521.89795"
       x2="438.07645"
       y2="521.89795" />
  </defs>
  <metadata
     id="metadata5458">
    <rdf:RDF>
      <cc:Work
         rdf:about="">
        <dc:format>image/svg+xml</dc:format>
        <dc:type
           rdf:resource="http://purl.org/dc/dcmitype/StillImage" />
      </cc:Work>
    </rdf:RDF>
  </metadata>
  <g
     inkscape:label="Capa 1"
     inkscape:groupmode="layer"
     id="layer1"
     transform="translate(-384.57143,-515.798)">
    <path
       inkscape:connector-curvature="0"
       id="fill"
       d="m 386.07018,520.298 v 22.5 c 0.0543,0.75565 0.49876,1.5 1.94836,1.5 h 24.84991 c 1.63066,0 2.18657,-0.24951 2.12941,-2 v -18 c -0.49875,-1 -3.99002,0 -3.99002,-3 -5.98504,-0.5 -16.95761,0.5 -16.92209,-2.5 h -6.02178 c -0.99628,0 -1.99379,0.5 -1.99379,1.5 z"
       style="color:#1e92ff;fill:#3b445f;fill-opacity:1;fill-rule:nonzero;stroke:none;stroke-width:5.24924"
       class="ColorScheme-ButtonFocus"
       sodipodi:nodetypes="cccccccccc" />
    <path
       d="m 413.53095,523.00325 h -1.59566 v -0.59051 c 0,-1.02553 -0.44893,-1.53099 -0.82558,-1.77468 -0.40391,-0.26115 -0.80052,-0.27448 -0.8763,-0.27448 h -14.01923 c -0.30024,0 -0.58241,-0.3173 -0.88106,-0.65333 -0.38013,-0.42773 -0.81099,-0.91225 -1.46505,-0.91225 h -6.25617 c -1.16322,0 -2.04047,0.87767 -2.04047,2.04155 v 21.9169 c 0,1.12581 0.9153,2.04155 2.04047,2.04155 h 25.91905 c 1.12518,0 2.04048,-0.91574 2.04048,-2.04155 v -17.71166 c 0,-1.1258 -0.9153,-2.04155 -2.04048,-2.04154 z m 1.08936,19.7532 c 0,0.60099 -0.48857,1.08964 -1.08936,1.08964 H 387.6119 c -0.60078,0 -1.08935,-0.48865 -1.08935,-1.08964 v -21.9169 c 0,-0.64128 0.44798,-1.08963 1.08935,-1.08963 h 6.25617 c 0.22732,0 0.48349,0.28811 0.75456,0.59304 0.3852,0.43312 0.86457,0.97223 1.59155,0.97223 h 14.01352 c 0.14362,0.004 0.55102,0.0666 0.70066,0.62128 h -21.82601 c -1.21272,0.025 -1.8468,0.65968 -1.8468,1.9289 l 0.0558,17.45179 h 0.57828 c 0,0 -0.12,0.001 4.8e-4,0.001 0.18706,0 0.48238,0.0367 0.7582,-0.17942 0.49554,-0.38901 0.51646,-0.89321 0.51203,-1.03125 l -0.002,-14.3384 c 0,-1.90383 0,-1.90383 1.90225,-1.90383 l 22.47123,0.0898 c 0.60078,0.002 1.08935,0.48896 1.08935,1.08962 v 17.71167 z"
       id="path2-3-3-2-3-6-7"
       sodipodi:nodetypes="scscsscssssssssscsssssscsccccccsccccsscc"
       style="fill:url(#linearGradient2671);fill-opacity:1;stroke-width:0.317173" />
    <path
       id="Read-7-7"
       class="st0"
       d="m 401.48209,536.68261 h 1.62971 v 0.92308 h -1.62971 z m 2.85179,-1.84615 h -2.85179 v 0.92308 h 2.85179 z m 2.44449,1.84615 h 1.62955 v 0.92308 h -1.62955 z m 2.85173,-1.84615 h -2.85173 v 0.92308 h 2.85173 z m -2.85173,-1.84615 h 2.85173 v 0.92307 h -2.85173 z m -2.44449,0 h -2.85179 v 0.92307 h 2.85179 z m 2.44449,-1.84616 h 2.85173 v 0.92308 h -2.85173 z m -5.29628,0 h 2.85179 v 0.92308 h -2.85179 z m -1.62955,-1.84615 h 4.37948 c 0.55009,0 1.05929,0.34615 1.32411,0.92307 0.24439,-0.57692 0.75368,-0.92307 1.32402,-0.92307 h 4.37957 v 9.23077 c 0,0.50769 -0.36669,0.92307 -0.81478,0.92307 h -3.56479 c -0.55003,0 -1.0592,0.34616 -1.32402,0.92308 -0.24452,-0.57692 -0.75369,-0.92308 -1.32411,-0.92308 h -4.37948 z"
       style="clip-rule:evenodd;fill:url(#linearGradient1136);fill-opacity:1;fill-rule:evenodd;stroke-width:0.216812" />
    <path
       id="Read-s-5-5"
       class="st1"
       d="m 399.03776,539.45185 v -9.23077 h 0.81478 v 9.23077 z m 12.22196,-9.23077 v 8.30769 c 0,0.50769 -0.36669,0.92308 -0.81478,0.92308 h -3.66657 c -0.50933,0 -0.95742,0.32307 -1.18146,0.83076 l -0.041,0.0923 -0.0409,-0.0923 c -0.22404,-0.50769 -0.67213,-0.83076 -1.18146,-0.83076 h -3.66656 v 0.92308 h 3.66657 c 0,0.50769 0.36668,0.92307 0.81487,0.92307 h 0.81484 c 0.44809,0 0.81477,-0.41538 0.81477,-0.92307 h 3.66657 c 0.89618,0 1.62955,-0.83077 1.62955,-1.84616 v -8.30769 z"
       style="fill:#f0f0f0;fill-opacity:1;stroke-width:0.216812" />
  </g>
</svg>
