<?xml version="1.0" encoding="UTF-8" standalone="no"?>
<svg
   width="32"
   version="1.1"
   height="32"
   viewBox="0 0 32 32"
   id="svg15"
   sodipodi:docname="folder-extension.svg"
   inkscape:version="1.1.2 (0a00cf5339, 2022-02-04)"
   xmlns:inkscape="http://www.inkscape.org/namespaces/inkscape"
   xmlns:sodipodi="http://sodipodi.sourceforge.net/DTD/sodipodi-0.dtd"
   xmlns:xlink="http://www.w3.org/1999/xlink"
   xmlns="http://www.w3.org/2000/svg"
   xmlns:svg="http://www.w3.org/2000/svg"
   xmlns:rdf="http://www.w3.org/1999/02/22-rdf-syntax-ns#"
   xmlns:cc="http://creativecommons.org/ns#"
   xmlns:dc="http://purl.org/dc/elements/1.1/">
  <sodipodi:namedview
     pagecolor="#ffffff"
     bordercolor="#666666"
     borderopacity="1"
     objecttolerance="10"
     gridtolerance="10"
     guidetolerance="10"
     inkscape:pageopacity="0"
     inkscape:pageshadow="2"
     inkscape:window-width="1920"
     inkscape:window-height="1007"
     id="namedview17"
     showgrid="true"
     inkscape:zoom="9.8125"
     inkscape:cx="1.477707"
     inkscape:cy="9.8853503"
     inkscape:window-x="0"
     inkscape:window-y="0"
     inkscape:window-maximized="1"
     inkscape:current-layer="g4"
     inkscape:pagecheckerboard="0">
    <inkscape:grid
       type="xygrid"
       id="grid862" />
  </sodipodi:namedview>
  <defs
     id="defs5455">
    <linearGradient
       inkscape:collect="always"
       xlink:href="#linearGradient2669"
       id="linearGradient2671"
       x1="386.57144"
       y1="515.79797"
       x2="446.72144"
       y2="515.79797"
       gradientUnits="userSpaceOnUse"
       gradientTransform="matrix(1.3848926,0,0,1.3461637,-463.85228,330.12434)" />
    <linearGradient
       inkscape:collect="always"
       id="linearGradient2669">
      <stop
         style="stop-color:#5599ff;stop-opacity:1;"
         offset="0"
         id="stop2665" />
      <stop
         style="stop-color:#80e5ff;stop-opacity:1"
         offset="1"
         id="stop2667" />
    </linearGradient>
  </defs>
  <metadata
     id="metadata5458">
    <rdf:RDF>
      <cc:Work
         rdf:about="">
        <dc:format>image/svg+xml</dc:format>
        <dc:type
           rdf:resource="http://purl.org/dc/dcmitype/StillImage" />
      </cc:Work>
    </rdf:RDF>
  </metadata>
  <g
     inkscape:label="Capa 1"
     inkscape:groupmode="layer"
     id="layer1"
     transform="translate(-384.57143,-515.798)">
    <g
       transform="matrix(0.36013848,0,0,0.37142583,359.81878,151.2823)"
       id="g4">
      <path
         inkscape:connector-curvature="0"
         id="fill"
         d="m 72.892525,993.51114 v 60.57736 c 0.150648,2.0345 1.384893,4.0385 5.410027,4.0385 h 69.000978 c 4.52787,0 6.07147,-0.6718 5.91276,-5.3846 v -48.462 c -1.38489,-2.6923 -11.07914,0 -11.07914,-8.07693 -16.61871,-1.34617 -47.086344,1.34616 -46.987726,-6.73082 H 78.428702 c -2.766392,0 -5.536177,1.34616 -5.536177,4.03849 z"
         style="color:#1e92ff;fill:#3b445f;fill-opacity:1;fill-rule:nonzero;stroke:none;stroke-width:14.3524"
         class="ColorScheme-ButtonFocus"
         sodipodi:nodetypes="cccccccccc" />
      <path
         d="m 149.1431,1000.7945 h -4.4307 v -1.58979 c 0,-2.76106 -1.24654,-4.12194 -2.29239,-4.77803 -1.12152,-0.70309 -2.22282,-0.73896 -2.43323,-0.73896 h -38.92733 c -0.83368,0 -1.617163,-0.85429 -2.446437,-1.75898 -1.055524,-1.15159 -2.251891,-2.45609 -4.068011,-2.45609 H 77.173436 c -3.229931,0 -5.665804,2.36296 -5.665804,5.49651 v 59.00754 c 0,3.031 2.541513,5.4965 5.665804,5.4965 H 149.1431 c 3.1243,0 5.66582,-2.4655 5.66582,-5.4965 v -47.6857 c 0,-3.031 -2.54152,-5.4965 -5.66582,-5.4965 z m 3.02483,53.1822 c 0,1.618 -1.3566,2.9336 -3.02483,2.9336 H 77.173436 c -1.668215,0 -3.024813,-1.3156 -3.024813,-2.9336 v -59.00754 c 0,-1.72653 1.24391,-2.93364 3.024813,-2.93364 h 17.371566 c 0.631192,0 1.342515,0.7757 2.09519,1.59667 1.069594,1.1661 2.400655,2.61755 4.419258,2.61755 h 38.91148 c 0.39879,0.0107 1.53003,0.17939 1.94554,1.67269 H 81.311979 c -3.36738,0.0674 -5.128036,1.77607 -5.128036,5.19327 l 0.154942,46.9859 h 1.605714 c 0,0 -0.333205,0.01 0.0014,0.01 0.519391,0 1.339413,0.099 2.1053,-0.4831 1.37596,-1.0473 1.434057,-2.4048 1.421745,-2.7764 l -0.0069,-38.6037 c 0,-5.1257 0,-5.1257 5.28198,-5.1257 l 62.396086,0.2417 c 1.6682,0.01 3.02481,1.3165 3.02481,2.9337 v 47.6856 z"
         id="path2-3-3-2-3-6-7"
         sodipodi:nodetypes="scscsscssssssssscsssssscsccccccsccccsscc"
         style="fill:url(#linearGradient2671);fill-opacity:1;stroke-width:0.867212" />
      <rect
         class="st0"
         height="24.399218"
         width="25.101177"
         x="118.50739"
         y="1024.3888"
         id="rect4-3-3"
         style="fill:#57cef3;stroke-width:0.426684" />
      <path
         class="st1"
         d="m 120.67131,1023.1268 c -1.90422,0 -3.46223,1.5144 -3.46223,3.3654 v 20.1924 c 0,1.851 1.55801,3.3654 3.46223,3.3654 h 19.04228 l 3.89501,-1.262 v -17.2477 h -0.43278 c 0,5.1322 -3.3324,9.5914 -8.2228,11.863 -1.51473,0.9676 -4.24123,1.5986 -7.35724,1.5986 -4.76057,0 -8.65558,-1.5144 -8.65558,-3.3654 v -15.1443 c 0,-0.9255 0.779,-1.6827 1.73111,-1.6827 h 5.19335 v -1.6827 z"
         id="path6-6-6"
         style="fill:#10abee;stroke-width:0.426684" />
      <path
         class="st2"
         d="m 124.13355,1023.1268 h 17.31115 c 1.90423,0 3.46223,1.5144 3.46223,3.3654 v 20.1924 c 0,1.851 -1.558,3.3654 -3.46223,3.3654 h -3.46223 v -1.6827 h 3.46223 c 0.95212,0 1.73112,-0.7572 1.73112,-1.6827 v -20.1924 c 0,-0.9255 -0.779,-1.6827 -1.73112,-1.6827 h -17.31115 z"
         id="path8-7-7"
         style="clip-rule:evenodd;fill:#f0f0f0;fill-opacity:1;fill-rule:evenodd;stroke-width:0.426684" />
      <path
         style="color:#232629;fill:#000000;fill-opacity:0.6;stroke:none;stroke-width:0.758562"
         d="m 124.67189,1029.8428 v 1.4957 h -2.30824 v 11.9659 h 16.92641 v -11.9659 h -2.30797 v -1.4957 h -3.84699 v 1.4957 h -4.6165 v -1.4957 z m 0.76924,0.748 h 2.30825 v 1.9996 h 6.15496 v -1.9996 h 2.30824 v 1.9996 h 1.78875 v 9.4619 h -14.34942 v -9.4619 h 1.78922 z"
         class="ColorScheme-Text"
         id="path12-5-5"
         sodipodi:nodetypes="cccccccccccccccccccccccccc" />
    </g>
  </g>
</svg>
