<?xml version="1.0" encoding="UTF-8" standalone="no"?>
<svg
   width="32"
   version="1.1"
   height="32"
   viewBox="0 0 32 32"
   id="svg17"
   sodipodi:docname="folder-cloud.svg"
   inkscape:version="1.1.2 (0a00cf5339, 2022-02-04)"
   xmlns:inkscape="http://www.inkscape.org/namespaces/inkscape"
   xmlns:sodipodi="http://sodipodi.sourceforge.net/DTD/sodipodi-0.dtd"
   xmlns:xlink="http://www.w3.org/1999/xlink"
   xmlns="http://www.w3.org/2000/svg"
   xmlns:svg="http://www.w3.org/2000/svg"
   xmlns:rdf="http://www.w3.org/1999/02/22-rdf-syntax-ns#"
   xmlns:cc="http://creativecommons.org/ns#"
   xmlns:dc="http://purl.org/dc/elements/1.1/">
  <sodipodi:namedview
     pagecolor="#ffffff"
     bordercolor="#666666"
     borderopacity="1"
     objecttolerance="10"
     gridtolerance="10"
     guidetolerance="10"
     inkscape:pageopacity="0"
     inkscape:pageshadow="2"
     inkscape:window-width="1920"
     inkscape:window-height="1007"
     id="namedview19"
     showgrid="false"
     inkscape:zoom="9.8125"
     inkscape:cx="-19.821656"
     inkscape:cy="8.3566879"
     inkscape:window-x="0"
     inkscape:window-y="0"
     inkscape:window-maximized="1"
     inkscape:current-layer="layer1"
     inkscape:document-rotation="0"
     inkscape:pagecheckerboard="0"
     inkscape:snap-object-midpoints="true" />
  <defs
     id="defs5455">
    <linearGradient
       inkscape:collect="always"
       id="linearGradient868">
      <stop
         style="stop-color:#2ad4ff;stop-opacity:1"
         offset="0"
         id="stop864" />
      <stop
         style="stop-color:#2a7fff;stop-opacity:1"
         offset="1"
         id="stop866" />
    </linearGradient>
    <linearGradient
       inkscape:collect="always"
       xlink:href="#linearGradient2669"
       id="linearGradient2671"
       x1="386.57144"
       y1="515.79797"
       x2="446.72144"
       y2="515.79797"
       gradientUnits="userSpaceOnUse"
       gradientTransform="matrix(0.49875312,0,0,0.5,192.76772,273.899)" />
    <linearGradient
       inkscape:collect="always"
       id="linearGradient2669">
      <stop
         style="stop-color:#5599ff;stop-opacity:1;"
         offset="0"
         id="stop2665" />
      <stop
         style="stop-color:#80e5ff;stop-opacity:1"
         offset="1"
         id="stop2667" />
    </linearGradient>
    <linearGradient
       inkscape:collect="always"
       xlink:href="#linearGradient868"
       id="linearGradient1136"
       gradientUnits="userSpaceOnUse"
       gradientTransform="matrix(0.22670596,0,0,0.22727273,397.54148,529.02527)"
       x1="0"
       y1="30"
       x2="62"
       y2="30" />
  </defs>
  <metadata
     id="metadata5458">
    <rdf:RDF>
      <cc:Work
         rdf:about="">
        <dc:format>image/svg+xml</dc:format>
        <dc:type
           rdf:resource="http://purl.org/dc/dcmitype/StillImage" />
      </cc:Work>
    </rdf:RDF>
  </metadata>
  <g
     inkscape:label="Capa 1"
     inkscape:groupmode="layer"
     id="layer1"
     transform="translate(-384.57143,-515.798)">
    <path
       inkscape:connector-curvature="0"
       id="fill"
       d="m 386.07018,520.298 v 22.5 c 0.0543,0.75565 0.49876,1.5 1.94836,1.5 h 24.84991 c 1.63066,0 2.18657,-0.24952 2.12941,-2 v -18 c -0.49875,-1 -3.99002,0 -3.99002,-3 -5.98504,-0.5 -16.95761,0.5 -16.9221,-2.5 h -6.02177 c -0.99628,0 -1.99379,0.5 -1.99379,1.5 z"
       style="color:#1e92ff;fill:#3b445f;fill-opacity:1;fill-rule:nonzero;stroke:none;stroke-width:5.24924"
       class="ColorScheme-ButtonFocus"
       sodipodi:nodetypes="cccccccccc" />
    <path
       d="m 413.53095,523.00324 h -1.59567 v -0.5905 c 0,-1.02553 -0.44893,-1.531 -0.82558,-1.77469 -0.4039,-0.26114 -0.80051,-0.27447 -0.87629,-0.27447 h -14.01924 c -0.30024,0 -0.5824,-0.3173 -0.88105,-0.65333 -0.38013,-0.42773 -0.811,-0.91225 -1.46505,-0.91225 h -6.25617 c -1.16322,0 -2.04047,0.87766 -2.04047,2.04155 v 21.9169 c 0,1.1258 0.91529,2.04155 2.04047,2.04155 h 25.91905 c 1.12518,0 2.04048,-0.91575 2.04048,-2.04155 v -17.71166 c 0,-1.1258 -0.9153,-2.04155 -2.04048,-2.04155 z m 1.08936,19.75321 c 0,0.60098 -0.48857,1.08963 -1.08936,1.08963 H 387.6119 c -0.60079,0 -1.08935,-0.48865 -1.08935,-1.08963 v -21.9169 c 0,-0.64128 0.44798,-1.08964 1.08935,-1.08964 h 6.25617 c 0.22732,0 0.48349,0.28812 0.75456,0.59305 0.3852,0.43312 0.86457,0.97223 1.59154,0.97223 h 14.01353 c 0.14362,0.004 0.55102,0.0666 0.70066,0.62127 h -21.82601 c -1.21273,0.0251 -1.8468,0.65969 -1.8468,1.9289 l 0.0558,17.4518 h 0.57827 c 0,0 -0.12,0.001 4.9e-4,0.001 0.18706,0 0.48238,0.0367 0.7582,-0.17942 0.49554,-0.38902 0.51646,-0.89321 0.51203,-1.03125 l -0.002,-14.3384 c 0,-1.90384 0,-1.90384 1.90225,-1.90384 l 22.47123,0.0898 c 0.60078,0.002 1.08935,0.48897 1.08935,1.08963 v 17.71166 z"
       id="path2-3-3-2-3-6-7"
       sodipodi:nodetypes="scscsscssssssssscsssssscsccccccsccccsscc"
       style="fill:url(#linearGradient2671);fill-opacity:1;stroke-width:0.317173" />
    <path
       id="Cloud-8-7"
       class="st0"
       d="m 410.19168,536.00255 c 0.0226,-0.20455 0.0454,-0.4091 0.0454,-0.61364 0,-2.25 -1.83632,-4.09091 -4.08071,-4.09091 -2.24439,0 -4.08071,1.84091 -4.08071,4.09091 0,0.15909 0,0.29546 0.0226,0.45454 h -2.28973 c -1.24689,0 -2.26706,1.02274 -2.26706,2.27274 v 2.27272 h 11.78871 c 1.24689,0 2.26707,-1.02272 2.26707,-2.27272 0,-0.95455 -0.58944,-1.77274 -1.40558,-2.11364 z"
       style="fill:url(#linearGradient1136);fill-opacity:1;stroke-width:0.226988" />
    <path
       id="Cloud-s-7-5"
       class="st1"
       d="m 401.16878,534.02527 c -0.49876,0 -0.90682,0.4091 -0.90682,0.9091 v 0.90908 h -0.45342 c -0.1587,0 -0.31739,0.0228 -0.45341,0.0454 v -0.95454 c 0,-1 0.81614,-1.81818 1.81365,-1.81818 h 0.45341 v 0.90909 z m 10.88188,4.54546 c 0,-1.5 -1.22421,-2.72728 -2.72047,-2.72728 v 0.9091 c 0.99751,0 1.81365,0.81818 1.81365,1.81818 0,1 -0.81614,1.81818 -1.81365,1.81818 h -10.88188 v 0.90909 h 10.88188 c 1.49626,0 2.72047,-1.22727 2.72047,-2.72727 z"
       style="fill:#f2f2f2;fill-opacity:1;stroke-width:0.226988" />
  </g>
</svg>
