<?xml version="1.0" encoding="UTF-8" standalone="no"?>
<svg
   height="32"
   width="32"
   version="1.1"
   id="svg23"
   sodipodi:docname="folder-root.svg"
   inkscape:version="1.1.2 (0a00cf5339, 2022-02-04)"
   xmlns:inkscape="http://www.inkscape.org/namespaces/inkscape"
   xmlns:sodipodi="http://sodipodi.sourceforge.net/DTD/sodipodi-0.dtd"
   xmlns:xlink="http://www.w3.org/1999/xlink"
   xmlns="http://www.w3.org/2000/svg"
   xmlns:svg="http://www.w3.org/2000/svg"
   xmlns:rdf="http://www.w3.org/1999/02/22-rdf-syntax-ns#"
   xmlns:cc="http://creativecommons.org/ns#"
   xmlns:dc="http://purl.org/dc/elements/1.1/">
  <metadata
     id="metadata29">
    <rdf:RDF>
      <cc:Work
         rdf:about="">
        <dc:format>image/svg+xml</dc:format>
        <dc:type
           rdf:resource="http://purl.org/dc/dcmitype/StillImage" />
      </cc:Work>
    </rdf:RDF>
  </metadata>
  <defs
     id="defs27">
    <linearGradient
       inkscape:collect="always"
       id="linearGradient1492">
      <stop
         style="stop-color:#2ad4ff;stop-opacity:1"
         offset="0"
         id="stop1488" />
      <stop
         style="stop-color:#2a7fff;stop-opacity:1"
         offset="1"
         id="stop1490" />
    </linearGradient>
    <linearGradient
       inkscape:collect="always"
       xlink:href="#linearGradient2669"
       id="linearGradient2671"
       x1="386.57144"
       y1="515.79797"
       x2="446.72144"
       y2="515.79797"
       gradientUnits="userSpaceOnUse"
       gradientTransform="matrix(0.49875312,0,0,0.50000001,-191.80371,-241.89899)" />
    <linearGradient
       inkscape:collect="always"
       id="linearGradient2669">
      <stop
         style="stop-color:#5599ff;stop-opacity:1;"
         offset="0"
         id="stop2665" />
      <stop
         style="stop-color:#80e5ff;stop-opacity:1"
         offset="1"
         id="stop2667" />
    </linearGradient>
    <linearGradient
       inkscape:collect="always"
       xlink:href="#linearGradient1492"
       id="linearGradient863"
       gradientUnits="userSpaceOnUse"
       x1="4"
       y1="32"
       x2="60"
       y2="32" />
  </defs>
  <sodipodi:namedview
     pagecolor="#ffffff"
     bordercolor="#666666"
     borderopacity="1"
     objecttolerance="10"
     gridtolerance="10"
     guidetolerance="10"
     inkscape:pageopacity="0"
     inkscape:pageshadow="2"
     inkscape:window-width="1920"
     inkscape:window-height="1007"
     id="namedview25"
     showgrid="false"
     inkscape:zoom="9.8125"
     inkscape:cx="-11.057325"
     inkscape:cy="12.535032"
     inkscape:window-x="0"
     inkscape:window-y="0"
     inkscape:window-maximized="1"
     inkscape:current-layer="svg23"
     inkscape:pagecheckerboard="0" />
  <linearGradient
     id="a"
     gradientUnits="userSpaceOnUse"
     x2="0"
     y1="29"
     y2="8">
    <stop
       offset="0"
       stop-color="#3daee9"
       id="stop2" />
    <stop
       offset="1"
       stop-color="#6cc1ef"
       id="stop4" />
  </linearGradient>
  <path
     inkscape:connector-curvature="0"
     id="fill"
     d="M 1.498753,4.5 V 27 c 0.05425,0.755655 0.498753,1.5 1.948359,1.5 h 24.84991 c 1.630659,0 2.186568,-0.249515 2.129411,-2 V 8.5000001 c -0.498753,-1 -3.990024,0 -3.990024,-3.0000001 C 20.451371,5 9.478803,6 9.514319,3 H 3.492544 C 2.496259,3 1.498753,3.5 1.498753,4.5 Z"
     style="color:#1e92ff;fill:#3b445f;fill-opacity:1;fill-rule:nonzero;stroke:none;stroke-width:5.24924"
     class="ColorScheme-ButtonFocus"
     sodipodi:nodetypes="cccccccccc" />
  <path
     d="M 28.95952,7.2052451 H 27.363854 V 6.6147401 C 27.363854,5.58921 26.914927,5.083745 26.538278,4.840055 26.134374,4.57891 25.737755,4.565585 25.661979,4.565585 H 11.642748 c -0.300239,0 -0.582404,-0.317305 -0.881057,-0.65333 C 10.381556,3.484525 9.950698,3 9.296643,3 H 3.040474 C 1.877252,3 1,3.877665 1,5.041545 v 21.91691 C 1,28.084255 1.915297,29 3.040474,29 H 28.95952 c 1.125182,0 2.040479,-0.915745 2.040479,-2.041545 V 9.2467901 c 0,-1.1258 -0.915296,-2.041545 -2.040479,-2.041545 z m 1.089357,19.7532099 c 0,0.60098 -0.488564,1.08963 -1.089357,1.08963 H 3.040474 c -0.600788,0 -1.089352,-0.48865 -1.089352,-1.08963 V 5.041545 c 0,-0.641275 0.44798,-1.08963 1.089352,-1.08963 h 6.256169 c 0.227317,0 0.4834915,0.288115 0.754559,0.593045 0.385202,0.43312 0.864569,0.972225 1.591545,0.972225 h 14.013521 c 0.143621,0.004 0.551023,0.06663 0.700664,0.62128 H 4.530923 C 3.3182,6.163515 2.68412,6.7981451 2.68412,8.0673651 L 2.73992,25.51916 H 3.3182 c 0,0 -0.12,0.001 4.83e-4,0.001 0.187053,0 0.482374,0.03665 0.7582,-0.17942 0.495536,-0.389015 0.516459,-0.893215 0.512025,-1.031245 L 4.586408,9.9710905 c 0,-1.9038354 0,-1.9038354 1.902244,-1.9038354 l 22.471231,0.0898 c 0.600783,0.0025 1.089352,0.488965 1.089352,1.089625 V 26.958345 Z"
     id="path2-3-3-2-3-6-7"
     sodipodi:nodetypes="scscsscssssssssscsssssscsccccccsccccsscc"
     style="fill:url(#linearGradient2671);fill-opacity:1;stroke-width:0.317173" />
  <polygon
     id="X-5-5"
     class="st0"
     points="43.2,32 60,15.2 48.8,4 4,48.8 15.2,60 32,43.2 48.8,60 60,48.8 "
     transform="matrix(0.21365595,0,0,0.21419009,14.609216,12.64324)"
     style="fill:url(#linearGradient863);fill-opacity:1" />
  <path
     id="X-s-3-3"
     class="st1"
     d="m 17.002165,16.77711 2.392945,2.39893 -0.598237,0.59973 -2.414315,-2.39893 c -0.66233,-0.66399 -0.66233,-1.73494 0,-2.420345 L 17.856786,13.5 l 0.598235,0.59973 -1.452858,1.456495 c -0.34185,0.342705 -0.34185,0.8996 2e-6,1.220885 z m 9.828173,-0.27845 -2.991187,2.99866 0.59824,0.599735 2.991181,-2.99866 z m -2.862992,7.646585 -2.392948,-2.398925 -3.119377,3.148595 0.598241,0.59973 2.521136,-2.527445 1.773347,1.77778 c 1.004184,1.006695 2.627965,1.006695 3.632149,0 l 0.448679,-0.4498 -0.598235,-0.59973 -0.448678,0.449795 c -0.662334,0.66399 -1.75198,0.66399 -2.414314,0 z"
     style="fill:#f0f0f0;fill-opacity:1;stroke-width:0.213923" />
</svg>
