<?xml version="1.0" encoding="UTF-8" standalone="no"?>
<svg
   width="32"
   version="1.1"
   height="32"
   viewBox="0 0 32 32"
   id="svg17"
   sodipodi:docname="folder-public.svg"
   inkscape:version="1.1.2 (0a00cf5339, 2022-02-04)"
   xmlns:inkscape="http://www.inkscape.org/namespaces/inkscape"
   xmlns:sodipodi="http://sodipodi.sourceforge.net/DTD/sodipodi-0.dtd"
   xmlns:xlink="http://www.w3.org/1999/xlink"
   xmlns="http://www.w3.org/2000/svg"
   xmlns:svg="http://www.w3.org/2000/svg"
   xmlns:rdf="http://www.w3.org/1999/02/22-rdf-syntax-ns#"
   xmlns:cc="http://creativecommons.org/ns#"
   xmlns:dc="http://purl.org/dc/elements/1.1/">
  <sodipodi:namedview
     pagecolor="#ffffff"
     bordercolor="#666666"
     borderopacity="1"
     objecttolerance="10"
     gridtolerance="10"
     guidetolerance="10"
     inkscape:pageopacity="0"
     inkscape:pageshadow="2"
     inkscape:window-width="1920"
     inkscape:window-height="1007"
     id="namedview19"
     showgrid="false"
     inkscape:zoom="9.8125"
     inkscape:cx="-13.299363"
     inkscape:cy="8.0509554"
     inkscape:window-x="0"
     inkscape:window-y="0"
     inkscape:window-maximized="1"
     inkscape:current-layer="layer1"
     inkscape:pagecheckerboard="0" />
  <defs
     id="defs5455">
    <linearGradient
       inkscape:collect="always"
       id="linearGradient1076">
      <stop
         style="stop-color:#5599ff;stop-opacity:1"
         offset="0"
         id="stop1072" />
      <stop
         style="stop-color:#5f5fd3;stop-opacity:1"
         offset="1"
         id="stop1074" />
    </linearGradient>
    <linearGradient
       inkscape:collect="always"
       xlink:href="#linearGradient2669"
       id="linearGradient2671"
       x1="386.57144"
       y1="515.79797"
       x2="446.72144"
       y2="515.79797"
       gradientUnits="userSpaceOnUse"
       gradientTransform="matrix(0.49875312,0,0,0.5,192.76773,273.89901)" />
    <linearGradient
       inkscape:collect="always"
       id="linearGradient2669">
      <stop
         style="stop-color:#5599ff;stop-opacity:1;"
         offset="0"
         id="stop2665" />
      <stop
         style="stop-color:#80e5ff;stop-opacity:1"
         offset="1"
         id="stop2667" />
    </linearGradient>
    <linearGradient
       inkscape:collect="always"
       xlink:href="#linearGradient1076"
       id="linearGradient1136"
       gradientUnits="userSpaceOnUse"
       gradientTransform="matrix(0.49875312,0,0,0.5,192.76773,274.39901)"
       x1="418.92856"
       y1="520.94086"
       x2="439.5"
       y2="520.94086" />
  </defs>
  <metadata
     id="metadata5458">
    <rdf:RDF>
      <cc:Work
         rdf:about="">
        <dc:format>image/svg+xml</dc:format>
        <dc:type
           rdf:resource="http://purl.org/dc/dcmitype/StillImage" />
      </cc:Work>
    </rdf:RDF>
  </metadata>
  <g
     inkscape:label="Capa 1"
     inkscape:groupmode="layer"
     id="layer1"
     transform="translate(-384.57143,-515.798)">
    <path
       inkscape:connector-curvature="0"
       id="fill"
       d="m 386.07018,520.298 v 22.5 c 0.0543,0.75565 0.49876,1.5 1.94836,1.5 h 24.84991 c 1.63066,0 2.18657,-0.24952 2.12941,-2 v -18 c -0.49875,-1 -3.99002,0 -3.99002,-3 -5.98504,-0.5 -16.95761,0.5 -16.9221,-2.5 h -6.02177 c -0.99628,0 -1.99379,0.5 -1.99379,1.5 z"
       style="color:#1e92ff;fill:#3b445f;fill-opacity:1;fill-rule:nonzero;stroke:none;stroke-width:5.24924"
       class="ColorScheme-ButtonFocus"
       sodipodi:nodetypes="cccccccccc" />
    <path
       d="m 413.53095,523.00324 h -1.59567 v -0.5905 c 0,-1.02553 -0.44893,-1.531 -0.82558,-1.77469 -0.4039,-0.26114 -0.80051,-0.27447 -0.87629,-0.27447 h -14.01923 c -0.30024,0 -0.5824,-0.3173 -0.88105,-0.65333 -0.38014,-0.42773 -0.811,-0.91225 -1.46505,-0.91225 h -6.25617 c -1.16323,0 -2.04048,0.87766 -2.04048,2.04154 v 21.91691 c 0,1.1258 0.91529,2.04155 2.04048,2.04155 h 25.91904 c 1.12518,0 2.04048,-0.91575 2.04048,-2.04155 v -17.71166 c 0,-1.1258 -0.9153,-2.04155 -2.04048,-2.04155 z m 1.08936,19.75321 c 0,0.60098 -0.48857,1.08963 -1.08936,1.08963 h -25.91904 c -0.60079,0 -1.08936,-0.48865 -1.08936,-1.08963 v -21.91691 c 0,-0.64127 0.44798,-1.08962 1.08936,-1.08962 h 6.25617 c 0.22731,0 0.48348,0.28811 0.75455,0.59304 0.38521,0.43312 0.86457,0.97222 1.59155,0.97222 h 14.01352 c 0.14362,0.004 0.55102,0.0666 0.70066,0.62129 h -21.82601 c -1.21272,0.025 -1.8468,0.65968 -1.8468,1.9289 l 0.0558,17.45179 h 0.57828 c 0,0 -0.12,0.001 4.8e-4,0.001 0.18706,0 0.48238,0.0367 0.75821,-0.17942 0.49553,-0.38902 0.51646,-0.89322 0.51202,-1.03125 l -0.002,-14.3384 c 0,-1.90384 0,-1.90384 1.90225,-1.90384 l 22.47123,0.0898 c 0.60078,0.002 1.08935,0.48897 1.08935,1.08963 v 17.71166 z"
       id="path2-3-3-2-3-6-7"
       sodipodi:nodetypes="scscsscssssssssscsssssscsccccccsccccsscc"
       style="fill:url(#linearGradient2671);fill-opacity:1;stroke-width:0.317173" />
    <path
       id="Friends-4-2-7"
       class="st0"
       d="m 404.27467,531.86943 c 0,-1.41429 1.15426,-2.57143 2.56502,-2.57143 1.41075,0 2.56501,1.15714 2.56501,2.57143 0,1.41428 -1.15426,2.57142 -2.56501,2.57142 -1.41076,0 -2.56502,-1.15714 -2.56502,-2.57142 z m 0.4275,3.42857 c -1.64588,0 -2.99252,1.35 -2.99252,3 v 2.14285 h 8.55006 c 0.9405,0 1.71,-0.77142 1.71,-1.71428 V 538.298 c 0,-1.65 -1.34663,-3 -2.99251,-3 z"
       style="fill:url(#linearGradient1136);fill-opacity:1;stroke-width:0.214018" />
    <path
       id="Friends-s-8-7-5"
       class="st1"
       d="m 399.14464,532.298 c 0,-1.17857 0.96188,-2.14286 2.13751,-2.14286 1.17563,0 2.13751,0.96429 2.13751,2.14286 0,1.17857 -0.96188,2.14285 -2.13751,2.14285 -1.17563,0 -2.13751,-0.96428 -2.13751,-2.14285 z m 2.13751,-1.28572 c -0.70538,0 -1.28251,0.57858 -1.28251,1.28572 0,0.70714 0.57713,1.28571 1.28251,1.28571 0.70538,0 1.28251,-0.57857 1.28251,-1.28571 0,-0.70715 -0.57713,-1.28572 -1.28251,-1.28572 z m 1.28251,5.14286 c 0.0214,0 0.0214,0 0.0428,0 0.25651,-0.23571 0.53438,-0.44999 0.87639,-0.6 -0.27788,-0.17143 -0.57714,-0.25714 -0.91913,-0.25714 h -2.56502 c -0.9405,0 -1.71001,0.77143 -1.71001,1.71428 v 1.71429 h 0.85502 v -1.71429 c 0,-0.47143 0.38473,-0.85714 0.85499,-0.85714 z m 0,4.28571 v 0.85715 h 6.84004 c 1.41076,0 2.56501,-1.15715 2.56501,-2.57143 V 538.298 h -0.855 v 0.42857 c 0,0.94286 -0.7695,1.71428 -1.71001,1.71428 z"
       style="clip-rule:evenodd;fill:#f0f0f0;fill-opacity:1;fill-rule:evenodd;stroke-width:0.214018" />
  </g>
</svg>
