<?xml version="1.0" encoding="UTF-8" standalone="no"?>
<svg
   width="32"
   version="1.1"
   height="32"
   viewBox="0 0 32 32"
   id="svg15"
   sodipodi:docname="folder-table.svg"
   inkscape:version="1.1.2 (0a00cf5339, 2022-02-04)"
   xmlns:inkscape="http://www.inkscape.org/namespaces/inkscape"
   xmlns:sodipodi="http://sodipodi.sourceforge.net/DTD/sodipodi-0.dtd"
   xmlns:xlink="http://www.w3.org/1999/xlink"
   xmlns="http://www.w3.org/2000/svg"
   xmlns:svg="http://www.w3.org/2000/svg"
   xmlns:rdf="http://www.w3.org/1999/02/22-rdf-syntax-ns#"
   xmlns:cc="http://creativecommons.org/ns#"
   xmlns:dc="http://purl.org/dc/elements/1.1/">
  <sodipodi:namedview
     pagecolor="#ffffff"
     bordercolor="#666666"
     borderopacity="1"
     objecttolerance="10"
     gridtolerance="10"
     guidetolerance="10"
     inkscape:pageopacity="0"
     inkscape:pageshadow="2"
     inkscape:window-width="1920"
     inkscape:window-height="1007"
     id="namedview17"
     showgrid="true"
     inkscape:zoom="9.8125"
     inkscape:cx="1.477707"
     inkscape:cy="18.140127"
     inkscape:window-x="0"
     inkscape:window-y="0"
     inkscape:window-maximized="1"
     inkscape:current-layer="g4"
     inkscape:pagecheckerboard="0">
    <inkscape:grid
       type="xygrid"
       id="grid862" />
  </sodipodi:namedview>
  <defs
     id="defs5455">
    <linearGradient
       inkscape:collect="always"
       id="linearGradient1058">
      <stop
         style="stop-color:#37c8ab;stop-opacity:1"
         offset="0"
         id="stop1054" />
      <stop
         style="stop-color:#aa87de;stop-opacity:1"
         offset="1"
         id="stop1056" />
    </linearGradient>
    <linearGradient
       inkscape:collect="always"
       xlink:href="#linearGradient2669"
       id="linearGradient2671"
       x1="386.57144"
       y1="515.79797"
       x2="446.72144"
       y2="515.79797"
       gradientUnits="userSpaceOnUse"
       gradientTransform="matrix(1.3848926,0,0,1.3461634,-463.85228,330.12449)" />
    <linearGradient
       inkscape:collect="always"
       id="linearGradient2669">
      <stop
         style="stop-color:#5599ff;stop-opacity:1;"
         offset="0"
         id="stop2665" />
      <stop
         style="stop-color:#80e5ff;stop-opacity:1"
         offset="1"
         id="stop2667" />
    </linearGradient>
    <linearGradient
       inkscape:collect="always"
       xlink:href="#linearGradient1058"
       id="linearGradient1137"
       gradientUnits="userSpaceOnUse"
       gradientTransform="matrix(1.3848926,0,0,1.3461634,-465.23716,331.47065)"
       x1="416.57144"
       y1="520.94086"
       x2="440.57144"
       y2="520.94086" />
  </defs>
  <metadata
     id="metadata5458">
    <rdf:RDF>
      <cc:Work
         rdf:about="">
        <dc:format>image/svg+xml</dc:format>
        <dc:type
           rdf:resource="http://purl.org/dc/dcmitype/StillImage" />
      </cc:Work>
    </rdf:RDF>
  </metadata>
  <g
     inkscape:label="Capa 1"
     inkscape:groupmode="layer"
     id="layer1"
     transform="translate(-384.57143,-515.798)">
    <g
       transform="matrix(0.36013848,0,0,0.37142583,359.81878,151.2823)"
       id="g4">
      <path
         inkscape:connector-curvature="0"
         id="fill"
         d="m 72.892524,993.51115 v 60.57715 c 0.15065,2.0345 1.384894,4.0385 5.410028,4.0385 h 69.000978 c 4.52787,0 6.07147,-0.6718 5.91276,-5.3847 v -48.4619 c -1.38489,-2.6922 -11.07914,0 -11.07914,-8.07673 -16.61871,-1.34616 -47.086344,1.34616 -46.987725,-6.73082 H 78.428702 c -2.766392,0 -5.536178,1.34617 -5.536178,4.0385 z"
         style="color:#1e92ff;fill:#3b445f;fill-opacity:1;fill-rule:nonzero;stroke:none;stroke-width:14.3525"
         class="ColorScheme-ButtonFocus"
         sodipodi:nodetypes="cccccccccc" />
      <path
         d="m 149.1431,1000.7945 h -4.4307 v -1.58979 c 0,-2.76105 -1.24654,-4.12193 -2.29239,-4.77802 -1.12152,-0.70309 -2.22282,-0.73897 -2.43322,-0.73897 h -38.92734 c -0.83368,0 -1.617163,-0.85429 -2.446437,-1.75898 -1.055523,-1.15159 -2.251891,-2.45609 -4.068011,-2.45609 H 77.173436 c -3.22993,0 -5.665804,2.36297 -5.665804,5.49651 v 59.00724 c 0,3.0311 2.541513,5.4965 5.665804,5.4965 H 149.1431 c 3.1243,0 5.66582,-2.4654 5.66582,-5.4965 v -47.6856 c 0,-3.031 -2.54152,-5.4963 -5.66582,-5.4963 z m 3.02483,53.1819 c 0,1.6181 -1.3566,2.9337 -3.02483,2.9337 H 77.173436 c -1.668214,0 -3.024813,-1.3156 -3.024813,-2.9337 v -59.00724 c 0,-1.72652 1.243909,-2.93364 3.024813,-2.93364 h 17.371566 c 0.631193,0 1.342515,0.7757 2.09519,1.59667 1.069594,1.1661 2.400656,2.61755 4.419258,2.61755 h 38.91148 c 0.39879,0.0108 1.53003,0.17939 1.94554,1.67268 H 81.31198 c -3.367382,0.0674 -5.128036,1.77608 -5.128036,5.19298 l 0.154941,46.986 h 1.605713 c 0,0 -0.333204,0 0.0014,0 0.51939,0 1.339413,0.099 2.1053,-0.4831 1.375961,-1.0473 1.434056,-2.4048 1.421745,-2.7764 l -0.0069,-38.6037 c 0,-5.1258 0,-5.1258 5.281981,-5.1258 l 62.396086,0.2418 c 1.6682,0.01 3.02481,1.3165 3.02481,2.9336 v 47.6856 z"
         id="path2-3-3-2-3-6-7"
         sodipodi:nodetypes="scscsscssssssssscsssssscsccccccsccccsscc"
         style="fill:url(#linearGradient2671);fill-opacity:1;stroke-width:0.867212" />
      <path
         id="Calendar-7-7"
         class="st0"
         d="m 111.66951,1017.7419 v 6.9231 h 30.86332 v 2.3077 h -30.86332 v 20.7694 h 27.30218 c 3.26438,0 5.93525,-2.5962 5.93525,-5.7693 v -24.2309 z m 8.30936,26.5386 h -3.56116 v -3.4615 h 3.56116 z m 0,-5.7692 h -3.56116 v -3.4616 h 3.56116 z m 5.93525,5.7692 h -3.56114 v -3.4615 h 3.56114 z m 0,-5.7692 h -3.56114 v -3.4616 h 3.56114 z m 0,-5.7693 h -3.56114 v -3.4616 h 3.56114 z m 5.93526,11.5385 h -3.56116 v -3.4615 h 3.56116 z m 0,-5.7692 h -3.56116 v -3.4616 h 3.56116 z m 0,-5.7693 h -3.56116 v -3.4616 h 3.56116 z m 5.93525,5.7693 h -3.56116 v -3.4616 h 3.56116 z m 0,-5.7693 h -3.56116 v -3.4616 h 3.56116 z"
         style="clip-rule:evenodd;fill:url(#linearGradient1137);fill-opacity:1;fill-rule:evenodd;stroke-width:0.585169" />
      <path
         id="Calendar-s-5-5"
         class="st1"
         d="m 142.53283,1043.1267 v -16.154 h 2.37411 v 16.154 c 0,3.8077 -3.20505,6.9231 -7.12231,6.9231 h -23.74101 v -2.3077 h 23.74101 c 2.61152,0 4.7482,-2.0769 4.7482,-4.6154 z m 0,-18.4617 v -6.9231 h 2.37411 v 6.9231 z m -7.09262,-6.8638 v 0.058 h 2.26762 v 0 0 -10e-5 l 0.0769,4.503 h -2.37409 z m -19.01518,-0.01 v 0.058 l 2.3671,-0.035 v 0 0 0 l -3.1e-4,4.5396 h -2.37411 z"
         sodipodi:nodetypes="sccssccssccccccccccccccccccccccc"
         style="clip-rule:evenodd;fill:#f0f0f0;fill-opacity:1;fill-rule:evenodd;stroke-width:0.585169" />
    </g>
  </g>
</svg>
