<?xml version="1.0" encoding="UTF-8" standalone="no"?>
<svg
   width="32"
   version="1.1"
   height="32"
   viewBox="0 0 32 32"
   id="svg15"
   sodipodi:docname="folder-deb.svg"
   inkscape:version="1.1.2 (0a00cf5339, 2022-02-04)"
   xmlns:inkscape="http://www.inkscape.org/namespaces/inkscape"
   xmlns:sodipodi="http://sodipodi.sourceforge.net/DTD/sodipodi-0.dtd"
   xmlns="http://www.w3.org/2000/svg"
   xmlns:svg="http://www.w3.org/2000/svg"
   xmlns:rdf="http://www.w3.org/1999/02/22-rdf-syntax-ns#"
   xmlns:cc="http://creativecommons.org/ns#"
   xmlns:dc="http://purl.org/dc/elements/1.1/">
  <sodipodi:namedview
     pagecolor="#ffffff"
     bordercolor="#666666"
     borderopacity="1"
     objecttolerance="10"
     gridtolerance="10"
     guidetolerance="10"
     inkscape:pageopacity="0"
     inkscape:pageshadow="2"
     inkscape:window-width="1920"
     inkscape:window-height="1007"
     id="namedview17"
     showgrid="true"
     inkscape:zoom="9.8125"
     inkscape:cx="1.477707"
     inkscape:cy="1.8343949"
     inkscape:window-x="0"
     inkscape:window-y="0"
     inkscape:window-maximized="1"
     inkscape:current-layer="g4"
     inkscape:pagecheckerboard="0">
    <inkscape:grid
       type="xygrid"
       id="grid862" />
  </sodipodi:namedview>
  <defs
     id="defs5455" />
  <metadata
     id="metadata5458">
    <rdf:RDF>
      <cc:Work
         rdf:about="">
        <dc:format>image/svg+xml</dc:format>
        <dc:type
           rdf:resource="http://purl.org/dc/dcmitype/StillImage" />
      </cc:Work>
    </rdf:RDF>
  </metadata>
  <g
     inkscape:label="Capa 1"
     inkscape:groupmode="layer"
     id="layer1"
     transform="translate(-384.57143,-515.798)">
    <g
       transform="matrix(0.36013848,0,0,0.37142583,359.81878,151.2823)"
       id="g4">
      <path
         inkscape:connector-curvature="0"
         id="fill"
         d="m 72.060213,993.54277 v 61.05243 c 0.153294,2.0504 1.409654,4.0702 5.506762,4.0702 h 70.234465 c 4.60882,0 6.18007,-0.6771 6.01859,-5.4269 v -48.842 c -1.40977,-2.7134 -11.27725,0 -11.27725,-8.1403 -16.91582,-1.35672 -47.928179,1.35673 -47.827802,-6.78355 H 77.695396 c -2.815916,0 -5.635183,1.3567 -5.635183,4.07012 z"
         style="color:#1e92ff;fill:#3b445f;fill-opacity:1;fill-rule:nonzero;stroke:none;stroke-width:14.5365"
         class="ColorScheme-ButtonFocus"
         sodipodi:nodetypes="cccccccccc" />
      <path
         d="m 149.1431,1000.7945 h -4.4307 v -1.58979 c 0,-2.76106 -1.24654,-4.12194 -2.29238,-4.77803 -1.12153,-0.70309 -2.22282,-0.73897 -2.43323,-0.73897 h -38.92734 c -0.83368,0 -1.617163,-0.85429 -2.446437,-1.75897 -1.055524,-1.15159 -2.251891,-2.45609 -4.068011,-2.45609 H 77.173435 c -3.229929,0 -5.665803,2.36296 -5.665803,5.4965 v 59.00745 c 0,3.031 2.541513,5.4965 5.665803,5.4965 H 149.1431 c 3.12431,0 5.66582,-2.4655 5.66582,-5.4965 v -47.6856 c 0,-3.0311 -2.54151,-5.4965 -5.66582,-5.4965 z m 3.02483,53.1821 c 0,1.618 -1.3566,2.9336 -3.02483,2.9336 H 77.173435 c -1.668214,0 -3.024812,-1.3156 -3.024812,-2.9336 v -59.00745 c 0,-1.72652 1.24391,-2.93364 3.024812,-2.93364 h 17.371567 c 0.631193,0 1.342514,0.7757 2.09519,1.59667 1.069594,1.16611 2.400656,2.61755 4.419258,2.61755 h 38.91148 c 0.39879,0.0108 1.53003,0.17939 1.94554,1.67269 H 81.311979 c -3.36738,0.0674 -5.128035,1.77612 -5.128035,5.19318 l 0.154941,46.9859 h 1.605714 c 0,0 -0.333205,0.01 0.0014,0.01 0.519389,0 1.339412,0.099 2.105299,-0.483 1.37596,-1.0474 1.434057,-2.4048 1.421744,-2.7765 l -0.0069,-38.6036 c 0,-5.1258 0,-5.1258 5.28198,-5.1258 l 62.396088,0.2418 c 1.6682,0.01 3.02481,1.3164 3.02481,2.9336 v 47.6856 z"
         id="path2-3-3-3-3"
         sodipodi:nodetypes="scscsscssssssssscsssssscsccccccsccccsscc"
         style="fill:#f62459;fill-opacity:1;stroke-width:0.867212" />
      <path
         style="color:#232629;fill:#ff0000;fill-opacity:0.6;stroke:none;stroke-width:1.36538"
         d="m 135.90514,1048.5691 c -1.66187,-0.2692 -4.01619,-1.2115 -5.40108,-2.0865 -3.18526,-2.0193 -5.27012,-4.2654 -6.55866,-7.0688 -0.41547,-0.9423 -0.66199,-1.6154 -1.38489,-4.0385 -0.13849,-0.6057 -0.37341,-1.2845 -0.46011,-1.4961 -0.14623,-0.3568 -0.15265,-0.4772 -0.0889,-1.6673 0.0605,-1.0769 0.27698,-2.6923 0.41547,-2.8215 0.0205,-0.031 0.0687,-0.038 0.10719,-0.016 0.13018,0.075 0.25056,-0.2722 0.36884,-1.0643 0.0648,-0.4341 0.16663,-0.8892 0.22628,-1.0115 0.0597,-0.1222 0.16069,-0.3921 0.22454,-0.5996 0.14695,-0.4777 0.34732,-0.8449 0.96676,-1.7716 0.27242,-0.4076 0.5556,-0.8515 0.62928,-0.9865 0.0867,-0.1588 0.18142,-0.2366 0.26839,-0.2205 0.0838,0.015 0.22207,-0.088 0.36688,-0.2733 0.6298,-0.808 3.59611,-3.1918 3.87061,-3.1105 0.0749,0.022 0.38794,-0.078 0.69559,-0.2225 0.55647,-0.2614 0.80166,-0.3219 0.80166,-0.1977 0,0.036 -0.0805,0.1171 -0.17873,0.1807 -0.17252,0.1116 -0.16906,0.1135 0.0993,0.053 0.15292,-0.035 0.41045,-0.084 0.57231,-0.1093 0.19996,-0.032 0.28127,-0.078 0.25368,-0.1453 -0.0242,-0.059 0.0334,-0.1171 0.14262,-0.1444 0.27346,-0.068 0.69957,-0.057 0.69957,0.019 0,0.091 -0.24364,0.1821 -0.4369,0.1642 -0.13184,-0.012 -0.13857,0 -0.0397,0.061 0.0983,0.063 0.0996,0.077 0.007,0.077 -0.0619,5e-4 -0.0921,0.02 -0.0673,0.043 0.0249,0.023 0.19053,-0.027 0.36808,-0.1115 0.17755,-0.085 0.50274,-0.1896 0.72263,-0.2336 0.27069,-0.054 0.39982,-0.117 0.39982,-0.1945 0,-0.1 0.12575,-0.1083 0.9731,-0.066 0.53521,0.027 1.34286,0.1051 1.79476,0.1739 0.8216,0.1251 0.82167,0.1251 1.12786,-0.039 0.36724,-0.1972 0.95794,-0.2228 1.11316,-0.048 0.0568,0.064 0.21309,0.169 0.34734,0.2338 0.21901,0.1056 0.2335,0.1058 0.14093,0 -0.17584,-0.1978 -0.001,-0.1928 0.67775,0.019 2.18892,0.6838 3.9734,1.9018 5.29754,3.6156 0.31401,0.4064 0.33302,0.5893 0.0356,0.3419 l -0.17023,-0.1416 0.13004,0.2372 c 0.0715,0.1304 0.13004,0.277 0.13004,0.3257 0,0.049 0.21051,0.4089 0.46776,0.8003 0.57983,0.8821 0.74203,1.1794 0.70313,1.2882 -0.0168,0.047 -0.27356,-0.264 -0.57084,-0.6904 -0.29727,-0.4264 -0.73718,-1.001 -0.97757,-1.2768 -0.35899,-0.4119 -0.45301,-0.4823 -0.52626,-0.3943 -0.049,0.059 -0.16883,0.1178 -0.2662,0.131 l -0.17702,0.024 0.17512,0.3202 c 0.0962,0.1762 0.18789,0.2846 0.20351,0.2409 0.0836,-0.234 0.47286,0.074 0.64986,0.5134 0.0573,0.1426 0.21,0.4364 0.33913,0.6528 0.12907,0.2164 0.21849,0.4086 0.19864,0.4271 -0.0198,0.018 -0.13766,-0.041 -0.2616,-0.1318 l -0.22546,-0.1654 0.15377,0.2462 c 0.0846,0.1355 0.22619,0.3012 0.3147,0.3682 0.11038,0.084 0.1632,0.2159 0.16813,0.4214 0.01,0.3794 0.24209,0.8277 0.36879,0.7094 0.19739,-0.1841 0.23798,-0.069 0.18831,0.534 -0.0366,0.4443 -0.0172,0.7371 0.0697,1.048 0.13184,0.4719 0.10345,0.5884 -0.0893,0.3678 -0.12257,-0.1402 -0.12381,-0.1401 -0.069,0 0.11771,0.3121 0.2056,0.7789 0.18115,0.9622 -0.0456,0.3419 -0.18324,0.1997 -0.23059,-0.2383 l -0.0462,-0.4275 -0.0139,0.455 c -0.007,0.2502 -0.0704,0.7337 -0.13998,1.0745 -0.0703,0.3442 -0.10607,0.7612 -0.0803,0.9383 0.0483,0.3331 0.0141,0.346 -0.28434,0.1074 -0.12146,-0.097 -0.14241,-0.078 -0.22585,0.2115 -0.0702,0.2433 -0.0697,0.3818 0.003,0.5855 0.0519,0.1467 0.0821,0.3458 0.067,0.4423 -0.0348,0.2227 -0.22603,0.2922 -0.22603,0.082 0,-0.2641 -0.10775,-0.1701 -0.4369,0.3813 -0.88894,1.4891 -2.29549,2.6415 -3.88742,3.185 -0.93854,0.3205 -1.56802,0.4393 -2.62643,0.4958 l -0.95325,0.051 0.47099,0.1356 c 0.37978,0.1093 0.6028,0.1256 1.15183,0.084 0.71929,-0.054 1.56383,-0.1998 1.94679,-0.3356 0.15283,-0.054 0.25605,-0.057 0.30887,-0.01 0.1245,0.1162 -0.98175,0.5729 -1.63846,0.6764 -1.11741,0.1761 -2.61318,-0.014 -3.93355,-0.5005 -0.89584,-0.3299 -2.22523,-1.1892 -2.02151,-1.3067 0.0386,-0.022 0.29151,0.09 0.56203,0.2497 0.34579,0.2039 0.49186,0.2576 0.49186,0.1808 0,-0.1451 0.0511,-0.1381 0.32586,0.044 0.24809,0.1648 1.01118,0.4708 1.56078,0.6259 0.5991,0.169 0.36681,-0.036 -0.43691,-0.3854 -2.54123,-1.1052 -3.59619,-2.2105 -4.12196,-4.319 -0.19281,-0.7731 0.0138,-2.4681 0.3654,-2.9989 0.0892,-0.1345 0.16203,-0.2999 0.16203,-0.3676 0,-0.2937 0.52495,-1.0696 1.0636,-1.572 0.94916,-0.8855 1.936,-1.253 3.21704,-1.1983 0.61926,0.026 0.88375,0.077 1.39913,0.2687 0.58456,0.2171 1.32061,0.6717 1.0952,0.6764 -0.053,0 -0.28536,-0.072 -0.51635,-0.1613 -0.35112,-0.1365 -0.57627,-0.1638 -1.37323,-0.1667 -1.11912,-0.01 -1.66611,0.1441 -2.46256,0.6668 -1.12916,0.7411 -1.75706,1.5948 -1.97943,2.6911 -0.14921,0.7356 -0.15378,0.9394 -0.0374,1.6691 0.067,0.4205 0.11467,0.5439 0.1986,0.5138 0.0705,-0.025 0.11037,0.012 0.11037,0.1021 0,0.2606 0.60786,1.3177 1.02942,1.7902 1.01467,1.1375 2.65599,1.8633 4.21334,1.8633 0.80831,0 1.4617,-0.1447 2.06314,-0.4569 0.24153,-0.1255 0.54639,-0.2787 0.67745,-0.3407 0.46246,-0.2187 0.74937,-0.4685 1.0848,-0.9444 0.18648,-0.2646 0.3892,-0.481 0.4505,-0.481 0.0906,0 0.0867,0.038 -0.0209,0.2037 -0.35458,0.5459 0.47756,-0.4466 0.90848,-1.0836 l 0.48267,-0.7134 -0.0526,-0.4686 c -0.0505,-0.4503 -0.0432,-0.4778 0.18772,-0.704 0.22244,-0.2177 0.24242,-0.2822 0.26806,-0.8644 0.023,-0.5211 0.007,-0.6293 -0.0914,-0.6299 -0.0917,0 -0.13101,-0.1378 -0.17048,-0.5936 -0.0522,-0.6031 -0.57871,-2.6328 -0.70129,-2.7035 -0.037,-0.022 -0.13966,-0.2165 -0.22813,-0.4337 -0.29858,-0.7331 -0.82229,-1.4379 -1.63887,-2.2058 -1.17497,-1.1049 -2.65504,-1.9581 -4.05312,-2.3364 -1.18923,-0.3219 -3.20867,-0.205 -4.64708,0.2687 -0.70201,0.2313 -1.3937,0.5375 -1.51042,0.6686 -0.0529,0.06 -0.12976,0.089 -0.17061,0.065 -0.0431,-0.025 -0.0312,-0.091 0.0282,-0.158 0.26498,-0.2978 -0.61434,0.2473 -1.18043,0.7318 -0.34224,0.2929 -0.63473,0.5415 -0.64997,0.5524 -0.0152,0.011 0.0514,5e-4 0.14803,-0.023 0.16085,-0.039 0.16767,-0.029 0.0805,0.1233 -0.0559,0.097 -0.34714,0.2727 -0.70409,0.4238 -0.59976,0.2538 -0.98767,0.5327 -1.29586,0.9318 -0.12298,0.1593 -0.13018,0.1936 -0.0328,0.1588 0.0683,-0.024 0.12422,-0.01 0.12422,0.034 0,0.2116 -0.20613,0.4479 -0.51145,0.5863 -0.67648,0.3065 -1.86484,1.9442 -2.50141,3.4471 -0.28368,0.6697 -0.27918,0.6464 -0.12492,0.6464 0.16258,0 0.15126,0.1723 -0.072,1.0975 -0.32529,1.3476 -0.32568,1.3045 0.0285,3.2005 0.43163,2.3101 0.68379,3.0817 1.16324,3.5599 0.11246,0.1121 0.22179,0.3508 0.27053,0.5905 0.0582,0.2862 0.15588,0.4751 0.33872,0.6549 0.16668,0.1639 0.22227,0.2644 0.15823,0.2862 -0.12561,0.043 0.26768,0.5897 0.6265,0.8714 0.18052,0.1417 0.3143,0.1893 0.45922,0.1634 0.31762,-0.057 0.64101,0.1141 1.13792,0.6005 0.5164,0.5055 0.56814,0.6414 0.22641,0.5946 -0.22042,-0.03 -0.22547,-0.024 -0.11703,0.1299 0.0624,0.089 0.29253,0.3024 0.51144,0.4746 0.30746,0.2418 0.38665,0.3465 0.34805,0.4599 -0.0555,0.1631 0.10276,0.3153 0.46094,0.4431 0.22206,0.079 0.29362,0.25 0.12644,0.3019 -0.0505,0.016 0.2622,0.3161 0.69506,0.6674 0.48769,0.3958 0.81575,0.6128 0.8625,0.5704 0.12353,-0.1119 0.28181,-0.078 0.28465,0.061 0.003,0.1518 0.14329,0.3112 0.64767,0.7364 0.31874,0.2687 0.3983,0.3025 0.59366,0.2523 0.17891,-0.046 0.29141,-0.016 0.54337,0.1425 0.50267,0.3169 0.80747,0.4435 1.06845,0.4435 0.25681,0 0.29337,0.069 0.16003,0.3013 -0.0706,0.123 -0.0555,0.1433 0.10677,0.1433 0.10387,0 0.39675,0.067 0.65072,0.1482 0.57748,0.1854 0.81837,0.198 0.67363,0.035 -0.2138,-0.2403 0.0125,-0.1747 0.77683,0.2249 1.06738,0.5584 1.60733,0.6222 3.73282,0.441 0.31469,-0.027 0.41705,-0.011 0.41705,0.064 0,0.064 -0.27306,0.161 -0.77452,0.2741 -0.65919,0.1488 -1.01104,0.1776 -2.36324,0.1933 -1.06553,0.012 -1.79336,-0.014 -2.21004,-0.082 z m -1.08662,-11.1086 c 0,-0.016 -0.0983,-0.084 -0.21845,-0.1526 l -0.21845,-0.1241 0.18754,0.1526 c 0.183,0.1489 0.24936,0.1819 0.24936,0.1241 z m 10.93716,-7.7661 c -0.0253,-0.059 -0.0442,-0.042 -0.0481,0.045 -0.004,0.078 0.0154,0.1218 0.0417,0.097 0.0264,-0.024 0.0292,-0.089 0.006,-0.142 z m -18.02682,-7.7718 c 0.0989,-0.1175 0.096,-0.1202 -0.0301,-0.028 -0.0764,0.056 -0.13902,0.1143 -0.13902,0.1296 0,0.061 0.0652,0.022 0.16901,-0.1016 z m 0.90339,-0.6855 c 0.0791,-0.082 0.12589,-0.1482 0.104,-0.1482 -0.0219,0 -0.10442,0.067 -0.18348,0.1482 -0.0791,0.082 -0.12589,0.1482 -0.10401,0.1482 0.0219,0 0.10442,-0.067 0.1835,-0.1482 z m 0.99992,-0.5209 c 0.26185,-0.083 0.41065,-0.097 0.46586,-0.046 0.0553,0.052 0.26013,0.021 0.6415,-0.096 0.30819,-0.094 0.54619,-0.1846 0.52887,-0.2007 -0.0173,-0.016 -0.27107,0.045 -0.5639,0.1364 -0.40218,0.1254 -0.54692,0.1439 -0.59177,0.076 -0.0757,-0.1144 -0.79862,0.1111 -1.1093,0.3461 l -0.21231,0.1606 0.22815,-0.1278 c 0.12547,-0.07 0.40129,-0.1824 0.6129,-0.2492 z m 2.29014,-0.1881 c 0.2307,-0.064 0.40568,-0.1291 0.38886,-0.1447 -0.0371,-0.035 -0.85889,0.1849 -0.85889,0.2294 0,0.045 0.007,0.044 0.47003,-0.085 z m 1.3173,-0.404 0.31776,-0.054 -0.27803,-0.01 c -0.15292,0 -0.3674,0.044 -0.47663,0.1071 -0.12851,0.074 -0.14257,0.095 -0.0397,0.061 0.0874,-0.029 0.30185,-0.077 0.47662,-0.1071 z m 0.63093,-0.1398 c 0.0245,-0.037 -0.027,-0.05 -0.11453,-0.028 -0.1855,0.045 -0.20894,0.096 -0.0445,0.096 0.063,0 0.13447,-0.03 0.15898,-0.067 z m 2.56476,0.022 c -0.0265,-0.025 -0.0949,-0.027 -0.15225,0 -0.0634,0.024 -0.0446,0.041 0.048,0.045 0.0838,0 0.13059,-0.014 0.10428,-0.039 z m -0.47496,-0.08 c -0.0764,-0.019 -0.20157,-0.019 -0.27803,0 -0.0764,0.019 -0.0138,0.034 0.13901,0.034 0.15292,0 0.21548,-0.015 0.13902,-0.034 z m -0.79227,-0.077 c -0.16268,-0.016 -0.44867,-0.016 -0.6355,-5e-4 -0.18684,0.016 -0.0537,0.029 0.29578,0.029 0.34954,3e-4 0.5024,-0.012 0.33972,-0.028 z m -1.03644,-0.065 c -0.0264,-0.025 -0.0949,-0.027 -0.15226,0 -0.0634,0.024 -0.0446,0.041 0.0481,0.045 0.0838,0 0.1306,-0.014 0.10429,-0.039 z m -0.53771,17.811 c -0.80915,-0.5408 -1.10896,-0.8206 -1.10896,-1.0348 0,-0.1136 0.0276,-0.2066 0.0612,-0.2066 0.11454,0 1.46727,1.3172 1.43769,1.4 -0.0172,0.048 -0.18036,-0.018 -0.38997,-0.1586 z m -0.41637,-1.3732 c -0.42023,-0.3961 -0.55489,-0.6092 -0.38504,-0.6092 0.10206,0 0.884,0.8352 0.884,0.9442 0,0.051 -0.01,0.093 -0.0223,0.093 -0.0125,0 -0.22676,-0.1927 -0.47662,-0.4283 z m 4.64957,-1.6216 c -0.22186,-0.083 -0.0834,-0.2382 0.27803,-0.3106 0.20753,-0.042 0.53732,-0.1423 0.73287,-0.224 0.19555,-0.082 0.36967,-0.1354 0.38693,-0.1193 0.0173,0.016 -0.0713,0.1808 -0.19667,0.366 -0.22667,0.3347 -0.23073,0.3367 -0.66496,0.331 -0.24031,-0.01 -0.4816,-0.023 -0.5362,-0.043 z m 2.38311,-1.6576 c -0.21443,-0.08 -0.2233,-0.2172 -0.0443,-0.6831 0.15376,-0.4002 0.31325,-0.4792 0.22453,-0.1112 -0.032,0.1324 -0.0745,0.3242 -0.0947,0.4261 l -0.0367,0.1852 0.15876,-0.1686 c 0.0939,-0.1 0.18089,-0.3341 0.21295,-0.5735 0.0298,-0.2226 0.0859,-0.3865 0.12464,-0.3642 0.0983,0.057 0.0878,0.6426 -0.0184,1.0365 -0.0929,0.344 -0.17644,0.3841 -0.52677,0.2528 z m -18.79827,-0.93 c -0.0264,-0.064 -0.0482,-0.3174 -0.0482,-0.562 0,-0.3227 0.0273,-0.4363 0.0993,-0.4141 0.11799,0.036 0.1872,1.0933 0.0716,1.0933 -0.041,0 -0.0961,-0.053 -0.1227,-0.1172 z m 19.11034,-1.7333 c -0.12339,-0.1558 -0.16146,-0.2787 -0.12644,-0.4088 0.0719,-0.2672 0.25994,-0.2292 0.39868,0.081 0.21584,0.4819 0.0285,0.7077 -0.27223,0.3282 z m -19.12668,-1.1764 c -0.006,-0.4202 -4e-5,-0.4332 0.19935,-0.4261 0.16908,0 0.20991,0.047 0.22941,0.2336 0.022,0.2098 -0.22257,0.6259 -0.36787,0.6259 -0.0301,0 -0.0575,-0.195 -0.0609,-0.4334 z m 20.59101,-9.1096 c 0.0111,-0.6631 0.13087,-0.8878 0.2242,-0.4235 0.0651,0.3235 -0.0178,0.8948 -0.14374,0.9924 -0.0686,0.053 -0.0891,-0.091 -0.0805,-0.5689 z m -10.43787,-0.3974 c 0.032,-0.089 1.12775,-0.508 1.32989,-0.508 0.23748,0 -0.18853,0.2714 -0.67987,0.4332 -0.54784,0.1803 -0.69372,0.1971 -0.65002,0.075 z"
         class="ColorScheme-Text"
         id="path12-6" />
    </g>
  </g>
</svg>
