<?xml version="1.0" encoding="UTF-8" standalone="no"?>
<svg
   height="32"
   viewBox="0 0 32 32"
   width="32"
   version="1.1"
   id="svg25"
   sodipodi:docname="folder-recent.svg"
   inkscape:version="1.1.2 (0a00cf5339, 2022-02-04)"
   xmlns:inkscape="http://www.inkscape.org/namespaces/inkscape"
   xmlns:sodipodi="http://sodipodi.sourceforge.net/DTD/sodipodi-0.dtd"
   xmlns:xlink="http://www.w3.org/1999/xlink"
   xmlns="http://www.w3.org/2000/svg"
   xmlns:svg="http://www.w3.org/2000/svg"
   xmlns:rdf="http://www.w3.org/1999/02/22-rdf-syntax-ns#"
   xmlns:cc="http://creativecommons.org/ns#"
   xmlns:dc="http://purl.org/dc/elements/1.1/">
  <metadata
     id="metadata31">
    <rdf:RDF>
      <cc:Work
         rdf:about="">
        <dc:format>image/svg+xml</dc:format>
        <dc:type
           rdf:resource="http://purl.org/dc/dcmitype/StillImage" />
      </cc:Work>
    </rdf:RDF>
  </metadata>
  <defs
     id="defs29">
    <linearGradient
       inkscape:collect="always"
       id="linearGradient1251">
      <stop
         style="stop-color:#b380ff;stop-opacity:1"
         offset="0"
         id="stop1247" />
      <stop
         style="stop-color:#5f5fff;stop-opacity:1"
         offset="1"
         id="stop1249" />
    </linearGradient>
    <linearGradient
       inkscape:collect="always"
       xlink:href="#linearGradient2669"
       id="linearGradient2671"
       x1="386.57144"
       y1="515.79797"
       x2="446.72144"
       y2="515.79797"
       gradientUnits="userSpaceOnUse"
       gradientTransform="matrix(0.49875312,0,0,0.5,-191.80371,-241.899)" />
    <linearGradient
       inkscape:collect="always"
       id="linearGradient2669">
      <stop
         style="stop-color:#5599ff;stop-opacity:1;"
         offset="0"
         id="stop2665" />
      <stop
         style="stop-color:#80e5ff;stop-opacity:1"
         offset="1"
         id="stop2667" />
    </linearGradient>
    <linearGradient
       inkscape:collect="always"
       xlink:href="#linearGradient1251"
       id="linearGradient1136"
       gradientUnits="userSpaceOnUse"
       gradientTransform="matrix(0.49875312,0,0,0.5,-191.8203,-241.8843)"
       x1="417.40469"
       y1="521.82758"
       x2="439.60291"
       y2="521.82758" />
  </defs>
  <sodipodi:namedview
     pagecolor="#ffffff"
     bordercolor="#666666"
     borderopacity="1"
     objecttolerance="10"
     gridtolerance="10"
     guidetolerance="10"
     inkscape:pageopacity="0"
     inkscape:pageshadow="2"
     inkscape:window-width="1920"
     inkscape:window-height="1007"
     id="namedview27"
     showgrid="false"
     inkscape:zoom="6.9384853"
     inkscape:cx="5.4046378"
     inkscape:cy="14.844739"
     inkscape:window-x="0"
     inkscape:window-y="0"
     inkscape:window-maximized="1"
     inkscape:current-layer="svg25"
     inkscape:pagecheckerboard="0" />
  <linearGradient
     id="a"
     gradientUnits="userSpaceOnUse"
     x2="0"
     y1="29"
     y2="8">
    <stop
       offset="0"
       stop-color="#3daee9"
       id="stop2" />
    <stop
       offset="1"
       stop-color="#6cc1ef"
       id="stop4" />
  </linearGradient>
  <path
     inkscape:connector-curvature="0"
     id="fill"
     d="M 1.498753,4.5 V 27 c 0.05425,0.755655 0.498753,1.5 1.948359,1.5 h 24.84991 c 1.630659,0 2.186569,-0.249515 2.129412,-2 v -18 c -0.498753,-1 -3.990025,0 -3.990025,-3 C 20.451372,5 9.478803,6 9.514319,3 H 3.492544 C 2.496259,3 1.498753,3.5 1.498753,4.5 Z"
     style="color:#1e92ff;fill:#3b445f;fill-opacity:1;fill-rule:nonzero;stroke:none;stroke-width:5.24924"
     class="ColorScheme-ButtonFocus"
     sodipodi:nodetypes="cccccccccc" />
  <path
     d="M 28.959521,7.205245 H 27.363855 V 6.61474 c 0,-1.02553 -0.448927,-1.530995 -0.825576,-1.774685 C 26.134374,4.57891 25.737756,4.565585 25.66198,4.565585 H 11.642748 c -0.300239,0 -0.582404,-0.317305 -0.881057,-0.65333 C 10.381556,3.484525 9.950698,3 9.296643,3 H 3.040474 C 1.877252,3 1,3.877665 1,5.041545 v 21.91691 C 1,28.084255 1.915297,29 3.040474,29 H 28.959521 C 30.084703,29 31,28.084255 31,26.958455 V 9.24679 C 31,8.12099 30.084703,7.205245 28.959521,7.205245 Z m 1.089357,19.75321 c 0,0.60098 -0.488564,1.08963 -1.089357,1.08963 H 3.040474 c -0.600788,0 -1.089352,-0.48865 -1.089352,-1.08963 V 5.041545 c 0,-0.641275 0.44798,-1.08963 1.089352,-1.08963 h 6.256169 c 0.227317,0 0.483492,0.288115 0.754559,0.593045 0.385202,0.43312 0.864569,0.972225 1.591546,0.972225 h 14.013521 c 0.143621,0.004 0.551023,0.06663 0.700664,0.62128 H 4.530923 C 3.3182,6.163515 2.68412,6.798145 2.68412,8.067365 L 2.73992,25.51916 H 3.3182 c 0,0 -0.12,0.001 4.83e-4,0.001 0.187053,0 0.482374,0.03665 0.7582,-0.17942 0.495536,-0.389015 0.516459,-0.893215 0.512025,-1.031245 L 4.586408,9.97109 c 0,-1.903835 0,-1.903835 1.902244,-1.903835 l 22.471232,0.0898 c 0.600783,0.0025 1.089352,0.488965 1.089352,1.089625 v 17.711665 z"
     id="path2-3-3-2-3-6-7"
     sodipodi:nodetypes="scscsscssssssssscsssssscsccccccsccccsscc"
     style="fill:url(#linearGradient2671);fill-opacity:1;stroke-width:0.317173" />
  <path
     id="Stopwatch-7-7"
     class="st0"
     d="m 21.892998,22.728825 c 2.027122,0 3.685675,-1.6627 3.685675,-3.69489 0,-2.03219 -1.658553,-3.69489 -3.685675,-3.69489 -2.027118,0 -3.685676,1.6627 -3.685676,3.69489 0,2.03219 1.658558,3.69489 3.685676,3.69489 z m 0.460713,-9.21413 v 0 c 1.266947,0.115465 2.48783,0.646605 3.455316,1.59342 2.165337,2.170745 2.165337,5.68089 0,7.828545 -2.165331,2.147655 -5.666723,2.17075 -7.832059,0.0231 -2.165332,-2.147655 -2.142295,-5.68089 0,-7.85164 0.967491,-0.969905 2.188369,-1.501045 3.455321,-1.59342 v 0 L 21.863721,13.5 Z"
     sodipodi:nodetypes="ssssscccssccccc"
     style="clip-rule:evenodd;fill:url(#linearGradient1136);fill-opacity:1;fill-rule:evenodd;stroke-width:0.230643" />
  <path
     id="Stopwatch-s-5-5"
     class="st1"
     d="m 22.353711,13.514695 v 0 0 0 0 0 0 l 1.013556,0.184745 v 0 z M 21.892998,24.57627 v 0.92372 c 3.06372,0 5.528513,-2.470955 5.528513,-5.542335 v -0.92372 h -0.921416 v 0.92372 c 0,2.54024 -2.073192,4.618615 -4.607097,4.618615 z m -0.967487,-3.90273 0.737132,-0.738975 c 0.299462,0.09237 0.644993,0 0.898384,-0.23093 0.230355,-0.230935 0.322499,-0.57733 0.230355,-0.90063 l 2.695152,-2.70189 -0.644993,-0.646605 -2.718184,2.678795 c -0.299467,-0.09237 -0.644998,0 -0.898384,0.23093 -0.230355,0.23093 -0.322499,0.577325 -0.230355,0.90063 l -0.737137,0.738975 z"
     sodipodi:nodetypes="cccccccccccccccccccccccccscc"
     style="fill:#f2f2f2;fill-opacity:1;stroke-width:0.230643" />
</svg>
