<?xml version="1.0" encoding="UTF-8" standalone="no"?>
<svg
   width="32"
   version="1.1"
   height="32"
   viewBox="0 0 32 32"
   id="svg15"
   sodipodi:docname="folder-trash.svg"
   inkscape:version="1.1.2 (0a00cf5339, 2022-02-04)"
   xmlns:inkscape="http://www.inkscape.org/namespaces/inkscape"
   xmlns:sodipodi="http://sodipodi.sourceforge.net/DTD/sodipodi-0.dtd"
   xmlns:xlink="http://www.w3.org/1999/xlink"
   xmlns="http://www.w3.org/2000/svg"
   xmlns:svg="http://www.w3.org/2000/svg"
   xmlns:rdf="http://www.w3.org/1999/02/22-rdf-syntax-ns#"
   xmlns:cc="http://creativecommons.org/ns#"
   xmlns:dc="http://purl.org/dc/elements/1.1/">
  <sodipodi:namedview
     pagecolor="#ffffff"
     bordercolor="#666666"
     borderopacity="1"
     objecttolerance="10"
     gridtolerance="10"
     guidetolerance="10"
     inkscape:pageopacity="0"
     inkscape:pageshadow="2"
     inkscape:window-width="1920"
     inkscape:window-height="1007"
     id="namedview17"
     showgrid="true"
     inkscape:zoom="9.8125"
     inkscape:cx="1.477707"
     inkscape:cy="18.140127"
     inkscape:window-x="0"
     inkscape:window-y="0"
     inkscape:window-maximized="1"
     inkscape:current-layer="g4"
     inkscape:pagecheckerboard="0">
    <inkscape:grid
       type="xygrid"
       id="grid862" />
  </sodipodi:namedview>
  <defs
     id="defs5455">
    <linearGradient
       inkscape:collect="always"
       id="linearGradient917">
      <stop
         style="stop-color:#00d455;stop-opacity:1"
         offset="0"
         id="stop913" />
      <stop
         style="stop-color:#00d4aa;stop-opacity:1"
         offset="1"
         id="stop915" />
    </linearGradient>
    <linearGradient
       inkscape:collect="always"
       xlink:href="#linearGradient917"
       id="linearGradient1177"
       gradientUnits="userSpaceOnUse"
       x1="417.07144"
       y1="522.3302"
       x2="440.6886"
       y2="522.3302"
       gradientTransform="matrix(1.3848926,0,0,1.3461635,-465.51416,331.47065)" />
  </defs>
  <metadata
     id="metadata5458">
    <rdf:RDF>
      <cc:Work
         rdf:about="">
        <dc:format>image/svg+xml</dc:format>
        <dc:type
           rdf:resource="http://purl.org/dc/dcmitype/StillImage" />
      </cc:Work>
    </rdf:RDF>
  </metadata>
  <g
     inkscape:label="Capa 1"
     inkscape:groupmode="layer"
     id="layer1"
     transform="translate(-384.57143,-515.798)">
    <g
       transform="matrix(0.36013848,0,0,0.37142583,359.81878,151.2823)"
       id="g4">
      <path
         inkscape:connector-curvature="0"
         id="fill"
         d="m 72.892525,993.51114 v 60.57736 c 0.150648,2.0345 1.384892,4.0385 5.410027,4.0385 h 69.000978 c 4.52787,0 6.07147,-0.6718 5.91276,-5.3847 v -48.4619 c -1.38489,-2.6923 -11.07914,0 -11.07914,-8.07693 -16.61871,-1.34617 -47.086344,1.34616 -46.987726,-6.73082 H 78.428702 c -2.766392,0 -5.536177,1.34616 -5.536177,4.03849 z"
         style="color:#1e92ff;fill:#3b445f;fill-opacity:1;fill-rule:nonzero;stroke:none;stroke-width:14.3524"
         class="ColorScheme-ButtonFocus"
         sodipodi:nodetypes="cccccccccc" />
      <path
         d="m 149.1431,1000.7945 h -4.4307 v -1.58979 c 0,-2.76106 -1.24654,-4.12194 -2.29239,-4.77803 -1.12152,-0.70309 -2.22282,-0.73896 -2.43323,-0.73896 h -38.92733 c -0.83368,0 -1.617163,-0.85429 -2.446437,-1.75898 -1.055523,-1.15159 -2.251891,-2.45609 -4.068012,-2.45609 H 77.173435 c -3.229929,0 -5.665803,2.36296 -5.665803,5.49651 v 59.00754 c 0,3.031 2.541514,5.4965 5.665803,5.4965 H 149.1431 c 3.1243,0 5.66582,-2.4655 5.66582,-5.4965 v -47.6857 c 0,-3.031 -2.54152,-5.4965 -5.66582,-5.4965 z m 3.02482,53.1822 c 0,1.618 -1.35659,2.9336 -3.02482,2.9336 H 77.173435 c -1.668213,0 -3.024813,-1.3156 -3.024813,-2.9336 v -59.00754 c 0,-1.72653 1.24391,-2.93364 3.024813,-2.93364 h 17.371566 c 0.631193,0 1.342515,0.7757 2.095191,1.59667 1.069594,1.1661 2.400655,2.61755 4.419258,2.61755 h 38.91148 c 0.39879,0.0107 1.53003,0.17939 1.94554,1.67269 H 81.31198 c -3.367381,0.0674 -5.128036,1.77607 -5.128036,5.19327 l 0.154942,46.9859 h 1.605713 c 0,0 -0.333205,0 0.0014,0 0.519391,0 1.339413,0.099 2.1053,-0.483 1.375961,-1.0474 1.434056,-2.4048 1.421745,-2.7765 l -0.0069,-38.6036 c 0,-5.1258 0,-5.1258 5.28198,-5.1258 l 62.396086,0.2418 c 1.6682,0.01 3.02481,1.3164 3.02481,2.9336 v 47.6856 z"
         id="path2-3-3-7"
         sodipodi:nodetypes="scscsscssssssssscsssssscsccccccsccccsscc"
         style="fill:#3bad7e;fill-opacity:1;stroke-width:0.867212" />
      <path
         style="color:#232629;fill:url(#linearGradient1177);fill-opacity:1;stroke:none;stroke-width:1.36538"
         d="m 125.68235,1019.0883 c 0.83726,0.3392 1.53588,0.9525 2.0584,1.8326 l 3.73001,6.3048 -2.33429,1.2857 7.56552,0.1052 3.69755,-6.4443 -2.29914,1.3252 -2.12874,-3.5258 c -0.35,-0.5769 -0.94207,-0.8834 -1.70947,-0.8834 z m -1.98538,0.305 c -1.32413,0 -2.40813,0.6102 -3.07001,1.73 l -3.17282,5.3216 6.65938,3.7624 4.11682,-6.9149 -1.18744,-1.9325 c -0.80126,-1.3203 -1.91664,-1.9666 -3.34593,-1.9666 z m 17.43288,9.2864 -6.65938,3.6941 4.1141,6.9175 h 2.30184 c 0.73032,0 1.46412,-0.1717 1.98808,-0.4444 1.11455,-0.6094 1.91775,-1.8977 1.91775,-3.1182 0,-0.5874 -0.17485,-1.1849 -0.48958,-1.7274 z m -21.44149,1.5618 -7.60338,0.1393 2.33701,1.2857 -2.09357,3.56 c -0.13938,0.237 -0.24344,0.609 -0.24344,0.915 0,0.3055 0.10373,0.6445 0.24344,0.8807 l 4.36025,7.2856 c -0.0342,-0.2363 -0.0352,-0.4049 -0.0352,-0.539 0,-0.5772 0.27895,-1.4946 0.62754,-2.1033 h -0.003 l 3.73271,-6.2708 2.37217,1.3225 z m 13.80295,7.2172 -3.90313,6.3391 3.90313,6.339 v -2.6108 h 4.08163 c 0.73211,0 1.3582,-0.3392 1.70679,-0.915 l 4.32507,-7.3197 c -0.73175,0.5411 -1.60301,0.8124 -2.64806,0.8124 h -7.46543 z m -14.29524,2.5793 -1.11441,1.9298 c -0.34858,0.5758 -0.59236,1.4925 -0.59236,2.0582 0,1.9087 1.63707,3.5026 3.62453,3.5026 h 6.34832 v -7.4906 z"
         class="ColorScheme-Text"
         id="path12-5" />
    </g>
  </g>
</svg>
