<?xml version="1.0" encoding="UTF-8" standalone="no"?>
<svg
   width="32"
   version="1.1"
   height="32"
   viewBox="0 0 32 32"
   id="svg15"
   sodipodi:docname="folder-paint.svg"
   inkscape:version="1.1.2 (0a00cf5339, 2022-02-04)"
   xmlns:inkscape="http://www.inkscape.org/namespaces/inkscape"
   xmlns:sodipodi="http://sodipodi.sourceforge.net/DTD/sodipodi-0.dtd"
   xmlns:xlink="http://www.w3.org/1999/xlink"
   xmlns="http://www.w3.org/2000/svg"
   xmlns:svg="http://www.w3.org/2000/svg"
   xmlns:rdf="http://www.w3.org/1999/02/22-rdf-syntax-ns#"
   xmlns:cc="http://creativecommons.org/ns#"
   xmlns:dc="http://purl.org/dc/elements/1.1/">
  <sodipodi:namedview
     pagecolor="#ffffff"
     bordercolor="#666666"
     borderopacity="1"
     objecttolerance="10"
     gridtolerance="10"
     guidetolerance="10"
     inkscape:pageopacity="0"
     inkscape:pageshadow="2"
     inkscape:window-width="1920"
     inkscape:window-height="1007"
     id="namedview17"
     showgrid="true"
     inkscape:zoom="9.8125"
     inkscape:cx="1.477707"
     inkscape:cy="18.140127"
     inkscape:window-x="0"
     inkscape:window-y="0"
     inkscape:window-maximized="1"
     inkscape:current-layer="g4"
     inkscape:pagecheckerboard="0">
    <inkscape:grid
       type="xygrid"
       id="grid862" />
  </sodipodi:namedview>
  <defs
     id="defs5455">
    <linearGradient
       inkscape:collect="always"
       id="linearGradient982">
      <stop
         style="stop-color:#ffaaaa;stop-opacity:1"
         offset="0"
         id="stop978" />
      <stop
         style="stop-color:#ffb380;stop-opacity:1"
         offset="1"
         id="stop980" />
    </linearGradient>
    <linearGradient
       inkscape:collect="always"
       xlink:href="#linearGradient2669"
       id="linearGradient2671"
       x1="386.57144"
       y1="515.79797"
       x2="446.72144"
       y2="515.79797"
       gradientUnits="userSpaceOnUse"
       gradientTransform="matrix(1.3848926,0,0,1.3461635,-463.85225,330.12444)" />
    <linearGradient
       inkscape:collect="always"
       id="linearGradient2669">
      <stop
         style="stop-color:#5599ff;stop-opacity:1;"
         offset="0"
         id="stop2665" />
      <stop
         style="stop-color:#80e5ff;stop-opacity:1"
         offset="1"
         id="stop2667" />
    </linearGradient>
    <linearGradient
       inkscape:collect="always"
       xlink:href="#linearGradient982"
       id="linearGradient1236"
       gradientUnits="userSpaceOnUse"
       gradientTransform="matrix(1.3848926,0,0,1.3461635,-465.23714,331.47061)"
       x1="422.57144"
       y1="521.04797"
       x2="440.57144"
       y2="521.04797" />
  </defs>
  <metadata
     id="metadata5458">
    <rdf:RDF>
      <cc:Work
         rdf:about="">
        <dc:format>image/svg+xml</dc:format>
        <dc:type
           rdf:resource="http://purl.org/dc/dcmitype/StillImage" />
      </cc:Work>
    </rdf:RDF>
  </metadata>
  <g
     inkscape:label="Capa 1"
     inkscape:groupmode="layer"
     id="layer1"
     transform="translate(-384.57143,-515.798)">
    <g
       transform="matrix(0.36013848,0,0,0.37142583,359.81878,151.2823)"
       id="g4">
      <path
         inkscape:connector-curvature="0"
         id="fill"
         d="m 72.892525,993.51114 v 60.57736 c 0.150648,2.0345 1.384893,4.0385 5.410028,4.0385 h 69.000987 c 4.52787,0 6.07147,-0.6718 5.91276,-5.3847 v -48.4619 c -1.38489,-2.6923 -11.07914,0 -11.07914,-8.07693 -16.61871,-1.34617 -47.086354,1.34616 -46.987736,-6.73082 H 78.428702 c -2.766392,0 -5.536177,1.34616 -5.536177,4.03849 z"
         style="color:#1e92ff;fill:#3b445f;fill-opacity:1;fill-rule:nonzero;stroke:none;stroke-width:14.3524"
         class="ColorScheme-ButtonFocus"
         sodipodi:nodetypes="cccccccccc" />
      <path
         d="m 149.14311,1000.7945 h -4.4307 v -1.58979 c 0,-2.76106 -1.24654,-4.12194 -2.29239,-4.77803 -1.12153,-0.70309 -2.22282,-0.73896 -2.43323,-0.73896 h -38.92733 c -0.83368,0 -1.617169,-0.85429 -2.446447,-1.75898 -1.055523,-1.15159 -2.251891,-2.45609 -4.068011,-2.45609 H 77.173436 c -3.22993,0 -5.665804,2.36296 -5.665804,5.49651 v 59.00754 c 0,3.031 2.541514,5.4965 5.665804,5.4965 h 71.969674 c 3.1243,0 5.66582,-2.4655 5.66582,-5.4965 v -47.6857 c 0,-3.031 -2.54152,-5.4965 -5.66582,-5.4965 z m 3.02482,53.1822 c 0,1.618 -1.35659,2.9336 -3.02482,2.9336 H 77.173436 c -1.668214,0 -3.024813,-1.3156 -3.024813,-2.9336 v -59.00754 c 0,-1.72653 1.24391,-2.93364 3.024813,-2.93364 h 17.371566 c 0.631192,0 1.342514,0.7757 2.09519,1.59667 1.069594,1.1661 2.400658,2.61755 4.419268,2.61755 h 38.91148 c 0.39879,0.0107 1.53003,0.17939 1.94554,1.67269 h -60.6045 c -3.367381,0.0674 -5.128036,1.77607 -5.128036,5.19327 l 0.154942,46.9859 h 1.605713 c 0,0 -0.333205,0 0.0014,0 0.519391,0 1.339413,0.099 2.1053,-0.483 1.37596,-1.0474 1.434056,-2.4048 1.421745,-2.7765 l -0.0069,-38.6036 c 0,-5.1258 0,-5.1258 5.28198,-5.1258 l 62.396096,0.2418 c 1.6682,0.01 3.02481,1.3164 3.02481,2.9336 v 47.6856 z"
         id="path2-3-3-2-3-6-7"
         sodipodi:nodetypes="scscsscssssssssscsssssscsccccccsccccsscc"
         style="fill:url(#linearGradient2671);fill-opacity:1;stroke-width:0.867212" />
      <path
         id="Paint-7-7"
         class="st0"
         d="m 133.48158,1020.771 c 0,0.5552 -0.4674,1.0096 -1.03867,1.0096 -0.57127,0 -1.03867,-0.4544 -1.03867,-1.0096 0,-0.5553 0.4674,-1.0097 1.03867,-1.0097 0.57127,0 1.03867,0.4544 1.03867,1.0097 z m -4.10274,0.4543 c -0.3116,-1.8173 1.19447,-3.4832 3.06407,-3.4832 1.8696,0 3.37568,1.6659 3.06408,3.4832 l -0.98674,7.6226 h 8.30936 l 2.07733,2.0193 v 12.1155 c 0,2.7764 -2.337,5.0481 -5.19334,5.0481 h -19.73472 v -12.1155 h 22.85073 v -5.0481 h -12.46404 v -2.0193 z"
         style="clip-rule:evenodd;fill:url(#linearGradient1236);fill-opacity:1;fill-rule:evenodd;stroke-width:0.51202" />
      <path
         id="Paint-s-5-5"
         class="st1"
         d="m 124.13356,1030.8672 c -1.14254,0 -2.07734,0.9086 -2.07734,2.0192 v 1.0097 h -2.07734 v -1.0097 c 0,-2.2211 1.8696,-4.0385 4.15468,-4.0385 h 6.23201 v 2.0193 z m 18.69605,5.0481 v 8.077 c 0,2.2212 -1.86961,4.0385 -4.15468,4.0385 v -6.0578 h -2.07734 v 6.0578 h -6.23202 v -4.0385 h -2.07733 v 4.0385 h -2.07734 v -6.0578 h -2.07734 v 6.0578 h -2.07734 v 2.0192 h 16.61871 c 3.42761,0 6.23201,-2.726 6.23201,-6.0577 v -8.077 z m 2.07733,-7.0674 h -2.07733 v 2.0193 h 2.07733 z"
         style="fill:#f0f0f0;fill-opacity:1;stroke-width:0.51202" />
    </g>
  </g>
</svg>
