<?xml version="1.0" encoding="UTF-8" standalone="no"?>
<svg
   width="32"
   version="1.1"
   height="32"
   viewBox="0 0 32 32"
   id="svg15"
   sodipodi:docname="folder-log.svg"
   inkscape:version="1.1.2 (0a00cf5339, 2022-02-04)"
   xmlns:inkscape="http://www.inkscape.org/namespaces/inkscape"
   xmlns:sodipodi="http://sodipodi.sourceforge.net/DTD/sodipodi-0.dtd"
   xmlns:xlink="http://www.w3.org/1999/xlink"
   xmlns="http://www.w3.org/2000/svg"
   xmlns:svg="http://www.w3.org/2000/svg"
   xmlns:rdf="http://www.w3.org/1999/02/22-rdf-syntax-ns#"
   xmlns:cc="http://creativecommons.org/ns#"
   xmlns:dc="http://purl.org/dc/elements/1.1/">
  <sodipodi:namedview
     pagecolor="#ffffff"
     bordercolor="#666666"
     borderopacity="1"
     objecttolerance="10"
     gridtolerance="10"
     guidetolerance="10"
     inkscape:pageopacity="0"
     inkscape:pageshadow="2"
     inkscape:window-width="1920"
     inkscape:window-height="1007"
     id="namedview17"
     showgrid="true"
     inkscape:zoom="9.8125"
     inkscape:cx="1.477707"
     inkscape:cy="18.038217"
     inkscape:window-x="0"
     inkscape:window-y="0"
     inkscape:window-maximized="1"
     inkscape:current-layer="g4"
     inkscape:pagecheckerboard="0">
    <inkscape:grid
       type="xygrid"
       id="grid862" />
  </sodipodi:namedview>
  <defs
     id="defs5455">
    <linearGradient
       inkscape:collect="always"
       xlink:href="#linearGradient2669"
       id="linearGradient2671"
       x1="386.57144"
       y1="515.79797"
       x2="446.72144"
       y2="515.79797"
       gradientUnits="userSpaceOnUse"
       gradientTransform="matrix(1.3848926,0,0,1.3461632,-463.85228,330.12458)" />
    <linearGradient
       inkscape:collect="always"
       id="linearGradient2669">
      <stop
         style="stop-color:#5599ff;stop-opacity:1;"
         offset="0"
         id="stop2665" />
      <stop
         style="stop-color:#80e5ff;stop-opacity:1"
         offset="1"
         id="stop2667" />
    </linearGradient>
    <linearGradient
       inkscape:collect="always"
       xlink:href="#linearGradient949"
       id="linearGradient1111"
       gradientUnits="userSpaceOnUse"
       gradientTransform="matrix(1.3848926,0,0,1.3461632,-465.23716,332.81691)"
       x1="416.57144"
       y1="522.33136"
       x2="440.57144"
       y2="522.33136" />
    <linearGradient
       inkscape:collect="always"
       id="linearGradient949">
      <stop
         style="stop-color:#b380ff;stop-opacity:1"
         offset="0"
         id="stop945" />
      <stop
         style="stop-color:#a793ac;stop-opacity:1"
         offset="1"
         id="stop947" />
    </linearGradient>
  </defs>
  <metadata
     id="metadata5458">
    <rdf:RDF>
      <cc:Work
         rdf:about="">
        <dc:format>image/svg+xml</dc:format>
        <dc:type
           rdf:resource="http://purl.org/dc/dcmitype/StillImage" />
      </cc:Work>
    </rdf:RDF>
  </metadata>
  <g
     inkscape:label="Capa 1"
     inkscape:groupmode="layer"
     id="layer1"
     transform="translate(-384.57143,-515.798)">
    <g
       transform="matrix(0.36013848,0,0,0.37142583,359.81878,151.2823)"
       id="g4">
      <path
         inkscape:connector-curvature="0"
         id="fill"
         d="m 72.892525,993.51114 v 60.57736 c 0.150648,2.0345 1.384893,4.0385 5.410027,4.0385 h 69.000978 c 4.52786,0 6.07147,-0.6718 5.91276,-5.3846 v -48.4619 c -1.3849,-2.6924 -11.07914,0 -11.07914,-8.07703 -16.61871,-1.34617 -47.086344,1.34616 -46.987725,-6.73082 H 78.428702 c -2.766391,0 -5.536177,1.34616 -5.536177,4.03849 z"
         style="color:#1e92ff;fill:#3b445f;fill-opacity:1;fill-rule:nonzero;stroke:none;stroke-width:14.3524"
         class="ColorScheme-ButtonFocus"
         sodipodi:nodetypes="cccccccccc" />
      <path
         d="m 149.1431,1000.7946 h -4.4307 v -1.58989 c 0,-2.76106 -1.24655,-4.12194 -2.29239,-4.77803 -1.12153,-0.70309 -2.22282,-0.73896 -2.43323,-0.73896 h -38.92733 c -0.83368,0 -1.617163,-0.85429 -2.446437,-1.75898 -1.055523,-1.15159 -2.251891,-2.45609 -4.068011,-2.45609 H 77.173435 c -3.229929,0 -5.665803,2.36296 -5.665803,5.49651 v 59.00754 c 0,3.031 2.541513,5.4965 5.665803,5.4965 H 149.1431 c 3.1243,0 5.66582,-2.4655 5.66582,-5.4965 v -47.6856 c 0,-3.0311 -2.54152,-5.4965 -5.66582,-5.4965 z m 3.02482,53.1821 c 0,1.618 -1.3566,2.9336 -3.02482,2.9336 H 77.173435 c -1.668214,0 -3.024812,-1.3156 -3.024812,-2.9336 v -59.00754 c 0,-1.72653 1.24391,-2.93364 3.024812,-2.93364 h 17.371567 c 0.631193,0 1.342514,0.7757 2.09519,1.59667 1.069594,1.1661 2.400655,2.61755 4.419258,2.61755 h 38.91148 c 0.39879,0.0107 1.53003,0.17939 1.94553,1.67269 H 81.311979 c -3.36738,0.0674 -5.128035,1.77607 -5.128035,5.19327 l 0.154941,46.9859 h 1.605714 c 0,0 -0.333205,0 0.0014,0 0.519389,0 1.339412,0.099 2.105299,-0.4831 1.37596,-1.0473 1.434057,-2.4048 1.421744,-2.7764 l -0.0069,-38.6037 c 0,-5.1257 0,-5.1257 5.28198,-5.1257 l 62.396078,0.2417 c 1.6682,0.01 3.02482,1.3165 3.02482,2.9337 v 47.6856 z"
         id="path2-3-3-2-3-6-7"
         sodipodi:nodetypes="scscsscssssssssscsssssscsccccccsccccsscc"
         style="fill:url(#linearGradient2671);fill-opacity:1;stroke-width:0.867212" />
      <path
         style="color:#232629;fill:url(#linearGradient1111);fill-opacity:1;stroke:none;stroke-width:1.39565"
         d="m 111.66951,1021.7806 v 1.2892 h 33.23742 v -1.2892 z m 0,2.5781 v 1.2891 h 1.51092 v -1.2891 z m 6.04312,3.8672 c -0.90655,0 -1.51064,0.5157 -1.51064,1.2889 0,0.709 0.60409,1.2892 1.51064,1.2892 0.83093,0 1.51091,-0.5802 1.51091,-1.2892 0,-0.7732 -0.67998,-1.2889 -1.51091,-1.2889 z m 4.53247,0 v 1.2889 h 16.61871 v -1.2889 z m 0,2.5781 v 1.2889 h 6.04312 v -1.2889 z m -4.53247,7.7343 c -0.90655,0 -1.51064,0.5156 -1.51064,1.2891 0,0.709 0.60409,1.289 1.51064,1.289 0.83093,0 1.51091,-0.58 1.51091,-1.289 0,-0.7735 -0.67998,-1.2891 -1.51091,-1.2891 z m 4.53247,0 v 1.2891 h 7.55404 v -1.2891 z m 0,2.5781 v 1.2891 h 10.5756 v -1.2891 z m 0,2.578 v 1.2892 h 21.15091 v -1.2892 z m -10.57559,2.5781 v 1.2892 h 1.51092 v -1.2892 z m 0,2.5781 v 1.2892 h 33.23742 v -1.2892 z"
         class="ColorScheme-Text"
         id="path12-7-7" />
    </g>
  </g>
</svg>
