<?xml version="1.0" encoding="UTF-8" standalone="no"?>
<svg
   width="32"
   version="1.1"
   height="32"
   viewBox="0 0 32 32"
   id="svg17"
   sodipodi:docname="folder-mail.svg"
   inkscape:version="1.1.2 (0a00cf5339, 2022-02-04)"
   xmlns:inkscape="http://www.inkscape.org/namespaces/inkscape"
   xmlns:sodipodi="http://sodipodi.sourceforge.net/DTD/sodipodi-0.dtd"
   xmlns:xlink="http://www.w3.org/1999/xlink"
   xmlns="http://www.w3.org/2000/svg"
   xmlns:svg="http://www.w3.org/2000/svg"
   xmlns:rdf="http://www.w3.org/1999/02/22-rdf-syntax-ns#"
   xmlns:cc="http://creativecommons.org/ns#"
   xmlns:dc="http://purl.org/dc/elements/1.1/">
  <sodipodi:namedview
     pagecolor="#ffffff"
     bordercolor="#666666"
     borderopacity="1"
     objecttolerance="10"
     gridtolerance="10"
     guidetolerance="10"
     inkscape:pageopacity="0"
     inkscape:pageshadow="2"
     inkscape:window-width="1920"
     inkscape:window-height="1007"
     id="namedview19"
     showgrid="false"
     inkscape:zoom="9.8125"
     inkscape:cx="-19.821656"
     inkscape:cy="1.1210191"
     inkscape:window-x="0"
     inkscape:window-y="0"
     inkscape:window-maximized="1"
     inkscape:current-layer="layer1"
     inkscape:pagecheckerboard="0" />
  <defs
     id="defs5455">
    <linearGradient
       inkscape:collect="always"
       id="linearGradient962">
      <stop
         style="stop-color:#01a2ff;stop-opacity:1"
         offset="0"
         id="stop958" />
      <stop
         style="stop-color:#2affd5;stop-opacity:1"
         offset="1"
         id="stop960" />
    </linearGradient>
    <linearGradient
       inkscape:collect="always"
       xlink:href="#linearGradient2669"
       id="linearGradient2671"
       x1="386.57144"
       y1="515.79797"
       x2="446.72144"
       y2="515.79797"
       gradientUnits="userSpaceOnUse"
       gradientTransform="matrix(0.49875312,0,0,0.50000005,192.76773,273.89898)" />
    <linearGradient
       inkscape:collect="always"
       id="linearGradient2669">
      <stop
         style="stop-color:#5599ff;stop-opacity:1;"
         offset="0"
         id="stop2665" />
      <stop
         style="stop-color:#80e5ff;stop-opacity:1"
         offset="1"
         id="stop2667" />
    </linearGradient>
    <linearGradient
       inkscape:collect="always"
       xlink:href="#linearGradient962"
       id="linearGradient1136"
       gradientUnits="userSpaceOnUse"
       x1="415.57144"
       y1="522.04797"
       x2="439.57144"
       y2="522.04797"
       gradientTransform="matrix(0.49875312,0,0,0.50000005,192.76773,273.89898)" />
  </defs>
  <metadata
     id="metadata5458">
    <rdf:RDF>
      <cc:Work
         rdf:about="">
        <dc:format>image/svg+xml</dc:format>
        <dc:type
           rdf:resource="http://purl.org/dc/dcmitype/StillImage" />
      </cc:Work>
    </rdf:RDF>
  </metadata>
  <g
     inkscape:label="Capa 1"
     inkscape:groupmode="layer"
     id="layer1"
     transform="translate(-384.57143,-515.798)">
    <path
       inkscape:connector-curvature="0"
       id="fill"
       d="m 386.07018,520.298 v 22.5 c 0.0543,0.75566 0.49876,1.5 1.94836,1.5 h 24.84991 c 1.63066,0 2.18657,-0.24952 2.12941,-1.99999 V 524.298 c -0.49875,-1 -3.99002,0 -3.99002,-3 -5.98504,-0.5 -16.95761,0.5 -16.9221,-2.5 h -6.02177 c -0.99628,0 -1.99379,0.5 -1.99379,1.5 z"
       style="color:#1e92ff;fill:#3b445f;fill-opacity:1;fill-rule:nonzero;stroke:none;stroke-width:5.24924"
       class="ColorScheme-ButtonFocus"
       sodipodi:nodetypes="cccccccccc" />
    <path
       d="m 413.53095,523.00324 h -1.59567 v -0.5905 c 0,-1.02554 -0.44893,-1.53101 -0.82558,-1.77469 -0.4039,-0.26115 -0.80051,-0.27447 -0.87629,-0.27447 h -14.01924 c -0.30024,0 -0.5824,-0.3173 -0.88105,-0.65333 -0.38013,-0.42773 -0.811,-0.91225 -1.46505,-0.91225 h -6.25617 c -1.16322,0 -2.04047,0.87766 -2.04047,2.04154 v 21.91691 c 0,1.1258 0.91529,2.04155 2.04047,2.04155 h 25.91905 c 1.12518,0 2.04048,-0.91575 2.04048,-2.04155 v -17.71166 c 0,-1.1258 -0.9153,-2.04155 -2.04048,-2.04155 z m 1.08936,19.75321 c 0,0.60098 -0.48857,1.08963 -1.08936,1.08963 H 387.6119 c -0.60078,0 -1.08935,-0.48865 -1.08935,-1.08963 v -21.91691 c 0,-0.64126 0.44798,-1.08962 1.08935,-1.08962 h 6.25617 c 0.22732,0 0.48349,0.28811 0.75456,0.59304 0.38521,0.43313 0.86457,0.97222 1.59154,0.97222 h 14.01353 c 0.14362,0.004 0.55102,0.0665 0.70067,0.62128 h -21.82602 c -1.21273,0.0251 -1.8468,0.65968 -1.8468,1.9289 l 0.0558,17.4518 h 0.57827 c 0,0 -0.12,9.9e-4 4.9e-4,9.9e-4 0.18706,0 0.48238,0.0367 0.7582,-0.17941 0.49554,-0.38903 0.51647,-0.89323 0.51203,-1.03126 l -0.002,-14.33839 c 0,-1.90385 0,-1.90385 1.90225,-1.90385 l 22.47123,0.0898 c 0.60078,0.002 1.08935,0.48897 1.08935,1.08963 v 17.71166 z"
       id="path2-3-3-2-3-6-7"
       sodipodi:nodetypes="scscsscssssssssscsssssscsccccccsccccsscc"
       style="fill:url(#linearGradient2671);fill-opacity:1;stroke-width:0.317173" />
    <path
       id="Mail-8-7"
       class="st0"
       d="m 406.02031,529.29801 2.99252,2.06249 h -5.98504 z m -5.98504,4.49999 v 6.75 h 10.09975 c 1.02868,0 1.87033,-0.84375 1.87033,-1.87499 V 533.798 l -0.74813,-0.5625 v 1.3125 l -5.23691,3 -4.48878,-2.625 -0.37407,-2.0625 z"
       style="fill:url(#linearGradient1136);fill-opacity:1;stroke-width:0.187266" />
    <path
       id="Mail-s-7-5"
       class="st1"
       d="m 412.00535,534.548 v 4.5 c 0,1.2375 -1.00998,2.25 -2.24439,2.25 h -8.97756 v -0.75 h 8.97756 c 0.82294,0 1.49626,-0.675 1.49626,-1.5 v -4.5 z m -11.22195,-2.25 c 0,-0.825 0.67332,-1.5 1.49626,-1.5 h 8.22943 v 0.75 h -8.22943 c -0.41147,0 -0.74813,0.3375 -0.74813,0.75 v 2.625 l -0.74813,-0.375 z"
       style="clip-rule:evenodd;fill:#f2f2f2;fill-opacity:1;fill-rule:evenodd;stroke-width:0.187266" />
  </g>
</svg>
