<?xml version="1.0" encoding="UTF-8" standalone="no"?>
<svg
   width="32"
   version="1.1"
   height="32"
   viewBox="0 0 32 32"
   id="svg15"
   sodipodi:docname="folder-design.svg"
   inkscape:version="1.1.2 (0a00cf5339, 2022-02-04)"
   xmlns:inkscape="http://www.inkscape.org/namespaces/inkscape"
   xmlns:sodipodi="http://sodipodi.sourceforge.net/DTD/sodipodi-0.dtd"
   xmlns:xlink="http://www.w3.org/1999/xlink"
   xmlns="http://www.w3.org/2000/svg"
   xmlns:svg="http://www.w3.org/2000/svg"
   xmlns:rdf="http://www.w3.org/1999/02/22-rdf-syntax-ns#"
   xmlns:cc="http://creativecommons.org/ns#"
   xmlns:dc="http://purl.org/dc/elements/1.1/">
  <sodipodi:namedview
     pagecolor="#ffffff"
     bordercolor="#666666"
     borderopacity="1"
     objecttolerance="10"
     gridtolerance="10"
     guidetolerance="10"
     inkscape:pageopacity="0"
     inkscape:pageshadow="2"
     inkscape:window-width="1920"
     inkscape:window-height="1007"
     id="namedview17"
     showgrid="true"
     inkscape:zoom="9.8125"
     inkscape:cx="-18.191083"
     inkscape:cy="18.140127"
     inkscape:window-x="0"
     inkscape:window-y="0"
     inkscape:window-maximized="1"
     inkscape:current-layer="g4"
     inkscape:pagecheckerboard="0">
    <inkscape:grid
       type="xygrid"
       id="grid862" />
  </sodipodi:namedview>
  <defs
     id="defs5455">
    <linearGradient
       inkscape:collect="always"
       xlink:href="#linearGradient2669"
       id="linearGradient2671"
       x1="386.57144"
       y1="515.79797"
       x2="446.72144"
       y2="515.79797"
       gradientUnits="userSpaceOnUse"
       gradientTransform="matrix(1.3848926,0,0,1.3461635,-463.85226,330.12444)" />
    <linearGradient
       inkscape:collect="always"
       id="linearGradient2669">
      <stop
         style="stop-color:#5599ff;stop-opacity:1;"
         offset="0"
         id="stop2665" />
      <stop
         style="stop-color:#80e5ff;stop-opacity:1"
         offset="1"
         id="stop2667" />
    </linearGradient>
    <linearGradient
       inkscape:collect="always"
       xlink:href="#linearGradient975-3"
       id="linearGradient1157"
       gradientUnits="userSpaceOnUse"
       gradientTransform="matrix(1.3848926,0,0,1.3461635,-463.86219,331.47061)"
       x1="429.92029"
       y1="510.79843"
       x2="429.57144"
       y2="533.79797" />
    <linearGradient
       inkscape:collect="always"
       id="linearGradient975-3">
      <stop
         style="stop-color:#263740;stop-opacity:1"
         offset="0"
         id="stop971-6" />
      <stop
         style="stop-color:#263740;stop-opacity:1"
         offset="0"
         id="stop1397-7" />
      <stop
         style="stop-color:#ffccaa;stop-opacity:1"
         offset="0"
         id="stop1527-5" />
      <stop
         style="stop-color:#ffdd55;stop-opacity:1"
         offset="1"
         id="stop973-3" />
    </linearGradient>
  </defs>
  <metadata
     id="metadata5458">
    <rdf:RDF>
      <cc:Work
         rdf:about="">
        <dc:format>image/svg+xml</dc:format>
        <dc:type
           rdf:resource="http://purl.org/dc/dcmitype/StillImage" />
      </cc:Work>
    </rdf:RDF>
  </metadata>
  <g
     inkscape:label="Capa 1"
     inkscape:groupmode="layer"
     id="layer1"
     transform="translate(-384.57143,-515.798)">
    <g
       transform="matrix(0.36013848,0,0,0.37142583,359.81878,151.2823)"
       id="g4">
      <path
         inkscape:connector-curvature="0"
         id="fill"
         d="m 72.892525,993.51114 v 60.57736 c 0.150648,2.0344 1.384892,4.0385 5.410027,4.0385 h 69.000988 c 4.52787,0 6.07147,-0.6718 5.91276,-5.3847 v -48.4619 c -1.38489,-2.6923 -11.07914,0 -11.07914,-8.07693 -16.61871,-1.34617 -47.086354,1.34616 -46.987735,-6.73082 H 78.428703 c -2.766393,0 -5.536178,1.34616 -5.536178,4.03849 z"
         style="color:#1e92ff;fill:#3b445f;fill-opacity:1;fill-rule:nonzero;stroke:none;stroke-width:14.3524"
         class="ColorScheme-ButtonFocus"
         sodipodi:nodetypes="cccccccccc" />
      <path
         d="m 149.14311,1000.7945 h -4.4307 v -1.58979 c 0,-2.76106 -1.24654,-4.12194 -2.29239,-4.77803 -1.12152,-0.70309 -2.22282,-0.73896 -2.43323,-0.73896 h -38.92733 c -0.83368,0 -1.617169,-0.85429 -2.446447,-1.75898 -1.055523,-1.15159 -2.25189,-2.45609 -4.06801,-2.45609 H 77.173435 c -3.229929,0 -5.665803,2.36296 -5.665803,5.49651 v 59.00744 c 0,3.031 2.541514,5.4966 5.665803,5.4966 h 71.969675 c 3.1243,0 5.66582,-2.4656 5.66582,-5.4966 v -47.6856 c 0,-3.031 -2.54152,-5.4965 -5.66582,-5.4965 z m 3.02483,53.1821 c 0,1.618 -1.3566,2.9336 -3.02483,2.9336 H 77.173435 c -1.668213,0 -3.024813,-1.3156 -3.024813,-2.9336 v -59.00744 c 0,-1.72653 1.24391,-2.93364 3.024813,-2.93364 h 17.371568 c 0.631192,0 1.342513,0.7757 2.095189,1.59667 1.069594,1.1661 2.400658,2.61755 4.419268,2.61755 h 38.91148 c 0.39879,0.0107 1.53003,0.17939 1.94554,1.67269 h -60.6045 c -3.367381,0.0674 -5.128036,1.77607 -5.128036,5.19327 l 0.154942,46.9859 h 1.605713 c 0,0 -0.333205,0 0.0014,0 0.519391,0 1.339413,0.099 2.1053,-0.4831 1.375961,-1.0473 1.434056,-2.4048 1.421745,-2.7764 l -0.0069,-38.6036 c 0,-5.1258 0,-5.1258 5.28198,-5.1258 l 62.396096,0.2418 c 1.6682,0.01 3.02481,1.3164 3.02481,2.9336 v 47.6856 z"
         id="path2-3-3-2-3-6-7"
         sodipodi:nodetypes="scscsscssssssssscsssssscsccccccsccccsscc"
         style="fill:url(#linearGradient2671);fill-opacity:1;stroke-width:0.867212" />
      <path
         style="color:#232629;fill:url(#linearGradient1157);fill-opacity:1;stroke:none;stroke-width:1.14622"
         d="m 131.53093,1019.0882 c -0.6128,0 -1.11449,0.4447 -1.11449,0.9955 v 0.9106 c -1.97468,0.4558 -3.39543,2.0302 -3.39543,3.9224 0,1.3247 0.70353,2.5035 1.80161,3.2454 0.11689,0.1241 0.18889,0.2812 0.18889,0.4564 0,0.051 5e-5,0.1008 -0.007,0.1486 l -4.88064,9.2988 h -2.01885 c -0.32942,0 -0.59974,0.2388 -0.59974,0.5349 v 0 c 0,0.2962 0.27032,0.5349 0.59974,0.5349 h 1.45688 l -3.7685,7.1806 c -0.23733,0.4553 -0.11938,0.9817 0.25265,1.3224 l -1.45215,2.651 2.2951,-2.235 c 0.60926,0.1433 1.26087,-0.1178 1.53715,-0.6432 l 4.34464,-8.2758 h 3.81809 v 0.7111 c 0,0.4521 0.4096,0.8171 0.91614,0.8171 h 0.0496 c 0.50654,0 0.91852,-0.365 0.91852,-0.8171 v -0.7111 h 3.90545 l 4.34227,8.2758 c 0.27276,0.5286 0.92907,0.7865 1.5348,0.6432 l 2.2951,2.235 -1.44742,-2.651 c 0.36839,-0.3407 0.48762,-0.8639 0.25029,-1.3224 l -3.7685,-7.1806 h 1.36713 c 0.33297,0 0.59975,-0.2387 0.59975,-0.5349 0,-0.2961 -0.26678,-0.5338 -0.59975,-0.537 h -1.92911 l -4.87827,-9.2989 c -0.007,-0.048 -0.007,-0.098 -0.007,-0.1486 0,-0.1719 0.0709,-0.3321 0.18418,-0.4563 1.09808,-0.7419 1.80633,-1.9208 1.80633,-3.2454 0,-1.9182 -1.48756,-3.5119 -3.48516,-3.9437 v -0.8893 c 0,-0.5509 -0.49579,-0.9955 -1.11213,-0.9955 z m 1.06019,3.672 c 0.93957,0.3548 1.59854,1.1863 1.59854,2.1565 0,1.2928 -1.16864,2.3412 -2.61386,2.3412 -1.45231,0 -2.61387,-1.0484 -2.61387,-2.3412 0,-0.9388 0.62087,-1.7434 1.5159,-2.1161 0.13267,0.4151 0.5435,0.7259 1.0531,0.7259 0.52278,0 0.94213,-0.3296 1.06019,-0.7663 z m -1.03658,7.7749 h 0.0213 0.0213 c 0.14169,0 0.26681,0.06 0.34474,0.1486 l 3.87475,7.3822 h -3.34348 v -0.8638 c 0,-0.4554 -0.41198,-0.8215 -0.91851,-0.8215 h -0.0496 c -0.50654,0 -0.91615,0.3693 -0.91615,0.8215 v 0.8638 h -3.25612 l 3.87475,-7.3822 c 0.0814,-0.092 0.20542,-0.1486 0.34711,-0.1486 z"
         class="ColorScheme-Text"
         id="path12-3-3" />
    </g>
  </g>
</svg>
