<?xml version="1.0" encoding="UTF-8" standalone="no"?>
<svg
   width="32"
   version="1.1"
   height="32"
   viewBox="0 0 32 32"
   id="svg15"
   sodipodi:docname="folder-godot.svg"
   inkscape:version="1.1.2 (0a00cf5339, 2022-02-04)"
   xmlns:inkscape="http://www.inkscape.org/namespaces/inkscape"
   xmlns:sodipodi="http://sodipodi.sourceforge.net/DTD/sodipodi-0.dtd"
   xmlns:xlink="http://www.w3.org/1999/xlink"
   xmlns="http://www.w3.org/2000/svg"
   xmlns:svg="http://www.w3.org/2000/svg"
   xmlns:rdf="http://www.w3.org/1999/02/22-rdf-syntax-ns#"
   xmlns:cc="http://creativecommons.org/ns#"
   xmlns:dc="http://purl.org/dc/elements/1.1/">
  <sodipodi:namedview
     pagecolor="#ffffff"
     bordercolor="#666666"
     borderopacity="1"
     objecttolerance="10"
     gridtolerance="10"
     guidetolerance="10"
     inkscape:pageopacity="0"
     inkscape:pageshadow="2"
     inkscape:window-width="1920"
     inkscape:window-height="1007"
     id="namedview17"
     showgrid="true"
     inkscape:zoom="9.8125"
     inkscape:cx="1.477707"
     inkscape:cy="18.140127"
     inkscape:window-x="0"
     inkscape:window-y="0"
     inkscape:window-maximized="1"
     inkscape:current-layer="layer1"
     inkscape:pagecheckerboard="0">
    <inkscape:grid
       type="xygrid"
       id="grid862" />
  </sodipodi:namedview>
  <defs
     id="defs5455">
    <linearGradient
       inkscape:collect="always"
       id="linearGradient911">
      <stop
         style="stop-color:#5599ff;stop-opacity:1"
         offset="0"
         id="stop907" />
      <stop
         style="stop-color:#cd87de;stop-opacity:1"
         offset="1"
         id="stop909" />
    </linearGradient>
    <linearGradient
       inkscape:collect="always"
       xlink:href="#linearGradient2669"
       id="linearGradient2671"
       x1="386.57144"
       y1="515.79797"
       x2="446.72144"
       y2="515.79797"
       gradientUnits="userSpaceOnUse"
       gradientTransform="matrix(0.49875312,0,0,0.49999993,192.76773,273.89902)" />
    <linearGradient
       inkscape:collect="always"
       id="linearGradient2669">
      <stop
         style="stop-color:#5599ff;stop-opacity:1;"
         offset="0"
         id="stop2665" />
      <stop
         style="stop-color:#80e5ff;stop-opacity:1"
         offset="1"
         id="stop2667" />
    </linearGradient>
    <linearGradient
       inkscape:collect="always"
       xlink:href="#linearGradient911"
       id="linearGradient1111"
       gradientUnits="userSpaceOnUse"
       gradientTransform="matrix(0.49875312,0,0,0.49999993,192.26898,274.39903)"
       x1="418.07144"
       y1="522.54797"
       x2="440.57144"
       y2="522.54797" />
  </defs>
  <metadata
     id="metadata5458">
    <rdf:RDF>
      <cc:Work
         rdf:about="">
        <dc:format>image/svg+xml</dc:format>
        <dc:type
           rdf:resource="http://purl.org/dc/dcmitype/StillImage" />
      </cc:Work>
    </rdf:RDF>
  </metadata>
  <g
     inkscape:label="Capa 1"
     inkscape:groupmode="layer"
     id="layer1"
     transform="translate(-384.57143,-515.798)">
    <path
       inkscape:connector-curvature="0"
       id="fill"
       d="m 386.07019,520.298 v 22.49999 c 0.0542,0.75567 0.49875,1.50001 1.94835,1.50001 h 24.84991 c 1.63066,0 2.18657,-0.24953 2.12942,-1.99998 V 524.298 c -0.49876,-1 -3.99003,0 -3.99003,-3 -5.98504,-0.5 -16.9576,0.5 -16.92209,-2.5 h -6.02177 c -0.99629,0 -1.99379,0.5 -1.99379,1.5 z"
       style="color:#1e92ff;fill:#3b445f;fill-opacity:1;fill-rule:nonzero;stroke:none;stroke-width:5.24923"
       class="ColorScheme-ButtonFocus"
       sodipodi:nodetypes="cccccccccc" />
    <path
       d="m 413.53095,523.00324 h -1.59566 v -0.5905 c 0,-1.02553 -0.44893,-1.531 -0.82558,-1.77469 -0.4039,-0.26114 -0.80052,-0.27447 -0.8763,-0.27447 h -14.01923 c -0.30024,0 -0.5824,-0.3173 -0.88106,-0.65333 -0.38013,-0.42773 -0.81099,-0.91225 -1.46504,-0.91225 h -6.25617 c -1.16323,0 -2.04048,0.87766 -2.04048,2.04154 v 21.91693 c 0,1.12579 0.9153,2.04154 2.04048,2.04154 h 25.91904 c 1.12518,0 2.04048,-0.91575 2.04048,-2.04154 v -17.71168 c 0,-1.1258 -0.9153,-2.04155 -2.04048,-2.04155 z m 1.08936,19.75323 c 0,0.60096 -0.48856,1.08961 -1.08936,1.08961 h -25.91904 c -0.60079,0 -1.08935,-0.48865 -1.08935,-1.08961 v -21.91693 c 0,-0.64127 0.44797,-1.08963 1.08935,-1.08963 h 6.25617 c 0.22731,0 0.48349,0.28812 0.75455,0.59305 0.38521,0.43312 0.86457,0.97222 1.59155,0.97222 h 14.01352 c 0.14362,0.004 0.55102,0.0666 0.70066,0.62128 h -21.826 c -1.21273,0.025 -1.84681,0.65968 -1.84681,1.9289 l 0.0558,17.4518 h 0.57828 c 0,0 -0.12,0 5.1e-4,0 0.18705,0 0.48237,0.0368 0.7582,-0.17944 0.49553,-0.38899 0.51645,-0.8932 0.51202,-1.03123 l -0.002,-14.3384 c 0,-1.90384 0,-1.90384 1.90224,-1.90384 l 22.47123,0.0898 c 0.60078,0.003 1.08935,0.48896 1.08935,1.08963 v 17.71167 z"
       id="path2-3-3-2-3-6-7"
       sodipodi:nodetypes="scscsscssssssssscsssssscsccccccsccccsscc"
       style="fill:url(#linearGradient2671);fill-opacity:1;stroke-width:0.317173" />
    <path
       style="color:#232629;fill:url(#linearGradient1111);fill-opacity:1;stroke:none;stroke-width:0.561796"
       d="m 405.27218,530.04798 -1.68329,0.56253 v 1.40625 l -0.84165,0.84374 -0.95386,-0.73127 -1.00998,1.29375 0.5611,1.12501 v 3.375 h 2.24439 v 1.12501 h 1.68329 v -1.12501 h 2.24439 v 1.12501 h 1.68329 v -1.12501 h 2.24439 v -3.375 l 0.5611,-1.12501 -1.00998,-1.29375 -0.95386,0.73127 -0.84165,-0.84374 v -1.40625 c 0,0 -1.1783,-0.45002 -1.68329,-0.56253 -0.22444,0.33752 -0.39277,0.73127 -0.5611,1.12502 h -1.12219 c -0.16833,-0.39375 -0.5611,-1.12502 -0.5611,-1.12502 z m -1.40274,4.50001 a 1.4027431,1.4062498 0 0 1 1.40274,1.40626 1.4027431,1.4062498 0 0 1 -1.40274,1.40625 1.4027431,1.4062498 0 0 1 -1.40275,-1.40625 1.4027431,1.4062498 0 0 1 1.40275,-1.40626 z m 5.04987,0 a 1.4027431,1.4062498 0 0 1 1.40275,1.40626 1.4027431,1.4062498 0 0 1 -1.40275,1.40625 1.4027431,1.4062498 0 0 1 -1.40274,-1.40625 1.4027431,1.4062498 0 0 1 1.40274,-1.40626 z m -5.04987,0.56249 a 0.84164586,0.8437499 0 0 0 -0.84165,0.84377 0.84164586,0.8437499 0 0 0 0.84165,0.84373 0.84164586,0.8437499 0 0 0 0.84164,-0.84373 0.84164586,0.8437499 0 0 0 -0.84164,-0.84377 z m 2.52493,0 c 0.28055,0 0.5611,0.28128 0.5611,0.56253 v 1.12497 c 0,0.28128 -0.28055,0.56252 -0.5611,0.56252 -0.28054,0 -0.56109,-0.28124 -0.56109,-0.56252 v -1.12497 c 0,-0.28125 0.25025,-0.56253 0.56109,-0.56253 z m 2.52494,0 a 0.84164586,0.8437499 0 0 0 -0.84164,0.84377 0.84164586,0.8437499 0 0 0 0.84164,0.84373 0.84164586,0.8437499 0 0 0 0.84165,-0.84373 0.84164586,0.8437499 0 0 0 -0.84165,-0.84377 z m -7.57481,3.37504 v 0.28124 c 0,1.85624 2.3005,2.53123 5.04987,2.53123 v 0 0 c 2.74938,0 5.04988,-0.84373 5.04988,-2.70001 0,-0.0562 0,0.0563 0,-0.11246 h -1.68329 v 1.12497 h -2.80549 v -1.12497 h -1.12219 v 1.12497 h -2.80549 v -1.12497 z"
       class="ColorScheme-Text"
       id="path12-7-7" />
  </g>
</svg>
