<?xml version="1.0" encoding="UTF-8" standalone="no"?>
<svg
   width="32"
   version="1.1"
   height="32"
   viewBox="0 0 32 32"
   id="svg2"
   inkscape:version="1.1.2 (0a00cf5339, 2022-02-04)"
   sodipodi:docname="favorites.svg"
   xmlns:inkscape="http://www.inkscape.org/namespaces/inkscape"
   xmlns:sodipodi="http://sodipodi.sourceforge.net/DTD/sodipodi-0.dtd"
   xmlns:xlink="http://www.w3.org/1999/xlink"
   xmlns="http://www.w3.org/2000/svg"
   xmlns:svg="http://www.w3.org/2000/svg"
   xmlns:rdf="http://www.w3.org/1999/02/22-rdf-syntax-ns#"
   xmlns:cc="http://creativecommons.org/ns#"
   xmlns:dc="http://purl.org/dc/elements/1.1/">
  <sodipodi:namedview
     pagecolor="#ffffff"
     bordercolor="#666666"
     borderopacity="1"
     objecttolerance="10"
     gridtolerance="10"
     guidetolerance="10"
     inkscape:pageopacity="0"
     inkscape:pageshadow="2"
     inkscape:window-width="1920"
     inkscape:window-height="1007"
     id="namedview19"
     showgrid="false"
     inkscape:zoom="10.429825"
     inkscape:cx="21.716568"
     inkscape:cy="18.600504"
     inkscape:window-x="0"
     inkscape:window-y="0"
     inkscape:window-maximized="1"
     inkscape:current-layer="layer1"
     inkscape:document-rotation="0"
     inkscape:pagecheckerboard="0"
     inkscape:lockguides="true">
    <inkscape:grid
       type="xygrid"
       id="grid838" />
  </sodipodi:namedview>
  <defs
     id="defs5455">
    <linearGradient
       inkscape:collect="always"
       id="linearGradient888">
      <stop
         style="stop-color:#ff8080;stop-opacity:1"
         offset="0"
         id="stop884" />
      <stop
         style="stop-color:#ff58ff;stop-opacity:1"
         offset="1"
         id="stop886" />
    </linearGradient>
    <linearGradient
       inkscape:collect="always"
       xlink:href="#linearGradient2669"
       id="linearGradient2671"
       x1="386.57144"
       y1="515.79797"
       x2="446.72144"
       y2="515.79797"
       gradientUnits="userSpaceOnUse"
       gradientTransform="matrix(0.49875312,0,0,0.5,192.76772,273.899)" />
    <linearGradient
       inkscape:collect="always"
       id="linearGradient2669">
      <stop
         style="stop-color:#5599ff;stop-opacity:1;"
         offset="0"
         id="stop2665" />
      <stop
         style="stop-color:#80e5ff;stop-opacity:1"
         offset="1"
         id="stop2667" />
    </linearGradient>
    <linearGradient
       inkscape:collect="always"
       xlink:href="#linearGradient888"
       id="linearGradient1138"
       gradientUnits="userSpaceOnUse"
       gradientTransform="matrix(0.49875312,0,0,0.5,192.76774,273.899)"
       x1="420.14917"
       y1="522.198"
       x2="439.57416"
       y2="522.198" />
  </defs>
  <metadata
     id="metadata5458">
    <rdf:RDF>
      <cc:Work
         rdf:about="">
        <dc:format>image/svg+xml</dc:format>
        <dc:type
           rdf:resource="http://purl.org/dc/dcmitype/StillImage" />
      </cc:Work>
    </rdf:RDF>
  </metadata>
  <g
     inkscape:label="Capa 1"
     inkscape:groupmode="layer"
     id="layer1"
     transform="translate(-384.57143,-515.798)">
    <path
       inkscape:connector-curvature="0"
       id="fill"
       d="m 386.07018,520.298 v 22.5 c 0.0543,0.75565 0.49876,1.5 1.94836,1.5 h 24.84992 c 1.63065,0 2.18656,-0.24951 2.1294,-2 v -18 c -0.49875,-1 -3.99002,0 -3.99002,-3 -5.98504,-0.5 -16.95761,0.5 -16.92209,-2.5 h -6.02178 c -0.99628,0 -1.99379,0.5 -1.99379,1.5 z"
       style="color:#1e92ff;fill:#3b445f;fill-opacity:1;fill-rule:nonzero;stroke:none;stroke-width:5.24924"
       class="ColorScheme-ButtonFocus"
       sodipodi:nodetypes="cccccccccc" />
    <path
       d="m 413.53095,523.00324 h -1.59566 v -0.5905 c 0,-1.02553 -0.44894,-1.53099 -0.82559,-1.77469 -0.4039,-0.26114 -0.80051,-0.27447 -0.87629,-0.27447 h -14.01923 c -0.30025,0 -0.5824,-0.3173 -0.88106,-0.65333 -0.38013,-0.42773 -0.81099,-0.91225 -1.46505,-0.91225 h -6.25616 c -1.16323,0 -2.04048,0.87766 -2.04048,2.04154 v 21.91691 c 0,1.1258 0.91529,2.04155 2.04048,2.04155 h 25.91904 c 1.12519,0 2.04048,-0.91575 2.04048,-2.04155 v -17.71166 c 0,-1.1258 -0.91529,-2.04155 -2.04048,-2.04155 z m 1.08936,19.75321 c 0,0.60099 -0.48856,1.08964 -1.08936,1.08964 H 387.6119 c -0.60079,0 -1.08935,-0.48865 -1.08935,-1.08964 v -21.9169 c 0,-0.64128 0.44798,-1.08964 1.08935,-1.08964 h 6.25617 c 0.22732,0 0.48349,0.28812 0.75456,0.59305 0.3852,0.43312 0.86457,0.97223 1.59155,0.97223 h 14.01352 c 0.14362,0.004 0.55102,0.0666 0.70066,0.62127 h -21.82601 c -1.21272,0.0251 -1.8468,0.65969 -1.8468,1.9289 l 0.0558,17.4518 h 0.57828 c 0,0 -0.12001,0.001 4.8e-4,0.001 0.18706,0 0.48238,0.0367 0.75821,-0.17942 0.49553,-0.38901 0.51646,-0.89321 0.51202,-1.03125 l -0.002,-14.3384 c 0,-1.90384 0,-1.90384 1.90225,-1.90384 l 22.47123,0.0898 c 0.60079,0.002 1.08936,0.48897 1.08936,1.08963 v 17.71167 z"
       id="path2-3-3-2-3-6-7"
       sodipodi:nodetypes="scscsscssssssssscsssssscsccccccsccccsscc"
       style="fill:url(#linearGradient2671);fill-opacity:1;stroke-width:0.317173" />
    <path
       id="Star-7-7"
       class="st0"
       d="m 406.02167,529.298 1.49626,4.125 h 4.48878 l -3.70324,2.83125 1.60847,4.44375 -2.80549,-2.025 c -0.65461,-0.46875 -1.53365,-0.46875 -2.16956,0 l -2.61846,1.875 z"
       style="fill:url(#linearGradient1138);fill-opacity:1;stroke-width:0.187266" />
    <path
       id="Star-s-2-5"
       class="st1"
       d="m 403.49674,537.00425 -3.14215,-2.2125 c -0.5985,-0.43125 -0.29926,-1.36875 0.43018,-1.36875 h 2.24439 v 0.75 h -2.24439 l 2.9551,2.08125 z m -0.33666,2.94375 0.43017,0.6 1.77681,-1.275 c 0.39277,-0.28125 0.91646,-0.28125 1.30923,0 l 2.82419,2.025 0.43017,-0.6 v 0 0 l -2.8242,-2.025 c -0.65461,-0.46875 -1.53365,-0.46875 -2.16956,0 z m 5.40523,-3 3.4414,-2.5875 -0.44889,-0.6 -3.25435,2.49375 z"
       style="fill:#f2f2f2;fill-opacity:1;stroke:none;stroke-width:0.187266;stroke-opacity:1" />
  </g>
</svg>
