<?xml version="1.0" encoding="UTF-8" standalone="no"?>
<svg
   width="32"
   version="1.1"
   height="32"
   viewBox="0 0 32 32"
   id="svg17"
   sodipodi:docname="folder-important.svg"
   inkscape:version="1.1.2 (0a00cf5339, 2022-02-04)"
   xmlns:inkscape="http://www.inkscape.org/namespaces/inkscape"
   xmlns:sodipodi="http://sodipodi.sourceforge.net/DTD/sodipodi-0.dtd"
   xmlns:xlink="http://www.w3.org/1999/xlink"
   xmlns="http://www.w3.org/2000/svg"
   xmlns:svg="http://www.w3.org/2000/svg"
   xmlns:rdf="http://www.w3.org/1999/02/22-rdf-syntax-ns#"
   xmlns:cc="http://creativecommons.org/ns#"
   xmlns:dc="http://purl.org/dc/elements/1.1/">
  <sodipodi:namedview
     pagecolor="#ffffff"
     bordercolor="#666666"
     borderopacity="1"
     objecttolerance="10"
     gridtolerance="10"
     guidetolerance="10"
     inkscape:pageopacity="0"
     inkscape:pageshadow="2"
     inkscape:window-width="1920"
     inkscape:window-height="1007"
     id="namedview19"
     showgrid="false"
     inkscape:zoom="6.9384853"
     inkscape:cx="-37.976588"
     inkscape:cy="0.5764947"
     inkscape:window-x="0"
     inkscape:window-y="0"
     inkscape:window-maximized="1"
     inkscape:current-layer="layer1"
     inkscape:pagecheckerboard="0" />
  <defs
     id="defs5455">
    <linearGradient
       inkscape:collect="always"
       id="linearGradient948">
      <stop
         style="stop-color:#ffff00;stop-opacity:1"
         offset="0"
         id="stop944" />
      <stop
         style="stop-color:#ff9955;stop-opacity:1"
         offset="1"
         id="stop946" />
    </linearGradient>
    <linearGradient
       inkscape:collect="always"
       xlink:href="#linearGradient2669"
       id="linearGradient2671"
       x1="386.57144"
       y1="515.79797"
       x2="446.72144"
       y2="515.79797"
       gradientUnits="userSpaceOnUse"
       gradientTransform="matrix(0.49875312,0,0,0.5,192.76773,273.89899)" />
    <linearGradient
       inkscape:collect="always"
       id="linearGradient2669">
      <stop
         style="stop-color:#5599ff;stop-opacity:1;"
         offset="0"
         id="stop2665" />
      <stop
         style="stop-color:#80e5ff;stop-opacity:1"
         offset="1"
         id="stop2667" />
    </linearGradient>
    <linearGradient
       inkscape:collect="always"
       xlink:href="#linearGradient948"
       id="linearGradient1141"
       gradientUnits="userSpaceOnUse"
       x1="422.32144"
       y1="522.79797"
       x2="437.32144"
       y2="522.79797"
       gradientTransform="matrix(0.49875312,0,0,0.5,192.76773,273.89899)" />
  </defs>
  <metadata
     id="metadata5458">
    <rdf:RDF>
      <cc:Work
         rdf:about="">
        <dc:format>image/svg+xml</dc:format>
        <dc:type
           rdf:resource="http://purl.org/dc/dcmitype/StillImage" />
      </cc:Work>
    </rdf:RDF>
  </metadata>
  <g
     inkscape:label="Capa 1"
     inkscape:groupmode="layer"
     id="layer1"
     transform="translate(-384.57143,-515.798)">
    <path
       inkscape:connector-curvature="0"
       id="fill"
       d="m 386.07018,520.298 v 22.5 c 0.0543,0.75565 0.49876,1.5 1.94836,1.5 h 24.84991 c 1.63066,0 2.18657,-0.24951 2.12941,-2 v -18 c -0.49875,-1 -3.99002,0 -3.99002,-3 -5.98504,-0.5 -16.95761,0.5 -16.9221,-2.5 h -6.02177 c -0.99628,0 -1.99379,0.5 -1.99379,1.5 z"
       style="color:#1e92ff;fill:#3b445f;fill-opacity:1;fill-rule:nonzero;stroke:none;stroke-width:5.24924"
       class="ColorScheme-ButtonFocus"
       sodipodi:nodetypes="cccccccccc" />
    <path
       d="m 413.53095,523.00324 h -1.59567 v -0.5905 c 0,-1.02553 -0.44893,-1.531 -0.82558,-1.77469 -0.4039,-0.26114 -0.80051,-0.27447 -0.87629,-0.27447 h -14.01924 c -0.30024,0 -0.5824,-0.3173 -0.88105,-0.65333 -0.38013,-0.42773 -0.811,-0.91225 -1.46505,-0.91225 h -6.25617 c -1.16322,0 -2.04047,0.87766 -2.04047,2.04154 v 21.91692 c 0,1.1258 0.91529,2.04154 2.04047,2.04154 h 25.91905 c 1.12518,0 2.04048,-0.91575 2.04048,-2.04154 v -17.71167 c 0,-1.1258 -0.9153,-2.04155 -2.04048,-2.04155 z m 1.08936,19.75322 c 0,0.60097 -0.48857,1.08962 -1.08936,1.08962 H 387.6119 c -0.60079,0 -1.08935,-0.48865 -1.08935,-1.08962 v -21.91692 c 0,-0.64127 0.44798,-1.08963 1.08935,-1.08963 h 6.25617 c 0.22732,0 0.48349,0.28812 0.75456,0.59305 0.3852,0.43312 0.86457,0.97222 1.59154,0.97222 h 14.01353 c 0.14362,0.004 0.55102,0.0666 0.70066,0.62128 h -21.82601 c -1.21273,0.025 -1.8468,0.65968 -1.8468,1.9289 l 0.0558,17.4518 h 0.57827 c 0,0 -0.12,0.001 4.9e-4,0.001 0.18706,0 0.48238,0.0367 0.7582,-0.17942 0.49554,-0.38902 0.51646,-0.89322 0.51203,-1.03125 l -0.002,-14.3384 c 0,-1.90384 0,-1.90384 1.90225,-1.90384 l 22.47123,0.0898 c 0.60078,0.002 1.08935,0.48897 1.08935,1.08963 v 17.71166 z"
       id="path2-3-3-2-3-6-7"
       sodipodi:nodetypes="scscsscssssssssscsssssscsccccccsccccsscc"
       style="fill:url(#linearGradient2671);fill-opacity:1;stroke-width:0.317173" />
    <path
       id="Trophy-8-7"
       class="st0"
       d="m 403.40185,529.298 h 6.73317 v 0.75 h 0.74813 v 0.75 h -0.74813 v 3.75 c 0,1.65 -1.34663,3 -2.99252,3 h -0.74813 c -1.64588,0 -2.99252,-1.35 -2.99252,-3 z m 3.36659,2.0625 0.41147,1.29375 h 1.36534 l -1.1035,0.80625 0.41148,1.29375 -1.08479,-0.80625 -1.10349,0.80625 0.41147,-1.29375 -1.10349,-0.80625 h 1.36533 z m -2.24439,9.1875 h -0.74813 v 0.75 h 5.98504 v -0.75 h -0.74813 v -0.75 h -4.48878 z"
       style="clip-rule:evenodd;fill:url(#linearGradient1141);fill-opacity:1;fill-rule:evenodd;stroke-width:0.187266" />
    <path
       id="Trophy-s-7-5"
       class="st1"
       d="m 402.27966,530.048 h 1.12219 v 0.75 h -1.12219 v 2.625 c 0,0.61875 0.50499,1.125 1.12219,1.125 0,0.2625 0.0374,0.50625 0.0935,0.75 h -0.0935 c -1.02867,0 -1.87032,-0.84375 -1.87032,-1.875 v -2.625 c 0,-0.4125 0.33666,-0.75 0.74813,-0.75 z m 7.10723,0 v 4.875 c 0,1.44375 -1.1783,2.625 -2.61845,2.625 h -0.37407 v 1.5 c 0,0.825 0.67332,1.5 1.49626,1.5 h 1.1222 v -0.75 h -1.1222 c -0.41147,0 -0.74813,-0.3375 -0.74813,-0.75 v -0.76875 c 1.55237,-0.16875 2.80549,-1.425 2.97382,-2.98125 h 0.0187 c 1.02868,0 1.87033,-0.84375 1.87033,-1.875 v -2.625 c 0,-0.4125 -0.33666,-0.75 -0.74813,-0.75 h -0.37407 v 0.75 h 0.37407 v 2.625 c 0,0.61875 -0.50499,1.125 -1.1222,1.125 v -4.5 z"
       style="fill:#f3f3f3;fill-opacity:1;stroke-width:0.187266" />
  </g>
</svg>
