<?xml version="1.0" encoding="UTF-8" standalone="no"?>
<svg
   width="32"
   version="1.1"
   height="32"
   viewBox="0 0 32 32"
   id="svg15"
   sodipodi:docname="folder-drawing.svg"
   inkscape:version="1.1.2 (0a00cf5339, 2022-02-04)"
   xmlns:inkscape="http://www.inkscape.org/namespaces/inkscape"
   xmlns:sodipodi="http://sodipodi.sourceforge.net/DTD/sodipodi-0.dtd"
   xmlns:xlink="http://www.w3.org/1999/xlink"
   xmlns="http://www.w3.org/2000/svg"
   xmlns:svg="http://www.w3.org/2000/svg"
   xmlns:rdf="http://www.w3.org/1999/02/22-rdf-syntax-ns#"
   xmlns:cc="http://creativecommons.org/ns#"
   xmlns:dc="http://purl.org/dc/elements/1.1/">
  <sodipodi:namedview
     pagecolor="#ffffff"
     bordercolor="#666666"
     borderopacity="1"
     objecttolerance="10"
     gridtolerance="10"
     guidetolerance="10"
     inkscape:pageopacity="0"
     inkscape:pageshadow="2"
     inkscape:window-width="1920"
     inkscape:window-height="1007"
     id="namedview17"
     showgrid="true"
     inkscape:zoom="9.8125"
     inkscape:cx="1.477707"
     inkscape:cy="18.140127"
     inkscape:window-x="0"
     inkscape:window-y="0"
     inkscape:window-maximized="1"
     inkscape:current-layer="g4"
     inkscape:pagecheckerboard="0">
    <inkscape:grid
       type="xygrid"
       id="grid862" />
  </sodipodi:namedview>
  <defs
     id="defs5455">
    <linearGradient
       inkscape:collect="always"
       id="linearGradient911">
      <stop
         style="stop-color:#ffff00;stop-opacity:1"
         offset="0"
         id="stop907" />
      <stop
         style="stop-color:#ffb380;stop-opacity:1"
         offset="1"
         id="stop909" />
    </linearGradient>
    <linearGradient
       inkscape:collect="always"
       xlink:href="#linearGradient2669"
       id="linearGradient2671"
       x1="386.57144"
       y1="515.79797"
       x2="446.72144"
       y2="515.79797"
       gradientUnits="userSpaceOnUse"
       gradientTransform="matrix(1.3848926,0,0,1.3461638,-463.8523,330.1243)" />
    <linearGradient
       inkscape:collect="always"
       id="linearGradient2669">
      <stop
         style="stop-color:#5599ff;stop-opacity:1;"
         offset="0"
         id="stop2665" />
      <stop
         style="stop-color:#80e5ff;stop-opacity:1"
         offset="1"
         id="stop2667" />
    </linearGradient>
    <linearGradient
       inkscape:collect="always"
       xlink:href="#linearGradient911"
       id="linearGradient1031"
       gradientUnits="userSpaceOnUse"
       gradientTransform="matrix(1.3848926,0,0,1.3461638,-465.09869,331.47046)"
       x1="424.57144"
       y1="523.25153"
       x2="440.57144"
       y2="523.25153" />
  </defs>
  <metadata
     id="metadata5458">
    <rdf:RDF>
      <cc:Work
         rdf:about="">
        <dc:format>image/svg+xml</dc:format>
        <dc:type
           rdf:resource="http://purl.org/dc/dcmitype/StillImage" />
      </cc:Work>
    </rdf:RDF>
  </metadata>
  <g
     inkscape:label="Capa 1"
     inkscape:groupmode="layer"
     id="layer1"
     transform="translate(-384.57143,-515.798)">
    <g
       transform="matrix(0.36013848,0,0,0.37142583,359.81878,151.2823)"
       id="g4">
      <path
         inkscape:connector-curvature="0"
         id="fill"
         d="m 72.892525,993.51115 v 60.57735 c 0.150649,2.0345 1.384892,4.0385 5.410027,4.0385 h 69.000978 c 4.52787,0 6.07147,-0.6718 5.91276,-5.3846 v -48.4619 c -1.38489,-2.6924 -11.07914,0 -11.07914,-8.07703 -16.61871,-1.34616 -47.086344,1.34617 -46.987725,-6.73082 H 78.428702 c -2.766392,0 -5.536177,1.34617 -5.536177,4.0385 z"
         style="color:#1e92ff;fill:#3b445f;fill-opacity:1;fill-rule:nonzero;stroke:none;stroke-width:14.3524"
         class="ColorScheme-ButtonFocus"
         sodipodi:nodetypes="cccccccccc" />
      <path
         d="m 149.1431,1000.7945 h -4.4307 v -1.58978 c 0,-2.76106 -1.24654,-4.12194 -2.29239,-4.77803 -1.12152,-0.70309 -2.22282,-0.73897 -2.43322,-0.73897 h -38.92734 c -0.83368,0 -1.617163,-0.85429 -2.446436,-1.75898 -1.055524,-1.15159 -2.251892,-2.45609 -4.068011,-2.45609 H 77.173435 c -3.229929,0 -5.665803,2.36297 -5.665803,5.49651 v 59.00754 c 0,3.031 2.541514,5.4965 5.665803,5.4965 H 149.1431 c 3.1243,0 5.66582,-2.4655 5.66582,-5.4965 v -47.6856 c 0,-3.0311 -2.54152,-5.4966 -5.66582,-5.4966 z m 3.02483,53.1822 c 0,1.618 -1.3566,2.9336 -3.02483,2.9336 H 77.173435 c -1.668213,0 -3.024813,-1.3156 -3.024813,-2.9336 v -59.00754 c 0,-1.72652 1.243912,-2.93364 3.024813,-2.93364 h 17.371568 c 0.631192,0 1.342515,0.7757 2.09519,1.59667 1.069594,1.1661 2.400655,2.61755 4.419257,2.61755 h 38.91148 c 0.39879,0.0108 1.53003,0.17939 1.94554,1.67269 H 81.31198 c -3.367381,0.0674 -5.128036,1.77608 -5.128036,5.19327 l 0.154942,46.9859 h 1.605713 c 0,0 -0.333205,0 0.0014,0 0.519389,0 1.339412,0.099 2.1053,-0.483 1.37596,-1.0474 1.434055,-2.4049 1.421744,-2.7765 l -0.0069,-38.6037 c 0,-5.1257 0,-5.1257 5.28198,-5.1257 l 62.396087,0.2417 c 1.6682,0.01 3.02481,1.3165 3.02481,2.9337 v 47.6856 z"
         id="path2-3-3-2-3-6-7"
         sodipodi:nodetypes="scscsscssssssssscsssssscsccccccsccccsscc"
         style="fill:url(#linearGradient2671);fill-opacity:1;stroke-width:0.867212" />
      <path
         style="color:#232629;fill:url(#linearGradient1031);fill-opacity:1;stroke:none;stroke-width:1.36538"
         d="m 124.27203,1021.7806 v 4.0385 h 1.3849 v 6.8075 a 3.4622315,3.3654096 0 0 0 -2.76979,3.2308 3.4622315,3.3654096 0 0 0 2.76979,3.2308 v 6.7981 h -1.3849 v 4.0385 h 4.15468 v -4.0385 h -1.38489 v -4.7115 a 18.003603,14.13472 0 0 0 16.61871,8.75 18.003603,14.13472 0 0 0 1.38489,-0.055 v -1.1657 a 16.618711,12.788556 0 0 1 -1.38489,0 16.618711,12.788556 0 0 1 -16.06475,-9.6924 3.4622315,3.3654096 0 0 0 2.21583,-3.0962 3.4622315,3.3654096 0 0 0 -2.21583,-3.1538 16.618711,12.788556 0 0 1 16.06475,-9.6347 16.618711,12.788556 0 0 1 1.38489,0.053 v -1.3596 a 18.003603,14.13472 0 0 0 -1.38489,0 18.003603,14.13472 0 0 0 -16.61871,8.75 v -4.7277 h 1.38489 v -4.0385 z m 1.3849,1.3462 h 1.38489 v 1.3461 h -1.38489 z m 0.69244,10.7693 a 2.0773389,2.0192457 0 0 1 2.07734,2.0192 2.0773389,2.0192457 0 0 1 -2.07734,2.0193 2.0773389,2.0192457 0 0 1 -2.07734,-2.0193 2.0773389,2.0192457 0 0 1 2.07734,-2.0192 m -0.69244,13.4616 h 1.38489 v 1.3462 h -1.38489 z"
         class="ColorScheme-Text"
         id="path12-7-7" />
    </g>
  </g>
</svg>
