<?xml version="1.0" encoding="UTF-8" standalone="no"?>
<svg
   width="32"
   version="1.1"
   height="32"
   viewBox="0 0 32 32"
   id="svg15"
   sodipodi:docname="folder-blender.svg"
   inkscape:version="1.1.2 (0a00cf5339, 2022-02-04)"
   xmlns:inkscape="http://www.inkscape.org/namespaces/inkscape"
   xmlns:sodipodi="http://sodipodi.sourceforge.net/DTD/sodipodi-0.dtd"
   xmlns:xlink="http://www.w3.org/1999/xlink"
   xmlns="http://www.w3.org/2000/svg"
   xmlns:svg="http://www.w3.org/2000/svg"
   xmlns:rdf="http://www.w3.org/1999/02/22-rdf-syntax-ns#"
   xmlns:cc="http://creativecommons.org/ns#"
   xmlns:dc="http://purl.org/dc/elements/1.1/">
  <sodipodi:namedview
     pagecolor="#ffffff"
     bordercolor="#666666"
     borderopacity="1"
     objecttolerance="10"
     gridtolerance="10"
     guidetolerance="10"
     inkscape:pageopacity="0"
     inkscape:pageshadow="2"
     inkscape:window-width="1920"
     inkscape:window-height="1007"
     id="namedview17"
     showgrid="true"
     inkscape:zoom="9.8125"
     inkscape:cx="-24.611465"
     inkscape:cy="1.8343949"
     inkscape:window-x="0"
     inkscape:window-y="0"
     inkscape:window-maximized="1"
     inkscape:current-layer="g4"
     inkscape:pagecheckerboard="0">
    <inkscape:grid
       type="xygrid"
       id="grid862" />
  </sodipodi:namedview>
  <defs
     id="defs5455">
    <linearGradient
       inkscape:collect="always"
       id="linearGradient954">
      <stop
         style="stop-color:#00ccff;stop-opacity:1"
         offset="0"
         id="stop950" />
      <stop
         style="stop-color:#8787de;stop-opacity:1"
         offset="1"
         id="stop952" />
    </linearGradient>
    <linearGradient
       inkscape:collect="always"
       xlink:href="#linearGradient2669"
       id="linearGradient2671"
       x1="386.57144"
       y1="515.79797"
       x2="446.72144"
       y2="515.79797"
       gradientUnits="userSpaceOnUse"
       gradientTransform="matrix(1.3848926,0,0,1.3461629,-463.85229,330.12472)" />
    <linearGradient
       inkscape:collect="always"
       id="linearGradient2669">
      <stop
         style="stop-color:#5599ff;stop-opacity:1;"
         offset="0"
         id="stop2665" />
      <stop
         style="stop-color:#80e5ff;stop-opacity:1"
         offset="1"
         id="stop2667" />
    </linearGradient>
    <linearGradient
       inkscape:collect="always"
       xlink:href="#linearGradient954"
       id="linearGradient1031"
       gradientUnits="userSpaceOnUse"
       gradientTransform="matrix(1.3848926,0,0,1.3461629,-463.85229,331.47089)"
       x1="415.57144"
       y1="521.79797"
       x2="439.57162"
       y2="521.79797" />
  </defs>
  <metadata
     id="metadata5458">
    <rdf:RDF>
      <cc:Work
         rdf:about="">
        <dc:format>image/svg+xml</dc:format>
        <dc:type
           rdf:resource="http://purl.org/dc/dcmitype/StillImage" />
      </cc:Work>
    </rdf:RDF>
  </metadata>
  <g
     inkscape:label="Capa 1"
     inkscape:groupmode="layer"
     id="layer1"
     transform="translate(-384.57143,-515.798)">
    <g
       transform="matrix(0.36013848,0,0,0.37142583,359.81878,151.2823)"
       id="g4">
      <path
         inkscape:connector-curvature="0"
         id="fill"
         d="m 72.892522,993.51114 v 60.57736 c 0.15065,2.0345 1.3849,4.0385 5.41002,4.0385 h 69.000988 c 4.52787,0 6.07147,-0.6717 5.91276,-5.3846 v -48.4619 c -1.38489,-2.6923 -11.07914,0 -11.07914,-8.07703 -16.61871,-1.34617 -47.086344,1.34616 -46.987726,-6.73082 H 78.428702 c -2.7664,0 -5.53618,1.34616 -5.53618,4.03849 z"
         style="color:#1e92ff;fill:#3b445f;fill-opacity:1;fill-rule:nonzero;stroke:none;stroke-width:14.3524"
         class="ColorScheme-ButtonFocus"
         sodipodi:nodetypes="cccccccccc" />
      <path
         d="m 149.1431,1000.7946 h -4.4307 v -1.58989 c 0,-2.76106 -1.24654,-4.12194 -2.29239,-4.77803 -1.12152,-0.70309 -2.22282,-0.73896 -2.43322,-0.73896 h -38.92734 c -0.83368,0 -1.617169,-0.85429 -2.446438,-1.75898 -1.055523,-1.15159 -2.25189,-2.45609 -4.06801,-2.45609 h -17.37156 c -3.22994,0 -5.66581,2.36296 -5.66581,5.49651 v 59.00754 c 0,3.031 2.54151,5.4965 5.66581,5.4965 H 149.1431 c 3.1243,0 5.66582,-2.4655 5.66582,-5.4965 v -47.6856 c 0,-3.031 -2.54152,-5.4965 -5.66582,-5.4965 z m 3.02483,53.1821 c 0,1.618 -1.3566,2.9336 -3.02483,2.9336 H 77.173442 c -1.66822,0 -3.02482,-1.3156 -3.02482,-2.9336 v -59.00754 c 0,-1.72653 1.24391,-2.93364 3.02482,-2.93364 h 17.37156 c 0.631192,0 1.342514,0.7757 2.09519,1.59667 1.069594,1.1661 2.400656,2.61755 4.419258,2.61755 h 38.91148 c 0.39879,0.0108 1.53003,0.17939 1.94554,1.67269 H 81.311972 c -3.36737,0.0674 -5.12803,1.77603 -5.12803,5.19327 l 0.15494,46.9859 h 1.60572 c 0,0 -0.33321,0 10e-4,0 0.51939,0 1.33941,0.099 2.10529,-0.483 1.37597,-1.0474 1.43406,-2.4048 1.42175,-2.7765 l -0.007,-38.6037 c 0,-5.1257 0,-5.1257 5.28197,-5.1257 l 62.396088,0.2418 c 1.6682,0.01 3.02482,1.3164 3.02482,2.9336 v 47.6856 z"
         id="path2-3-3-2-3-6-7"
         sodipodi:nodetypes="scscsscssssssssscsssssscsccccccsccccsscc"
         style="fill:url(#linearGradient2671);fill-opacity:1;stroke-width:0.867212" />
      <path
         style="color:#232629;fill:url(#linearGradient1031);fill-opacity:1;stroke:none;stroke-width:1.48964"
         d="m 127.7218,1017.7421 a 2.2661884,2.2028127 0 0 0 -2.26624,2.2029 2.2661884,2.2028127 0 0 0 0.71766,1.4684 h -0.15124 l 5.2878,5.1399 h -17.37403 a 2.2661884,2.2028127 0 0 0 -2.26624,2.2029 2.2661884,2.2028127 0 0 0 2.26624,2.2028 h 8.30936 l -9.66905,9.3987 a 2.2661884,2.2028127 0 0 0 -0.90655,1.7621 2.2661884,2.2028127 0 0 0 2.26624,2.2029 2.2661884,2.2028127 0 0 0 1.66187,-0.7342 c 0,0 0,0 0,0 l 5.13657,-4.9929 a 12.086331,11.748328 0 0 0 12.08651,11.4545 12.086331,11.748328 0 0 0 12.08623,-11.7483 12.086331,11.748328 0 0 0 -4.53247,-9.2519 l -11.02873,-10.5736 a 2.2661884,2.2028127 0 0 0 -1.62393,-0.7342 z m 5.0989,13.2169 a 7.5539576,7.342705 0 0 1 4.5322,1.4684 l 1.35969,1.3219 v 0 a 7.5539576,7.342705 0 0 1 1.66187,4.5525 7.5539576,7.342705 0 0 1 -7.55376,7.3425 7.5539576,7.342705 0 0 1 -7.55404,-7.3425 7.5539576,7.342705 0 0 1 7.55404,-7.3428 z m 0,4.4058 a 3.0215836,2.9370826 0 0 0 -3.02156,2.937 3.0215836,2.9370826 0 0 0 3.02156,2.9371 3.0215836,2.9370826 0 0 0 3.02156,-2.9371 3.0215836,2.9370826 0 0 0 -3.02156,-2.937 z"
         class="ColorScheme-Text"
         id="path12-7-7" />
    </g>
  </g>
</svg>
