<?xml version="1.0" encoding="UTF-8" standalone="no"?>
<svg
   width="32"
   version="1.1"
   height="32"
   viewBox="0 0 32 32"
   id="svg15"
   sodipodi:docname="folder-notes.svg"
   inkscape:version="1.1.2 (0a00cf5339, 2022-02-04)"
   xmlns:inkscape="http://www.inkscape.org/namespaces/inkscape"
   xmlns:sodipodi="http://sodipodi.sourceforge.net/DTD/sodipodi-0.dtd"
   xmlns:xlink="http://www.w3.org/1999/xlink"
   xmlns="http://www.w3.org/2000/svg"
   xmlns:svg="http://www.w3.org/2000/svg"
   xmlns:rdf="http://www.w3.org/1999/02/22-rdf-syntax-ns#"
   xmlns:cc="http://creativecommons.org/ns#"
   xmlns:dc="http://purl.org/dc/elements/1.1/">
  <sodipodi:namedview
     pagecolor="#ffffff"
     bordercolor="#666666"
     borderopacity="1"
     objecttolerance="10"
     gridtolerance="10"
     guidetolerance="10"
     inkscape:pageopacity="0"
     inkscape:pageshadow="2"
     inkscape:window-width="1920"
     inkscape:window-height="1007"
     id="namedview17"
     showgrid="true"
     inkscape:zoom="9.8125"
     inkscape:cx="1.477707"
     inkscape:cy="18.140127"
     inkscape:window-x="0"
     inkscape:window-y="0"
     inkscape:window-maximized="1"
     inkscape:current-layer="g4"
     inkscape:pagecheckerboard="0">
    <inkscape:grid
       type="xygrid"
       id="grid862" />
  </sodipodi:namedview>
  <defs
     id="defs5455">
    <linearGradient
       inkscape:collect="always"
       id="linearGradient990">
      <stop
         style="stop-color:#37c871;stop-opacity:1"
         offset="0"
         id="stop986" />
      <stop
         style="stop-color:#5f8dd3;stop-opacity:1"
         offset="1"
         id="stop988" />
    </linearGradient>
    <linearGradient
       inkscape:collect="always"
       xlink:href="#linearGradient2669"
       id="linearGradient2671"
       x1="386.57144"
       y1="515.79797"
       x2="446.72144"
       y2="515.79797"
       gradientUnits="userSpaceOnUse"
       gradientTransform="matrix(1.3848926,0,0,1.3461641,-463.85227,330.12416)" />
    <linearGradient
       inkscape:collect="always"
       id="linearGradient2669">
      <stop
         style="stop-color:#5599ff;stop-opacity:1;"
         offset="0"
         id="stop2665" />
      <stop
         style="stop-color:#80e5ff;stop-opacity:1"
         offset="1"
         id="stop2667" />
    </linearGradient>
    <linearGradient
       inkscape:collect="always"
       xlink:href="#linearGradient990"
       id="linearGradient1137"
       gradientUnits="userSpaceOnUse"
       gradientTransform="matrix(1.3848926,0,0,1.3461641,-465.23716,331.47033)"
       x1="418.07144"
       y1="521.79797"
       x2="439.07144"
       y2="521.79797" />
  </defs>
  <metadata
     id="metadata5458">
    <rdf:RDF>
      <cc:Work
         rdf:about="">
        <dc:format>image/svg+xml</dc:format>
        <dc:type
           rdf:resource="http://purl.org/dc/dcmitype/StillImage" />
      </cc:Work>
    </rdf:RDF>
  </metadata>
  <g
     inkscape:label="Capa 1"
     inkscape:groupmode="layer"
     id="layer1"
     transform="translate(-384.57143,-515.798)">
    <g
       transform="matrix(0.36013848,0,0,0.37142583,359.81878,151.2823)"
       id="g4">
      <path
         inkscape:connector-curvature="0"
         id="fill"
         d="m 72.892524,993.51115 v 60.57735 c 0.15065,2.0345 1.384894,4.0385 5.410028,4.0385 h 69.000988 c 4.52787,0 6.07147,-0.6718 5.91276,-5.3847 v -48.4618 c -1.38489,-2.6924 -11.07914,0 -11.07914,-8.07703 -16.61871,-1.34616 -47.086354,1.34617 -46.987735,-6.73082 H 78.428703 c -2.766393,0 -5.536179,1.34617 -5.536179,4.0385 z"
         style="color:#1e92ff;fill:#3b445f;fill-opacity:1;fill-rule:nonzero;stroke:none;stroke-width:14.3525"
         class="ColorScheme-ButtonFocus"
         sodipodi:nodetypes="cccccccccc" />
      <path
         d="m 149.14311,1000.7945 h -4.4307 v -1.58978 c 0,-2.76106 -1.24654,-4.12194 -2.29239,-4.77803 -1.12152,-0.70309 -2.22282,-0.73897 -2.43322,-0.73897 h -38.92734 c -0.83368,0 -1.617169,-0.85429 -2.446447,-1.75898 -1.055523,-1.15159 -2.251891,-2.45609 -4.068011,-2.45609 H 77.173435 c -3.229929,0 -5.665803,2.36297 -5.665803,5.49651 v 59.00744 c 0,3.0311 2.541514,5.4965 5.665803,5.4965 h 71.969675 c 3.1243,0 5.66582,-2.4654 5.66582,-5.4965 v -47.6855 c 0,-3.0311 -2.54152,-5.4966 -5.66582,-5.4966 z m 3.02483,53.1821 c 0,1.6181 -1.3566,2.9337 -3.02483,2.9337 H 77.173435 c -1.668214,0 -3.024812,-1.3156 -3.024812,-2.9337 v -59.00744 c 0,-1.72652 1.24391,-2.93364 3.024812,-2.93364 h 17.371567 c 0.631193,0 1.342515,0.7757 2.09519,1.59667 1.069594,1.1661 2.400658,2.61755 4.419268,2.61755 h 38.91148 c 0.39879,0.0107 1.53003,0.17939 1.94554,1.67269 h -60.6045 c -3.367381,0.0674 -5.128036,1.77608 -5.128036,5.19327 l 0.154942,46.9859 h 1.605713 c 0,0 -0.333205,0 0.0014,0 0.519391,0 1.339413,0.099 2.105301,-0.4831 1.375959,-1.0473 1.434055,-2.4048 1.421744,-2.7764 l -0.0069,-38.6037 c 0,-5.1257 0,-5.1257 5.281981,-5.1257 l 62.396095,0.2417 c 1.6682,0.01 3.02481,1.3165 3.02481,2.9337 v 47.6855 z"
         id="path2-3-3-2-3-6-7"
         sodipodi:nodetypes="scscsscssssssssscsssssscsccccccsccccsscc"
         style="fill:url(#linearGradient2671);fill-opacity:1;stroke-width:0.867212" />
      <path
         id="Edit-7-7"
         class="st0"
         d="m 142.82961,1024.759 -5.14142,-4.9976 -13.55463,13.1755 -2.07734,7.0169 7.21875,-2.0192 9.39996,-9.1371 v 3.0793 l -2.07734,2.0193 v 10.0962 h -18.69605 v -18.1732 h 10.38669 l 4.15468,-4.0385 h -18.69605 v 26.2502 h 21.81206 c 2.85634,0 5.19335,-2.2717 5.19335,-5.0481 v -16.2045 z"
         style="fill:url(#linearGradient1137);fill-opacity:1;stroke-width:0.51202" />
      <path
         id="Edit-s-5-5"
         class="st1"
         d="m 143.71247,1018.1964 c 1.60994,1.565 1.60994,4.1395 0,5.7044 l -5.03754,4.8967 v -2.8774 l 3.53147,-3.4328 c 0.83094,-0.8077 0.83094,-2.0697 0,-2.8774 l -0.4674,-0.4543 1.45414,-1.4135 z m -9.19222,29.8344 H 115.8242 v 2.0192 h 18.69605 c 3.42761,0 6.23202,-2.726 6.23202,-6.0577 v -14.1347 l -2.07734,2.0192 v 12.1155 c 0,2.2211 -1.86961,4.0385 -4.15468,4.0385 z m -9.34803,-8.9352 -2.23313,-2.1706 -0.88287,3.0288 z"
         style="fill:#f0f0f0;fill-opacity:1;stroke-width:0.51202" />
    </g>
  </g>
</svg>
