<?xml version="1.0" encoding="UTF-8" standalone="no"?>
<svg
   width="32"
   version="1.1"
   height="32"
   viewBox="0 0 32 32"
   id="svg17"
   sodipodi:docname="folder-text.svg"
   inkscape:version="1.1.2 (0a00cf5339, 2022-02-04)"
   xmlns:inkscape="http://www.inkscape.org/namespaces/inkscape"
   xmlns:sodipodi="http://sodipodi.sourceforge.net/DTD/sodipodi-0.dtd"
   xmlns:xlink="http://www.w3.org/1999/xlink"
   xmlns="http://www.w3.org/2000/svg"
   xmlns:svg="http://www.w3.org/2000/svg"
   xmlns:rdf="http://www.w3.org/1999/02/22-rdf-syntax-ns#"
   xmlns:cc="http://creativecommons.org/ns#"
   xmlns:dc="http://purl.org/dc/elements/1.1/">
  <sodipodi:namedview
     pagecolor="#ffffff"
     bordercolor="#666666"
     borderopacity="1"
     objecttolerance="10"
     gridtolerance="10"
     guidetolerance="10"
     inkscape:pageopacity="0"
     inkscape:pageshadow="2"
     inkscape:window-width="1920"
     inkscape:window-height="1007"
     id="namedview19"
     showgrid="false"
     inkscape:zoom="9.8125"
     inkscape:cx="-19.10828"
     inkscape:cy="-0.61146497"
     inkscape:window-x="0"
     inkscape:window-y="0"
     inkscape:window-maximized="1"
     inkscape:current-layer="layer1"
     inkscape:pagecheckerboard="0" />
  <defs
     id="defs5455">
    <linearGradient
       inkscape:collect="always"
       id="linearGradient977">
      <stop
         style="stop-color:#ffff67;stop-opacity:1"
         offset="0"
         id="stop973" />
      <stop
         style="stop-color:#ff31ff;stop-opacity:1"
         offset="1"
         id="stop975" />
    </linearGradient>
    <linearGradient
       inkscape:collect="always"
       xlink:href="#linearGradient2669"
       id="linearGradient2671"
       x1="386.57144"
       y1="515.79797"
       x2="446.72144"
       y2="515.79797"
       gradientUnits="userSpaceOnUse"
       gradientTransform="matrix(0.49875312,0,0,0.5,192.76773,273.899)" />
    <linearGradient
       inkscape:collect="always"
       id="linearGradient2669">
      <stop
         style="stop-color:#5599ff;stop-opacity:1;"
         offset="0"
         id="stop2665" />
      <stop
         style="stop-color:#80e5ff;stop-opacity:1"
         offset="1"
         id="stop2667" />
    </linearGradient>
    <linearGradient
       inkscape:collect="always"
       xlink:href="#linearGradient977"
       id="linearGradient1136"
       gradientUnits="userSpaceOnUse"
       gradientTransform="matrix(0.49875312,0,0,0.5,192.70341,273.899)"
       x1="417.20038"
       y1="521.94086"
       x2="439.5"
       y2="521.94086" />
  </defs>
  <metadata
     id="metadata5458">
    <rdf:RDF>
      <cc:Work
         rdf:about="">
        <dc:format>image/svg+xml</dc:format>
        <dc:type
           rdf:resource="http://purl.org/dc/dcmitype/StillImage" />
      </cc:Work>
    </rdf:RDF>
  </metadata>
  <g
     inkscape:label="Capa 1"
     inkscape:groupmode="layer"
     id="layer1"
     transform="translate(-384.57143,-515.798)">
    <path
       inkscape:connector-curvature="0"
       id="fill"
       d="m 386.07018,520.298 v 22.5 c 0.0543,0.75565 0.49876,1.5 1.94836,1.5 h 24.84991 c 1.63066,0 2.18657,-0.24951 2.12941,-2 v -18 c -0.49875,-1 -3.99002,0 -3.99002,-3 -5.98504,-0.5 -16.95761,0.5 -16.92209,-2.5 h -6.02178 c -0.99628,0 -1.99379,0.5 -1.99379,1.5 z"
       style="color:#1e92ff;fill:#3b445f;fill-opacity:1;fill-rule:nonzero;stroke:none;stroke-width:5.24924"
       class="ColorScheme-ButtonFocus"
       sodipodi:nodetypes="cccccccccc" />
    <path
       d="m 413.53095,523.00325 h -1.59566 v -0.59051 c 0,-1.02553 -0.44893,-1.53099 -0.82559,-1.77468 -0.4039,-0.26115 -0.80051,-0.27448 -0.87628,-0.27448 h -14.01925 c -0.30024,0 -0.58239,-0.3173 -0.88105,-0.65333 -0.38013,-0.42773 -0.811,-0.91225 -1.46505,-0.91225 h -6.25617 c -1.16321,0 -2.04047,0.87767 -2.04047,2.04155 v 21.9169 c 0,1.12581 0.9153,2.04155 2.04047,2.04155 h 25.91905 c 1.12518,0 2.04048,-0.91574 2.04048,-2.04155 v -17.71166 c 0,-1.1258 -0.9153,-2.04155 -2.04048,-2.04154 z m 1.08936,19.7532 c 0,0.60099 -0.48856,1.08964 -1.08936,1.08964 H 387.6119 c -0.60079,0 -1.08935,-0.48865 -1.08935,-1.08964 v -21.9169 c 0,-0.64128 0.44798,-1.08963 1.08935,-1.08963 h 6.25617 c 0.22732,0 0.4835,0.28811 0.75456,0.59304 0.38521,0.43312 0.86457,0.97223 1.59154,0.97223 h 14.01353 c 0.14362,0.004 0.55102,0.0666 0.70067,0.62128 h -21.82602 c -1.21272,0.0251 -1.8468,0.65968 -1.8468,1.9289 l 0.0558,17.45179 h 0.57828 c 0,0 -0.12,0.001 4.8e-4,0.001 0.18706,0 0.48238,0.0366 0.75821,-0.17942 0.49553,-0.38901 0.51646,-0.89321 0.51202,-1.03124 l -0.002,-14.33841 c 0,-1.90383 0,-1.90383 1.90225,-1.90383 l 22.47123,0.0898 c 0.60079,0.002 1.08936,0.48896 1.08936,1.08962 v 17.71167 z"
       id="path2-3-3-2-3-6-7"
       sodipodi:nodetypes="scscsscssssssssscsssssscsccccccsccccsscc"
       style="fill:url(#linearGradient2671);fill-opacity:1;stroke-width:0.317173" />
    <path
       id="Newspaper-8-7"
       class="st0"
       d="m 409.76789,537.86943 h -7.26754 v 0.85714 h 7.26754 z m -7.26754,-1.71429 h 2.99252 v 0.85714 h -2.99252 z m 0,-1.71429 h 2.99252 v 0.85715 h -2.99252 z m 3.84752,0 h 3.42002 v 2.57143 h -3.42002 z m 3.42002,-3.42857 h -7.26755 v 1.71429 h 7.26755 z m 2.13751,-1.71428 h -11.11507 v 10.28572 c 0,0.47143 -0.007,0.85714 -0.007,0.85714 h 8.98447 c 1.17563,0 2.13752,-0.96429 2.13752,-2.14286 z"
       style="clip-rule:evenodd;fill:url(#linearGradient1136);fill-opacity:1;fill-rule:evenodd;stroke-width:0.214018"
       sodipodi:nodetypes="cccccccccccccccccccccccccccscssc" />
    <path
       id="Newspaper-s-7-5"
       class="st1"
       d="m 411.9054,530.15514 v 8.57143 c 0,1.41429 -1.15425,2.57143 -2.56501,2.57143 h -6.84004 v -0.85714 h 6.84004 c 0.94051,0 1.71001,-0.77143 1.71001,-1.71429 v -8.57143 z m -9.40505,10.28572 z"
       style="fill:#f1f1f1;fill-opacity:1;stroke-width:0.214018"
       sodipodi:nodetypes="cssccssccccccccccccc" />
  </g>
</svg>
