<?xml version="1.0" encoding="UTF-8" standalone="no"?>
<svg
   width="32"
   version="1.1"
   height="32"
   viewBox="0 0 32 32"
   id="svg15"
   sodipodi:docname="folder-Pop_OS.svg"
   inkscape:version="1.1.2 (0a00cf5339, 2022-02-04)"
   xmlns:inkscape="http://www.inkscape.org/namespaces/inkscape"
   xmlns:sodipodi="http://sodipodi.sourceforge.net/DTD/sodipodi-0.dtd"
   xmlns:xlink="http://www.w3.org/1999/xlink"
   xmlns="http://www.w3.org/2000/svg"
   xmlns:svg="http://www.w3.org/2000/svg"
   xmlns:rdf="http://www.w3.org/1999/02/22-rdf-syntax-ns#"
   xmlns:cc="http://creativecommons.org/ns#"
   xmlns:dc="http://purl.org/dc/elements/1.1/">
  <sodipodi:namedview
     pagecolor="#ffffff"
     bordercolor="#666666"
     borderopacity="1"
     objecttolerance="10"
     gridtolerance="10"
     guidetolerance="10"
     inkscape:pageopacity="0"
     inkscape:pageshadow="2"
     inkscape:window-width="1920"
     inkscape:window-height="1007"
     id="namedview17"
     showgrid="false"
     inkscape:zoom="9.8125"
     inkscape:cx="-16.050955"
     inkscape:cy="8.6624204"
     inkscape:window-x="0"
     inkscape:window-y="0"
     inkscape:window-maximized="1"
     inkscape:current-layer="layer1"
     inkscape:document-rotation="0"
     inkscape:pagecheckerboard="0" />
  <defs
     id="defs5455">
    <linearGradient
       inkscape:collect="always"
       xlink:href="#linearGradient2669"
       id="linearGradient2671"
       x1="386.57144"
       y1="515.79797"
       x2="446.72144"
       y2="515.79797"
       gradientUnits="userSpaceOnUse"
       gradientTransform="matrix(0.49875312,0,0,0.50000005,192.76773,273.89898)" />
    <linearGradient
       inkscape:collect="always"
       id="linearGradient2669">
      <stop
         style="stop-color:#5599ff;stop-opacity:1;"
         offset="0"
         id="stop2665" />
      <stop
         style="stop-color:#80e5ff;stop-opacity:1"
         offset="1"
         id="stop2667" />
    </linearGradient>
  </defs>
  <metadata
     id="metadata5458">
    <rdf:RDF>
      <cc:Work
         rdf:about="">
        <dc:format>image/svg+xml</dc:format>
        <dc:type
           rdf:resource="http://purl.org/dc/dcmitype/StillImage" />
      </cc:Work>
    </rdf:RDF>
  </metadata>
  <g
     inkscape:label="Capa 1"
     inkscape:groupmode="layer"
     id="layer1"
     transform="translate(-384.57143,-515.798)">
    <path
       inkscape:connector-curvature="0"
       id="fill"
       d="m 386.07018,520.298 v 22.5 c 0.0543,0.75566 0.49876,1.5 1.94836,1.5 h 24.84991 c 1.63066,0 2.18657,-0.24952 2.12941,-1.99999 V 524.298 c -0.49875,-1 -3.99002,0 -3.99002,-3 -5.98504,-0.5 -16.95761,0.5 -16.92209,-2.5 h -6.02177 c -0.99629,0 -1.9938,0.5 -1.9938,1.5 z"
       style="color:#1e92ff;fill:#3b445f;fill-opacity:1;fill-rule:nonzero;stroke:none;stroke-width:5.24924"
       class="ColorScheme-ButtonFocus"
       sodipodi:nodetypes="cccccccccc" />
    <path
       d="m 413.53095,523.00324 h -1.59567 v -0.5905 c 0,-1.02554 -0.44893,-1.53101 -0.82558,-1.77469 -0.4039,-0.26115 -0.80051,-0.27447 -0.87629,-0.27447 h -14.01924 c -0.30024,0 -0.58239,-0.3173 -0.88105,-0.65333 -0.38013,-0.42773 -0.811,-0.91225 -1.46505,-0.91225 h -6.25617 c -1.16321,0 -2.04047,0.87766 -2.04047,2.04154 v 21.91691 c 0,1.1258 0.9153,2.04155 2.04047,2.04155 h 25.91905 c 1.12519,0 2.04048,-0.91575 2.04048,-2.04155 v -17.71166 c 0,-1.1258 -0.91529,-2.04155 -2.04048,-2.04155 z m 1.08936,19.75321 c 0,0.60099 -0.48857,1.08964 -1.08936,1.08964 H 387.6119 c -0.60079,0 -1.08935,-0.48865 -1.08935,-1.08964 v -21.91691 c 0,-0.64126 0.44798,-1.08962 1.08935,-1.08962 h 6.25617 c 0.22732,0 0.48349,0.28811 0.75456,0.59304 0.3852,0.43313 0.86457,0.97222 1.59154,0.97222 h 14.01353 c 0.14362,0.004 0.55102,0.0666 0.70066,0.62129 h -21.82601 c -1.21273,0.025 -1.8468,0.65967 -1.8468,1.92889 l 0.0558,17.4518 h 0.57827 c 0,0 -0.11999,9.9e-4 4.9e-4,9.9e-4 0.18706,0 0.48238,0.0366 0.7582,-0.17941 0.49554,-0.38902 0.51646,-0.89323 0.51203,-1.03126 l -0.002,-14.33839 c 0,-1.90385 0,-1.90385 1.90225,-1.90385 l 22.47123,0.0898 c 0.60078,0.002 1.08935,0.48897 1.08935,1.08963 v 17.71166 z"
       id="path2-3-3-2-3-6-7"
       sodipodi:nodetypes="scscsscssssssssscsssssscsccccccsccccsscc"
       style="fill:url(#linearGradient2671);fill-opacity:1;stroke-width:0.317173" />
    <path
       style="fill:#f2f2f2;fill-opacity:1;stroke-width:0.0141023"
       id="path2-3-3-3-3"
       d="m 410.44899,536.96396 c -0.0275,0.11276 -0.0836,0.21258 -0.18109,0.27539 -0.15335,0.0986 -0.34004,0.0699 -0.47242,-0.05 -0.124,-0.11131 -0.16583,-0.29958 -0.12683,-0.46237 0.0402,-0.16991 0.16862,-0.31974 0.33305,-0.36687 0.36647,-0.10411 0.5184,0.304 0.44729,0.60382 z m -0.22432,-1.15893 c -0.2271,-0.0929 -0.14913,-1.31304 0.0587,-2.79433 0.0587,-0.41394 0.1589,-0.60962 0.27178,-0.70956 0.16163,-0.14119 0.45565,-0.14701 0.65483,-0.11703 0.22857,0.0329 0.44737,0.14283 0.61316,0.30691 0.14634,0.14571 0.16302,0.294 0.11283,0.48678 -0.0822,0.30691 -0.22289,0.60091 -0.35812,0.88762 -0.0313,0.0698 -0.31216,0.61368 -0.3497,0.68073 -0.67581,1.2189 -0.81099,1.33733 -1.00323,1.25888 z" />
    <path
       style="fill:#48b9c7;fill-opacity:1;stroke-width:0.0141023"
       id="path4-6-6"
       d="m 405.64029,535.25551 c 0.13373,0.58529 0.1198,1.22746 0.003,1.68983 -0.10724,0.43673 -0.39846,0.82776 -0.8611,0.95905 -0.40558,0.11564 -0.87785,0.0309 -1.16776,-0.25402 -0.47653,-0.46814 -0.75521,-1.5671 -0.63121,-2.3649 0.10036,-0.64067 0.43757,-1.46144 1.17752,-1.49722 0.0482,-0.002 0.0948,-10e-4 0.14202,0.002 0.75392,0.07 1.16497,0.72084 1.33501,1.46445 z m -1.36273,1.33158 c 0.0411,0.008 0.0836,0.008 0.12534,-0.004 0.14075,-0.0408 0.22158,-0.19127 0.25917,-0.3368 0.0576,-0.22124 0.0492,-0.45958 -0.0265,-0.67654 -0.0383,-0.10991 -0.0933,-0.21695 -0.17838,-0.29688 -0.29951,-0.28113 -0.59901,0.011 -0.65065,0.34396 -0.0402,0.2598 0.0188,0.56091 0.17693,0.77075 0.0738,0.0971 0.17987,0.18121 0.29274,0.2012 z" />
    <path
       style="fill:#48b9c7;fill-opacity:1;stroke-width:0.0141023"
       id="path6-7-7"
       d="m 407.27201,536.49588 c -0.001,1.08025 0.10446,1.90663 -0.35956,2.00515 -0.37619,0.0784 -0.36362,-0.25977 -0.39296,-0.5438 -0.1114,-1.1003 -0.21312,-2.92849 -0.25639,-4.03475 0.0303,-0.47529 0.34146,-0.76642 0.66473,-0.83764 0.49885,-0.10992 1.03108,-0.0786 1.47284,0.20115 0.8737,0.55385 0.94338,1.56996 0.41387,2.39911 -0.28986,0.45243 -1.16631,0.78079 -1.54253,0.75211 z m 0.11142,-2.42199 c -0.0541,0.009 -0.14349,0.0327 -0.16861,0.0883 -0.0599,0.12701 -0.0564,0.93357 0.0492,1.27174 0.0178,0.0563 0.0534,0.10841 0.10867,0.1284 0.19787,0.0742 0.37626,-0.17415 0.45707,-0.32398 0.11286,-0.20835 0.14903,-0.45379 0.078,-0.68224 -0.067,-0.2126 -0.27448,-0.52095 -0.52389,-0.48225 z" />
    <path
       style="fill:#48b9c7;fill-opacity:1;stroke-width:0.0141023"
       id="path8-5-5"
       d="m 402.27509,534.61041 c -0.32746,0.70945 -0.87091,1.27307 -1.6233,1.55148 0.2161,0.57802 0.43607,1.14894 0.65068,1.72542 0.11991,0.31109 0.23413,0.65222 0.12956,0.95906 -0.10869,0.314 -0.5321,0.40103 -0.84014,0.0672 -0.5923,-0.64514 -2.59454,-4.7326 -2.74222,-5.03951 -0.12552,-0.26402 -0.31342,-0.54665 -0.30806,-0.85203 0.01,-0.45961 0.70388,-0.92488 1.03662,-1.16311 0.46555,-0.33268 1.00333,-0.55966 1.57886,-0.56093 0.44874,0 0.83189,0.12571 1.17194,0.34815 0.52107,0.34269 0.88346,0.88911 1.01729,1.5071 0.11692,0.54384 0.0919,1.10059 -0.0712,1.45732 m -1.5257,-0.77647 c -0.11711,-0.43519 -0.3819,-0.83622 -0.71497,-1.11735 -0.0723,-0.0612 -0.15053,-0.11863 -0.24085,-0.14989 -0.6243,-0.20986 -0.35398,0.85912 -0.25224,1.12896 0.14069,0.37815 0.35398,0.85621 0.63952,1.1416 0.0625,0.0625 0.13658,0.11855 0.2215,0.13562 0.12962,0.028 0.24941,-0.0658 0.31503,-0.17407 0.0534,-0.0899 0.0751,-0.19697 0.0878,-0.30108 0.0224,-0.22117 0.002,-0.44683 -0.0566,-0.66379 z" />
    <path
       style="fill:#f0f0f0;fill-opacity:1;stroke-width:0.0141023"
       id="path10-3-3"
       d="m 409.74027,540.04339 c -0.002,0.62661 -0.37622,1.2531 -1.19979,1.2531 -0.82348,0 -1.20668,-0.6165 -1.20668,-1.24595 0,-0.78495 0.53367,-1.27021 1.22344,-1.27021 0.79985,0.008 1.19001,0.61511 1.18303,1.26306 z m -1.18303,-0.86769 c -0.51695,0 -0.80687,0.36824 -0.8096,0.87059 0,0.43673 0.23825,0.84633 0.79978,0.84633 0.56157,0 0.77616,-0.44382 0.77616,-0.85061 0.008,-0.42249 -0.21176,-0.85631 -0.76634,-0.86631 z m 1.52855,1.79967 c 0,0.0929 0.002,-0.441 0,-0.52231 h 0.37903 l 0.0276,0.32685 c 0.12407,0.0728 0.31631,0.12704 0.47377,0.12704 0.29267,0 0.59782,-0.0757 0.59782,-0.36829 -0.01,-0.26546 -0.34977,-0.31967 -0.62425,-0.34827 -0.4668,-0.049 -0.84302,-0.16545 -0.84302,-0.70214 0,-0.47814 0.52808,-0.71638 0.92102,-0.71638 0.31632,-0.008 0.54066,0.0428 0.82629,0.27821 0,0.19277 -0.002,0.3069 -0.002,0.49953 h -0.36639 l -0.0224,-0.31677 c -0.14772,-0.0729 -0.29962,-0.0929 -0.41662,-0.0899 -0.25223,0.002 -0.52117,0.12412 -0.52117,0.34107 0,0.21263 0.17418,0.27116 0.48351,0.31688 0.50447,0.0685 0.99073,0.18548 0.99073,0.73642 -0.002,0.60222 -0.55459,0.76071 -1.02833,0.76071 -0.36089,0.001 -0.58665,-0.0673 -0.87228,-0.32262 z"
       inkscape:connector-curvature="0" />
    <path
       style="fill:#ffdd55;fill-opacity:1;stroke-width:0.0141023"
       id="path12-5-5"
       d="m 406.82239,541.09104 c 0,0.10989 -0.0864,0.19832 -0.19364,0.19832 h -2.2393 c -0.10731,0 -0.19362,-0.0884 -0.19362,-0.19832 v -0.0181 c 0,-0.10994 0.0863,-0.19829 0.19362,-0.19829 h 2.2393 c 0.10721,0 0.19364,0.0883 0.19364,0.19829 z"
       inkscape:connector-curvature="0" />
  </g>
</svg>
