<?xml version="1.0" encoding="UTF-8" standalone="no"?>
<svg
   inkscape:version="1.1.1 (3bf5ae0d25, 2021-09-20)"
   sodipodi:docname="system-log-out.svg"
   id="svg6"
   version="1.1"
   viewBox="0 0 32 32"
   xmlns:inkscape="http://www.inkscape.org/namespaces/inkscape"
   xmlns:sodipodi="http://sodipodi.sourceforge.net/DTD/sodipodi-0.dtd"
   xmlns:xlink="http://www.w3.org/1999/xlink"
   xmlns="http://www.w3.org/2000/svg"
   xmlns:svg="http://www.w3.org/2000/svg"
   xmlns:rdf="http://www.w3.org/1999/02/22-rdf-syntax-ns#"
   xmlns:cc="http://creativecommons.org/ns#"
   xmlns:dc="http://purl.org/dc/elements/1.1/">
  <metadata
     id="metadata10">
    <rdf:RDF>
      <cc:Work
         rdf:about="">
        <dc:format>image/svg+xml</dc:format>
        <dc:type
           rdf:resource="http://purl.org/dc/dcmitype/StillImage" />
      </cc:Work>
    </rdf:RDF>
  </metadata>
  <sodipodi:namedview
     inkscape:document-rotation="0"
     inkscape:lockguides="true"
     inkscape:current-layer="svg6"
     inkscape:window-maximized="1"
     inkscape:window-y="0"
     inkscape:window-x="0"
     inkscape:cy="2.6923159"
     inkscape:cx="14.907453"
     inkscape:zoom="10.028541"
     showgrid="true"
     id="namedview8"
     inkscape:window-height="1007"
     inkscape:window-width="1920"
     inkscape:pageshadow="2"
     inkscape:pageopacity="0"
     guidetolerance="10"
     gridtolerance="10"
     objecttolerance="10"
     borderopacity="1"
     bordercolor="#666666"
     pagecolor="#ffffff"
     inkscape:pagecheckerboard="0">
    <inkscape:grid
       type="xygrid"
       id="grid883" />
  </sodipodi:namedview>
  <defs
     id="defs3051">
    <style
       id="current-color-scheme"
       type="text/css">
      .ColorScheme-Text {
        color:#eff0f1;
      }
      </style>
    <linearGradient
       inkscape:collect="always"
       xlink:href="#linearGradient1641"
       id="linearGradient1413"
       gradientUnits="userSpaceOnUse"
       x1="3.05"
       y1="16"
       x2="25.799999"
       y2="16"
       gradientTransform="matrix(0.92307695,0,0,0.92307695,2.6846154,1.230765)" />
    <linearGradient
       inkscape:collect="always"
       id="linearGradient1641">
      <stop
         style="stop-color:#eff0f1;stop-opacity:1"
         offset="0"
         id="stop1637" />
      <stop
         style="stop-color:#00ccff;stop-opacity:1"
         offset="0.52172315"
         id="stop1643" />
      <stop
         style="stop-color:#008ade;stop-opacity:1"
         offset="1"
         id="stop1639" />
    </linearGradient>
  </defs>
  <path
     style="color:#000000;overflow:visible;opacity:0;fill:#ffff00;fill-opacity:1;stroke-width:0.800012"
     id="path951"
     overflow="visible"
     d="M 16,4 C 9.379271,4 4,9.379274 4,16 4,22.620721 9.379271,28 16,28 22.620729,28 28,22.620721 28,16 28,9.379274 22.620729,4 16,4 Z"
     inkscape:connector-curvature="0" />
  <path
     id="LogIn"
     class="st0"
     d="m 8.5,10 5.25,5.25 -5.25,5.25 v -3 h -3 V 13 h 3 z M 24.2125,24.475 C 25.6,23.875 26.5,22.525 26.5,21.025 V 4 H 25 v 2.25 l -9,4.125 V 28 Z"
     style="fill:url(#linearGradient1413);fill-opacity:1;stroke-width:0.375003" />
  <path
     id="LogIn-s"
     class="st1"
     d="M 10,23.5 V 19 l 1.5,-1.5 v 6 z m 16.5,-18 v 16.65 c 0,1.8 -1.0875,3.412496 -2.73751,4.125 L 19.75,28 V 26.387501 L 23.2,24.925 C 24.28751,24.437505 25,23.35 25,22.15 V 6.25 Z M 10,7 c 0,-1.65 1.35,-3 3,-3 h 6 v 1.5 h -6 c -0.825,0 -1.5,0.675 -1.5,1.5 v 4.125 L 10,9.625 Z"
     style="clip-rule:evenodd;fill:#eff0f1;fill-opacity:1;fill-rule:evenodd;stroke-width:0.375003" />
</svg>
