<?xml version="1.0" encoding="UTF-8" standalone="no"?>
<svg
   inkscape:version="1.1.1 (3bf5ae0d25, 2021-09-20)"
   sodipodi:docname="system-lock-screen.svg"
   id="svg6"
   version="1.1"
   viewBox="0 0 32 32"
   xmlns:inkscape="http://www.inkscape.org/namespaces/inkscape"
   xmlns:sodipodi="http://sodipodi.sourceforge.net/DTD/sodipodi-0.dtd"
   xmlns:xlink="http://www.w3.org/1999/xlink"
   xmlns="http://www.w3.org/2000/svg"
   xmlns:svg="http://www.w3.org/2000/svg"
   xmlns:rdf="http://www.w3.org/1999/02/22-rdf-syntax-ns#"
   xmlns:cc="http://creativecommons.org/ns#"
   xmlns:dc="http://purl.org/dc/elements/1.1/">
  <metadata
     id="metadata10">
    <rdf:RDF>
      <cc:Work
         rdf:about="">
        <dc:format>image/svg+xml</dc:format>
        <dc:type
           rdf:resource="http://purl.org/dc/dcmitype/StillImage" />
      </cc:Work>
    </rdf:RDF>
  </metadata>
  <sodipodi:namedview
     inkscape:document-rotation="0"
     inkscape:current-layer="svg6"
     inkscape:window-maximized="1"
     inkscape:window-y="0"
     inkscape:window-x="0"
     inkscape:cy="16.992774"
     inkscape:cx="8.1438398"
     inkscape:zoom="14.182499"
     showgrid="true"
     id="namedview8"
     inkscape:window-height="1007"
     inkscape:window-width="1920"
     inkscape:pageshadow="2"
     inkscape:pageopacity="0"
     guidetolerance="10"
     gridtolerance="10"
     objecttolerance="10"
     borderopacity="1"
     bordercolor="#666666"
     pagecolor="#ffffff"
     inkscape:pagecheckerboard="0">
    <inkscape:grid
       type="xygrid"
       id="grid862" />
  </sodipodi:namedview>
  <defs
     id="defs3051">
    <style
       id="current-color-scheme"
       type="text/css">
      .ColorScheme-Text {
        color:#eff0f1;
      }
      </style>
    <linearGradient
       inkscape:collect="always"
       id="linearGradient2555">
      <stop
         style="stop-color:#ff8533;stop-opacity:1"
         offset="0"
         id="stop2551" />
      <stop
         style="stop-color:#ffeeaa;stop-opacity:1"
         offset="1"
         id="stop2553" />
    </linearGradient>
    <linearGradient
       inkscape:collect="always"
       xlink:href="#linearGradient2555"
       id="linearGradient2645-3"
       x1="24.916988"
       y1="20.397861"
       x2="5.9994125"
       y2="20.974911"
       gradientUnits="userSpaceOnUse"
       gradientTransform="matrix(0.92307695,0,0,0.92307695,1.230765,1.2307692)" />
  </defs>
  <path
     id="Lock-5"
     class="st0"
     d="m 17.5,19.75 c 0,0.562498 -0.3,1.05 -0.75,1.312495 V 22.75 c 0,0.412495 -0.33751,0.75 -0.75,0.75 -0.4125,0 -0.75,-0.337505 -0.75,-0.75 V 21.062495 C 14.8,20.8 14.5,20.312498 14.5,19.75 c 0,-0.825 0.675,-1.5 1.5,-1.5 0.825,0 1.5,0.675 1.5,1.5 z M 21.25,13 h 1.5 v 1.5 H 25 v 8.25 c 0,2.062495 -1.687504,3.75 -3.75,3.75 H 7 v -12 h 14.25 z"
     style="clip-rule:evenodd;fill:url(#linearGradient2645-3);fill-opacity:1;fill-rule:evenodd;stroke-width:0.375003" />
  <path
     id="Lock-s-3"
     class="st1"
     d="M 10.75,14.5 H 9.25 V 10.75 C 9.25,7.0375 12.2875,4 16,4 c 3.712496,0 6.75,3.0375 6.75,6.75 V 13 h -1.5 V 10.75 C 21.25,7.8625 18.887499,5.5 16,5.5 c -2.88751,0 -5.25,2.3625 -5.25,5.25 z M 25,14.5 H 21.25 V 16 h 2.25 v 7.5 c 0,1.65 -1.35,3 -3,3 H 8.5 V 28 h 12 c 2.475,0 4.5,-2.025 4.5,-4.5 z"
     style="fill:#eff0f1;fill-opacity:1;stroke-width:0.375003" />
</svg>
