<?xml version="1.0" encoding="UTF-8" standalone="no"?>
<svg
   width="64"
   version="1.1"
   height="64"
   id="svg15"
   sodipodi:docname="folder-deb.svg"
   inkscape:version="1.1.2 (0a00cf5339, 2022-02-04)"
   xmlns:inkscape="http://www.inkscape.org/namespaces/inkscape"
   xmlns:sodipodi="http://sodipodi.sourceforge.net/DTD/sodipodi-0.dtd"
   xmlns="http://www.w3.org/2000/svg"
   xmlns:svg="http://www.w3.org/2000/svg"
   xmlns:rdf="http://www.w3.org/1999/02/22-rdf-syntax-ns#"
   xmlns:cc="http://creativecommons.org/ns#"
   xmlns:dc="http://purl.org/dc/elements/1.1/">
  <sodipodi:namedview
     pagecolor="#ffffff"
     bordercolor="#666666"
     borderopacity="1"
     objecttolerance="10"
     gridtolerance="10"
     guidetolerance="10"
     inkscape:pageopacity="0"
     inkscape:pageshadow="2"
     inkscape:window-width="1920"
     inkscape:window-height="1007"
     id="namedview17"
     showgrid="true"
     inkscape:zoom="9.8124999"
     inkscape:cx="32.866242"
     inkscape:cy="31.082803"
     inkscape:window-x="0"
     inkscape:window-y="0"
     inkscape:window-maximized="1"
     inkscape:current-layer="layer1"
     inkscape:document-rotation="0"
     inkscape:pagecheckerboard="0"
     showguides="false"
     inkscape:lockguides="true">
    <inkscape:grid
       type="xygrid"
       id="grid850" />
  </sodipodi:namedview>
  <defs
     id="defs5455" />
  <metadata
     id="metadata5458">
    <rdf:RDF>
      <cc:Work
         rdf:about="">
        <dc:format>image/svg+xml</dc:format>
        <dc:type
           rdf:resource="http://purl.org/dc/dcmitype/StillImage" />
      </cc:Work>
    </rdf:RDF>
  </metadata>
  <g
     inkscape:label="Capa 1"
     inkscape:groupmode="layer"
     id="layer1"
     transform="translate(-384.57143,-483.798)">
    <g
       transform="matrix(0.74351172,0,0,0.74285356,332.49565,-244.90835)"
       id="g4" />
    <path
       inkscape:connector-curvature="0"
       id="fill"
       d="m 387.17143,492.92152 v 45.35296 c 0.11069,1.52315 1.01788,3.02352 3.97631,3.02352 h 50.71474 c 3.32792,0 4.46249,-0.50295 4.34589,-4.03136 v -36.28236 c -1.01797,-2.01568 -8.14305,0 -8.14305,-6.04708 -12.21454,-1.00784 -34.60787,1.00784 -34.53539,-5.0392 h -12.28946 c -2.03331,0 -4.06904,1.00784 -4.06904,3.02352 z"
       style="color:#1e92ff;fill:#3b445f;fill-opacity:1;fill-rule:nonzero;stroke:none;stroke-width:10.6465"
       class="ColorScheme-ButtonFocus"
       sodipodi:nodetypes="cccccccccc" />
    <path
       d="m 442.63027,498.30849 h -3.19931 v -1.18101 c 0,-2.05106 -0.9001,-3.06199 -1.65528,-3.54937 -0.80983,-0.52229 -1.60505,-0.54894 -1.75698,-0.54894 h -28.10856 c -0.60198,0 -1.16772,-0.63461 -1.76652,-1.30666 -0.76217,-0.85546 -1.62604,-1.82451 -2.93742,-1.82451 h -12.54362 c -2.33226,0 -4.09115,1.75533 -4.09115,4.08309 v 43.83382 c 0,2.2516 1.83517,4.08309 4.09115,4.08309 h 51.96769 c 2.25599,0 4.09116,-1.83149 4.09116,-4.08309 v -35.42333 c 0,-2.2516 -1.83517,-4.08309 -4.09116,-4.08309 z m 2.18416,39.50642 c 0,1.20196 -0.97957,2.17926 -2.18416,2.17926 h -51.96769 c -1.20458,0 -2.18415,-0.9773 -2.18415,-2.17926 v -43.83382 c 0,-1.28255 0.8982,-2.17926 2.18415,-2.17926 h 12.54362 c 0.45577,0 0.9694,0.57623 1.51289,1.18609 0.77233,0.86624 1.73346,1.94445 3.19105,1.94445 h 28.09711 c 0.28796,0.008 1.1048,0.13326 1.40483,1.24256 h -43.76115 c -2.43151,0.0501 -3.70284,1.31936 -3.70284,3.8578 l 0.11188,34.90359 h 1.15945 c 0,0 -0.2406,0.002 9.7e-4,0.002 0.37504,0 0.96716,0.0733 1.52019,-0.35884 0.99355,-0.77803 1.0355,-1.78643 1.02661,-2.06249 l -0.005,-28.67681 c 0,-3.80767 0,-3.80767 3.814,-3.80767 l 45.05482,0.1796 c 1.20457,0.005 2.18415,0.97793 2.18415,2.17925 v 35.42333 z"
       id="path2-3-3-3"
       sodipodi:nodetypes="scscsscssssssssscsssssscsccccccsccccsscc"
       style="fill:#f62459;fill-opacity:1;stroke-width:0.635139" />
    <path
       style="color:#232629;fill:#ff0000;fill-opacity:0.6;stroke:none"
       d="m 433.07143,533.798 c -1.2,-0.2 -2.9,-0.9 -3.9,-1.55 -2.3,-1.5 -3.80543,-3.16854 -4.73586,-5.25103 -0.3,-0.7 -0.47801,-1.2 -1,-3 -0.1,-0.45 -0.26963,-0.95426 -0.33223,-1.1114 -0.10559,-0.26506 -0.11023,-0.35447 -0.0642,-1.23856 0.0437,-0.8 0.2,-2 0.3,-2.096 0.0148,-0.0232 0.0496,-0.0287 0.0774,-0.0122 0.094,0.0558 0.18092,-0.20218 0.26633,-0.79064 0.0468,-0.3224 0.12032,-0.6605 0.16339,-0.75133 0.0431,-0.0908 0.11603,-0.29129 0.16214,-0.44547 0.10611,-0.35486 0.25079,-0.62763 0.69807,-1.31604 0.19671,-0.30276 0.40119,-0.63252 0.45439,-0.7328 0.0626,-0.11798 0.131,-0.17578 0.1938,-0.16379 0.0605,0.0115 0.16035,-0.065 0.26492,-0.203 0.45476,-0.60022 2.59667,-2.37106 2.79488,-2.31069 0.0541,0.0165 0.28012,-0.0579 0.50227,-0.16525 0.40181,-0.19418 0.57886,-0.2391 0.57886,-0.14687 0,0.0266 -0.0581,0.087 -0.12906,0.13423 -0.12457,0.0829 -0.12207,0.0843 0.0717,0.0393 0.11042,-0.0257 0.29638,-0.0622 0.41325,-0.0812 0.14439,-0.0235 0.2031,-0.0581 0.18318,-0.10789 -0.0175,-0.0437 0.0241,-0.087 0.10298,-0.10731 0.19746,-0.0507 0.50515,-0.0424 0.50515,0.0137 0,0.0673 -0.17593,0.13526 -0.31548,0.12198 -0.0952,-0.009 -0.10006,-0.001 -0.0287,0.0457 0.071,0.0468 0.0719,0.0568 0.005,0.0575 -0.0447,4.6e-4 -0.0665,0.0149 -0.0486,0.0322 0.018,0.0172 0.13758,-0.02 0.26578,-0.0828 0.12821,-0.0628 0.36302,-0.14086 0.5218,-0.17354 0.19546,-0.0402 0.2887,-0.0869 0.2887,-0.14451 0,-0.0741 0.0908,-0.0804 0.70265,-0.0488 0.38647,0.02 0.96965,0.0781 1.29596,0.12919 0.59326,0.0929 0.59331,0.0929 0.8144,-0.0292 0.26518,-0.14647 0.69171,-0.16553 0.80379,-0.0359 0.041,0.0474 0.15387,0.12556 0.25081,0.17366 0.15814,0.0785 0.1686,0.0786 0.10176,10e-4 -0.12697,-0.1469 -8.7e-4,-0.1432 0.48939,0.0144 1.58057,0.50801 2.8691,1.41275 3.82523,2.68588 0.22674,0.30192 0.24047,0.43774 0.0257,0.25396 l -0.12292,-0.10517 0.0939,0.17618 c 0.0516,0.0969 0.0939,0.20578 0.0939,0.24197 0,0.0362 0.152,0.30373 0.33776,0.59449 0.41868,0.65534 0.5358,0.87612 0.50771,0.95701 -0.0121,0.0347 -0.19753,-0.19614 -0.41219,-0.51293 -0.21465,-0.31677 -0.5323,-0.74359 -0.70588,-0.94846 -0.25922,-0.30595 -0.32711,-0.35829 -0.38,-0.29289 -0.0354,0.0438 -0.12191,0.0875 -0.19222,0.0973 l -0.12782,0.0177 0.12645,0.23789 c 0.0695,0.13085 0.13567,0.21135 0.14695,0.1789 0.0604,-0.17378 0.34144,0.0547 0.46925,0.38139 0.0414,0.10597 0.15164,0.32419 0.24488,0.48493 0.0932,0.16075 0.15777,0.30352 0.14343,0.31729 -0.0143,0.0138 -0.0994,-0.0303 -0.18889,-0.0979 l -0.1628,-0.1229 0.11103,0.18293 c 0.0611,0.10063 0.16333,0.2237 0.22724,0.27352 0.0797,0.0622 0.11784,0.16037 0.1214,0.31303 0.007,0.28184 0.17481,0.61481 0.2663,0.527 0.14253,-0.13678 0.17184,-0.0513 0.13597,0.39666 -0.0264,0.33003 -0.0124,0.54756 0.0503,0.77848 0.0952,0.3506 0.0747,0.43713 -0.0645,0.27327 -0.0885,-0.1042 -0.0894,-0.10413 -0.0498,0.004 0.085,0.23182 0.14846,0.57862 0.13081,0.71474 -0.0329,0.254 -0.13232,0.14839 -0.16651,-0.17698 l -0.0334,-0.31757 -0.01,0.33796 c -0.005,0.18589 -0.0508,0.54507 -0.10107,0.79819 -0.0508,0.25567 -0.0766,0.56547 -0.058,0.69702 0.0349,0.24746 0.0102,0.25705 -0.20532,0.0798 -0.0877,-0.0722 -0.10283,-0.0576 -0.16308,0.15714 -0.0507,0.18069 -0.0503,0.28356 0.002,0.43489 0.0375,0.10902 0.0593,0.25689 0.0484,0.32858 -0.0251,0.16545 -0.16321,0.21704 -0.16321,0.061 0,-0.19622 -0.0778,-0.12639 -0.31548,0.28325 -0.64188,1.10615 -1.65752,1.96222 -2.80702,2.366 -0.67769,0.23806 -1.13223,0.32633 -1.89648,0.36831 l -0.68832,0.0378 0.34009,0.10069 c 0.27423,0.0812 0.43527,0.0933 0.83171,0.0626 0.51938,-0.0403 1.12921,-0.14844 1.40573,-0.24933 0.11036,-0.0403 0.18489,-0.0421 0.22303,-0.006 0.0899,0.0863 -0.7089,0.42561 -1.18309,0.50249 -0.80686,0.13083 -1.88692,-0.0106 -2.84033,-0.37181 -0.64687,-0.2451 -1.60679,-0.88343 -1.45969,-0.97067 0.0279,-0.0165 0.21049,0.0669 0.40583,0.18546 0.24969,0.15151 0.35516,0.19141 0.35516,0.13434 0,-0.10779 0.0369,-0.10263 0.2353,0.0329 0.17914,0.12242 0.73015,0.34973 1.127,0.46493 0.4326,0.12558 0.26487,-0.0266 -0.31548,-0.28629 -1.83497,-0.82096 -2.59673,-1.6421 -2.97638,-3.20834 -0.13922,-0.57434 0.01,-1.83345 0.26385,-2.22777 0.0644,-0.0999 0.117,-0.22281 0.117,-0.27308 0,-0.21815 0.37905,-0.79451 0.768,-1.16778 0.68537,-0.65774 1.39794,-0.9308 2.32295,-0.89016 0.44716,0.0197 0.63814,0.0574 1.01028,0.1996 0.4221,0.16133 0.95359,0.49904 0.79082,0.50251 -0.0383,8.1e-4 -0.20605,-0.0531 -0.37284,-0.1198 -0.25354,-0.1014 -0.41611,-0.12171 -0.99158,-0.12386 -0.80809,-0.003 -1.20306,0.10701 -1.77816,0.49533 -0.81534,0.55055 -1.26873,1.18468 -1.4293,1.99907 -0.10774,0.54646 -0.11104,0.69787 -0.027,1.23992 0.0484,0.31234 0.0828,0.40399 0.1434,0.3817 0.0509,-0.0187 0.0797,0.009 0.0797,0.0758 0,0.19359 0.43892,0.97886 0.74332,1.32989 0.73267,0.84496 1.91783,1.38416 3.04236,1.38416 0.58366,0 1.05546,-0.10751 1.48975,-0.33947 0.1744,-0.0932 0.39453,-0.20703 0.48917,-0.25307 0.33393,-0.16244 0.5411,-0.34798 0.78331,-0.70153 0.13465,-0.19654 0.28103,-0.35735 0.32529,-0.35735 0.0654,0 0.0626,0.0284 -0.0151,0.15138 -0.25603,0.4055 0.34484,-0.3318 0.656,-0.80495 l 0.34852,-0.52995 -0.038,-0.34812 c -0.0365,-0.33452 -0.0312,-0.35494 0.13555,-0.52295 0.16062,-0.16178 0.17505,-0.20968 0.19356,-0.64219 0.0166,-0.3871 0.005,-0.46747 -0.066,-0.46791 -0.0662,-3.8e-4 -0.0946,-0.10233 -0.1231,-0.4409 -0.0377,-0.44808 -0.41787,-1.95585 -0.50638,-2.00835 -0.0267,-0.0158 -0.10085,-0.16083 -0.16473,-0.32218 -0.2156,-0.54454 -0.59376,-1.06816 -1.18339,-1.63859 -0.84842,-0.82077 -1.91715,-1.45456 -2.92667,-1.7356 -0.85872,-0.23906 -2.31691,-0.15229 -3.35555,0.19967 -0.50691,0.17177 -1.00636,0.39922 -1.09064,0.49667 -0.0382,0.0442 -0.0937,0.0661 -0.1232,0.0486 -0.0311,-0.0184 -0.0225,-0.0678 0.0204,-0.11739 0.19134,-0.22126 -0.4436,0.1837 -0.85236,0.54362 -0.24712,0.21759 -0.45832,0.40225 -0.46933,0.41034 -0.011,0.008 0.0371,3.8e-4 0.10689,-0.0171 0.11615,-0.0291 0.12107,-0.0214 0.0581,0.0916 -0.0404,0.0724 -0.25066,0.2026 -0.50841,0.3148 -0.43307,0.18852 -0.71317,0.39571 -0.93571,0.69216 -0.0888,0.11836 -0.094,0.14385 -0.0237,0.11797 0.0493,-0.0182 0.0897,-0.007 0.0897,0.0253 0,0.15721 -0.14884,0.33272 -0.36931,0.43553 -0.48847,0.22774 -1.34656,1.44426 -1.80621,2.5607 -0.20484,0.4975 -0.20159,0.48022 -0.0902,0.48022 0.11739,0 0.10922,0.12795 -0.052,0.81523 -0.23489,1.00112 -0.23517,0.96909 0.0206,2.37751 0.31167,1.71604 0.49375,2.28928 0.83995,2.64448 0.0812,0.0833 0.16015,0.26057 0.19534,0.43864 0.042,0.21262 0.11256,0.35294 0.24458,0.48649 0.12036,0.12175 0.1605,0.19642 0.11426,0.2126 -0.0907,0.0317 0.19328,0.4381 0.45238,0.64733 0.13035,0.10525 0.22695,0.14063 0.33159,0.12143 0.22935,-0.0421 0.46286,0.0847 0.82167,0.44605 0.37288,0.37552 0.41024,0.47647 0.16348,0.44172 -0.15916,-0.0224 -0.1628,-0.0183 -0.0845,0.0965 0.0451,0.066 0.21123,0.22461 0.3693,0.35251 0.22201,0.17967 0.27919,0.25739 0.25132,0.34167 -0.0401,0.12118 0.0742,0.23423 0.33283,0.32912 0.16035,0.0588 0.21202,0.18571 0.0913,0.22431 -0.0365,0.0117 0.18933,0.23478 0.50189,0.49577 0.35215,0.29404 0.58903,0.45521 0.62279,0.42373 0.0892,-0.0831 0.20349,-0.0578 0.20554,0.0455 0.002,0.11272 0.10347,0.23114 0.46767,0.54703 0.23015,0.19962 0.2876,0.22474 0.42867,0.18745 0.12918,-0.0342 0.21042,-0.0122 0.39235,0.1058 0.36297,0.23547 0.58306,0.32947 0.77151,0.32947 0.18543,0 0.21183,0.0511 0.11555,0.2238 -0.051,0.0914 -0.0401,0.10648 0.0771,0.10648 0.075,0 0.28648,0.0495 0.46987,0.11009 0.41698,0.13769 0.59092,0.14705 0.48641,0.0262 -0.15438,-0.17851 0.009,-0.12973 0.56093,0.1671 0.77073,0.41478 1.16062,0.46216 2.69539,0.32758 0.22723,-0.0199 0.30114,-0.008 0.30114,0.0474 0,0.0478 -0.19717,0.11958 -0.55926,0.20365 -0.47599,0.1105 -0.73005,0.13188 -1.70645,0.14359 -0.76939,0.009 -1.29494,-0.0109 -1.59582,-0.061 z m -0.78462,-8.25207 c 0,-0.0117 -0.071,-0.0627 -0.15774,-0.11336 l -0.15774,-0.0922 0.13542,0.11336 c 0.13214,0.11062 0.18006,0.13515 0.18006,0.0922 z m 7.89748,-5.76909 c -0.0183,-0.0439 -0.0319,-0.0309 -0.0347,0.0333 -0.003,0.058 0.0111,0.0905 0.0301,0.0722 0.0191,-0.0183 0.0211,-0.0658 0.004,-0.1055 z m -13.01677,-5.77328 c 0.0714,-0.0873 0.0693,-0.0893 -0.0217,-0.0208 -0.0552,0.0416 -0.10038,0.0849 -0.10038,0.0963 0,0.0453 0.0471,0.0161 0.12204,-0.0755 z m 0.65232,-0.50918 c 0.0571,-0.0606 0.0909,-0.1101 0.0751,-0.1101 -0.0158,0 -0.0754,0.0495 -0.13249,0.1101 -0.0571,0.0606 -0.0909,0.11009 -0.0751,0.11009 0.0158,0 0.0754,-0.0495 0.1325,-0.11009 z m 0.72202,-0.38697 c 0.18908,-0.0614 0.29652,-0.0723 0.33639,-0.034 0.0399,0.0383 0.18783,0.0156 0.46321,-0.0711 0.22254,-0.07 0.39439,-0.13711 0.38189,-0.14911 -0.0125,-0.012 -0.19574,0.0336 -0.40718,0.10136 -0.29041,0.0931 -0.39492,0.1069 -0.42731,0.0566 -0.0547,-0.085 -0.57666,0.0825 -0.801,0.2571 l -0.1533,0.11928 0.16474,-0.0949 c 0.0906,-0.0522 0.28976,-0.13554 0.44256,-0.18518 z m 1.65366,-0.13973 c 0.16658,-0.0475 0.29293,-0.0959 0.28079,-0.10751 -0.0268,-0.0257 -0.62019,0.13737 -0.62019,0.17045 0,0.0333 0.005,0.0325 0.3394,-0.0629 z m 0.95119,-0.30009 0.22945,-0.0402 -0.20076,-0.005 c -0.11042,-0.003 -0.26529,0.0331 -0.34416,0.0795 -0.0928,0.0547 -0.10295,0.0706 -0.0287,0.0451 0.0631,-0.0216 0.21796,-0.0574 0.34415,-0.0795 z m 0.45558,-0.10389 c 0.0177,-0.0274 -0.0195,-0.0369 -0.0827,-0.0211 -0.13394,0.0336 -0.15087,0.071 -0.0321,0.071 0.0455,0 0.0971,-0.0225 0.1148,-0.0499 z m 1.85196,0.0166 c -0.0191,-0.0183 -0.0685,-0.0202 -0.10994,-0.004 -0.0458,0.0176 -0.0322,0.0306 0.0347,0.0333 0.0605,0.002 0.0943,-0.0106 0.0753,-0.0289 z m -0.34296,-0.0597 c -0.0552,-0.0138 -0.14555,-0.0138 -0.20076,0 -0.0552,0.0138 -0.01,0.0252 0.10038,0.0252 0.11042,0 0.15559,-0.0113 0.10038,-0.0252 z m -0.57208,-0.0571 c -0.11747,-0.0118 -0.32397,-0.012 -0.45888,-3.6e-4 -0.13491,0.0116 -0.0388,0.0213 0.21358,0.0215 0.25239,2e-4 0.36277,-0.009 0.2453,-0.0211 z m -0.74839,-0.0483 c -0.0191,-0.0183 -0.0685,-0.0203 -0.10994,-0.004 -0.0458,0.0176 -0.0322,0.0306 0.0347,0.0333 0.0605,0.002 0.0943,-0.0106 0.0753,-0.0289 z m -0.38827,13.23094 c -0.58427,-0.40175 -0.80075,-0.60955 -0.80075,-0.76867 0,-0.0844 0.0199,-0.15347 0.0442,-0.15347 0.0827,0 1.05948,0.97846 1.03812,1.03996 -0.0124,0.0356 -0.13023,-0.0137 -0.28159,-0.11782 z m -0.30065,-1.02007 c -0.30344,-0.29427 -0.40067,-0.45255 -0.27803,-0.45255 0.0737,0 0.63832,0.62041 0.63832,0.70138 0,0.0381 -0.007,0.0693 -0.0161,0.0693 -0.009,0 -0.16374,-0.14314 -0.34416,-0.31811 z m 3.35735,-1.20461 c -0.1602,-0.062 -0.0602,-0.17699 0.20076,-0.23072 0.14985,-0.0309 0.38799,-0.10576 0.52919,-0.16645 0.1412,-0.0607 0.26693,-0.10055 0.27939,-0.0886 0.0125,0.012 -0.0515,0.13431 -0.14201,0.27188 -0.16367,0.24861 -0.1666,0.25011 -0.48015,0.24589 -0.17352,-0.002 -0.34775,-0.0167 -0.38718,-0.032 z m 1.72079,-1.23135 c -0.15483,-0.0597 -0.16124,-0.16135 -0.032,-0.50748 0.11103,-0.29729 0.22619,-0.35594 0.16213,-0.0826 -0.0231,0.0984 -0.0538,0.24084 -0.0684,0.31652 l -0.0265,0.13763 0.11463,-0.12529 c 0.0678,-0.0741 0.13062,-0.24813 0.15377,-0.42599 0.0215,-0.1654 0.062,-0.28714 0.09,-0.27056 0.071,0.0421 0.0634,0.47733 -0.0133,0.76994 -0.0671,0.2556 -0.1274,0.28538 -0.38037,0.18779 z m -13.57381,-0.69088 c -0.0191,-0.0479 -0.0348,-0.23574 -0.0348,-0.41744 0,-0.23973 0.0197,-0.32412 0.0717,-0.30761 0.0852,0.027 0.13517,0.81213 0.0517,0.81213 -0.0296,0 -0.0694,-0.0392 -0.0886,-0.0871 z m 13.79915,-1.28758 c -0.0891,-0.1157 -0.11659,-0.20703 -0.0913,-0.30368 0.0519,-0.19849 0.1877,-0.17026 0.28788,0.0598 0.15585,0.35797 0.0206,0.52574 -0.19657,0.24383 z m -13.81095,-0.87395 c -0.004,-0.31214 -3e-5,-0.32179 0.14395,-0.31652 0.12209,0.004 0.15157,0.0353 0.16565,0.1735 0.0159,0.15585 -0.16071,0.46497 -0.26563,0.46497 -0.0217,0 -0.0415,-0.14488 -0.044,-0.32195 z m 14.86831,-6.76709 c 0.008,-0.49262 0.0945,-0.65951 0.16189,-0.3146 0.047,0.24033 -0.0128,0.66472 -0.10379,0.73721 -0.0495,0.0394 -0.0643,-0.068 -0.0581,-0.42261 z m -7.53695,-0.29521 c 0.0231,-0.0664 0.81432,-0.3774 0.96028,-0.3774 0.17148,0 -0.13613,0.20165 -0.49092,0.32181 -0.39558,0.13399 -0.50092,0.14646 -0.46936,0.0556 z"
       class="ColorScheme-Text"
       id="path12-6" />
  </g>
</svg>
