<?xml version="1.0" encoding="UTF-8" standalone="no"?>
<svg
   id="svg2"
   viewBox="0 0 32 32"
   height="32"
   version="1.1"
   width="32"
   sodipodi:docname="folder-unlocked.svg"
   inkscape:version="1.1.2 (0a00cf5339, 2022-02-04)"
   xmlns:inkscape="http://www.inkscape.org/namespaces/inkscape"
   xmlns:sodipodi="http://sodipodi.sourceforge.net/DTD/sodipodi-0.dtd"
   xmlns:xlink="http://www.w3.org/1999/xlink"
   xmlns="http://www.w3.org/2000/svg"
   xmlns:svg="http://www.w3.org/2000/svg"
   xmlns:rdf="http://www.w3.org/1999/02/22-rdf-syntax-ns#"
   xmlns:cc="http://creativecommons.org/ns#"
   xmlns:dc="http://purl.org/dc/elements/1.1/">
  <sodipodi:namedview
     pagecolor="#ffffff"
     bordercolor="#666666"
     borderopacity="1"
     objecttolerance="10"
     gridtolerance="10"
     guidetolerance="10"
     inkscape:pageopacity="0"
     inkscape:pageshadow="2"
     inkscape:window-width="1920"
     inkscape:window-height="1007"
     id="namedview18"
     showgrid="false"
     inkscape:zoom="9.8125"
     inkscape:cx="-8"
     inkscape:cy="2.8535032"
     inkscape:window-x="0"
     inkscape:window-y="0"
     inkscape:window-maximized="1"
     inkscape:current-layer="svg2"
     inkscape:pagecheckerboard="0" />
  <defs
     id="defs5455">
    <linearGradient
       id="linearGradient4172-5">
      <stop
         id="stop4174-6"
         style="stop-color:#3daee9" />
      <stop
         id="stop4176-6"
         style="stop-color:#6cc1ef"
         offset="1" />
    </linearGradient>
    <linearGradient
       x2="0"
       gradientUnits="userSpaceOnUse"
       y2="8"
       y1="29"
       xlink:href="#linearGradient4172-5"
       id="linearGradient4342" />
    <linearGradient
       inkscape:collect="always"
       id="linearGradient991">
      <stop
         style="stop-color:#cccccc;stop-opacity:1"
         offset="0"
         id="stop987" />
      <stop
         style="stop-color:#cccccc;stop-opacity:1"
         offset="0.03132199"
         id="stop1929" />
      <stop
         style="stop-color:#0069a6;stop-opacity:1"
         offset="0.05527586"
         id="stop1263" />
      <stop
         style="stop-color:#0069a6;stop-opacity:1"
         offset="0.10902679"
         id="stop1027" />
      <stop
         style="stop-color:#cccccc;stop-opacity:1"
         offset="1"
         id="stop989" />
    </linearGradient>
    <linearGradient
       inkscape:collect="always"
       id="linearGradient1535">
      <stop
         style="stop-color:#00ffcc;stop-opacity:1"
         offset="0"
         id="stop1531" />
      <stop
         style="stop-color:#00a3cc;stop-opacity:1"
         offset="1"
         id="stop1533" />
    </linearGradient>
    <linearGradient
       inkscape:collect="always"
       xlink:href="#linearGradient991"
       id="linearGradient3483"
       gradientUnits="userSpaceOnUse"
       gradientTransform="matrix(0.49958334,0,0,0.5,-192.12464,-242.19899)"
       x1="386.57144"
       y1="516.39801"
       x2="446.62146"
       y2="516.39801" />
    <linearGradient
       inkscape:collect="always"
       xlink:href="#linearGradient1535"
       id="linearGradient1175"
       gradientUnits="userSpaceOnUse"
       gradientTransform="matrix(0.46965919,0,0,0.44139194,-179.03977,-210.56211)"
       x1="421.57144"
       y1="526.54797"
       x2="439.57144"
       y2="526.54797" />
  </defs>
  <metadata
     id="metadata5458">
    <rdf:RDF>
      <cc:Work
         rdf:about="">
        <dc:format>image/svg+xml</dc:format>
        <dc:type
           rdf:resource="http://purl.org/dc/dcmitype/StillImage" />
      </cc:Work>
    </rdf:RDF>
  </metadata>
  <path
     inkscape:connector-curvature="0"
     id="fill"
     d="M 1.498753,4.5 V 27 c 0.05425,0.755655 0.498753,1.5 1.948359,1.5 h 24.84991 c 1.630659,0 2.186569,-0.249515 2.129412,-2 v -18 c -0.498753,-1 -3.990025,0 -3.990025,-3 C 20.451372,5 9.478803,6 9.514319,3 H 3.492544 C 2.496259,3 1.498753,3.5 1.498753,4.5 Z"
     style="color:#1e92ff;fill:#4e5a7e;fill-opacity:0.3;fill-rule:nonzero;stroke:none;stroke-width:5.24924"
     class="ColorScheme-ButtonFocus"
     sodipodi:nodetypes="cccccccccc" />
  <path
     d="M 28.959521,7.205245 H 27.363855 V 6.61474 c 0,-1.02553 -0.448927,-1.530995 -0.825576,-1.774685 C 26.134374,4.57891 25.737756,4.565585 25.66198,4.565585 H 11.642748 c -0.300239,0 -0.582404,-0.317305 -0.881057,-0.65333 C 10.381556,3.484525 9.950698,3 9.296643,3 H 3.040474 C 1.877252,3 1,3.877665 1,5.041545 v 21.91691 C 1,28.084255 1.915297,29 3.040474,29 H 28.959521 C 30.084703,29 31,28.084255 31,26.958455 V 9.24679 C 31,8.12099 30.084703,7.205245 28.959521,7.205245 Z m 1.089357,19.75321 c 0,0.60098 -0.488564,1.08963 -1.089357,1.08963 H 3.040474 c -0.600788,0 -1.089352,-0.48865 -1.089352,-1.08963 V 5.041545 c 0,-0.641275 0.44798,-1.08963 1.089352,-1.08963 h 6.256169 c 0.227317,0 0.483492,0.288115 0.754559,0.593045 0.385202,0.43312 0.864569,0.972225 1.591546,0.972225 h 14.013521 c 0.143621,0.004 0.551023,0.06663 0.700664,0.62128 H 4.530923 C 3.3182,6.163515 2.68412,6.798145 2.68412,8.067365 L 2.73992,25.51916 H 3.3182 c 0,0 -0.12,0.001 4.83e-4,0.001 0.187053,0 0.482374,0.03665 0.7582,-0.17942 0.495536,-0.389015 0.516459,-0.893215 0.512025,-1.031245 L 4.586408,9.97109 c 0,-1.903835 0,-1.903835 1.902244,-1.903835 l 22.471232,0.0898 c 0.600783,0.0025 1.089352,0.488965 1.089352,1.089625 v 17.711665 z"
     id="path2-3-3-2"
     sodipodi:nodetypes="scscsscssssssssscsssssscsccccccsccccsscc"
     style="fill:url(#linearGradient3483);fill-opacity:1;stroke-width:0.317173" />
  <path
     id="Lock-7"
     class="st0"
     d="m 23.886534,21.851923 c 0,0.248283 -0.140898,0.463462 -0.352245,0.579327 v 0.744849 c 0,0.182074 -0.158508,0.331044 -0.352244,0.331044 -0.193736,0 -0.352245,-0.14897 -0.352245,-0.331044 V 22.43125 c -0.211346,-0.115865 -0.352244,-0.331044 -0.352244,-0.579327 0,-0.364148 0.317023,-0.662088 0.704489,-0.662088 0.387471,0 0.704489,0.29794 0.704489,0.662088 z m 1.761222,-2.979395 h 0.704488 v 0.662088 h 1.056734 v 3.641483 c 0,0.910371 -0.792549,1.65522 -1.761222,1.65522 h -6.692644 v -5.296703 h 6.692644 z"
     style="clip-rule:evenodd;fill:url(#linearGradient1175);fill-opacity:1;fill-rule:evenodd;stroke-width:0.17074" />
  <path
     id="Lock-s-5"
     class="st1"
     d="m 20.716334,17.9845 h -0.704489 v -0.105104 c 0,-1.638668 1.426589,-2.979396 3.1702,-2.979396 1.743611,0 3.170199,1.340728 3.170199,2.979396 v 0.993132 h -0.704488 v -0.993132 c 0,-1.27452 -1.109571,-2.317308 -2.465711,-2.317308 -1.35614,0 -2.465711,1.042788 -2.465711,2.317308 z m 6.692644,1.550116 h -1.761222 v 0.662088 h 1.056733 v 3.310439 c 0,0.728297 -0.63404,1.324176 -1.408978,1.324176 h -5.63591 v 0.662088 h 5.63591 c 1.162409,0 2.113467,-0.893819 2.113467,-1.986264 z"
     style="fill:#f3f3f3;fill-opacity:1;stroke-width:0.17074"
     sodipodi:nodetypes="ccsssccssscccccssccssc" />
</svg>
