<?xml version="1.0" encoding="UTF-8" standalone="no"?>
<svg
   width="32"
   version="1.1"
   height="32"
   viewBox="0 0 32 32"
   id="svg15"
   sodipodi:docname="folder-Plasma.svg"
   inkscape:version="1.1.2 (0a00cf5339, 2022-02-04)"
   xmlns:inkscape="http://www.inkscape.org/namespaces/inkscape"
   xmlns:sodipodi="http://sodipodi.sourceforge.net/DTD/sodipodi-0.dtd"
   xmlns:xlink="http://www.w3.org/1999/xlink"
   xmlns="http://www.w3.org/2000/svg"
   xmlns:svg="http://www.w3.org/2000/svg"
   xmlns:rdf="http://www.w3.org/1999/02/22-rdf-syntax-ns#"
   xmlns:cc="http://creativecommons.org/ns#"
   xmlns:dc="http://purl.org/dc/elements/1.1/">
  <sodipodi:namedview
     pagecolor="#ffffff"
     bordercolor="#666666"
     borderopacity="1"
     objecttolerance="10"
     gridtolerance="10"
     guidetolerance="10"
     inkscape:pageopacity="0"
     inkscape:pageshadow="2"
     inkscape:window-width="1920"
     inkscape:window-height="1007"
     id="namedview17"
     showgrid="true"
     inkscape:zoom="9.8125"
     inkscape:cx="-8.4076433"
     inkscape:cy="1.7324841"
     inkscape:window-x="0"
     inkscape:window-y="0"
     inkscape:window-maximized="1"
     inkscape:current-layer="g4"
     inkscape:pagecheckerboard="0">
    <inkscape:grid
       type="xygrid"
       id="grid862" />
  </sodipodi:namedview>
  <defs
     id="defs5455">
    <linearGradient
       inkscape:collect="always"
       id="linearGradient1444">
      <stop
         style="stop-color:#cccccc;stop-opacity:1"
         offset="0"
         id="stop1434" />
      <stop
         style="stop-color:#cccccc;stop-opacity:1"
         offset="0"
         id="stop1436" />
      <stop
         style="stop-color:#0069a6;stop-opacity:1"
         offset="0"
         id="stop1438" />
      <stop
         style="stop-color:#0069a6;stop-opacity:1"
         offset="0.10902679"
         id="stop1440" />
      <stop
         style="stop-color:#cccccc;stop-opacity:1"
         offset="1"
         id="stop1442" />
    </linearGradient>
    <linearGradient
       inkscape:collect="always"
       id="linearGradient991">
      <stop
         style="stop-color:#cccccc;stop-opacity:1"
         offset="0"
         id="stop987" />
      <stop
         style="stop-color:#cccccc;stop-opacity:1"
         offset="0.03132199"
         id="stop1929" />
      <stop
         style="stop-color:#0069a6;stop-opacity:1"
         offset="0.05527586"
         id="stop1263" />
      <stop
         style="stop-color:#0069a6;stop-opacity:1"
         offset="0.10902679"
         id="stop1027" />
      <stop
         style="stop-color:#cccccc;stop-opacity:1"
         offset="1"
         id="stop989" />
    </linearGradient>
    <linearGradient
       inkscape:collect="always"
       xlink:href="#linearGradient991"
       id="linearGradient3483"
       gradientUnits="userSpaceOnUse"
       gradientTransform="matrix(1.3871979,0,0,1.3461641,-464.74345,329.31646)"
       x1="386.57144"
       y1="516.39801"
       x2="446.62146"
       y2="516.39801" />
    <linearGradient
       inkscape:collect="always"
       xlink:href="#linearGradient1444"
       id="linearGradient1051"
       gradientUnits="userSpaceOnUse"
       gradientTransform="matrix(1.3848926,0,0,1.3461641,-448.61847,332.81649)"
       x1="404.57144"
       y1="520.79797"
       x2="428.57144"
       y2="520.79797" />
  </defs>
  <metadata
     id="metadata5458">
    <rdf:RDF>
      <cc:Work
         rdf:about="">
        <dc:format>image/svg+xml</dc:format>
        <dc:type
           rdf:resource="http://purl.org/dc/dcmitype/StillImage" />
      </cc:Work>
    </rdf:RDF>
  </metadata>
  <g
     inkscape:label="Capa 1"
     inkscape:groupmode="layer"
     id="layer1"
     transform="translate(-384.57143,-515.798)">
    <g
       transform="matrix(0.36013848,0,0,0.37142583,359.81878,151.2823)"
       id="g4">
      <path
         inkscape:connector-curvature="0"
         id="fill"
         d="m 72.892524,993.51115 v 60.57715 c 0.15065,2.0345 1.384894,4.0385 5.410028,4.0385 h 69.000988 c 4.52787,0 6.07147,-0.6717 5.91276,-5.3846 v -48.4619 c -1.38489,-2.6923 -11.07914,0 -11.07914,-8.07683 -16.61871,-1.34616 -47.086354,1.34617 -46.987735,-6.73082 H 78.428703 c -2.766393,0 -5.536179,1.34617 -5.536179,4.0385 z"
         style="color:#1e92ff;fill:#4e5a7e;fill-opacity:0.3;fill-rule:nonzero;stroke:none;stroke-width:14.3525"
         class="ColorScheme-ButtonFocus"
         sodipodi:nodetypes="cccccccccc" />
      <path
         d="m 149.14311,1000.7945 h -4.4307 v -1.58978 c 0,-2.76106 -1.24654,-4.12194 -2.29239,-4.77803 -1.12153,-0.70309 -2.22282,-0.73897 -2.43323,-0.73897 h -38.92733 c -0.83368,0 -1.617167,-0.85429 -2.446442,-1.75898 -1.055528,-1.15159 -2.251896,-2.45609 -4.068016,-2.45609 H 77.173435 c -3.229929,0 -5.665803,2.36297 -5.665803,5.49651 v 59.00734 c 0,3.031 2.541514,5.4965 5.665803,5.4965 h 71.969675 c 3.1243,0 5.66581,-2.4655 5.66581,-5.4965 v -47.6856 c 0,-3.031 -2.54151,-5.4964 -5.66581,-5.4964 z m 3.02482,53.182 c 0,1.618 -1.35659,2.9336 -3.02482,2.9336 H 77.173435 c -1.668214,0 -3.024812,-1.3156 -3.024812,-2.9336 v -59.00734 c 0,-1.72652 1.24391,-2.93364 3.024812,-2.93364 h 17.371567 c 0.631193,0 1.342515,0.7757 2.09519,1.59667 1.069594,1.1661 2.400659,2.61755 4.419268,2.61755 h 38.91148 c 0.39879,0.0108 1.53003,0.17939 1.94553,1.67269 H 81.31198 c -3.367381,0.0674 -5.128036,1.77608 -5.128036,5.19307 l 0.154942,46.9859 h 1.605713 c 0,0 -0.333205,0 0.0014,0 0.519391,0 1.339413,0.099 2.105301,-0.483 1.375959,-1.0474 1.434055,-2.4049 1.421744,-2.7765 l -0.0069,-38.6037 c 0,-5.1257 0,-5.1257 5.281981,-5.1257 l 62.396085,0.2418 c 1.6682,0.01 3.02482,1.3164 3.02482,2.9336 v 47.6856 z"
         id="path2-3-3-2"
         sodipodi:nodetypes="scscsscssssssssscsssssscsccccccsccccsscc"
         style="fill:url(#linearGradient3483);fill-opacity:1;stroke-width:0.867212" />
      <path
         d="m 119.97888,1017.7419 a 2.7697852,2.6923282 0 0 0 -2.76979,2.6924 2.7697852,2.6923282 0 0 0 2.76979,2.6923 2.7697852,2.6923282 0 0 0 2.76978,-2.6923 2.7697852,2.6923282 0 0 0 -2.76978,-2.6924 z m 13.84892,0 -4.15468,4.0385 6.92447,6.7308 -6.92447,6.7308 4.15468,4.0385 11.07914,-10.7693 z m -18.69605,12.1155 a 3.4622315,3.3654103 0 0 0 -3.46223,3.3654 3.4622315,3.3654103 0 0 0 3.46223,3.3654 3.4622315,3.3654103 0 0 0 3.46223,-3.3654 3.4622315,3.3654103 0 0 0 -3.46223,-3.3654 z m 9.0018,12.1155 a 4.1546778,4.0384924 0 0 0 -4.15467,4.0385 4.1546778,4.0384924 0 0 0 4.15467,4.0384 4.1546778,4.0384924 0 0 0 4.15468,-4.0384 4.1546778,4.0384924 0 0 0 -4.15468,-4.0385 z"
         class="ColorScheme-Text"
         id="path3-7"
         style="color:#eff0f1;fill:url(#linearGradient1051);fill-opacity:1;stroke-width:2.73079" />
    </g>
  </g>
</svg>
