<?xml version="1.0" encoding="UTF-8" standalone="no"?>
<svg
   width="32"
   version="1.1"
   height="32"
   viewBox="0 0 32 32"
   id="svg15"
   sodipodi:docname="folder-comic.svg"
   inkscape:version="1.1.2 (0a00cf5339, 2022-02-04)"
   xmlns:inkscape="http://www.inkscape.org/namespaces/inkscape"
   xmlns:sodipodi="http://sodipodi.sourceforge.net/DTD/sodipodi-0.dtd"
   xmlns:xlink="http://www.w3.org/1999/xlink"
   xmlns="http://www.w3.org/2000/svg"
   xmlns:svg="http://www.w3.org/2000/svg"
   xmlns:rdf="http://www.w3.org/1999/02/22-rdf-syntax-ns#"
   xmlns:cc="http://creativecommons.org/ns#"
   xmlns:dc="http://purl.org/dc/elements/1.1/">
  <sodipodi:namedview
     pagecolor="#ffffff"
     bordercolor="#666666"
     borderopacity="1"
     objecttolerance="10"
     gridtolerance="10"
     guidetolerance="10"
     inkscape:pageopacity="0"
     inkscape:pageshadow="2"
     inkscape:window-width="1920"
     inkscape:window-height="1007"
     id="namedview17"
     showgrid="true"
     inkscape:zoom="9.8125"
     inkscape:cx="1.477707"
     inkscape:cy="1.7324841"
     inkscape:window-x="0"
     inkscape:window-y="0"
     inkscape:window-maximized="1"
     inkscape:current-layer="g4"
     inkscape:pagecheckerboard="0">
    <inkscape:grid
       type="xygrid"
       id="grid862" />
  </sodipodi:namedview>
  <defs
     id="defs5455">
    <linearGradient
       inkscape:collect="always"
       id="linearGradient991">
      <stop
         style="stop-color:#cccccc;stop-opacity:1"
         offset="0"
         id="stop987" />
      <stop
         style="stop-color:#cccccc;stop-opacity:1"
         offset="0.03132199"
         id="stop1929" />
      <stop
         style="stop-color:#0069a6;stop-opacity:1"
         offset="0.05527586"
         id="stop1263" />
      <stop
         style="stop-color:#0069a6;stop-opacity:1"
         offset="0.10902679"
         id="stop1027" />
      <stop
         style="stop-color:#cccccc;stop-opacity:1"
         offset="1"
         id="stop989" />
    </linearGradient>
    <linearGradient
       inkscape:collect="always"
       xlink:href="#linearGradient991"
       id="linearGradient3483"
       gradientUnits="userSpaceOnUse"
       gradientTransform="matrix(1.3871979,0,0,1.3461645,-464.74346,329.31628)"
       x1="386.57144"
       y1="516.39801"
       x2="446.62146"
       y2="516.39801" />
    <linearGradient
       inkscape:collect="always"
       xlink:href="#linearGradient1234"
       id="linearGradient1236-4"
       x1="8"
       y1="34"
       x2="64"
       y2="34"
       gradientUnits="userSpaceOnUse" />
    <linearGradient
       inkscape:collect="always"
       id="linearGradient1234">
      <stop
         style="stop-color:#2ad4ff;stop-opacity:1"
         offset="0"
         id="stop1230" />
      <stop
         style="stop-color:#aa87de;stop-opacity:1"
         offset="1"
         id="stop1232" />
    </linearGradient>
  </defs>
  <metadata
     id="metadata5458">
    <rdf:RDF>
      <cc:Work
         rdf:about="">
        <dc:format>image/svg+xml</dc:format>
        <dc:type
           rdf:resource="http://purl.org/dc/dcmitype/StillImage" />
      </cc:Work>
    </rdf:RDF>
  </metadata>
  <g
     inkscape:label="Capa 1"
     inkscape:groupmode="layer"
     id="layer1"
     transform="translate(-384.57143,-515.798)">
    <g
       transform="matrix(0.36013848,0,0,0.37142583,359.81878,151.2823)"
       id="g4">
      <path
         inkscape:connector-curvature="0"
         id="fill"
         d="m 72.892525,993.51115 v 60.57725 c 0.150649,2.0345 1.384892,4.0385 5.410027,4.0385 h 69.000988 c 4.52786,0 6.07147,-0.6718 5.91276,-5.3847 v -48.4619 c -1.3849,-2.6923 -11.07914,0 -11.07914,-8.07683 -16.61872,-1.34616 -47.086353,1.34617 -46.987735,-6.73082 H 78.428703 c -2.766393,0 -5.536178,1.34617 -5.536178,4.0385 z"
         style="color:#1e92ff;fill:#4e5a7e;fill-opacity:0.3;fill-rule:nonzero;stroke:none;stroke-width:14.3525"
         class="ColorScheme-ButtonFocus"
         sodipodi:nodetypes="cccccccccc" />
      <path
         d="m 149.14311,1000.7944 h -4.43071 v -1.58968 c 0,-2.76106 -1.24654,-4.12194 -2.29238,-4.77803 -1.12153,-0.70309 -2.22282,-0.73897 -2.43323,-0.73897 h -38.92734 c -0.83367,0 -1.617163,-0.85429 -2.446436,-1.75898 -1.055524,-1.15159 -2.251891,-2.45609 -4.068012,-2.45609 H 77.173436 c -3.22993,0 -5.665804,2.36297 -5.665804,5.49651 v 59.00734 c 0,3.031 2.541514,5.4965 5.665804,5.4965 h 71.969674 c 3.1243,0 5.66581,-2.4655 5.66581,-5.4965 v -47.6856 c 0,-3.031 -2.54151,-5.4965 -5.66581,-5.4965 z m 3.02482,53.1821 c 0,1.6181 -1.3566,2.9337 -3.02482,2.9337 H 77.173436 c -1.668214,0 -3.024814,-1.3156 -3.024814,-2.9337 v -59.00734 c 0,-1.72652 1.24391,-2.93364 3.024814,-2.93364 h 17.371566 c 0.631193,0 1.342515,0.7757 2.09519,1.59667 1.069594,1.1661 2.400656,2.61755 4.419258,2.61755 h 38.91148 c 0.3988,0.0108 1.53003,0.17939 1.94554,1.67269 H 81.311979 c -3.36738,0.0674 -5.128035,1.77608 -5.128035,5.19307 l 0.154941,46.986 h 1.605714 c 0,0 -0.333205,0 0.0014,0 0.519391,0 1.339413,0.099 2.1053,-0.4831 1.37596,-1.0473 1.434057,-2.4048 1.421744,-2.7764 l -0.0069,-38.6037 c 0,-5.1258 0,-5.1258 5.28198,-5.1258 l 62.396087,0.2418 c 1.6682,0.01 3.02481,1.3164 3.02481,2.9336 v 47.6856 z"
         id="path2-3-3-2"
         sodipodi:nodetypes="scscsscssssssssscsssssscsccccccsccccsscc"
         style="fill:url(#linearGradient3483);fill-opacity:1;stroke-width:0.867212" />
      <g
         id="Chat_1_-1"
         transform="matrix(0.59352538,0,0,0.57692765,106.82239,1015.4342)">
        <path
           id="Chat-7"
           class="st0"
           d="m 60,8 v 4 H 8 v 36 h 24 l 0.2,0.6 C 34.5,55.4 40.8,60 48,60 V 48 h 6 c 5.5,0 10,-4.5 10,-10 V 8 Z M 32,40 H 16 V 36 H 32 Z M 52,32 H 16 v -4 h 36 z m 0,-8 H 16 v -4 h 36 z"
           style="fill:url(#linearGradient1236-4);fill-opacity:1" />
        <path
           id="Chat-s-2"
           class="st1"
           d="m 64,12 v 28 c 0,6.6 -5.4,12 -12,12 h -4 v -4 h 4 c 4.4,0 8,-3.6 8,-8 V 12 Z M 0,12 C 0,7.6 3.6,4 8,4 H 34 V 8 H 8 C 5.8,8 4,9.8 4,12 V 24 H 0 Z M 32,48 H 12 v 4 h 21.8 c -0.6,-1.1 -1.2,-2.2 -1.6,-3.4 z"
           style="fill:#f2f2f2;fill-opacity:1" />
      </g>
    </g>
  </g>
</svg>
