<?xml version="1.0" encoding="UTF-8" standalone="no"?>
<svg
   width="32"
   version="1.1"
   height="32"
   viewBox="0 0 32 32"
   id="svg15"
   sodipodi:docname="folder-deb.svg"
   inkscape:version="1.1.2 (0a00cf5339, 2022-02-04)"
   xmlns:inkscape="http://www.inkscape.org/namespaces/inkscape"
   xmlns:sodipodi="http://sodipodi.sourceforge.net/DTD/sodipodi-0.dtd"
   xmlns="http://www.w3.org/2000/svg"
   xmlns:svg="http://www.w3.org/2000/svg"
   xmlns:rdf="http://www.w3.org/1999/02/22-rdf-syntax-ns#"
   xmlns:cc="http://creativecommons.org/ns#"
   xmlns:dc="http://purl.org/dc/elements/1.1/">
  <sodipodi:namedview
     pagecolor="#ffffff"
     bordercolor="#666666"
     borderopacity="1"
     objecttolerance="10"
     gridtolerance="10"
     guidetolerance="10"
     inkscape:pageopacity="0"
     inkscape:pageshadow="2"
     inkscape:window-width="1920"
     inkscape:window-height="1007"
     id="namedview17"
     showgrid="true"
     inkscape:zoom="9.8125"
     inkscape:cx="0.66242038"
     inkscape:cy="18.140127"
     inkscape:window-x="0"
     inkscape:window-y="0"
     inkscape:window-maximized="1"
     inkscape:current-layer="layer1"
     inkscape:pagecheckerboard="0"
     inkscape:snap-grids="false">
    <inkscape:grid
       type="xygrid"
       id="grid862" />
  </sodipodi:namedview>
  <defs
     id="defs5455" />
  <metadata
     id="metadata5458">
    <rdf:RDF>
      <cc:Work
         rdf:about="">
        <dc:format>image/svg+xml</dc:format>
        <dc:type
           rdf:resource="http://purl.org/dc/dcmitype/StillImage" />
      </cc:Work>
    </rdf:RDF>
  </metadata>
  <g
     inkscape:label="Capa 1"
     inkscape:groupmode="layer"
     id="layer1"
     transform="translate(-384.57143,-515.798)">
    <path
       inkscape:connector-curvature="0"
       id="fill"
       d="m 386.07018,520.29512 v 22.45682 c 0.0543,0.7542 0.49876,1.49712 1.94836,1.49712 h 24.84992 c 1.63066,0 2.18657,-0.24904 2.12941,-1.99616 v -17.96545 c -0.49875,-0.99808 -3.99003,0 -3.99003,-2.99425 -5.98504,-0.49904 -16.95761,0.49904 -16.92209,-2.4952 h -6.02177 c -0.99629,0 -1.9938,0.49904 -1.9938,1.49712 z"
       style="color:#1e92ff;fill:#4e5a7e;fill-opacity:0.3;fill-rule:nonzero;stroke:none;stroke-width:5.24419"
       class="ColorScheme-ButtonFocus"
       sodipodi:nodetypes="cccccccccc" />
    <path
       d="m 413.53095,523.04508 h -1.59567 v -0.58938 c 0,-1.02356 -0.44892,-1.52805 -0.82557,-1.77127 -0.40391,-0.26064 -0.80052,-0.27395 -0.8763,-0.27395 h -14.01923 c -0.30024,0 -0.58241,-0.31669 -0.88106,-0.65207 -0.38013,-0.42691 -0.81099,-0.91051 -1.46505,-0.91051 h -6.25616 c -1.16323,0 -2.04048,0.87599 -2.04048,2.03763 v 21.87485 c 0,1.12364 0.91529,2.03762 2.04048,2.03762 h 25.91904 c 1.12519,0 2.04048,-0.91399 2.04048,-2.03762 v -17.67767 c 0,-1.12364 -0.91529,-2.03763 -2.04048,-2.03763 z m 1.08937,19.7153 c 0,0.59982 -0.48857,1.08753 -1.08937,1.08753 h -25.91904 c -0.60079,0 -1.08936,-0.48771 -1.08936,-1.08753 v -21.87485 c 0,-0.64004 0.44798,-1.08754 1.08936,-1.08754 h 6.25616 c 0.22732,0 0.4835,0.28757 0.75457,0.59191 0.3852,0.43229 0.86456,0.97036 1.59154,0.97036 h 14.01353 c 0.14361,0.004 0.55102,0.0665 0.70066,0.62009 h -21.82602 c -1.21271,0.025 -1.8468,0.65841 -1.8468,1.9252 l 0.0558,17.41829 h 0.57829 c 0,0 -0.12002,10e-4 4.8e-4,10e-4 0.18705,0 0.48237,0.0366 0.75819,-0.17908 0.49553,-0.38826 0.51646,-0.89149 0.51202,-1.02926 l -0.002,-14.31089 c 0,-1.90017 0,-1.90017 1.90225,-1.90017 l 22.47122,0.0896 c 0.60079,0.002 1.08936,0.48803 1.08936,1.08753 v 17.67767 z"
       id="path2-3-3-3-3"
       sodipodi:nodetypes="scscsscssssssssscsssssscsccccccsccccsscc"
       style="fill:#f62459;fill-opacity:1;stroke-width:0.316869" />
    <path
       style="color:#232629;fill:#ff0000;fill-opacity:0.6;stroke:none;stroke-width:0.498897"
       d="m 408.76345,540.75577 c -0.59851,-0.0998 -1.44638,-0.44914 -1.94514,-0.77351 -1.14713,-0.74856 -1.89796,-1.58123 -2.36202,-2.62047 -0.14963,-0.34933 -0.23841,-0.59886 -0.49875,-1.49712 -0.0499,-0.22458 -0.13449,-0.47622 -0.16571,-0.55464 -0.0527,-0.13228 -0.055,-0.17689 -0.032,-0.61809 0.0218,-0.39923 0.0997,-0.99808 0.14963,-1.04599 0.007,-0.0115 0.0247,-0.0143 0.0387,-0.006 0.0469,0.0278 0.0903,-0.1009 0.13283,-0.39457 0.0233,-0.16089 0.06,-0.32961 0.0815,-0.37493 0.0215,-0.0453 0.0579,-0.14538 0.0808,-0.22232 0.053,-0.17708 0.12508,-0.31321 0.34816,-0.65675 0.0981,-0.15109 0.2001,-0.31565 0.22663,-0.3657 0.0312,-0.0589 0.0654,-0.0877 0.0966,-0.0817 0.0302,0.006 0.08,-0.0325 0.13213,-0.10131 0.22682,-0.29953 1.2951,-1.18325 1.39396,-1.15313 0.027,0.008 0.13971,-0.0289 0.2505,-0.0825 0.20041,-0.0969 0.28872,-0.11932 0.28872,-0.0733 0,0.0132 -0.029,0.0434 -0.0644,0.067 -0.0622,0.0413 -0.0609,0.0421 0.0358,0.0196 0.0551,-0.0128 0.14783,-0.0311 0.20611,-0.0406 0.0721,-0.0118 0.10131,-0.029 0.0913,-0.0538 -0.009,-0.0218 0.012,-0.0434 0.0514,-0.0535 0.0984,-0.0253 0.25195,-0.0211 0.25195,0.007 0,0.0336 -0.0877,0.0675 -0.15735,0.0609 -0.0475,-0.005 -0.0499,-5e-4 -0.0143,0.0228 0.0355,0.0233 0.0359,0.0283 0.002,0.0287 -0.0223,2.3e-4 -0.0332,0.007 -0.0242,0.0161 0.009,0.009 0.0687,-0.01 0.13256,-0.0413 0.064,-0.0313 0.18106,-0.0703 0.26025,-0.0866 0.0975,-0.02 0.14399,-0.0433 0.14399,-0.0721 0,-0.037 0.0453,-0.0401 0.35045,-0.0243 0.19276,0.01 0.48362,0.0389 0.64637,0.0645 0.29588,0.0464 0.2959,0.0464 0.40618,-0.0145 0.13226,-0.0731 0.34499,-0.0826 0.40089,-0.0179 0.0205,0.0236 0.0768,0.0627 0.1251,0.0867 0.0788,0.0392 0.084,0.0392 0.0508,5e-4 -0.0634,-0.0733 -4.4e-4,-0.0715 0.24409,0.007 0.78831,0.25352 1.43096,0.70502 1.90784,1.34037 0.11309,0.15067 0.11993,0.21845 0.0128,0.12673 l -0.0614,-0.0525 0.0469,0.0879 c 0.0258,0.0484 0.0469,0.10269 0.0469,0.12075 0,0.0181 0.0759,0.15158 0.16848,0.29668 0.20881,0.32704 0.26722,0.43722 0.25321,0.47758 -0.006,0.0173 -0.0985,-0.0979 -0.20558,-0.25597 -0.10706,-0.15808 -0.26549,-0.37108 -0.35206,-0.47332 -0.12928,-0.15268 -0.16314,-0.1788 -0.18953,-0.14616 -0.0177,0.0218 -0.0608,0.0437 -0.0958,0.0485 l -0.0638,0.009 0.0631,0.11871 c 0.0347,0.0653 0.0677,0.10548 0.0733,0.0893 0.0301,-0.0867 0.17029,0.0273 0.23403,0.19033 0.0206,0.0529 0.0757,0.16178 0.12214,0.242 0.0465,0.0802 0.0787,0.15146 0.0716,0.15834 -0.007,0.007 -0.0496,-0.0151 -0.0942,-0.0489 l -0.0812,-0.0613 0.0554,0.0913 c 0.0305,0.0502 0.0814,0.11163 0.11333,0.13649 0.0397,0.0311 0.0588,0.08 0.0606,0.15622 0.004,0.14065 0.0872,0.30681 0.13281,0.26299 0.0711,-0.0683 0.0858,-0.0256 0.0679,0.19795 -0.0131,0.1647 -0.006,0.27326 0.0251,0.3885 0.0475,0.17496 0.0373,0.21814 -0.0322,0.13637 -0.0442,-0.052 -0.0446,-0.052 -0.0249,0.002 0.0424,0.11568 0.0741,0.28875 0.0653,0.35668 -0.0164,0.12676 -0.066,0.0741 -0.0831,-0.0883 l -0.0167,-0.15848 -0.005,0.16866 c -0.002,0.0928 -0.0254,0.27201 -0.0504,0.39833 -0.0254,0.12759 -0.0382,0.28219 -0.029,0.34784 0.0174,0.12349 0.005,0.12828 -0.1024,0.0398 -0.0437,-0.036 -0.0513,-0.0287 -0.0813,0.0784 -0.0253,0.0902 -0.0251,0.1415 9.9e-4,0.21702 0.0187,0.0544 0.0296,0.1282 0.0241,0.16398 -0.0125,0.0826 -0.0814,0.10831 -0.0814,0.0305 0,-0.0979 -0.0389,-0.0631 -0.15735,0.14135 -0.32014,0.55201 -0.82669,0.97922 -1.40001,1.18073 -0.338,0.1188 -0.5647,0.16285 -0.94587,0.1838 l -0.3433,0.0189 0.16962,0.0503 c 0.13677,0.0405 0.21709,0.0465 0.41482,0.0312 0.25903,-0.0201 0.56319,-0.0741 0.70111,-0.12443 0.0551,-0.0201 0.0922,-0.021 0.11123,-0.003 0.0448,0.043 -0.35356,0.2124 -0.59007,0.25076 -0.40242,0.0653 -0.9411,-0.005 -1.41662,-0.18554 -0.32263,-0.12232 -0.80139,-0.44087 -0.72802,-0.48441 0.0139,-0.008 0.10498,0.0334 0.20241,0.0926 0.12453,0.0756 0.17714,0.0955 0.17714,0.067 0,-0.0538 0.0184,-0.0512 0.11735,0.0164 0.0893,0.0611 0.36416,0.17453 0.5621,0.23202 0.21575,0.0627 0.13209,-0.0133 -0.15735,-0.14287 -0.9152,-0.40969 -1.29513,-0.81948 -1.48448,-1.60109 -0.0695,-0.28662 0.005,-0.91497 0.1316,-1.11175 0.0322,-0.0498 0.0584,-0.11119 0.0584,-0.13628 0,-0.10886 0.18905,-0.39649 0.38304,-0.58277 0.34184,-0.32824 0.69723,-0.4645 1.15859,-0.44422 0.22302,0.01 0.31826,0.0286 0.50387,0.0996 0.21052,0.0805 0.47561,0.24904 0.39443,0.25077 -0.0191,4e-4 -0.10277,-0.0265 -0.18596,-0.0598 -0.12645,-0.0506 -0.20754,-0.0607 -0.49455,-0.0618 -0.40304,-0.001 -0.60003,0.0534 -0.88687,0.24719 -0.40665,0.27475 -0.63278,0.5912 -0.71286,0.99762 -0.0538,0.2727 -0.0554,0.34826 -0.0134,0.61877 0.0242,0.15587 0.0413,0.20161 0.0716,0.19048 0.0254,-0.009 0.0398,0.005 0.0398,0.0378 0,0.0966 0.21892,0.48849 0.37073,0.66367 0.36543,0.42167 0.95653,0.69075 1.51739,0.69075 0.2911,0 0.52641,-0.0537 0.74302,-0.1694 0.087,-0.0465 0.19678,-0.10332 0.24397,-0.1263 0.16655,-0.0811 0.26988,-0.17365 0.39068,-0.35009 0.0672,-0.0981 0.14016,-0.17833 0.16224,-0.17833 0.0326,0 0.0312,0.0142 -0.008,0.0755 -0.1277,0.20237 0.17199,-0.16558 0.32718,-0.4017 l 0.17383,-0.26446 -0.0189,-0.17373 c -0.0182,-0.16694 -0.0156,-0.17713 0.0676,-0.26097 0.0802,-0.0807 0.0873,-0.10464 0.0965,-0.32048 0.008,-0.19318 0.002,-0.23329 -0.0329,-0.23351 -0.0331,-1.9e-4 -0.0472,-0.0511 -0.0614,-0.22003 -0.0188,-0.22361 -0.20841,-0.97604 -0.25256,-1.00224 -0.0133,-0.008 -0.0503,-0.0803 -0.0822,-0.16078 -0.10753,-0.27175 -0.29614,-0.53306 -0.59022,-0.81773 -0.42315,-0.40959 -0.95618,-0.72588 -1.45968,-0.86613 -0.42829,-0.1193 -1.15556,-0.076 -1.6736,0.0996 -0.25282,0.0857 -0.50192,0.19923 -0.54395,0.24786 -0.019,0.0221 -0.0467,0.033 -0.0615,0.0242 -0.0155,-0.009 -0.0113,-0.0338 0.0102,-0.0586 0.0954,-0.11042 -0.22126,0.0917 -0.42512,0.27129 -0.12326,0.10859 -0.22859,0.20074 -0.23408,0.20478 -0.006,0.004 0.0185,1.9e-4 0.0533,-0.009 0.058,-0.0145 0.0604,-0.0107 0.029,0.0457 -0.0202,0.0362 -0.12502,0.1011 -0.25357,0.15709 -0.21599,0.0941 -0.35569,0.19748 -0.46669,0.34542 -0.0443,0.0591 -0.0469,0.0718 -0.0118,0.0589 0.0246,-0.009 0.0447,-0.004 0.0447,0.0127 0,0.0785 -0.0743,0.16604 -0.1842,0.21735 -0.24362,0.11365 -0.67159,0.72074 -0.90085,1.27789 -0.10216,0.24827 -0.10054,0.23965 -0.045,0.23965 0.0586,0 0.0545,0.0639 -0.026,0.40683 -0.11715,0.4996 -0.11728,0.48362 0.0103,1.18648 0.15545,0.85637 0.24627,1.14244 0.41893,1.3197 0.0405,0.0415 0.0799,0.13003 0.0975,0.2189 0.0209,0.1061 0.0562,0.17613 0.12198,0.24278 0.0601,0.0607 0.08,0.098 0.057,0.10609 -0.0452,0.0158 0.0965,0.21863 0.22563,0.32305 0.065,0.0525 0.11319,0.0702 0.16538,0.0606 0.11439,-0.021 0.23086,0.0422 0.40981,0.2226 0.18598,0.1874 0.20461,0.23778 0.0816,0.22044 -0.0794,-0.0112 -0.0812,-0.009 -0.0421,0.0481 0.0225,0.033 0.10535,0.11209 0.18419,0.17592 0.11073,0.0897 0.13924,0.12844 0.12534,0.1705 -0.02,0.0605 0.0371,0.11689 0.16601,0.16425 0.0799,0.0294 0.10575,0.0927 0.0455,0.11194 -0.0182,0.006 0.0944,0.11716 0.25033,0.24741 0.17562,0.14673 0.29378,0.22716 0.31061,0.21145 0.0445,-0.0414 0.10149,-0.0288 0.10252,0.0227 10e-4,0.0563 0.0516,0.11535 0.23324,0.27299 0.1148,0.0996 0.14345,0.11215 0.21381,0.0935 0.0645,-0.017 0.10494,-0.006 0.19568,0.0528 0.18103,0.11751 0.2908,0.16442 0.3848,0.16442 0.0924,0 0.10565,0.0255 0.0577,0.11169 -0.0254,0.0456 -0.02,0.0531 0.0385,0.0531 0.0375,0 0.14289,0.0247 0.23436,0.0549 0.20797,0.0687 0.29472,0.0734 0.2426,0.0131 -0.077,-0.0891 0.005,-0.0648 0.27976,0.0834 0.3844,0.207 0.57886,0.23064 1.34433,0.16348 0.11334,-0.01 0.1502,-0.004 0.1502,0.0236 0,0.0239 -0.0983,0.0597 -0.27893,0.10163 -0.23741,0.0552 -0.36412,0.0658 -0.8511,0.0717 -0.38374,0.005 -0.64586,-0.005 -0.79593,-0.0304 z m -0.39133,-4.11811 c 0,-0.006 -0.0355,-0.0313 -0.0787,-0.0566 l -0.0787,-0.046 0.0676,0.0566 c 0.0659,0.0552 0.0898,0.0675 0.0898,0.046 z m 3.9389,-2.87901 c -0.009,-0.0219 -0.0159,-0.0154 -0.0173,0.0166 -0.002,0.029 0.006,0.0451 0.0151,0.036 0.01,-0.009 0.0105,-0.0328 0.002,-0.0526 z m -6.49217,-2.8811 c 0.0356,-0.0435 0.0346,-0.0445 -0.0109,-0.0104 -0.0275,0.0207 -0.0501,0.0423 -0.0501,0.048 0,0.0226 0.0235,0.008 0.0609,-0.0377 z m 0.32536,-0.2541 c 0.0285,-0.0302 0.0453,-0.0549 0.0375,-0.0549 -0.008,0 -0.0376,0.0247 -0.0661,0.0549 -0.0285,0.0303 -0.0454,0.0549 -0.0375,0.0549 0.008,0 0.0377,-0.0247 0.0661,-0.0549 z m 0.36011,-0.19311 c 0.0943,-0.0307 0.14788,-0.0361 0.16777,-0.017 0.0199,0.0191 0.0937,0.008 0.23103,-0.0355 0.111,-0.0349 0.1967,-0.0684 0.19047,-0.0744 -0.006,-0.006 -0.0976,0.0168 -0.20308,0.0506 -0.14485,0.0464 -0.19697,0.0534 -0.21312,0.0282 -0.0273,-0.0424 -0.28761,0.0412 -0.39951,0.1283 l -0.0765,0.0595 0.0822,-0.0474 c 0.0452,-0.0261 0.14452,-0.0676 0.22073,-0.0924 z m 0.82476,-0.0697 c 0.0831,-0.0237 0.14611,-0.0478 0.14005,-0.0537 -0.0134,-0.0128 -0.30932,0.0685 -0.30932,0.0851 0,0.0166 0.002,0.0162 0.16927,-0.0314 z m 0.47441,-0.14976 0.11445,-0.0201 -0.10014,-0.003 c -0.0551,-10e-4 -0.13231,0.0165 -0.17165,0.0397 -0.0463,0.0273 -0.0514,0.0353 -0.0144,0.0225 0.0315,-0.0108 0.10872,-0.0287 0.17165,-0.0397 z m 0.22723,-0.0518 c 0.009,-0.0136 -0.01,-0.0184 -0.0412,-0.0105 -0.0668,0.0168 -0.0752,0.0354 -0.016,0.0354 0.0227,0 0.0485,-0.0113 0.0573,-0.0249 z m 0.92367,0.008 c -0.01,-0.009 -0.0342,-0.0101 -0.0549,-0.002 -0.0229,0.009 -0.0161,0.0153 0.0173,0.0166 0.0302,10e-4 0.0471,-0.005 0.0376,-0.0144 z m -0.17105,-0.0298 c -0.0276,-0.007 -0.0726,-0.007 -0.10013,0 -0.0276,0.007 -0.005,0.0125 0.0501,0.0125 0.0551,0 0.0777,-0.006 0.0501,-0.0125 z m -0.28534,-0.0285 c -0.0586,-0.006 -0.16158,-0.006 -0.22887,-1.8e-4 -0.0673,0.006 -0.0193,0.0106 0.10653,0.0108 0.12589,10e-5 0.18093,-0.005 0.12234,-0.0106 z m -0.37325,-0.0241 c -0.01,-0.009 -0.0342,-0.0102 -0.0549,-0.002 -0.0229,0.009 -0.0161,0.0152 0.0173,0.0166 0.0302,10e-4 0.0471,-0.005 0.0376,-0.0144 z m -0.19366,6.60277 c -0.2914,-0.20049 -0.39937,-0.30419 -0.39937,-0.38359 0,-0.0421 0.01,-0.0766 0.022,-0.0766 0.0412,0 0.52841,0.48829 0.51776,0.51898 -0.006,0.0178 -0.065,-0.007 -0.14044,-0.0588 z m -0.14995,-0.50905 c -0.15134,-0.14685 -0.19983,-0.22585 -0.13867,-0.22585 0.0368,0 0.31837,0.30961 0.31837,0.35002 0,0.019 -0.004,0.0346 -0.008,0.0346 -0.005,0 -0.0817,-0.0714 -0.17166,-0.15875 z m 1.67449,-0.60115 c -0.0799,-0.0309 -0.0301,-0.0883 0.10013,-0.11514 0.0748,-0.0154 0.19351,-0.0528 0.26393,-0.0831 0.0705,-0.0303 0.13313,-0.0502 0.13935,-0.0442 0.006,0.006 -0.0257,0.067 -0.0709,0.13568 -0.0817,0.12407 -0.0831,0.12482 -0.23947,0.12271 -0.0865,-10e-4 -0.17344,-0.008 -0.19311,-0.0159 z m 0.85825,-0.61449 c -0.0773,-0.0298 -0.0805,-0.0805 -0.0159,-0.25326 0.0554,-0.14836 0.11281,-0.17763 0.0808,-0.0412 -0.0115,0.0491 -0.0269,0.12019 -0.0342,0.15796 l -0.0132,0.0687 0.0572,-0.0625 c 0.0338,-0.037 0.0652,-0.12383 0.0767,-0.21258 0.0108,-0.0825 0.031,-0.14329 0.0449,-0.13502 0.0355,0.021 0.0317,0.23821 -0.007,0.38423 -0.0335,0.12755 -0.0636,0.14242 -0.18971,0.0937 z m -6.76998,-0.34478 c -0.01,-0.0239 -0.0173,-0.11764 -0.0173,-0.20832 0,-0.11964 0.01,-0.16175 0.0358,-0.15352 0.0425,0.0135 0.0675,0.4053 0.0258,0.4053 -0.0148,0 -0.0346,-0.0195 -0.0442,-0.0435 z m 6.88237,-0.64256 c -0.0444,-0.0577 -0.0582,-0.10331 -0.0455,-0.15155 0.0259,-0.099 0.0936,-0.085 0.14358,0.0299 0.0777,0.17864 0.0103,0.26236 -0.0981,0.12168 z m -6.88825,-0.43614 c -0.002,-0.15576 -2e-5,-0.16058 0.0718,-0.15795 0.0609,0.002 0.0755,0.0176 0.0827,0.0866 0.008,0.0778 -0.0802,0.23203 -0.13249,0.23203 -0.0109,0 -0.0207,-0.0723 -0.022,-0.16067 z m 7.41561,-3.37704 c 0.004,-0.24584 0.0471,-0.32912 0.0808,-0.157 0.0235,0.11993 -0.006,0.33172 -0.0518,0.3679 -0.0247,0.0197 -0.0321,-0.034 -0.029,-0.2109 z m -3.75908,-0.14732 c 0.0115,-0.0331 0.40615,-0.18834 0.47895,-0.18834 0.0856,0 -0.0679,0.10063 -0.24485,0.16059 -0.1973,0.0669 -0.24984,0.0731 -0.2341,0.0277 z"
       class="ColorScheme-Text"
       id="path12-6" />
  </g>
</svg>
