<?xml version="1.0" encoding="UTF-8" standalone="no"?>
<svg
   width="32"
   version="1.1"
   height="32"
   viewBox="0 0 32 32"
   id="svg15"
   sodipodi:docname="folder-Reddit.svg"
   inkscape:version="1.1.2 (0a00cf5339, 2022-02-04)"
   xmlns:inkscape="http://www.inkscape.org/namespaces/inkscape"
   xmlns:sodipodi="http://sodipodi.sourceforge.net/DTD/sodipodi-0.dtd"
   xmlns:xlink="http://www.w3.org/1999/xlink"
   xmlns="http://www.w3.org/2000/svg"
   xmlns:svg="http://www.w3.org/2000/svg"
   xmlns:rdf="http://www.w3.org/1999/02/22-rdf-syntax-ns#"
   xmlns:cc="http://creativecommons.org/ns#"
   xmlns:dc="http://purl.org/dc/elements/1.1/">
  <sodipodi:namedview
     pagecolor="#ffffff"
     bordercolor="#666666"
     borderopacity="1"
     objecttolerance="10"
     gridtolerance="10"
     guidetolerance="10"
     inkscape:pageopacity="0"
     inkscape:pageshadow="2"
     inkscape:window-width="1920"
     inkscape:window-height="1007"
     id="namedview17"
     showgrid="true"
     inkscape:zoom="9.8125"
     inkscape:cx="-18.802548"
     inkscape:cy="8.6624204"
     inkscape:window-x="0"
     inkscape:window-y="0"
     inkscape:window-maximized="1"
     inkscape:current-layer="layer1"
     inkscape:document-rotation="0"
     inkscape:pagecheckerboard="0">
    <inkscape:grid
       type="xygrid"
       id="grid847" />
  </sodipodi:namedview>
  <defs
     id="defs5455">
    <linearGradient
       inkscape:collect="always"
       id="linearGradient887">
      <stop
         style="stop-color:#ff2020;stop-opacity:1"
         offset="0"
         id="stop883" />
      <stop
         style="stop-color:#ffb584;stop-opacity:1"
         offset="1"
         id="stop885" />
    </linearGradient>
    <linearGradient
       inkscape:collect="always"
       id="linearGradient991">
      <stop
         style="stop-color:#cccccc;stop-opacity:1"
         offset="0"
         id="stop987" />
      <stop
         style="stop-color:#cccccc;stop-opacity:1"
         offset="0.03132199"
         id="stop1929" />
      <stop
         style="stop-color:#0069a6;stop-opacity:1"
         offset="0.05527586"
         id="stop1263" />
      <stop
         style="stop-color:#0069a6;stop-opacity:1"
         offset="0.10902679"
         id="stop1027" />
      <stop
         style="stop-color:#cccccc;stop-opacity:1"
         offset="1"
         id="stop989" />
    </linearGradient>
    <linearGradient
       inkscape:collect="always"
       xlink:href="#linearGradient991"
       id="linearGradient3483"
       gradientUnits="userSpaceOnUse"
       gradientTransform="matrix(0.49958334,0,0,0.5,192.44677,273.599)"
       x1="386.57144"
       y1="516.39801"
       x2="446.62146"
       y2="516.39801" />
    <linearGradient
       inkscape:collect="always"
       xlink:href="#linearGradient887"
       id="linearGradient1083"
       gradientUnits="userSpaceOnUse"
       x1="419.3212"
       y1="522.77997"
       x2="435.82025"
       y2="522.77997"
       gradientTransform="matrix(0.49875312,0,0,0.5,192.76772,273.899)" />
  </defs>
  <metadata
     id="metadata5458">
    <rdf:RDF>
      <cc:Work
         rdf:about="">
        <dc:format>image/svg+xml</dc:format>
        <dc:type
           rdf:resource="http://purl.org/dc/dcmitype/StillImage" />
      </cc:Work>
    </rdf:RDF>
  </metadata>
  <g
     inkscape:label="Capa 1"
     inkscape:groupmode="layer"
     id="layer1"
     transform="translate(-384.57143,-515.798)">
    <path
       inkscape:connector-curvature="0"
       id="fill"
       d="m 386.07018,520.298 v 22.5 c 0.0543,0.75565 0.49876,1.5 1.94836,1.5 h 24.84991 c 1.63066,0 2.18657,-0.24951 2.12941,-2 v -18 c -0.49875,-1 -3.99002,0 -3.99002,-3 -5.98504,-0.5 -16.95761,0.5 -16.9221,-2.5 h -6.02177 c -0.99628,0 -1.99379,0.5 -1.99379,1.5 z"
       style="color:#1e92ff;fill:#4e5a7e;fill-opacity:0.245606;fill-rule:nonzero;stroke:none;stroke-width:5.24924"
       class="ColorScheme-ButtonFocus"
       sodipodi:nodetypes="cccccccccc" />
    <path
       d="m 413.53095,523.00324 h -1.59567 v -0.5905 c 0,-1.02553 -0.44893,-1.53099 -0.82558,-1.77469 -0.4039,-0.26114 -0.80051,-0.27447 -0.87629,-0.27447 h -14.01924 c -0.30024,0 -0.5824,-0.3173 -0.88105,-0.65333 -0.38013,-0.42773 -0.811,-0.91225 -1.46505,-0.91225 h -6.25617 c -1.16322,0 -2.04047,0.87766 -2.04047,2.04154 v 21.91691 c 0,1.1258 0.91529,2.04155 2.04047,2.04155 h 25.91905 c 1.12518,0 2.04048,-0.91575 2.04048,-2.04155 v -17.71166 c 0,-1.1258 -0.9153,-2.04155 -2.04048,-2.04155 z m 1.08936,19.75321 c 0,0.60098 -0.48857,1.08964 -1.08936,1.08964 H 387.6119 c -0.60079,0 -1.08935,-0.48866 -1.08935,-1.08964 v -21.9169 c 0,-0.64128 0.44798,-1.08964 1.08935,-1.08964 h 6.25617 c 0.22732,0 0.48349,0.28812 0.75456,0.59305 0.38521,0.43312 0.86457,0.97223 1.59154,0.97223 h 14.01353 c 0.14362,0.004 0.55102,0.0666 0.70066,0.62127 h -21.82601 c -1.21273,0.0251 -1.8468,0.65969 -1.8468,1.9289 l 0.0558,17.4518 h 0.57827 c 0,0 -0.12,0.001 4.9e-4,0.001 0.18706,0 0.48238,0.0367 0.7582,-0.17942 0.49554,-0.38902 0.51647,-0.89321 0.51203,-1.03125 l -0.002,-14.3384 c 0,-1.90384 0,-1.90384 1.90225,-1.90384 l 22.47123,0.0898 c 0.60079,0.002 1.08936,0.48896 1.08936,1.08962 v 17.71166 z"
       id="path2-3-3-2"
       sodipodi:nodetypes="scscsscssssssssscsssssscsccccccsccccsscc"
       style="fill:url(#linearGradient3483);fill-opacity:1;stroke-width:0.317173" />
    <path
       class="st1"
       d="m 406.01996,530.04865 c -2.89883,0 -5.23661,2.34362 -5.23661,5.2497 0,2.90608 2.33778,5.24969 5.23661,5.24969 2.89883,0 5.23661,-2.34361 5.23661,-5.24969 h 0.37403 c 0,2.17487 -0.78548,4.08726 -2.52479,5.1372 -0.8977,0.54372 -1.96373,0.86245 -3.08585,0.86245 -3.31029,0 -5.98469,-2.6811 -5.98469,-5.99965 0,-2.24987 1.25304,-4.2185 3.08586,-5.24969 0.8603,-0.46873 1.85151,-0.37498 2.89883,-0.37498 z"
       id="path6-4"
       sodipodi:nodetypes="csscccssccc"
       style="clip-rule:evenodd;fill:#33b4ff;fill-opacity:1;fill-rule:evenodd;stroke-width:0.187255" />
    <path
       class="st2"
       d="m 403.02761,530.1049 c 1.36527,-0.8062 3.01105,-1.01244 4.54463,-0.59997 1.53357,0.41248 2.84273,1.42492 3.62821,2.79359 0.78549,1.36867 1.00992,3.01858 0.59847,4.55599 -0.41145,1.53741 -1.42137,2.84983 -2.78662,3.63729 l -0.37405,-0.65621 c 1.19694,-0.69371 2.07594,-1.8374 2.43128,-3.18732 0.35535,-1.34992 0.18703,-2.77484 -0.52366,-3.97477 -0.69198,-1.19993 -1.8328,-2.08112 -3.17936,-2.43735 -1.32785,-0.37498 -2.76792,-0.1875 -3.96486,0.52497 z"
       id="path8-8"
       style="clip-rule:evenodd;fill:#f0f0f0;fill-opacity:1;fill-rule:evenodd;stroke-width:0.187255" />
    <path
       class="st3"
       d="m 404.57989,537.49197 c 0.0935,-0.13124 0.26183,-0.16874 0.39275,-0.075 0.24312,0.16874 0.57976,0.31873 1.06602,0.31873 0.48626,0 0.80419,-0.16874 1.06602,-0.31873 0.13092,-0.0937 0.29924,-0.0562 0.39275,0.075 0.0935,0.13124 0.0562,0.29998 -0.0748,0.39373 -0.33664,0.20623 -0.76679,0.41247 -1.40266,0.41247 -0.63587,0 -1.06603,-0.20624 -1.36526,-0.43122 -0.13091,-0.075 -0.16832,-0.24374 -0.0748,-0.37498 z m 2.84273,-0.8812 c 0.35534,0 0.65458,-0.29998 0.65458,-0.65621 0,-0.35623 -0.29924,-0.65621 -0.65458,-0.65621 -0.35534,0 -0.65458,0.29998 -0.65458,0.65621 0,0.35623 0.29924,0.65621 0.65458,0.65621 z m -2.80532,0 c 0.35534,0 0.65457,-0.29998 0.65457,-0.65621 0,-0.35623 -0.29923,-0.65621 -0.65457,-0.65621 -0.35535,0 -0.65458,0.29998 -0.65458,0.65621 0,0.35623 0.29923,0.65621 0.65458,0.65621 z m 1.85151,-5.0622 c -0.0935,-0.0188 -0.20573,0 -0.28053,0.0562 -0.0748,0.0563 -0.13091,0.14999 -0.14962,0.24374 l -0.35534,1.94988 c -0.97252,0.0562 -1.85151,0.39373 -2.46869,0.8812 -0.13091,-0.0937 -0.29923,-0.13124 -0.46755,-0.13124 -0.46755,0 -0.8416,0.37498 -0.8416,0.8437 0,0.29998 0.16832,0.56247 0.39275,0.71246 -0.0188,0.11249 -0.0188,0.20624 -0.0188,0.31873 0,1.44367 1.68319,2.62485 3.74043,2.62485 2.05724,0 3.74043,-1.18118 3.74043,-2.62485 0,-0.11249 0,-0.20624 -0.0187,-0.31873 0.24313,-0.14999 0.39275,-0.41248 0.39275,-0.71246 0,-0.46872 -0.37404,-0.8437 -0.84159,-0.8437 -0.16833,0 -0.33664,0.0563 -0.46756,0.13124 -0.59847,-0.48747 -1.44006,-0.8062 -2.39388,-0.8812 l 0.26184,-1.44366 0.86029,0.16874 c 0.0935,0.29998 0.37405,0.50622 0.71069,0.50622 0.41144,0 0.74808,-0.33748 0.74808,-0.74996 0,-0.41247 -0.33664,-0.74995 -0.74808,-0.74995 -0.22443,0 -0.43016,0.0937 -0.56107,0.26248 z"
       id="path10-7"
       style="clip-rule:evenodd;fill:url(#linearGradient1083);fill-opacity:1;fill-rule:evenodd;stroke-width:0.187255" />
  </g>
</svg>
