<?xml version="1.0" encoding="UTF-8" standalone="no"?>
<svg
   width="32"
   version="1.1"
   height="32"
   viewBox="0 0 32 32"
   id="svg15"
   sodipodi:docname="folder-sign.svg"
   inkscape:version="1.1.2 (0a00cf5339, 2022-02-04)"
   xmlns:inkscape="http://www.inkscape.org/namespaces/inkscape"
   xmlns:sodipodi="http://sodipodi.sourceforge.net/DTD/sodipodi-0.dtd"
   xmlns:xlink="http://www.w3.org/1999/xlink"
   xmlns="http://www.w3.org/2000/svg"
   xmlns:svg="http://www.w3.org/2000/svg"
   xmlns:rdf="http://www.w3.org/1999/02/22-rdf-syntax-ns#"
   xmlns:cc="http://creativecommons.org/ns#"
   xmlns:dc="http://purl.org/dc/elements/1.1/">
  <sodipodi:namedview
     pagecolor="#ffffff"
     bordercolor="#666666"
     borderopacity="1"
     objecttolerance="10"
     gridtolerance="10"
     guidetolerance="10"
     inkscape:pageopacity="0"
     inkscape:pageshadow="2"
     inkscape:window-width="1920"
     inkscape:window-height="1007"
     id="namedview17"
     showgrid="true"
     inkscape:zoom="9.8125"
     inkscape:cx="1.477707"
     inkscape:cy="18.140127"
     inkscape:window-x="0"
     inkscape:window-y="0"
     inkscape:window-maximized="1"
     inkscape:current-layer="g4"
     inkscape:pagecheckerboard="0">
    <inkscape:grid
       type="xygrid"
       id="grid862" />
  </sodipodi:namedview>
  <defs
     id="defs5455">
    <linearGradient
       inkscape:collect="always"
       id="linearGradient991">
      <stop
         style="stop-color:#cccccc;stop-opacity:1"
         offset="0"
         id="stop987" />
      <stop
         style="stop-color:#cccccc;stop-opacity:1"
         offset="0.03132199"
         id="stop1929" />
      <stop
         style="stop-color:#0069a6;stop-opacity:1"
         offset="0.05527586"
         id="stop1263" />
      <stop
         style="stop-color:#0069a6;stop-opacity:1"
         offset="0.10902679"
         id="stop1027" />
      <stop
         style="stop-color:#cccccc;stop-opacity:1"
         offset="1"
         id="stop989" />
    </linearGradient>
    <linearGradient
       inkscape:collect="always"
       xlink:href="#linearGradient991"
       id="linearGradient3483"
       gradientUnits="userSpaceOnUse"
       gradientTransform="matrix(1.3871979,0,0,1.3461635,-464.74344,329.31674)"
       x1="386.57144"
       y1="516.39801"
       x2="446.62146"
       y2="516.39801" />
    <linearGradient
       inkscape:collect="always"
       xlink:href="#linearGradient994-5"
       id="linearGradient1045"
       gradientUnits="userSpaceOnUse"
       gradientTransform="matrix(1.3848926,0,0,1.3461635,-464.41855,332.54629)"
       x1="425.88034"
       y1="527.9989"
       x2="416.88034"
       y2="510.99893" />
    <linearGradient
       inkscape:collect="always"
       id="linearGradient994-5">
      <stop
         style="stop-color:#56ddff;stop-opacity:1"
         offset="0"
         id="stop990-6" />
      <stop
         style="stop-color:#263740;stop-opacity:1"
         offset="0"
         id="stop1610-2" />
      <stop
         style="stop-color:#f0f0f0;stop-opacity:1"
         offset="0"
         id="stop1224-9" />
      <stop
         style="stop-color:#f0f0f0;stop-opacity:1"
         offset="1"
         id="stop992-1" />
    </linearGradient>
  </defs>
  <metadata
     id="metadata5458">
    <rdf:RDF>
      <cc:Work
         rdf:about="">
        <dc:format>image/svg+xml</dc:format>
        <dc:type
           rdf:resource="http://purl.org/dc/dcmitype/StillImage" />
      </cc:Work>
    </rdf:RDF>
  </metadata>
  <g
     inkscape:label="Capa 1"
     inkscape:groupmode="layer"
     id="layer1"
     transform="translate(-384.57143,-515.798)">
    <g
       transform="matrix(0.36013848,0,0,0.37142583,359.81878,151.2823)"
       id="g4">
      <path
         inkscape:connector-curvature="0"
         id="fill"
         d="m 72.892525,993.51114 v 60.57736 c 0.150648,2.0345 1.384892,4.0385 5.410027,4.0385 h 69.000988 c 4.52787,0 6.07147,-0.6718 5.91276,-5.3847 v -48.4619 c -1.38489,-2.6923 -11.07914,0 -11.07914,-8.07693 -16.61871,-1.34617 -47.086354,1.34616 -46.987735,-6.73082 H 78.428703 c -2.766393,0 -5.536178,1.34616 -5.536178,4.03849 z"
         style="color:#1e92ff;fill:#4e5a7e;fill-opacity:0.3;fill-rule:nonzero;stroke:none;stroke-width:14.3524"
         class="ColorScheme-ButtonFocus"
         sodipodi:nodetypes="cccccccccc" />
      <path
         d="m 149.14311,1000.7945 h -4.4307 v -1.58979 c 0,-2.76106 -1.24654,-4.12194 -2.29239,-4.77803 -1.12152,-0.70309 -2.22282,-0.73896 -2.43323,-0.73896 h -38.92733 c -0.83368,0 -1.617169,-0.85429 -2.446447,-1.75898 -1.055523,-1.15159 -2.25189,-2.45609 -4.06801,-2.45609 H 77.173435 c -3.229929,0 -5.665803,2.36296 -5.665803,5.49651 v 59.00754 c 0,3.031 2.541514,5.4965 5.665803,5.4965 h 71.969675 c 3.1243,0 5.66582,-2.4655 5.66582,-5.4965 v -47.6857 c 0,-3.031 -2.54152,-5.4965 -5.66582,-5.4965 z m 3.02483,53.1822 c 0,1.618 -1.3566,2.9336 -3.02483,2.9336 H 77.173435 c -1.668213,0 -3.024813,-1.3156 -3.024813,-2.9336 v -59.00754 c 0,-1.72653 1.24391,-2.93364 3.024813,-2.93364 h 17.371568 c 0.631192,0 1.342513,0.7757 2.095189,1.59667 1.069594,1.1661 2.400658,2.61755 4.419268,2.61755 h 38.91148 c 0.39879,0.0107 1.53003,0.17939 1.94554,1.67269 h -60.6045 c -3.367381,0.0674 -5.128036,1.77607 -5.128036,5.19327 l 0.154942,46.9859 h 1.605713 c 0,0 -0.333205,0 0.0014,0 0.519391,0 1.339413,0.099 2.1053,-0.483 1.375961,-1.0474 1.434056,-2.4048 1.421745,-2.7765 l -0.0069,-38.6036 c 0,-5.1258 0,-5.1258 5.28198,-5.1258 l 62.396096,0.2418 c 1.6682,0.01 3.02481,1.3164 3.02481,2.9336 v 47.6856 z"
         id="path2-3-3-2"
         sodipodi:nodetypes="scscsscssssssssscsssssscsccccccsccccsscc"
         style="fill:url(#linearGradient3483);fill-opacity:1;stroke-width:0.867212" />
      <path
         style="color:#232629;fill:url(#linearGradient1045);fill-opacity:1;stroke:none;stroke-width:1.16607"
         d="m 143.55989,1020.7038 c -0.20663,0 -0.41863,0.034 -0.61851,0.1129 -0.10733,0.046 -0.57042,0.3911 -1.02603,0.7683 l -0.82952,0.6927 -0.30056,-0.1276 c -0.42069,-0.1721 -0.82663,-0.2102 -1.20523,-0.1035 -0.26171,0.073 -0.875,0.5646 -4.89898,3.887 -2.53949,2.0945 -4.6045,3.8245 -4.59839,3.8513 0.004,0.021 1.03627,0.5223 2.28332,1.1037 l 2.28038,1.0643 3.00011,-2.482 c 1.65115,-1.3655 3.02492,-2.4705 3.05786,-2.4551 0.10746,0.048 0.30128,1.1215 0.26303,1.4663 -0.0158,0.188 -0.12866,0.5259 -0.2457,0.75 -0.20875,0.4009 -0.23149,0.4244 -3.95098,3.5104 -2.05708,1.7061 -3.76989,3.1551 -3.80065,3.2124 -0.0879,0.1579 0.0111,0.4533 0.20229,0.6227 0.32176,0.2856 1.1176,0.3758 1.56942,0.1723 0.31214,-0.1414 7.67924,-6.2993 7.91351,-6.6203 0.68428,-0.916 0.82598,-2.089 0.39308,-3.243 -0.17105,-0.4581 -0.39473,-0.8984 -0.61274,-1.2114 -0.0634,-0.085 0.0428,-0.1949 0.73121,-0.77 0.65114,-0.5489 0.80043,-0.703 0.81216,-0.8452 0.0255,-0.3026 -0.12298,-0.4709 -0.60115,-0.7017 l -0.44511,-0.2154 0.88443,-0.7374 c 0.725,-0.6103 0.88171,-0.7695 0.89307,-0.9118 0.033,-0.4533 -0.53038,-0.7854 -1.15032,-0.7896 z m -14.89926,10.2294 c -0.0212,0 -2.72757,2.2345 -6.01747,4.9549 -5.2913,4.3809 -6.04395,5.0294 -6.532,5.5868 -0.96946,1.1096 -2.02459,2.8011 -2.72549,4.3466 -0.45422,0.9912 -0.47707,0.9015 0.1561,0.6909 1.95305,-0.655 4.50424,-1.7182 5.98857,-2.5 1.4515,-0.7653 1.69865,-0.9598 7.84708,-6.0442 l 5.91345,-4.8958 -2.29778,-1.0715 c -1.26371,-0.5891 -2.31073,-1.0696 -2.33246,-1.0677 z m 0.66478,11.3384 c -0.29039,-0.012 -0.5894,-0.01 -0.78322,0.018 v 0 c -0.91897,0.1204 -1.94225,0.6149 -2.43653,1.1846 -0.13351,0.1478 -0.3452,0.4829 -0.47685,0.7356 -0.12422,0.2574 -0.23966,0.472 -0.24859,0.4775 -0.0715,0.055 -1.82843,0.3169 -2.86137,0.4271 -2.42836,0.2636 -3.09124,0.362 -3.32953,0.4988 -0.46757,0.2684 -0.1058,0.5386 0.55785,0.4183 0.17603,-0.034 0.92667,-0.1256 1.65034,-0.2028 0.72508,-0.076 1.82781,-0.2196 2.45378,-0.307 0.62741,-0.093 1.15839,-0.1547 1.18501,-0.1381 0.0263,0.016 -0.0785,0.3288 -0.24561,0.6962 l -0.30061,0.6587 -0.66476,0.1812 c -0.36261,0.099 -0.88241,0.2684 -1.15609,0.3842 -0.83023,0.3399 -0.99056,0.767 -0.40755,1.0408 0.31814,0.148 1.20103,0.1426 1.74855,-0.01 0.48543,-0.1369 0.75852,-0.3283 1.13878,-0.8273 0.20272,-0.2581 0.36278,-0.3944 0.48556,-0.4109 0.0978,-0.016 0.97437,-0.1263 1.94518,-0.2531 0.97224,-0.1203 1.8543,-0.2365 1.96825,-0.2531 0.18497,-0.028 0.20357,-0.015 0.14992,0.088 -0.0357,0.067 -0.1955,0.259 -0.36416,0.429 -0.16723,0.1699 -0.30059,0.3722 -0.30059,0.454 0,0.1701 0.23122,0.3403 0.41618,0.2962 0.0715,-0.017 0.16658,-0.033 0.21098,-0.033 0.0449,0 0.23972,-0.088 0.43354,-0.1974 0.36258,-0.2032 1.23707,-1.1967 1.23707,-1.4053 0,-0.1037 0.13295,-0.1301 0.21096,-0.047 0.0263,0.028 0.22747,0.076 0.44798,0.1095 0.30931,0.048 0.39885,0.087 0.39885,0.174 0,0.17 0.4517,0.418 0.84972,0.4666 0.30929,0.034 0.7069,-0.01 1.13008,-0.1148 0.14914,-0.04 0.15877,-0.028 0.10761,0.1148 -0.0357,0.088 -0.29268,0.3682 -0.56649,0.6264 -0.58303,0.5375 -1.28903,1.3928 -1.47395,1.7713 -0.14914,0.3234 -0.0885,0.5653 0.18492,0.6801 0.24712,0.099 0.65255,0.053 0.86417,-0.09 0.18501,-0.1259 1.19368,-1.4467 1.56363,-2.0495 0.26492,-0.4226 0.38767,-0.5381 0.98848,-0.9332 0.49424,-0.3234 0.65566,-0.4005 0.54914,-0.2746 -0.1761,0.2362 -0.16782,0.4165 0.0258,0.5258 0.41433,0.2362 1.01525,0.01 1.53762,-0.5868 0.30924,-0.3511 0.53955,-0.4543 1.68789,-0.7896 l 0.59828,-0.1705 -0.0605,0.2028 c -0.0357,0.1093 -0.23927,0.4226 -0.45088,0.6909 -0.41583,0.543 -0.4928,0.8886 -0.24568,1.1844 0.16721,0.2031 0.34367,0.2097 1.15609,0.035 1.13058,-0.2361 2.60525,-0.7805 2.98853,-1.0928 0.52087,-0.4393 0.68085,-0.8608 0.36418,-1.0033 -0.32705,-0.1479 -0.51196,-0.088 -0.92778,0.2907 -0.55642,0.5156 -1.24461,0.9168 -1.90758,1.1199 -0.30926,0.099 -0.5832,0.1637 -0.60983,0.1472 -0.0357,-0.021 0.67033,-1.2011 1.04916,-1.7552 0.0802,-0.1148 0.14416,-0.258 0.14416,-0.3176 0,-0.1534 -0.31027,-0.3285 -0.57515,-0.3285 -0.12422,0 -0.70891,0.1473 -1.29195,0.3339 -1.21049,0.3731 -1.13011,0.4059 -0.82084,-0.2961 0.18497,-0.4328 0.12395,-0.5486 -0.30056,-0.5761 -0.40697,-0.027 -0.56505,0.056 -0.93645,0.4666 -0.23826,0.2793 -0.55511,0.5104 -1.16478,0.8614 -0.80352,0.4604 -0.83958,0.4765 -1.02601,0.3948 -0.28267,-0.1259 -0.44203,-0.1092 -1.13012,0.1042 -0.67182,0.2085 -0.89349,0.2362 -1.0607,0.1093 -0.14244,-0.1038 0.0805,-0.1589 1.30925,-0.3068 1.19274,-0.1425 1.3411,-0.1822 1.3411,-0.3356 0,-0.2473 -0.3274,-0.4818 -0.91045,-0.6408 -1.00774,-0.2793 -1.11972,-0.2968 -1.56074,-0.2261 -0.47647,0.076 -1.18419,0.499 -1.28036,0.7628 -0.0978,0.2747 -0.39885,0.1918 -0.39885,-0.1094 0,-0.1259 -0.24814,-0.4439 -0.39018,-0.499 -0.30039,-0.1258 -0.78466,0.1488 -1.15613,0.6532 l -0.29192,0.3895 -0.65316,0.088 c -0.84793,0.1148 -3.31175,0.4216 -3.63883,0.4612 -0.21159,0.021 -0.24671,0.012 -0.20231,-0.068 0.0357,-0.055 0.14102,-0.2948 0.24564,-0.542 0.27379,-0.6799 0.35488,-0.7687 0.7515,-0.856 0.4765,-0.1036 2.08567,-0.5326 2.50003,-0.664 0.19387,-0.061 0.59004,-0.2465 0.88157,-0.411 0.89231,-0.5156 1.03229,-0.9932 0.39597,-1.3442 -0.17615,-0.093 -0.40656,-0.1914 -0.51162,-0.2189 -0.16273,-0.04 -0.44371,-0.066 -0.73413,-0.075 z m -0.89018,0.6407 c 0.12242,-0.01 0.26778,0 0.45087,0.01 0.4676,0.016 0.65442,0.044 0.78618,0.131 0.17606,0.1093 0.17563,0.1144 0.017,0.323 -0.10719,0.1314 -0.35255,0.2858 -0.66187,0.4181 -0.53861,0.2307 -2.22707,0.6524 -2.28035,0.5761 -0.0715,-0.1258 0.4702,-0.8782 0.81499,-1.1198 0.34409,-0.2426 0.50496,-0.321 0.87289,-0.3338 z m -4.53478,4.5925 c 0.0676,0 0.0688,0.041 0.0125,0.1077 -0.11481,0.1369 -0.41655,0.2359 -0.58382,0.1973 -0.19381,-0.048 -0.14211,-0.1143 0.16765,-0.2135 0.20342,-0.064 0.3373,-0.095 0.40468,-0.092 z"
         class="ColorScheme-Text"
         id="path12-3" />
    </g>
  </g>
</svg>
