<?xml version="1.0" encoding="UTF-8" standalone="no"?>
<svg
   width="32"
   version="1.1"
   height="32"
   viewBox="0 0 32 32"
   id="svg15"
   sodipodi:docname="folder-KDE.svg"
   inkscape:version="1.1.2 (0a00cf5339, 2022-02-04)"
   xmlns:inkscape="http://www.inkscape.org/namespaces/inkscape"
   xmlns:sodipodi="http://sodipodi.sourceforge.net/DTD/sodipodi-0.dtd"
   xmlns:xlink="http://www.w3.org/1999/xlink"
   xmlns="http://www.w3.org/2000/svg"
   xmlns:svg="http://www.w3.org/2000/svg"
   xmlns:rdf="http://www.w3.org/1999/02/22-rdf-syntax-ns#"
   xmlns:cc="http://creativecommons.org/ns#"
   xmlns:dc="http://purl.org/dc/elements/1.1/">
  <sodipodi:namedview
     pagecolor="#ffffff"
     bordercolor="#666666"
     borderopacity="1"
     objecttolerance="10"
     gridtolerance="10"
     guidetolerance="10"
     inkscape:pageopacity="0"
     inkscape:pageshadow="2"
     inkscape:window-width="1920"
     inkscape:window-height="1007"
     id="namedview17"
     showgrid="false"
     inkscape:zoom="9.8125"
     inkscape:cx="-26.140127"
     inkscape:cy="8.6624204"
     inkscape:window-x="0"
     inkscape:window-y="0"
     inkscape:window-maximized="1"
     inkscape:current-layer="layer1"
     inkscape:document-rotation="0"
     inkscape:pagecheckerboard="0" />
  <defs
     id="defs5455">
    <linearGradient
       inkscape:collect="always"
       id="linearGradient957">
      <stop
         style="stop-color:#80d0ff;stop-opacity:1"
         offset="0"
         id="stop953" />
      <stop
         style="stop-color:#0069a6;stop-opacity:1"
         offset="1"
         id="stop955" />
    </linearGradient>
    <linearGradient
       inkscape:collect="always"
       id="linearGradient991">
      <stop
         style="stop-color:#cccccc;stop-opacity:1"
         offset="0"
         id="stop987" />
      <stop
         style="stop-color:#cccccc;stop-opacity:1"
         offset="0.03132199"
         id="stop1929" />
      <stop
         style="stop-color:#0069a6;stop-opacity:1"
         offset="0.05527586"
         id="stop1263" />
      <stop
         style="stop-color:#0069a6;stop-opacity:1"
         offset="0.10902679"
         id="stop1027" />
      <stop
         style="stop-color:#cccccc;stop-opacity:1"
         offset="1"
         id="stop989" />
    </linearGradient>
    <linearGradient
       inkscape:collect="always"
       xlink:href="#linearGradient991"
       id="linearGradient3483"
       gradientUnits="userSpaceOnUse"
       gradientTransform="matrix(0.49958334,0,0,0.5,192.44677,273.599)"
       x1="386.57144"
       y1="516.39801"
       x2="446.62146"
       y2="516.39801" />
    <linearGradient
       inkscape:collect="always"
       xlink:href="#linearGradient957"
       id="linearGradient1039"
       gradientUnits="userSpaceOnUse"
       gradientTransform="matrix(0.49875312,0,0,0.5,191.82458,273.899)"
       x1="418.86243"
       y1="521.65509"
       x2="439.54556"
       y2="521.65509" />
  </defs>
  <metadata
     id="metadata5458">
    <rdf:RDF>
      <cc:Work
         rdf:about="">
        <dc:format>image/svg+xml</dc:format>
        <dc:type
           rdf:resource="http://purl.org/dc/dcmitype/StillImage" />
      </cc:Work>
    </rdf:RDF>
  </metadata>
  <g
     inkscape:label="Capa 1"
     inkscape:groupmode="layer"
     id="layer1"
     transform="translate(-384.57143,-515.798)">
    <path
       inkscape:connector-curvature="0"
       id="fill"
       d="m 386.07018,520.298 v 22.5 c 0.0543,0.75565 0.49876,1.5 1.94836,1.5 h 24.84991 c 1.63066,0 2.18657,-0.24952 2.12941,-2 v -18 c -0.49875,-1 -3.99002,0 -3.99002,-3 -5.98504,-0.5 -16.95761,0.5 -16.9221,-2.5 h -6.02177 c -0.99628,0 -1.99379,0.5 -1.99379,1.5 z"
       style="color:#1e92ff;fill:#4e5a7e;fill-opacity:0.3;fill-rule:nonzero;stroke:none;stroke-width:5.24924"
       class="ColorScheme-ButtonFocus"
       sodipodi:nodetypes="cccccccccc" />
    <path
       d="m 413.53095,523.00324 h -1.59567 v -0.5905 c 0,-1.02553 -0.44893,-1.531 -0.82558,-1.77469 -0.4039,-0.26114 -0.80051,-0.27447 -0.87629,-0.27447 h -14.01924 c -0.30024,0 -0.58239,-0.3173 -0.88105,-0.65333 -0.38013,-0.42773 -0.811,-0.91225 -1.46505,-0.91225 h -6.25617 c -1.16322,0 -2.04047,0.87766 -2.04047,2.04154 v 21.91691 c 0,1.1258 0.91529,2.04155 2.04047,2.04155 h 25.91905 c 1.12518,0 2.04048,-0.91575 2.04048,-2.04155 v -17.71166 c 0,-1.1258 -0.9153,-2.04155 -2.04048,-2.04155 z m 1.08936,19.75321 c 0,0.60098 -0.48857,1.08963 -1.08936,1.08963 H 387.6119 c -0.60079,0 -1.08935,-0.48865 -1.08935,-1.08963 v -21.91691 c 0,-0.64127 0.44798,-1.08963 1.08935,-1.08963 h 6.25617 c 0.22732,0 0.48349,0.28812 0.75456,0.59305 0.38521,0.43312 0.86457,0.97222 1.59154,0.97222 h 14.01353 c 0.14362,0.004 0.55102,0.0666 0.70067,0.62128 h -21.82602 c -1.21273,0.0251 -1.8468,0.65968 -1.8468,1.9289 l 0.0558,17.4518 h 0.57827 c 0,0 -0.11999,0.001 4.9e-4,0.001 0.18706,0 0.48238,0.0367 0.7582,-0.17942 0.49554,-0.38902 0.51647,-0.89322 0.51203,-1.03125 l -0.002,-14.3384 c 0,-1.90384 0,-1.90384 1.90225,-1.90384 l 22.47123,0.0898 c 0.60079,0.002 1.08936,0.48897 1.08936,1.08963 v 17.71166 z"
       id="path2-3-3-2"
       sodipodi:nodetypes="scscsscssssssssscsssssscsccccccsccccsscc"
       style="fill:url(#linearGradient3483);fill-opacity:1;stroke-width:0.317173" />
    <path
       style="fill:url(#linearGradient1039);fill-opacity:1;stroke-width:0.51638"
       d="m 406.92244,529.298 -2.0629,0.31304 v 7.48062 l 2.0629,-0.5554 v -2.89003 l 2.06295,3.40706 2.0629,-0.77556 -2.57864,-3.10211 2.57965,-3.35958 -2.00147,-0.51804 -2.12539,3.39092 z m -4.20037,2.02871 c -0.0488,0 -0.0976,0.019 -0.13498,0.0565 l -0.81084,0.81287 c -0.0748,0.075 -0.0568,0.18216 0,0.27163 l 0.83906,1.32083 c -0.0621,0.12938 -0.116,0.26261 -0.16118,0.3989 -0.002,0.006 -0.005,0.0113 -0.007,0.017 l -1.52198,0.3393 c -0.10328,0.0231 -0.1914,0.0858 -0.1914,0.19183 v 0.50796 0.50792 c 0,0.10605 0.0881,0.16886 0.1914,0.19187 l 1.52198,0.3393 c 0.003,0.0101 0.009,0.0195 0.0121,0.0291 0.0441,0.13236 0.0962,0.26187 0.15616,0.38775 l -0.83908,1.31982 c -0.0569,0.0895 -0.0748,0.19663 0,0.27162 l 0.81085,0.81291 c 0.0748,0.075 0.19513,0.075 0.26998,0 l 1.31551,-0.84016 c 0.12931,0.063 0.26254,0.1177 0.39887,0.16358 0.009,0.003 0.0171,0.008 0.0261,0.0111 l 0.33745,1.52482 c 0,0.10605 0.0856,0.19186 0.19139,0.19186 h 1.14528 c 0.10579,0 0.16841,-0.0883 0.19135,-0.19186 l 0.33745,-1.57127 c 0.15504,-0.0584 0.30555,-0.12828 0.45026,-0.20902 l 1.28427,0.92096 c 0.0748,0.075 0.19514,0.075 0.26998,0 l 0.81084,-0.81292 c 0.0748,-0.075 0.0569,-0.18213 0,-0.27162 l -0.48852,-0.7432 -0.0514,0.0194 c -0.11617,0.0439 -0.24693,-10e-4 -0.31125,-0.10805 l -0.51371,-0.84824 c -0.428,1.02637 -1.43885,1.74794 -2.61792,1.74794 -1.56658,0 -2.83653,-1.27312 -2.83653,-2.84357 0,-1.20516 0.74925,-2.23269 1.80505,-2.64671 v -0.5665 l -0.004,0.0183 c -0.0115,0.003 -0.0219,0.0102 -0.0333,0.014 -0.13451,0.0449 -0.26606,0.0981 -0.39385,0.15955 l -1.31349,-0.83914 c -0.0373,-0.0374 -0.0862,-0.0566 -0.13499,-0.0566 z"
       class="ColorScheme-Text"
       id="path10-7-7-1" />
    <path
       id="Power-s-5-7"
       class="st1"
       d="m 412.07976,535.8693 v 0 h -0.77362 v 0 c 0,2.57864 -2.58507,4.65318 -5.15727,4.65318 v 0.77552 c 2.99766,0 5.93089,-2.42354 5.93089,-5.4287 z"
       style="fill:#f1f2f3;fill-opacity:1;stroke-width:0.193641"
       sodipodi:nodetypes="ccccccc" />
  </g>
</svg>
