<?xml version="1.0" encoding="UTF-8" standalone="no"?>
<svg
   width="32"
   version="1.1"
   height="32"
   viewBox="0 0 32 32"
   id="svg17"
   sodipodi:docname="folder-network.svg"
   inkscape:version="1.1.2 (0a00cf5339, 2022-02-04)"
   xmlns:inkscape="http://www.inkscape.org/namespaces/inkscape"
   xmlns:sodipodi="http://sodipodi.sourceforge.net/DTD/sodipodi-0.dtd"
   xmlns:xlink="http://www.w3.org/1999/xlink"
   xmlns="http://www.w3.org/2000/svg"
   xmlns:svg="http://www.w3.org/2000/svg"
   xmlns:rdf="http://www.w3.org/1999/02/22-rdf-syntax-ns#"
   xmlns:cc="http://creativecommons.org/ns#"
   xmlns:dc="http://purl.org/dc/elements/1.1/">
  <sodipodi:namedview
     pagecolor="#ffffff"
     bordercolor="#666666"
     borderopacity="1"
     objecttolerance="10"
     gridtolerance="10"
     guidetolerance="10"
     inkscape:pageopacity="0"
     inkscape:pageshadow="2"
     inkscape:window-width="1920"
     inkscape:window-height="1007"
     id="namedview19"
     showgrid="false"
     inkscape:zoom="9.8125"
     inkscape:cx="-21.044586"
     inkscape:cy="5.6050955"
     inkscape:window-x="0"
     inkscape:window-y="0"
     inkscape:window-maximized="1"
     inkscape:current-layer="layer1"
     inkscape:pagecheckerboard="0" />
  <defs
     id="defs5455">
    <linearGradient
       inkscape:collect="always"
       id="linearGradient1011">
      <stop
         style="stop-color:#2ad4ff;stop-opacity:1"
         offset="0"
         id="stop1007" />
      <stop
         style="stop-color:#aa87de;stop-opacity:1"
         offset="1"
         id="stop1009" />
    </linearGradient>
    <linearGradient
       inkscape:collect="always"
       id="linearGradient991">
      <stop
         style="stop-color:#cccccc;stop-opacity:1"
         offset="0"
         id="stop987" />
      <stop
         style="stop-color:#cccccc;stop-opacity:1"
         offset="0.03132199"
         id="stop1929" />
      <stop
         style="stop-color:#0069a6;stop-opacity:1"
         offset="0.05527586"
         id="stop1263" />
      <stop
         style="stop-color:#0069a6;stop-opacity:1"
         offset="0.10902679"
         id="stop1027" />
      <stop
         style="stop-color:#cccccc;stop-opacity:1"
         offset="1"
         id="stop989" />
    </linearGradient>
    <linearGradient
       inkscape:collect="always"
       xlink:href="#linearGradient991"
       id="linearGradient3483"
       gradientUnits="userSpaceOnUse"
       gradientTransform="matrix(0.49958334,0,0,0.5,192.44678,273.599)"
       x1="386.57144"
       y1="516.39801"
       x2="446.62146"
       y2="516.39801" />
    <linearGradient
       inkscape:collect="always"
       xlink:href="#linearGradient1011"
       id="linearGradient1039"
       gradientUnits="userSpaceOnUse"
       x1="418.57144"
       y1="522.79797"
       x2="439.57144"
       y2="522.79797"
       gradientTransform="matrix(0.49875312,0,0,0.5,192.76773,273.899)" />
  </defs>
  <metadata
     id="metadata5458">
    <rdf:RDF>
      <cc:Work
         rdf:about="">
        <dc:format>image/svg+xml</dc:format>
        <dc:type
           rdf:resource="http://purl.org/dc/dcmitype/StillImage" />
      </cc:Work>
    </rdf:RDF>
  </metadata>
  <g
     inkscape:label="Capa 1"
     inkscape:groupmode="layer"
     id="layer1"
     transform="translate(-384.57143,-515.798)">
    <path
       inkscape:connector-curvature="0"
       id="fill"
       d="m 386.07018,520.298 v 22.5 c 0.0543,0.75565 0.49876,1.5 1.94836,1.5 h 24.84991 c 1.63066,0 2.18657,-0.24951 2.12941,-2 v -18 c -0.49875,-1 -3.99002,0 -3.99002,-3 -5.98504,-0.5 -16.95761,0.5 -16.9221,-2.5 h -6.02177 c -0.99628,0 -1.99379,0.5 -1.99379,1.5 z"
       style="color:#1e92ff;fill:#4e5a7e;fill-opacity:0.3;fill-rule:nonzero;stroke:none;stroke-width:5.24924"
       class="ColorScheme-ButtonFocus"
       sodipodi:nodetypes="cccccccccc" />
    <path
       d="m 413.53095,523.00325 h -1.59566 v -0.59051 c 0,-1.02553 -0.44894,-1.53099 -0.82559,-1.77468 -0.4039,-0.26115 -0.80051,-0.27448 -0.87629,-0.27448 h -14.01924 c -0.30024,0 -0.5824,-0.3173 -0.88105,-0.65333 -0.38013,-0.42773 -0.811,-0.91225 -1.46505,-0.91225 h -6.25617 c -1.16322,0 -2.04047,0.87766 -2.04047,2.04155 v 21.9169 c 0,1.12581 0.91529,2.04155 2.04047,2.04155 h 25.91905 c 1.12519,0 2.04048,-0.91574 2.04048,-2.04155 v -17.71166 c 0,-1.1258 -0.91529,-2.04155 -2.04048,-2.04154 z m 1.08936,19.7532 c 0,0.60099 -0.48856,1.08964 -1.08936,1.08964 H 387.6119 c -0.60079,0 -1.08935,-0.48865 -1.08935,-1.08964 v -21.9169 c 0,-0.64128 0.44798,-1.08963 1.08935,-1.08963 h 6.25617 c 0.22732,0 0.48349,0.28811 0.75456,0.59304 0.3852,0.43312 0.86457,0.97223 1.59155,0.97223 h 14.01352 c 0.14362,0.004 0.55102,0.0666 0.70066,0.62128 h -21.82601 c -1.21273,0.025 -1.8468,0.65968 -1.8468,1.9289 l 0.0558,17.45179 h 0.57827 c 0,0 -0.12,0.001 4.9e-4,0.001 0.18706,0 0.48238,0.0367 0.75821,-0.17942 0.49553,-0.38901 0.51645,-0.89321 0.51202,-1.03125 l -0.002,-14.3384 c 0,-1.90384 0,-1.90384 1.90225,-1.90384 l 22.47123,0.0898 c 0.60079,0.002 1.08936,0.48897 1.08936,1.08963 v 17.71167 z"
       id="path2-3-3-2"
       sodipodi:nodetypes="scscsscssssssssscsssssscsccccccsccccsscc"
       style="fill:url(#linearGradient3483);fill-opacity:1;stroke-width:0.317173" />
    <path
       id="Share-7"
       class="st0"
       d="m 412.00535,531.173 c 0,1.03125 -0.84165,1.875 -1.87033,1.875 -1.02868,0 -1.87032,-0.84375 -1.87032,-1.875 0,-1.03125 0.84164,-1.875 1.87032,-1.875 1.02868,0 1.87033,0.84375 1.87033,1.875 z m -6.84539,3.4875 0.69202,-0.4125 -0.39277,-0.6375 -0.69202,0.4125 c -0.33666,-0.375 -0.82294,-0.6 -1.36534,-0.6 -1.02867,0 -1.87032,0.84375 -1.87032,1.875 0,1.03125 0.84165,1.875 1.87032,1.875 1.02868,0 1.87033,-0.84375 1.87033,-1.875 0,-0.225 -0.0374,-0.43125 -0.11222,-0.6375 z m 4.97506,6.6375 c 1.02868,0 1.87033,-0.84375 1.87033,-1.875 0,-1.03125 -0.84165,-1.875 -1.87033,-1.875 -0.54239,0 -1.02868,0.225 -1.36534,0.6 l -0.69202,-0.43125 -0.39276,0.6375 0.69202,0.4125 c -0.0748,0.225 -0.11222,0.43125 -0.11222,0.65625 0,1.03125 0.84164,1.875 1.87032,1.875 z"
       style="fill:url(#linearGradient1039);fill-opacity:1;stroke-width:0.187266" />
    <path
       id="Share-s-5"
       class="st1"
       d="m 408.37692,531.8105 v 0 c 0.13092,0.3375 0.33665,0.6375 0.6172,0.84375 0.31796,0.24375 0.72943,0.39375 1.1409,0.39375 v 0.75 c -0.5798,0 -1.1409,-0.1875 -1.58977,-0.54375 -0.14963,-0.1125 -0.29926,-0.2625 -0.43018,-0.4125 l -2.28179,1.3875 -0.37407,-0.61875 z m -0.69202,6.54375 0.39276,-0.6375 -2.9177,-1.78125 c 0.0748,-0.20625 0.11222,-0.4125 0.11222,-0.6375 0,-0.28125 -0.0748,-0.5625 -0.18703,-0.825 -0.0748,-0.16875 -0.18704,-0.31875 -0.31796,-0.45 l -0.65461,0.4125 c 0.26184,0.20625 0.41147,0.525 0.41147,0.88125 0,0.35625 -0.16833,0.675 -0.41147,0.88125 z m 1.7394,0.1875 -0.65462,-0.4125 c -0.31795,0.35625 -0.50498,0.80625 -0.50498,1.29375 0,1.03125 0.84164,1.875 1.87032,1.875 v -0.75 c -0.61721,0 -1.12219,-0.50625 -1.12219,-1.125 0,-0.35625 0.16833,-0.675 0.41147,-0.88125 z"
       style="fill:#f2f2f2;fill-opacity:1;stroke-width:0.187266" />
  </g>
</svg>
