<?xml version="1.0" encoding="UTF-8" standalone="no"?>
<svg
   width="32"
   version="1.1"
   height="32"
   viewBox="0 0 32 32"
   id="svg15"
   sodipodi:docname="folder-appimage.svg"
   inkscape:version="1.1.2 (0a00cf5339, 2022-02-04)"
   xmlns:inkscape="http://www.inkscape.org/namespaces/inkscape"
   xmlns:sodipodi="http://sodipodi.sourceforge.net/DTD/sodipodi-0.dtd"
   xmlns:xlink="http://www.w3.org/1999/xlink"
   xmlns="http://www.w3.org/2000/svg"
   xmlns:svg="http://www.w3.org/2000/svg"
   xmlns:rdf="http://www.w3.org/1999/02/22-rdf-syntax-ns#"
   xmlns:cc="http://creativecommons.org/ns#"
   xmlns:dc="http://purl.org/dc/elements/1.1/">
  <sodipodi:namedview
     pagecolor="#ffffff"
     bordercolor="#666666"
     borderopacity="1"
     objecttolerance="10"
     gridtolerance="10"
     guidetolerance="10"
     inkscape:pageopacity="0"
     inkscape:pageshadow="2"
     inkscape:window-width="1920"
     inkscape:window-height="1007"
     id="namedview17"
     showgrid="true"
     inkscape:zoom="9.8125"
     inkscape:cx="-0.15286624"
     inkscape:cy="18.140127"
     inkscape:window-x="0"
     inkscape:window-y="0"
     inkscape:window-maximized="1"
     inkscape:current-layer="g4"
     inkscape:pagecheckerboard="0">
    <inkscape:grid
       type="xygrid"
       id="grid862" />
  </sodipodi:namedview>
  <defs
     id="defs5455">
    <linearGradient
       inkscape:collect="always"
       xlink:href="#linearGradient991"
       id="linearGradient3483"
       gradientUnits="userSpaceOnUse"
       gradientTransform="matrix(1.3871978,0,0,1.346164,-464.74347,329.31651)"
       x1="386.57144"
       y1="516.39801"
       x2="446.62146"
       y2="516.39801" />
    <linearGradient
       inkscape:collect="always"
       id="linearGradient991">
      <stop
         style="stop-color:#cccccc;stop-opacity:1"
         offset="0"
         id="stop987" />
      <stop
         style="stop-color:#cccccc;stop-opacity:1"
         offset="0.03132199"
         id="stop1929" />
      <stop
         style="stop-color:#0069a6;stop-opacity:1"
         offset="0.05527586"
         id="stop1263" />
      <stop
         style="stop-color:#0069a6;stop-opacity:1"
         offset="0.10902679"
         id="stop1027" />
      <stop
         style="stop-color:#cccccc;stop-opacity:1"
         offset="1"
         id="stop989" />
    </linearGradient>
    <linearGradient
       inkscape:collect="always"
       xlink:href="#linearGradient994"
       id="linearGradient1045"
       gradientUnits="userSpaceOnUse"
       gradientTransform="matrix(1.3848926,0,0,1.346164,-461.46033,331.42191)"
       x1="431.57144"
       y1="509.798"
       x2="431.57144"
       y2="533.79797" />
    <linearGradient
       inkscape:collect="always"
       id="linearGradient994">
      <stop
         style="stop-color:#00d4aa;stop-opacity:1"
         offset="0"
         id="stop990" />
      <stop
         style="stop-color:#00aad4;stop-opacity:1"
         offset="0.37289742"
         id="stop1224" />
      <stop
         style="stop-color:#f0f0f0;stop-opacity:1"
         offset="0.45780349"
         id="stop1290" />
      <stop
         style="stop-color:#f0f0f0;stop-opacity:1"
         offset="1"
         id="stop992" />
    </linearGradient>
  </defs>
  <metadata
     id="metadata5458">
    <rdf:RDF>
      <cc:Work
         rdf:about="">
        <dc:format>image/svg+xml</dc:format>
        <dc:type
           rdf:resource="http://purl.org/dc/dcmitype/StillImage" />
      </cc:Work>
    </rdf:RDF>
  </metadata>
  <g
     inkscape:label="Capa 1"
     inkscape:groupmode="layer"
     id="layer1"
     transform="translate(-384.57143,-515.798)">
    <g
       transform="matrix(0.36013848,0,0,0.37142583,359.81878,151.2823)"
       id="g4">
      <path
         inkscape:connector-curvature="0"
         id="fill"
         d="m 72.892525,993.51115 v 60.57745 c 0.150649,2.0345 1.384893,4.0385 5.410027,4.0385 h 69.000978 c 4.52786,0 6.07146,-0.6718 5.91275,-5.3847 v -48.4619 c -1.38489,-2.6924 -11.07914,0 -11.07914,-8.07703 -16.6187,-1.34616 -47.086333,1.34617 -46.987714,-6.73082 H 78.428702 c -2.766392,0 -5.536177,1.34617 -5.536177,4.0385 z"
         style="color:#1e92ff;fill:#4e5a7e;fill-opacity:0.3;fill-rule:nonzero;stroke:none;stroke-width:14.3525"
         class="ColorScheme-ButtonFocus"
         sodipodi:nodetypes="cccccccccc" />
      <path
         d="m 149.14309,1000.7946 h -4.43069 v -1.58988 c 0,-2.76106 -1.24655,-4.12194 -2.29239,-4.77803 -1.12153,-0.70309 -2.22282,-0.73897 -2.43323,-0.73897 h -38.92733 c -0.83368,0 -1.617162,-0.85429 -2.446436,-1.75898 -1.055524,-1.15159 -2.251891,-2.45609 -4.068011,-2.45609 H 77.173436 c -3.22993,0 -5.665804,2.36297 -5.665804,5.49651 v 59.00754 c 0,3.0311 2.541514,5.4965 5.665804,5.4965 h 71.969654 c 3.12431,0 5.66582,-2.4654 5.66582,-5.4965 v -47.6856 c 0,-3.0311 -2.54151,-5.4965 -5.66582,-5.4965 z m 3.02483,53.1821 c 0,1.6181 -1.3566,2.9337 -3.02483,2.9337 H 77.173436 c -1.668214,0 -3.024813,-1.3156 -3.024813,-2.9337 v -59.00754 c 0,-1.72652 1.24391,-2.93364 3.024813,-2.93364 h 17.371567 c 0.631193,0 1.342515,0.7757 2.09519,1.59667 1.069595,1.1661 2.400656,2.61755 4.419257,2.61755 h 38.91147 c 0.3988,0.0108 1.53003,0.17939 1.94554,1.67269 H 81.31198 c -3.367381,0.0674 -5.128036,1.77608 -5.128036,5.19327 l 0.154942,46.986 h 1.605713 c 0,0 -0.333205,0 0.0013,0 0.51939,0 1.339413,0.099 2.1053,-0.4831 1.37596,-1.0473 1.434056,-2.4048 1.421744,-2.7764 l -0.0069,-38.6038 c 0,-5.1257 0,-5.1257 5.281981,-5.1257 l 62.396076,0.2417 c 1.6682,0.01 3.02481,1.3165 3.02481,2.9337 v 47.6856 z"
         id="path2-3-3-2"
         sodipodi:nodetypes="scscsscssssssssscsssssscsccccccsccccsscc"
         style="fill:url(#linearGradient3483);fill-opacity:1;stroke-width:0.867212" />
      <path
         style="color:#232629;fill:url(#linearGradient1045);fill-opacity:1;stroke:none;stroke-width:1.48964"
         d="m 132.94645,1017.7421 v 5.8741 h -3.02157 l 6.04312,6.4134 6.04312,-6.4134 h -3.02156 v -5.8741 z m 1.51091,14.6853 v 1.6178 c -0.94588,0.1895 -1.84455,0.5544 -2.65,1.0727 l -1.18028,-1.1473 -2.13614,2.0768 1.18027,1.1472 c -0.53179,0.7827 -0.90428,1.6565 -1.09788,2.5756 h -1.67 v 2.9371 h 1.66431 c 0.19471,0.9194 0.57011,1.793 1.10357,2.5759 l -1.18027,1.1473 2.13614,2.0764 1.18028,-1.1473 c 0.80545,0.5169 1.70412,0.879 2.65,1.0672 v 1.6233 h 3.02156 v -1.6178 c 0.94561,-0.1892 1.84455,-0.5541 2.64973,-1.0727 l 1.18027,1.1473 2.13642,-2.0764 -1.18027,-1.1473 c 0.5318,-0.7829 0.90428,-1.6565 1.09761,-2.5759 h 1.67027 v -2.9371 h -1.6643 c -0.195,-0.9191 -0.5704,-1.7929 -1.10358,-2.5756 l 1.18027,-1.1472 -2.13642,-2.0768 -1.18027,1.1473 c -0.80518,-0.5169 -1.70412,-0.879 -2.64973,-1.0669 v -1.6236 z m 1.51064,4.4058 c 2.50313,0 4.53248,1.9726 4.53248,4.4057 0,2.4331 -2.02935,4.4055 -4.53248,4.4055 -2.50312,0 -4.5322,-1.9724 -4.5322,-4.4055 0,-2.4331 2.02908,-4.4057 4.5322,-4.4057 z"
         class="ColorScheme-Text"
         id="path12-3" />
    </g>
  </g>
</svg>
