<?xml version="1.0" encoding="UTF-8" standalone="no"?>
<svg
   height="32"
   width="32"
   version="1.1"
   id="svg25"
   sodipodi:docname="folder-games.svg"
   inkscape:version="1.1.2 (0a00cf5339, 2022-02-04)"
   xmlns:inkscape="http://www.inkscape.org/namespaces/inkscape"
   xmlns:sodipodi="http://sodipodi.sourceforge.net/DTD/sodipodi-0.dtd"
   xmlns:xlink="http://www.w3.org/1999/xlink"
   xmlns="http://www.w3.org/2000/svg"
   xmlns:svg="http://www.w3.org/2000/svg"
   xmlns:rdf="http://www.w3.org/1999/02/22-rdf-syntax-ns#"
   xmlns:cc="http://creativecommons.org/ns#"
   xmlns:dc="http://purl.org/dc/elements/1.1/">
  <metadata
     id="metadata31">
    <rdf:RDF>
      <cc:Work
         rdf:about="">
        <dc:format>image/svg+xml</dc:format>
        <dc:type
           rdf:resource="http://purl.org/dc/dcmitype/StillImage" />
      </cc:Work>
    </rdf:RDF>
  </metadata>
  <defs
     id="defs29">
    <linearGradient
       inkscape:collect="always"
       id="linearGradient870">
      <stop
         style="stop-color:#ff9cff;stop-opacity:1"
         offset="0"
         id="stop866" />
      <stop
         style="stop-color:#ffb584;stop-opacity:1"
         offset="1"
         id="stop868" />
    </linearGradient>
    <linearGradient
       inkscape:collect="always"
       id="linearGradient991">
      <stop
         style="stop-color:#cccccc;stop-opacity:1"
         offset="0"
         id="stop987" />
      <stop
         style="stop-color:#cccccc;stop-opacity:1"
         offset="0.03132199"
         id="stop1929" />
      <stop
         style="stop-color:#0069a6;stop-opacity:1"
         offset="0.05527586"
         id="stop1263" />
      <stop
         style="stop-color:#0069a6;stop-opacity:1"
         offset="0.10902679"
         id="stop1027" />
      <stop
         style="stop-color:#cccccc;stop-opacity:1"
         offset="1"
         id="stop989" />
    </linearGradient>
    <linearGradient
       inkscape:collect="always"
       xlink:href="#linearGradient991"
       id="linearGradient3483"
       gradientUnits="userSpaceOnUse"
       gradientTransform="matrix(0.49958334,0,0,0.49999999,-192.12465,-242.199)"
       x1="386.57144"
       y1="516.39801"
       x2="446.62146"
       y2="516.39801" />
    <linearGradient
       inkscape:collect="always"
       xlink:href="#linearGradient870"
       id="linearGradient1121"
       gradientUnits="userSpaceOnUse"
       gradientTransform="matrix(0.49875312,0,0,0.49999999,0.052369,0.50000001)"
       x1="29.4"
       y1="39.599998"
       x2="55"
       y2="39.599998" />
  </defs>
  <sodipodi:namedview
     pagecolor="#ffffff"
     bordercolor="#666666"
     borderopacity="1"
     objecttolerance="10"
     gridtolerance="10"
     guidetolerance="10"
     inkscape:pageopacity="0"
     inkscape:pageshadow="2"
     inkscape:window-width="1920"
     inkscape:window-height="1007"
     id="namedview27"
     showgrid="false"
     inkscape:zoom="9.8125"
     inkscape:cx="-8"
     inkscape:cy="19.363057"
     inkscape:window-x="0"
     inkscape:window-y="0"
     inkscape:window-maximized="1"
     inkscape:current-layer="svg25"
     inkscape:pagecheckerboard="0" />
  <linearGradient
     id="a"
     gradientUnits="userSpaceOnUse"
     x2="0"
     y1="29"
     y2="8">
    <stop
       offset="0"
       stop-color="#3daee9"
       id="stop2" />
    <stop
       offset="1"
       stop-color="#6cc1ef"
       id="stop4" />
  </linearGradient>
  <path
     inkscape:connector-curvature="0"
     id="fill"
     d="M 1.498753,4.5 V 27 c 0.05425,0.755655 0.498753,1.5 1.948359,1.5 h 24.84991 c 1.630659,0 2.186569,-0.249515 2.129412,-2 V 8.4999999 c -0.498753,-1 -3.990025,0 -3.990025,-2.9999999 C 20.451372,5 9.478803,6 9.514319,3 H 3.492544 C 2.496259,3 1.498753,3.5 1.498753,4.5 Z"
     style="color:#1e92ff;fill:#4e5a7e;fill-opacity:0.3;fill-rule:nonzero;stroke:none;stroke-width:5.24924"
     class="ColorScheme-ButtonFocus"
     sodipodi:nodetypes="cccccccccc" />
  <path
     d="M 28.959521,7.2052449 H 27.363855 V 6.6147399 C 27.363855,5.58921 26.914928,5.083745 26.538279,4.840055 26.134374,4.57891 25.737756,4.565585 25.66198,4.565585 H 11.642748 c -0.300239,0 -0.582404,-0.317305 -0.881057,-0.65333 C 10.381556,3.484525 9.950698,3 9.296643,3 H 3.040474 C 1.877252,3 1,3.877665 1,5.041545 v 21.91691 C 1,28.084255 1.915297,29 3.040474,29 H 28.959521 C 30.084703,29 31,28.084255 31,26.958455 V 9.2467899 c 0,-1.1258 -0.915297,-2.041545 -2.040479,-2.041545 z m 1.089357,19.7532101 c 0,0.60098 -0.488564,1.08963 -1.089357,1.08963 H 3.040474 c -0.600788,0 -1.089352,-0.48865 -1.089352,-1.08963 V 5.041545 c 0,-0.641275 0.44798,-1.08963 1.089352,-1.08963 h 6.256169 c 0.227317,0 0.483492,0.288115 0.754559,0.593045 0.385202,0.43312 0.864569,0.972225 1.591546,0.972225 h 14.013521 c 0.143621,0.004 0.551023,0.06663 0.700664,0.62128 H 4.530923 C 3.3182,6.163515 2.68412,6.7981449 2.68412,8.0673649 L 2.73992,25.51916 H 3.3182 c 0,0 -0.12,0.001 4.83e-4,0.001 0.187053,0 0.482374,0.03665 0.7582,-0.17942 0.495536,-0.389015 0.516459,-0.893215 0.512025,-1.031245 L 4.586408,9.9710895 c 0,-1.9038346 0,-1.9038346 1.902244,-1.9038346 l 22.471232,0.0898 c 0.600783,0.0025 1.089352,0.488965 1.089352,1.089625 V 26.958345 Z"
     id="path2-3-3-2"
     sodipodi:nodetypes="scscsscssssssssscsssssscsccccccsccccsscc"
     style="fill:url(#linearGradient3483);fill-opacity:1;stroke-width:0.317173" />
  <path
     id="Game-8-2"
     class="st0"
     d="m 16.710723,17.5 v 0.8 h -0.798005 v 0.8 h 0.798005 v 0.8 h 0.798005 v -0.8 h 0.798005 v -0.8 h -0.798005 v -0.8 z m 7.581048,1.4 c 0,0.34 -0.259352,0.6 -0.598504,0.6 -0.339152,0 -0.598504,-0.26 -0.598504,-0.6 0,-0.34 0.259352,-0.6 0.598504,-0.6 0.339152,0 0.598504,0.26 0.598504,0.6 z m 1.795511,0.6 c 0.339152,0 0.598504,-0.26 0.598504,-0.6 0,-0.34 -0.259352,-0.6 -0.598504,-0.6 -0.339152,0 -0.598504,0.26 -0.598504,0.6 0,0.34 0.259352,0.6 0.598504,0.6 z m -0.598504,0.6 c 0,0.34 -0.259352,0.6 -0.598504,0.6 -0.339152,0 -0.598503,-0.26 -0.598503,-0.6 0,-0.34 0.259351,-0.6 0.598503,-0.6 0.339152,0 0.598504,0.26 0.598504,0.6 z m 0,-2.4 c 0,0.34 -0.259352,0.6 -0.598504,0.6 -0.339152,0 -0.598503,-0.26 -0.598503,-0.6 0,-0.34 0.259351,-0.6 0.598503,-0.6 0.339152,0 0.598504,0.26 0.598504,0.6 z m -10.773067,0.6 v 5.2 c 0,0.66 0.538653,1.2 1.197007,1.2 h 0.359102 c 0.758105,0 1.45636,-0.42 1.775562,-1.1 l 1.057356,-2.1 h 3.990025 l 1.236908,2.46 c 0.219451,0.44 0.678304,0.74 1.177057,0.74 1.097257,0 1.975063,-0.88 1.975063,-1.98 V 17.9 c 0,-1.1 -0.897756,-2 -1.995013,-2 h -1.59601 l -0.798005,0.8 h -3.990025 l -0.798005,-0.8 h -1.197007 c -1.316709,0 -2.394015,1.08 -2.394015,2.4 z"
     style="clip-rule:evenodd;fill:url(#linearGradient1121);fill-opacity:1;fill-rule:evenodd;stroke-width:0.19975" />
  <path
     id="Game-s-7-2"
     class="st1"
     d="m 23.892768,13.5 v 0.4 c 0,0.66 -0.538653,1.2 -1.197007,1.2 h -0.798005 c -0.219452,0 -0.399003,0.18 -0.399003,0.4 v 0.4 h -0.798005 v -0.4 c 0,-0.66 0.538653,-1.2 1.197008,-1.2 h 0.798005 c 0.219451,0 0.399002,-0.18 0.399002,-0.4 v -0.4 z m 1.59601,11.2 v 0.8 c 1.097257,0 1.995013,-0.9 1.995013,-2 v -2.8 h -0.798005 v 2.8 c 0,0.66 -0.538654,1.2 -1.197008,1.2 z m -2.593516,-3.6 h -4.428928 l -1.456359,2.94 c -0.199501,0.4 -0.618454,0.66 -1.077307,0.66 h -0.01995 v 0.8 h 0.01995 c 0.758105,0 1.456359,-0.42 1.775561,-1.1 l 1.236908,-2.5 h 4.349127 z"
     style="fill:#f2f2f2;fill-opacity:1;stroke-width:0.19975" />
</svg>
