<?xml version="1.0" encoding="UTF-8" standalone="no"?>
<svg
   width="32"
   version="1.1"
   height="32"
   viewBox="0 0 32 32"
   id="svg15"
   sodipodi:docname="folder-rpm.svg"
   inkscape:version="1.1.2 (0a00cf5339, 2022-02-04)"
   xmlns:inkscape="http://www.inkscape.org/namespaces/inkscape"
   xmlns:sodipodi="http://sodipodi.sourceforge.net/DTD/sodipodi-0.dtd"
   xmlns:xlink="http://www.w3.org/1999/xlink"
   xmlns="http://www.w3.org/2000/svg"
   xmlns:svg="http://www.w3.org/2000/svg"
   xmlns:rdf="http://www.w3.org/1999/02/22-rdf-syntax-ns#"
   xmlns:cc="http://creativecommons.org/ns#"
   xmlns:dc="http://purl.org/dc/elements/1.1/">
  <sodipodi:namedview
     pagecolor="#ffffff"
     bordercolor="#666666"
     borderopacity="1"
     objecttolerance="10"
     gridtolerance="10"
     guidetolerance="10"
     inkscape:pageopacity="0"
     inkscape:pageshadow="2"
     inkscape:window-width="1920"
     inkscape:window-height="1007"
     id="namedview17"
     showgrid="false"
     inkscape:zoom="9.8125"
     inkscape:cx="-14.11465"
     inkscape:cy="8.0509554"
     inkscape:window-x="0"
     inkscape:window-y="0"
     inkscape:window-maximized="1"
     inkscape:current-layer="g4261"
     inkscape:pagecheckerboard="0" />
  <defs
     id="defs5455">
    <linearGradient
       inkscape:collect="always"
       id="linearGradient1243">
      <stop
         style="stop-color:#d40000;stop-opacity:1"
         offset="0"
         id="stop1239" />
      <stop
         style="stop-color:#ffaaaa;stop-opacity:1"
         offset="1"
         id="stop1241" />
    </linearGradient>
    <linearGradient
       inkscape:collect="always"
       xlink:href="#linearGradient1243"
       id="linearGradient849"
       gradientUnits="userSpaceOnUse"
       x1="0"
       y1="30"
       x2="64"
       y2="30" />
  </defs>
  <metadata
     id="metadata5458">
    <rdf:RDF>
      <cc:Work
         rdf:about="">
        <dc:format>image/svg+xml</dc:format>
        <dc:type
           rdf:resource="http://purl.org/dc/dcmitype/StillImage" />
      </cc:Work>
    </rdf:RDF>
  </metadata>
  <g
     inkscape:label="Capa 1"
     inkscape:groupmode="layer"
     id="g4261"
     transform="translate(-384.57143,-515.798)">
    <path
       inkscape:connector-curvature="0"
       id="fill"
       d="m 386.07018,520.348 v 22.5 c 0.0543,0.75565 0.49876,1.5 1.94836,1.5 h 24.84991 c 1.63066,0 2.18657,-0.24952 2.12941,-2 v -18 c -0.49875,-1 -3.99002,0 -3.99002,-3 -5.98504,-0.5 -16.95761,0.5 -16.9221,-2.5 h -6.02177 c -0.99628,0 -1.99379,0.5 -1.99379,1.5 z"
       style="color:#1e92ff;fill:#4e5a7e;fill-opacity:0.3;fill-rule:nonzero;stroke:none;stroke-width:5.24924"
       class="ColorScheme-ButtonFocus"
       sodipodi:nodetypes="cccccccccc" />
    <path
       d="m 413.53095,523.00324 h -1.59567 v -0.5905 c 0,-1.02553 -0.44893,-1.531 -0.82558,-1.77469 -0.4039,-0.26114 -0.80051,-0.27447 -0.87629,-0.27447 h -14.01924 c -0.30024,0 -0.58239,-0.3173 -0.88105,-0.65333 -0.38013,-0.42773 -0.811,-0.91225 -1.46505,-0.91225 h -6.25617 c -1.16322,0 -2.04047,0.87766 -2.04047,2.04155 v 21.9169 c 0,1.12581 0.91529,2.04155 2.04047,2.04155 h 25.91905 c 1.12518,0 2.04048,-0.91575 2.04048,-2.04155 v -17.71166 c 0,-1.1258 -0.9153,-2.04155 -2.04048,-2.04155 z m 1.08936,19.75321 c 0,0.60098 -0.48857,1.08963 -1.08936,1.08963 H 387.6119 c -0.60079,0 -1.08935,-0.48865 -1.08935,-1.08963 v -21.9169 c 0,-0.64128 0.44798,-1.08964 1.08935,-1.08964 h 6.25617 c 0.22732,0 0.48349,0.28812 0.75456,0.59305 0.38521,0.43312 0.86457,0.97223 1.59154,0.97223 h 14.01353 c 0.14362,0.004 0.55102,0.0666 0.70067,0.62127 h -21.82602 c -1.21273,0.0251 -1.8468,0.65968 -1.8468,1.9289 l 0.0558,17.4518 h 0.57827 c 0,0 -0.11999,0.001 4.9e-4,0.001 0.18706,0 0.48238,0.0367 0.7582,-0.17942 0.49554,-0.38902 0.51647,-0.89322 0.51203,-1.03125 l -0.002,-14.3384 c 0,-1.90384 0,-1.90384 1.90225,-1.90384 l 22.47123,0.0898 c 0.60079,0.002 1.08936,0.48897 1.08936,1.08963 v 17.71166 z"
       id="path2-3-3-5"
       sodipodi:nodetypes="scscsscssssssssscsssssscsccccccsccccsscc"
       style="fill:#eb0a42;fill-opacity:1;stroke-width:0.317173" />
    <g
       id="Dashboard_1_-3"
       transform="matrix(0.17812611,0,0,0.17857143,401.26434,530.16943)">
      <path
         id="Dashboard-5"
         class="st0"
         d="M 58.8,44 C 59.6,41.5 60,38.8 60,36 60,20.5 47.5,8 32,8 16.5,8 4,20.5 4,36 c 0,2.8 0.4,5.5 1.2,8 H 20 c 0,-6.6 5.4,-12 12,-12 6.6,0 12,5.4 12,12 z M 64,36 c 0,6 -1.6,11.5 -4.5,16.3 L 54,56 H 7 C 2.6,50.5 0,43.6 0,36 0,18.3 14.3,4 32,4 49.7,4 64,18.3 64,36 Z"
         style="fill:url(#linearGradient849);fill-opacity:1" />
      <path
         id="Dashboard-s-6"
         class="st1"
         d="m 22.1,14.2 c 2.2,-1 4.5,-1.6 6.8,-1.9 l 0.5,4 c -2,0.3 -3.9,0.8 -5.7,1.6 -2.2,1 -4.2,2.4 -5.9,4.1 L 15,19 c 2.1,-2 4.4,-3.7 7.1,-4.8 z m 13,-2 -0.5,4 c 1.9,0.3 3.8,0.8 5.6,1.6 2.5,1.1 4.7,2.7 6.5,4.7 L 29.6,39.6 32.4,42.4 52,22.8 v 0 c -0.6,-0.9 -1.3,-1.8 -2,-2.6 -2.3,-2.6 -5,-4.6 -8.1,-6 -2.2,-1 -4.5,-1.7 -6.8,-2 z M 9,29.1 C 8,32.4 7.7,35.8 8.2,39.2 l 4,-0.5 c -0.4,-2.8 -0.1,-5.7 0.7,-8.4 0.4,-1.5 1.1,-2.9 1.8,-4.2 l -3.5,-2 c -0.9,1.5 -1.6,3.2 -2.2,5 z m 45,-2.6 -3.1,3.1 c 0.1,0.2 0.1,0.4 0.2,0.6 0.8,2.7 1.1,5.6 0.7,8.4 l 4,0.5 C 56.2,35.7 56,32.3 55,29 54.7,28.1 54.4,27.3 54,26.5 Z M 58.8,44 c -0.3,1.1 -0.7,2.2 -1.2,3.2 -1.1,2.4 -2.4,4.7 -4.1,6.7 -1.1,1.4 -3,2.1 -5.1,2.1 H 12 v 4 h 36.5 c 3,0 6.1,-1.1 8.1,-3.6 1.9,-2.3 3.5,-4.9 4.7,-7.6 C 62,47.2 62.5,45.6 63,44 Z"
         style="fill:#f0f0f0;fill-opacity:1" />
    </g>
  </g>
</svg>
