<?xml version="1.0" encoding="UTF-8" standalone="no"?>
<svg
   width="32"
   version="1.1"
   height="32"
   viewBox="0 0 32 32"
   id="svg15"
   sodipodi:docname="folder-table.svg"
   inkscape:version="1.1.2 (0a00cf5339, 2022-02-04)"
   xmlns:inkscape="http://www.inkscape.org/namespaces/inkscape"
   xmlns:sodipodi="http://sodipodi.sourceforge.net/DTD/sodipodi-0.dtd"
   xmlns:xlink="http://www.w3.org/1999/xlink"
   xmlns="http://www.w3.org/2000/svg"
   xmlns:svg="http://www.w3.org/2000/svg"
   xmlns:rdf="http://www.w3.org/1999/02/22-rdf-syntax-ns#"
   xmlns:cc="http://creativecommons.org/ns#"
   xmlns:dc="http://purl.org/dc/elements/1.1/">
  <sodipodi:namedview
     pagecolor="#ffffff"
     bordercolor="#666666"
     borderopacity="1"
     objecttolerance="10"
     gridtolerance="10"
     guidetolerance="10"
     inkscape:pageopacity="0"
     inkscape:pageshadow="2"
     inkscape:window-width="1920"
     inkscape:window-height="1007"
     id="namedview17"
     showgrid="true"
     inkscape:zoom="9.8125"
     inkscape:cx="1.477707"
     inkscape:cy="18.140127"
     inkscape:window-x="0"
     inkscape:window-y="0"
     inkscape:window-maximized="1"
     inkscape:current-layer="layer1"
     inkscape:pagecheckerboard="0">
    <inkscape:grid
       type="xygrid"
       id="grid862" />
  </sodipodi:namedview>
  <defs
     id="defs5455">
    <linearGradient
       inkscape:collect="always"
       id="linearGradient991">
      <stop
         style="stop-color:#cccccc;stop-opacity:1"
         offset="0"
         id="stop987" />
      <stop
         style="stop-color:#cccccc;stop-opacity:1"
         offset="0.03132199"
         id="stop1929" />
      <stop
         style="stop-color:#0069a6;stop-opacity:1"
         offset="0.05527586"
         id="stop1263" />
      <stop
         style="stop-color:#0069a6;stop-opacity:1"
         offset="0.10902679"
         id="stop1027" />
      <stop
         style="stop-color:#cccccc;stop-opacity:1"
         offset="1"
         id="stop989" />
    </linearGradient>
    <linearGradient
       inkscape:collect="always"
       id="linearGradient1058">
      <stop
         style="stop-color:#37c8ab;stop-opacity:1"
         offset="0"
         id="stop1054" />
      <stop
         style="stop-color:#aa87de;stop-opacity:1"
         offset="1"
         id="stop1056" />
    </linearGradient>
    <linearGradient
       inkscape:collect="always"
       xlink:href="#linearGradient991"
       id="linearGradient3483"
       gradientUnits="userSpaceOnUse"
       gradientTransform="matrix(1.3871979,0,0,1.3461642,-609.13234,315.85477)"
       x1="386.57144"
       y1="516.39801"
       x2="446.62146"
       y2="516.39801" />
    <linearGradient
       inkscape:collect="always"
       xlink:href="#linearGradient1058"
       id="linearGradient1040"
       gradientUnits="userSpaceOnUse"
       gradientTransform="matrix(1.3848926,0,0,1.3461642,-609.62606,318.00863)"
       x1="416.57144"
       y1="520.94086"
       x2="440.57144"
       y2="520.94086" />
  </defs>
  <metadata
     id="metadata5458">
    <rdf:RDF>
      <cc:Work
         rdf:about="">
        <dc:format>image/svg+xml</dc:format>
        <dc:type
           rdf:resource="http://purl.org/dc/dcmitype/StillImage" />
      </cc:Work>
    </rdf:RDF>
  </metadata>
  <g
     inkscape:label="Capa 1"
     inkscape:groupmode="layer"
     id="layer1"
     transform="translate(-384.57143,-515.798)">
    <g
       transform="matrix(0.36013848,0,0,0.37142583,411.81878,156.2823)"
       id="g4">
      <path
         inkscape:connector-curvature="0"
         id="fill"
         d="m -71.496369,980.04951 v 60.57739 c 0.15065,2.0345 1.384894,4.0385 5.410029,4.0385 H 2.9146455 c 4.5278648,0 6.0714663,-0.6718 5.9127575,-5.3847 v -48.46189 c -1.3848927,-2.6923 -11.079141,0 -11.079141,-8.07698 -16.618711,-1.34616 -47.086348,1.34617 -46.98773,-6.73082 h -16.720723 c -2.766392,0 -5.536178,1.34617 -5.536178,4.0385 z"
         style="color:#1e92ff;fill:#4e5a7e;fill-opacity:0.3;fill-rule:nonzero;stroke:none;stroke-width:14.3525"
         class="ColorScheme-ButtonFocus"
         sodipodi:nodetypes="cccccccccc" />
      <path
         d="M 4.7542121,987.33291 H 0.32351134 v -1.58983 c 0,-2.76106 -1.24654164,-4.12194 -2.29238504,-4.77803 -1.1215277,-0.70309 -2.2228219,-0.73897 -2.4332284,-0.73897 H -43.329439 c -0.833678,0 -1.617167,-0.85429 -2.446441,-1.75898 -1.055523,-1.15159 -2.251891,-2.45609 -4.068011,-2.45609 h -17.371566 c -3.22993,0 -5.665804,2.36297 -5.665804,5.49651 v 59.00748 c 0,3.0311 2.541513,5.4965 5.665804,5.4965 H 4.7542121 c 3.1243041,0 5.6658169,-2.4654 5.6658169,-5.4965 v -47.68559 c 0,-3.031 -2.5415128,-5.4965 -5.6658169,-5.4965 z m 3.0248268,53.18209 c 0,1.6181 -1.3565989,2.9337 -3.0248268,2.9337 H -67.215457 c -1.668214,0 -3.024813,-1.3156 -3.024813,-2.9337 v -59.00748 c 0,-1.72652 1.24391,-2.93364 3.024813,-2.93364 h 17.371566 c 0.631193,0 1.342515,0.7757 2.095191,1.59667 1.069593,1.1661 2.400655,2.61755 4.419261,2.61755 h 38.9114795 c 0.3987941,0.0108 1.5300295,0.17939 1.9455387,1.67269 H -63.076913 c -3.367381,0.0674 -5.128036,1.77608 -5.128036,5.19322 l 0.154941,46.98599 h 1.605714 c 0,0 -0.333205,0 0.0014,0 0.51939,0 1.339413,0.099 2.1053,-0.4831 1.375961,-1.0473 1.434057,-2.4048 1.421745,-2.7764 l -0.0069,-38.60374 c 0,-5.12575 0,-5.12575 5.281981,-5.12575 l 62.3960868,0.2418 c 1.6681999,0.006 3.0248129,1.31645 3.0248129,2.9336 v 47.68559 z"
         id="path2-3-3-2"
         sodipodi:nodetypes="scscsscssssssssscsssssscsccccccsccccsscc"
         style="fill:url(#linearGradient3483);fill-opacity:1;stroke-width:0.867212" />
      <path
         id="Calendar-7"
         class="st0"
         d="m -32.719376,1004.2805 v 6.9231 h 30.8633158 v 2.3077 H -32.719376 v 20.7694 h 27.3021751 c 3.2643855,0 5.9352484,-2.5962 5.9352484,-5.7693 v -24.2309 z m 8.309356,26.5386 h -3.561155 v -3.4615 h 3.561155 z m 0,-5.7692 h -3.561155 v -3.4616 h 3.561155 z m 5.935248,5.7692 h -3.56114 v -3.4615 h 3.56114 z m 0,-5.7692 h -3.56114 v -3.4616 h 3.56114 z m 0,-5.7693 h -3.56114 v -3.4616 h 3.56114 z m 5.935262,11.5385 h -3.561154 v -3.4615 h 3.561154 z m 0,-5.7692 h -3.561154 v -3.4616 h 3.561154 z m 0,-5.7693 h -3.561154 v -3.4616 h 3.561154 z m 5.9352484,5.7693 h -3.5611544 v -3.4616 h 3.5611544 z m 0,-5.7693 h -3.5611544 v -3.4616 h 3.5611544 z"
         style="clip-rule:evenodd;fill:url(#linearGradient1040);fill-opacity:1;fill-rule:evenodd;stroke-width:0.585169" />
      <path
         id="Calendar-s-5"
         class="st1"
         d="m -1.8560602,1029.6653 v -16.154 h 2.3741077 v 16.154 c 0,3.8077 -3.2050433,6.9231 -7.1223091,6.9231 H -30.345268 v -2.3077 h 23.7410064 c 2.6115196,0 4.7482014,-2.0769 4.7482014,-4.6154 z m 0,-18.4617 v -6.9231 h 2.3741077 v 6.9231 z m -7.0926169,-6.8638 v 0.058 h 2.2676234 v 0 0 -10e-5 l 0.076862,4.503 h -2.3740938 z m -19.0151849,-0.01 v 0.058 l 2.367101,-0.035 v 0 0 0 l -3.06e-4,4.5396 h -2.374108 z"
         sodipodi:nodetypes="sccssccssccccccccccccccccccccccc"
         style="clip-rule:evenodd;fill:#f0f0f0;fill-opacity:1;fill-rule:evenodd;stroke-width:0.585169" />
    </g>
  </g>
</svg>
