<?xml version="1.0" encoding="UTF-8" standalone="no"?>
<svg
   width="32"
   version="1.1"
   height="32"
   viewBox="0 0 32 32"
   id="svg15"
   sodipodi:docname="folder-chart.svg"
   inkscape:version="1.1.2 (0a00cf5339, 2022-02-04)"
   xmlns:inkscape="http://www.inkscape.org/namespaces/inkscape"
   xmlns:sodipodi="http://sodipodi.sourceforge.net/DTD/sodipodi-0.dtd"
   xmlns:xlink="http://www.w3.org/1999/xlink"
   xmlns="http://www.w3.org/2000/svg"
   xmlns:svg="http://www.w3.org/2000/svg"
   xmlns:rdf="http://www.w3.org/1999/02/22-rdf-syntax-ns#"
   xmlns:cc="http://creativecommons.org/ns#"
   xmlns:dc="http://purl.org/dc/elements/1.1/">
  <sodipodi:namedview
     pagecolor="#ffffff"
     bordercolor="#666666"
     borderopacity="1"
     objecttolerance="10"
     gridtolerance="10"
     guidetolerance="10"
     inkscape:pageopacity="0"
     inkscape:pageshadow="2"
     inkscape:window-width="1920"
     inkscape:window-height="1007"
     id="namedview17"
     showgrid="true"
     inkscape:zoom="9.8125"
     inkscape:cx="1.477707"
     inkscape:cy="18.140127"
     inkscape:window-x="0"
     inkscape:window-y="0"
     inkscape:window-maximized="1"
     inkscape:current-layer="g4"
     inkscape:pagecheckerboard="0">
    <inkscape:grid
       type="xygrid"
       id="grid862" />
  </sodipodi:namedview>
  <defs
     id="defs5455">
    <linearGradient
       inkscape:collect="always"
       id="linearGradient991">
      <stop
         style="stop-color:#cccccc;stop-opacity:1"
         offset="0"
         id="stop987" />
      <stop
         style="stop-color:#cccccc;stop-opacity:1"
         offset="0.03132199"
         id="stop1929" />
      <stop
         style="stop-color:#0069a6;stop-opacity:1"
         offset="0.05527586"
         id="stop1263" />
      <stop
         style="stop-color:#0069a6;stop-opacity:1"
         offset="0.10902679"
         id="stop1027" />
      <stop
         style="stop-color:#cccccc;stop-opacity:1"
         offset="1"
         id="stop989" />
    </linearGradient>
    <linearGradient
       inkscape:collect="always"
       id="linearGradient912">
      <stop
         style="stop-color:#cccccc;stop-opacity:1"
         offset="0"
         id="stop902" />
      <stop
         style="stop-color:#cccccc;stop-opacity:1"
         offset="0"
         id="stop904" />
      <stop
         style="stop-color:#0069a6;stop-opacity:1"
         offset="0"
         id="stop906" />
      <stop
         style="stop-color:#0069a6;stop-opacity:1"
         offset="0"
         id="stop908" />
      <stop
         style="stop-color:#80b3ff;stop-opacity:1"
         offset="1"
         id="stop910" />
    </linearGradient>
    <linearGradient
       inkscape:collect="always"
       xlink:href="#linearGradient991"
       id="linearGradient3483"
       gradientUnits="userSpaceOnUse"
       gradientTransform="matrix(1.3871979,0,0,1.3461635,-464.74345,329.31674)"
       x1="386.57144"
       y1="516.39801"
       x2="446.62146"
       y2="516.39801" />
    <linearGradient
       inkscape:collect="always"
       xlink:href="#linearGradient912"
       id="linearGradient1058"
       gradientUnits="userSpaceOnUse"
       gradientTransform="matrix(1.3848926,0,0,1.3461635,-465.23716,331.47061)"
       x1="414.78571"
       y1="522.86945"
       x2="438.78571"
       y2="522.86945" />
  </defs>
  <metadata
     id="metadata5458">
    <rdf:RDF>
      <cc:Work
         rdf:about="">
        <dc:format>image/svg+xml</dc:format>
        <dc:type
           rdf:resource="http://purl.org/dc/dcmitype/StillImage" />
      </cc:Work>
    </rdf:RDF>
  </metadata>
  <g
     inkscape:label="Capa 1"
     inkscape:groupmode="layer"
     id="layer1"
     transform="translate(-384.57143,-515.798)">
    <g
       transform="matrix(0.36013848,0,0,0.37142583,359.81878,151.2823)"
       id="g4">
      <path
         inkscape:connector-curvature="0"
         id="fill"
         d="m 72.892525,993.51114 v 60.57736 c 0.150648,2.0345 1.384892,4.0385 5.410027,4.0385 h 69.000978 c 4.52787,0 6.07147,-0.6718 5.91276,-5.3847 v -48.4619 c -1.38489,-2.6923 -11.07914,0 -11.07914,-8.07693 -16.61871,-1.34617 -47.086344,1.34616 -46.987725,-6.73082 H 78.428703 c -2.766393,0 -5.536178,1.34616 -5.536178,4.03849 z"
         style="color:#1e92ff;fill:#4e5a7e;fill-opacity:0.3;fill-rule:nonzero;stroke:none;stroke-width:14.3524"
         class="ColorScheme-ButtonFocus"
         sodipodi:nodetypes="cccccccccc" />
      <path
         d="m 149.1431,1000.7945 h -4.4307 v -1.58979 c 0,-2.76106 -1.24654,-4.12194 -2.29239,-4.77803 -1.12152,-0.70309 -2.22282,-0.73896 -2.43323,-0.73896 h -38.92733 c -0.83368,0 -1.617163,-0.85429 -2.446437,-1.75898 -1.055523,-1.15159 -2.25189,-2.45609 -4.06801,-2.45609 H 77.173435 c -3.229929,0 -5.665803,2.36296 -5.665803,5.49651 v 59.00754 c 0,3.031 2.541514,5.4965 5.665803,5.4965 H 149.1431 c 3.1243,0 5.66582,-2.4655 5.66582,-5.4965 v -47.6857 c 0,-3.031 -2.54152,-5.4965 -5.66582,-5.4965 z m 3.02483,53.1822 c 0,1.618 -1.3566,2.9336 -3.02483,2.9336 H 77.173435 c -1.668213,0 -3.024813,-1.3156 -3.024813,-2.9336 v -59.00754 c 0,-1.72653 1.24391,-2.93364 3.024813,-2.93364 h 17.371568 c 0.631192,0 1.342514,0.7757 2.095189,1.59667 1.069594,1.1661 2.400656,2.61755 4.419258,2.61755 h 38.91148 c 0.39879,0.0107 1.53003,0.17939 1.94554,1.67269 H 81.31198 c -3.367381,0.0674 -5.128036,1.77607 -5.128036,5.19327 l 0.154942,46.9859 h 1.605713 c 0,0 -0.333205,0.01 0.0014,0.01 0.519391,0 1.339413,0.099 2.1053,-0.483 1.375961,-1.0474 1.434056,-2.4048 1.421745,-2.7765 l -0.0069,-38.6036 c 0,-5.1258 0,-5.1258 5.28198,-5.1258 l 62.396086,0.2418 c 1.6682,0.01 3.02481,1.3164 3.02481,2.9336 v 47.6856 z"
         id="path2-3-3-2"
         sodipodi:nodetypes="scscsscssssssssscsssssscsccccccsccccsscc"
         style="fill:url(#linearGradient3483);fill-opacity:1;stroke-width:0.867212" />
      <path
         id="Chart-5"
         class="st0"
         d="m 136.49866,1047.7423 h -27.30217 v -3.4615 h 2.3741 l 1.18705,-4.6155 5.93526,-8.077 h 3.56115 l 1.18705,-1.1538 4.7482,2.3077 v 3.4616 h 4.7482 v -5.1924 l 6.52879,-8.077 2.96763,0.5769 v 18.4617 c 0,3.1731 -2.67088,5.7693 -5.93526,5.7693 z"
         style="fill:url(#linearGradient1058);fill-opacity:1;stroke-width:0.585169" />
      <path
         id="Chart-s-6"
         class="st1"
         d="m 141.24686,1024.6652 c 1.95864,0 3.56115,-1.5577 3.56115,-3.4616 0,-1.9038 -1.60251,-3.4615 -3.56115,-3.4615 -1.95863,0 -3.56116,1.5577 -3.56116,3.4615 0,0.6347 0.17807,1.2693 0.53418,1.7885 l -6.46943,7.6732 c -0.35611,-0.1154 -0.77157,-0.2308 -1.18704,-0.2308 -0.94965,0 -1.83993,0.3461 -2.49281,0.9808 l -3.44245,-1.7308 c 0,-0.1154 0,-0.2885 0,-0.4039 0,-1.9038 -1.60252,-3.4615 -3.56116,-3.4615 -1.95862,0 -3.56114,1.5577 -3.56114,3.4615 0,0.6347 0.17806,1.2693 0.53417,1.7885 l -6.46943,7.6731 c -0.35611,-0.173 -0.77158,-0.2307 -1.18705,-0.2307 -1.95864,0 -3.56115,1.5577 -3.56115,3.4615 0,1.9039 1.60251,3.4616 3.56115,3.4616 1.95863,0 3.56116,-1.5577 3.56116,-3.4616 0,-0.6346 -0.17806,-1.2692 -0.53418,-1.7884 l 6.46943,-7.6732 c 0.35611,0.1154 0.77157,0.2308 1.18704,0.2308 0.94965,0 1.83994,-0.3462 2.49281,-0.9808 l 3.50181,1.6731 c 0,0.1154 0,0.2885 0,0.4039 0,1.9038 1.60251,3.4615 3.56114,3.4615 1.95864,0 3.56115,-1.5577 3.56115,-3.4615 0,-0.6347 -0.17805,-1.2693 -0.53416,-1.7885 l 6.41007,-7.6155 c 0.35611,0.1731 0.77158,0.2308 1.18705,0.2308 z m 0,-2.3077 c 0.65288,0 1.18706,-0.5192 1.18706,-1.1539 0,-0.6346 -0.53418,-1.1538 -1.18706,-1.1538 -0.65288,0 -1.18705,0.5192 -1.18705,1.1538 0,0.6347 0.53417,1.1539 1.18705,1.1539 z m -9.49641,11.5386 c 0,0.6346 -0.53416,1.1538 -1.18704,1.1538 -0.65288,0 -1.18706,-0.5192 -1.18706,-1.1538 0,-0.6347 0.53418,-1.1539 1.18706,-1.1539 0.65288,0 1.18704,0.5192 1.18704,1.1539 z m -10.68346,-3.4616 c 0.65288,0 1.18706,-0.5192 1.18706,-1.1539 0,-0.6346 -0.53418,-1.1538 -1.18706,-1.1538 -0.65286,0 -1.18704,0.5192 -1.18704,1.1538 0,0.6347 0.53418,1.1539 1.18704,1.1539 z m -9.4964,11.5385 c 0,0.6347 -0.53417,1.1539 -1.18705,1.1539 -0.65288,0 -1.18705,-0.5192 -1.18705,-1.1539 0,-0.6346 0.53417,-1.1538 1.18705,-1.1538 0.65288,0 1.18705,0.5192 1.18705,1.1538 z m 28.48922,-1.1538 h 2.37411 v 2.3077 c 0,3.8077 -3.20504,6.9231 -7.12231,6.9231 h -23.74102 v -2.3077 h 23.74102 c 2.6115,0 4.7482,-2.0769 4.7482,-4.6154 z"
         style="clip-rule:evenodd;fill:#f0f0f0;fill-opacity:1;fill-rule:evenodd;stroke-width:0.585169" />
    </g>
  </g>
</svg>
