<?xml version="1.0" encoding="UTF-8" standalone="no"?>
<svg
   width="32"
   version="1.1"
   height="32"
   viewBox="0 0 32 32"
   id="svg15"
   sodipodi:docname="folder-mac.svg"
   inkscape:version="1.1.2 (0a00cf5339, 2022-02-04)"
   xmlns:inkscape="http://www.inkscape.org/namespaces/inkscape"
   xmlns:sodipodi="http://sodipodi.sourceforge.net/DTD/sodipodi-0.dtd"
   xmlns:xlink="http://www.w3.org/1999/xlink"
   xmlns="http://www.w3.org/2000/svg"
   xmlns:svg="http://www.w3.org/2000/svg"
   xmlns:rdf="http://www.w3.org/1999/02/22-rdf-syntax-ns#"
   xmlns:cc="http://creativecommons.org/ns#"
   xmlns:dc="http://purl.org/dc/elements/1.1/">
  <sodipodi:namedview
     pagecolor="#ffffff"
     bordercolor="#666666"
     borderopacity="1"
     objecttolerance="10"
     gridtolerance="10"
     guidetolerance="10"
     inkscape:pageopacity="0"
     inkscape:pageshadow="2"
     inkscape:window-width="1920"
     inkscape:window-height="1007"
     id="namedview17"
     showgrid="true"
     inkscape:zoom="9.8125"
     inkscape:cx="1.477707"
     inkscape:cy="18.140127"
     inkscape:window-x="0"
     inkscape:window-y="0"
     inkscape:window-maximized="1"
     inkscape:current-layer="g4"
     inkscape:pagecheckerboard="0">
    <inkscape:grid
       type="xygrid"
       id="grid862" />
  </sodipodi:namedview>
  <defs
     id="defs5455">
    <linearGradient
       inkscape:collect="always"
       id="linearGradient991">
      <stop
         style="stop-color:#cccccc;stop-opacity:1"
         offset="0"
         id="stop987" />
      <stop
         style="stop-color:#cccccc;stop-opacity:1"
         offset="0.03132199"
         id="stop1929" />
      <stop
         style="stop-color:#0069a6;stop-opacity:1"
         offset="0.05527586"
         id="stop1263" />
      <stop
         style="stop-color:#0069a6;stop-opacity:1"
         offset="0.10902679"
         id="stop1027" />
      <stop
         style="stop-color:#cccccc;stop-opacity:1"
         offset="1"
         id="stop989" />
    </linearGradient>
    <linearGradient
       inkscape:collect="always"
       id="linearGradient1050">
      <stop
         style="stop-color:#ff5555;stop-opacity:1"
         offset="0"
         id="stop1046" />
      <stop
         style="stop-color:#ffccaa;stop-opacity:1"
         offset="1"
         id="stop1048" />
    </linearGradient>
    <linearGradient
       inkscape:collect="always"
       xlink:href="#linearGradient991"
       id="linearGradient3483"
       gradientUnits="userSpaceOnUse"
       gradientTransform="matrix(1.3871978,0,0,1.3461637,-464.74344,329.31664)"
       x1="386.57144"
       y1="516.39801"
       x2="446.62146"
       y2="516.39801" />
    <linearGradient
       inkscape:collect="always"
       xlink:href="#linearGradient1050"
       id="linearGradient1065"
       gradientUnits="userSpaceOnUse"
       gradientTransform="matrix(1.3848926,0,0,1.3461637,-465.23716,331.47051)"
       x1="419.57144"
       y1="521.79797"
       x2="440.60892"
       y2="521.79797" />
    <linearGradient
       inkscape:collect="always"
       xlink:href="#linearGradient1050"
       id="linearGradient869"
       gradientUnits="userSpaceOnUse"
       x1="5"
       y1="34.25"
       x2="54"
       y2="34.25" />
  </defs>
  <metadata
     id="metadata5458">
    <rdf:RDF>
      <cc:Work
         rdf:about="">
        <dc:format>image/svg+xml</dc:format>
        <dc:type
           rdf:resource="http://purl.org/dc/dcmitype/StillImage" />
      </cc:Work>
    </rdf:RDF>
  </metadata>
  <g
     inkscape:label="Capa 1"
     inkscape:groupmode="layer"
     id="layer1"
     transform="translate(-384.57143,-515.798)">
    <g
       transform="matrix(0.36013848,0,0,0.37142583,359.81878,151.2823)"
       id="g4">
      <path
         inkscape:connector-curvature="0"
         id="fill"
         d="m 72.892525,993.51114 v 60.57736 c 0.150648,2.0345 1.384893,4.0385 5.410027,4.0385 h 69.000988 c 4.52787,0 6.07147,-0.6718 5.91276,-5.3846 v -48.462 c -1.38489,-2.6923 -11.07914,0 -11.07914,-8.07693 -16.61871,-1.34617 -47.086354,1.34616 -46.987736,-6.73082 H 78.428702 c -2.766392,0 -5.536177,1.34616 -5.536177,4.03849 z"
         style="color:#1e92ff;fill:#4e5a7e;fill-opacity:0.3;fill-rule:nonzero;stroke:none;stroke-width:14.3524"
         class="ColorScheme-ButtonFocus"
         sodipodi:nodetypes="cccccccccc" />
      <path
         d="m 149.14311,1000.7945 h -4.4307 v -1.58979 c 0,-2.76106 -1.24654,-4.12194 -2.29239,-4.77803 -1.12152,-0.70309 -2.22282,-0.73896 -2.43323,-0.73896 h -38.92733 c -0.83368,0 -1.617169,-0.85429 -2.446447,-1.75898 -1.055524,-1.15159 -2.251891,-2.45609 -4.068011,-2.45609 H 77.173436 c -3.229931,0 -5.665804,2.36296 -5.665804,5.49651 v 59.00754 c 0,3.031 2.541513,5.4965 5.665804,5.4965 h 71.969674 c 3.1243,0 5.66582,-2.4655 5.66582,-5.4965 v -47.6857 c 0,-3.031 -2.54152,-5.4965 -5.66582,-5.4965 z m 3.02483,53.1822 c 0,1.618 -1.3566,2.9336 -3.02483,2.9336 H 77.173436 c -1.668215,0 -3.024813,-1.3156 -3.024813,-2.9336 v -59.00754 c 0,-1.72653 1.24391,-2.93364 3.024813,-2.93364 h 17.371566 c 0.631192,0 1.342515,0.7757 2.09519,1.59667 1.069594,1.1661 2.400658,2.61755 4.419268,2.61755 h 38.91148 c 0.39879,0.0107 1.53003,0.17939 1.94554,1.67269 H 81.311979 c -3.36738,0.0674 -5.128036,1.77607 -5.128036,5.19327 l 0.154942,46.9859 h 1.605714 c 0,0 -0.333205,0.01 0.0014,0.01 0.519391,0 1.339413,0.099 2.1053,-0.4831 1.37596,-1.0473 1.434057,-2.4048 1.421745,-2.7764 l -0.0069,-38.6037 c 0,-5.1257 0,-5.1257 5.28198,-5.1257 l 62.396096,0.2417 c 1.6682,0.01 3.02481,1.3165 3.02481,2.9337 v 47.6856 z"
         id="path2-3-3-2"
         sodipodi:nodetypes="scscsscssssssssscsssssscsccccccsccccsscc"
         style="fill:url(#linearGradient3483);fill-opacity:1;stroke-width:0.867212" />
      <polygon
         class="st0"
         points="54,19.5 48,49 10,49 5,36 12,19.5 "
         id="polygon4-5"
         transform="matrix(0.5193347,0,0,0.50481138,113.74686,1017.7421)"
         style="fill:url(#linearGradient869);fill-opacity:1" />
      <path
         class="st1"
         d="m 142.31027,1027.3335 c -1.97347,-1.3125 -4.05081,-1.5144 -4.88175,-1.5144 -1.60993,0 -2.90827,0.5048 -4.05081,0.9086 -0.9348,0.3029 -1.7138,0.6058 -2.4928,0.6058 -0.77901,0 -1.50607,-0.3029 -2.33701,-0.6562 -1.03867,-0.4039 -2.18121,-0.8582 -3.58341,-0.8582 -1.66187,0 -9.14029,0.7572 -9.14029,9.7933 0,7.2188 6.18008,14.4376 9.03642,14.4376 1.14254,0 2.12928,-0.3029 3.11601,-0.6562 0.98674,-0.3029 1.97347,-0.6563 3.11601,-0.6563 1.14254,0 2.12927,0.3029 3.11601,0.6563 0.98674,0.3533 1.97347,0.6562 3.11601,0.6562 1.76574,0 4.77788,-2.8269 6.80328,-6.7644 0.1558,-0.3534 0.36354,-0.7068 0.51934,-1.0601 0.10386,-0.2525 0.20773,-0.5049 0.3116,-0.8077 -2.75248,-1.1106 -4.15468,-3.5842 -4.15468,-6.5626 0,-1.8678 0.4674,-3.5337 1.558,-4.8462 0.41547,-0.5048 0.93481,-0.9591 1.55801,-1.3125 -0.51934,-0.5048 -1.0906,-1.0096 -1.60994,-1.363 z m -3.63534,7.5722 c 0,2.7764 -2.80441,5.1491 -6.90715,6.3101 -1.40221,0.4544 -3.37568,0.7572 -5.55689,0.7572 -3.68727,0 -6.80328,-0.8077 -7.47842,-1.8678 -0.51933,-1.4639 -0.83093,-2.9783 -0.83093,-4.4928 0,-3.887 1.558,-5.6539 3.01214,-6.613 1.60994,-1.0096 3.42761,-1.1611 4.10274,-1.1611 0.83094,0 1.55801,0.2524 2.49281,0.6058 0.10387,0.051 0.1558,0.051 0.25967,0.101 0.72707,0.3028 1.92154,0.8077 3.11601,0.8077 0.72707,0 1.4022,-0.1515 1.97347,-0.3534 0.41547,-0.101 0.83093,-0.3029 1.2464,-0.4543 0.10387,-0.051 0.25967,-0.101 0.36354,-0.101 0.98673,-0.3534 1.92153,-0.6563 2.9602,-0.6563 0.57127,0 1.97348,0.1515 3.32375,0.9087 -1.50607,1.8173 -2.07734,4.0385 -2.07734,6.2092 z m -8.30936,-10.0962 c 0,-3.8871 3.21988,-7.0169 7.21875,-7.0674 0.0519,0.3534 0.0519,0.6562 0.0519,1.0096 0,3.8871 -3.21987,7.0169 -7.21875,7.0674 -0.0519,-0.3534 -0.0519,-0.6563 -0.0519,-1.0096 z"
         id="path6-3"
         style="clip-rule:evenodd;fill:url(#linearGradient1065);fill-opacity:1;fill-rule:evenodd;stroke-width:0.51202" />
    </g>
  </g>
</svg>
