<?xml version="1.0" encoding="UTF-8" standalone="no"?>
<svg
   width="32"
   version="1.1"
   height="32"
   viewBox="0 0 32 32"
   id="svg15"
   sodipodi:docname="folder-Github.svg"
   inkscape:version="1.1.2 (0a00cf5339, 2022-02-04)"
   xmlns:inkscape="http://www.inkscape.org/namespaces/inkscape"
   xmlns:sodipodi="http://sodipodi.sourceforge.net/DTD/sodipodi-0.dtd"
   xmlns:xlink="http://www.w3.org/1999/xlink"
   xmlns="http://www.w3.org/2000/svg"
   xmlns:svg="http://www.w3.org/2000/svg"
   xmlns:rdf="http://www.w3.org/1999/02/22-rdf-syntax-ns#"
   xmlns:cc="http://creativecommons.org/ns#"
   xmlns:dc="http://purl.org/dc/elements/1.1/">
  <sodipodi:namedview
     pagecolor="#ffffff"
     bordercolor="#666666"
     borderopacity="1"
     objecttolerance="10"
     gridtolerance="10"
     guidetolerance="10"
     inkscape:pageopacity="0"
     inkscape:pageshadow="2"
     inkscape:window-width="1920"
     inkscape:window-height="1007"
     id="namedview17"
     showgrid="true"
     inkscape:zoom="9.8125"
     inkscape:cx="-25.426752"
     inkscape:cy="8.6624204"
     inkscape:window-x="0"
     inkscape:window-y="0"
     inkscape:window-maximized="1"
     inkscape:current-layer="layer1"
     inkscape:document-rotation="0"
     inkscape:pagecheckerboard="0">
    <inkscape:grid
       type="xygrid"
       id="grid847" />
  </sodipodi:namedview>
  <defs
     id="defs5455">
    <linearGradient
       inkscape:collect="always"
       id="linearGradient1228">
      <stop
         style="stop-color:#aa87de;stop-opacity:1"
         offset="0"
         id="stop1224" />
      <stop
         style="stop-color:#00d4aa;stop-opacity:1"
         offset="1"
         id="stop1226" />
    </linearGradient>
    <linearGradient
       inkscape:collect="always"
       id="linearGradient991">
      <stop
         style="stop-color:#cccccc;stop-opacity:1"
         offset="0"
         id="stop987" />
      <stop
         style="stop-color:#cccccc;stop-opacity:1"
         offset="0.03132199"
         id="stop1929" />
      <stop
         style="stop-color:#0069a6;stop-opacity:1"
         offset="0.05527586"
         id="stop1263" />
      <stop
         style="stop-color:#0069a6;stop-opacity:1"
         offset="0.10902679"
         id="stop1027" />
      <stop
         style="stop-color:#cccccc;stop-opacity:1"
         offset="1"
         id="stop989" />
    </linearGradient>
    <linearGradient
       inkscape:collect="always"
       xlink:href="#linearGradient991"
       id="linearGradient3483"
       gradientUnits="userSpaceOnUse"
       gradientTransform="matrix(0.49958334,0,0,0.5,192.44677,273.599)"
       x1="386.57144"
       y1="516.39801"
       x2="446.62146"
       y2="516.39801" />
    <linearGradient
       inkscape:collect="always"
       xlink:href="#linearGradient1228"
       id="linearGradient1046"
       gradientUnits="userSpaceOnUse"
       x1="415.57144"
       y1="522.49341"
       x2="439.56207"
       y2="522.49341"
       gradientTransform="matrix(0.49875312,0,0,0.5,192.76772,273.899)" />
  </defs>
  <metadata
     id="metadata5458">
    <rdf:RDF>
      <cc:Work
         rdf:about="">
        <dc:format>image/svg+xml</dc:format>
        <dc:type
           rdf:resource="http://purl.org/dc/dcmitype/StillImage" />
      </cc:Work>
    </rdf:RDF>
  </metadata>
  <g
     inkscape:label="Capa 1"
     inkscape:groupmode="layer"
     id="layer1"
     transform="translate(-384.57143,-515.798)">
    <path
       inkscape:connector-curvature="0"
       id="fill"
       d="m 386.07018,520.298 v 22.5 c 0.0543,0.75565 0.49876,1.5 1.94836,1.5 h 24.84991 c 1.63066,0 2.18657,-0.24951 2.12941,-2 v -18 c -0.49875,-1 -3.99002,0 -3.99002,-3 -5.98504,-0.5 -16.95761,0.5 -16.9221,-2.5 h -6.02177 c -0.99628,0 -1.99379,0.5 -1.99379,1.5 z"
       style="color:#1e92ff;fill:#4e5a7e;fill-opacity:0.3;fill-rule:nonzero;stroke:none;stroke-width:5.24924"
       class="ColorScheme-ButtonFocus"
       sodipodi:nodetypes="cccccccccc" />
    <path
       d="m 413.53095,523.00324 h -1.59567 v -0.5905 c 0,-1.02553 -0.44893,-1.53099 -0.82558,-1.77469 -0.4039,-0.26114 -0.80051,-0.27447 -0.87629,-0.27447 h -14.01924 c -0.30024,0 -0.5824,-0.3173 -0.88105,-0.65333 -0.38013,-0.42773 -0.811,-0.91225 -1.46505,-0.91225 h -6.25617 c -1.16322,0 -2.04047,0.87766 -2.04047,2.04154 v 21.91691 c 0,1.1258 0.91529,2.04155 2.04047,2.04155 h 25.91905 c 1.12518,0 2.04048,-0.91575 2.04048,-2.04155 v -17.71166 c 0,-1.1258 -0.9153,-2.04155 -2.04048,-2.04155 z m 1.08936,19.75321 c 0,0.60098 -0.48857,1.08964 -1.08936,1.08964 H 387.6119 c -0.60079,0 -1.08935,-0.48866 -1.08935,-1.08964 v -21.9169 c 0,-0.64128 0.44798,-1.08964 1.08935,-1.08964 h 6.25617 c 0.22732,0 0.48349,0.28812 0.75456,0.59305 0.38521,0.43312 0.86457,0.97223 1.59154,0.97223 h 14.01353 c 0.14362,0.004 0.55102,0.0666 0.70066,0.62127 h -21.82601 c -1.21273,0.0251 -1.8468,0.65969 -1.8468,1.9289 l 0.0558,17.4518 h 0.57827 c 0,0 -0.12,0.001 4.9e-4,0.001 0.18706,0 0.48238,0.0367 0.7582,-0.17942 0.49554,-0.38902 0.51646,-0.89321 0.51203,-1.03125 l -0.002,-14.3384 c 0,-1.90384 0,-1.90384 1.90225,-1.90384 l 22.47123,0.0898 c 0.60078,0.002 1.08936,0.48896 1.08936,1.08962 v 17.71166 z"
       id="path2-3-3-2"
       sodipodi:nodetypes="scscsscssssssssscsssssscsccccccsccccsscc"
       style="fill:url(#linearGradient3483);fill-opacity:1;stroke-width:0.317173" />
    <path
       class="st0"
       d="m 412.00067,535.29565 c 0,2.66147 -1.72002,4.91059 -4.11311,5.69778 h -3.73918 c -2.39309,-0.78719 -4.11311,-3.03631 -4.11311,-5.69778 0,-3.31745 2.67352,-5.99765 5.98269,-5.99765 3.30919,0 5.98271,2.6802 5.98271,5.99765 z"
       id="path4-7"
       style="fill:url(#linearGradient1046);fill-opacity:1;stroke-width:0.187193" />
    <path
       class="st2"
       d="m 408.26148,537.73221 c 0.56088,-0.18743 1.49569,-0.74971 1.49569,-2.43656 0,-0.65598 -0.16827,-1.25575 -0.54219,-1.74306 0.4113,-0.99336 -0.0374,-1.63061 -0.20566,-1.63061 -0.14956,0 -0.78523,0.11245 -1.3648,0.58102 -0.4674,-0.1312 -1.00959,-0.20617 -1.62656,-0.20617 -0.61695,0 -1.15914,0.075 -1.62653,0.20617 -0.57958,-0.46857 -1.21524,-0.58102 -1.36481,-0.58102 -0.16827,0 -0.61697,0.63725 -0.20565,1.63061 -0.37393,0.48731 -0.54219,1.08708 -0.54219,1.74306 0,1.68685 0.9348,2.24913 1.49568,2.43656 0.4487,0.14994 0.9348,0.24365 1.12175,0.28114 -0.11217,0.11245 -0.29912,0.41233 -0.35521,0.82468 -0.14957,0.11245 -0.37393,0.20616 -0.67306,0.20616 -0.56088,0 -0.84132,-0.37485 -1.12176,-0.74971 -0.28044,-0.37485 -0.65435,-0.56227 -0.84131,-0.56227 -0.18697,0 -0.37392,0.0937 -0.18697,0.28114 0.18697,0.18742 0.43001,0.0375 0.93481,0.93713 0.37391,0.67474 0.84131,0.656 1.21523,0.656 0.33653,0 0.65436,-0.18743 0.65436,-0.18743 h 2.80438 l 0.18696,-0.37485 c 0,-0.5248 -0.24305,-0.89965 -0.37391,-1.03085 0.18695,-0.0375 0.67305,-0.1312 1.12175,-0.28114 z"
       id="path8-1"
       style="fill:#f2f2f2;fill-opacity:1;stroke-width:0.187193" />
    <path
       class="st3"
       d="m 401.7179,538.01335 c -0.11218,-0.11246 -0.0935,-0.18743 -0.0186,-0.22492 0.33652,0.33737 0.76653,0.59977 1.27132,0.78719 0.22435,0.26241 0.4861,0.46857 0.89741,0.46857 0.18695,0 0.35522,-0.0562 0.50479,-0.11246 0.52348,0.075 1.08436,0.11246 1.64523,0.11246 0.52349,0 1.02828,-0.0187 1.49568,-0.0937 0,0.0375 0,0.0562 0,0.0937 v 1.49942 l 0.43001,0.43108 c -1.25263,0.43108 -2.59873,0.43108 -3.85136,0 l 0.43,-0.43108 v -0.89965 c -0.14956,0.0562 -0.41131,0.14994 -0.65435,0.14994 -0.37393,0 -0.9348,-0.075 -1.30872,-0.74971 -0.37391,-0.69348 -0.56088,-0.82468 -0.71044,-0.91839 -0.0374,-0.0375 -0.0935,-0.075 -0.13088,-0.11245 z"
       id="path10-7"
       style="clip-rule:evenodd;fill:#f2f2f2;fill-opacity:1;fill-rule:evenodd;stroke-width:0.187193" />
  </g>
</svg>
