<?xml version="1.0" encoding="UTF-8" standalone="no"?>
<svg
   width="32"
   version="1.1"
   height="32"
   viewBox="0 0 32 32"
   id="svg15"
   sodipodi:docname="folder-android.svg"
   inkscape:version="1.1.2 (0a00cf5339, 2022-02-04)"
   xmlns:inkscape="http://www.inkscape.org/namespaces/inkscape"
   xmlns:sodipodi="http://sodipodi.sourceforge.net/DTD/sodipodi-0.dtd"
   xmlns:xlink="http://www.w3.org/1999/xlink"
   xmlns="http://www.w3.org/2000/svg"
   xmlns:svg="http://www.w3.org/2000/svg"
   xmlns:rdf="http://www.w3.org/1999/02/22-rdf-syntax-ns#"
   xmlns:cc="http://creativecommons.org/ns#"
   xmlns:dc="http://purl.org/dc/elements/1.1/">
  <sodipodi:namedview
     pagecolor="#ffffff"
     bordercolor="#666666"
     borderopacity="1"
     objecttolerance="10"
     gridtolerance="10"
     guidetolerance="10"
     inkscape:pageopacity="0"
     inkscape:pageshadow="2"
     inkscape:window-width="1920"
     inkscape:window-height="1007"
     id="namedview17"
     showgrid="true"
     inkscape:zoom="9.8125"
     inkscape:cx="-8.5095541"
     inkscape:cy="5.4012739"
     inkscape:window-x="0"
     inkscape:window-y="0"
     inkscape:window-maximized="1"
     inkscape:current-layer="g4"
     inkscape:pagecheckerboard="0">
    <inkscape:grid
       type="xygrid"
       id="grid862" />
  </sodipodi:namedview>
  <defs
     id="defs5455">
    <linearGradient
       inkscape:collect="always"
       xlink:href="#linearGradient991"
       id="linearGradient3483"
       gradientUnits="userSpaceOnUse"
       gradientTransform="matrix(1.3871979,0,0,1.3461637,-464.74345,329.31664)"
       x1="386.57144"
       y1="516.39801"
       x2="446.62146"
       y2="516.39801" />
    <linearGradient
       inkscape:collect="always"
       id="linearGradient991">
      <stop
         style="stop-color:#cccccc;stop-opacity:1"
         offset="0"
         id="stop987" />
      <stop
         style="stop-color:#cccccc;stop-opacity:1"
         offset="0.03132199"
         id="stop1929" />
      <stop
         style="stop-color:#0069a6;stop-opacity:1"
         offset="0.05527586"
         id="stop1263" />
      <stop
         style="stop-color:#0069a6;stop-opacity:1"
         offset="0.10902679"
         id="stop1027" />
      <stop
         style="stop-color:#cccccc;stop-opacity:1"
         offset="1"
         id="stop989" />
    </linearGradient>
  </defs>
  <metadata
     id="metadata5458">
    <rdf:RDF>
      <cc:Work
         rdf:about="">
        <dc:format>image/svg+xml</dc:format>
        <dc:type
           rdf:resource="http://purl.org/dc/dcmitype/StillImage" />
      </cc:Work>
    </rdf:RDF>
  </metadata>
  <g
     inkscape:label="Capa 1"
     inkscape:groupmode="layer"
     id="layer1"
     transform="translate(-384.57143,-515.798)">
    <g
       transform="matrix(0.36013848,0,0,0.37142583,359.81878,151.2823)"
       id="g4">
      <path
         inkscape:connector-curvature="0"
         id="fill"
         d="m 72.892525,993.51114 v 60.57736 c 0.150648,2.0345 1.384893,4.0385 5.410027,4.0385 h 69.000988 c 4.52787,0 6.07147,-0.6718 5.91276,-5.3846 v -48.462 c -1.38489,-2.6923 -11.07914,0 -11.07914,-8.07693 -16.61871,-1.34617 -47.086354,1.34616 -46.987736,-6.73082 H 78.428703 c -2.766393,0 -5.536178,1.34616 -5.536178,4.03849 z"
         style="color:#1e92ff;fill:#4e5a7e;fill-opacity:0.3;fill-rule:nonzero;stroke:none;stroke-width:14.3524"
         class="ColorScheme-ButtonFocus"
         sodipodi:nodetypes="cccccccccc" />
      <path
         d="m 149.14311,1000.7945 h -4.4307 v -1.58979 c 0,-2.76106 -1.24654,-4.12194 -2.29239,-4.77803 -1.12152,-0.70309 -2.22282,-0.73896 -2.43322,-0.73896 h -38.92734 c -0.83368,0 -1.617169,-0.85429 -2.446447,-1.75898 -1.055524,-1.15159 -2.251891,-2.45609 -4.068011,-2.45609 H 77.173436 c -3.229931,0 -5.665804,2.36296 -5.665804,5.49651 v 59.00754 c 0,3.031 2.541513,5.4965 5.665804,5.4965 h 71.969674 c 3.1243,0 5.66582,-2.4655 5.66582,-5.4965 v -47.6857 c 0,-3.031 -2.54152,-5.4965 -5.66582,-5.4965 z m 3.02483,53.1822 c 0,1.618 -1.3566,2.9336 -3.02483,2.9336 H 77.173436 c -1.668215,0 -3.024813,-1.3156 -3.024813,-2.9336 v -59.00754 c 0,-1.72653 1.24391,-2.93364 3.024813,-2.93364 h 17.371566 c 0.631192,0 1.342515,0.7757 2.09519,1.59667 1.069595,1.1661 2.400658,2.61755 4.419268,2.61755 h 38.91148 c 0.39879,0.0107 1.53003,0.17939 1.94554,1.67269 H 81.311979 c -3.36738,0.0674 -5.128036,1.77607 -5.128036,5.19327 l 0.154942,46.9859 h 1.605714 c 0,0 -0.333205,0.01 0.0014,0.01 0.519391,0 1.339413,0.099 2.1053,-0.4831 1.37596,-1.0473 1.434057,-2.4048 1.421745,-2.7764 l -0.0069,-38.6037 c 0,-5.1257 0,-5.1257 5.28198,-5.1257 l 62.396096,0.2417 c 1.6682,0.01 3.02481,1.3165 3.02481,2.9337 v 47.6856 z"
         id="path2-3-3-2"
         sodipodi:nodetypes="scscsscssssssssscsssssscsccccccsccccsscc"
         style="fill:url(#linearGradient3483);fill-opacity:1;stroke-width:0.867212" />
      <path
         class="st0"
         d="m 135.03959,1042.7782 c 0.88286,0 1.558,-0.7878 1.558,-1.8181 0,-1.0302 -0.67514,-1.818 -1.558,-1.818 -0.88287,0 -1.55801,0.7878 -1.55801,1.818 0,1.0303 0.67514,1.8181 1.55801,1.8181 z m -13.50271,0 c 0.88287,0 1.55801,-0.7878 1.55801,-1.8181 0,-1.0302 -0.67514,-1.818 -1.55801,-1.818 -0.88287,0 -1.558,0.7878 -1.558,1.818 0,1.0303 0.67513,1.8181 1.558,1.8181 z m 22.3314,6.0599 c -0.51934,-9.4536 -7.32262,-16.9679 -15.58005,-16.9679 -8.25742,0 -15.0607,7.5143 -15.58004,16.9679 z"
         id="path4-3"
         style="clip-rule:evenodd;fill:#a1cd32;fill-opacity:1;fill-rule:evenodd;stroke-width:0.560994" />
      <path
         class="st1"
         d="m 116.39547,1025.9919 c 0.51933,-0.3635 1.14254,-0.1211 1.4022,0.4242 l 3.21988,6.2418 1.14253,2 -0.98673,0.6667 c -1.97347,1.3331 -3.63534,3.1509 -4.93368,5.3325 -0.10387,0.2424 -0.1558,0.4849 -0.1558,0.7273 0,2.121 3.63534,3.8177 8.15355,3.8177 8.04969,0 14.54138,-2.6663 14.54138,-5.9994 0,-0.9089 -0.46741,-1.7573 -1.35027,-2.4844 h 1.8696 l 5.19335,11.5138 h -6.75135 v 1.8179 h -26.07061 l 0.0519,-1.2725 c 0.36354,-6.2417 3.21988,-11.6351 7.42649,-14.9075 l -3.11602,-6.2415 c -0.25966,-0.5454 -0.10387,-1.3336 0.36355,-1.6366 z"
         id="path6-6"
         style="fill:#f0f0f0;fill-opacity:1;stroke-width:0.560994" />
      <path
         class="st2"
         d="m 136.54566,1050.05 h 8.36129 l -0.0519,-1.2725 c -0.36354,-6.2417 -3.21988,-11.6351 -7.42649,-14.9075 l 3.11601,-6.2415 c 0.3116,-0.6059 0.10386,-1.3336 -0.36354,-1.6366 -0.46737,-0.3029 -1.14253,-0.1817 -1.45412,0.4242 l -3.16796,6.2418 c -2.1812,-1.2725 -4.67401,-1.9996 -7.32262,-1.9996 -2.6486,0 -5.14141,0.7271 -7.37455,1.9996 l 1.03867,2.0605 v 0.062 c 1.92154,-1.0907 4.05081,-1.6967 6.33588,-1.6967 7.32262,0 13.39884,6.3023 14.38558,14.5438 h -6.07623 z"
         id="path8-7"
         style="fill:#2ca05a;fill-opacity:1;stroke-width:0.560994" />
      <path
         class="fil1"
         d="m 121.68345,1037.9776 c 1.46383,0 2.58322,1.1718 2.58322,2.511 0,1.4229 -1.11939,2.511 -2.58322,2.511 -1.46382,0 -2.58322,-1.1718 -2.58322,-2.511 0,-1.4229 1.1194,-2.511 2.58322,-2.511 z m 1.54993,1.8414 c 0.34443,0 0.68886,0.2511 0.68886,0.6696 0,0.3348 -0.25831,0.6696 -0.68886,0.6696 -0.34443,0 -0.68885,-0.2511 -0.68885,-0.6696 0,-0.3348 0.25831,-0.6696 0.68885,-0.6696 z"
         id="path12-5"
         style="fill:#263740;fill-opacity:1;stroke-width:0.0848949;image-rendering:optimizeQuality;shape-rendering:geometricPrecision;text-rendering:geometricPrecision" />
      <path
         class="fil1"
         d="m 134.14748,1037.843 c 1.46383,0 2.58323,1.1718 2.58323,2.511 0,1.4229 -1.1194,2.511 -2.58323,2.511 -1.46382,0 -2.58321,-1.1718 -2.58321,-2.511 0,-1.4229 1.11939,-2.511 2.58321,-2.511 z m 1.54993,1.8414 c 0.34444,0 0.68886,0.2511 0.68886,0.6696 0,0.3348 -0.25831,0.6696 -0.68886,0.6696 -0.34442,0 -0.68885,-0.2511 -0.68885,-0.6696 0,-0.3348 0.25831,-0.6696 0.68885,-0.6696 z"
         id="path12-3-3"
         style="fill:#263740;fill-opacity:1;stroke-width:0.0848949;image-rendering:optimizeQuality;shape-rendering:geometricPrecision;text-rendering:geometricPrecision" />
    </g>
  </g>
</svg>
