<?xml version="1.0" encoding="UTF-8" standalone="no"?>
<svg
   width="32"
   version="1.1"
   height="32"
   viewBox="0 0 32 32"
   id="svg15"
   sodipodi:docname="folder-build.svg"
   inkscape:version="1.1.2 (0a00cf5339, 2022-02-04)"
   xmlns:inkscape="http://www.inkscape.org/namespaces/inkscape"
   xmlns:sodipodi="http://sodipodi.sourceforge.net/DTD/sodipodi-0.dtd"
   xmlns:xlink="http://www.w3.org/1999/xlink"
   xmlns="http://www.w3.org/2000/svg"
   xmlns:svg="http://www.w3.org/2000/svg"
   xmlns:rdf="http://www.w3.org/1999/02/22-rdf-syntax-ns#"
   xmlns:cc="http://creativecommons.org/ns#"
   xmlns:dc="http://purl.org/dc/elements/1.1/">
  <sodipodi:namedview
     pagecolor="#ffffff"
     bordercolor="#666666"
     borderopacity="1"
     objecttolerance="10"
     gridtolerance="10"
     guidetolerance="10"
     inkscape:pageopacity="0"
     inkscape:pageshadow="2"
     inkscape:window-width="1920"
     inkscape:window-height="1007"
     id="namedview17"
     showgrid="true"
     inkscape:zoom="9.8125"
     inkscape:cx="-14.522293"
     inkscape:cy="1.8343949"
     inkscape:window-x="0"
     inkscape:window-y="0"
     inkscape:window-maximized="1"
     inkscape:current-layer="g4"
     inkscape:pagecheckerboard="0">
    <inkscape:grid
       type="xygrid"
       id="grid862" />
  </sodipodi:namedview>
  <defs
     id="defs5455">
    <linearGradient
       inkscape:collect="always"
       id="linearGradient991">
      <stop
         style="stop-color:#cccccc;stop-opacity:1"
         offset="0"
         id="stop987" />
      <stop
         style="stop-color:#cccccc;stop-opacity:1"
         offset="0.03132199"
         id="stop1929" />
      <stop
         style="stop-color:#0069a6;stop-opacity:1"
         offset="0.05527586"
         id="stop1263" />
      <stop
         style="stop-color:#0069a6;stop-opacity:1"
         offset="0.10902679"
         id="stop1027" />
      <stop
         style="stop-color:#cccccc;stop-opacity:1"
         offset="1"
         id="stop989" />
    </linearGradient>
    <linearGradient
       inkscape:collect="always"
       id="linearGradient1154">
      <stop
         style="stop-color:#ffffff;stop-opacity:1"
         offset="0"
         id="stop1150" />
      <stop
         style="stop-color:#ff5555;stop-opacity:1"
         offset="0.06666645"
         id="stop1768" />
      <stop
         style="stop-color:#ffb380;stop-opacity:1"
         offset="1"
         id="stop1152" />
    </linearGradient>
    <linearGradient
       inkscape:collect="always"
       xlink:href="#linearGradient991"
       id="linearGradient3483"
       gradientUnits="userSpaceOnUse"
       gradientTransform="matrix(1.3871979,0,0,1.3461639,-464.74346,329.31656)"
       x1="386.57144"
       y1="516.39801"
       x2="446.62146"
       y2="516.39801" />
    <linearGradient
       inkscape:collect="always"
       xlink:href="#linearGradient1154"
       id="linearGradient1039"
       gradientUnits="userSpaceOnUse"
       gradientTransform="matrix(1.3848926,0,0,1.3461639,-464.33647,331.52038)"
       x1="425.57144"
       y1="522.79797"
       x2="431.57144"
       y2="524.79797" />
  </defs>
  <metadata
     id="metadata5458">
    <rdf:RDF>
      <cc:Work
         rdf:about="">
        <dc:format>image/svg+xml</dc:format>
        <dc:type
           rdf:resource="http://purl.org/dc/dcmitype/StillImage" />
      </cc:Work>
    </rdf:RDF>
  </metadata>
  <g
     inkscape:label="Capa 1"
     inkscape:groupmode="layer"
     id="layer1"
     transform="translate(-384.57143,-515.798)">
    <g
       transform="matrix(0.36013848,0,0,0.37142583,359.81878,151.2823)"
       id="g4">
      <path
         inkscape:connector-curvature="0"
         id="fill"
         d="m 72.892532,993.51115 v 60.57735 c 0.15064,2.0345 1.38489,4.0385 5.41002,4.0385 h 69.000978 c 4.52787,0 6.07147,-0.6718 5.91276,-5.3846 v -48.4619 c -1.38489,-2.6924 -11.07914,0 -11.07914,-8.07703 -16.61871,-1.34616 -47.086344,1.34617 -46.987726,-6.73082 H 78.428702 c -2.766392,0 -5.53617,1.34617 -5.53617,4.0385 z"
         style="color:#1e92ff;fill:#4e5a7e;fill-opacity:0.3;fill-rule:nonzero;stroke:none;stroke-width:14.3525"
         class="ColorScheme-ButtonFocus"
         sodipodi:nodetypes="cccccccccc" />
      <path
         d="m 149.1431,1000.7945 h -4.4307 v -1.5898 c 0,-2.76104 -1.24654,-4.12192 -2.29239,-4.77801 -1.12152,-0.70309 -2.22282,-0.73897 -2.43322,-0.73897 h -38.92734 c -0.83368,0 -1.617164,-0.85429 -2.446437,-1.75898 -1.055524,-1.15159 -2.251891,-2.45609 -4.068011,-2.45609 H 77.173435 c -3.229933,0 -5.665803,2.36297 -5.665803,5.49651 v 59.00754 c 0,3.031 2.54152,5.4965 5.665803,5.4965 H 149.1431 c 3.1243,0 5.66582,-2.4655 5.66582,-5.4965 v -47.6856 c 0,-3.0311 -2.54152,-5.4966 -5.66582,-5.4966 z m 3.02483,53.1822 c 0,1.618 -1.3566,2.9336 -3.02483,2.9336 H 77.173435 c -1.668214,0 -3.024813,-1.3156 -3.024813,-2.9336 v -59.00754 c 0,-1.72652 1.24391,-2.93364 3.024813,-2.93364 h 17.371567 c 0.631192,0 1.342515,0.7757 2.09519,1.59667 1.069594,1.1661 2.400656,2.61755 4.419258,2.61755 h 38.91148 c 0.39879,0.0108 1.53003,0.17939 1.94554,1.67269 H 81.311979 c -3.36738,0.0674 -5.128036,1.77611 -5.128036,5.19327 l 0.154941,46.9859 h 1.605715 c 0,0 -0.333205,0.01 0.0013,0.01 0.519389,0 1.339412,0.099 2.105299,-0.483 1.37596,-1.0474 1.434056,-2.4049 1.421745,-2.7765 l -0.0069,-38.6037 c 0,-5.1257 0,-5.1257 5.28198,-5.1257 l 62.396087,0.2417 c 1.6682,0.01 3.02481,1.3165 3.02481,2.9337 v 47.6856 z"
         id="path2-3-3-2"
         sodipodi:nodetypes="scscsscssssssssscsssssscsccccccsccccsscc"
         style="fill:url(#linearGradient3483);fill-opacity:1;stroke-width:0.867212" />
      <path
         style="color:#232629;fill:url(#linearGradient1039);fill-opacity:1;stroke:none;stroke-width:1.36539"
         d="m 137.70116,1019.0883 -0.43007,1.4276 c -0.88079,-0.071 -1.76812,0.023 -2.6129,0.2761 l -0.73302,-1.3041 -2.43168,1.2909 0.73302,1.3041 c -0.67721,0.5547 -1.2372,1.2285 -1.65267,1.9877 l -1.46334,-0.4154 -0.779,2.5819 1.46874,0.4181 c -0.0734,0.8561 0.0209,1.7213 0.28131,2.5424 l -1.34162,0.7126 1.32809,2.3636 1.34161,-0.7151 c 0.57058,0.6583 1.26652,1.2052 2.0476,1.6091 l -0.43008,1.4224 2.65888,0.7572 0.43008,-1.4277 c 0.88079,0.071 1.76812,-0.023 2.6129,-0.276 l 0.73573,1.3041 2.42897,-1.291 -0.73302,-1.3041 c 0.67721,-0.5546 1.23721,-1.2284 1.65268,-1.9877 l 1.46333,0.4154 0.779,-2.5819 -1.46875,-0.418 c 0.0734,-0.8562 -0.0209,-1.7213 -0.2813,-2.5425 l 1.34162,-0.7125 -1.3281,-2.3637 -1.34161,0.7152 c -0.57058,-0.6583 -1.2665,-1.2053 -2.04758,-1.6091 l 0.43006,-1.4224 z m -1.36866,2.758 c 0.27486,-0.017 0.5522,-0.015 0.82769,0.01 0.36732,0.03 0.73373,0.095 1.09277,0.1972 1.38212,0.3944 2.553,1.2965 3.26207,2.5162 0.73676,1.2654 0.91599,2.7687 0.49499,4.1647 -0.40578,1.3434 -1.33385,2.4816 -2.58856,3.1708 -1.3018,0.7162 -2.84838,0.8904 -4.28451,0.4812 -1.38213,-0.3945 -2.55571,-1.2966 -3.26478,-2.5162 -0.73676,-1.2654 -0.91599,-2.7687 -0.49498,-4.1647 0.40577,-1.3435 1.33384,-2.4816 2.58855,-3.1709 0.73227,-0.4028 1.54219,-0.634 2.36676,-0.6862 z m -18.46073,3.9333 -2.75626,0.2629 0.14877,1.4803 c -0.84479,0.2531 -1.63117,0.6604 -2.31808,1.2016 l -1.18473,-0.9439 -1.75816,2.0797 1.18203,0.9439 c -0.41547,0.7606 -0.67401,1.5916 -0.76819,2.4478 l -1.51742,0.1446 0.27048,2.6792 1.52284,-0.1446 c 0.26036,0.8212 0.6794,1.5855 1.23613,2.2532 l -0.97104,1.1516 2.13954,1.709 0.97105,-1.1489 c 0.78246,0.4038 1.63744,0.6551 2.51823,0.7467 l 0.14877,1.475 2.75627,-0.263 -0.14878,-1.4802 c 0.84478,-0.2531 1.63116,-0.6604 2.31807,-1.2016 l 1.18474,0.9439 1.75816,-2.0797 -1.18202,-0.9439 c 0.41547,-0.7606 0.674,-1.5916 0.76817,-2.4478 l 1.51744,-0.1446 -0.2705,-2.6792 -1.52284,0.1446 c -0.26036,-0.8211 -0.67938,-1.5855 -1.23611,-2.2532 l 0.97104,-1.1516 -2.13954,-1.709 -0.97106,1.1489 c -0.78247,-0.4038 -1.63743,-0.6551 -2.51822,-0.7467 z m -0.0378,2.8081 c 1.06088,0.099 2.07849,0.4963 2.92396,1.1516 1.17024,0.9073 1.913,2.235 2.05841,3.6835 0.14126,1.3946 -0.28324,2.7876 -1.18203,3.8834 -0.93342,1.1375 -2.30208,1.8595 -3.79223,2.0008 -1.43474,0.1373 -2.86508,-0.2753 -3.99238,-1.149 -1.17023,-0.9073 -1.91299,-2.2377 -2.05841,-3.6861 -0.14125,-1.3947 0.28324,-2.785 1.18204,-3.8808 0.93342,-1.1375 2.29938,-1.8595 3.78952,-2.0008 0.35869,-0.034 0.7175,-0.036 1.07112,-0.01 z m 11.93388,5.361 v 1.4881 c -0.86694,0.1723 -1.69083,0.5042 -2.42898,0.9781 l -1.08194,-1.0517 -1.95832,1.9035 1.08194,1.0517 c -0.48886,0.7175 -0.83297,1.5184 -1.01162,2.3611 h -1.52554 v 2.6923 h 1.53095 c 0.17727,0.8427 0.51873,1.6435 1.00621,2.3611 l -1.08195,1.0516 1.95832,1.9036 1.08195,-1.0517 c 0.73815,0.4752 1.56204,0.8097 2.42898,0.9833 v 1.4829 h 2.76978 v -1.4881 c 0.86695,-0.1723 1.69082,-0.5042 2.42897,-0.9781 l 1.08195,1.0517 1.95833,-1.9036 -1.08195,-1.0516 c 0.48887,-0.7176 0.83296,-1.5184 1.01161,-2.3611 h 1.52556 v -2.6923 h -1.53096 c -0.17727,-0.8427 -0.51873,-1.6436 -1.00621,-2.3611 l 1.08195,-1.0517 -1.95833,-1.9035 -1.08195,1.0517 c -0.73815,-0.4752 -1.56202,-0.8097 -2.42897,-0.9834 v -1.4828 z m 1.38489,2.6923 c 1.44168,0 2.82534,0.5463 3.85985,1.5223 1.07329,1.0137 1.67972,2.4071 1.67972,3.8623 0,1.4014 -0.56207,2.7464 -1.56612,3.7519 -1.04282,1.0433 -2.47638,1.6328 -3.97345,1.6328 -1.44167,0 -2.82533,-0.5464 -3.85984,-1.5223 -1.0733,-1.0137 -1.67973,-2.4072 -1.67973,-3.8624 0,-1.4013 0.56208,-2.7463 1.56612,-3.7519 1.04283,-1.0432 2.47639,-1.6327 3.97345,-1.6327 z"
         class="ColorScheme-Text"
         id="path12-5" />
    </g>
  </g>
</svg>
