<?xml version="1.0" encoding="UTF-8" standalone="no"?>
<svg
   width="32"
   version="1.1"
   height="32"
   viewBox="0 0 32 32"
   id="svg15"
   sodipodi:docname="folder-black.svg"
   inkscape:version="1.1.2 (0a00cf5339, 2022-02-04)"
   xmlns:inkscape="http://www.inkscape.org/namespaces/inkscape"
   xmlns:sodipodi="http://sodipodi.sourceforge.net/DTD/sodipodi-0.dtd"
   xmlns:xlink="http://www.w3.org/1999/xlink"
   xmlns="http://www.w3.org/2000/svg"
   xmlns:svg="http://www.w3.org/2000/svg"
   xmlns:rdf="http://www.w3.org/1999/02/22-rdf-syntax-ns#"
   xmlns:cc="http://creativecommons.org/ns#"
   xmlns:dc="http://purl.org/dc/elements/1.1/">
  <sodipodi:namedview
     pagecolor="#ffffff"
     bordercolor="#666666"
     borderopacity="1"
     objecttolerance="10"
     gridtolerance="10"
     guidetolerance="10"
     inkscape:pageopacity="0"
     inkscape:pageshadow="2"
     inkscape:window-width="1920"
     inkscape:window-height="1007"
     id="namedview17"
     showgrid="true"
     inkscape:zoom="9.8125"
     inkscape:cx="-15.235669"
     inkscape:cy="5.5031847"
     inkscape:window-x="0"
     inkscape:window-y="0"
     inkscape:window-maximized="1"
     inkscape:current-layer="layer1"
     inkscape:pagecheckerboard="0">
    <inkscape:grid
       type="xygrid"
       id="grid907" />
  </sodipodi:namedview>
  <defs
     id="defs5455">
    <linearGradient
       inkscape:collect="always"
       xlink:href="#linearGradient991-6"
       id="linearGradient1482-3"
       x1="386.57144"
       y1="516.39801"
       x2="446.62146"
       y2="516.39801"
       gradientUnits="userSpaceOnUse"
       gradientTransform="matrix(0.49958341,0,0,0.49875319,192.44675,274.26031)" />
    <linearGradient
       inkscape:collect="always"
       id="linearGradient991-6">
      <stop
         style="stop-color:#0d0d0d;stop-opacity:1"
         offset="0"
         id="stop987-7" />
      <stop
         style="stop-color:#0d0d0d;stop-opacity:1"
         offset="0.03132199"
         id="stop1929-5" />
      <stop
         style="stop-color:#0d0d0d;stop-opacity:1"
         offset="0.05527586"
         id="stop1263-3" />
      <stop
         style="stop-color:#0d0d0d;stop-opacity:1"
         offset="0.10902679"
         id="stop1027-5" />
      <stop
         style="stop-color:#131313;stop-opacity:1"
         offset="1"
         id="stop989-6" />
    </linearGradient>
  </defs>
  <metadata
     id="metadata5458">
    <rdf:RDF>
      <cc:Work
         rdf:about="">
        <dc:format>image/svg+xml</dc:format>
        <dc:type
           rdf:resource="http://purl.org/dc/dcmitype/StillImage" />
      </cc:Work>
    </rdf:RDF>
  </metadata>
  <g
     inkscape:label="Capa 1"
     inkscape:groupmode="layer"
     id="layer1"
     transform="translate(-384.57143,-515.798)">
    <path
       d="m 413.53095,523.04264 h -1.59566 v -0.58903 c 0,-1.02299 -0.44893,-1.52719 -0.82558,-1.77027 -0.4039,-0.2605 -0.80052,-0.27379 -0.8763,-0.27379 h -14.01923 c -0.30024,0 -0.5824,-0.31651 -0.88106,-0.65169 -0.38013,-0.42667 -0.81099,-0.90999 -1.46505,-0.90999 h -6.25616 c -1.16323,0 -2.04048,0.87548 -2.04048,2.03646 v 21.86225 c 0,1.123 0.91529,2.03646 2.04048,2.03646 h 25.91904 c 1.12519,0 2.04048,-0.91346 2.04048,-2.03646 v -17.6675 c 0,-1.12299 -0.91529,-2.03644 -2.04048,-2.03644 z m 1.08936,19.70394 c 0,0.59949 -0.48856,1.08692 -1.08936,1.08692 h -25.91904 c -0.6008,0 -1.08936,-0.48743 -1.08936,-1.08692 v -21.86225 c 0,-0.63967 0.44798,-1.08692 1.08936,-1.08692 h 6.25616 c 0.22732,0 0.4835,0.2874 0.75456,0.59157 0.38521,0.43205 0.86457,0.96981 1.59155,0.96981 h 14.01353 c 0.14361,0.004 0.55102,0.0665 0.70065,0.61973 h -21.826 c -1.21273,0.025 -1.84681,0.65803 -1.84681,1.92408 l 0.0558,17.40828 h 0.57828 c 0,0 -0.12,10e-4 4.9e-4,10e-4 0.18705,0 0.48237,0.0366 0.75819,-0.17898 0.49554,-0.38803 0.51646,-0.89098 0.51202,-1.02867 l -0.002,-14.30265 c 0,-1.89909 0,-1.89909 1.90224,-1.89909 l 22.47123,0.0895 c 0.60079,0.002 1.08936,0.48775 1.08936,1.0869 v 17.6675 z"
       id="path2-3-3-2"
       sodipodi:nodetypes="scscsscssssssssscsssssscsccccccsccccsscc"
       style="fill:url(#linearGradient1482-3);fill-opacity:1;stroke-width:0.316778" />
    <path
       inkscape:connector-curvature="0"
       id="fill"
       d="m 386.07018,520.29426 v 22.44389 c 0.0543,0.75377 0.49876,1.49627 1.94836,1.49627 h 24.84992 c 1.63066,0 2.18657,-0.2489 2.12941,-1.99502 v -17.95512 c -0.49875,-0.9975 -3.99002,0 -3.99002,-2.99252 -5.98505,-0.49875 -16.95761,0.49876 -16.9221,-2.49376 h -6.02177 c -0.99629,0 -1.9938,0.49875 -1.9938,1.49626 z"
       style="color:#1e92ff;fill:#4e5a7e;fill-opacity:0.3;fill-rule:nonzero;stroke:none;stroke-width:5.24269"
       class="ColorScheme-ButtonFocus"
       sodipodi:nodetypes="cccccccccc" />
  </g>
</svg>
