<?xml version="1.0" encoding="UTF-8" standalone="no"?>
<svg
   width="32"
   version="1.1"
   height="32"
   viewBox="0 0 32 32"
   id="svg15"
   sodipodi:docname="folder-docker.svg"
   inkscape:version="1.1.2 (0a00cf5339, 2022-02-04)"
   xmlns:inkscape="http://www.inkscape.org/namespaces/inkscape"
   xmlns:sodipodi="http://sodipodi.sourceforge.net/DTD/sodipodi-0.dtd"
   xmlns:xlink="http://www.w3.org/1999/xlink"
   xmlns="http://www.w3.org/2000/svg"
   xmlns:svg="http://www.w3.org/2000/svg"
   xmlns:rdf="http://www.w3.org/1999/02/22-rdf-syntax-ns#"
   xmlns:cc="http://creativecommons.org/ns#"
   xmlns:dc="http://purl.org/dc/elements/1.1/">
  <sodipodi:namedview
     pagecolor="#ffffff"
     bordercolor="#666666"
     borderopacity="1"
     objecttolerance="10"
     gridtolerance="10"
     guidetolerance="10"
     inkscape:pageopacity="0"
     inkscape:pageshadow="2"
     inkscape:window-width="1920"
     inkscape:window-height="1007"
     id="namedview17"
     showgrid="true"
     inkscape:zoom="9.8125"
     inkscape:cx="1.477707"
     inkscape:cy="18.140127"
     inkscape:window-x="0"
     inkscape:window-y="0"
     inkscape:window-maximized="1"
     inkscape:current-layer="g4"
     inkscape:pagecheckerboard="0">
    <inkscape:grid
       type="xygrid"
       id="grid862" />
  </sodipodi:namedview>
  <defs
     id="defs5455">
    <linearGradient
       inkscape:collect="always"
       id="linearGradient991">
      <stop
         style="stop-color:#cccccc;stop-opacity:1"
         offset="0"
         id="stop987" />
      <stop
         style="stop-color:#cccccc;stop-opacity:1"
         offset="0.03132199"
         id="stop1929" />
      <stop
         style="stop-color:#0069a6;stop-opacity:1"
         offset="0.05527586"
         id="stop1263" />
      <stop
         style="stop-color:#0069a6;stop-opacity:1"
         offset="0.10902679"
         id="stop1027" />
      <stop
         style="stop-color:#cccccc;stop-opacity:1"
         offset="1"
         id="stop989" />
    </linearGradient>
    <linearGradient
       inkscape:collect="always"
       id="linearGradient7105">
      <stop
         style="stop-color:#00ccff;stop-opacity:1"
         offset="0"
         id="stop7101" />
      <stop
         style="stop-color:#ccaaff;stop-opacity:1"
         offset="1"
         id="stop7103" />
    </linearGradient>
    <linearGradient
       inkscape:collect="always"
       xlink:href="#linearGradient991"
       id="linearGradient3483"
       gradientUnits="userSpaceOnUse"
       gradientTransform="matrix(1.3871978,0,0,1.346164,-464.74344,329.31651)"
       x1="386.57144"
       y1="516.39801"
       x2="446.62146"
       y2="516.39801" />
    <linearGradient
       inkscape:collect="always"
       xlink:href="#linearGradient7105"
       id="linearGradient1033"
       gradientUnits="userSpaceOnUse"
       gradientTransform="matrix(1.3848926,0,0,1.346164,-465.92963,331.47037)"
       x1="411.57144"
       y1="524.79797"
       x2="441.17142"
       y2="524.79797" />
  </defs>
  <metadata
     id="metadata5458">
    <rdf:RDF>
      <cc:Work
         rdf:about="">
        <dc:format>image/svg+xml</dc:format>
        <dc:type
           rdf:resource="http://purl.org/dc/dcmitype/StillImage" />
      </cc:Work>
    </rdf:RDF>
  </metadata>
  <g
     inkscape:label="Capa 1"
     inkscape:groupmode="layer"
     id="layer1"
     transform="translate(-384.57143,-515.798)">
    <g
       transform="matrix(0.36013848,0,0,0.37142583,359.81878,151.2823)"
       id="g4">
      <path
         inkscape:connector-curvature="0"
         id="fill"
         d="m 72.892525,993.51115 v 60.57745 c 0.150649,2.0345 1.384892,4.0385 5.410027,4.0385 h 69.000988 c 4.52787,0 6.07147,-0.6718 5.91276,-5.3847 v -48.4619 c -1.38489,-2.6924 -11.07914,0 -11.07914,-8.07703 -16.61871,-1.34616 -47.086353,1.34617 -46.987736,-6.73082 H 78.428702 c -2.766391,0 -5.536177,1.34617 -5.536177,4.0385 z"
         style="color:#1e92ff;fill:#4e5a7e;fill-opacity:0.3;fill-rule:nonzero;stroke:none;stroke-width:14.3525"
         class="ColorScheme-ButtonFocus"
         sodipodi:nodetypes="cccccccccc" />
      <path
         d="m 149.14311,1000.7946 h -4.4307 v -1.58988 c 0,-2.76106 -1.24654,-4.12194 -2.29239,-4.77803 -1.12152,-0.70309 -2.22282,-0.73897 -2.43323,-0.73897 h -38.92733 c -0.83368,0 -1.617173,-0.85429 -2.446447,-1.75898 -1.055524,-1.15159 -2.25189,-2.45609 -4.068011,-2.45609 H 77.173435 c -3.229929,0 -5.665803,2.36297 -5.665803,5.49651 v 59.00754 c 0,3.0311 2.541514,5.4965 5.665803,5.4965 h 71.969675 c 3.1243,0 5.66582,-2.4654 5.66582,-5.4965 v -47.6856 c 0,-3.0311 -2.54152,-5.4965 -5.66582,-5.4965 z m 3.02482,53.1821 c 0,1.6181 -1.35659,2.9337 -3.02482,2.9337 H 77.173435 c -1.668214,0 -3.024813,-1.3156 -3.024813,-2.9337 v -59.00754 c 0,-1.72652 1.243911,-2.93364 3.024813,-2.93364 h 17.371567 c 0.631192,0 1.342515,0.7757 2.09519,1.59667 1.069594,1.1661 2.400656,2.61755 4.419268,2.61755 h 38.91148 c 0.39879,0.0108 1.53003,0.17939 1.94554,1.67269 H 81.311979 c -3.36738,0.0674 -5.128036,1.77608 -5.128036,5.19327 l 0.154942,46.9859 h 1.605714 c 0,0 -0.333205,0.01 0.0014,0.01 0.519389,0 1.339412,0.099 2.105299,-0.483 1.37596,-1.0474 1.434057,-2.4049 1.421745,-2.7765 l -0.0069,-38.6037 c 0,-5.1257 0,-5.1257 5.281981,-5.1257 l 62.396086,0.2417 c 1.6682,0.01 3.02482,1.3165 3.02482,2.9337 v 47.6856 z"
         id="path2-3-3-2"
         sodipodi:nodetypes="scscsscssssssssscsssssscsccccccsccccsscc"
         style="fill:url(#linearGradient3483);fill-opacity:1;stroke-width:0.867212" />
      <path
         style="color:#232629;fill:url(#linearGradient1033);fill-opacity:1;stroke:none;stroke-width:1.36539"
         d="m 122.19471,1025.8191 h -4.29317 v 4.0385 h 4.15468 z m 1.2464,0 v 4.0385 h 4.15468 v -4.0385 z m 11.77159,3.3654 c -1.3849,1.0769 -2.07734,2.8269 -1.66188,4.4423 0.55396,1.6154 1.93885,2.827 3.73921,2.9616 0.55396,1.6154 2.07734,2.6923 3.8777,2.6923 1.80036,0 3.32375,-1.0769 3.8777,-2.6923 -0.55395,-1.6154 -2.07734,-2.6923 -3.8777,-2.6923 -0.83093,0 -1.66187,0.2692 -2.35431,0.6731 0.32057,-0.6731 0.27697,-1.6154 0.13849,-2.4231 -0.41547,-1.6154 -1.93885,-2.827 -3.73921,-2.9616 z m 2.07733,7.4039 h -33.23742 c 0,8.8847 7.47842,13.4616 16.61871,13.4616 9.1403,0 16.61871,-4.5769 16.61871,-13.4616 z m -22.15828,-5.3847 h -4.15467 v 4.0385 h 4.15467 z m 5.53957,0 h -4.15467 v 4.0385 h 4.15467 z m 5.53957,0 h -4.15467 v 4.0385 h 4.15467 z m 5.53957,0 h -4.15467 v 4.0385 h 4.15467 z m -20.77338,8.077 c 0.69244,0 1.38489,0.5385 1.38489,1.3462 0,0.6731 -0.69245,1.3462 -1.38489,1.3462 -0.83094,0 -1.3849,-0.6731 -1.3849,-1.3462 0,-0.8077 0.55396,-1.3462 1.3849,-1.3462 z"
         class="ColorScheme-Text"
         id="path12-7" />
    </g>
  </g>
</svg>
