<?xml version="1.0" encoding="UTF-8" standalone="no"?>
<svg
   width="32"
   version="1.1"
   height="32"
   viewBox="0 0 32 32"
   id="svg15"
   sodipodi:docname="folder-blender.svg"
   inkscape:version="1.1.2 (0a00cf5339, 2022-02-04)"
   xmlns:inkscape="http://www.inkscape.org/namespaces/inkscape"
   xmlns:sodipodi="http://sodipodi.sourceforge.net/DTD/sodipodi-0.dtd"
   xmlns:xlink="http://www.w3.org/1999/xlink"
   xmlns="http://www.w3.org/2000/svg"
   xmlns:svg="http://www.w3.org/2000/svg"
   xmlns:rdf="http://www.w3.org/1999/02/22-rdf-syntax-ns#"
   xmlns:cc="http://creativecommons.org/ns#"
   xmlns:dc="http://purl.org/dc/elements/1.1/">
  <sodipodi:namedview
     pagecolor="#ffffff"
     bordercolor="#666666"
     borderopacity="1"
     objecttolerance="10"
     gridtolerance="10"
     guidetolerance="10"
     inkscape:pageopacity="0"
     inkscape:pageshadow="2"
     inkscape:window-width="1920"
     inkscape:window-height="1007"
     id="namedview17"
     showgrid="true"
     inkscape:zoom="9.8125"
     inkscape:cx="-24.611465"
     inkscape:cy="1.8343949"
     inkscape:window-x="0"
     inkscape:window-y="0"
     inkscape:window-maximized="1"
     inkscape:current-layer="g4"
     inkscape:pagecheckerboard="0">
    <inkscape:grid
       type="xygrid"
       id="grid862" />
  </sodipodi:namedview>
  <defs
     id="defs5455">
    <linearGradient
       inkscape:collect="always"
       id="linearGradient991">
      <stop
         style="stop-color:#cccccc;stop-opacity:1"
         offset="0"
         id="stop987" />
      <stop
         style="stop-color:#cccccc;stop-opacity:1"
         offset="0.03132199"
         id="stop1929" />
      <stop
         style="stop-color:#0069a6;stop-opacity:1"
         offset="0.05527586"
         id="stop1263" />
      <stop
         style="stop-color:#0069a6;stop-opacity:1"
         offset="0.10902679"
         id="stop1027" />
      <stop
         style="stop-color:#cccccc;stop-opacity:1"
         offset="1"
         id="stop989" />
    </linearGradient>
    <linearGradient
       inkscape:collect="always"
       id="linearGradient954">
      <stop
         style="stop-color:#00ccff;stop-opacity:1"
         offset="0"
         id="stop950" />
      <stop
         style="stop-color:#8787de;stop-opacity:1"
         offset="1"
         id="stop952" />
    </linearGradient>
    <linearGradient
       inkscape:collect="always"
       xlink:href="#linearGradient991"
       id="linearGradient3483"
       gradientUnits="userSpaceOnUse"
       gradientTransform="matrix(1.3871979,0,0,1.3461636,-464.74344,329.3166)"
       x1="386.57144"
       y1="516.39801"
       x2="446.62146"
       y2="516.39801" />
    <linearGradient
       inkscape:collect="always"
       xlink:href="#linearGradient954"
       id="linearGradient1052"
       gradientUnits="userSpaceOnUse"
       gradientTransform="matrix(1.3848926,0,0,1.3461636,-463.85227,331.47046)"
       x1="415.57144"
       y1="521.79797"
       x2="439.57162"
       y2="521.79797" />
  </defs>
  <metadata
     id="metadata5458">
    <rdf:RDF>
      <cc:Work
         rdf:about="">
        <dc:format>image/svg+xml</dc:format>
        <dc:type
           rdf:resource="http://purl.org/dc/dcmitype/StillImage" />
      </cc:Work>
    </rdf:RDF>
  </metadata>
  <g
     inkscape:label="Capa 1"
     inkscape:groupmode="layer"
     id="layer1"
     transform="translate(-384.57143,-515.798)">
    <g
       transform="matrix(0.36013848,0,0,0.37142583,359.81878,151.2823)"
       id="g4">
      <path
         inkscape:connector-curvature="0"
         id="fill"
         d="m 72.892532,993.51115 v 60.57735 c 0.15064,2.0345 1.38489,4.0385 5.41002,4.0385 h 69.000988 c 4.52787,0 6.07147,-0.6718 5.91276,-5.3846 v -48.4619 c -1.38489,-2.6924 -11.07914,0 -11.07914,-8.07703 -16.61871,-1.34616 -47.086354,1.34618 -46.987735,-6.73082 H 78.428702 c -2.76639,0 -5.53617,1.34617 -5.53617,4.0385 z"
         style="color:#1e92ff;fill:#4e5a7e;fill-opacity:0.3;fill-rule:nonzero;stroke:none;stroke-width:14.3524"
         class="ColorScheme-ButtonFocus"
         sodipodi:nodetypes="cccccccccc" />
      <path
         d="m 149.14311,1000.7946 h -4.4307 v -1.58988 c 0,-2.76105 -1.24654,-4.12194 -2.29239,-4.77803 -1.12152,-0.70309 -2.22282,-0.73896 -2.43322,-0.73896 h -38.92734 c -0.83368,0 -1.617169,-0.85429 -2.446447,-1.75899 -1.055523,-1.15159 -2.251891,-2.45609 -4.068011,-2.45609 h -17.37156 c -3.22993,0 -5.66581,2.36297 -5.66581,5.49651 v 59.00754 c 0,3.0309 2.54152,5.4965 5.66581,5.4965 h 71.969668 c 3.1243,0 5.66582,-2.4656 5.66582,-5.4965 v -47.6856 c 0,-3.0311 -2.54152,-5.4965 -5.66582,-5.4965 z m 3.02483,53.1821 c 0,1.618 -1.3566,2.9336 -3.02483,2.9336 H 77.173442 c -1.66821,0 -3.02482,-1.3156 -3.02482,-2.9336 v -59.00754 c 0,-1.72652 1.24392,-2.93364 3.02482,-2.93364 h 17.37156 c 0.631193,0 1.342515,0.7757 2.09519,1.59667 1.069594,1.1661 2.400658,2.61755 4.419268,2.61755 h 38.91148 c 0.39879,0.0109 1.53003,0.17939 1.94554,1.6727 H 81.311982 c -3.36738,0.0674 -5.12804,1.77607 -5.12804,5.19316 l 0.15494,46.986 h 1.60572 c 0,0 -0.33321,0.01 9.9e-4,0.01 0.5194,0 1.33942,0.099 2.10531,-0.4831 1.37595,-1.0474 1.43406,-2.4048 1.42174,-2.7765 l -0.007,-38.6037 c 0,-5.1258 0,-5.1258 5.28199,-5.1258 l 62.396088,0.2418 c 1.6682,0.01 3.02481,1.3165 3.02481,2.9337 v 47.6856 z"
         id="path2-3-3-2"
         sodipodi:nodetypes="scscsscssssssssscsssssscsccccccsccccsscc"
         style="fill:url(#linearGradient3483);fill-opacity:1;stroke-width:0.867211" />
      <path
         style="color:#232629;fill:url(#linearGradient1052);fill-opacity:1;stroke:none;stroke-width:1.48964"
         d="m 127.72181,1017.7421 a 2.2661885,2.202814 0 0 0 -2.26624,2.2029 2.2661885,2.202814 0 0 0 0.71765,1.4684 h -0.15123 l 5.2878,5.1399 h -17.37403 a 2.2661885,2.202814 0 0 0 -2.26624,2.2028 2.2661885,2.202814 0 0 0 2.26624,2.2029 h 8.30936 l -9.66905,9.3987 a 2.2661885,2.202814 0 0 0 -0.90655,1.7621 2.2661885,2.202814 0 0 0 2.26624,2.2028 2.2661885,2.202814 0 0 0 1.66187,-0.7341 c 0,0 0,0 0,0 l 5.13657,-4.993 a 12.086332,11.748335 0 0 0 12.08651,11.4545 12.086332,11.748335 0 0 0 12.08623,-11.7482 12.086332,11.748335 0 0 0 -4.53247,-9.2519 l -11.02873,-10.5735 a 2.2661885,2.202814 0 0 0 -1.62393,-0.7343 z m 5.0989,13.2169 a 7.5539576,7.3427095 0 0 1 4.5322,1.4684 l 1.35969,1.3219 v 0 a 7.5539576,7.3427095 0 0 1 1.66187,4.5525 7.5539576,7.3427095 0 0 1 -7.55376,7.3425 7.5539576,7.3427095 0 0 1 -7.55404,-7.3425 7.5539576,7.3427095 0 0 1 7.55404,-7.3428 z m 0,4.4057 a 3.0215836,2.9370844 0 0 0 -3.02156,2.9371 3.0215836,2.9370844 0 0 0 3.02156,2.9371 3.0215836,2.9370844 0 0 0 3.02156,-2.9371 3.0215836,2.9370844 0 0 0 -3.02156,-2.9371 z"
         class="ColorScheme-Text"
         id="path12-7" />
    </g>
  </g>
</svg>
