<?xml version="1.0" encoding="UTF-8" standalone="no"?>
<svg
   width="32"
   version="1.1"
   height="32"
   viewBox="0 0 32 32"
   id="svg17"
   sodipodi:docname="folder-templates.svg"
   inkscape:version="1.1.2 (0a00cf5339, 2022-02-04)"
   xmlns:inkscape="http://www.inkscape.org/namespaces/inkscape"
   xmlns:sodipodi="http://sodipodi.sourceforge.net/DTD/sodipodi-0.dtd"
   xmlns:xlink="http://www.w3.org/1999/xlink"
   xmlns="http://www.w3.org/2000/svg"
   xmlns:svg="http://www.w3.org/2000/svg"
   xmlns:rdf="http://www.w3.org/1999/02/22-rdf-syntax-ns#"
   xmlns:cc="http://creativecommons.org/ns#"
   xmlns:dc="http://purl.org/dc/elements/1.1/">
  <sodipodi:namedview
     pagecolor="#ffffff"
     bordercolor="#666666"
     borderopacity="1"
     objecttolerance="10"
     gridtolerance="10"
     guidetolerance="10"
     inkscape:pageopacity="0"
     inkscape:pageshadow="2"
     inkscape:window-width="1920"
     inkscape:window-height="1007"
     id="namedview19"
     showgrid="true"
     inkscape:zoom="9.8125"
     inkscape:cx="-11.057325"
     inkscape:cy="3.0573248"
     inkscape:window-x="0"
     inkscape:window-y="0"
     inkscape:window-maximized="1"
     inkscape:current-layer="layer1"
     inkscape:pagecheckerboard="0">
    <inkscape:grid
       type="xygrid"
       id="grid838" />
  </sodipodi:namedview>
  <defs
     id="defs5455">
    <linearGradient
       inkscape:collect="always"
       id="linearGradient991">
      <stop
         style="stop-color:#cccccc;stop-opacity:1"
         offset="0"
         id="stop987" />
      <stop
         style="stop-color:#cccccc;stop-opacity:1"
         offset="0.03132199"
         id="stop1929" />
      <stop
         style="stop-color:#0069a6;stop-opacity:1"
         offset="0.05527586"
         id="stop1263" />
      <stop
         style="stop-color:#0069a6;stop-opacity:1"
         offset="0.10902679"
         id="stop1027" />
      <stop
         style="stop-color:#cccccc;stop-opacity:1"
         offset="1"
         id="stop989" />
    </linearGradient>
    <linearGradient
       inkscape:collect="always"
       id="linearGradient1637">
      <stop
         style="stop-color:#00adb5;stop-opacity:1;"
         offset="0"
         id="stop1633" />
      <stop
         style="stop-color:#8d5fd3;stop-opacity:1"
         offset="1"
         id="stop1635" />
    </linearGradient>
    <linearGradient
       inkscape:collect="always"
       xlink:href="#linearGradient991"
       id="linearGradient3483"
       gradientUnits="userSpaceOnUse"
       gradientTransform="matrix(0.49958334,0,0,0.5,192.44677,273.599)"
       x1="386.57144"
       y1="516.39801"
       x2="446.62146"
       y2="516.39801" />
    <linearGradient
       inkscape:collect="always"
       xlink:href="#linearGradient1637"
       id="linearGradient1561"
       gradientUnits="userSpaceOnUse"
       gradientTransform="matrix(0.49875312,0,0,0.5,192.71784,273.899)"
       x1="417.17142"
       y1="521.99799"
       x2="439.57144"
       y2="521.99799" />
  </defs>
  <metadata
     id="metadata5458">
    <rdf:RDF>
      <cc:Work
         rdf:about="">
        <dc:format>image/svg+xml</dc:format>
        <dc:type
           rdf:resource="http://purl.org/dc/dcmitype/StillImage" />
      </cc:Work>
    </rdf:RDF>
  </metadata>
  <g
     inkscape:label="Capa 1"
     inkscape:groupmode="layer"
     id="layer1"
     transform="translate(-384.57143,-515.798)">
    <path
       inkscape:connector-curvature="0"
       id="fill"
       d="m 386.07018,520.298 v 22.5 c 0.0543,0.75565 0.49876,1.5 1.94836,1.5 h 24.84991 c 1.63066,0 2.18657,-0.24951 2.12941,-2 v -18 c -0.49875,-1 -3.99002,0 -3.99002,-3 -5.98504,-0.5 -16.95761,0.5 -16.9221,-2.5 h -6.02177 c -0.99628,0 -1.99379,0.5 -1.99379,1.5 z"
       style="color:#1e92ff;fill:#4e5a7e;fill-opacity:0.3;fill-rule:nonzero;stroke:none;stroke-width:5.24924"
       class="ColorScheme-ButtonFocus"
       sodipodi:nodetypes="cccccccccc" />
    <path
       d="m 413.53095,523.00324 h -1.59567 v -0.5905 c 0,-1.02553 -0.44893,-1.53099 -0.82558,-1.77469 -0.4039,-0.26114 -0.80051,-0.27447 -0.87629,-0.27447 h -14.01924 c -0.30024,0 -0.5824,-0.3173 -0.88105,-0.65333 -0.38013,-0.42773 -0.811,-0.91225 -1.46505,-0.91225 h -6.25617 c -1.16322,0 -2.04047,0.87766 -2.04047,2.04154 v 21.91691 c 0,1.1258 0.91529,2.04155 2.04047,2.04155 h 25.91905 c 1.12518,0 2.04048,-0.91575 2.04048,-2.04155 v -17.71166 c 0,-1.1258 -0.9153,-2.04155 -2.04048,-2.04155 z m 1.08936,19.75321 c 0,0.60098 -0.48857,1.08964 -1.08936,1.08964 H 387.6119 c -0.60079,0 -1.08935,-0.48866 -1.08935,-1.08964 v -21.9169 c 0,-0.64128 0.44798,-1.08964 1.08935,-1.08964 h 6.25617 c 0.22732,0 0.48349,0.28812 0.75456,0.59305 0.38521,0.43312 0.86457,0.97223 1.59154,0.97223 h 14.01353 c 0.14362,0.004 0.55102,0.0666 0.70066,0.62127 h -21.82601 c -1.21273,0.0251 -1.8468,0.65969 -1.8468,1.9289 l 0.0558,17.4518 h 0.57827 c 0,0 -0.12,0.001 4.9e-4,0.001 0.18706,0 0.48238,0.0367 0.7582,-0.17942 0.49554,-0.38902 0.51647,-0.89321 0.51203,-1.03125 l -0.002,-14.3384 c 0,-1.90384 0,-1.90384 1.90225,-1.90384 l 22.47123,0.0898 c 0.60079,0.002 1.08936,0.48896 1.08936,1.08962 v 17.71166 z"
       id="path2-3-3-2"
       sodipodi:nodetypes="scscsscssssssssscsssssscsccccccsccccsscc"
       style="fill:url(#linearGradient3483);fill-opacity:1;stroke-width:0.317173" />
    <path
       id="Menu-6"
       class="st0"
       d="m 404.77343,529.298 h 3.19201 v 3.2 h -3.19201 z m -0.79801,4 h -3.19202 v 3.2 h 3.19202 z m 0,4 h -3.19202 v 3.2 h 3.19202 z m 3.99002,-4 h -3.19201 v 3.2 h 3.19201 z m -3.19201,7.2 h 3.19201 v -3.2 h -3.19201 z m 7.18204,-11.2 h -3.19202 v 3.2 h 2.39401 v 0.8 h -2.39401 v 3.2 h 2.39401 v 0.8 h -2.39401 v 3.2 h 1.19701 c 1.09725,0 1.99501,-0.9 1.99501,-2 z"
       style="fill:url(#linearGradient1561);fill-opacity:1;stroke-width:0.19975" />
    <path
       id="Menu-s-2"
       class="st1"
       d="m 404.77343,540.498 h 3.19201 v 0.8 h -3.19201 z m -3.19202,0 h 2.39401 v 0.8 h -2.39401 z m 9.57605,-1.6 v -1.6 h 0.79801 v 1.6 c 0,1.32 -1.07731,2.4 -2.39402,2.4 h -0.798 v -0.8 h 0.798 c 0.87781,0 1.59601,-0.72 1.59601,-1.6 z m 0,-2.4 v -3.2 h 0.79801 v 3.2 z m 0,-4 v -2.4 h 0.79801 v 2.4 z m -8.77805,-2.4 c -0.4389,0 -0.798,0.36 -0.798,0.8 v 2.4 h -0.79801 v -2.4 c 0,-0.88 0.7182,-1.6 1.59601,-1.6 h 0.79801 v 0.8 z"
       style="clip-rule:evenodd;fill:#f0f0f0;fill-opacity:1;fill-rule:evenodd;stroke-width:0.19975" />
  </g>
</svg>
