<?xml version="1.0" encoding="UTF-8" standalone="no"?>
<svg
   width="32"
   version="1.1"
   height="32"
   viewBox="0 0 32 32"
   id="svg17"
   sodipodi:docname="folder-script.svg"
   inkscape:version="1.1.2 (0a00cf5339, 2022-02-04)"
   xmlns:inkscape="http://www.inkscape.org/namespaces/inkscape"
   xmlns:sodipodi="http://sodipodi.sourceforge.net/DTD/sodipodi-0.dtd"
   xmlns:xlink="http://www.w3.org/1999/xlink"
   xmlns="http://www.w3.org/2000/svg"
   xmlns:svg="http://www.w3.org/2000/svg"
   xmlns:rdf="http://www.w3.org/1999/02/22-rdf-syntax-ns#"
   xmlns:cc="http://creativecommons.org/ns#"
   xmlns:dc="http://purl.org/dc/elements/1.1/">
  <sodipodi:namedview
     pagecolor="#ffffff"
     bordercolor="#666666"
     borderopacity="1"
     objecttolerance="10"
     gridtolerance="10"
     guidetolerance="10"
     inkscape:pageopacity="0"
     inkscape:pageshadow="2"
     inkscape:window-width="1920"
     inkscape:window-height="1007"
     id="namedview19"
     showgrid="false"
     inkscape:zoom="8.9988849"
     inkscape:cx="-17.057669"
     inkscape:cy="2.8892469"
     inkscape:window-x="0"
     inkscape:window-y="0"
     inkscape:window-maximized="1"
     inkscape:current-layer="layer1"
     inkscape:pagecheckerboard="0" />
  <defs
     id="defs5455">
    <linearGradient
       inkscape:collect="always"
       id="linearGradient1408">
      <stop
         style="stop-color:#ccaaff;stop-opacity:1"
         offset="0"
         id="stop1404" />
      <stop
         style="stop-color:#2a7fff;stop-opacity:1"
         offset="1"
         id="stop1406" />
    </linearGradient>
    <linearGradient
       inkscape:collect="always"
       id="linearGradient991">
      <stop
         style="stop-color:#cccccc;stop-opacity:1"
         offset="0"
         id="stop987" />
      <stop
         style="stop-color:#cccccc;stop-opacity:1"
         offset="0.03132199"
         id="stop1929" />
      <stop
         style="stop-color:#0069a6;stop-opacity:1"
         offset="0.05527586"
         id="stop1263" />
      <stop
         style="stop-color:#0069a6;stop-opacity:1"
         offset="0.10902679"
         id="stop1027" />
      <stop
         style="stop-color:#cccccc;stop-opacity:1"
         offset="1"
         id="stop989" />
    </linearGradient>
    <linearGradient
       inkscape:collect="always"
       xlink:href="#linearGradient991"
       id="linearGradient3483"
       gradientUnits="userSpaceOnUse"
       gradientTransform="matrix(0.49958334,0,0,0.5,192.44677,273.599)"
       x1="386.57144"
       y1="516.39801"
       x2="446.62146"
       y2="516.39801" />
    <linearGradient
       inkscape:collect="always"
       xlink:href="#linearGradient1408"
       id="linearGradient1039"
       gradientUnits="userSpaceOnUse"
       gradientTransform="matrix(0.49875312,0,0,0.5,192.76772,273.8875)"
       x1="415.20505"
       y1="521.89795"
       x2="438.07645"
       y2="521.89795" />
  </defs>
  <metadata
     id="metadata5458">
    <rdf:RDF>
      <cc:Work
         rdf:about="">
        <dc:format>image/svg+xml</dc:format>
        <dc:type
           rdf:resource="http://purl.org/dc/dcmitype/StillImage" />
      </cc:Work>
    </rdf:RDF>
  </metadata>
  <g
     inkscape:label="Capa 1"
     inkscape:groupmode="layer"
     id="layer1"
     transform="translate(-384.57143,-515.798)">
    <path
       inkscape:connector-curvature="0"
       id="fill"
       d="m 386.07018,520.298 v 22.5 c 0.0543,0.75565 0.49876,1.5 1.94836,1.5 h 24.84992 c 1.63065,0 2.18656,-0.24951 2.1294,-2 v -18 c -0.49875,-1 -3.99002,0 -3.99002,-3 -5.98504,-0.5 -16.95761,0.5 -16.92209,-2.5 h -6.02177 c -0.99629,0 -1.9938,0.5 -1.9938,1.5 z"
       style="color:#1e92ff;fill:#4e5a7e;fill-opacity:0.3;fill-rule:nonzero;stroke:none;stroke-width:5.24924"
       class="ColorScheme-ButtonFocus"
       sodipodi:nodetypes="cccccccccc" />
    <path
       d="m 413.53095,523.00324 h -1.59567 v -0.5905 c 0,-1.02553 -0.44893,-1.531 -0.82558,-1.77469 -0.4039,-0.26114 -0.80051,-0.27447 -0.87629,-0.27447 h -14.01924 c -0.30024,0 -0.58239,-0.3173 -0.88105,-0.65333 -0.38013,-0.42773 -0.811,-0.91225 -1.46505,-0.91225 h -6.25617 c -1.16321,0 -2.04047,0.87766 -2.04047,2.04154 v 21.91692 c 0,1.1258 0.9153,2.04154 2.04047,2.04154 h 25.91905 c 1.12518,0 2.04048,-0.91575 2.04048,-2.04154 v -17.71167 c 0,-1.1258 -0.9153,-2.04155 -2.04048,-2.04155 z m 1.08936,19.75322 c 0,0.60097 -0.48857,1.08962 -1.08936,1.08962 H 387.6119 c -0.60079,0 -1.08935,-0.48865 -1.08935,-1.08962 v -21.91692 c 0,-0.64127 0.44798,-1.08963 1.08935,-1.08963 h 6.25617 c 0.22732,0 0.4835,0.28812 0.75456,0.59305 0.38521,0.43312 0.86457,0.97222 1.59154,0.97222 h 14.01353 c 0.14362,0.004 0.55102,0.0666 0.70067,0.62128 h -21.82602 c -1.21272,0.0251 -1.8468,0.65968 -1.8468,1.9289 l 0.0558,17.4518 h 0.57828 c 0,0 -0.12,0.001 4.8e-4,0.001 0.18706,0 0.48238,0.0367 0.75821,-0.17942 0.49553,-0.38902 0.51646,-0.89322 0.51202,-1.03125 l -0.002,-14.3384 c 0,-1.90384 0,-1.90384 1.90225,-1.90384 l 22.47123,0.0898 c 0.60079,0.002 1.08936,0.48897 1.08936,1.08963 v 17.71166 z"
       id="path2-3-3-2"
       sodipodi:nodetypes="scscsscssssssssscsssssscsccccccsccccsscc"
       style="fill:url(#linearGradient3483);fill-opacity:1;stroke-width:0.317173" />
    <path
       id="Read-7"
       class="st0"
       d="m 401.48208,536.68262 h 1.62972 v 0.92307 h -1.62972 z m 2.8518,-1.84616 h -2.8518 v 0.92308 h 2.8518 z m 2.44448,1.84616 h 1.62956 v 0.92307 h -1.62956 z m 2.85173,-1.84616 h -2.85173 v 0.92308 h 2.85173 z m -2.85173,-1.84615 h 2.85173 v 0.92307 h -2.85173 z m -2.44448,0 h -2.8518 v 0.92307 h 2.8518 z m 2.44448,-1.84616 h 2.85173 v 0.92308 h -2.85173 z m -5.29628,0 h 2.8518 v 0.92308 h -2.8518 z m -1.62954,-1.84615 h 4.37948 c 0.55009,0 1.05928,0.34615 1.32411,0.92307 0.24439,-0.57692 0.75368,-0.92307 1.32402,-0.92307 h 4.37957 v 9.23077 c 0,0.50769 -0.36669,0.92307 -0.81478,0.92307 h -3.56479 c -0.55003,0 -1.05919,0.34616 -1.32402,0.92308 -0.24452,-0.57692 -0.75369,-0.92308 -1.3241,-0.92308 h -4.37949 z"
       style="clip-rule:evenodd;fill:url(#linearGradient1039);fill-opacity:1;fill-rule:evenodd;stroke-width:0.216812" />
    <path
       id="Read-s-5"
       class="st1"
       d="m 399.03776,539.45184 v -9.23077 h 0.81478 v 9.23077 z m 12.22196,-9.23077 v 8.3077 c 0,0.50769 -0.36669,0.92307 -0.81478,0.92307 h -3.66658 c -0.50932,0 -0.95741,0.32309 -1.18145,0.83077 l -0.0409,0.0923 -0.0409,-0.0923 c -0.22404,-0.50768 -0.67212,-0.83077 -1.18146,-0.83077 h -3.66656 v 0.92309 h 3.66657 c 0,0.50769 0.36669,0.92307 0.81488,0.92307 h 0.81484 c 0.44808,0 0.81477,-0.41538 0.81477,-0.92307 h 3.66657 c 0.89618,0 1.62955,-0.83077 1.62955,-1.84616 v -8.3077 z"
       style="fill:#f0f0f0;fill-opacity:1;stroke-width:0.216812" />
  </g>
</svg>
