<?xml version="1.0" encoding="UTF-8" standalone="no"?>
<svg
   width="32"
   version="1.1"
   height="32"
   viewBox="0 0 32 32"
   id="svg15"
   sodipodi:docname="folder-library.svg"
   inkscape:version="1.1.2 (0a00cf5339, 2022-02-04)"
   xmlns:inkscape="http://www.inkscape.org/namespaces/inkscape"
   xmlns:sodipodi="http://sodipodi.sourceforge.net/DTD/sodipodi-0.dtd"
   xmlns:xlink="http://www.w3.org/1999/xlink"
   xmlns="http://www.w3.org/2000/svg"
   xmlns:svg="http://www.w3.org/2000/svg"
   xmlns:rdf="http://www.w3.org/1999/02/22-rdf-syntax-ns#"
   xmlns:cc="http://creativecommons.org/ns#"
   xmlns:dc="http://purl.org/dc/elements/1.1/">
  <sodipodi:namedview
     pagecolor="#ffffff"
     bordercolor="#666666"
     borderopacity="1"
     objecttolerance="10"
     gridtolerance="10"
     guidetolerance="10"
     inkscape:pageopacity="0"
     inkscape:pageshadow="2"
     inkscape:window-width="1920"
     inkscape:window-height="1007"
     id="namedview17"
     showgrid="true"
     inkscape:zoom="9.8125"
     inkscape:cx="1.477707"
     inkscape:cy="18.038217"
     inkscape:window-x="0"
     inkscape:window-y="0"
     inkscape:window-maximized="1"
     inkscape:current-layer="g4"
     inkscape:pagecheckerboard="0">
    <inkscape:grid
       type="xygrid"
       id="grid862" />
  </sodipodi:namedview>
  <defs
     id="defs5455">
    <linearGradient
       inkscape:collect="always"
       id="linearGradient991">
      <stop
         style="stop-color:#cccccc;stop-opacity:1"
         offset="0"
         id="stop987" />
      <stop
         style="stop-color:#cccccc;stop-opacity:1"
         offset="0.03132199"
         id="stop1929" />
      <stop
         style="stop-color:#0069a6;stop-opacity:1"
         offset="0.05527586"
         id="stop1263" />
      <stop
         style="stop-color:#0069a6;stop-opacity:1"
         offset="0.10902679"
         id="stop1027" />
      <stop
         style="stop-color:#cccccc;stop-opacity:1"
         offset="1"
         id="stop989" />
    </linearGradient>
    <linearGradient
       inkscape:collect="always"
       xlink:href="#linearGradient991"
       id="linearGradient3483"
       gradientUnits="userSpaceOnUse"
       gradientTransform="matrix(1.3871979,0,0,1.3461641,-464.74345,329.31646)"
       x1="386.57144"
       y1="516.39801"
       x2="446.62146"
       y2="516.39801" />
    <linearGradient
       inkscape:collect="always"
       xlink:href="#linearGradient1272"
       id="linearGradient1274"
       x1="4"
       y1="30"
       x2="60"
       y2="30"
       gradientUnits="userSpaceOnUse" />
    <linearGradient
       inkscape:collect="always"
       id="linearGradient1272">
      <stop
         style="stop-color:#ffaaaa;stop-opacity:1"
         offset="0"
         id="stop1268" />
      <stop
         style="stop-color:#ffb380;stop-opacity:1"
         offset="1"
         id="stop1270" />
    </linearGradient>
  </defs>
  <metadata
     id="metadata5458">
    <rdf:RDF>
      <cc:Work
         rdf:about="">
        <dc:format>image/svg+xml</dc:format>
        <dc:type
           rdf:resource="http://purl.org/dc/dcmitype/StillImage" />
      </cc:Work>
    </rdf:RDF>
  </metadata>
  <g
     inkscape:label="Capa 1"
     inkscape:groupmode="layer"
     id="layer1"
     transform="translate(-384.57143,-515.798)">
    <g
       transform="matrix(0.36013848,0,0,0.37142583,359.81878,151.2823)"
       id="g4">
      <path
         inkscape:connector-curvature="0"
         id="fill"
         d="m 72.892524,993.51115 v 60.57735 c 0.15065,2.0345 1.384894,4.0385 5.410028,4.0385 h 69.000978 c 4.52787,0 6.07147,-0.6718 5.91276,-5.3847 v -48.4618 c -1.38489,-2.6924 -11.07914,0 -11.07914,-8.07703 -16.61871,-1.34616 -47.086344,1.34617 -46.987725,-6.73082 H 78.428703 c -2.766393,0 -5.536179,1.34617 -5.536179,4.0385 z"
         style="color:#1e92ff;fill:#4e5a7e;fill-opacity:0.3;fill-rule:nonzero;stroke:none;stroke-width:14.3525"
         class="ColorScheme-ButtonFocus"
         sodipodi:nodetypes="cccccccccc" />
      <path
         d="m 149.1431,1000.7945 h -4.4307 v -1.58978 c 0,-2.76106 -1.24654,-4.12194 -2.29239,-4.77803 -1.12152,-0.70309 -2.22282,-0.73897 -2.43322,-0.73897 h -38.92734 c -0.83368,0 -1.617163,-0.85429 -2.446437,-1.75898 -1.055523,-1.15159 -2.251891,-2.45609 -4.068011,-2.45609 H 77.173435 c -3.229929,0 -5.665803,2.36297 -5.665803,5.49651 v 59.00744 c 0,3.0311 2.541514,5.4965 5.665803,5.4965 H 149.1431 c 3.1243,0 5.66582,-2.4654 5.66582,-5.4965 v -47.6855 c 0,-3.0311 -2.54152,-5.4966 -5.66582,-5.4966 z m 3.02483,53.1821 c 0,1.6181 -1.3566,2.9337 -3.02483,2.9337 H 77.173435 c -1.668214,0 -3.024812,-1.3156 -3.024812,-2.9337 v -59.00744 c 0,-1.72652 1.24391,-2.93364 3.024812,-2.93364 h 17.371567 c 0.631193,0 1.342515,0.7757 2.09519,1.59667 1.069594,1.1661 2.400656,2.61755 4.419258,2.61755 h 38.91148 c 0.39879,0.0107 1.53003,0.17939 1.94554,1.67269 H 81.31198 c -3.367381,0.0674 -5.128036,1.77608 -5.128036,5.19327 l 0.154942,46.9859 h 1.605713 c 0,0 -0.333205,0 0.0014,0 0.519391,0 1.339413,0.099 2.105301,-0.4831 1.375959,-1.0473 1.434055,-2.4048 1.421744,-2.7764 l -0.0069,-38.6037 c 0,-5.1257 0,-5.1257 5.281981,-5.1257 l 62.396085,0.2417 c 1.6682,0.01 3.02481,1.3165 3.02481,2.9337 v 47.6855 z"
         id="path2-3-3-2"
         sodipodi:nodetypes="scscsscssssssssscsssssscsccccccsccccsscc"
         style="fill:url(#linearGradient3483);fill-opacity:1;stroke-width:0.867212" />
      <g
         id="Read_1_"
         transform="matrix(0.63918119,0,0,0.6213065,104.0526,1014.0143)">
        <path
           class="st0"
           d="M 38.5,6 C 35.7,6 33.2,7.5 32,10 30.7,7.5 28.2,6 25.5,6 H 4 v 44 h 21.5 c 2.8,0 5.3,1.5 6.5,4 1.3,-2.5 3.8,-4 6.5,-4 H 56 c 2.2,0 4,-1.8 4,-4 V 6 Z M 20,42 h -8 v -4 h 8 z m 6,-8 H 12 v -4 h 14 z m 0,-8 H 12 v -4 h 14 z m 0,-8 H 12 v -4 h 14 z m 20,24 h -8 v -4 h 8 z m 6,-8 H 38 v -4 h 14 z m 0,-8 H 38 v -4 h 14 z m 0,-8 H 38 v -4 h 14 z"
           id="path4"
           style="fill:url(#linearGradient1274);fill-opacity:1" />
        <path
           id="Read-s"
           class="st1"
           d="M 0,50 V 10 H 4 V 50 Z M 60,10 v 36 c 0,2.2 -1.8,4 -4,4 H 38 c -2.5,0 -4.7,1.4 -5.8,3.6 L 32,54 31.8,53.6 C 30.7,51.4 28.5,50 26,50 H 8 v 4 h 18 c 0,2.2 1.8,4 4,4 h 4 c 2.2,0 4,-1.8 4,-4 h 18 c 4.4,0 8,-3.6 8,-8 V 10 Z"
           style="fill:#f3f3f3;fill-opacity:1" />
      </g>
    </g>
  </g>
</svg>
