<?xml version="1.0" encoding="UTF-8" standalone="no"?>
<svg
   width="32"
   version="1.1"
   height="32"
   viewBox="0 0 32 32"
   id="svg15"
   sodipodi:docname="folder-paint.svg"
   inkscape:version="1.1.2 (0a00cf5339, 2022-02-04)"
   xmlns:inkscape="http://www.inkscape.org/namespaces/inkscape"
   xmlns:sodipodi="http://sodipodi.sourceforge.net/DTD/sodipodi-0.dtd"
   xmlns:xlink="http://www.w3.org/1999/xlink"
   xmlns="http://www.w3.org/2000/svg"
   xmlns:svg="http://www.w3.org/2000/svg"
   xmlns:rdf="http://www.w3.org/1999/02/22-rdf-syntax-ns#"
   xmlns:cc="http://creativecommons.org/ns#"
   xmlns:dc="http://purl.org/dc/elements/1.1/">
  <sodipodi:namedview
     pagecolor="#ffffff"
     bordercolor="#666666"
     borderopacity="1"
     objecttolerance="10"
     gridtolerance="10"
     guidetolerance="10"
     inkscape:pageopacity="0"
     inkscape:pageshadow="2"
     inkscape:window-width="1920"
     inkscape:window-height="1007"
     id="namedview17"
     showgrid="true"
     inkscape:zoom="9.8125"
     inkscape:cx="1.477707"
     inkscape:cy="18.140127"
     inkscape:window-x="0"
     inkscape:window-y="0"
     inkscape:window-maximized="1"
     inkscape:current-layer="g4"
     inkscape:pagecheckerboard="0">
    <inkscape:grid
       type="xygrid"
       id="grid862" />
  </sodipodi:namedview>
  <defs
     id="defs5455">
    <linearGradient
       inkscape:collect="always"
       id="linearGradient991">
      <stop
         style="stop-color:#cccccc;stop-opacity:1"
         offset="0"
         id="stop987" />
      <stop
         style="stop-color:#cccccc;stop-opacity:1"
         offset="0.03132199"
         id="stop1929" />
      <stop
         style="stop-color:#0069a6;stop-opacity:1"
         offset="0.05527586"
         id="stop1263" />
      <stop
         style="stop-color:#0069a6;stop-opacity:1"
         offset="0.10902679"
         id="stop1027" />
      <stop
         style="stop-color:#cccccc;stop-opacity:1"
         offset="1"
         id="stop989" />
    </linearGradient>
    <linearGradient
       inkscape:collect="always"
       id="linearGradient982">
      <stop
         style="stop-color:#ffaaaa;stop-opacity:1"
         offset="0"
         id="stop978" />
      <stop
         style="stop-color:#ffb380;stop-opacity:1"
         offset="1"
         id="stop980" />
    </linearGradient>
    <linearGradient
       inkscape:collect="always"
       xlink:href="#linearGradient991"
       id="linearGradient3483"
       gradientUnits="userSpaceOnUse"
       gradientTransform="matrix(1.3871979,0,0,1.3461642,-464.74345,329.31642)"
       x1="386.57144"
       y1="516.39801"
       x2="446.62146"
       y2="516.39801" />
    <linearGradient
       inkscape:collect="always"
       xlink:href="#linearGradient982"
       id="linearGradient1040"
       gradientUnits="userSpaceOnUse"
       gradientTransform="matrix(1.3848926,0,0,1.3461642,-465.23717,331.47028)"
       x1="422.57144"
       y1="521.04797"
       x2="440.57144"
       y2="521.04797" />
  </defs>
  <metadata
     id="metadata5458">
    <rdf:RDF>
      <cc:Work
         rdf:about="">
        <dc:format>image/svg+xml</dc:format>
        <dc:type
           rdf:resource="http://purl.org/dc/dcmitype/StillImage" />
      </cc:Work>
    </rdf:RDF>
  </metadata>
  <g
     inkscape:label="Capa 1"
     inkscape:groupmode="layer"
     id="layer1"
     transform="translate(-384.57143,-515.798)">
    <g
       transform="matrix(0.36013848,0,0,0.37142583,359.81878,151.2823)"
       id="g4">
      <path
         inkscape:connector-curvature="0"
         id="fill"
         d="m 72.892524,993.51115 v 60.57735 c 0.15065,2.0345 1.384894,4.0385 5.410029,4.0385 h 69.000977 c 4.52787,0 6.07147,-0.6718 5.91276,-5.3847 v -48.4618 c -1.38489,-2.6924 -11.07914,0 -11.07914,-8.07703 -16.61871,-1.34616 -47.086343,1.34617 -46.987725,-6.73082 H 78.428702 c -2.766392,0 -5.536178,1.34617 -5.536178,4.0385 z"
         style="color:#1e92ff;fill:#4e5a7e;fill-opacity:0.3;fill-rule:nonzero;stroke:none;stroke-width:14.3525"
         class="ColorScheme-ButtonFocus"
         sodipodi:nodetypes="cccccccccc" />
      <path
         d="m 149.1431,1000.7945 h -4.4307 v -1.58978 c 0,-2.76106 -1.24654,-4.12194 -2.29239,-4.77803 -1.12152,-0.70309 -2.22282,-0.73897 -2.43322,-0.73897 h -38.92734 c -0.83368,0 -1.617163,-0.85429 -2.446437,-1.75898 -1.055523,-1.15159 -2.251891,-2.45609 -4.068011,-2.45609 H 77.173436 c -3.22993,0 -5.665804,2.36297 -5.665804,5.49651 v 59.00744 c 0,3.0311 2.541513,5.4965 5.665804,5.4965 H 149.1431 c 3.1243,0 5.66582,-2.4654 5.66582,-5.4965 v -47.6855 c 0,-3.0311 -2.54152,-5.4966 -5.66582,-5.4966 z m 3.02483,53.1821 c 0,1.6181 -1.3566,2.9337 -3.02483,2.9337 H 77.173436 c -1.668214,0 -3.024813,-1.3156 -3.024813,-2.9337 v -59.00744 c 0,-1.72652 1.24391,-2.93364 3.024813,-2.93364 h 17.371566 c 0.631193,0 1.342515,0.7757 2.095191,1.59667 1.069593,1.1661 2.400655,2.61755 4.419257,2.61755 h 38.91148 c 0.39879,0.0108 1.53003,0.17939 1.94554,1.67269 H 81.31198 c -3.367381,0.0674 -5.128036,1.77608 -5.128036,5.19327 l 0.154941,46.9859 h 1.605714 c 0,0 -0.333205,0.01 0.0014,0.01 0.51939,0 1.339413,0.099 2.1053,-0.4831 1.375961,-1.0473 1.434057,-2.4048 1.421745,-2.7764 l -0.0069,-38.6037 c 0,-5.1257 0,-5.1257 5.281981,-5.1257 l 62.396085,0.2417 c 1.6682,0.01 3.02481,1.3165 3.02481,2.9337 v 47.6855 z"
         id="path2-3-3-2"
         sodipodi:nodetypes="scscsscssssssssscsssssscsccccccsccccsscc"
         style="fill:url(#linearGradient3483);fill-opacity:1;stroke-width:0.867212" />
      <path
         id="Paint-7"
         class="st0"
         d="m 133.48157,1020.7709 c 0,0.5553 -0.4674,1.0097 -1.03867,1.0097 -0.57127,0 -1.03867,-0.4544 -1.03867,-1.0097 0,-0.5553 0.4674,-1.0096 1.03867,-1.0096 0.57127,0 1.03867,0.4543 1.03867,1.0096 z m -4.10274,0.4544 c -0.3116,-1.8174 1.19447,-3.4832 3.06407,-3.4832 1.86961,0 3.37568,1.6658 3.06408,3.4832 l -0.98674,7.6227 h 8.30936 l 2.07734,2.0192 v 12.1154 c 0,2.7765 -2.33701,5.0482 -5.19335,5.0482 h -19.73472 v -12.1155 h 22.85073 v -5.0481 h -12.46404 v -2.0192 z"
         style="clip-rule:evenodd;fill:url(#linearGradient1040);fill-opacity:1;fill-rule:evenodd;stroke-width:0.51202" />
      <path
         id="Paint-s-5"
         class="st1"
         d="m 124.13355,1030.8672 c -1.14254,0 -2.07734,0.9087 -2.07734,2.0192 v 1.0096 h -2.07734 v -1.0096 c 0,-2.2211 1.8696,-4.0384 4.15468,-4.0384 h 6.23201 v 2.0192 z m 18.69605,5.0481 v 8.077 c 0,2.2211 -1.86961,4.0385 -4.15468,4.0385 v -6.0578 h -2.07734 v 6.0578 h -6.23202 v -4.0385 h -2.07734 v 4.0385 h -2.07734 v -6.0578 h -2.07733 v 6.0578 h -2.07734 v 2.0192 h 16.61871 c 3.42761,0 6.23202,-2.726 6.23202,-6.0577 v -8.077 z m 2.07734,-7.0673 h -2.07734 v 2.0192 h 2.07734 z"
         style="fill:#f0f0f0;fill-opacity:1;stroke-width:0.51202" />
    </g>
  </g>
</svg>
