<?xml version="1.0" encoding="UTF-8" standalone="no"?>
<svg
   width="32"
   version="1.1"
   height="32"
   viewBox="0 0 32 32"
   id="svg17"
   sodipodi:docname="folder-bookmark.svg"
   inkscape:version="1.1.2 (0a00cf5339, 2022-02-04)"
   xmlns:inkscape="http://www.inkscape.org/namespaces/inkscape"
   xmlns:sodipodi="http://sodipodi.sourceforge.net/DTD/sodipodi-0.dtd"
   xmlns:xlink="http://www.w3.org/1999/xlink"
   xmlns="http://www.w3.org/2000/svg"
   xmlns:svg="http://www.w3.org/2000/svg"
   xmlns:rdf="http://www.w3.org/1999/02/22-rdf-syntax-ns#"
   xmlns:cc="http://creativecommons.org/ns#"
   xmlns:dc="http://purl.org/dc/elements/1.1/">
  <sodipodi:namedview
     pagecolor="#ffffff"
     bordercolor="#666666"
     borderopacity="1"
     objecttolerance="10"
     gridtolerance="10"
     guidetolerance="10"
     inkscape:pageopacity="0"
     inkscape:pageshadow="2"
     inkscape:window-width="1920"
     inkscape:window-height="1007"
     id="namedview19"
     showgrid="false"
     inkscape:zoom="9.8125"
     inkscape:cx="-22.573248"
     inkscape:cy="3.8726115"
     inkscape:window-x="0"
     inkscape:window-y="0"
     inkscape:window-maximized="1"
     inkscape:current-layer="layer1"
     inkscape:pagecheckerboard="0" />
  <defs
     id="defs5455">
    <linearGradient
       inkscape:collect="always"
       id="linearGradient991-6">
      <stop
         style="stop-color:#cccccc;stop-opacity:1"
         offset="0"
         id="stop987-7" />
      <stop
         style="stop-color:#cccccc;stop-opacity:1"
         offset="0.03132199"
         id="stop1929-5" />
      <stop
         style="stop-color:#0069a6;stop-opacity:1"
         offset="0.05527586"
         id="stop1263-3" />
      <stop
         style="stop-color:#0069a6;stop-opacity:1"
         offset="0.10902679"
         id="stop1027-5" />
      <stop
         style="stop-color:#cccccc;stop-opacity:1"
         offset="1"
         id="stop989-6" />
    </linearGradient>
    <linearGradient
       inkscape:collect="always"
       id="linearGradient1010">
      <stop
         style="stop-color:#0069a6;stop-opacity:1;"
         offset="0"
         id="stop1006" />
      <stop
         style="stop-color:#2affd5;stop-opacity:1"
         offset="1"
         id="stop1008" />
    </linearGradient>
    <linearGradient
       inkscape:collect="always"
       xlink:href="#linearGradient991-6"
       id="linearGradient3483"
       gradientUnits="userSpaceOnUse"
       gradientTransform="matrix(0.49958334,0,0,0.5,192.44678,273.599)"
       x1="386.57144"
       y1="516.39801"
       x2="446.62146"
       y2="516.39801" />
    <linearGradient
       inkscape:collect="always"
       xlink:href="#linearGradient1010"
       id="linearGradient1141"
       gradientUnits="userSpaceOnUse"
       gradientTransform="matrix(0.49875312,0,0,0.5,192.76772,274.399)"
       x1="424.57144"
       y1="521.79797"
       x2="439.57144"
       y2="521.79797" />
  </defs>
  <metadata
     id="metadata5458">
    <rdf:RDF>
      <cc:Work
         rdf:about="">
        <dc:format>image/svg+xml</dc:format>
        <dc:type
           rdf:resource="http://purl.org/dc/dcmitype/StillImage" />
      </cc:Work>
    </rdf:RDF>
  </metadata>
  <g
     inkscape:label="Capa 1"
     inkscape:groupmode="layer"
     id="layer1"
     transform="translate(-384.57143,-515.798)">
    <path
       inkscape:connector-curvature="0"
       id="fill"
       d="m 386.07018,520.298 v 22.5 c 0.0543,0.75565 0.49876,1.5 1.94836,1.5 h 24.84991 c 1.63066,0 2.18657,-0.24952 2.12941,-2 v -18 c -0.49875,-1 -3.99002,0 -3.99002,-3 -5.98504,-0.5 -16.95761,0.5 -16.9221,-2.5 h -6.02177 c -0.99628,0 -1.99379,0.5 -1.99379,1.5 z"
       style="color:#1e92ff;fill:#4e5a7e;fill-opacity:0.3;fill-rule:nonzero;stroke:none;stroke-width:5.24924"
       class="ColorScheme-ButtonFocus"
       sodipodi:nodetypes="cccccccccc" />
    <path
       d="m 413.53095,523.00324 h -1.59566 v -0.5905 c 0,-1.02553 -0.44894,-1.531 -0.82559,-1.77469 -0.4039,-0.26114 -0.80051,-0.27447 -0.87629,-0.27447 h -14.01924 c -0.30024,0 -0.5824,-0.3173 -0.88105,-0.65333 -0.38013,-0.42773 -0.811,-0.91225 -1.46505,-0.91225 h -6.25616 c -1.16323,0 -2.04048,0.87766 -2.04048,2.04155 v 21.9169 c 0,1.1258 0.91529,2.04155 2.04048,2.04155 h 25.91904 c 1.12518,0 2.04048,-0.91575 2.04048,-2.04155 v -17.71166 c 0,-1.1258 -0.9153,-2.04155 -2.04048,-2.04155 z m 1.08936,19.75321 c 0,0.60098 -0.48856,1.08963 -1.08936,1.08963 h -25.91904 c -0.6008,0 -1.08936,-0.48865 -1.08936,-1.08963 v -21.9169 c 0,-0.64128 0.44798,-1.08964 1.08936,-1.08964 h 6.25616 c 0.22732,0 0.48349,0.28812 0.75456,0.59305 0.3852,0.43312 0.86457,0.97223 1.59155,0.97223 h 14.01352 c 0.14362,0.004 0.55102,0.0666 0.70066,0.62127 h -21.82601 c -1.21272,0.0251 -1.8468,0.65969 -1.8468,1.9289 l 0.0558,17.4518 h 0.57828 c 0,0 -0.12,0.001 4.8e-4,0.001 0.18706,0 0.48238,0.0367 0.75821,-0.17942 0.49553,-0.38902 0.51645,-0.89321 0.51202,-1.03125 l -0.002,-14.3384 c 0,-1.90384 0,-1.90384 1.90225,-1.90384 l 22.47123,0.0898 c 0.60079,0.002 1.08935,0.48897 1.08935,1.08963 v 17.71166 z"
       id="path2-3-3-2-7"
       sodipodi:nodetypes="scscsscssssssssscsssssscsccccccsccccsscc"
       style="fill:url(#linearGradient3483);fill-opacity:1;stroke-width:0.317173" />
    <path
       id="Bookmark-1"
       class="st0"
       d="m 409.19986,534.548 -0.5611,-1.725 -0.5611,1.725 h -1.81421 l 1.45885,1.06875 -0.56109,1.725 1.45885,-1.06875 1.45885,1.06875 -0.5611,-1.725 1.45886,-1.06875 z m 0.93516,-5.25 h -5.61097 c 0.41147,0 0.74813,0.3375 0.74813,0.75 v 11.25 l 3.36658,-1.125 1.88903,0.6375 c 0.72943,0.24375 1.47756,-0.3 1.47756,-1.06875 V 531.173 c 0,-1.03125 -0.84165,-1.875 -1.87033,-1.875 z"
       style="clip-rule:evenodd;fill:url(#linearGradient1141);fill-opacity:1;fill-rule:evenodd;stroke-width:0.187266" />
    <path
       id="Bookmark-s-7"
       class="st1"
       d="m 404.52405,530.048 c -0.41147,0 -0.74813,0.3375 -0.74813,0.75 v 2.25 h -0.74813 v -2.25 c 0,-0.825 0.67332,-1.5 1.49626,-1.5 0.41147,0 0.74813,0.3375 0.74813,0.75 v 0.75 c 0,-0.4125 -0.33666,-0.75 -0.74813,-0.75 z m 5.74189,10.4625 -1.32793,-0.45 -1.1783,0.39375 2.26309,0.75 c 0.99127,0.3375 1.98255,-0.375 1.98255,-1.40625 v -3.75 h -0.74813 v 3.75 c 0,0.50625 -0.50499,0.88125 -0.99128,0.7125 z"
       style="fill:#f2f2f2;fill-opacity:1;stroke-width:0.187266" />
  </g>
</svg>
