<?xml version="1.0" encoding="UTF-8" standalone="no"?>
<svg
   height="32"
   width="32"
   version="1.1"
   id="svg23"
   sodipodi:docname="folder-root.svg"
   inkscape:version="1.1.2 (0a00cf5339, 2022-02-04)"
   xmlns:inkscape="http://www.inkscape.org/namespaces/inkscape"
   xmlns:sodipodi="http://sodipodi.sourceforge.net/DTD/sodipodi-0.dtd"
   xmlns:xlink="http://www.w3.org/1999/xlink"
   xmlns="http://www.w3.org/2000/svg"
   xmlns:svg="http://www.w3.org/2000/svg"
   xmlns:rdf="http://www.w3.org/1999/02/22-rdf-syntax-ns#"
   xmlns:cc="http://creativecommons.org/ns#"
   xmlns:dc="http://purl.org/dc/elements/1.1/">
  <metadata
     id="metadata29">
    <rdf:RDF>
      <cc:Work
         rdf:about="">
        <dc:format>image/svg+xml</dc:format>
        <dc:type
           rdf:resource="http://purl.org/dc/dcmitype/StillImage" />
      </cc:Work>
    </rdf:RDF>
  </metadata>
  <defs
     id="defs27">
    <linearGradient
       inkscape:collect="always"
       id="linearGradient991">
      <stop
         style="stop-color:#cccccc;stop-opacity:1"
         offset="0"
         id="stop987" />
      <stop
         style="stop-color:#cccccc;stop-opacity:1"
         offset="0.03132199"
         id="stop1929" />
      <stop
         style="stop-color:#0069a6;stop-opacity:1"
         offset="0.05527586"
         id="stop1263" />
      <stop
         style="stop-color:#0069a6;stop-opacity:1"
         offset="0.10902679"
         id="stop1027" />
      <stop
         style="stop-color:#cccccc;stop-opacity:1"
         offset="1"
         id="stop989" />
    </linearGradient>
    <linearGradient
       inkscape:collect="always"
       id="linearGradient1492">
      <stop
         style="stop-color:#2ad4ff;stop-opacity:1"
         offset="0"
         id="stop1488" />
      <stop
         style="stop-color:#2a7fff;stop-opacity:1"
         offset="1"
         id="stop1490" />
    </linearGradient>
    <linearGradient
       inkscape:collect="always"
       xlink:href="#linearGradient991"
       id="linearGradient3483"
       gradientUnits="userSpaceOnUse"
       gradientTransform="matrix(0.49958334,0,0,0.5,-192.12465,-242.199)"
       x1="386.57144"
       y1="516.39801"
       x2="446.62146"
       y2="516.39801" />
    <linearGradient
       inkscape:collect="always"
       xlink:href="#linearGradient1492"
       id="linearGradient863"
       gradientUnits="userSpaceOnUse"
       x1="4"
       y1="32"
       x2="60"
       y2="32" />
  </defs>
  <sodipodi:namedview
     pagecolor="#ffffff"
     bordercolor="#666666"
     borderopacity="1"
     objecttolerance="10"
     gridtolerance="10"
     guidetolerance="10"
     inkscape:pageopacity="0"
     inkscape:pageshadow="2"
     inkscape:window-width="1920"
     inkscape:window-height="1007"
     id="namedview25"
     showgrid="false"
     inkscape:zoom="9.8125"
     inkscape:cx="-11.159236"
     inkscape:cy="12.535032"
     inkscape:window-x="0"
     inkscape:window-y="0"
     inkscape:window-maximized="1"
     inkscape:current-layer="svg23"
     inkscape:pagecheckerboard="0" />
  <linearGradient
     id="a"
     gradientUnits="userSpaceOnUse"
     x2="0"
     y1="29"
     y2="8">
    <stop
       offset="0"
       stop-color="#3daee9"
       id="stop2" />
    <stop
       offset="1"
       stop-color="#6cc1ef"
       id="stop4" />
  </linearGradient>
  <path
     inkscape:connector-curvature="0"
     id="fill"
     d="M 1.498753,4.5 V 27 c 0.05425,0.755655 0.498753,1.5 1.948359,1.5 h 24.84991 c 1.630659,0 2.186569,-0.249515 2.129412,-2 v -18 c -0.498753,-1 -3.990025,0 -3.990025,-3 C 20.451372,5 9.478803,6 9.514319,3 H 3.492544 C 2.496259,3 1.498753,3.5 1.498753,4.5 Z"
     style="color:#1e92ff;fill:#4e5a7e;fill-opacity:0.3;fill-rule:nonzero;stroke:none;stroke-width:5.24924"
     class="ColorScheme-ButtonFocus"
     sodipodi:nodetypes="cccccccccc" />
  <path
     d="M 28.959521,7.205245 H 27.363855 V 6.61474 c 0,-1.02553 -0.448927,-1.530995 -0.825576,-1.774685 C 26.134374,4.57891 25.737756,4.565585 25.66198,4.565585 H 11.642748 c -0.300239,0 -0.582404,-0.317305 -0.881057,-0.65333 C 10.381556,3.484525 9.950698,3 9.296643,3 H 3.040474 C 1.877252,3 1,3.877665 1,5.041545 v 21.91691 C 1,28.084255 1.915297,29 3.040474,29 H 28.959521 C 30.084703,29 31,28.084255 31,26.958455 V 9.24679 C 31,8.12099 30.084703,7.205245 28.959521,7.205245 Z m 1.089357,19.75321 c 0,0.60098 -0.488564,1.08963 -1.089357,1.08963 H 3.040474 c -0.600788,0 -1.089352,-0.48865 -1.089352,-1.08963 V 5.041545 c 0,-0.641275 0.44798,-1.08963 1.089352,-1.08963 h 6.256169 c 0.227317,0 0.483492,0.288115 0.754559,0.593045 0.385202,0.43312 0.864569,0.972225 1.591546,0.972225 h 14.013521 c 0.143621,0.004 0.551023,0.06663 0.700664,0.62128 H 4.530923 C 3.3182,6.163515 2.68412,6.798145 2.68412,8.067365 L 2.73992,25.51916 H 3.3182 c 0,0 -0.12,0.001 4.83e-4,0.001 0.187053,0 0.482374,0.03665 0.7582,-0.17942 0.495536,-0.389015 0.516459,-0.893215 0.512025,-1.031245 L 4.586408,9.97109 c 0,-1.903835 0,-1.903835 1.902244,-1.903835 l 22.471232,0.0898 c 0.600783,0.0025 1.089352,0.488965 1.089352,1.089625 v 17.711665 z"
     id="path2-3-3-2"
     sodipodi:nodetypes="scscsscssssssssscsssssscsccccccsccccsscc"
     style="fill:url(#linearGradient3483);fill-opacity:1;stroke-width:0.317173" />
  <polygon
     id="X-5"
     class="st0"
     points="60,48.8 43.2,32 60,15.2 48.8,4 4,48.8 15.2,60 32,43.2 48.8,60 "
     transform="matrix(0.21365595,0,0,0.21419009,14.609216,12.64324)"
     style="fill:url(#linearGradient863);fill-opacity:1" />
  <path
     id="X-s-3"
     class="st1"
     d="m 17.002164,16.77711 2.392947,2.39893 -0.598239,0.59973 -2.414314,-2.39893 c -0.662329,-0.66399 -0.662329,-1.73494 0,-2.420345 L 17.856787,13.5 l 0.598234,0.59973 -1.452857,1.456495 c -0.341851,0.342705 -0.341851,0.8996 0,1.220885 z m 9.828174,-0.27845 -2.991187,2.99866 0.59824,0.599735 2.991182,-2.99866 z m -2.862992,7.646585 -2.392948,-2.398925 -3.119376,3.148595 0.598239,0.59973 2.521138,-2.527445 1.773347,1.77778 c 1.004184,1.006695 2.627965,1.006695 3.632149,0 l 0.448679,-0.4498 -0.598235,-0.59973 -0.448678,0.449795 c -0.662334,0.66399 -1.75198,0.66399 -2.414315,0 z"
     style="fill:#f0f0f0;fill-opacity:1;stroke-width:0.213923" />
</svg>
