<?xml version="1.0" encoding="UTF-8" standalone="no"?>
<svg
   width="32"
   version="1.1"
   height="32"
   viewBox="0 0 32 32"
   id="svg15"
   sodipodi:docname="folder-openSUSE.svg"
   inkscape:version="1.1.2 (0a00cf5339, 2022-02-04)"
   xmlns:inkscape="http://www.inkscape.org/namespaces/inkscape"
   xmlns:sodipodi="http://sodipodi.sourceforge.net/DTD/sodipodi-0.dtd"
   xmlns:xlink="http://www.w3.org/1999/xlink"
   xmlns="http://www.w3.org/2000/svg"
   xmlns:svg="http://www.w3.org/2000/svg"
   xmlns:rdf="http://www.w3.org/1999/02/22-rdf-syntax-ns#"
   xmlns:cc="http://creativecommons.org/ns#"
   xmlns:dc="http://purl.org/dc/elements/1.1/">
  <sodipodi:namedview
     pagecolor="#ffffff"
     bordercolor="#666666"
     borderopacity="1"
     objecttolerance="10"
     gridtolerance="10"
     guidetolerance="10"
     inkscape:pageopacity="0"
     inkscape:pageshadow="2"
     inkscape:window-width="1920"
     inkscape:window-height="1007"
     id="namedview17"
     showgrid="false"
     inkscape:zoom="9.8125"
     inkscape:cx="-26.140127"
     inkscape:cy="0.50955414"
     inkscape:window-x="0"
     inkscape:window-y="0"
     inkscape:window-maximized="1"
     inkscape:current-layer="layer1"
     inkscape:document-rotation="0"
     inkscape:pagecheckerboard="0" />
  <defs
     id="defs5455">
    <linearGradient
       inkscape:collect="always"
       id="linearGradient1163">
      <stop
         style="stop-color:#00a489;stop-opacity:1"
         offset="0"
         id="stop1159" />
      <stop
         style="stop-color:#55ddff;stop-opacity:1"
         offset="1"
         id="stop1161" />
    </linearGradient>
    <linearGradient
       inkscape:collect="always"
       id="linearGradient991">
      <stop
         style="stop-color:#cccccc;stop-opacity:1"
         offset="0"
         id="stop987" />
      <stop
         style="stop-color:#cccccc;stop-opacity:1"
         offset="0.03132199"
         id="stop1929" />
      <stop
         style="stop-color:#0069a6;stop-opacity:1"
         offset="0.05527586"
         id="stop1263" />
      <stop
         style="stop-color:#0069a6;stop-opacity:1"
         offset="0.10902679"
         id="stop1027" />
      <stop
         style="stop-color:#cccccc;stop-opacity:1"
         offset="1"
         id="stop989" />
    </linearGradient>
    <linearGradient
       inkscape:collect="always"
       xlink:href="#linearGradient991"
       id="linearGradient3483"
       gradientUnits="userSpaceOnUse"
       gradientTransform="matrix(0.49958334,0,0,0.5,192.44678,273.599)"
       x1="386.57144"
       y1="516.39801"
       x2="446.62146"
       y2="516.39801" />
    <linearGradient
       inkscape:collect="always"
       xlink:href="#linearGradient1163"
       id="linearGradient1039"
       gradientUnits="userSpaceOnUse"
       x1="415.57144"
       y1="522.79797"
       x2="439.57144"
       y2="522.79797"
       gradientTransform="matrix(0.49875312,0,0,0.5,192.76772,273.899)" />
  </defs>
  <metadata
     id="metadata5458">
    <rdf:RDF>
      <cc:Work
         rdf:about="">
        <dc:format>image/svg+xml</dc:format>
        <dc:type
           rdf:resource="http://purl.org/dc/dcmitype/StillImage" />
      </cc:Work>
    </rdf:RDF>
  </metadata>
  <g
     inkscape:label="Capa 1"
     inkscape:groupmode="layer"
     id="layer1"
     transform="translate(-384.57143,-515.798)">
    <path
       inkscape:connector-curvature="0"
       id="fill"
       d="m 386.07019,520.298 v 22.5 c 0.0543,0.75565 0.49876,1.5 1.94835,1.5 h 24.84992 c 1.63066,0 2.18657,-0.24951 2.12941,-2 v -18 c -0.49875,-1 -3.99002,0 -3.99002,-3 -5.98504,-0.5 -16.95761,0.5 -16.9221,-2.5 h -6.02178 c -0.99627,0 -1.99378,0.5 -1.99378,1.5 z"
       style="color:#1e92ff;fill:#4e5a7e;fill-opacity:0.3;fill-rule:nonzero;stroke:none;stroke-width:5.24924"
       class="ColorScheme-ButtonFocus"
       sodipodi:nodetypes="cccccccccc" />
    <path
       d="m 413.53095,523.00324 h -1.59567 v -0.5905 c 0,-1.02553 -0.44893,-1.53099 -0.82557,-1.77468 -0.40391,-0.26115 -0.80052,-0.27448 -0.8763,-0.27448 h -14.01924 c -0.30024,0 -0.5824,-0.3173 -0.88105,-0.65333 -0.38013,-0.42773 -0.811,-0.91225 -1.46505,-0.91225 h -6.25616 c -1.16323,0 -2.04048,0.87766 -2.04048,2.04154 v 21.91691 c 0,1.1258 0.91529,2.04155 2.04048,2.04155 h 25.91904 c 1.12519,0 2.04048,-0.91575 2.04048,-2.04155 v -17.71166 c 0,-1.1258 -0.91529,-2.04155 -2.04048,-2.04155 z m 1.08936,19.75321 c 0,0.60099 -0.48856,1.08964 -1.08936,1.08964 h -25.91904 c -0.6008,0 -1.08936,-0.48865 -1.08936,-1.08964 v -21.9169 c 0,-0.64128 0.44798,-1.08964 1.08936,-1.08964 h 6.25616 c 0.22732,0 0.48349,0.28812 0.75456,0.59305 0.3852,0.43312 0.86457,0.97223 1.59155,0.97223 h 14.01352 c 0.14362,0.004 0.55102,0.0666 0.70067,0.62128 h -21.82602 c -1.21272,0.0251 -1.8468,0.65968 -1.8468,1.9289 l 0.0558,17.45179 h 0.57828 c 0,0 -0.12,0.001 4.8e-4,0.001 0.18706,0 0.48238,0.0366 0.75821,-0.17942 0.49553,-0.38901 0.51646,-0.89321 0.51202,-1.03125 l -0.002,-14.3384 c 0,-1.90384 0,-1.90384 1.90226,-1.90384 l 22.47123,0.0898 c 0.60078,0.002 1.08935,0.48896 1.08935,1.08962 v 17.71167 z"
       id="path2-3-3-2"
       sodipodi:nodetypes="scscsscssssssssscsssssscsccccccsccccsscc"
       style="fill:url(#linearGradient3483);fill-opacity:1;stroke-width:0.317173" />
    <path
       style="color:#4d4d4d;font-size:20.4884px;font-family:TrebuchetMS-Bold;fill:url(#linearGradient1039);fill-opacity:1;fill-rule:evenodd;stroke:none;stroke-width:0.0858023;stroke-miterlimit:4"
       d="m 406.02032,529.298 c -3.30516,0 -5.98504,2.68633 -5.98504,6 0,3.31367 2.67988,6 5.98504,6 3.30513,0 5.98504,-2.68633 5.98504,-6 0,-3.31367 -2.67991,-6 -5.98504,-6 z m 0.0278,0.83085 c 2.84787,0 5.15836,2.31447 5.15836,5.16915 0,2.85493 -2.31084,5.16916 -5.15836,5.16916 -1.53773,0 -2.91759,-0.67564 -3.8622,-1.74589 0.38843,-0.30223 1.03822,-0.22859 1.83852,-0.13718 0.38351,0.0444 0.82074,0.094 1.27197,0.10395 1.26072,0.008 2.61712,-0.2233 3.45433,-0.59011 0.54126,-0.2379 0.88778,-0.3947 1.1044,-0.59215 0.0781,-0.0643 0.11915,-0.17155 0.16096,-0.28293 l 0.0278,-0.0752 c 0.0352,-0.0899 0.0854,-0.2834 0.108,-0.38893 0.0104,-0.0465 0.0146,-0.0959 -0.0179,-0.12149 l -0.11682,0.0224 c -0.36735,0.22085 -1.28513,0.64139 -2.14492,0.65846 -1.06542,0.0226 -3.21277,-1.07523 -3.43671,-1.19104 l -0.0223,-0.0261 c -0.0534,-0.12847 -0.37505,-0.89332 -0.4431,-1.05421 1.54565,1.02042 2.82715,1.58514 3.80927,1.67295 1.09198,0.0973 1.94375,-0.5004 2.30804,-0.75577 0.0711,-0.0486 0.12541,-0.0868 0.1477,-0.0951 l 0.0241,-0.0391 c -0.0604,-0.38479 -0.63333,-2.24674 -1.06474,-2.69392 -0.1196,-0.12265 -0.21471,-0.24203 -0.40782,-0.3558 -1.56153,-0.91241 -5.26915,-1.46191 -5.44275,-1.4873 l -0.0279,0.009 -0.0112,0.0242 c 0,0 -0.0136,0.7718 -0.0149,0.85745 -0.12729,-0.0427 -0.52174,-0.1717 -1.0868,-0.32706 0.73728,-0.91454 1.86714,-1.72597 3.84448,-1.72597 z m 1.36237,2.73593 c 0.0259,-3.4e-4 0.0522,-5e-4 0.0793,0 0.87479,0.0322 1.562,0.77015 1.53209,1.64641 -0.015,0.42407 -0.19385,0.81568 -0.50263,1.10501 -0.30968,0.291 -0.71219,0.44254 -1.13743,0.42867 -0.87326,-0.0332 -1.56052,-0.77117 -1.5321,-1.64641 0.0145,-0.42438 0.19418,-0.81869 0.5048,-1.10705 0.29005,-0.27265 0.66124,-0.42069 1.05596,-0.42663 z m -0.042,0.46862 c -0.25478,0.0149 -0.4952,0.11916 -0.68338,0.29618 -0.2145,0.20182 -0.34106,0.47519 -0.35053,0.77112 -0.0207,0.61178 0.45733,1.12658 1.06694,1.14924 0.29627,0.01 0.57729,-0.0949 0.7936,-0.29617 0.21572,-0.20279 0.34138,-0.47866 0.35048,-0.77337 0.0211,-0.61274 -0.45923,-1.12556 -1.06912,-1.147 -0.0367,-10e-4 -0.0716,-10e-4 -0.10799,0 z m 0.29097,0.55464 c 0.2709,0 0.48939,0.1476 0.48939,0.32921 0,0.18084 -0.21849,0.3294 -0.48939,0.3294 -0.27184,0 -0.49162,-0.14882 -0.49162,-0.3294 0,-0.18161 0.21978,-0.32921 0.49162,-0.32921 z"
       id="path2445-8"
       class="ColorScheme-Text"
       inkscape:connector-curvature="0" />
    <path
       class="st2"
       d="m 403.0278,530.1479 c 1.36526,-0.8062 3.01104,-1.01244 4.54461,-0.59996 1.53358,0.41248 2.84274,1.42491 3.62822,2.79358 0.78549,1.36868 1.00992,3.01858 0.59847,4.55599 -0.41145,1.53741 -1.42137,2.84983 -2.78662,3.63729 l -0.37405,-0.65621 c 1.19694,-0.69371 2.07594,-1.8374 2.43128,-3.18732 0.35536,-1.34992 0.18703,-2.77484 -0.52365,-3.97477 -0.69199,-1.19993 -1.83281,-2.08112 -3.17937,-2.43735 -1.32785,-0.37498 -2.76792,-0.18749 -3.96486,0.52497 z"
       id="path8-7"
       style="clip-rule:evenodd;fill:#f2f2f2;fill-opacity:1;fill-rule:evenodd;stroke-width:0.187255" />
  </g>
</svg>
