<?xml version="1.0" encoding="UTF-8" standalone="no"?>
<svg
   width="32"
   version="1.1"
   height="32"
   viewBox="0 0 32 32"
   id="svg2"
   inkscape:version="1.1.2 (0a00cf5339, 2022-02-04)"
   sodipodi:docname="favorites.svg"
   xmlns:inkscape="http://www.inkscape.org/namespaces/inkscape"
   xmlns:sodipodi="http://sodipodi.sourceforge.net/DTD/sodipodi-0.dtd"
   xmlns:xlink="http://www.w3.org/1999/xlink"
   xmlns="http://www.w3.org/2000/svg"
   xmlns:svg="http://www.w3.org/2000/svg"
   xmlns:rdf="http://www.w3.org/1999/02/22-rdf-syntax-ns#"
   xmlns:cc="http://creativecommons.org/ns#"
   xmlns:dc="http://purl.org/dc/elements/1.1/">
  <sodipodi:namedview
     pagecolor="#ffffff"
     bordercolor="#666666"
     borderopacity="1"
     objecttolerance="10"
     gridtolerance="10"
     guidetolerance="10"
     inkscape:pageopacity="0"
     inkscape:pageshadow="2"
     inkscape:window-width="1920"
     inkscape:window-height="1003"
     id="namedview19"
     showgrid="false"
     inkscape:zoom="10.429825"
     inkscape:cx="21.716568"
     inkscape:cy="3.2598821"
     inkscape:window-x="0"
     inkscape:window-y="0"
     inkscape:window-maximized="1"
     inkscape:current-layer="layer1"
     inkscape:document-rotation="0"
     inkscape:pagecheckerboard="0"
     inkscape:lockguides="true">
    <inkscape:grid
       type="xygrid"
       id="grid838" />
  </sodipodi:namedview>
  <defs
     id="defs5455">
    <linearGradient
       inkscape:collect="always"
       xlink:href="#linearGradient991"
       id="linearGradient3483"
       gradientUnits="userSpaceOnUse"
       gradientTransform="matrix(0.49958335,0,0,0.5,192.44678,273.59899)"
       x1="386.57144"
       y1="516.39801"
       x2="446.62146"
       y2="516.39801" />
    <linearGradient
       inkscape:collect="always"
       id="linearGradient991">
      <stop
         style="stop-color:#cccccc;stop-opacity:1"
         offset="0"
         id="stop987" />
      <stop
         style="stop-color:#cccccc;stop-opacity:1"
         offset="0.03132199"
         id="stop1929" />
      <stop
         style="stop-color:#0069a6;stop-opacity:1"
         offset="0.05527586"
         id="stop1263" />
      <stop
         style="stop-color:#0069a6;stop-opacity:1"
         offset="0.10902679"
         id="stop1027" />
      <stop
         style="stop-color:#cccccc;stop-opacity:1"
         offset="1"
         id="stop989" />
    </linearGradient>
    <linearGradient
       inkscape:collect="always"
       xlink:href="#linearGradient888"
       id="linearGradient1239"
       gradientUnits="userSpaceOnUse"
       gradientTransform="matrix(0.49875312,0,0,0.5,192.76774,273.899)"
       x1="420.14917"
       y1="522.198"
       x2="439.57416"
       y2="522.198" />
    <linearGradient
       inkscape:collect="always"
       id="linearGradient888">
      <stop
         style="stop-color:#ff8080;stop-opacity:1"
         offset="0"
         id="stop884" />
      <stop
         style="stop-color:#ff58ff;stop-opacity:1"
         offset="1"
         id="stop886" />
    </linearGradient>
  </defs>
  <metadata
     id="metadata5458">
    <rdf:RDF>
      <cc:Work
         rdf:about="">
        <dc:format>image/svg+xml</dc:format>
        <dc:type
           rdf:resource="http://purl.org/dc/dcmitype/StillImage" />
      </cc:Work>
    </rdf:RDF>
  </metadata>
  <g
     inkscape:label="Capa 1"
     inkscape:groupmode="layer"
     id="layer1"
     transform="translate(-384.57143,-515.798)">
    <path
       inkscape:connector-curvature="0"
       id="fill"
       d="m 386.07018,520.298 v 22.5 c 0.0543,0.75566 0.49876,1.5 1.94836,1.5 h 24.84992 c 1.63065,0 2.18656,-0.24951 2.1294,-2 v -18 c -0.49875,-1 -3.99002,0 -3.99002,-3 -5.98504,-0.5 -16.95761,0.5 -16.9221,-2.5 h -6.02177 c -0.99628,0 -1.99379,0.5 -1.99379,1.5 z"
       style="color:#1e92ff;fill:#4e5a7e;fill-opacity:0.30000001;fill-rule:nonzero;stroke:none;stroke-width:5.24924"
       class="ColorScheme-ButtonFocus"
       sodipodi:nodetypes="cccccccccc" />
    <path
       d="m 413.53095,523.00325 h -1.59567 v -0.59051 c 0,-1.02553 -0.44893,-1.531 -0.82558,-1.77469 -0.4039,-0.26114 -0.80051,-0.27447 -0.87629,-0.27447 h -14.01924 c -0.30023,0 -0.58239,-0.3173 -0.88104,-0.65333 -0.38014,-0.42772 -0.811,-0.91225 -1.46506,-0.91225 h -6.25616 c -1.16323,0 -2.04048,0.87766 -2.04048,2.04155 v 21.9169 c 0,1.1258 0.91529,2.04155 2.04048,2.04155 h 25.91904 c 1.12518,0 2.04048,-0.91575 2.04048,-2.04155 v -17.71166 c 0,-1.1258 -0.9153,-2.04154 -2.04048,-2.04154 z m 1.08936,19.7532 c 0,0.60099 -0.48857,1.08964 -1.08936,1.08964 h -25.91904 c -0.60079,0 -1.08936,-0.48865 -1.08936,-1.08964 v -21.9169 c 0,-0.64128 0.44798,-1.08964 1.08936,-1.08964 h 6.25616 c 0.22732,0 0.48349,0.28812 0.75456,0.59305 0.38521,0.43312 0.86457,0.97222 1.59154,0.97222 h 14.01353 c 0.14362,0.004 0.55102,0.0666 0.70066,0.62129 h -21.82601 c -1.21273,0.0251 -1.8468,0.65967 -1.8468,1.9289 l 0.0558,17.45179 h 0.57827 c 0,0 -0.12,8.7e-4 4.8e-4,8.7e-4 0.18707,0 0.48239,0.0367 0.75821,-0.17942 0.49554,-0.38902 0.51646,-0.89322 0.51203,-1.03124 l -0.003,-14.33841 c 0,-1.90384 0,-1.90384 1.90223,-1.90384 l 22.47124,0.0898 c 0.60078,0.003 1.08935,0.48896 1.08935,1.08962 v 17.71166 z"
       id="path2-3-3-2"
       sodipodi:nodetypes="scscsscssssssssscsssssscsccccccsccccsscc"
       style="fill:url(#linearGradient3483);fill-opacity:1;stroke-width:0.317173" />
    <path
       id="Star-7"
       class="st0"
       d="m 406.02166,529.298 1.49626,4.125 h 4.48879 l -3.70325,2.83125 1.60848,4.44375 -2.80548,-2.025 c -0.65461,-0.46875 -1.53367,-0.46875 -2.16958,0 l -2.61845,1.875 z"
       style="fill:url(#linearGradient1239);fill-opacity:1;stroke-width:0.187266" />
    <path
       id="Star-s-2"
       class="st1"
       d="m 403.49674,537.00425 -3.14216,-2.2125 c -0.5985,-0.43125 -0.29924,-1.36875 0.43019,-1.36875 h 2.24438 v 0.75 h -2.24438 l 2.95511,2.08125 z m -0.33667,2.94375 0.43017,0.6 1.77682,-1.275 c 0.39277,-0.28125 0.91646,-0.28125 1.30922,0 l 2.8242,2.025 0.43017,-0.6 v 0 0 l -2.82419,-2.025 c -0.65461,-0.46875 -1.53367,-0.46875 -2.16958,0 z m 5.40525,-3 3.44139,-2.5875 -0.44888,-0.6 -3.25437,2.49375 z"
       style="fill:#f2f2f2;fill-opacity:1;stroke:none;stroke-width:0.187266;stroke-opacity:1" />
  </g>
</svg>
