<?xml version="1.0" encoding="UTF-8" standalone="no"?>
<svg
   width="32"
   version="1.1"
   height="32"
   viewBox="0 0 32 32"
   id="svg15"
   sodipodi:docname="folder-notes.svg"
   inkscape:version="1.1.2 (0a00cf5339, 2022-02-04)"
   xmlns:inkscape="http://www.inkscape.org/namespaces/inkscape"
   xmlns:sodipodi="http://sodipodi.sourceforge.net/DTD/sodipodi-0.dtd"
   xmlns:xlink="http://www.w3.org/1999/xlink"
   xmlns="http://www.w3.org/2000/svg"
   xmlns:svg="http://www.w3.org/2000/svg"
   xmlns:rdf="http://www.w3.org/1999/02/22-rdf-syntax-ns#"
   xmlns:cc="http://creativecommons.org/ns#"
   xmlns:dc="http://purl.org/dc/elements/1.1/">
  <sodipodi:namedview
     pagecolor="#ffffff"
     bordercolor="#666666"
     borderopacity="1"
     objecttolerance="10"
     gridtolerance="10"
     guidetolerance="10"
     inkscape:pageopacity="0"
     inkscape:pageshadow="2"
     inkscape:window-width="1920"
     inkscape:window-height="1007"
     id="namedview17"
     showgrid="true"
     inkscape:zoom="9.8125"
     inkscape:cx="1.477707"
     inkscape:cy="1.8343949"
     inkscape:window-x="0"
     inkscape:window-y="0"
     inkscape:window-maximized="1"
     inkscape:current-layer="g4"
     inkscape:pagecheckerboard="0">
    <inkscape:grid
       type="xygrid"
       id="grid862" />
  </sodipodi:namedview>
  <defs
     id="defs5455">
    <linearGradient
       inkscape:collect="always"
       id="linearGradient991">
      <stop
         style="stop-color:#cccccc;stop-opacity:1"
         offset="0"
         id="stop987" />
      <stop
         style="stop-color:#cccccc;stop-opacity:1"
         offset="0.03132199"
         id="stop1929" />
      <stop
         style="stop-color:#0069a6;stop-opacity:1"
         offset="0.05527586"
         id="stop1263" />
      <stop
         style="stop-color:#0069a6;stop-opacity:1"
         offset="0.10902679"
         id="stop1027" />
      <stop
         style="stop-color:#cccccc;stop-opacity:1"
         offset="1"
         id="stop989" />
    </linearGradient>
    <linearGradient
       inkscape:collect="always"
       id="linearGradient990">
      <stop
         style="stop-color:#37c871;stop-opacity:1"
         offset="0"
         id="stop986" />
      <stop
         style="stop-color:#5f8dd3;stop-opacity:1"
         offset="1"
         id="stop988" />
    </linearGradient>
    <linearGradient
       inkscape:collect="always"
       xlink:href="#linearGradient991"
       id="linearGradient3483"
       gradientUnits="userSpaceOnUse"
       gradientTransform="matrix(1.3871978,0,0,1.3461634,-464.74345,329.31679)"
       x1="386.57144"
       y1="516.39801"
       x2="446.62146"
       y2="516.39801" />
    <linearGradient
       inkscape:collect="always"
       xlink:href="#linearGradient990"
       id="linearGradient1139"
       gradientUnits="userSpaceOnUse"
       gradientTransform="matrix(1.3848926,0,0,1.3461634,-465.23717,331.47066)"
       x1="418.07144"
       y1="521.79797"
       x2="439.07144"
       y2="521.79797" />
  </defs>
  <metadata
     id="metadata5458">
    <rdf:RDF>
      <cc:Work
         rdf:about="">
        <dc:format>image/svg+xml</dc:format>
        <dc:type
           rdf:resource="http://purl.org/dc/dcmitype/StillImage" />
      </cc:Work>
    </rdf:RDF>
  </metadata>
  <g
     inkscape:label="Capa 1"
     inkscape:groupmode="layer"
     id="layer1"
     transform="translate(-384.57143,-515.798)">
    <g
       transform="matrix(0.36013848,0,0,0.37142583,359.81878,151.2823)"
       id="g4">
      <path
         inkscape:connector-curvature="0"
         id="fill"
         d="m 72.892524,993.51114 v 60.57736 c 0.150649,2.0345 1.384893,4.0385 5.410028,4.0385 h 69.000988 c 4.52786,0 6.07146,-0.6718 5.91276,-5.3847 v -48.4619 c -1.3849,-2.6923 -11.07915,0 -11.07915,-8.07693 -16.6187,-1.34617 -47.086344,1.34616 -46.987727,-6.73082 H 78.428702 c -2.766392,0 -5.536178,1.34616 -5.536178,4.03849 z"
         style="color:#1e92ff;fill:#4e5a7e;fill-opacity:0.3;fill-rule:nonzero;stroke:none;stroke-width:14.3524"
         class="ColorScheme-ButtonFocus"
         sodipodi:nodetypes="cccccccccc" />
      <path
         d="m 149.1431,1000.7945 h -4.4307 v -1.58979 c 0,-2.76106 -1.24654,-4.12194 -2.29238,-4.77803 -1.12153,-0.70309 -2.22282,-0.73896 -2.43323,-0.73896 h -38.92734 c -0.83368,0 -1.617164,-0.85429 -2.446438,-1.75898 -1.055523,-1.15159 -2.251891,-2.45609 -4.068011,-2.45609 H 77.173435 c -3.22993,0 -5.665803,2.36296 -5.665803,5.49651 v 59.00754 c 0,3.031 2.541513,5.4965 5.665803,5.4965 H 149.1431 c 3.12431,0 5.66582,-2.4655 5.66582,-5.4965 v -47.6857 c 0,-3.031 -2.54151,-5.4965 -5.66582,-5.4965 z m 3.02483,53.1822 c 0,1.618 -1.3566,2.9336 -3.02483,2.9336 H 77.173435 c -1.668214,0 -3.024813,-1.3156 -3.024813,-2.9336 v -59.00754 c 0,-1.72653 1.24391,-2.93364 3.024813,-2.93364 h 17.371566 c 0.631192,0 1.342515,0.7757 2.095191,1.59667 1.069593,1.1661 2.400654,2.61755 4.419258,2.61755 h 38.91148 c 0.3988,0.0107 1.53003,0.17939 1.94555,1.67269 H 81.311979 c -3.36738,0.0674 -5.128036,1.77607 -5.128036,5.19327 l 0.154942,46.9859 h 1.605714 c 0,0 -0.333206,0.01 0.0013,0.01 0.51939,0 1.339412,0.099 2.1053,-0.4831 1.375959,-1.0473 1.434056,-2.4048 1.421744,-2.7764 l -0.0069,-38.6037 c 0,-5.1257 0,-5.1257 5.281981,-5.1257 l 62.396076,0.2417 c 1.6682,0.01 3.02482,1.3165 3.02482,2.9337 v 47.6856 z"
         id="path2-3-3-2"
         sodipodi:nodetypes="scscsscssssssssscsssssscsccccccsccccsscc"
         style="fill:url(#linearGradient3483);fill-opacity:1;stroke-width:0.867212" />
      <path
         id="Edit-7"
         class="st0"
         d="m 142.8296,1024.759 -5.14141,-4.9977 -13.55464,13.1756 -2.07734,7.0169 7.21875,-2.0193 9.39996,-9.1371 v 3.0794 l -2.07733,2.0192 v 10.0963 h -18.69605 v -18.1732 h 10.38669 l 4.15468,-4.0385 h -18.69605 v 26.2502 h 21.81205 c 2.85635,0 5.19335,-2.2717 5.19335,-5.0481 v -16.2045 z"
         style="fill:url(#linearGradient1139);fill-opacity:1;stroke-width:0.51202" />
      <path
         id="Edit-s-5"
         class="st1"
         d="m 143.71247,1018.1964 c 1.60994,1.5649 1.60994,4.1395 0,5.7044 l -5.03755,4.8966 v -2.8774 l 3.53148,-3.4327 c 0.83094,-0.8077 0.83094,-2.0697 0,-2.8774 l -0.4674,-0.4543 1.45414,-1.4135 z m -9.19222,29.8344 H 115.8242 v 2.0192 h 18.69605 c 3.42761,0 6.23201,-2.726 6.23201,-6.0577 v -14.1347 l -2.07734,2.0192 v 12.1155 c 0,2.2211 -1.8696,4.0385 -4.15467,4.0385 z m -9.34803,-8.9352 -2.23314,-2.1707 -0.88287,3.0289 z"
         style="fill:#f0f0f0;fill-opacity:1;stroke-width:0.51202" />
    </g>
  </g>
</svg>
