<?xml version="1.0" encoding="UTF-8" standalone="no"?>
<svg
   width="32"
   version="1.1"
   height="32"
   viewBox="0 0 32 32"
   id="svg15"
   sodipodi:docname="folder-calculate.svg"
   inkscape:version="1.1.2 (0a00cf5339, 2022-02-04)"
   xmlns:inkscape="http://www.inkscape.org/namespaces/inkscape"
   xmlns:sodipodi="http://sodipodi.sourceforge.net/DTD/sodipodi-0.dtd"
   xmlns:xlink="http://www.w3.org/1999/xlink"
   xmlns="http://www.w3.org/2000/svg"
   xmlns:svg="http://www.w3.org/2000/svg"
   xmlns:rdf="http://www.w3.org/1999/02/22-rdf-syntax-ns#"
   xmlns:cc="http://creativecommons.org/ns#"
   xmlns:dc="http://purl.org/dc/elements/1.1/">
  <sodipodi:namedview
     pagecolor="#ffffff"
     bordercolor="#666666"
     borderopacity="1"
     objecttolerance="10"
     gridtolerance="10"
     guidetolerance="10"
     inkscape:pageopacity="0"
     inkscape:pageshadow="2"
     inkscape:window-width="1920"
     inkscape:window-height="1007"
     id="namedview17"
     showgrid="true"
     inkscape:zoom="9.81"
     inkscape:cx="-10.040775"
     inkscape:cy="1.7329256"
     inkscape:window-x="0"
     inkscape:window-y="0"
     inkscape:window-maximized="1"
     inkscape:current-layer="g4"
     inkscape:pagecheckerboard="0">
    <inkscape:grid
       type="xygrid"
       id="grid862" />
  </sodipodi:namedview>
  <defs
     id="defs5455">
    <linearGradient
       inkscape:collect="always"
       id="linearGradient991">
      <stop
         style="stop-color:#cccccc;stop-opacity:1"
         offset="0"
         id="stop987" />
      <stop
         style="stop-color:#cccccc;stop-opacity:1"
         offset="0.03132199"
         id="stop1929" />
      <stop
         style="stop-color:#0069a6;stop-opacity:1"
         offset="0.05527586"
         id="stop1263" />
      <stop
         style="stop-color:#0069a6;stop-opacity:1"
         offset="0.10902679"
         id="stop1027" />
      <stop
         style="stop-color:#cccccc;stop-opacity:1"
         offset="1"
         id="stop989" />
    </linearGradient>
    <linearGradient
       inkscape:collect="always"
       id="linearGradient982">
      <stop
         style="stop-color:#ccaaff;stop-opacity:1"
         offset="0"
         id="stop978" />
      <stop
         style="stop-color:#8080ff;stop-opacity:1"
         offset="1"
         id="stop980" />
    </linearGradient>
    <linearGradient
       inkscape:collect="always"
       xlink:href="#linearGradient991"
       id="linearGradient3483"
       gradientUnits="userSpaceOnUse"
       gradientTransform="matrix(1.3871979,0,0,1.3461642,-464.74344,329.31642)"
       x1="386.57144"
       y1="516.39801"
       x2="446.62146"
       y2="516.39801" />
    <linearGradient
       inkscape:collect="always"
       xlink:href="#linearGradient982"
       id="linearGradient1040"
       gradientUnits="userSpaceOnUse"
       gradientTransform="matrix(1.3848926,0,0,1.3461642,-465.23716,331.47028)"
       x1="416.57144"
       y1="524.79797"
       x2="440.57144"
       y2="524.79797" />
  </defs>
  <metadata
     id="metadata5458">
    <rdf:RDF>
      <cc:Work
         rdf:about="">
        <dc:format>image/svg+xml</dc:format>
        <dc:type
           rdf:resource="http://purl.org/dc/dcmitype/StillImage" />
      </cc:Work>
    </rdf:RDF>
  </metadata>
  <g
     inkscape:label="Capa 1"
     inkscape:groupmode="layer"
     id="layer1"
     transform="translate(-384.57143,-515.798)">
    <g
       transform="matrix(0.36013848,0,0,0.37142583,359.81878,151.2823)"
       id="g4">
      <path
         inkscape:connector-curvature="0"
         id="fill"
         d="m 72.892524,993.51115 v 60.57735 c 0.15065,2.0345 1.384894,4.0385 5.410029,4.0385 h 69.000987 c 4.52787,0 6.07147,-0.6717 5.91276,-5.3846 v -48.4619 c -1.38489,-2.6924 -11.07914,0 -11.07914,-8.07703 -16.61871,-1.34616 -47.086353,1.34617 -46.987735,-6.73082 H 78.428702 c -2.766392,0 -5.536178,1.34617 -5.536178,4.0385 z"
         style="color:#1e92ff;fill:#4e5a7e;fill-opacity:0.3;fill-rule:nonzero;stroke:none;stroke-width:14.3525"
         class="ColorScheme-ButtonFocus"
         sodipodi:nodetypes="cccccccccc" />
      <path
         d="m 149.14311,1000.7945 h -4.4307 v -1.58978 c 0,-2.76106 -1.24654,-4.12194 -2.29239,-4.77803 -1.12152,-0.70309 -2.22282,-0.73897 -2.43322,-0.73897 h -38.92734 c -0.83368,0 -1.617169,-0.85429 -2.446442,-1.75898 -1.055528,-1.15159 -2.251896,-2.45609 -4.068016,-2.45609 H 77.173436 c -3.22993,0 -5.665804,2.36297 -5.665804,5.49651 v 59.00754 c 0,3.031 2.541513,5.4965 5.665804,5.4965 h 71.969674 c 3.1243,0 5.66582,-2.4655 5.66582,-5.4965 v -47.6856 c 0,-3.0311 -2.54152,-5.4966 -5.66582,-5.4966 z m 3.02483,53.1822 c 0,1.618 -1.3566,2.9336 -3.02483,2.9336 H 77.173436 c -1.668214,0 -3.024813,-1.3156 -3.024813,-2.9336 v -59.00754 c 0,-1.72652 1.24391,-2.93364 3.024813,-2.93364 h 17.371566 c 0.631193,0 1.342515,0.7757 2.095191,1.59667 1.069593,1.1661 2.400657,2.61755 4.419267,2.61755 h 38.91148 c 0.39879,0.0108 1.53003,0.17939 1.94554,1.67269 h -60.6045 c -3.367381,0.0674 -5.128036,1.77608 -5.128036,5.19327 l 0.154941,46.9859 h 1.605714 c 0,0 -0.333205,0.01 0.0014,0.01 0.51939,0 1.339413,0.099 2.1053,-0.483 1.375961,-1.0474 1.434057,-2.4049 1.421745,-2.7765 l -0.0069,-38.6037 c 0,-5.1257 0,-5.1257 5.281981,-5.1257 l 62.396095,0.2417 c 1.6682,0.01 3.02481,1.3165 3.02481,2.9337 v 47.6856 z"
         id="path2-3-3-2"
         sodipodi:nodetypes="scscsscssssssssscsssssscsccccccsccccsscc"
         style="fill:url(#linearGradient3483);fill-opacity:1;stroke-width:0.867212" />
      <path
         id="Voucher-7"
         class="st0"
         d="m 135.55892,1037.9346 h 2.07734 v 4.8462 h -2.07734 z m 0,-2.4231 h 2.07734 v -4.8462 h -2.07734 z m 2.07734,12.1155 v -2.4231 h -2.07734 v 2.4231 z m -2.07734,-19.3848 v -2.4231 h -23.8894 v 7.2693 c 1.66187,0 3.01227,1.575 3.01227,3.5135 v 0.2423 c 0,1.9384 -1.3504,3.5135 -3.01227,3.5135 v 7.2693 h 22.85073 l 1.03867,2.4231 h 2.07734 l 1.03867,-2.4231 h 1.03867 c 2.85627,0 5.19334,-2.726 5.19334,-6.0578 v -1.2115 c -1.71361,0 -3.116,-1.6356 -3.116,-3.6347 0,-1.999 1.40239,-3.6346 3.116,-3.6346 v -7.2693 h -7.27068 v 2.4231 z"
         style="clip-rule:evenodd;fill:url(#linearGradient1040);fill-opacity:1;fill-rule:evenodd;stroke-width:0.560889" />
      <path
         id="Voucher-s-5"
         class="st1"
         d="m 142.82961,1042.7808 v -3.3318 c 0.57119,0.6058 1.29814,0.9087 2.07733,0.9087 v 2.4231 c 0,3.9981 -2.80428,7.2693 -6.23201,7.2693 h -1.03867 v -2.4231 h 1.03867 c 2.28507,0 4.15468,-2.1808 4.15468,-4.8462 z m 2.07733,-14.5386 h -2.07733 v 5.7548 c 0.57119,-0.6057 1.29814,-0.9086 2.07733,-0.9086 z m -22.85072,2.4231 c -1.14241,0 -2.07734,1.0904 -2.07734,2.4231 0,1.3327 0.93493,2.4231 2.07734,2.4231 1.14241,0 2.07734,-1.0904 2.07734,-2.4231 0,-1.3327 -0.93493,-2.4231 -2.07734,-2.4231 z m 6.23201,7.2693 c -1.14241,0 -2.07734,1.0904 -2.07734,2.4231 0,1.3327 0.93493,2.4231 2.07734,2.4231 1.14242,0 2.07734,-1.0904 2.07734,-2.4231 0,-1.3327 -0.93492,-2.4231 -2.07734,-2.4231 z m 7.27069,9.6924 h -21.81206 v 2.4231 h 21.81206 z m -14.1259,-4.8462 8.93255,-10.4194 -1.45414,-1.6961 -8.93255,10.4193 z"
         style="fill:#f0f0f0;fill-opacity:1;stroke-width:0.560889" />
    </g>
  </g>
</svg>
