<?xml version="1.0" encoding="UTF-8" standalone="no"?>
<svg
   width="32"
   version="1.1"
   height="32"
   viewBox="0 0 32 32"
   id="svg15"
   sodipodi:docname="folder-Neon.svg"
   inkscape:version="1.1.2 (0a00cf5339, 2022-02-04)"
   xmlns:inkscape="http://www.inkscape.org/namespaces/inkscape"
   xmlns:sodipodi="http://sodipodi.sourceforge.net/DTD/sodipodi-0.dtd"
   xmlns:xlink="http://www.w3.org/1999/xlink"
   xmlns="http://www.w3.org/2000/svg"
   xmlns:svg="http://www.w3.org/2000/svg"
   xmlns:rdf="http://www.w3.org/1999/02/22-rdf-syntax-ns#"
   xmlns:cc="http://creativecommons.org/ns#"
   xmlns:dc="http://purl.org/dc/elements/1.1/">
  <sodipodi:namedview
     pagecolor="#ffffff"
     bordercolor="#666666"
     borderopacity="1"
     objecttolerance="10"
     gridtolerance="10"
     guidetolerance="10"
     inkscape:pageopacity="0"
     inkscape:pageshadow="2"
     inkscape:window-width="1920"
     inkscape:window-height="1007"
     id="namedview17"
     showgrid="false"
     inkscape:zoom="9.8125"
     inkscape:cx="-5.8598726"
     inkscape:cy="8.6624204"
     inkscape:window-x="0"
     inkscape:window-y="0"
     inkscape:window-maximized="1"
     inkscape:current-layer="layer1"
     inkscape:document-rotation="0"
     inkscape:pagecheckerboard="0" />
  <defs
     id="defs5455">
    <linearGradient
       inkscape:collect="always"
       id="linearGradient963">
      <stop
         style="stop-color:#0089d9;stop-opacity:1"
         offset="0"
         id="stop959" />
      <stop
         style="stop-color:#79ceff;stop-opacity:1"
         offset="1"
         id="stop961" />
    </linearGradient>
    <linearGradient
       inkscape:collect="always"
       id="linearGradient991">
      <stop
         style="stop-color:#cccccc;stop-opacity:1"
         offset="0"
         id="stop987" />
      <stop
         style="stop-color:#cccccc;stop-opacity:1"
         offset="0.03132199"
         id="stop1929" />
      <stop
         style="stop-color:#0069a6;stop-opacity:1"
         offset="0.05527586"
         id="stop1263" />
      <stop
         style="stop-color:#0069a6;stop-opacity:1"
         offset="0.10902679"
         id="stop1027" />
      <stop
         style="stop-color:#cccccc;stop-opacity:1"
         offset="1"
         id="stop989" />
    </linearGradient>
    <linearGradient
       inkscape:collect="always"
       xlink:href="#linearGradient991"
       id="linearGradient3483"
       gradientUnits="userSpaceOnUse"
       gradientTransform="matrix(0.49958334,0,0,0.5,192.44678,273.59899)"
       x1="386.57144"
       y1="516.39801"
       x2="446.62146"
       y2="516.39801" />
    <linearGradient
       inkscape:collect="always"
       xlink:href="#linearGradient963"
       id="linearGradient1203"
       gradientUnits="userSpaceOnUse"
       x1="420.44281"
       y1="522.79858"
       x2="434.70172"
       y2="522.79858"
       gradientTransform="matrix(0.49875312,0,0,0.5,192.76772,273.89899)" />
    <linearGradient
       inkscape:collect="always"
       xlink:href="#linearGradient963"
       id="linearGradient1205"
       gradientUnits="userSpaceOnUse"
       x1="415.57144"
       y1="522.79797"
       x2="439.57187"
       y2="522.79797"
       gradientTransform="matrix(0.49875312,0,0,0.5,192.76772,273.89899)" />
  </defs>
  <metadata
     id="metadata5458">
    <rdf:RDF>
      <cc:Work
         rdf:about="">
        <dc:format>image/svg+xml</dc:format>
        <dc:type
           rdf:resource="http://purl.org/dc/dcmitype/StillImage" />
      </cc:Work>
    </rdf:RDF>
  </metadata>
  <g
     inkscape:label="Capa 1"
     inkscape:groupmode="layer"
     id="layer1"
     transform="translate(-384.57143,-515.798)">
    <path
       inkscape:connector-curvature="0"
       id="fill"
       d="m 386.07018,520.298 v 22.5 c 0.0543,0.75565 0.49876,1.5 1.94836,1.5 h 24.84991 c 1.63066,0 2.18657,-0.24952 2.12941,-2 v -18 c -0.49875,-1 -3.99002,0 -3.99002,-3 -5.98504,-0.5 -16.95761,0.5 -16.9221,-2.5 h -6.02177 c -0.99628,0 -1.99379,0.5 -1.99379,1.5 z"
       style="color:#1e92ff;fill:#4e5a7e;fill-opacity:0.3;fill-rule:nonzero;stroke:none;stroke-width:5.24924"
       class="ColorScheme-ButtonFocus"
       sodipodi:nodetypes="cccccccccc" />
    <path
       d="m 413.53095,523.00324 h -1.59567 v -0.5905 c 0,-1.02553 -0.44893,-1.531 -0.82558,-1.77469 -0.4039,-0.26114 -0.80051,-0.27447 -0.87629,-0.27447 h -14.01924 c -0.30024,0 -0.5824,-0.3173 -0.88105,-0.65333 -0.38013,-0.42773 -0.811,-0.91225 -1.46505,-0.91225 h -6.25617 c -1.16322,0 -2.04047,0.87766 -2.04047,2.04154 v 21.91691 c 0,1.1258 0.91529,2.04155 2.04047,2.04155 h 25.91905 c 1.12518,0 2.04048,-0.91575 2.04048,-2.04155 v -17.71166 c 0,-1.1258 -0.9153,-2.04155 -2.04048,-2.04155 z m 1.08936,19.75321 c 0,0.60098 -0.48857,1.08963 -1.08936,1.08963 H 387.6119 c -0.60079,0 -1.08935,-0.48865 -1.08935,-1.08963 v -21.91691 c 0,-0.64127 0.44798,-1.08963 1.08935,-1.08963 h 6.25617 c 0.22732,0 0.48349,0.28812 0.75456,0.59305 0.3852,0.43312 0.86457,0.97222 1.59155,0.97222 h 14.01352 c 0.14362,0.004 0.55102,0.0666 0.70066,0.62128 h -21.82601 c -1.21273,0.0251 -1.8468,0.65968 -1.8468,1.9289 l 0.0558,17.4518 h 0.57827 c 0,0 -0.12,0.001 4.9e-4,0.001 0.18706,0 0.48238,0.0367 0.7582,-0.17942 0.49554,-0.38902 0.51646,-0.89322 0.51203,-1.03125 l -0.002,-14.3384 c 0,-1.90384 0,-1.90384 1.90225,-1.90384 l 22.47123,0.0898 c 0.60078,0.002 1.08935,0.48897 1.08935,1.08963 v 17.71166 z"
       id="path2-3-3-2"
       sodipodi:nodetypes="scscsscssssssssscsssssscsccccccsccccsscc"
       style="fill:url(#linearGradient3483);fill-opacity:1;stroke-width:0.317173" />
    <path
       d="m 406.02071,536.85657 c 0.85845,0 1.5544,-0.69769 1.5544,-1.55831 0,-0.86057 -0.69595,-1.55827 -1.5544,-1.55827 -0.85846,0 -1.55442,0.6977 -1.55442,1.55827 0,0.86062 0.69596,1.55831 1.55442,1.55831 z m 0.26971,-0.50119 c 0.29138,-0.0745 0.54154,-0.26954 0.68612,-0.53593 0.0138,-0.0254 0.0401,-0.0399 0.0683,-0.0399 0.0125,0 0.025,0.002 0.0369,0.01 0.0374,0.0212 0.0513,0.068 0.0319,0.10573 -0.16529,0.30396 -0.45127,0.52715 -0.78438,0.61222 -0.0422,0.0113 -0.0839,-0.0141 -0.0945,-0.0565 -0.0109,-0.0417 0.0142,-0.084 0.0564,-0.0946 z"
       id="path2-6-1"
       style="fill:#f2f2f2;fill-opacity:1;stroke:#ffffff;stroke-width:0.133156;stroke-opacity:1" />
    <path
       d="m 406.56305,531.77492 c -0.01,-0.29317 -0.24752,-0.52837 -0.54234,-0.52837 -0.29487,0 -0.53318,0.2352 -0.54236,0.52837 -1.70427,0.26277 -3.01346,1.74252 -3.01346,3.52338 0,1.78079 1.30931,3.26053 3.01346,3.5233 0.01,0.29321 0.24749,0.52842 0.54236,0.52842 0.29482,0 0.53313,-0.23521 0.54234,-0.52842 1.70431,-0.26277 3.01351,-1.74251 3.01351,-3.5233 0,-1.78086 -1.3092,-3.26061 -3.01351,-3.52338 z m -0.009,6.92953 c -0.0472,-0.25331 -0.26775,-0.44529 -0.53413,-0.44529 -0.2664,0 -0.48704,0.19181 -0.53411,0.44529 -1.64362,-0.25828 -2.90503,-1.68694 -2.90503,-3.40615 0,-1.71923 1.26141,-3.14792 2.90518,-3.40618 0.0472,0.25333 0.26772,0.44531 0.53407,0.44531 0.26639,0 0.48703,-0.19185 0.53414,-0.44531 1.64349,0.25826 2.90494,1.68695 2.90494,3.40618 0,1.71921 -1.26145,3.14787 -2.90506,3.40615 z"
       id="path4-7"
       style="fill:url(#linearGradient1203);fill-opacity:1;stroke-width:0.133156" />
    <path
       d="m 412.00536,535.2983 c 0,-0.29052 -0.22691,-0.52558 -0.51255,-0.54223 -0.10893,-1.11381 -0.54998,-2.1312 -1.22196,-2.95156 0.19187,-0.21411 0.18708,-0.54248 -0.019,-0.74858 -0.20545,-0.206 -0.53314,-0.21094 -0.7466,-0.0191 -0.81818,-0.67379 -1.83316,-1.11568 -2.94404,-1.22499 -0.016,-0.28606 -0.25123,-0.51384 -0.54104,-0.51384 -0.28976,0 -0.52426,0.22778 -0.54086,0.51384 -1.11089,0.1092 -2.12577,0.5512 -2.94403,1.22499 -0.2135,-0.19252 -0.54128,-0.18757 -0.74691,0.0191 -0.20544,0.2061 -0.21036,0.53473 -0.0186,0.74874 -0.67211,0.8202 -1.1129,1.83772 -1.22194,2.9514 -0.28568,0.0159 -0.51256,0.25171 -0.51256,0.54223 0,0.29049 0.22688,0.52556 0.51256,0.54223 0.10893,1.11364 0.54983,2.13093 1.22181,2.95119 -0.19206,0.2142 -0.18713,0.54282 0.0189,0.74895 0.20562,0.20592 0.53329,0.21087 0.74704,0.0185 0.81815,0.67393 1.83315,1.11568 2.94407,1.22499 0.0159,0.28606 0.25106,0.51384 0.54085,0.51384 0.28978,0 0.52429,-0.22778 0.54086,-0.51384 1.11092,-0.10919 2.12578,-0.55106 2.94402,-1.22499 0.21379,0.19252 0.54133,0.18757 0.74692,-0.0185 0.20544,-0.20613 0.21037,-0.53476 0.0189,-0.74878 0.67232,-0.82019 1.1129,-1.83772 1.22194,-2.95136 0.28573,-0.0159 0.51255,-0.25174 0.51255,-0.54223 z m -0.62908,0.53687 c -0.10743,1.08567 -0.53728,2.07761 -1.19198,2.87832 -0.21268,-0.15334 -0.50975,-0.13594 -0.70097,0.0562 -0.1913,0.19184 -0.20889,0.48966 -0.0561,0.70273 -0.79859,0.65634 -1.7882,1.08724 -2.87142,1.19494 -0.0401,-0.26051 -0.26384,-0.46006 -0.53527,-0.46006 -0.27145,0 -0.4945,0.19955 -0.53533,0.46006 -1.08321,-0.1077 -2.0728,-0.5386 -2.87142,-1.19494 0.15308,-0.21335 0.13564,-0.51136 -0.056,-0.70285 -0.19125,-0.19177 -0.48846,-0.20955 -0.70112,-0.0562 -0.65473,-0.80048 -1.08468,-1.79242 -1.19213,-2.87808 0.25986,-0.0405 0.45893,-0.26476 0.45893,-0.53688 0,-0.27215 -0.19907,-0.49574 -0.45893,-0.5369 0.10745,-1.08568 0.53726,-2.07748 1.19188,-2.87824 0.21277,0.15359 0.51013,0.13603 0.70123,-0.0561 0.19127,-0.1917 0.2087,-0.48982 0.056,-0.70303 0.79874,-0.65617 1.78807,-1.08711 2.87128,-1.19484 0.0401,0.2605 0.26387,0.46008 0.53531,0.46008 0.27142,0 0.49447,-0.19958 0.53531,-0.46008 1.0832,0.10773 2.07265,0.53867 2.87131,1.19484 -0.15299,0.21333 -0.13572,0.51117 0.056,0.7029 0.19121,0.1917 0.4885,0.2092 0.70116,0.0561 0.65466,0.80063 1.08451,1.79268 1.19202,2.87836 -0.25988,0.0404 -0.45892,0.26475 -0.45892,0.5369 0,0.27212 0.19916,0.49569 0.45914,0.53688 z"
       id="path6-2"
       style="fill:url(#linearGradient1205);fill-opacity:1;stroke-width:0.133156" />
  </g>
</svg>
