<?xml version="1.0" encoding="UTF-8" standalone="no"?>
<svg
   width="32"
   version="1.1"
   height="32"
   viewBox="0 0 32 32"
   id="svg17"
   sodipodi:docname="folder-image.svg"
   inkscape:version="1.1.2 (0a00cf5339, 2022-02-04)"
   xmlns:inkscape="http://www.inkscape.org/namespaces/inkscape"
   xmlns:sodipodi="http://sodipodi.sourceforge.net/DTD/sodipodi-0.dtd"
   xmlns:xlink="http://www.w3.org/1999/xlink"
   xmlns="http://www.w3.org/2000/svg"
   xmlns:svg="http://www.w3.org/2000/svg"
   xmlns:rdf="http://www.w3.org/1999/02/22-rdf-syntax-ns#"
   xmlns:cc="http://creativecommons.org/ns#"
   xmlns:dc="http://purl.org/dc/elements/1.1/">
  <sodipodi:namedview
     pagecolor="#ffffff"
     bordercolor="#666666"
     borderopacity="1"
     objecttolerance="10"
     gridtolerance="10"
     guidetolerance="10"
     inkscape:pageopacity="0"
     inkscape:pageshadow="2"
     inkscape:window-width="1920"
     inkscape:window-height="1007"
     id="namedview19"
     showgrid="false"
     inkscape:zoom="9.8125"
     inkscape:cx="-22.980892"
     inkscape:cy="20.076433"
     inkscape:window-x="0"
     inkscape:window-y="0"
     inkscape:window-maximized="1"
     inkscape:current-layer="layer1"
     inkscape:pagecheckerboard="0" />
  <defs
     id="defs5455">
    <linearGradient
       inkscape:collect="always"
       id="linearGradient943">
      <stop
         style="stop-color:#ff52ff;stop-opacity:1"
         offset="0"
         id="stop939" />
      <stop
         style="stop-color:#ff9955;stop-opacity:1"
         offset="1"
         id="stop941" />
    </linearGradient>
    <linearGradient
       inkscape:collect="always"
       id="linearGradient991">
      <stop
         style="stop-color:#cccccc;stop-opacity:1"
         offset="0"
         id="stop987" />
      <stop
         style="stop-color:#cccccc;stop-opacity:1"
         offset="0.03132199"
         id="stop1929" />
      <stop
         style="stop-color:#0069a6;stop-opacity:1"
         offset="0.05527586"
         id="stop1263" />
      <stop
         style="stop-color:#0069a6;stop-opacity:1"
         offset="0.10902679"
         id="stop1027" />
      <stop
         style="stop-color:#cccccc;stop-opacity:1"
         offset="1"
         id="stop989" />
    </linearGradient>
    <linearGradient
       inkscape:collect="always"
       xlink:href="#linearGradient991"
       id="linearGradient3483"
       gradientUnits="userSpaceOnUse"
       gradientTransform="matrix(0.49958334,0,0,0.5,192.44677,273.599)"
       x1="386.57144"
       y1="516.39801"
       x2="446.62146"
       y2="516.39801" />
    <linearGradient
       inkscape:collect="always"
       xlink:href="#linearGradient943"
       id="linearGradient1039"
       gradientUnits="userSpaceOnUse"
       gradientTransform="matrix(0.48121885,0,0,0.5,200.45678,273.899)"
       x1="413.76373"
       y1="522.79797"
       x2="439.60989"
       y2="522.79797" />
  </defs>
  <metadata
     id="metadata5458">
    <rdf:RDF>
      <cc:Work
         rdf:about="">
        <dc:format>image/svg+xml</dc:format>
        <dc:type
           rdf:resource="http://purl.org/dc/dcmitype/StillImage" />
      </cc:Work>
    </rdf:RDF>
  </metadata>
  <g
     inkscape:label="Capa 1"
     inkscape:groupmode="layer"
     id="layer1"
     transform="translate(-384.57143,-515.798)">
    <path
       inkscape:connector-curvature="0"
       id="fill"
       d="m 386.07018,520.298 v 22.5 c 0.0543,0.75565 0.49876,1.5 1.94836,1.5 h 24.84991 c 1.63066,0 2.18657,-0.24951 2.12941,-2 v -18 c -0.49875,-1 -3.99002,0 -3.99002,-3 -5.98504,-0.5 -16.95761,0.5 -16.9221,-2.5 h -6.02177 c -0.99628,0 -1.99379,0.5 -1.99379,1.5 z"
       style="color:#1e92ff;fill:#4e5a7e;fill-opacity:0.3;fill-rule:nonzero;stroke:none;stroke-width:5.24924"
       class="ColorScheme-ButtonFocus"
       sodipodi:nodetypes="cccccccccc" />
    <path
       d="m 413.53095,523.00324 h -1.59567 v -0.5905 c 0,-1.02553 -0.44893,-1.531 -0.82558,-1.77469 -0.4039,-0.26114 -0.80051,-0.27447 -0.87629,-0.27447 h -14.01924 c -0.30024,0 -0.5824,-0.3173 -0.88105,-0.65333 -0.38013,-0.42773 -0.811,-0.91225 -1.46505,-0.91225 h -6.25617 c -1.16322,0 -2.04047,0.87766 -2.04047,2.04154 v 21.91692 c 0,1.1258 0.91529,2.04154 2.04047,2.04154 h 25.91905 c 1.12518,0 2.04048,-0.91575 2.04048,-2.04154 v -17.71167 c 0,-1.1258 -0.9153,-2.04155 -2.04048,-2.04155 z m 1.08936,19.75322 c 0,0.60097 -0.48857,1.08962 -1.08936,1.08962 H 387.6119 c -0.60079,0 -1.08935,-0.48865 -1.08935,-1.08962 v -21.91692 c 0,-0.64127 0.44798,-1.08963 1.08935,-1.08963 h 6.25617 c 0.22732,0 0.48349,0.28812 0.75456,0.59305 0.3852,0.43312 0.86457,0.97222 1.59154,0.97222 h 14.01353 c 0.14362,0.004 0.55102,0.0666 0.70066,0.62128 h -21.82601 c -1.21273,0.025 -1.8468,0.65968 -1.8468,1.9289 l 0.0558,17.4518 h 0.57827 c 0,0 -0.12,0.001 4.9e-4,0.001 0.18706,0 0.48238,0.0367 0.7582,-0.17942 0.49554,-0.38902 0.51646,-0.89322 0.51203,-1.03124 l -0.002,-14.33841 c 0,-1.90384 0,-1.90384 1.90225,-1.90384 l 22.47123,0.0898 c 0.60078,0.002 1.08935,0.48897 1.08935,1.08963 v 17.71166 z"
       id="path2-3-3-2"
       sodipodi:nodetypes="scscsscssssssssscsssssscsccccccsccccsscc"
       style="fill:url(#linearGradient3483);fill-opacity:1;stroke-width:0.317173" />
    <path
       id="Photos-1"
       class="st0"
       d="m 411.11694,530.22107 v 0.92309 h -11.54925 v 9.23077 h 10.21664 c 1.22155,0 2.22102,-1.03847 2.22102,-2.3077 v -7.84616 z m 0,6 -2.10998,-1.56923 c -0.5108,-0.3923 -1.22153,-0.36923 -1.71016,0.0923 l -4.46423,4.26924 -0.59967,-0.69232 1.1327,-1.08461 -0.99946,-0.83077 c -0.33311,-0.27692 -0.79953,-0.27692 -1.1327,0.0231 l -0.77735,0.69231 v -5.05385 h 10.66085 z m -8.88404,-1.84615 c 0,-0.64615 0.4886,-1.15385 1.11052,-1.15385 0.62186,0 1.11048,0.5077 1.11048,1.15385 0,0.64615 -0.48862,1.15385 -1.11048,1.15385 -0.62192,0 -1.11052,-0.5077 -1.11052,-1.15385 z"
       style="clip-rule:evenodd;fill:url(#linearGradient1039);fill-opacity:1;fill-rule:evenodd;stroke-width:0.226393" />
    <path
       id="Photos-s-7"
       class="st1"
       d="m 399.56769,530.22107 c -0.48861,0 -0.88841,0.41539 -0.88841,0.92309 v 4.61538 h -0.8884 v -4.61538 c 0,-1.01539 0.79956,-1.84616 1.77681,-1.84616 h 6.21882 v 0.92307 z m 9.77244,10.15385 h -8.88404 v 0.92308 h 8.88404 c 1.46588,0 2.66522,-1.24615 2.66522,-2.76923 v -1.61539 l -0.88841,-0.69231 v 2.3077 c 0,1.01538 -0.79956,1.84615 -1.77681,1.84615 z m 2.66522,-9.23076 h -0.88841 v 0.92307 h 0.88841 z"
       style="fill:#f3f3f3;fill-opacity:1;stroke-width:0.226393" />
  </g>
</svg>
