<?xml version="1.0" encoding="UTF-8" standalone="no"?>
<svg
   width="32"
   version="1.1"
   height="32"
   viewBox="0 0 32 32"
   id="svg15"
   sodipodi:docname="folder-Pop_OS.svg"
   inkscape:version="1.1.2 (0a00cf5339, 2022-02-04)"
   xmlns:inkscape="http://www.inkscape.org/namespaces/inkscape"
   xmlns:sodipodi="http://sodipodi.sourceforge.net/DTD/sodipodi-0.dtd"
   xmlns:xlink="http://www.w3.org/1999/xlink"
   xmlns="http://www.w3.org/2000/svg"
   xmlns:svg="http://www.w3.org/2000/svg"
   xmlns:rdf="http://www.w3.org/1999/02/22-rdf-syntax-ns#"
   xmlns:cc="http://creativecommons.org/ns#"
   xmlns:dc="http://purl.org/dc/elements/1.1/">
  <sodipodi:namedview
     pagecolor="#ffffff"
     bordercolor="#666666"
     borderopacity="1"
     objecttolerance="10"
     gridtolerance="10"
     guidetolerance="10"
     inkscape:pageopacity="0"
     inkscape:pageshadow="2"
     inkscape:window-width="1920"
     inkscape:window-height="1007"
     id="namedview17"
     showgrid="false"
     inkscape:zoom="9.8125"
     inkscape:cx="-16.050955"
     inkscape:cy="8.6624204"
     inkscape:window-x="0"
     inkscape:window-y="0"
     inkscape:window-maximized="1"
     inkscape:current-layer="layer1"
     inkscape:document-rotation="0"
     inkscape:pagecheckerboard="0" />
  <defs
     id="defs5455">
    <linearGradient
       inkscape:collect="always"
       id="linearGradient991">
      <stop
         style="stop-color:#cccccc;stop-opacity:1"
         offset="0"
         id="stop987" />
      <stop
         style="stop-color:#cccccc;stop-opacity:1"
         offset="0.03132199"
         id="stop1929" />
      <stop
         style="stop-color:#0069a6;stop-opacity:1"
         offset="0.05527586"
         id="stop1263" />
      <stop
         style="stop-color:#0069a6;stop-opacity:1"
         offset="0.10902679"
         id="stop1027" />
      <stop
         style="stop-color:#cccccc;stop-opacity:1"
         offset="1"
         id="stop989" />
    </linearGradient>
    <linearGradient
       inkscape:collect="always"
       xlink:href="#linearGradient991"
       id="linearGradient3483"
       gradientUnits="userSpaceOnUse"
       gradientTransform="matrix(0.49958334,0,0,0.5,192.44678,273.599)"
       x1="386.57144"
       y1="516.39801"
       x2="446.62146"
       y2="516.39801" />
  </defs>
  <metadata
     id="metadata5458">
    <rdf:RDF>
      <cc:Work
         rdf:about="">
        <dc:format>image/svg+xml</dc:format>
        <dc:type
           rdf:resource="http://purl.org/dc/dcmitype/StillImage" />
      </cc:Work>
    </rdf:RDF>
  </metadata>
  <g
     inkscape:label="Capa 1"
     inkscape:groupmode="layer"
     id="layer1"
     transform="translate(-384.57143,-515.798)">
    <path
       inkscape:connector-curvature="0"
       id="fill"
       d="m 386.07018,520.29801 v 22.5 c 0.0543,0.75564 0.49876,1.5 1.94836,1.5 h 24.84991 c 1.63066,0 2.18657,-0.24952 2.12941,-2 v -18 c -0.49875,-1 -3.99002,0 -3.99002,-3 -5.98504,-0.5 -16.95761,0.5 -16.9221,-2.5 h -6.02177 c -0.99628,0 -1.99379,0.5 -1.99379,1.5 z"
       style="color:#1e92ff;fill:#4e5a7e;fill-opacity:0.3;fill-rule:nonzero;stroke:none;stroke-width:5.24924"
       class="ColorScheme-ButtonFocus"
       sodipodi:nodetypes="cccccccccc" />
    <path
       d="m 413.53095,523.00325 h -1.59567 v -0.59051 c 0,-1.02553 -0.44893,-1.53099 -0.82558,-1.77468 -0.4039,-0.26115 -0.80051,-0.27448 -0.87629,-0.27448 h -14.01924 c -0.30024,0 -0.5824,-0.3173 -0.88105,-0.65333 -0.38013,-0.42773 -0.811,-0.91225 -1.46505,-0.91225 h -6.25617 c -1.16322,0 -2.04047,0.87767 -2.04047,2.04155 v 21.9169 c 0,1.12581 0.91529,2.04155 2.04047,2.04155 h 25.91905 c 1.12518,0 2.04048,-0.91574 2.04048,-2.04155 v -17.71166 c 0,-1.1258 -0.9153,-2.04154 -2.04048,-2.04154 z m 1.08936,19.75321 c 0,0.60098 -0.48857,1.08963 -1.08936,1.08963 H 387.6119 c -0.60079,0 -1.08935,-0.48865 -1.08935,-1.08963 v -21.91691 c 0,-0.64128 0.44798,-1.08963 1.08935,-1.08963 h 6.25617 c 0.22732,0 0.48349,0.28811 0.75456,0.59305 0.3852,0.43311 0.86457,0.97222 1.59154,0.97222 h 14.01353 c 0.14362,0.004 0.55102,0.0666 0.70066,0.62128 h -21.82601 c -1.21273,0.025 -1.8468,0.65968 -1.8468,1.9289 l 0.0558,17.4518 h 0.57827 c 0,0 -0.12,10e-4 4.9e-4,10e-4 0.18706,0 0.48238,0.0366 0.7582,-0.17943 0.49554,-0.389 0.51647,-0.89321 0.51203,-1.03124 l -0.002,-14.3384 c 0,-1.90384 0,-1.90384 1.90225,-1.90384 l 22.47123,0.0898 c 0.60079,0.002 1.08936,0.48897 1.08936,1.08963 v 17.71167 z"
       id="path2-3-3-2"
       sodipodi:nodetypes="scscsscssssssssscsssssscsccccccsccccsscc"
       style="fill:url(#linearGradient3483);fill-opacity:1;stroke-width:0.317173" />
    <path
       style="fill:#f2f2f2;fill-opacity:1;stroke-width:0.0141023"
       id="path2-3-3-3-5"
       d="m 410.44899,536.96396 c -0.0275,0.11277 -0.0836,0.21259 -0.18109,0.27539 -0.15335,0.0986 -0.34004,0.0699 -0.47242,-0.05 -0.124,-0.11131 -0.16583,-0.29957 -0.12683,-0.46237 0.0402,-0.1699 0.16862,-0.31975 0.33305,-0.36687 0.36647,-0.10411 0.5184,0.30399 0.44729,0.60382 z m -0.22433,-1.15893 c -0.2271,-0.0928 -0.14912,-1.31302 0.0587,-2.79433 0.0587,-0.41393 0.15889,-0.60962 0.27177,-0.70956 0.16163,-0.14119 0.45565,-0.147 0.65483,-0.11702 0.22856,0.0329 0.44737,0.14282 0.61317,0.30691 0.14632,0.14571 0.16301,0.29399 0.11282,0.48678 -0.0821,0.3069 -0.22289,0.60091 -0.35812,0.88761 -0.0313,0.0698 -0.31216,0.61367 -0.3497,0.68074 -0.67581,1.2189 -0.81099,1.33733 -1.00323,1.25887 z" />
    <path
       style="fill:#48b9c7;fill-opacity:1;stroke-width:0.0141023"
       id="path4-6"
       d="m 405.64029,535.25551 c 0.13373,0.5853 0.1198,1.22747 0.003,1.68984 -0.10724,0.43673 -0.39847,0.82776 -0.8611,0.95905 -0.40558,0.11565 -0.87785,0.0309 -1.16777,-0.25402 -0.47653,-0.46814 -0.7552,-1.56711 -0.63121,-2.36491 0.10037,-0.64067 0.43757,-1.46144 1.17752,-1.49722 0.0482,-0.002 0.0948,-10e-4 0.14203,0.002 0.75392,0.0699 1.16497,0.72083 1.335,1.46445 z m -1.36273,1.33159 c 0.0411,0.008 0.0836,0.008 0.12533,-0.004 0.14076,-0.0408 0.22159,-0.19128 0.25917,-0.3368 0.0576,-0.22125 0.0492,-0.45959 -0.0265,-0.67654 -0.0383,-0.10992 -0.0933,-0.21695 -0.17838,-0.29688 -0.29951,-0.28113 -0.59901,0.0109 -0.65065,0.34395 -0.0402,0.2598 0.0188,0.56092 0.17692,0.77076 0.0739,0.097 0.17988,0.18121 0.29275,0.2012 z" />
    <path
       style="fill:#48b9c7;fill-opacity:1;stroke-width:0.0141023"
       id="path6-7"
       d="m 407.27201,536.49587 c -0.001,1.08027 0.10445,1.90665 -0.35956,2.00516 -0.37619,0.0784 -0.36362,-0.25977 -0.39296,-0.54379 -0.1114,-1.10031 -0.21313,-2.92849 -0.25639,-4.03476 0.0303,-0.47529 0.34146,-0.76641 0.66472,-0.83763 0.49885,-0.10993 1.03109,-0.0787 1.47285,0.20115 0.8737,0.55384 0.94338,1.56996 0.41387,2.39909 -0.28986,0.45245 -1.16631,0.7808 -1.54253,0.75213 z m 0.11142,-2.42198 c -0.0541,0.009 -0.14349,0.0328 -0.16861,0.0883 -0.0599,0.12701 -0.0564,0.93358 0.0492,1.27175 0.0177,0.0563 0.0534,0.10841 0.10867,0.1284 0.19787,0.0743 0.37626,-0.17417 0.45707,-0.32398 0.11286,-0.20835 0.14903,-0.4538 0.078,-0.68225 -0.067,-0.21259 -0.27448,-0.52095 -0.5239,-0.48226 z" />
    <path
       style="fill:#48b9c7;fill-opacity:1;stroke-width:0.0141023"
       id="path8-5"
       d="m 402.27509,534.61042 c -0.32746,0.70944 -0.87091,1.27307 -1.6233,1.55147 0.2161,0.57801 0.43607,1.14895 0.65068,1.72542 0.11991,0.31109 0.23413,0.65222 0.12956,0.95906 -0.10869,0.314 -0.53209,0.40103 -0.84013,0.0672 -0.59231,-0.64516 -2.59455,-4.73261 -2.74224,-5.03952 -0.1255,-0.26401 -0.31342,-0.54665 -0.30805,-0.85203 0.01,-0.45961 0.70388,-0.92489 1.03663,-1.1631 0.46554,-0.3327 1.00332,-0.55966 1.57885,-0.56094 0.44874,0 0.83189,0.12572 1.17194,0.34815 0.52107,0.34269 0.88346,0.88911 1.01729,1.5071 0.11692,0.54384 0.0919,1.10059 -0.0712,1.45732 m -1.5257,-0.77647 c -0.1171,-0.43518 -0.38189,-0.83622 -0.71497,-1.11735 -0.0723,-0.0613 -0.15053,-0.11862 -0.24085,-0.14989 -0.6243,-0.20987 -0.35398,0.85912 -0.25225,1.12895 0.1407,0.37815 0.35398,0.85622 0.63952,1.14161 0.0625,0.0626 0.13658,0.11854 0.22151,0.13562 0.12963,0.028 0.24941,-0.0659 0.31503,-0.17407 0.0534,-0.0899 0.0751,-0.19697 0.0878,-0.30108 0.0224,-0.22117 0.002,-0.44683 -0.0566,-0.66379 z" />
    <path
       style="fill:#f0f0f0;fill-opacity:1;stroke-width:0.0141023"
       id="path10-3"
       d="m 409.74027,540.04339 c -0.002,0.6266 -0.37623,1.25311 -1.1998,1.25311 -0.82347,0 -1.20667,-0.61651 -1.20667,-1.24596 0,-0.78496 0.53367,-1.27021 1.22344,-1.27021 0.79985,0.008 1.19,0.61512 1.18303,1.26306 z m -1.18303,-0.86768 c -0.51696,0 -0.80687,0.36825 -0.8096,0.87059 0,0.43673 0.23824,0.84632 0.79978,0.84632 0.56157,0 0.77616,-0.44381 0.77616,-0.8506 0.008,-0.4225 -0.21176,-0.85632 -0.76634,-0.86631 z m 1.52855,1.79967 c 0,0.0928 0.002,-0.44101 0,-0.52232 h 0.37903 l 0.0276,0.32686 c 0.12407,0.0728 0.31632,0.12702 0.47378,0.12702 0.29266,0 0.59782,-0.0757 0.59782,-0.36826 -0.01,-0.26547 -0.34977,-0.31968 -0.62425,-0.34828 -0.46681,-0.049 -0.84302,-0.16546 -0.84302,-0.70214 0,-0.47814 0.52808,-0.71638 0.92101,-0.71638 0.31633,-0.008 0.54066,0.0428 0.8263,0.2782 0,0.19276 -0.002,0.30691 -0.002,0.49953 h -0.36639 l -0.0224,-0.31676 c -0.14772,-0.0729 -0.29962,-0.0928 -0.41662,-0.0899 -0.25223,0.002 -0.52117,0.12411 -0.52117,0.34107 0,0.21261 0.17418,0.27114 0.48351,0.31687 0.50447,0.0685 0.99073,0.18548 0.99073,0.73641 -0.002,0.60223 -0.55459,0.76071 -1.02833,0.76071 -0.36089,10e-4 -0.58665,-0.0672 -0.87228,-0.32261 z"
       inkscape:connector-curvature="0" />
    <path
       style="fill:#ffdd55;fill-opacity:1;stroke-width:0.0141023"
       id="path12-5"
       d="m 406.82239,541.09103 c 0,0.10991 -0.0864,0.19834 -0.19364,0.19834 h -2.2393 c -0.10731,0 -0.19362,-0.0884 -0.19362,-0.19834 v -0.018 c 0,-0.10993 0.0863,-0.19828 0.19362,-0.19828 h 2.2393 c 0.10721,0 0.19364,0.0883 0.19364,0.19828 z"
       inkscape:connector-curvature="0" />
  </g>
</svg>
