<?xml version="1.0" encoding="UTF-8" standalone="no"?>
<svg
   width="32"
   version="1.1"
   height="32"
   viewBox="0 0 32 32"
   id="svg15"
   sodipodi:docname="folder-java.svg"
   inkscape:version="1.1.2 (0a00cf5339, 2022-02-04)"
   xmlns:inkscape="http://www.inkscape.org/namespaces/inkscape"
   xmlns:sodipodi="http://sodipodi.sourceforge.net/DTD/sodipodi-0.dtd"
   xmlns:xlink="http://www.w3.org/1999/xlink"
   xmlns="http://www.w3.org/2000/svg"
   xmlns:svg="http://www.w3.org/2000/svg"
   xmlns:rdf="http://www.w3.org/1999/02/22-rdf-syntax-ns#"
   xmlns:cc="http://creativecommons.org/ns#"
   xmlns:dc="http://purl.org/dc/elements/1.1/">
  <sodipodi:namedview
     pagecolor="#ffffff"
     bordercolor="#666666"
     borderopacity="1"
     objecttolerance="10"
     gridtolerance="10"
     guidetolerance="10"
     inkscape:pageopacity="0"
     inkscape:pageshadow="2"
     inkscape:window-width="1920"
     inkscape:window-height="1007"
     id="namedview17"
     showgrid="false"
     inkscape:zoom="9.8125"
     inkscape:cx="-8.9171975"
     inkscape:cy="3.9745223"
     inkscape:window-x="0"
     inkscape:window-y="0"
     inkscape:window-maximized="1"
     inkscape:current-layer="layer1"
     inkscape:pagecheckerboard="0" />
  <defs
     id="defs5455">
    <linearGradient
       id="linearGradient4172-0">
      <stop
         style="stop-color:#f89406"
         id="stop4174-4" />
      <stop
         offset="1"
         style="stop-color:#faa938"
         id="stop4176-5" />
    </linearGradient>
    <linearGradient
       inkscape:collect="always"
       id="linearGradient991">
      <stop
         style="stop-color:#f89406;stop-opacity:1"
         offset="0"
         id="stop987" />
      <stop
         style="stop-color:#f89406;stop-opacity:1"
         offset="0.03132199"
         id="stop1929" />
      <stop
         style="stop-color:#f89406;stop-opacity:1"
         offset="0.05527586"
         id="stop1263" />
      <stop
         style="stop-color:#faaa38;stop-opacity:1"
         offset="0.10902679"
         id="stop1027" />
      <stop
         style="stop-color:#fcc475;stop-opacity:1"
         offset="1"
         id="stop989" />
    </linearGradient>
    <linearGradient
       inkscape:collect="always"
       xlink:href="#linearGradient991"
       id="linearGradient1246"
       gradientUnits="userSpaceOnUse"
       gradientTransform="matrix(0.49958334,0,0,0.5,192.44679,273.599)"
       x1="386.57144"
       y1="516.39801"
       x2="446.62146"
       y2="516.39801" />
    <linearGradient
       inkscape:collect="always"
       xlink:href="#linearGradient991"
       id="linearGradient1248"
       gradientUnits="userSpaceOnUse"
       x1="418.57144"
       y1="523.19086"
       x2="440.84644"
       y2="523.19086"
       gradientTransform="matrix(0.49875312,0,0,0.5,192.76773,273.899)" />
  </defs>
  <metadata
     id="metadata5458">
    <rdf:RDF>
      <cc:Work
         rdf:about="">
        <dc:format>image/svg+xml</dc:format>
        <dc:type
           rdf:resource="http://purl.org/dc/dcmitype/StillImage" />
      </cc:Work>
    </rdf:RDF>
  </metadata>
  <g
     inkscape:label="Capa 1"
     inkscape:groupmode="layer"
     id="layer1"
     transform="translate(-384.57143,-515.798)">
    <path
       inkscape:connector-curvature="0"
       id="fill"
       d="m 386.07019,520.298 v 22.5 c 0.0543,0.75565 0.49876,1.5 1.94835,1.5 h 24.84991 c 1.63067,0 2.18657,-0.24952 2.12941,-2 v -18 c -0.49874,-1 -3.99001,0 -3.99001,-3 -5.98504,-0.5 -16.95761,0.5 -16.9221,-2.5 h -6.02177 c -0.99628,0 -1.99379,0.5 -1.99379,1.5 z"
       style="color:#1e92ff;fill:#4e5a7e;fill-opacity:0.3;fill-rule:nonzero;stroke:none;stroke-width:5.24924"
       class="ColorScheme-ButtonFocus"
       sodipodi:nodetypes="cccccccccc" />
    <path
       d="m 413.53095,523.00324 h -1.59567 v -0.5905 c 0,-1.02553 -0.44893,-1.531 -0.82558,-1.77469 -0.4039,-0.26114 -0.80051,-0.27447 -0.87629,-0.27447 h -14.01924 c -0.30024,0 -0.5824,-0.3173 -0.88105,-0.65333 -0.38013,-0.42773 -0.811,-0.91225 -1.46505,-0.91225 h -6.25616 c -1.16323,0 -2.04048,0.87766 -2.04048,2.04154 v 21.91691 c 0,1.1258 0.91529,2.04155 2.04048,2.04155 h 25.91904 c 1.12518,0 2.04048,-0.91575 2.04048,-2.04155 v -17.71166 c 0,-1.1258 -0.9153,-2.04155 -2.04048,-2.04155 z m 1.08936,19.75321 c 0,0.60099 -0.48856,1.08964 -1.08936,1.08964 h -25.91904 c -0.6008,0 -1.08936,-0.48865 -1.08936,-1.08964 v -21.91691 c 0,-0.64127 0.44798,-1.08963 1.08936,-1.08963 h 6.25616 c 0.22732,0 0.48349,0.28812 0.75456,0.59305 0.3852,0.43312 0.86457,0.97222 1.59155,0.97222 h 14.01352 c 0.14362,0.004 0.55103,0.0666 0.70066,0.62128 h -21.826 c -1.21273,0.025 -1.8468,0.65968 -1.8468,1.9289 l 0.0558,17.4518 h 0.57827 c 0,0 -0.12,0.001 4.8e-4,0.001 0.18707,0 0.48238,0.0367 0.75821,-0.17942 0.49554,-0.38901 0.51646,-0.89322 0.51203,-1.03125 l -0.003,-14.3384 c 0,-1.90384 0,-1.90384 1.90225,-1.90384 l 22.47123,0.0898 c 0.60078,0.002 1.08935,0.48897 1.08935,1.08963 v 17.71166 z"
       id="path2-3-3-7"
       sodipodi:nodetypes="scscsscssssssssscsssssscsccccccsccccsscc"
       style="fill:url(#linearGradient1246);fill-opacity:1;stroke-width:0.317173" />
    <path
       id="Cup-0"
       class="st0"
       d="m 403.61459,530.898 h 6.9436 v 4.24285 c 0,1.1668 -0.93741,2.12145 -2.08309,2.12145 h -2.77741 c -1.14568,0 -2.0831,-0.95465 -2.0831,-2.12145 z m 0,9.19285 h 7.63797 c 0.76377,0 1.3887,-0.6364 1.3887,-1.4143 v -0.7071 h -0.69434 v 0.7071 h -3.47183 v -0.7071 h -6.94356 c 0,1.16674 0.93738,2.1214 2.08306,2.1214 z"
       style="fill:url(#linearGradient1248);fill-opacity:1;stroke-width:0.175178" />
    <path
       id="Cup-s-9"
       class="st1"
       d="m 412.64126,538.67655 c 0,1.1668 -0.93738,2.12145 -2.08307,2.12145 h -6.9436 v -0.70715 h 6.9436 c 0.76376,0 1.38873,-0.6364 1.38873,-1.4143 z M 401.87873,533.373 c 0,-0.77785 0.62489,-1.41431 1.38873,-1.41431 h 0.34713 v 0.70716 h -0.34713 c -0.38196,0 -0.69439,0.31819 -0.69439,0.70715 v 1.4143 h -0.69434 z m 8.67946,-1.76785 v 4.24285 c 0,1.1668 -0.93741,2.12145 -2.0831,2.12145 h -0.69436 v -0.70715 h 0.69436 c 0.76381,0 1.38877,-0.63645 1.38877,-1.4143 v -4.24285 z"
       style="fill:#ff6600;fill-opacity:1;stroke-width:0.175178" />
  </g>
</svg>
