<?xml version="1.0" encoding="UTF-8" standalone="no"?>
<svg
   width="32"
   version="1.1"
   height="32"
   viewBox="0 0 32 32"
   id="svg15"
   sodipodi:docname="folder.svg"
   inkscape:version="1.1.2 (0a00cf5339, 2022-02-04)"
   xmlns:inkscape="http://www.inkscape.org/namespaces/inkscape"
   xmlns:sodipodi="http://sodipodi.sourceforge.net/DTD/sodipodi-0.dtd"
   xmlns:xlink="http://www.w3.org/1999/xlink"
   xmlns="http://www.w3.org/2000/svg"
   xmlns:svg="http://www.w3.org/2000/svg"
   xmlns:rdf="http://www.w3.org/1999/02/22-rdf-syntax-ns#"
   xmlns:cc="http://creativecommons.org/ns#"
   xmlns:dc="http://purl.org/dc/elements/1.1/">
  <sodipodi:namedview
     pagecolor="#ffffff"
     bordercolor="#666666"
     borderopacity="1"
     objecttolerance="10"
     gridtolerance="10"
     guidetolerance="10"
     inkscape:pageopacity="0"
     inkscape:pageshadow="2"
     inkscape:window-width="1920"
     inkscape:window-height="1007"
     id="namedview17"
     showgrid="true"
     inkscape:zoom="9.8125"
     inkscape:cx="1.477707"
     inkscape:cy="18.038217"
     inkscape:window-x="0"
     inkscape:window-y="0"
     inkscape:window-maximized="1"
     inkscape:current-layer="layer1"
     inkscape:pagecheckerboard="0">
    <inkscape:grid
       type="xygrid"
       id="grid862" />
  </sodipodi:namedview>
  <defs
     id="defs5455">
    <linearGradient
       inkscape:collect="always"
       xlink:href="#linearGradient991"
       id="linearGradient3483"
       gradientUnits="userSpaceOnUse"
       gradientTransform="matrix(0.49958334,0,0,0.49875312,192.44677,274.21047)"
       x1="386.57144"
       y1="516.39801"
       x2="446.62146"
       y2="516.39801" />
    <linearGradient
       inkscape:collect="always"
       id="linearGradient991">
      <stop
         style="stop-color:#cccccc;stop-opacity:1"
         offset="0"
         id="stop987" />
      <stop
         style="stop-color:#cccccc;stop-opacity:1"
         offset="0.03132199"
         id="stop1929" />
      <stop
         style="stop-color:#0069a6;stop-opacity:1"
         offset="0.05527586"
         id="stop1263" />
      <stop
         style="stop-color:#0069a6;stop-opacity:1"
         offset="0.10902679"
         id="stop1027" />
      <stop
         style="stop-color:#cccccc;stop-opacity:1"
         offset="1"
         id="stop989" />
    </linearGradient>
  </defs>
  <metadata
     id="metadata5458">
    <rdf:RDF>
      <cc:Work
         rdf:about="">
        <dc:format>image/svg+xml</dc:format>
        <dc:type
           rdf:resource="http://purl.org/dc/dcmitype/StillImage" />
      </cc:Work>
    </rdf:RDF>
  </metadata>
  <g
     inkscape:label="Capa 1"
     inkscape:groupmode="layer"
     id="layer1"
     transform="translate(-384.57143,-515.798)">
    <path
       inkscape:connector-curvature="0"
       id="fill"
       d="m 386.07018,520.29426 v 22.44389 c 0.0543,0.75377 0.49876,1.49626 1.94836,1.49626 h 24.84991 c 1.63066,0 2.18657,-0.24889 2.12941,-1.99501 v -17.95512 c -0.49875,-0.9975 -3.99002,0 -3.99002,-2.99251 -5.98504,-0.49876 -16.95761,0.49875 -16.9221,-2.49377 h -6.02177 c -0.99628,0 -1.99379,0.49875 -1.99379,1.49626 z"
       style="color:#1e92ff;fill:#4e5a7e;fill-opacity:0.3;fill-rule:nonzero;stroke:none;stroke-width:5.24269"
       class="ColorScheme-ButtonFocus"
       sodipodi:nodetypes="cccccccccc" />
    <path
       d="m 413.53095,522.99275 h -1.59567 v -0.58902 c 0,-1.02298 -0.44892,-1.52718 -0.82558,-1.77027 -0.4039,-0.26049 -0.80051,-0.27378 -0.87628,-0.27378 h -14.01925 c -0.30024,0 -0.5824,-0.31651 -0.88105,-0.6517 -0.38013,-0.42667 -0.811,-0.90998 -1.46505,-0.90998 h -6.25617 c -1.16322,0 -2.04047,0.87547 -2.04047,2.03645 v 21.86225 c 0,1.123 0.91529,2.03646 2.04047,2.03646 h 25.91905 c 1.12518,0 2.04048,-0.91346 2.04048,-2.03646 v -17.66749 c 0,-1.12299 -0.9153,-2.03646 -2.04048,-2.03646 z m 1.08936,19.70395 c 0,0.59948 -0.48857,1.08693 -1.08936,1.08693 H 387.6119 c -0.60079,0 -1.08935,-0.48745 -1.08935,-1.08693 v -21.86224 c 0,-0.63968 0.44798,-1.08692 1.08935,-1.08692 h 6.25617 c 0.22732,0 0.48349,0.2874 0.75456,0.59157 0.38521,0.43204 0.86457,0.9698 1.59154,0.9698 h 14.01353 c 0.14362,0.004 0.55102,0.0664 0.70066,0.61972 h -21.82601 c -1.21273,0.025 -1.8468,0.65804 -1.8468,1.92409 l 0.0558,17.40828 h 0.57827 c 0,0 -0.12,10e-4 4.9e-4,10e-4 0.18706,0 0.48238,0.0366 0.7582,-0.17897 0.49554,-0.38805 0.51647,-0.89099 0.51203,-1.02868 l -0.002,-14.30264 c 0,-1.8991 0,-1.8991 1.90225,-1.8991 l 22.47123,0.0896 c 0.60079,0.002 1.08936,0.48775 1.08936,1.08691 v 17.66749 z"
       id="path2-3-3-2"
       sodipodi:nodetypes="scscsscssssssssscsssssscsccccccsccccsscc"
       style="fill:url(#linearGradient3483);fill-opacity:1;stroke-width:0.316777" />
  </g>
</svg>
