<?xml version="1.0" encoding="UTF-8" standalone="no"?>
<svg
   width="32"
   version="1.1"
   height="32"
   viewBox="0 0 32 32"
   id="svg17"
   sodipodi:docname="network-server.svg"
   inkscape:version="1.1.2 (0a00cf5339, 2022-02-04)"
   xmlns:inkscape="http://www.inkscape.org/namespaces/inkscape"
   xmlns:sodipodi="http://sodipodi.sourceforge.net/DTD/sodipodi-0.dtd"
   xmlns:xlink="http://www.w3.org/1999/xlink"
   xmlns="http://www.w3.org/2000/svg"
   xmlns:svg="http://www.w3.org/2000/svg"
   xmlns:rdf="http://www.w3.org/1999/02/22-rdf-syntax-ns#"
   xmlns:cc="http://creativecommons.org/ns#"
   xmlns:dc="http://purl.org/dc/elements/1.1/">
  <sodipodi:namedview
     pagecolor="#ffffff"
     bordercolor="#666666"
     borderopacity="1"
     objecttolerance="10"
     gridtolerance="10"
     guidetolerance="10"
     inkscape:pageopacity="0"
     inkscape:pageshadow="2"
     inkscape:window-width="1920"
     inkscape:window-height="1007"
     id="namedview19"
     showgrid="false"
     inkscape:zoom="9.8125"
     inkscape:cx="-24.407643"
     inkscape:cy="-0.61146497"
     inkscape:window-x="0"
     inkscape:window-y="0"
     inkscape:window-maximized="1"
     inkscape:current-layer="layer1"
     inkscape:pagecheckerboard="0" />
  <defs
     id="defs5455">
    <linearGradient
       inkscape:collect="always"
       id="linearGradient1005">
      <stop
         style="stop-color:#00ccff;stop-opacity:1"
         offset="0"
         id="stop1001" />
      <stop
         style="stop-color:#00d1a7;stop-opacity:1"
         offset="1"
         id="stop1003" />
    </linearGradient>
    <linearGradient
       inkscape:collect="always"
       id="linearGradient991-6">
      <stop
         style="stop-color:#cccccc;stop-opacity:1"
         offset="0"
         id="stop987-7" />
      <stop
         style="stop-color:#cccccc;stop-opacity:1"
         offset="0.03132199"
         id="stop1929-5" />
      <stop
         style="stop-color:#0069a6;stop-opacity:1"
         offset="0.05527586"
         id="stop1263-3" />
      <stop
         style="stop-color:#0069a6;stop-opacity:1"
         offset="0.10902679"
         id="stop1027-5" />
      <stop
         style="stop-color:#cccccc;stop-opacity:1"
         offset="1"
         id="stop989-6" />
    </linearGradient>
    <linearGradient
       inkscape:collect="always"
       xlink:href="#linearGradient991-6"
       id="linearGradient3483"
       gradientUnits="userSpaceOnUse"
       gradientTransform="matrix(0.49958334,0,0,0.50000005,192.44678,273.59898)"
       x1="386.57144"
       y1="516.39801"
       x2="446.62146"
       y2="516.39801" />
    <linearGradient
       inkscape:collect="always"
       xlink:href="#linearGradient1005"
       id="linearGradient1219"
       gradientUnits="userSpaceOnUse"
       gradientTransform="matrix(0.44550086,0,0,0.50000005,216.16317,273.89897)"
       x1="412.17142"
       y1="521.94086"
       x2="439.60001"
       y2="521.94086" />
  </defs>
  <metadata
     id="metadata5458">
    <rdf:RDF>
      <cc:Work
         rdf:about="">
        <dc:format>image/svg+xml</dc:format>
        <dc:type
           rdf:resource="http://purl.org/dc/dcmitype/StillImage" />
      </cc:Work>
    </rdf:RDF>
  </metadata>
  <g
     inkscape:label="Capa 1"
     inkscape:groupmode="layer"
     id="layer1"
     transform="translate(-384.57143,-515.798)">
    <path
       inkscape:connector-curvature="0"
       id="fill"
       d="m 386.07018,520.298 v 22.5 c 0.0543,0.75566 0.49876,1.5 1.94836,1.5 h 24.84991 c 1.63066,0 2.18657,-0.24952 2.12941,-1.99999 V 524.298 c -0.49875,-1 -3.99002,0 -3.99002,-3 -5.98504,-0.5 -16.95761,0.5 -16.9221,-2.5 h -6.02177 c -0.99628,0 -1.99379,0.5 -1.99379,1.5 z"
       style="color:#1e92ff;fill:#4e5a7e;fill-opacity:0.3;fill-rule:nonzero;stroke:none;stroke-width:5.24924"
       class="ColorScheme-ButtonFocus"
       sodipodi:nodetypes="cccccccccc" />
    <path
       d="m 413.53095,523.00324 h -1.59566 v -0.5905 c 0,-1.02554 -0.44894,-1.53101 -0.82559,-1.77469 -0.4039,-0.26115 -0.80051,-0.27447 -0.87629,-0.27447 h -14.01924 c -0.30024,0 -0.5824,-0.3173 -0.88105,-0.65333 -0.38013,-0.42773 -0.811,-0.91225 -1.46505,-0.91225 h -6.25616 c -1.16323,0 -2.04048,0.87766 -2.04048,2.04154 v 21.91691 c 0,1.1258 0.91529,2.04155 2.04048,2.04155 h 25.91904 c 1.12518,0 2.04048,-0.91575 2.04048,-2.04155 v -17.71166 c 0,-1.1258 -0.9153,-2.04155 -2.04048,-2.04155 z m 1.08936,19.75321 c 0,0.60098 -0.48856,1.08963 -1.08936,1.08963 h -25.91904 c -0.6008,0 -1.08936,-0.48865 -1.08936,-1.08963 v -21.91691 c 0,-0.64126 0.44798,-1.08962 1.08936,-1.08962 h 6.25616 c 0.22732,0 0.48349,0.28811 0.75456,0.59304 0.3852,0.43313 0.86457,0.97222 1.59155,0.97222 h 14.01352 c 0.14362,0.004 0.55102,0.0665 0.70066,0.62128 h -21.82601 c -1.21273,0.025 -1.8468,0.65968 -1.8468,1.9289 l 0.0558,17.4518 h 0.57827 c 0,0 -0.11999,9.9e-4 4.9e-4,9.9e-4 0.18706,0 0.48238,0.0367 0.75821,-0.17941 0.49553,-0.38903 0.51645,-0.89323 0.51202,-1.03126 l -0.002,-14.33839 c 0,-1.90385 0,-1.90385 1.90225,-1.90385 l 22.47123,0.0898 c 0.60079,0.003 1.08935,0.48897 1.08935,1.08963 v 17.71166 z"
       id="path2-3-3-2-7"
       sodipodi:nodetypes="scscsscssssssssscsssssscsccccccsccccsscc"
       style="fill:url(#linearGradient3483);fill-opacity:1;stroke-width:0.317173" />
    <path
       id="List-6"
       class="st0"
       d="m 403.60447,529.29801 h 8.40088 v 8.99999 c 0,1.17857 -0.85921,2.14286 -1.90929,2.14286 h -6.49159 v -2.57143 h 7.63715 v -1.71429 h -7.63715 v -2.57142 h 7.63715 v -1.7143 h -7.63715 z m -3.81858,6.85713 h 2.29115 v -2.57142 h -2.29115 z m 2.29115,1.71429 h -2.29115 v 2.57143 h 2.29115 z"
       style="fill:url(#linearGradient1219);fill-opacity:1;stroke-width:0.20227" />
    <path
       id="List-s-2"
       class="st1"
       d="m 400.54961,531.86942 h -0.76372 v -0.85714 c 0,-0.94285 0.68735,-1.71427 1.52744,-1.71427 h 0.76372 v 0.85713 h -0.76372 c -0.42001,0 -0.76372,0.38571 -0.76372,0.85714 z m 10.69202,-2.57141 v 2.57141 h 0.76372 v -2.57141 z m 0,4.28571 v 2.57142 h 0.76372 v -2.57142 z m 0,4.28571 v 0.85714 c 0,0.94286 -0.68735,1.71429 -1.52743,1.71429 h -6.10972 v 0.85714 h 6.10972 c 1.26016,0 2.29115,-1.15714 2.29115,-2.57143 v -0.85714 z m -9.16458,3.42857 v -0.85714 h -1.52744 v 0.85714 z"
       style="fill:#f2f2f2;fill-opacity:1;stroke-width:0.20227" />
  </g>
</svg>
