<?xml version="1.0" encoding="UTF-8" standalone="no"?>
<svg
   xmlns:dc="http://purl.org/dc/elements/1.1/"
   xmlns:cc="http://creativecommons.org/ns#"
   xmlns:rdf="http://www.w3.org/1999/02/22-rdf-syntax-ns#"
   xmlns:svg="http://www.w3.org/2000/svg"
   xmlns="http://www.w3.org/2000/svg"
   xmlns:sodipodi="http://sodipodi.sourceforge.net/DTD/sodipodi-0.dtd"
   xmlns:inkscape="http://www.inkscape.org/namespaces/inkscape"
   viewBox="0 0 22 22"
   version="1.1"
   id="svg6"
   sodipodi:docname="bookmark-new.svg"
   inkscape:version="1.0.2 (e86c870879, 2021-01-15)">
  <metadata
     id="metadata10">
    <rdf:RDF>
      <cc:Work
         rdf:about="">
        <dc:format>image/svg+xml</dc:format>
        <dc:type
           rdf:resource="http://purl.org/dc/dcmitype/StillImage" />
      </cc:Work>
    </rdf:RDF>
  </metadata>
  <sodipodi:namedview
     pagecolor="#ffffff"
     bordercolor="#666666"
     borderopacity="1"
     objecttolerance="10"
     gridtolerance="10"
     guidetolerance="10"
     inkscape:pageopacity="0"
     inkscape:pageshadow="2"
     inkscape:window-width="1920"
     inkscape:window-height="1007"
     id="namedview8"
     showgrid="false"
     inkscape:zoom="10.092342"
     inkscape:cx="23.157788"
     inkscape:cy="2.4415987"
     inkscape:window-x="0"
     inkscape:window-y="0"
     inkscape:window-maximized="1"
     inkscape:current-layer="svg6">
    <inkscape:grid
       type="xygrid"
       id="grid847" />
  </sodipodi:namedview>
  <defs
     id="defs3051">
    <style
       type="text/css"
       id="current-color-scheme">
      .ColorScheme-Text {
        color:#eff0f1;
      }
      </style>
  </defs>
  <g
     id="g4"
     transform="matrix(0.40773057,0,0,0.40773057,-19.369647,-0.46439598)">
    <path
       d="m 90.773866,3.5915776 h -32.473 c -2.633,0 -4.786,2.153 -4.786,4.788 V 47.855578 c 0,2.635 2.153,4.788 4.786,4.788 h 32.473 c 2.633,0 4.786,-2.153 4.786,-4.788 V 8.3795776 c 0,-2.635 -2.153,-4.788 -4.786,-4.788 z m -8.212,39.2110004 -8.024,-4.22 -8.024,4.22 1.533,-8.935 -6.492,-6.328 8.971,-1.308 4.012,-8.126 4.01,8.126 8.974,1.308 -6.491,6.328 z m 9.494,-28.408 h -35.037 V 8.3795776 c 0,-0.696 0.586,-1.284 1.282,-1.284 h 32.471 c 0.693,0 1.282,0.588 1.282,1.284 v 6.0150004 z"
       id="path2"
       style="fill:#eff0f1;fill-opacity:1" />
  </g>
</svg>
