<?xml version="1.0" encoding="UTF-8" standalone="no"?>
<svg
   width="64"
   version="1.1"
   height="64"
   id="svg15"
   sodipodi:docname="folder-brown.svg"
   inkscape:version="1.1.2 (0a00cf5339, 2022-02-04)"
   xmlns:inkscape="http://www.inkscape.org/namespaces/inkscape"
   xmlns:sodipodi="http://sodipodi.sourceforge.net/DTD/sodipodi-0.dtd"
   xmlns:xlink="http://www.w3.org/1999/xlink"
   xmlns="http://www.w3.org/2000/svg"
   xmlns:svg="http://www.w3.org/2000/svg"
   xmlns:rdf="http://www.w3.org/1999/02/22-rdf-syntax-ns#"
   xmlns:cc="http://creativecommons.org/ns#"
   xmlns:dc="http://purl.org/dc/elements/1.1/">
  <sodipodi:namedview
     pagecolor="#ffffff"
     bordercolor="#666666"
     borderopacity="1"
     objecttolerance="10"
     gridtolerance="10"
     guidetolerance="10"
     inkscape:pageopacity="0"
     inkscape:pageshadow="2"
     inkscape:window-width="1920"
     inkscape:window-height="1007"
     id="namedview17"
     showgrid="true"
     inkscape:zoom="8"
     inkscape:cx="27.4375"
     inkscape:cy="38.75"
     inkscape:window-x="0"
     inkscape:window-y="0"
     inkscape:window-maximized="1"
     inkscape:current-layer="layer1"
     inkscape:pagecheckerboard="0">
    <inkscape:grid
       type="xygrid"
       id="grid864" />
  </sodipodi:namedview>
  <defs
     id="defs5455">
    <linearGradient
       inkscape:collect="always"
       id="linearGradient991">
      <stop
         style="stop-color:#8b6039;stop-opacity:1"
         offset="0"
         id="stop987" />
      <stop
         style="stop-color:#a47042;stop-opacity:1"
         offset="0.03132199"
         id="stop1929" />
      <stop
         style="stop-color:#98693e;stop-opacity:1"
         offset="0.05527586"
         id="stop1263" />
      <stop
         style="stop-color:#8b6039;stop-opacity:1"
         offset="0.10902679"
         id="stop1027" />
      <stop
         style="stop-color:#b57d4a;stop-opacity:1"
         offset="1"
         id="stop989" />
    </linearGradient>
    <linearGradient
       inkscape:collect="always"
       xlink:href="#linearGradient991"
       id="linearGradient1256"
       gradientUnits="userSpaceOnUse"
       gradientTransform="matrix(1.0016647,0,0,0.99808058,-0.64352225,0.44104189)"
       x1="386.57144"
       y1="516.39801"
       x2="446.62146"
       y2="516.39801" />
  </defs>
  <metadata
     id="metadata5458">
    <rdf:RDF>
      <cc:Work
         rdf:about="">
        <dc:format>image/svg+xml</dc:format>
        <dc:type
           rdf:resource="http://purl.org/dc/dcmitype/StillImage" />
      </cc:Work>
    </rdf:RDF>
  </metadata>
  <g
     inkscape:label="Capa 1"
     inkscape:groupmode="layer"
     id="layer1"
     transform="translate(-384.57143,-483.798)">
    <path
       inkscape:connector-curvature="0"
       id="fill"
       d="m 387.57144,492.79224 v 44.91364 c 0.10877,1.5084 0.99999,2.99424 3.90644,2.99424 h 49.82409 c 3.26946,0 4.38406,-0.49808 4.26946,-3.99233 v -35.9309 c -1,-1.99616 -7.99999,0 -7.99999,-5.98849 -12.00001,-0.99808 -34,0.99808 -33.92881,-4.9904 H 391.569 c -1.99757,0 -3.99756,0.99809 -3.99756,2.99424 z"
       style="color:#1e92ff;fill:#4e5a7e;fill-opacity:0.3;fill-rule:nonzero;stroke:none;stroke-width:10.5016"
       class="ColorScheme-ButtonFocus"
       sodipodi:nodetypes="cccccccccc" />
    <path
       d="m 442.63027,498.29216 h -3.19931 v -1.17875 c 0,-2.04712 -0.9001,-3.0561 -1.65528,-3.54257 -0.80983,-0.52127 -1.60505,-0.54786 -1.75698,-0.54786 h -28.10856 c -0.60198,0 -1.16772,-0.63339 -1.76652,-1.30417 -0.76216,-0.8538 -1.62604,-1.821 -2.93741,-1.821 h -12.54363 c -2.33226,0 -4.09115,1.75196 -4.09115,4.07525 v 43.7497 c 0,2.24729 1.83517,4.07524 4.09115,4.07524 h 51.96769 c 2.25599,0 4.09116,-1.82795 4.09116,-4.07524 v -35.35534 c 0,-2.24729 -1.83517,-4.07526 -4.09116,-4.07526 z m 2.18417,39.4306 c 0,1.19964 -0.97958,2.17507 -2.18417,2.17507 h -51.96769 c -1.20458,0 -2.18415,-0.97543 -2.18415,-2.17507 v -43.7497 c 0,-1.28011 0.8982,-2.17508 2.18415,-2.17508 h 12.54363 c 0.45576,0 0.9694,0.57513 1.5129,1.18383 0.77232,0.86455 1.73344,1.94071 3.19103,1.94071 h 28.09711 c 0.28796,0.008 1.1048,0.13299 1.40483,1.24017 h -43.76115 c -2.4315,0.05 -3.70284,1.31683 -3.70284,3.8504 l 0.11188,34.83659 h 1.15946 c 0,0 -0.24061,0.002 9.6e-4,0.002 0.37504,0 0.96715,0.0732 1.52019,-0.35815 0.99356,-0.77654 1.0355,-1.783 1.02661,-2.05853 l -0.005,-28.62178 c 0,-3.80035 0,-3.80035 3.814,-3.80035 l 45.05482,0.17925 c 1.20458,0.005 2.18415,0.97604 2.18415,2.17507 v 35.35535 z"
       id="path2-3-3-7"
       sodipodi:nodetypes="scscsscssssssssscsssssscsccccccsccccsscc"
       style="fill:url(#linearGradient1256);fill-opacity:1;stroke-width:0.634529" />
  </g>
</svg>
