<?xml version="1.0" encoding="UTF-8" standalone="no"?>
<svg
   width="64"
   version="1.1"
   height="64"
   id="svg15"
   sodipodi:docname="folder-chart.svg"
   inkscape:version="1.1.2 (0a00cf5339, 2022-02-04)"
   xmlns:inkscape="http://www.inkscape.org/namespaces/inkscape"
   xmlns:sodipodi="http://sodipodi.sourceforge.net/DTD/sodipodi-0.dtd"
   xmlns:xlink="http://www.w3.org/1999/xlink"
   xmlns="http://www.w3.org/2000/svg"
   xmlns:svg="http://www.w3.org/2000/svg"
   xmlns:rdf="http://www.w3.org/1999/02/22-rdf-syntax-ns#"
   xmlns:cc="http://creativecommons.org/ns#"
   xmlns:dc="http://purl.org/dc/elements/1.1/">
  <sodipodi:namedview
     pagecolor="#ffffff"
     bordercolor="#666666"
     borderopacity="1"
     objecttolerance="10"
     gridtolerance="10"
     guidetolerance="10"
     inkscape:pageopacity="0"
     inkscape:pageshadow="2"
     inkscape:window-width="1920"
     inkscape:window-height="1003"
     id="namedview17"
     showgrid="true"
     inkscape:zoom="9.8124999"
     inkscape:cx="24.917198"
     inkscape:cy="37.503185"
     inkscape:window-x="0"
     inkscape:window-y="0"
     inkscape:window-maximized="1"
     inkscape:current-layer="layer1"
     inkscape:document-rotation="0"
     inkscape:pagecheckerboard="0"
     showguides="false">
    <inkscape:grid
       type="xygrid"
       id="grid850" />
  </sodipodi:namedview>
  <defs
     id="defs5455">
    <linearGradient
       inkscape:collect="always"
       id="linearGradient912">
      <stop
         style="stop-color:#cccccc;stop-opacity:1"
         offset="0"
         id="stop902" />
      <stop
         style="stop-color:#cccccc;stop-opacity:1"
         offset="0"
         id="stop904" />
      <stop
         style="stop-color:#0069a6;stop-opacity:1"
         offset="0"
         id="stop906" />
      <stop
         style="stop-color:#0069a6;stop-opacity:1"
         offset="0"
         id="stop908" />
      <stop
         style="stop-color:#80b3ff;stop-opacity:1"
         offset="1"
         id="stop910" />
    </linearGradient>
    <linearGradient
       inkscape:collect="always"
       xlink:href="#linearGradient991"
       id="linearGradient3483"
       gradientUnits="userSpaceOnUse"
       gradientTransform="matrix(1.0016646,0,0,1,-0.64349,-0.6)"
       x1="386.57144"
       y1="516.39801"
       x2="446.62146"
       y2="516.39801" />
    <linearGradient
       inkscape:collect="always"
       id="linearGradient991">
      <stop
         style="stop-color:#cccccc;stop-opacity:1"
         offset="0"
         id="stop987" />
      <stop
         style="stop-color:#cccccc;stop-opacity:1"
         offset="0.03132199"
         id="stop1929" />
      <stop
         style="stop-color:#0069a6;stop-opacity:1"
         offset="0.05527586"
         id="stop1263" />
      <stop
         style="stop-color:#0069a6;stop-opacity:1"
         offset="0.10902679"
         id="stop1027" />
      <stop
         style="stop-color:#cccccc;stop-opacity:1"
         offset="1"
         id="stop989" />
    </linearGradient>
    <linearGradient
       inkscape:collect="always"
       xlink:href="#linearGradient912"
       id="linearGradient1058"
       gradientUnits="userSpaceOnUse"
       gradientTransform="translate(-1,1)"
       x1="414.78571"
       y1="522.86945"
       x2="438.78571"
       y2="522.86945" />
  </defs>
  <metadata
     id="metadata5458">
    <rdf:RDF>
      <cc:Work
         rdf:about="">
        <dc:format>image/svg+xml</dc:format>
        <dc:type
           rdf:resource="http://purl.org/dc/dcmitype/StillImage" />
      </cc:Work>
    </rdf:RDF>
  </metadata>
  <g
     inkscape:label="Capa 1"
     inkscape:groupmode="layer"
     id="layer1"
     transform="translate(-384.57143,-483.798)">
    <g
       transform="matrix(0.74351172,0,0,0.74285356,332.49565,-244.90835)"
       id="g4" />
    <path
       inkscape:connector-curvature="0"
       id="fill"
       d="m 387.57143,492.798 v 45 c 0.10878,1.51131 1,3 3.90646,3 h 49.82407 c 3.26947,0 4.38407,-0.49903 4.26947,-4 v -36 c -1,-2 -8,0 -8,-6 -12,-1 -34,1 -33.92879,-5 h -12.07366 c -1.99755,0 -3.99755,1 -3.99755,3 z"
       style="color:#1e92ff;fill:#4e5a7e;fill-opacity:0.30000001;fill-rule:nonzero;stroke:none;stroke-width:10.5116"
       class="ColorScheme-ButtonFocus"
       sodipodi:nodetypes="cccccccccc" />
    <path
       d="m 442.63027,498.20849 h -3.19931 v -1.18101 c 0,-2.05106 -0.9001,-3.06199 -1.65528,-3.54937 -0.80983,-0.52229 -1.60505,-0.54894 -1.75698,-0.54894 h -28.10856 c -0.60198,0 -1.16772,-0.63461 -1.76652,-1.30666 -0.76217,-0.85546 -1.62604,-1.82451 -2.93742,-1.82451 h -12.54362 c -2.33226,0 -4.09115,1.75533 -4.09115,4.08309 v 43.83382 c 0,2.2516 1.83517,4.08309 4.09115,4.08309 h 51.96769 c 2.25599,0 4.09116,-1.83149 4.09116,-4.08309 v -35.42333 c 0,-2.2516 -1.83517,-4.08309 -4.09116,-4.08309 z m 2.18416,39.50642 c 0,1.20196 -0.97957,2.17926 -2.18416,2.17926 h -51.96769 c -1.20458,0 -2.18415,-0.9773 -2.18415,-2.17926 v -43.83382 c 0,-1.28255 0.8982,-2.17926 2.18415,-2.17926 h 12.54362 c 0.45577,0 0.9694,0.57623 1.51289,1.18609 0.77233,0.86624 1.73346,1.94445 3.19105,1.94445 h 28.09711 c 0.28796,0.008 1.1048,0.13326 1.40483,1.24256 h -43.76115 c -2.43151,0.0501 -3.70284,1.31936 -3.70284,3.8578 l 0.11188,34.90359 h 1.15945 c 0,0 -0.2406,0.002 9.7e-4,0.002 0.37504,0 0.96716,0.0733 1.52019,-0.35884 0.99355,-0.77803 1.0355,-1.78643 1.02661,-2.06249 l -0.005,-28.67681 c 0,-3.80767 0,-3.80767 3.814,-3.80767 l 45.05482,0.1796 c 1.20457,0.005 2.18415,0.97793 2.18415,2.17925 v 35.42333 z"
       id="path2-3-3-2"
       sodipodi:nodetypes="scscsscssssssssscsssssscsccccccsccccsscc"
       style="fill:url(#linearGradient3483);fill-opacity:1;stroke-width:0.635139" />
    <path
       id="Chart-5"
       class="st0"
       d="m 433.5,533.08371 h -19.71428 v -2.57142 H 415.5 l 0.85714,-3.42858 4.28572,-6 h 2.57143 l 0.85714,-0.85714 3.42857,1.71429 v 2.57143 h 3.42857 v -3.85715 l 4.71429,-6 2.14286,0.42857 V 528.798 c 0,2.35714 -1.92858,4.28571 -4.28572,4.28571 z"
       style="fill:url(#linearGradient1058);fill-opacity:1;stroke-width:0.428571" />
    <path
       id="Chart-s-6"
       class="st1"
       d="m 436.92857,515.94086 c 1.41429,0 2.57143,-1.15715 2.57143,-2.57143 0,-1.41429 -1.15714,-2.57143 -2.57143,-2.57143 -1.41428,0 -2.57143,1.15714 -2.57143,2.57143 0,0.47143 0.12858,0.94286 0.38572,1.32857 l -4.67143,5.7 c -0.25714,-0.0857 -0.55714,-0.17143 -0.85714,-0.17143 -0.68572,0 -1.32857,0.25714 -1.8,0.72857 l -2.48572,-1.28571 c 0,-0.0857 0,-0.21429 0,-0.3 0,-1.41429 -1.15714,-2.57143 -2.57143,-2.57143 -1.41428,0 -2.57142,1.15714 -2.57142,2.57143 0,0.47143 0.12857,0.94286 0.38571,1.32857 l -4.67143,5.7 c -0.25714,-0.12857 -0.55714,-0.17143 -0.85714,-0.17143 -1.41429,0 -2.57143,1.15714 -2.57143,2.57143 0,1.41429 1.15714,2.57143 2.57143,2.57143 1.41428,0 2.57143,-1.15714 2.57143,-2.57143 0,-0.47143 -0.12857,-0.94286 -0.38572,-1.32857 l 4.67143,-5.7 c 0.25714,0.0857 0.55714,0.17143 0.85714,0.17143 0.68572,0 1.32858,-0.25715 1.8,-0.72857 l 2.52858,1.24285 c 0,0.0857 0,0.21429 0,0.3 0,1.41429 1.15714,2.57143 2.57142,2.57143 1.41429,0 2.57143,-1.15714 2.57143,-2.57143 0,-0.47143 -0.12857,-0.94285 -0.38571,-1.32857 l 4.62857,-5.65714 c 0.25714,0.12857 0.55714,0.17143 0.85714,0.17143 z m 0,-1.71429 c 0.47143,0 0.85715,-0.38571 0.85715,-0.85714 0,-0.47143 -0.38572,-0.85714 -0.85715,-0.85714 -0.47143,0 -0.85714,0.38571 -0.85714,0.85714 0,0.47143 0.38571,0.85714 0.85714,0.85714 z m -6.85714,8.57143 c 0,0.47143 -0.38571,0.85714 -0.85714,0.85714 -0.47143,0 -0.85715,-0.38571 -0.85715,-0.85714 0,-0.47143 0.38572,-0.85714 0.85715,-0.85714 0.47143,0 0.85714,0.38571 0.85714,0.85714 z m -7.71429,-2.57143 c 0.47143,0 0.85715,-0.38571 0.85715,-0.85714 0,-0.47143 -0.38572,-0.85714 -0.85715,-0.85714 -0.47142,0 -0.85714,0.38571 -0.85714,0.85714 0,0.47143 0.38572,0.85714 0.85714,0.85714 z M 415.5,528.798 c 0,0.47143 -0.38571,0.85714 -0.85714,0.85714 -0.47143,0 -0.85714,-0.38571 -0.85714,-0.85714 0,-0.47143 0.38571,-0.85714 0.85714,-0.85714 0.47143,0 0.85714,0.38571 0.85714,0.85714 z m 20.57143,-0.85714 h 1.71429 v 1.71428 c 0,2.82857 -2.31429,5.14286 -5.14286,5.14286 H 415.5 v -1.71429 h 17.14286 c 1.88571,0 3.42857,-1.54285 3.42857,-3.42857 z"
       style="clip-rule:evenodd;fill:#f0f0f0;fill-opacity:1;fill-rule:evenodd;stroke-width:0.428571" />
  </g>
</svg>
