<?xml version="1.0" encoding="UTF-8" standalone="no"?>
<svg
   width="64"
   version="1.1"
   height="64"
   id="svg15"
   sodipodi:docname="folder-deb.svg"
   inkscape:version="1.1.2 (0a00cf5339, 2022-02-04)"
   xmlns:inkscape="http://www.inkscape.org/namespaces/inkscape"
   xmlns:sodipodi="http://sodipodi.sourceforge.net/DTD/sodipodi-0.dtd"
   xmlns="http://www.w3.org/2000/svg"
   xmlns:svg="http://www.w3.org/2000/svg"
   xmlns:rdf="http://www.w3.org/1999/02/22-rdf-syntax-ns#"
   xmlns:cc="http://creativecommons.org/ns#"
   xmlns:dc="http://purl.org/dc/elements/1.1/">
  <sodipodi:namedview
     pagecolor="#ffffff"
     bordercolor="#666666"
     borderopacity="1"
     objecttolerance="10"
     gridtolerance="10"
     guidetolerance="10"
     inkscape:pageopacity="0"
     inkscape:pageshadow="2"
     inkscape:window-width="1920"
     inkscape:window-height="1007"
     id="namedview17"
     showgrid="true"
     inkscape:zoom="9.8124999"
     inkscape:cx="32.866242"
     inkscape:cy="31.082803"
     inkscape:window-x="0"
     inkscape:window-y="0"
     inkscape:window-maximized="1"
     inkscape:current-layer="layer1"
     inkscape:document-rotation="0"
     inkscape:pagecheckerboard="0"
     showguides="false"
     inkscape:lockguides="true">
    <inkscape:grid
       type="xygrid"
       id="grid850" />
  </sodipodi:namedview>
  <defs
     id="defs5455" />
  <metadata
     id="metadata5458">
    <rdf:RDF>
      <cc:Work
         rdf:about="">
        <dc:format>image/svg+xml</dc:format>
        <dc:type
           rdf:resource="http://purl.org/dc/dcmitype/StillImage" />
      </cc:Work>
    </rdf:RDF>
  </metadata>
  <g
     inkscape:label="Capa 1"
     inkscape:groupmode="layer"
     id="layer1"
     transform="translate(-384.57143,-483.798)">
    <g
       transform="matrix(0.74351172,0,0,0.74285356,332.49565,-244.90835)"
       id="g4" />
    <path
       inkscape:connector-curvature="0"
       id="fill"
       d="m 387.57143,492.79224 v 44.91363 c 0.10878,1.50841 1,2.99424 3.90646,2.99424 h 49.82407 c 3.26947,0 4.38407,-0.49807 4.26947,-3.99232 v -35.9309 c -1,-1.99616 -8,0 -8,-5.98849 -12,-0.99808 -34,0.99808 -33.92879,-4.9904 h -12.07366 c -1.99755,0 -3.99755,0.99808 -3.99755,2.99424 z"
       style="color:#1e92ff;fill:#4e5a7e;fill-opacity:0.3;fill-rule:nonzero;stroke:none;stroke-width:10.5015"
       class="ColorScheme-ButtonFocus"
       sodipodi:nodetypes="cccccccccc" />
    <path
       d="m 442.63027,498.29216 h -3.19931 v -1.17875 c 0,-2.04712 -0.9001,-3.05611 -1.65528,-3.54256 -0.80983,-0.52128 -1.60505,-0.54788 -1.75698,-0.54788 h -28.10856 c -0.60198,0 -1.16772,-0.63339 -1.76652,-1.30415 -0.76217,-0.85382 -1.62604,-1.82101 -2.93742,-1.82101 h -12.54362 c -2.33226,0 -4.09115,1.75196 -4.09115,4.07525 v 43.74969 c 0,2.24728 1.83517,4.07525 4.09115,4.07525 h 51.96769 c 2.25599,0 4.09116,-1.82797 4.09116,-4.07525 v -35.35534 c 0,-2.24728 -1.83517,-4.07525 -4.09116,-4.07525 z m 2.18416,39.43059 c 0,1.19965 -0.97957,2.17507 -2.18416,2.17507 h -51.96769 c -1.20458,0 -2.18415,-0.97542 -2.18415,-2.17507 v -43.74969 c 0,-1.28009 0.8982,-2.17508 2.18415,-2.17508 h 12.54362 c 0.45577,0 0.9694,0.57513 1.51289,1.18382 0.77233,0.86457 1.73346,1.94072 3.19105,1.94072 h 28.09711 c 0.28796,0.008 1.1048,0.133 1.40483,1.24017 h -43.76115 c -2.43151,0.05 -3.70284,1.31683 -3.70284,3.8504 l 0.11188,34.83659 h 1.15945 c 0,0 -0.2406,0.002 9.7e-4,0.002 0.37504,0 0.96716,0.0732 1.52019,-0.35815 0.99355,-0.77654 1.0355,-1.783 1.02661,-2.05853 l -0.005,-28.62177 c 0,-3.80036 0,-3.80036 3.814,-3.80036 l 45.05482,0.17925 c 1.20457,0.005 2.18415,0.97605 2.18415,2.17507 v 35.35534 z"
       id="path2-3-3-3"
       sodipodi:nodetypes="scscsscssssssssscsssssscsccccccsccccsscc"
       style="fill:#f62459;fill-opacity:1;stroke-width:0.634529" />
    <path
       style="color:#232629;fill:#ff0000;fill-opacity:0.6;stroke:none;stroke-width:0.99904"
       d="m 433.07143,533.71355 c -1.2,-0.19962 -2.9,-0.89828 -3.9,-1.54703 -2.3,-1.49712 -3.80543,-3.16246 -4.73586,-5.24095 -0.3,-0.69866 -0.47801,-1.1977 -1,-2.99424 -0.1,-0.44914 -0.26963,-0.95243 -0.33223,-1.10927 -0.10559,-0.26455 -0.11023,-0.35379 -0.0642,-1.23618 0.0437,-0.79847 0.2,-1.99616 0.3,-2.09198 0.0148,-0.0232 0.0496,-0.0286 0.0774,-0.0122 0.094,0.0557 0.18092,-0.2018 0.26633,-0.78913 0.0468,-0.32178 0.12032,-0.65923 0.16339,-0.74988 0.0431,-0.0906 0.11603,-0.29074 0.16214,-0.44462 0.10611,-0.35418 0.25079,-0.62642 0.69807,-1.31351 0.19671,-0.30218 0.40119,-0.63131 0.45439,-0.7314 0.0626,-0.11775 0.131,-0.17544 0.1938,-0.16347 0.0605,0.0115 0.16035,-0.0649 0.26492,-0.20261 0.45476,-0.59907 2.59667,-2.36651 2.79488,-2.30626 0.0541,0.0165 0.28012,-0.0578 0.50227,-0.16493 0.40181,-0.19381 0.57886,-0.23864 0.57886,-0.14659 0,0.0266 -0.0581,0.0868 -0.12906,0.13397 -0.12457,0.0827 -0.12207,0.0841 0.0717,0.0392 0.11042,-0.0256 0.29638,-0.0621 0.41325,-0.0811 0.14439,-0.0234 0.2031,-0.058 0.18318,-0.10768 -0.0175,-0.0436 0.0241,-0.0868 0.10298,-0.1071 0.19746,-0.0506 0.50515,-0.0423 0.50515,0.0137 0,0.0672 -0.17593,0.135 -0.31548,0.12175 -0.0952,-0.009 -0.10006,-10e-4 -0.0287,0.0456 0.071,0.0467 0.0719,0.0567 0.005,0.0574 -0.0447,4.6e-4 -0.0665,0.0149 -0.0486,0.0321 0.018,0.0172 0.13758,-0.02 0.26578,-0.0826 0.12821,-0.0627 0.36302,-0.14059 0.5218,-0.17321 0.19546,-0.0401 0.2887,-0.0867 0.2887,-0.14423 0,-0.074 0.0908,-0.0802 0.70265,-0.0487 0.38647,0.02 0.96965,0.0779 1.29596,0.12894 0.59326,0.0927 0.59331,0.0927 0.8144,-0.0291 0.26518,-0.14619 0.69171,-0.16521 0.80379,-0.0358 0.041,0.0473 0.15387,0.12532 0.25081,0.17332 0.15814,0.0784 0.1686,0.0784 0.10176,10e-4 -0.12697,-0.14662 -8.7e-4,-0.14292 0.48939,0.0144 1.58057,0.50704 2.8691,1.41004 3.82523,2.68073 0.22674,0.30134 0.24047,0.4369 0.0257,0.25347 l -0.12292,-0.10497 0.0939,0.17584 c 0.0516,0.0967 0.0939,0.20539 0.0939,0.24151 0,0.0361 0.152,0.30315 0.33776,0.59335 0.41868,0.65408 0.5358,0.87444 0.50771,0.95517 -0.0121,0.0346 -0.19753,-0.19576 -0.41219,-0.51194 -0.21465,-0.31616 -0.5323,-0.74217 -0.70588,-0.94664 -0.25922,-0.30537 -0.32711,-0.3576 -0.38,-0.29233 -0.0354,0.0437 -0.12191,0.0873 -0.19222,0.0971 l -0.12782,0.0177 0.12645,0.23743 c 0.0695,0.1306 0.13567,0.21095 0.14695,0.17856 0.0604,-0.17345 0.34144,0.0546 0.46925,0.38066 0.0414,0.10576 0.15164,0.32356 0.24488,0.484 0.0932,0.16044 0.15777,0.30293 0.14343,0.31668 -0.0143,0.0138 -0.0994,-0.0302 -0.18889,-0.0977 l -0.1628,-0.12267 0.11103,0.18258 c 0.0611,0.10044 0.16333,0.22327 0.22724,0.27299 0.0797,0.0621 0.11784,0.16007 0.1214,0.31243 0.007,0.2813 0.17481,0.61363 0.2663,0.52599 0.14253,-0.13651 0.17184,-0.0512 0.13597,0.3959 -0.0264,0.3294 -0.0124,0.54651 0.0503,0.77699 0.0952,0.34992 0.0747,0.43629 -0.0645,0.27274 -0.0885,-0.104 -0.0894,-0.10393 -0.0498,0.004 0.085,0.23138 0.14846,0.57751 0.13081,0.71337 -0.0329,0.25352 -0.13232,0.14811 -0.16651,-0.17664 l -0.0334,-0.31696 -0.01,0.33731 c -0.005,0.18554 -0.0508,0.54403 -0.10107,0.79666 -0.0508,0.25518 -0.0766,0.56439 -0.058,0.69568 0.0349,0.24699 0.0102,0.25656 -0.20532,0.0797 -0.0877,-0.0721 -0.10283,-0.0575 -0.16308,0.15684 -0.0507,0.18034 -0.0503,0.28301 0.002,0.43405 0.0375,0.10881 0.0593,0.2564 0.0484,0.32795 -0.0251,0.16514 -0.16321,0.21663 -0.16321,0.0609 0,-0.19585 -0.0778,-0.12615 -0.31548,0.2827 -0.64188,1.10403 -1.65752,1.95846 -2.80702,2.36146 -0.67769,0.2376 -1.13223,0.32571 -1.89648,0.3676 l -0.68832,0.0377 0.34009,0.1005 c 0.27423,0.081 0.43527,0.0931 0.83171,0.0625 0.51938,-0.0402 1.12921,-0.14816 1.40573,-0.24885 0.11036,-0.0402 0.18489,-0.042 0.22303,-0.006 0.0899,0.0861 -0.7089,0.42479 -1.18309,0.50152 -0.80686,0.13058 -1.88692,-0.0106 -2.84033,-0.37109 -0.64687,-0.24463 -1.60679,-0.88174 -1.45969,-0.96881 0.0279,-0.0165 0.21049,0.0668 0.40583,0.1851 0.24969,0.15122 0.35516,0.19105 0.35516,0.13409 0,-0.10759 0.0369,-0.10244 0.2353,0.0328 0.17914,0.12219 0.73015,0.34906 1.127,0.46404 0.4326,0.12534 0.26487,-0.0266 -0.31548,-0.28574 -1.83497,-0.81938 -2.59673,-1.63895 -2.97638,-3.20218 -0.13922,-0.57324 0.01,-1.82993 0.26385,-2.22349 0.0644,-0.0997 0.117,-0.22239 0.117,-0.27256 0,-0.21773 0.37905,-0.79299 0.768,-1.16554 0.68537,-0.65648 1.39794,-0.92901 2.32295,-0.88845 0.44716,0.0197 0.63814,0.0573 1.01028,0.19922 0.4221,0.16102 0.95359,0.49808 0.79082,0.50154 -0.0383,8.1e-4 -0.20605,-0.053 -0.37284,-0.11957 -0.25354,-0.1012 -0.41611,-0.12147 -0.99158,-0.12362 -0.80809,-0.003 -1.20306,0.1068 -1.77816,0.49438 -0.81534,0.54949 -1.26873,1.1824 -1.4293,1.99523 -0.10774,0.54541 -0.11104,0.69653 -0.027,1.23754 0.0484,0.31174 0.0828,0.40322 0.1434,0.38097 0.0509,-0.0187 0.0797,0.009 0.0797,0.0756 0,0.19322 0.43892,0.97698 0.74332,1.32734 0.73267,0.84334 1.91783,1.3815 3.04236,1.3815 0.58366,0 1.05546,-0.1073 1.48975,-0.33881 0.1744,-0.093 0.39453,-0.20664 0.48917,-0.25259 0.33393,-0.16213 0.5411,-0.34731 0.78331,-0.70018 0.13465,-0.19616 0.28103,-0.35667 0.32529,-0.35667 0.0654,0 0.0626,0.0284 -0.0151,0.15109 -0.25603,0.40473 0.34484,-0.33116 0.656,-0.8034 l 0.34852,-0.52893 -0.038,-0.34746 c -0.0365,-0.33387 -0.0312,-0.35425 0.13555,-0.52194 0.16062,-0.16147 0.17505,-0.20928 0.19356,-0.64096 0.0166,-0.38636 0.005,-0.46657 -0.066,-0.46701 -0.0662,-3.8e-4 -0.0946,-0.10214 -0.1231,-0.44006 -0.0377,-0.44722 -0.41787,-1.95209 -0.50638,-2.00449 -0.0267,-0.0158 -0.10085,-0.16052 -0.16473,-0.32156 -0.2156,-0.5435 -0.59376,-1.06611 -1.18339,-1.63545 -0.84842,-0.81919 -1.91715,-1.45177 -2.92667,-1.73227 -0.85872,-0.2386 -2.31691,-0.15199 -3.35555,0.19929 -0.50691,0.17144 -1.00636,0.39845 -1.09064,0.49572 -0.0382,0.0441 -0.0937,0.066 -0.1232,0.0485 -0.0311,-0.0184 -0.0225,-0.0677 0.0204,-0.11716 0.19134,-0.22084 -0.4436,0.18335 -0.85236,0.54258 -0.24712,0.21717 -0.45832,0.40147 -0.46933,0.40955 -0.011,0.008 0.0371,3.8e-4 0.10689,-0.0171 0.11615,-0.029 0.12107,-0.0214 0.0581,0.0914 -0.0404,0.0723 -0.25066,0.20221 -0.50841,0.31419 -0.43307,0.18816 -0.71317,0.39495 -0.93571,0.69083 -0.0888,0.11814 -0.094,0.14358 -0.0237,0.11775 0.0493,-0.0182 0.0897,-0.007 0.0897,0.0252 0,0.15691 -0.14884,0.33208 -0.36931,0.43469 -0.48847,0.2273 -1.34656,1.44149 -1.80621,2.55579 -0.20484,0.49654 -0.20159,0.4793 -0.0902,0.4793 0.11739,0 0.10922,0.1277 -0.052,0.81366 -0.23489,0.9992 -0.23517,0.96723 0.0206,2.37295 0.31167,1.71274 0.49375,2.28488 0.83995,2.6394 0.0812,0.0831 0.16015,0.26007 0.19534,0.4378 0.042,0.21221 0.11256,0.35226 0.24458,0.48556 0.12036,0.12151 0.1605,0.19604 0.11426,0.21219 -0.0907,0.0316 0.19328,0.43726 0.45238,0.64609 0.13035,0.10504 0.22695,0.14036 0.33159,0.12119 0.22935,-0.042 0.46286,0.0845 0.82167,0.4452 0.37288,0.3748 0.41024,0.47555 0.16348,0.44087 -0.15916,-0.0224 -0.1628,-0.0183 -0.0845,0.0963 0.0451,0.0659 0.21123,0.22418 0.3693,0.35184 0.22201,0.17932 0.27919,0.25689 0.25132,0.34101 -0.0401,0.12095 0.0742,0.23378 0.33283,0.32849 0.16035,0.0587 0.21202,0.18535 0.0913,0.22388 -0.0365,0.0117 0.18933,0.23433 0.50189,0.49482 0.35215,0.29347 0.58903,0.45433 0.62279,0.42291 0.0892,-0.0829 0.20349,-0.0577 0.20554,0.0454 0.002,0.1125 0.10347,0.23069 0.46767,0.54598 0.23015,0.19923 0.2876,0.2243 0.42867,0.18709 0.12918,-0.0341 0.21042,-0.0122 0.39235,0.10559 0.36297,0.23502 0.58306,0.32884 0.77151,0.32884 0.18543,0 0.21183,0.051 0.11555,0.22337 -0.051,0.0912 -0.0401,0.10628 0.0771,0.10628 0.075,0 0.28648,0.0494 0.46987,0.10988 0.41698,0.13742 0.59092,0.14676 0.48641,0.0262 -0.15438,-0.17817 0.009,-0.12949 0.56093,0.16677 0.77073,0.41399 1.16062,0.46128 2.69539,0.32696 0.22723,-0.0199 0.30114,-0.008 0.30114,0.0473 0,0.0477 -0.19717,0.11936 -0.55926,0.20326 -0.47599,0.11029 -0.73005,0.13163 -1.70645,0.14332 -0.76939,0.009 -1.29494,-0.0109 -1.59582,-0.0609 z m -0.78462,-8.23623 c 0,-0.0117 -0.071,-0.0626 -0.15774,-0.11315 l -0.15774,-0.092 0.13542,0.11314 c 0.13214,0.11041 0.18006,0.13489 0.18006,0.092 z m 7.89748,-5.75802 c -0.0183,-0.0438 -0.0319,-0.0308 -0.0347,0.0332 -0.003,0.0579 0.0111,0.0903 0.0301,0.0721 0.0191,-0.0183 0.0211,-0.0657 0.004,-0.1053 z m -13.01677,-5.7622 c 0.0714,-0.0871 0.0693,-0.0891 -0.0217,-0.0208 -0.0552,0.0415 -0.10038,0.0847 -0.10038,0.0961 0,0.0452 0.0471,0.0161 0.12204,-0.0754 z m 0.65232,-0.5082 c 0.0571,-0.0605 0.0909,-0.10989 0.0751,-0.10989 -0.0158,0 -0.0754,0.0494 -0.13249,0.10989 -0.0571,0.0605 -0.0909,0.10988 -0.0751,0.10988 0.0158,0 0.0754,-0.0494 0.1325,-0.10988 z m 0.72202,-0.38623 c 0.18908,-0.0613 0.29652,-0.0722 0.33639,-0.0339 0.0399,0.0382 0.18783,0.0156 0.46321,-0.071 0.22254,-0.0699 0.39439,-0.13684 0.38189,-0.14882 -0.0125,-0.012 -0.19574,0.0335 -0.40718,0.10116 -0.29041,0.0929 -0.39492,0.1067 -0.42731,0.0565 -0.0547,-0.0848 -0.57666,0.0824 -0.801,0.25661 l -0.1533,0.11905 0.16474,-0.0947 c 0.0906,-0.0521 0.28976,-0.13528 0.44256,-0.18482 z m 1.65366,-0.13946 c 0.16658,-0.0474 0.29293,-0.0957 0.28079,-0.10731 -0.0268,-0.0257 -0.62019,0.13711 -0.62019,0.17013 0,0.0332 0.005,0.0324 0.3394,-0.0628 z m 0.95119,-0.29952 0.22945,-0.0401 -0.20076,-0.005 c -0.11042,-0.003 -0.26529,0.033 -0.34416,0.0793 -0.0928,0.0546 -0.10295,0.0705 -0.0287,0.045 0.0631,-0.0216 0.21796,-0.0573 0.34415,-0.0793 z m 0.45558,-0.10369 c 0.0177,-0.0273 -0.0195,-0.0368 -0.0827,-0.0211 -0.13394,0.0335 -0.15087,0.0709 -0.0321,0.0709 0.0455,0 0.0971,-0.0225 0.1148,-0.0498 z m 1.85196,0.0166 c -0.0191,-0.0183 -0.0685,-0.0202 -0.10994,-0.004 -0.0458,0.0176 -0.0322,0.0305 0.0347,0.0332 0.0605,0.002 0.0943,-0.0106 0.0753,-0.0289 z m -0.34296,-0.0596 c -0.0552,-0.0138 -0.14555,-0.0138 -0.20076,0 -0.0552,0.0138 -0.01,0.0252 0.10038,0.0252 0.11042,0 0.15559,-0.0113 0.10038,-0.0252 z m -0.57208,-0.057 c -0.11747,-0.0118 -0.32397,-0.012 -0.45888,-3.6e-4 -0.13491,0.0116 -0.0388,0.0213 0.21358,0.0215 0.25239,2e-4 0.36277,-0.009 0.2453,-0.0211 z m -0.74839,-0.0482 c -0.0191,-0.0183 -0.0685,-0.0203 -0.10994,-0.004 -0.0458,0.0176 -0.0322,0.0305 0.0347,0.0332 0.0605,0.002 0.0943,-0.0106 0.0753,-0.0288 z m -0.38827,13.20554 c -0.58427,-0.40098 -0.80075,-0.60838 -0.80075,-0.76719 0,-0.0842 0.0199,-0.15318 0.0442,-0.15318 0.0827,0 1.05948,0.97659 1.03812,1.03797 -0.0124,0.0355 -0.13023,-0.0137 -0.28159,-0.1176 z m -0.30065,-1.01811 c -0.30344,-0.2937 -0.40067,-0.45168 -0.27803,-0.45168 0.0737,0 0.63832,0.61922 0.63832,0.70003 0,0.038 -0.007,0.0692 -0.0161,0.0692 -0.009,0 -0.16374,-0.14286 -0.34416,-0.3175 z m 3.35735,-1.2023 c -0.1602,-0.0619 -0.0602,-0.17665 0.20076,-0.23027 0.14985,-0.0308 0.38799,-0.10556 0.52919,-0.16613 0.1412,-0.0606 0.26693,-0.10036 0.27939,-0.0884 0.0125,0.012 -0.0515,0.13405 -0.14201,0.27135 -0.16367,0.24814 -0.1666,0.24963 -0.48015,0.24542 -0.17352,-0.002 -0.34775,-0.0167 -0.38718,-0.0319 z m 1.72079,-1.22898 c -0.15483,-0.0596 -0.16124,-0.16104 -0.032,-0.50651 0.11103,-0.29672 0.22619,-0.35526 0.16213,-0.0824 -0.0231,0.0982 -0.0538,0.24038 -0.0684,0.31591 l -0.0265,0.13737 0.11463,-0.12505 c 0.0678,-0.074 0.13062,-0.24766 0.15377,-0.42517 0.0215,-0.16509 0.062,-0.28659 0.09,-0.27004 0.071,0.042 0.0634,0.47641 -0.0133,0.76846 -0.0671,0.25511 -0.1274,0.28483 -0.38037,0.18743 z m -13.57381,-0.68956 c -0.0191,-0.0478 -0.0348,-0.23528 -0.0348,-0.41664 0,-0.23927 0.0197,-0.32349 0.0717,-0.30702 0.0852,0.0269 0.13517,0.81058 0.0517,0.81058 -0.0296,0 -0.0694,-0.0391 -0.0886,-0.0869 z m 13.79915,-1.28511 c -0.0891,-0.11547 -0.11659,-0.20663 -0.0913,-0.30309 0.0519,-0.19811 0.1877,-0.16994 0.28788,0.0597 0.15585,0.35729 0.0206,0.52473 -0.19657,0.24336 z M 422.59443,519.281 c -0.004,-0.31154 -3e-5,-0.32117 0.14395,-0.31591 0.12209,0.004 0.15157,0.0352 0.16565,0.17317 0.0159,0.15555 -0.16071,0.46407 -0.26563,0.46407 -0.0217,0 -0.0415,-0.1446 -0.044,-0.32133 z m 14.86831,-6.7541 c 0.008,-0.49167 0.0945,-0.65824 0.16189,-0.314 0.047,0.23987 -0.0128,0.66345 -0.10379,0.7358 -0.0495,0.0393 -0.0643,-0.0679 -0.0581,-0.4218 z m -7.53695,-0.29464 c 0.0231,-0.0663 0.81432,-0.37668 0.96028,-0.37668 0.17148,0 -0.13613,0.20126 -0.49092,0.32119 -0.39558,0.13374 -0.50092,0.14618 -0.46936,0.0555 z"
       class="ColorScheme-Text"
       id="path12-6" />
  </g>
</svg>
