<?xml version="1.0" encoding="UTF-8" standalone="no"?>
<svg
   width="64"
   version="1.1"
   height="64"
   id="svg15"
   sodipodi:docname="folder-Github.svg"
   inkscape:version="1.1.2 (0a00cf5339, 2022-02-04)"
   xmlns:inkscape="http://www.inkscape.org/namespaces/inkscape"
   xmlns:sodipodi="http://sodipodi.sourceforge.net/DTD/sodipodi-0.dtd"
   xmlns:xlink="http://www.w3.org/1999/xlink"
   xmlns="http://www.w3.org/2000/svg"
   xmlns:svg="http://www.w3.org/2000/svg"
   xmlns:rdf="http://www.w3.org/1999/02/22-rdf-syntax-ns#"
   xmlns:cc="http://creativecommons.org/ns#"
   xmlns:dc="http://purl.org/dc/elements/1.1/">
  <sodipodi:namedview
     pagecolor="#ffffff"
     bordercolor="#666666"
     borderopacity="1"
     objecttolerance="10"
     gridtolerance="10"
     guidetolerance="10"
     inkscape:pageopacity="0"
     inkscape:pageshadow="2"
     inkscape:window-width="1920"
     inkscape:window-height="1007"
     id="namedview17"
     showgrid="true"
     inkscape:zoom="9.8125"
     inkscape:cx="27.770701"
     inkscape:cy="32"
     inkscape:window-x="0"
     inkscape:window-y="0"
     inkscape:window-maximized="1"
     inkscape:current-layer="layer1"
     inkscape:document-rotation="0"
     inkscape:pagecheckerboard="0">
    <inkscape:grid
       type="xygrid"
       id="grid850" />
  </sodipodi:namedview>
  <defs
     id="defs5455">
    <linearGradient
       inkscape:collect="always"
       id="linearGradient1228">
      <stop
         style="stop-color:#aa87de;stop-opacity:1"
         offset="0"
         id="stop1224" />
      <stop
         style="stop-color:#00d4aa;stop-opacity:1"
         offset="1"
         id="stop1226" />
    </linearGradient>
    <linearGradient
       inkscape:collect="always"
       xlink:href="#linearGradient991"
       id="linearGradient3483"
       gradientUnits="userSpaceOnUse"
       gradientTransform="matrix(1.0016646,0,0,1,-0.64349,-0.6)"
       x1="386.57144"
       y1="516.39801"
       x2="446.62146"
       y2="516.39801" />
    <linearGradient
       inkscape:collect="always"
       id="linearGradient991">
      <stop
         style="stop-color:#cccccc;stop-opacity:1"
         offset="0"
         id="stop987" />
      <stop
         style="stop-color:#cccccc;stop-opacity:1"
         offset="0.03132199"
         id="stop1929" />
      <stop
         style="stop-color:#0069a6;stop-opacity:1"
         offset="0.05527586"
         id="stop1263" />
      <stop
         style="stop-color:#0069a6;stop-opacity:1"
         offset="0.10902679"
         id="stop1027" />
      <stop
         style="stop-color:#cccccc;stop-opacity:1"
         offset="1"
         id="stop989" />
    </linearGradient>
    <linearGradient
       inkscape:collect="always"
       xlink:href="#linearGradient1228"
       id="linearGradient1046"
       gradientUnits="userSpaceOnUse"
       x1="415.57143"
       y1="522.49343"
       x2="439.56206"
       y2="522.49343" />
  </defs>
  <metadata
     id="metadata5458">
    <rdf:RDF>
      <cc:Work
         rdf:about="">
        <dc:format>image/svg+xml</dc:format>
        <dc:type
           rdf:resource="http://purl.org/dc/dcmitype/StillImage" />
      </cc:Work>
    </rdf:RDF>
  </metadata>
  <g
     inkscape:label="Capa 1"
     inkscape:groupmode="layer"
     id="layer1"
     transform="translate(-384.57143,-483.798)">
    <path
       inkscape:connector-curvature="0"
       id="fill"
       d="m 387.57143,492.798 v 45 c 0.10878,1.51131 1,3 3.90646,3 h 49.82407 c 3.26947,0 4.38407,-0.49903 4.26947,-4 v -36 c -1,-2 -8,0 -8,-6 -12,-1 -34,1 -33.92879,-5 h -12.07366 c -1.99755,0 -3.99755,1 -3.99755,3 z"
       style="color:#1e92ff;fill:#4e5a7e;fill-opacity:0.30000001;fill-rule:nonzero;stroke:none;stroke-width:10.5116"
       class="ColorScheme-ButtonFocus"
       sodipodi:nodetypes="cccccccccc" />
    <path
       d="m 442.63027,498.20849 h -3.19931 v -1.18101 c 0,-2.05106 -0.9001,-3.06199 -1.65528,-3.54937 -0.80983,-0.52229 -1.60505,-0.54894 -1.75698,-0.54894 h -28.10856 c -0.60198,0 -1.16772,-0.63461 -1.76652,-1.30666 -0.76217,-0.85546 -1.62604,-1.82451 -2.93742,-1.82451 h -12.54362 c -2.33226,0 -4.09115,1.75533 -4.09115,4.08309 v 43.83382 c 0,2.2516 1.83517,4.08309 4.09115,4.08309 h 51.96769 c 2.25599,0 4.09116,-1.83149 4.09116,-4.08309 v -35.42333 c 0,-2.2516 -1.83517,-4.08309 -4.09116,-4.08309 z m 2.18416,39.50642 c 0,1.20196 -0.97957,2.17926 -2.18416,2.17926 h -51.96769 c -1.20458,0 -2.18415,-0.9773 -2.18415,-2.17926 v -43.83382 c 0,-1.28255 0.8982,-2.17926 2.18415,-2.17926 h 12.54362 c 0.45577,0 0.9694,0.57623 1.51289,1.18609 0.77233,0.86624 1.73346,1.94445 3.19105,1.94445 h 28.09711 c 0.28796,0.008 1.1048,0.13326 1.40483,1.24256 h -43.76115 c -2.43151,0.0501 -3.70284,1.31936 -3.70284,3.8578 l 0.11188,34.90359 h 1.15945 c 0,0 -0.2406,0.002 9.7e-4,0.002 0.37504,0 0.96716,0.0733 1.52019,-0.35884 0.99355,-0.77803 1.0355,-1.78643 1.02661,-2.06249 l -0.005,-28.67681 c 0,-3.80767 0,-3.80767 3.814,-3.80767 l 45.05482,0.1796 c 1.20457,0.005 2.18415,0.97793 2.18415,2.17925 v 35.42333 z"
       id="path2-3-3-2"
       sodipodi:nodetypes="scscsscssssssssscsssssscsccccccsccccsscc"
       style="fill:url(#linearGradient3483);fill-opacity:1;stroke-width:0.635139" />
    <path
       class="st0"
       d="m 439.56206,522.79331 c 0,5.32293 -3.44865,9.82117 -8.24678,11.39555 h -7.49707 c -4.79813,-1.57438 -8.24678,-6.07262 -8.24678,-11.39555 0,-6.6349 5.36041,-11.99531 11.99531,-11.99531 6.63491,0 11.99532,5.36041 11.99532,11.99531 z"
       id="path4-7"
       style="fill:url(#linearGradient1046);fill-opacity:1;stroke-width:0.374854" />
    <path
       class="st2"
       d="m 432.06499,527.66641 c 1.12456,-0.37485 2.99883,-1.49941 2.99883,-4.8731 0,-1.31198 -0.33737,-2.51151 -1.08708,-3.48613 0.82468,-1.98673 -0.075,-3.26123 -0.41234,-3.26123 -0.29988,0 -1.57438,0.22491 -2.73643,1.16205 -0.93713,-0.2624 -2.02421,-0.41234 -3.26123,-0.41234 -1.23701,0 -2.32409,0.14994 -3.26122,0.41234 -1.16205,-0.93714 -2.43655,-1.16205 -2.73643,-1.16205 -0.33737,0 -1.23702,1.2745 -0.41234,3.26123 -0.74971,0.97462 -1.08708,2.17415 -1.08708,3.48613 0,3.37369 1.87427,4.49825 2.99883,4.8731 0.89965,0.29988 1.87427,0.48731 2.24912,0.56228 -0.22491,0.22491 -0.59976,0.82468 -0.71222,1.64936 -0.29988,0.22491 -0.74971,0.41234 -1.34947,0.41234 -1.12456,0 -1.68684,-0.74971 -2.24912,-1.49942 -0.56228,-0.74971 -1.31199,-1.12456 -1.68684,-1.12456 -0.37486,0 -0.74971,0.18743 -0.37486,0.56228 0.37486,0.37485 0.86217,0.075 1.87427,1.87427 0.74971,1.34947 1.68684,1.31199 2.43655,1.31199 0.67473,0 1.31199,-0.37486 1.31199,-0.37486 h 5.6228 l 0.37485,-0.7497 c 0,-1.04959 -0.48731,-1.7993 -0.7497,-2.0617 0.37485,-0.075 1.34947,-0.2624 2.24912,-0.56228 z"
       id="path8-1"
       style="fill:#f2f2f2;fill-opacity:1;stroke-width:0.374854" />
    <path
       class="st3"
       d="m 418.94511,528.22869 c -0.22491,-0.22491 -0.18742,-0.37485 -0.0375,-0.44982 0.67473,0.67473 1.5369,1.19953 2.549,1.57438 0.44983,0.5248 0.97462,0.93714 1.7993,0.93714 0.37485,0 0.71222,-0.11246 1.0121,-0.22492 1.04959,0.14994 2.17415,0.22492 3.29871,0.22492 1.04959,0 2.0617,-0.0375 2.99883,-0.18743 0,0.075 0,0.11245 0,0.18743 v 2.99882 l 0.86217,0.86217 c -2.51152,0.86216 -5.21047,0.86216 -7.72199,0 l 0.86217,-0.86217 v -1.79929 c -0.29989,0.11245 -0.82468,0.29988 -1.31199,0.29988 -0.74971,0 -1.87427,-0.14994 -2.62398,-1.49941 -0.7497,-1.38696 -1.12456,-1.64936 -1.42444,-1.83679 -0.075,-0.075 -0.18743,-0.14994 -0.2624,-0.22491 z"
       id="path10-7"
       style="clip-rule:evenodd;fill:#f2f2f2;fill-opacity:1;fill-rule:evenodd;stroke-width:0.374854" />
  </g>
</svg>
