<?xml version="1.0" encoding="UTF-8" standalone="no"?>
<svg
   width="64"
   version="1.1"
   height="64"
   id="svg15"
   sodipodi:docname="folder-trash.svg"
   inkscape:version="1.1.2 (0a00cf5339, 2022-02-04)"
   xmlns:inkscape="http://www.inkscape.org/namespaces/inkscape"
   xmlns:sodipodi="http://sodipodi.sourceforge.net/DTD/sodipodi-0.dtd"
   xmlns:xlink="http://www.w3.org/1999/xlink"
   xmlns="http://www.w3.org/2000/svg"
   xmlns:svg="http://www.w3.org/2000/svg"
   xmlns:rdf="http://www.w3.org/1999/02/22-rdf-syntax-ns#"
   xmlns:cc="http://creativecommons.org/ns#"
   xmlns:dc="http://purl.org/dc/elements/1.1/">
  <sodipodi:namedview
     pagecolor="#ffffff"
     bordercolor="#666666"
     borderopacity="1"
     objecttolerance="10"
     gridtolerance="10"
     guidetolerance="10"
     inkscape:pageopacity="0"
     inkscape:pageshadow="2"
     inkscape:window-width="1920"
     inkscape:window-height="1003"
     id="namedview17"
     showgrid="true"
     inkscape:zoom="9.8124999"
     inkscape:cx="25.019109"
     inkscape:cy="37.503185"
     inkscape:window-x="0"
     inkscape:window-y="0"
     inkscape:window-maximized="1"
     inkscape:current-layer="layer1"
     inkscape:document-rotation="0"
     inkscape:pagecheckerboard="0">
    <inkscape:grid
       type="xygrid"
       id="grid850" />
  </sodipodi:namedview>
  <defs
     id="defs5455">
    <linearGradient
       inkscape:collect="always"
       id="linearGradient917">
      <stop
         style="stop-color:#00d455;stop-opacity:1"
         offset="0"
         id="stop913" />
      <stop
         style="stop-color:#00d4aa;stop-opacity:1"
         offset="1"
         id="stop915" />
    </linearGradient>
    <linearGradient
       inkscape:collect="always"
       xlink:href="#linearGradient917"
       id="linearGradient1177"
       gradientUnits="userSpaceOnUse"
       x1="417.07143"
       y1="522.33021"
       x2="440.68861"
       y2="522.33021"
       gradientTransform="translate(-1.2,1.00003)" />
  </defs>
  <metadata
     id="metadata5458">
    <rdf:RDF>
      <cc:Work
         rdf:about="">
        <dc:format>image/svg+xml</dc:format>
        <dc:type
           rdf:resource="http://purl.org/dc/dcmitype/StillImage" />
      </cc:Work>
    </rdf:RDF>
  </metadata>
  <g
     inkscape:label="Capa 1"
     inkscape:groupmode="layer"
     id="layer1"
     transform="translate(-384.57143,-483.798)">
    <g
       transform="matrix(0.74351172,0,0,0.74285356,332.49565,-244.90835)"
       id="g4" />
    <path
       inkscape:connector-curvature="0"
       id="fill"
       d="m 387.57143,492.798 v 45 c 0.10878,1.51131 1,3 3.90646,3 h 49.82407 c 3.26947,0 4.38407,-0.49903 4.26947,-4 v -36 c -1,-2 -8,0 -8,-6 -12,-1 -34,1 -33.92879,-5 h -12.07366 c -1.99755,0 -3.99755,1 -3.99755,3 z"
       style="color:#1e92ff;fill:#4e5a7e;fill-opacity:0.30000001;fill-rule:nonzero;stroke:none;stroke-width:10.5116"
       class="ColorScheme-ButtonFocus"
       sodipodi:nodetypes="cccccccccc" />
    <path
       d="m 442.63027,498.20849 h -3.19931 v -1.18101 c 0,-2.05106 -0.9001,-3.06199 -1.65528,-3.54937 -0.80983,-0.52229 -1.60505,-0.54894 -1.75698,-0.54894 h -28.10856 c -0.60198,0 -1.16772,-0.63461 -1.76652,-1.30666 -0.76217,-0.85546 -1.62604,-1.82451 -2.93742,-1.82451 h -12.54362 c -2.33226,0 -4.09115,1.75533 -4.09115,4.08309 v 43.83382 c 0,2.2516 1.83517,4.08309 4.09115,4.08309 h 51.96769 c 2.25599,0 4.09116,-1.83149 4.09116,-4.08309 v -35.42333 c 0,-2.2516 -1.83517,-4.08309 -4.09116,-4.08309 z m 2.18416,39.50642 c 0,1.20196 -0.97957,2.17926 -2.18416,2.17926 h -51.96769 c -1.20458,0 -2.18415,-0.9773 -2.18415,-2.17926 v -43.83382 c 0,-1.28255 0.8982,-2.17926 2.18415,-2.17926 h 12.54362 c 0.45577,0 0.9694,0.57623 1.51289,1.18609 0.77233,0.86624 1.73346,1.94445 3.19105,1.94445 h 28.09711 c 0.28796,0.008 1.1048,0.13326 1.40483,1.24256 h -43.76115 c -2.43151,0.0501 -3.70284,1.31936 -3.70284,3.8578 l 0.11188,34.90359 h 1.15945 c 0,0 -0.2406,0.002 9.7e-4,0.002 0.37504,0 0.96716,0.0733 1.52019,-0.35884 0.99355,-0.77803 1.0355,-1.78643 1.02661,-2.06249 l -0.005,-28.67681 c 0,-3.80767 0,-3.80767 3.814,-3.80767 l 45.05482,0.1796 c 1.20457,0.005 2.18415,0.97793 2.18415,2.17925 v 35.42333 z"
       id="path2-3-3-7"
       sodipodi:nodetypes="scscsscssssssssscsssssscsccccccsccccsscc"
       style="fill:#3bad7e;fill-opacity:1;stroke-width:0.635139" />
    <path
       style="color:#232629;fill:url(#linearGradient1177);fill-opacity:1;stroke:none"
       d="m 425.68979,511.79803 c 0.60456,0.25196 1.10902,0.70761 1.48632,1.36133 l 2.69336,4.68359 -1.68554,0.95508 5.46289,0.0781 2.66992,-4.78711 -1.66016,0.98438 -1.53711,-2.61915 c -0.25273,-0.42852 -0.68025,-0.65625 -1.23437,-0.65625 z m -1.4336,0.22656 c -0.95613,0 -1.73886,0.45334 -2.21679,1.28516 l -2.29102,3.95312 4.80859,2.79493 2.97266,-5.13672 -0.85742,-1.43555 c -0.57857,-0.98084 -1.38396,-1.46094 -2.41602,-1.46094 z m 12.58789,6.89844 -4.80859,2.74414 2.9707,5.13867 h 1.66211 c 0.52735,0 1.05721,-0.12753 1.43555,-0.33008 0.80479,-0.45271 1.38476,-1.40969 1.38476,-2.3164 0,-0.43633 -0.12625,-0.88016 -0.35351,-1.28321 z m -15.48242,1.16016 -5.49023,0.10351 1.6875,0.95508 -1.51172,2.64453 c -0.10064,0.17604 -0.17578,0.45243 -0.17578,0.67969 0,0.227 0.0749,0.47877 0.17578,0.6543 l 3.14844,5.4121 c -0.0247,-0.17552 -0.0254,-0.30079 -0.0254,-0.40039 0,-0.42877 0.20142,-1.1103 0.45313,-1.5625 h -0.002 l 2.69531,-4.6582 1.71289,0.98242 z m 9.9668,5.36132 -2.81836,4.70899 2.81836,4.70898 v -1.93945 h 2.94726 c 0.52864,0 0.98072,-0.25194 1.23243,-0.67969 l 3.12304,-5.4375 c -0.52838,0.40201 -1.1575,0.60352 -1.91211,0.60352 h -5.39062 z m -10.32227,1.91602 -0.80469,1.43359 c -0.2517,0.42775 -0.42773,1.10868 -0.42773,1.52891 0,1.41791 1.18209,2.60195 2.61719,2.60195 h 4.58398 v -5.56445 z"
       class="ColorScheme-Text"
       id="path12-5" />
  </g>
</svg>
