<?xml version="1.0" encoding="UTF-8" standalone="no"?>
<svg
   width="64"
   version="1.1"
   height="64"
   id="svg15"
   sodipodi:docname="folder-sign.svg"
   inkscape:version="1.1.2 (0a00cf5339, 2022-02-04)"
   xmlns:inkscape="http://www.inkscape.org/namespaces/inkscape"
   xmlns:sodipodi="http://sodipodi.sourceforge.net/DTD/sodipodi-0.dtd"
   xmlns:xlink="http://www.w3.org/1999/xlink"
   xmlns="http://www.w3.org/2000/svg"
   xmlns:svg="http://www.w3.org/2000/svg"
   xmlns:rdf="http://www.w3.org/1999/02/22-rdf-syntax-ns#"
   xmlns:cc="http://creativecommons.org/ns#"
   xmlns:dc="http://purl.org/dc/elements/1.1/">
  <sodipodi:namedview
     pagecolor="#ffffff"
     bordercolor="#666666"
     borderopacity="1"
     objecttolerance="10"
     gridtolerance="10"
     guidetolerance="10"
     inkscape:pageopacity="0"
     inkscape:pageshadow="2"
     inkscape:window-width="1920"
     inkscape:window-height="1003"
     id="namedview17"
     showgrid="true"
     inkscape:zoom="6.9384852"
     inkscape:cx="25.293705"
     inkscape:cy="33.72494"
     inkscape:window-x="0"
     inkscape:window-y="0"
     inkscape:window-maximized="1"
     inkscape:current-layer="layer1"
     inkscape:document-rotation="0"
     inkscape:pagecheckerboard="0"
     inkscape:lockguides="true">
    <inkscape:grid
       type="xygrid"
       id="grid850" />
  </sodipodi:namedview>
  <defs
     id="defs5455">
    <linearGradient
       inkscape:collect="always"
       id="linearGradient994">
      <stop
         style="stop-color:#56ddff;stop-opacity:1"
         offset="0"
         id="stop990" />
      <stop
         style="stop-color:#263740;stop-opacity:1"
         offset="0"
         id="stop1610" />
      <stop
         style="stop-color:#f0f0f0;stop-opacity:1"
         offset="0"
         id="stop1224" />
      <stop
         style="stop-color:#f0f0f0;stop-opacity:1"
         offset="1"
         id="stop992" />
    </linearGradient>
    <linearGradient
       inkscape:collect="always"
       xlink:href="#linearGradient991"
       id="linearGradient3483"
       gradientUnits="userSpaceOnUse"
       gradientTransform="matrix(1.0016646,0,0,1,-0.64349,-0.6)"
       x1="386.57144"
       y1="516.39801"
       x2="446.62146"
       y2="516.39801" />
    <linearGradient
       inkscape:collect="always"
       id="linearGradient991">
      <stop
         style="stop-color:#cccccc;stop-opacity:1"
         offset="0"
         id="stop987" />
      <stop
         style="stop-color:#cccccc;stop-opacity:1"
         offset="0.03132199"
         id="stop1929" />
      <stop
         style="stop-color:#0069a6;stop-opacity:1"
         offset="0.05527586"
         id="stop1263" />
      <stop
         style="stop-color:#0069a6;stop-opacity:1"
         offset="0.10902679"
         id="stop1027" />
      <stop
         style="stop-color:#cccccc;stop-opacity:1"
         offset="1"
         id="stop989" />
    </linearGradient>
    <linearGradient
       inkscape:collect="always"
       xlink:href="#linearGradient994"
       id="linearGradient1045"
       gradientUnits="userSpaceOnUse"
       gradientTransform="translate(-0.4089038,1.7990748)"
       x1="425.88034"
       y1="527.9989"
       x2="416.88034"
       y2="510.99893" />
  </defs>
  <metadata
     id="metadata5458">
    <rdf:RDF>
      <cc:Work
         rdf:about="">
        <dc:format>image/svg+xml</dc:format>
        <dc:type
           rdf:resource="http://purl.org/dc/dcmitype/StillImage" />
      </cc:Work>
    </rdf:RDF>
  </metadata>
  <g
     inkscape:label="Capa 1"
     inkscape:groupmode="layer"
     id="layer1"
     transform="translate(-384.57143,-483.798)">
    <g
       transform="matrix(0.74351172,0,0,0.74285356,332.49565,-244.90835)"
       id="g4" />
    <path
       inkscape:connector-curvature="0"
       id="fill"
       d="m 387.57143,492.798 v 45 c 0.10878,1.51131 1,3 3.90646,3 h 49.82407 c 3.26947,0 4.38407,-0.49903 4.26947,-4 v -36 c -1,-2 -8,0 -8,-6 -12,-1 -34,1 -33.92879,-5 h -12.07366 c -1.99755,0 -3.99755,1 -3.99755,3 z"
       style="color:#1e92ff;fill:#4e5a7e;fill-opacity:0.30000001;fill-rule:nonzero;stroke:none;stroke-width:10.5116"
       class="ColorScheme-ButtonFocus"
       sodipodi:nodetypes="cccccccccc" />
    <path
       d="m 442.63027,498.20849 h -3.19931 v -1.18101 c 0,-2.05106 -0.9001,-3.06199 -1.65528,-3.54937 -0.80983,-0.52229 -1.60505,-0.54894 -1.75698,-0.54894 h -28.10856 c -0.60198,0 -1.16772,-0.63461 -1.76652,-1.30666 -0.76217,-0.85546 -1.62604,-1.82451 -2.93742,-1.82451 h -12.54362 c -2.33226,0 -4.09115,1.75533 -4.09115,4.08309 v 43.83382 c 0,2.2516 1.83517,4.08309 4.09115,4.08309 h 51.96769 c 2.25599,0 4.09116,-1.83149 4.09116,-4.08309 v -35.42333 c 0,-2.2516 -1.83517,-4.08309 -4.09116,-4.08309 z m 2.18416,39.50642 c 0,1.20196 -0.97957,2.17926 -2.18416,2.17926 h -51.96769 c -1.20458,0 -2.18415,-0.9773 -2.18415,-2.17926 v -43.83382 c 0,-1.28255 0.8982,-2.17926 2.18415,-2.17926 h 12.54362 c 0.45577,0 0.9694,0.57623 1.51289,1.18609 0.77233,0.86624 1.73346,1.94445 3.19105,1.94445 h 28.09711 c 0.28796,0.008 1.1048,0.13326 1.40483,1.24256 h -43.76115 c -2.43151,0.0501 -3.70284,1.31936 -3.70284,3.8578 l 0.11188,34.90359 h 1.15945 c 0,0 -0.2406,0.002 9.7e-4,0.002 0.37504,0 0.96716,0.0733 1.52019,-0.35884 0.99355,-0.77803 1.0355,-1.78643 1.02661,-2.06249 l -0.005,-28.67681 c 0,-3.80767 0,-3.80767 3.814,-3.80767 l 45.05482,0.1796 c 1.20457,0.005 2.18415,0.97793 2.18415,2.17925 v 35.42333 z"
       id="path2-3-3-2"
       sodipodi:nodetypes="scscsscssssssssscsssssscsccccccsccccsscc"
       style="fill:url(#linearGradient3483);fill-opacity:1;stroke-width:0.635139" />
    <path
       style="color:#232629;fill:url(#linearGradient1045);fill-opacity:1;stroke:none;stroke-width:0.85402"
       d="m 438.59875,512.9981 c -0.1492,-0.002 -0.30228,0.0258 -0.44661,0.0839 -0.0775,0.0338 -0.41189,0.29048 -0.74087,0.57071 l -0.59898,0.51457 -0.21703,-0.0948 c -0.30377,-0.12784 -0.59689,-0.15614 -0.87027,-0.0769 -0.18897,0.0545 -0.63182,0.41946 -3.53744,2.88752 -1.83371,1.55587 -3.32481,2.84105 -3.3204,2.86095 0.003,0.0157 0.74827,0.38793 1.64874,0.81984 l 1.64661,0.79062 2.16631,-1.84375 c 1.19226,-1.01434 2.18423,-1.83519 2.20801,-1.82378 0.0776,0.0358 0.21755,0.83312 0.18993,1.08922 -0.0114,0.13967 -0.0929,0.39067 -0.17741,0.55719 -0.15074,0.29777 -0.16716,0.31522 -2.85292,2.60772 -1.48537,1.26733 -2.72215,2.34374 -2.74436,2.38629 -0.0635,0.11733 0.008,0.33675 0.14607,0.46259 0.23233,0.21213 0.80699,0.2792 1.13324,0.12801 0.22539,-0.10506 5.54501,-4.67945 5.71417,-4.91795 0.4941,-0.68042 0.59642,-1.55177 0.28383,-2.40905 -0.12351,-0.34026 -0.28502,-0.66734 -0.44244,-0.89987 -0.0458,-0.0632 0.0309,-0.14475 0.52799,-0.57197 0.47017,-0.4078 0.57797,-0.52223 0.58644,-0.62788 0.0184,-0.22476 -0.0888,-0.34983 -0.43408,-0.52125 l -0.3214,-0.16003 0.63863,-0.54781 c 0.5235,-0.45332 0.63666,-0.57161 0.64486,-0.6773 0.0238,-0.33671 -0.38297,-0.58341 -0.83062,-0.58656 z m -10.75842,7.59895 c -0.0153,0.002 -1.96952,1.65988 -4.34508,3.68078 -3.82073,3.25435 -4.3642,3.73609 -4.71661,4.15013 -0.70003,0.82425 -1.46191,2.08083 -1.96802,3.22886 -0.32798,0.73632 -0.34448,0.66968 0.11272,0.51322 1.41025,-0.48653 3.25241,-1.27637 4.32421,-1.85706 1.0481,-0.56851 1.22656,-0.71305 5.6662,-4.48998 l 4.26997,-3.63688 -1.65917,-0.79591 c -0.9125,-0.43763 -1.66853,-0.79458 -1.68422,-0.79316 z m 0.48002,8.42277 c -0.20968,-0.009 -0.42559,-0.004 -0.56554,0.0135 v 0.002 c -0.66357,0.0894 -1.40246,0.45675 -1.75937,0.87995 -0.0964,0.10982 -0.24926,0.35878 -0.34432,0.5465 -0.0897,0.1912 -0.17305,0.35056 -0.1795,0.35469 -0.0516,0.0405 -1.32027,0.23539 -2.06613,0.31723 -1.75347,0.19586 -2.23212,0.26896 -2.40418,0.37058 -0.33762,0.19939 -0.0764,0.40012 0.40281,0.3107 0.12711,-0.025 0.66913,-0.0933 1.19167,-0.15066 0.52357,-0.0562 1.31982,-0.16308 1.77182,-0.228 0.45304,-0.0694 0.83645,-0.11492 0.85567,-0.10262 0.019,0.0118 -0.0567,0.24424 -0.17735,0.51721 l -0.21706,0.48931 -0.48001,0.1346 c -0.26183,0.0737 -0.63717,0.19934 -0.83479,0.28535 -0.59949,0.25256 -0.71526,0.56978 -0.29428,0.7732 0.22972,0.10994 0.86724,0.10592 1.26259,-0.005 0.35052,-0.10168 0.54771,-0.24393 0.82229,-0.61455 0.14638,-0.19179 0.26195,-0.29304 0.35061,-0.30528 0.0706,-0.0122 0.70357,-0.0938 1.40457,-0.188 0.70203,-0.0894 1.33895,-0.1757 1.42123,-0.188 0.13356,-0.0203 0.14699,-0.0115 0.10825,0.0653 -0.0258,0.0501 -0.14116,0.19239 -0.26295,0.31864 -0.12075,0.12625 -0.21705,0.27653 -0.21705,0.33731 0,0.12629 0.16696,0.25275 0.30052,0.21998 0.0516,-0.0122 0.12028,-0.0244 0.15234,-0.0244 0.0324,0 0.1731,-0.0654 0.31305,-0.14664 0.26181,-0.1509 0.89326,-0.88893 0.89326,-1.04388 0,-0.0771 0.096,-0.0967 0.15233,-0.0347 0.019,0.0203 0.16425,0.0563 0.32348,0.0813 0.22334,0.0357 0.288,0.0643 0.288,0.12928 0,0.12627 0.32616,0.31047 0.61356,0.3466 0.22333,0.025 0.51044,-0.005 0.81601,-0.0853 0.10769,-0.0298 0.11464,-0.0203 0.0777,0.0853 -0.0258,0.0655 -0.21134,0.27352 -0.40905,0.46532 -0.42099,0.3993 -0.93078,1.03462 -1.06431,1.31583 -0.10769,0.24025 -0.0639,0.41993 0.13353,0.50524 0.17844,0.0737 0.47119,0.0392 0.624,-0.0669 0.13359,-0.0935 0.86193,-1.0747 1.12906,-1.52244 0.19129,-0.31397 0.27993,-0.39976 0.71376,-0.69324 0.35688,-0.24024 0.47344,-0.29749 0.39652,-0.204 -0.12716,0.17548 -0.12118,0.30937 0.0186,0.39062 0.29918,0.17543 0.73309,0.005 1.11028,-0.43592 0.2233,-0.2608 0.3896,-0.33746 1.21879,-0.58656 l 0.432,-0.12665 -0.0437,0.15065 c -0.0258,0.0812 -0.17277,0.31393 -0.32557,0.51321 -0.30026,0.40341 -0.35584,0.66011 -0.1774,0.87987 0.12074,0.15085 0.24816,0.15575 0.83479,0.0259 0.81637,-0.17539 1.88119,-0.57982 2.15795,-0.81185 0.37611,-0.32632 0.49163,-0.63942 0.26297,-0.74528 -0.23616,-0.10984 -0.36968,-0.0652 -0.66993,0.21598 -0.40178,0.38298 -0.89871,0.68105 -1.37742,0.83192 -0.22331,0.0736 -0.42112,0.12156 -0.44035,0.10933 -0.0258,-0.0155 0.48403,-0.89222 0.75758,-1.30387 0.0579,-0.0853 0.10409,-0.19162 0.10409,-0.23592 0,-0.11399 -0.22404,-0.244 -0.4153,-0.244 -0.0897,0 -0.51189,0.10936 -0.93289,0.24799 -0.87407,0.27715 -0.81603,0.30151 -0.59271,-0.21995 0.13356,-0.32153 0.0895,-0.40751 -0.21703,-0.42793 -0.29386,-0.0203 -0.40801,0.0412 -0.67619,0.34659 -0.17204,0.20751 -0.40083,0.37914 -0.84106,0.63991 -0.5802,0.34199 -0.60624,0.35399 -0.74086,0.29326 -0.20411,-0.0935 -0.31918,-0.0811 -0.81603,0.0774 -0.48511,0.15493 -0.64517,0.17545 -0.76591,0.0812 -0.10285,-0.0771 0.0581,-0.11802 0.94538,-0.22793 0.86125,-0.10585 0.96838,-0.1353 0.96838,-0.24931 0,-0.18365 -0.23641,-0.35786 -0.65742,-0.47597 -0.72766,-0.20747 -0.80852,-0.2205 -1.12697,-0.16798 -0.34405,0.0562 -0.85508,0.3707 -0.92452,0.56666 -0.0706,0.20405 -0.288,0.1425 -0.288,-0.0813 0,-0.0935 -0.17918,-0.32969 -0.28174,-0.37062 -0.21691,-0.0935 -0.56659,0.1105 -0.83482,0.4852 l -0.21079,0.28937 -0.47163,0.0653 c -0.61227,0.0853 -2.39134,0.31321 -2.62752,0.34262 -0.15278,0.0155 -0.17814,0.009 -0.14608,-0.0503 0.0258,-0.0405 0.10183,-0.21897 0.17737,-0.4026 0.1977,-0.50509 0.25625,-0.57104 0.54264,-0.63591 0.34407,-0.0769 1.50602,-0.39564 1.80522,-0.4932 0.13999,-0.0453 0.42605,-0.18315 0.63656,-0.30532 0.64432,-0.383 0.74539,-0.73779 0.28592,-0.99858 -0.12719,-0.0694 -0.29357,-0.14215 -0.36943,-0.16261 -0.1175,-0.0298 -0.32039,-0.0492 -0.5301,-0.0554 z m -0.64278,0.47593 c 0.0884,-0.004 0.19336,-0.002 0.32557,0.005 0.33764,0.0118 0.47254,0.0327 0.56768,0.0973 0.12713,0.0812 0.12682,0.085 0.0123,0.23997 -0.0774,0.0976 -0.25457,0.21231 -0.47792,0.31057 -0.38892,0.1714 -1.60812,0.48463 -1.64659,0.42798 -0.0516,-0.0935 0.33952,-0.65237 0.58848,-0.83188 0.24846,-0.18019 0.36462,-0.23841 0.6303,-0.24796 z m -3.27446,3.41153 c 0.0488,0.002 0.0497,0.0303 0.009,0.08 -0.0829,0.10168 -0.30078,0.17525 -0.42156,0.14659 -0.13995,-0.0358 -0.10262,-0.0849 0.12105,-0.15864 0.14689,-0.0473 0.24356,-0.0706 0.29221,-0.0684 z"
       class="ColorScheme-Text"
       id="path12-3" />
  </g>
</svg>
