<?xml version="1.0" encoding="UTF-8" standalone="no"?>
<svg
   width="64"
   version="1.1"
   height="64"
   id="svg17"
   sodipodi:docname="folder-tar.svg"
   inkscape:version="1.1.2 (0a00cf5339, 2022-02-04)"
   xmlns:inkscape="http://www.inkscape.org/namespaces/inkscape"
   xmlns:sodipodi="http://sodipodi.sourceforge.net/DTD/sodipodi-0.dtd"
   xmlns:xlink="http://www.w3.org/1999/xlink"
   xmlns="http://www.w3.org/2000/svg"
   xmlns:svg="http://www.w3.org/2000/svg"
   xmlns:rdf="http://www.w3.org/1999/02/22-rdf-syntax-ns#"
   xmlns:cc="http://creativecommons.org/ns#"
   xmlns:dc="http://purl.org/dc/elements/1.1/">
  <sodipodi:namedview
     pagecolor="#ffffff"
     bordercolor="#666666"
     borderopacity="1"
     objecttolerance="10"
     gridtolerance="10"
     guidetolerance="10"
     inkscape:pageopacity="0"
     inkscape:pageshadow="2"
     inkscape:window-width="1920"
     inkscape:window-height="1003"
     id="namedview19"
     showgrid="true"
     inkscape:zoom="9.8125"
     inkscape:cx="31.643312"
     inkscape:cy="29.55414"
     inkscape:window-x="0"
     inkscape:window-y="0"
     inkscape:window-maximized="1"
     inkscape:current-layer="layer1"
     inkscape:document-rotation="0"
     inkscape:pagecheckerboard="0">
    <inkscape:grid
       type="xygrid"
       id="grid864" />
  </sodipodi:namedview>
  <defs
     id="defs5455">
    <linearGradient
       inkscape:collect="always"
       id="linearGradient1050">
      <stop
         style="stop-color:#00e5b8;stop-opacity:1"
         offset="0"
         id="stop1046" />
      <stop
         style="stop-color:#00c6f8;stop-opacity:1"
         offset="1"
         id="stop1048" />
    </linearGradient>
    <linearGradient
       inkscape:collect="always"
       xlink:href="#linearGradient991"
       id="linearGradient3483"
       gradientUnits="userSpaceOnUse"
       gradientTransform="matrix(1.0016646,0,0,1,-0.64349,-0.6)"
       x1="386.57144"
       y1="516.39801"
       x2="446.62146"
       y2="516.39801" />
    <linearGradient
       inkscape:collect="always"
       id="linearGradient991">
      <stop
         style="stop-color:#cccccc;stop-opacity:1"
         offset="0"
         id="stop987" />
      <stop
         style="stop-color:#cccccc;stop-opacity:1"
         offset="0.03132199"
         id="stop1929" />
      <stop
         style="stop-color:#0069a6;stop-opacity:1"
         offset="0.05527586"
         id="stop1263" />
      <stop
         style="stop-color:#0069a6;stop-opacity:1"
         offset="0.10902679"
         id="stop1027" />
      <stop
         style="stop-color:#cccccc;stop-opacity:1"
         offset="1"
         id="stop989" />
    </linearGradient>
    <linearGradient
       inkscape:collect="always"
       xlink:href="#linearGradient1050"
       id="linearGradient1207"
       gradientUnits="userSpaceOnUse"
       gradientTransform="translate(5.8000003e-7)"
       x1="421.57143"
       y1="522.798"
       x2="439.57143"
       y2="522.798" />
  </defs>
  <metadata
     id="metadata5458">
    <rdf:RDF>
      <cc:Work
         rdf:about="">
        <dc:format>image/svg+xml</dc:format>
        <dc:type
           rdf:resource="http://purl.org/dc/dcmitype/StillImage" />
      </cc:Work>
    </rdf:RDF>
  </metadata>
  <g
     inkscape:label="Capa 1"
     inkscape:groupmode="layer"
     id="layer1"
     transform="translate(-384.57143,-483.798)">
    <path
       inkscape:connector-curvature="0"
       id="fill"
       d="m 387.57143,492.798 v 45 c 0.10878,1.51131 1,3 3.90646,3 h 49.82407 c 3.26947,0 4.38407,-0.49903 4.26947,-4 v -36 c -1,-2 -8,0 -8,-6 -12,-1 -34,1 -33.92879,-5 h -12.07366 c -1.99755,0 -3.99755,1 -3.99755,3 z"
       style="color:#1e92ff;fill:#4e5a7e;fill-opacity:0.30000001;fill-rule:nonzero;stroke:none;stroke-width:10.5116"
       class="ColorScheme-ButtonFocus"
       sodipodi:nodetypes="cccccccccc" />
    <path
       d="m 442.63027,498.20849 h -3.19931 v -1.18101 c 0,-2.05106 -0.9001,-3.06199 -1.65528,-3.54937 -0.80983,-0.52229 -1.60505,-0.54894 -1.75698,-0.54894 h -28.10856 c -0.60198,0 -1.16772,-0.63461 -1.76652,-1.30666 -0.76217,-0.85546 -1.62604,-1.82451 -2.93742,-1.82451 h -12.54362 c -2.33226,0 -4.09115,1.75533 -4.09115,4.08309 v 43.83382 c 0,2.2516 1.83517,4.08309 4.09115,4.08309 h 51.96769 c 2.25599,0 4.09116,-1.83149 4.09116,-4.08309 v -35.42333 c 0,-2.2516 -1.83517,-4.08309 -4.09116,-4.08309 z m 2.18416,39.50642 c 0,1.20196 -0.97957,2.17926 -2.18416,2.17926 h -51.96769 c -1.20458,0 -2.18415,-0.9773 -2.18415,-2.17926 v -43.83382 c 0,-1.28255 0.8982,-2.17926 2.18415,-2.17926 h 12.54362 c 0.45577,0 0.9694,0.57623 1.51289,1.18609 0.77233,0.86624 1.73346,1.94445 3.19105,1.94445 h 28.09711 c 0.28796,0.008 1.1048,0.13326 1.40483,1.24256 h -43.76115 c -2.43151,0.0501 -3.70284,1.31936 -3.70284,3.8578 l 0.11188,34.90359 h 1.15945 c 0,0 -0.2406,0.002 9.7e-4,0.002 0.37504,0 0.96716,0.0733 1.52019,-0.35884 0.99355,-0.77803 1.0355,-1.78643 1.02661,-2.06249 l -0.005,-28.67681 c 0,-3.80767 0,-3.80767 3.814,-3.80767 l 45.05482,0.1796 c 1.20457,0.005 2.18415,0.97793 2.18415,2.17925 v 35.42333 z"
       id="path2-3-3-2"
       sodipodi:nodetypes="scscsscssssssssscsssssscsccccccsccccsscc"
       style="fill:url(#linearGradient3483);fill-opacity:1;stroke-width:0.635139" />
    <path
       id="Book-7"
       class="st0"
       d="m 435.07143,518.298 z m -12,-3 c -0.825,0 -1.5,-0.675 -1.5,-1.5 v 19.5 h 14.25 c 2.0625,0 3.75,-1.6875 3.75,-3.75 v -17.25 h -1.5 v 3 z"
       sodipodi:nodetypes="cccccsccsscccs"
       style="clip-rule:evenodd;fill:url(#linearGradient1207);fill-opacity:1;fill-rule:evenodd;stroke-width:0.375" />
    <path
       id="Book-s-5"
       class="st1"
       d="m 424.57143,512.298 c -0.825,0 -1.5,0.675 -1.5,1.5 0,0.825 0.675,1.5 1.5,1.5 h -1.5 c -0.825,0 -1.5,-0.675 -1.5,-1.5 0,-1.65 1.35,-3 3,-3 h 15 v 1.5 z m 13.5,3 v 15 c 0,1.65 -1.35,3 -3,3 h -12 v 1.5 h 12 c 2.475,0 4.5,-2.025 4.5,-4.5 v -15 z"
       style="fill:#f1f1f1;fill-opacity:1;stroke-width:0.375" />
    <g
       id="g10-3-3"
       transform="matrix(0.60200437,0,0,0.52247409,423.31119,517.59789)"
       style="fill:#1a1a1a;fill-opacity:1">
      <path
         d="M 2.56,0.383 C 1.928,-0.162 0.956,-0.107 0.391,0.504 -0.174,1.117 -0.119,2.057 0.512,2.606 0.574,2.66 5.356,6.906 7.918,14.217 8.792,13.709 9.809,13.41 10.894,13.395 8.116,5.279 2.846,0.629 2.56,0.383 Z"
         id="path2-3-6-5"
         style="fill:#1a1a1a;fill-opacity:1" />
      <path
         d="m 21.585,0.504 c -0.563,-0.611 -1.539,-0.67 -2.173,-0.121 -0.286,0.246 -5.555,4.896 -8.332,13.012 1.085,0.016 2.1,0.316 2.973,0.822 C 16.615,6.906 21.399,2.66 21.46,2.605 22.093,2.059 22.15,1.119 21.585,0.504 Z"
         id="path4-7-6"
         style="fill:#1a1a1a;fill-opacity:1" />
      <path
         d="m 10.399,17.904 h 1.175 c 1.336,0 2.445,1.225 2.584,2.51 l 0.637,5.732 C 15.48,25.91 16,25.41 16,24.664 V 19.182 C 16,16.532 13.74,14.381 10.998,14.381 8.262,14.381 6,16.531 6,19.182 v 5.482 c 0,0.746 0.508,1.375 1.194,1.613 l 0.613,-5.863 c 0.142,-1.285 1.258,-2.51 2.592,-2.51 z"
         id="path6-5-2"
         style="fill:#1a1a1a;fill-opacity:1" />
      <path
         d="m 13.805,26.908 -0.668,-6.391 c -0.082,-0.773 -0.758,-1.613 -1.563,-1.613 h -1.175 c -0.805,0 -1.479,0.84 -1.563,1.613 l -0.668,6.266 c -0.084,0.771 0.175,1.606 0.711,2.183 0.538,0.578 1.302,0.94 2.104,0.94 0.808,0 1.567,-0.314 2.106,-0.893 0.541,-0.575 0.799,-1.333 0.716,-2.105 z m -2.821,1.262 c -0.974,0 -1.764,-0.766 -1.764,-1.709 0,-0.943 0.79,-1.707 1.764,-1.707 0.977,0 1.766,0.764 1.766,1.707 0,0.943 -0.789,1.709 -1.766,1.709 z"
         id="path8-3-9"
         style="fill:#1a1a1a;fill-opacity:1" />
    </g>
  </g>
</svg>
