<?xml version="1.0" encoding="UTF-8" standalone="no"?>
<svg
   width="64"
   version="1.1"
   height="64"
   id="svg15"
   sodipodi:docname="folder-mac.svg"
   inkscape:version="1.1.2 (0a00cf5339, 2022-02-04)"
   xmlns:inkscape="http://www.inkscape.org/namespaces/inkscape"
   xmlns:sodipodi="http://sodipodi.sourceforge.net/DTD/sodipodi-0.dtd"
   xmlns:xlink="http://www.w3.org/1999/xlink"
   xmlns="http://www.w3.org/2000/svg"
   xmlns:svg="http://www.w3.org/2000/svg"
   xmlns:rdf="http://www.w3.org/1999/02/22-rdf-syntax-ns#"
   xmlns:cc="http://creativecommons.org/ns#"
   xmlns:dc="http://purl.org/dc/elements/1.1/">
  <sodipodi:namedview
     pagecolor="#ffffff"
     bordercolor="#666666"
     borderopacity="1"
     objecttolerance="10"
     gridtolerance="10"
     guidetolerance="10"
     inkscape:pageopacity="0"
     inkscape:pageshadow="2"
     inkscape:window-width="1920"
     inkscape:window-height="1003"
     id="namedview17"
     showgrid="true"
     inkscape:zoom="9.8124999"
     inkscape:cx="36.535032"
     inkscape:cy="37.503185"
     inkscape:window-x="0"
     inkscape:window-y="0"
     inkscape:window-maximized="1"
     inkscape:current-layer="layer1"
     inkscape:document-rotation="0"
     inkscape:pagecheckerboard="0">
    <inkscape:grid
       type="xygrid"
       id="grid850" />
  </sodipodi:namedview>
  <defs
     id="defs5455">
    <linearGradient
       inkscape:collect="always"
       id="linearGradient1050">
      <stop
         style="stop-color:#ff5555;stop-opacity:1"
         offset="0"
         id="stop1046" />
      <stop
         style="stop-color:#ffccaa;stop-opacity:1"
         offset="1"
         id="stop1048" />
    </linearGradient>
    <linearGradient
       inkscape:collect="always"
       xlink:href="#linearGradient991"
       id="linearGradient3483"
       gradientUnits="userSpaceOnUse"
       gradientTransform="matrix(1.0016646,0,0,1,-0.64349,-0.6)"
       x1="386.57144"
       y1="516.39801"
       x2="446.62146"
       y2="516.39801" />
    <linearGradient
       inkscape:collect="always"
       id="linearGradient991">
      <stop
         style="stop-color:#cccccc;stop-opacity:1"
         offset="0"
         id="stop987" />
      <stop
         style="stop-color:#cccccc;stop-opacity:1"
         offset="0.03132199"
         id="stop1929" />
      <stop
         style="stop-color:#0069a6;stop-opacity:1"
         offset="0.05527586"
         id="stop1263" />
      <stop
         style="stop-color:#0069a6;stop-opacity:1"
         offset="0.10902679"
         id="stop1027" />
      <stop
         style="stop-color:#cccccc;stop-opacity:1"
         offset="1"
         id="stop989" />
    </linearGradient>
    <linearGradient
       inkscape:collect="always"
       xlink:href="#linearGradient1050"
       id="linearGradient914-3"
       x1="5"
       y1="34.25"
       x2="54"
       y2="34.25"
       gradientUnits="userSpaceOnUse" />
    <linearGradient
       inkscape:collect="always"
       xlink:href="#linearGradient1050"
       id="linearGradient1065"
       gradientUnits="userSpaceOnUse"
       gradientTransform="translate(-1,1)"
       x1="419.57143"
       y1="521.798"
       x2="440.60893"
       y2="521.798" />
  </defs>
  <metadata
     id="metadata5458">
    <rdf:RDF>
      <cc:Work
         rdf:about="">
        <dc:format>image/svg+xml</dc:format>
        <dc:type
           rdf:resource="http://purl.org/dc/dcmitype/StillImage" />
      </cc:Work>
    </rdf:RDF>
  </metadata>
  <g
     inkscape:label="Capa 1"
     inkscape:groupmode="layer"
     id="layer1"
     transform="translate(-384.57143,-483.798)">
    <g
       transform="matrix(0.74351172,0,0,0.74285356,332.49565,-244.90835)"
       id="g4" />
    <path
       inkscape:connector-curvature="0"
       id="fill"
       d="m 387.57143,492.798 v 45 c 0.10878,1.51131 1,3 3.90646,3 h 49.82407 c 3.26947,0 4.38407,-0.49903 4.26947,-4 v -36 c -1,-2 -8,0 -8,-6 -12,-1 -34,1 -33.92879,-5 h -12.07366 c -1.99755,0 -3.99755,1 -3.99755,3 z"
       style="color:#1e92ff;fill:#4e5a7e;fill-opacity:0.30000001;fill-rule:nonzero;stroke:none;stroke-width:10.5116"
       class="ColorScheme-ButtonFocus"
       sodipodi:nodetypes="cccccccccc" />
    <path
       d="m 442.63027,498.20849 h -3.19931 v -1.18101 c 0,-2.05106 -0.9001,-3.06199 -1.65528,-3.54937 -0.80983,-0.52229 -1.60505,-0.54894 -1.75698,-0.54894 h -28.10856 c -0.60198,0 -1.16772,-0.63461 -1.76652,-1.30666 -0.76217,-0.85546 -1.62604,-1.82451 -2.93742,-1.82451 h -12.54362 c -2.33226,0 -4.09115,1.75533 -4.09115,4.08309 v 43.83382 c 0,2.2516 1.83517,4.08309 4.09115,4.08309 h 51.96769 c 2.25599,0 4.09116,-1.83149 4.09116,-4.08309 v -35.42333 c 0,-2.2516 -1.83517,-4.08309 -4.09116,-4.08309 z m 2.18416,39.50642 c 0,1.20196 -0.97957,2.17926 -2.18416,2.17926 h -51.96769 c -1.20458,0 -2.18415,-0.9773 -2.18415,-2.17926 v -43.83382 c 0,-1.28255 0.8982,-2.17926 2.18415,-2.17926 h 12.54362 c 0.45577,0 0.9694,0.57623 1.51289,1.18609 0.77233,0.86624 1.73346,1.94445 3.19105,1.94445 h 28.09711 c 0.28796,0.008 1.1048,0.13326 1.40483,1.24256 h -43.76115 c -2.43151,0.0501 -3.70284,1.31936 -3.70284,3.8578 l 0.11188,34.90359 h 1.15945 c 0,0 -0.2406,0.002 9.7e-4,0.002 0.37504,0 0.96716,0.0733 1.52019,-0.35884 0.99355,-0.77803 1.0355,-1.78643 1.02661,-2.06249 l -0.005,-28.67681 c 0,-3.80767 0,-3.80767 3.814,-3.80767 l 45.05482,0.1796 c 1.20457,0.005 2.18415,0.97793 2.18415,2.17925 v 35.42333 z"
       id="path2-3-3-2"
       sodipodi:nodetypes="scscsscssssssssscsssssscsccccccsccccsscc"
       style="fill:url(#linearGradient3483);fill-opacity:1;stroke-width:0.635139" />
    <polygon
       class="st0"
       points="48,49 10,49 5,36 12,19.5 54,19.5 "
       id="polygon4-5"
       transform="matrix(0.375,0,0,0.375,417.07143,510.798)"
       style="fill:url(#linearGradient914-3);fill-opacity:1" />
    <path
       class="st1"
       d="m 437.69643,517.923 c -1.425,-0.975 -2.925,-1.125 -3.525,-1.125 -1.1625,0 -2.1,0.375 -2.925,0.675 -0.675,0.225 -1.2375,0.45 -1.8,0.45 -0.5625,0 -1.0875,-0.225 -1.6875,-0.4875 -0.75,-0.3 -1.575,-0.6375 -2.5875,-0.6375 -1.2,0 -6.6,0.5625 -6.6,7.275 0,5.3625 4.4625,10.725 6.525,10.725 0.825,0 1.5375,-0.225 2.25,-0.4875 0.7125,-0.225 1.425,-0.4875 2.25,-0.4875 0.825,0 1.5375,0.225 2.25,0.4875 0.7125,0.2625 1.425,0.4875 2.25,0.4875 1.275,0 3.45,-2.1 4.9125,-5.025 0.1125,-0.2625 0.2625,-0.525 0.375,-0.7875 0.075,-0.1875 0.15,-0.375 0.225,-0.6 -1.9875,-0.825 -3,-2.6625 -3,-4.875 0,-1.3875 0.3375,-2.625 1.125,-3.6 0.3,-0.375 0.675,-0.7125 1.125,-0.975 -0.375,-0.375 -0.7875,-0.75 -1.1625,-1.0125 z m -2.625,5.625 c 0,2.0625 -2.025,3.825 -4.9875,4.6875 -1.0125,0.3375 -2.4375,0.5625 -4.0125,0.5625 -2.6625,0 -4.9125,-0.6 -5.4,-1.3875 -0.375,-1.0875 -0.6,-2.2125 -0.6,-3.3375 0,-2.8875 1.125,-4.2 2.175,-4.9125 1.1625,-0.75 2.475,-0.8625 2.9625,-0.8625 0.6,0 1.125,0.1875 1.8,0.45 0.075,0.0375 0.1125,0.0375 0.1875,0.075 0.525,0.225 1.3875,0.6 2.25,0.6 0.525,0 1.0125,-0.1125 1.425,-0.2625 0.3,-0.075 0.6,-0.225 0.9,-0.3375 0.075,-0.0375 0.1875,-0.075 0.2625,-0.075 0.7125,-0.2625 1.3875,-0.4875 2.1375,-0.4875 0.4125,0 1.425,0.1125 2.4,0.675 -1.0875,1.35 -1.5,3 -1.5,4.6125 z m -6,-7.5 c 0,-2.8875 2.325,-5.2125 5.2125,-5.25 0.0375,0.2625 0.0375,0.4875 0.0375,0.75 0,2.8875 -2.325,5.2125 -5.2125,5.25 -0.0375,-0.2625 -0.0375,-0.4875 -0.0375,-0.75 z"
       id="path6-3"
       style="clip-rule:evenodd;fill:url(#linearGradient1065);fill-opacity:1;fill-rule:evenodd;stroke-width:0.375" />
  </g>
</svg>
