<?xml version="1.0" encoding="UTF-8" standalone="no"?>
<svg
   width="64"
   version="1.1"
   height="64"
   id="svg15"
   sodipodi:docname="folder-build.svg"
   inkscape:version="1.1.2 (0a00cf5339, 2022-02-04)"
   xmlns:inkscape="http://www.inkscape.org/namespaces/inkscape"
   xmlns:sodipodi="http://sodipodi.sourceforge.net/DTD/sodipodi-0.dtd"
   xmlns:xlink="http://www.w3.org/1999/xlink"
   xmlns="http://www.w3.org/2000/svg"
   xmlns:svg="http://www.w3.org/2000/svg"
   xmlns:rdf="http://www.w3.org/1999/02/22-rdf-syntax-ns#"
   xmlns:cc="http://creativecommons.org/ns#"
   xmlns:dc="http://purl.org/dc/elements/1.1/">
  <sodipodi:namedview
     pagecolor="#ffffff"
     bordercolor="#666666"
     borderopacity="1"
     objecttolerance="10"
     gridtolerance="10"
     guidetolerance="10"
     inkscape:pageopacity="0"
     inkscape:pageshadow="2"
     inkscape:window-width="1920"
     inkscape:window-height="1003"
     id="namedview17"
     showgrid="true"
     inkscape:zoom="9.8124999"
     inkscape:cx="30.726115"
     inkscape:cy="34.547771"
     inkscape:window-x="0"
     inkscape:window-y="0"
     inkscape:window-maximized="1"
     inkscape:current-layer="layer1"
     inkscape:document-rotation="0"
     inkscape:pagecheckerboard="0">
    <inkscape:grid
       type="xygrid"
       id="grid850" />
  </sodipodi:namedview>
  <defs
     id="defs5455">
    <linearGradient
       inkscape:collect="always"
       id="linearGradient1154">
      <stop
         style="stop-color:#ffffff;stop-opacity:1"
         offset="0"
         id="stop1150" />
      <stop
         style="stop-color:#ff5555;stop-opacity:1"
         offset="0.06666645"
         id="stop1768" />
      <stop
         style="stop-color:#ffb380;stop-opacity:1"
         offset="1"
         id="stop1152" />
    </linearGradient>
    <linearGradient
       inkscape:collect="always"
       xlink:href="#linearGradient991"
       id="linearGradient3483"
       gradientUnits="userSpaceOnUse"
       gradientTransform="matrix(1.0016646,0,0,1,-0.64349,-0.6)"
       x1="386.57144"
       y1="516.39801"
       x2="446.62146"
       y2="516.39801" />
    <linearGradient
       inkscape:collect="always"
       id="linearGradient991">
      <stop
         style="stop-color:#cccccc;stop-opacity:1"
         offset="0"
         id="stop987" />
      <stop
         style="stop-color:#cccccc;stop-opacity:1"
         offset="0.03132199"
         id="stop1929" />
      <stop
         style="stop-color:#0069a6;stop-opacity:1"
         offset="0.05527586"
         id="stop1263" />
      <stop
         style="stop-color:#0069a6;stop-opacity:1"
         offset="0.10902679"
         id="stop1027" />
      <stop
         style="stop-color:#cccccc;stop-opacity:1"
         offset="1"
         id="stop989" />
    </linearGradient>
    <linearGradient
       inkscape:collect="always"
       xlink:href="#linearGradient1154"
       id="linearGradient1039"
       gradientUnits="userSpaceOnUse"
       gradientTransform="translate(-0.34961,1.03711)"
       x1="425.57144"
       y1="522.79797"
       x2="431.57144"
       y2="524.79797" />
  </defs>
  <metadata
     id="metadata5458">
    <rdf:RDF>
      <cc:Work
         rdf:about="">
        <dc:format>image/svg+xml</dc:format>
        <dc:type
           rdf:resource="http://purl.org/dc/dcmitype/StillImage" />
      </cc:Work>
    </rdf:RDF>
  </metadata>
  <g
     inkscape:label="Capa 1"
     inkscape:groupmode="layer"
     id="layer1"
     transform="translate(-384.57143,-483.798)">
    <g
       transform="matrix(0.74351172,0,0,0.74285356,332.49565,-244.90835)"
       id="g4" />
    <path
       inkscape:connector-curvature="0"
       id="fill"
       d="m 387.57143,492.798 v 45 c 0.10878,1.51131 1,3 3.90646,3 h 49.82407 c 3.26947,0 4.38407,-0.49903 4.26947,-4 v -36 c -1,-2 -8,0 -8,-6 -12,-1 -34,1 -33.92879,-5 h -12.07366 c -1.99755,0 -3.99755,1 -3.99755,3 z"
       style="color:#1e92ff;fill:#4e5a7e;fill-opacity:0.30000001;fill-rule:nonzero;stroke:none;stroke-width:10.5116"
       class="ColorScheme-ButtonFocus"
       sodipodi:nodetypes="cccccccccc" />
    <path
       d="m 442.63027,498.20849 h -3.19931 v -1.18101 c 0,-2.05106 -0.9001,-3.06199 -1.65528,-3.54937 -0.80983,-0.52229 -1.60505,-0.54894 -1.75698,-0.54894 h -28.10856 c -0.60198,0 -1.16772,-0.63461 -1.76652,-1.30666 -0.76217,-0.85546 -1.62604,-1.82451 -2.93742,-1.82451 h -12.54362 c -2.33226,0 -4.09115,1.75533 -4.09115,4.08309 v 43.83382 c 0,2.2516 1.83517,4.08309 4.09115,4.08309 h 51.96769 c 2.25599,0 4.09116,-1.83149 4.09116,-4.08309 v -35.42333 c 0,-2.2516 -1.83517,-4.08309 -4.09116,-4.08309 z m 2.18416,39.50642 c 0,1.20196 -0.97957,2.17926 -2.18416,2.17926 h -51.96769 c -1.20458,0 -2.18415,-0.9773 -2.18415,-2.17926 v -43.83382 c 0,-1.28255 0.8982,-2.17926 2.18415,-2.17926 h 12.54362 c 0.45577,0 0.9694,0.57623 1.51289,1.18609 0.77233,0.86624 1.73346,1.94445 3.19105,1.94445 h 28.09711 c 0.28796,0.008 1.1048,0.13326 1.40483,1.24256 h -43.76115 c -2.43151,0.0501 -3.70284,1.31936 -3.70284,3.8578 l 0.11188,34.90359 h 1.15945 c 0,0 -0.2406,0.002 9.7e-4,0.002 0.37504,0 0.96716,0.0733 1.52019,-0.35884 0.99355,-0.77803 1.0355,-1.78643 1.02661,-2.06249 l -0.005,-28.67681 c 0,-3.80767 0,-3.80767 3.814,-3.80767 l 45.05482,0.1796 c 1.20457,0.005 2.18415,0.97793 2.18415,2.17925 v 35.42333 z"
       id="path2-3-3-2"
       sodipodi:nodetypes="scscsscssssssssscsssssscsccccccsccccsscc"
       style="fill:url(#linearGradient3483);fill-opacity:1;stroke-width:0.635139" />
    <path
       style="color:#232629;fill:url(#linearGradient1039);fill-opacity:1;stroke:none"
       d="m 434.3683,511.798 -0.31054,1.06054 c -0.636,-0.053 -1.27672,0.0171 -1.88672,0.20508 l -0.5293,-0.96875 -1.75586,0.95899 0.5293,0.96875 c -0.489,0.412 -0.89336,0.91256 -1.19336,1.47656 l -1.05664,-0.30859 -0.5625,1.91796 1.06054,0.31055 c -0.053,0.636 0.0151,1.27867 0.20313,1.88867 l -0.96875,0.5293 0.95898,1.75586 0.96875,-0.53125 c 0.412,0.489 0.91452,0.89531 1.47852,1.19531 l -0.31055,1.05664 1.91992,0.5625 0.31055,-1.06054 c 0.636,0.053 1.27672,-0.0171 1.88672,-0.20508 l 0.53125,0.96875 1.75391,-0.95899 -0.5293,-0.96875 c 0.489,-0.412 0.89336,-0.91256 1.19336,-1.47656 l 1.05664,0.30859 0.5625,-1.91796 -1.06055,-0.31055 c 0.053,-0.636 -0.0151,-1.27867 -0.20312,-1.88867 l 0.96875,-0.5293 -0.95899,-1.75586 -0.96875,0.53125 c -0.412,-0.489 -0.91451,-0.89531 -1.47851,-1.19531 l 0.31054,-1.05664 z m -0.98828,2.04883 c 0.19847,-0.0129 0.39873,-0.0109 0.59766,0.006 0.26523,0.0223 0.52981,0.0705 0.78906,0.14648 0.998,0.293 1.84347,0.96314 2.35547,1.86914 0.532,0.94 0.66142,2.05675 0.35742,3.09375 -0.293,0.998 -0.96314,1.84347 -1.86914,2.35547 -0.94,0.532 -2.05675,0.66142 -3.09375,0.35742 -0.998,-0.293 -1.84542,-0.96314 -2.35742,-1.86914 -0.532,-0.94 -0.66142,-2.05675 -0.35742,-3.09375 0.293,-0.998 0.96314,-1.84347 1.86914,-2.35547 0.52875,-0.29925 1.11358,-0.47098 1.70898,-0.50976 z m -13.33008,2.92187 -1.99023,0.19531 0.10742,1.09961 c -0.61,0.188 -1.17783,0.49058 -1.67383,0.89258 l -0.85547,-0.70117 -1.26953,1.54492 0.85352,0.70117 c -0.3,0.565 -0.48669,1.18236 -0.55469,1.81836 l -1.0957,0.10742 0.19531,1.99024 1.09961,-0.10742 c 0.188,0.61 0.49058,1.17782 0.89258,1.67382 l -0.70117,0.85547 1.54492,1.26953 0.70117,-0.85351 c 0.565,0.3 1.18236,0.48669 1.81836,0.55469 l 0.10742,1.0957 1.99024,-0.19531 -0.10743,-1.09961 c 0.61,-0.188 1.17783,-0.49058 1.67383,-0.89258 l 0.85547,0.70117 1.26953,-1.54492 -0.85351,-0.70117 c 0.3,-0.565 0.48668,-1.18236 0.55468,-1.81836 l 1.09571,-0.10742 -0.19532,-1.99024 -1.09961,0.10742 c -0.188,-0.61 -0.49057,-1.17782 -0.89257,-1.67382 l 0.70117,-0.85547 -1.54492,-1.26953 -0.70118,0.85351 c -0.565,-0.3 -1.18235,-0.48669 -1.81835,-0.55469 z m -0.0273,2.08594 c 0.76604,0.0737 1.50083,0.36872 2.11133,0.85547 0.845,0.674 1.38133,1.66032 1.48633,2.73632 0.102,1.03601 -0.20452,2.07077 -0.85352,2.88477 -0.674,0.845 -1.66228,1.38133 -2.73828,1.48633 -1.036,0.102 -2.06881,-0.20452 -2.88281,-0.85352 -0.845,-0.674 -1.38133,-1.66228 -1.48633,-2.73828 -0.102,-1.036 0.20452,-2.06881 0.85352,-2.88281 0.674,-0.845 1.66033,-1.38133 2.73633,-1.48633 0.259,-0.0256 0.51809,-0.0265 0.77343,-0.002 z m 8.61719,3.98242 v 1.10547 c -0.626,0.128 -1.22091,0.37456 -1.75391,0.72656 l -0.78125,-0.78125 -1.41406,1.41406 0.78125,0.78125 c -0.353,0.533 -0.60147,1.12791 -0.73047,1.75391 h -1.10156 v 2 h 1.10547 c 0.128,0.626 0.37456,1.22091 0.72656,1.75391 l -0.78125,0.78125 1.41406,1.41406 0.78125,-0.78125 c 0.533,0.353 1.12791,0.60147 1.75391,0.73047 v 1.10156 h 2 v -1.10547 c 0.626,-0.128 1.2209,-0.37456 1.7539,-0.72656 l 0.78125,0.78125 1.41407,-1.41406 -0.78125,-0.78125 c 0.353,-0.533 0.60146,-1.12791 0.73046,-1.75391 h 1.10157 v -2 h -1.10547 c -0.128,-0.626 -0.37456,-1.22091 -0.72656,-1.75391 l 0.78125,-0.78125 -1.41407,-1.41406 -0.78125,0.78125 c -0.533,-0.353 -1.1279,-0.60147 -1.7539,-0.73047 v -1.10156 z m 1,2 c 1.041,0 2.04011,0.40586 2.78711,1.13086 0.775,0.753 1.21289,1.78814 1.21289,2.86914 0,1.041 -0.40586,2.04011 -1.13086,2.78711 -0.753,0.775 -1.78814,1.21289 -2.86914,1.21289 -1.041,0 -2.04011,-0.40586 -2.78711,-1.13086 -0.775,-0.753 -1.21289,-1.78814 -1.21289,-2.86914 0,-1.041 0.40586,-2.04011 1.13086,-2.78711 0.753,-0.775 1.78814,-1.21289 2.86914,-1.21289 z"
       class="ColorScheme-Text"
       id="path12-5" />
  </g>
</svg>
