<?xml version="1.0" encoding="UTF-8" standalone="no"?>
<svg
   width="64"
   version="1.1"
   height="64"
   id="svg15"
   sodipodi:docname="folder-design.svg"
   inkscape:version="1.1.2 (0a00cf5339, 2022-02-04)"
   xmlns:inkscape="http://www.inkscape.org/namespaces/inkscape"
   xmlns:sodipodi="http://sodipodi.sourceforge.net/DTD/sodipodi-0.dtd"
   xmlns:xlink="http://www.w3.org/1999/xlink"
   xmlns="http://www.w3.org/2000/svg"
   xmlns:svg="http://www.w3.org/2000/svg"
   xmlns:rdf="http://www.w3.org/1999/02/22-rdf-syntax-ns#"
   xmlns:cc="http://creativecommons.org/ns#"
   xmlns:dc="http://purl.org/dc/elements/1.1/">
  <sodipodi:namedview
     pagecolor="#ffffff"
     bordercolor="#666666"
     borderopacity="1"
     objecttolerance="10"
     gridtolerance="10"
     guidetolerance="10"
     inkscape:pageopacity="0"
     inkscape:pageshadow="2"
     inkscape:window-width="1920"
     inkscape:window-height="1003"
     id="namedview17"
     showgrid="true"
     inkscape:zoom="6.9384852"
     inkscape:cx="20.537624"
     inkscape:cy="39.057516"
     inkscape:window-x="0"
     inkscape:window-y="0"
     inkscape:window-maximized="1"
     inkscape:current-layer="layer1"
     inkscape:document-rotation="0"
     inkscape:pagecheckerboard="0"
     inkscape:lockguides="true">
    <inkscape:grid
       type="xygrid"
       id="grid850" />
  </sodipodi:namedview>
  <defs
     id="defs5455">
    <linearGradient
       inkscape:collect="always"
       id="linearGradient975">
      <stop
         style="stop-color:#263740;stop-opacity:1"
         offset="0"
         id="stop971" />
      <stop
         style="stop-color:#263740;stop-opacity:1"
         offset="0"
         id="stop1397" />
      <stop
         style="stop-color:#ffccaa;stop-opacity:1"
         offset="0"
         id="stop1527" />
      <stop
         style="stop-color:#ffdd55;stop-opacity:1"
         offset="1"
         id="stop973" />
    </linearGradient>
    <linearGradient
       inkscape:collect="always"
       xlink:href="#linearGradient991"
       id="linearGradient3483"
       gradientUnits="userSpaceOnUse"
       gradientTransform="matrix(1.0016646,0,0,1,-0.64349,-0.6)"
       x1="386.57144"
       y1="516.39801"
       x2="446.62146"
       y2="516.39801" />
    <linearGradient
       inkscape:collect="always"
       id="linearGradient991">
      <stop
         style="stop-color:#cccccc;stop-opacity:1"
         offset="0"
         id="stop987" />
      <stop
         style="stop-color:#cccccc;stop-opacity:1"
         offset="0.03132199"
         id="stop1929" />
      <stop
         style="stop-color:#0069a6;stop-opacity:1"
         offset="0.05527586"
         id="stop1263" />
      <stop
         style="stop-color:#0069a6;stop-opacity:1"
         offset="0.10902679"
         id="stop1027" />
      <stop
         style="stop-color:#cccccc;stop-opacity:1"
         offset="1"
         id="stop989" />
    </linearGradient>
    <linearGradient
       inkscape:collect="always"
       xlink:href="#linearGradient975"
       id="linearGradient1125"
       gradientUnits="userSpaceOnUse"
       gradientTransform="translate(0.19283,1)"
       x1="429.92029"
       y1="510.79843"
       x2="429.57144"
       y2="533.79797" />
  </defs>
  <metadata
     id="metadata5458">
    <rdf:RDF>
      <cc:Work
         rdf:about="">
        <dc:format>image/svg+xml</dc:format>
        <dc:type
           rdf:resource="http://purl.org/dc/dcmitype/StillImage" />
      </cc:Work>
    </rdf:RDF>
  </metadata>
  <g
     inkscape:label="Capa 1"
     inkscape:groupmode="layer"
     id="layer1"
     transform="translate(-384.57143,-483.798)">
    <g
       transform="matrix(0.74351172,0,0,0.74285356,332.49565,-244.90835)"
       id="g4" />
    <path
       inkscape:connector-curvature="0"
       id="fill"
       d="m 387.57143,492.798 v 45 c 0.10878,1.51131 1,3 3.90646,3 h 49.82407 c 3.26947,0 4.38407,-0.49903 4.26947,-4 v -36 c -1,-2 -8,0 -8,-6 -12,-1 -34,1 -33.92879,-5 h -12.07366 c -1.99755,0 -3.99755,1 -3.99755,3 z"
       style="color:#1e92ff;fill:#4e5a7e;fill-opacity:0.30000001;fill-rule:nonzero;stroke:none;stroke-width:10.5116"
       class="ColorScheme-ButtonFocus"
       sodipodi:nodetypes="cccccccccc" />
    <path
       d="m 442.63027,498.20849 h -3.19931 v -1.18101 c 0,-2.05106 -0.9001,-3.06199 -1.65528,-3.54937 -0.80983,-0.52229 -1.60505,-0.54894 -1.75698,-0.54894 h -28.10856 c -0.60198,0 -1.16772,-0.63461 -1.76652,-1.30666 -0.76217,-0.85546 -1.62604,-1.82451 -2.93742,-1.82451 h -12.54362 c -2.33226,0 -4.09115,1.75533 -4.09115,4.08309 v 43.83382 c 0,2.2516 1.83517,4.08309 4.09115,4.08309 h 51.96769 c 2.25599,0 4.09116,-1.83149 4.09116,-4.08309 v -35.42333 c 0,-2.2516 -1.83517,-4.08309 -4.09116,-4.08309 z m 2.18416,39.50642 c 0,1.20196 -0.97957,2.17926 -2.18416,2.17926 h -51.96769 c -1.20458,0 -2.18415,-0.9773 -2.18415,-2.17926 v -43.83382 c 0,-1.28255 0.8982,-2.17926 2.18415,-2.17926 h 12.54362 c 0.45577,0 0.9694,0.57623 1.51289,1.18609 0.77233,0.86624 1.73346,1.94445 3.19105,1.94445 h 28.09711 c 0.28796,0.008 1.1048,0.13326 1.40483,1.24256 h -43.76115 c -2.43151,0.0501 -3.70284,1.31936 -3.70284,3.8578 l 0.11188,34.90359 h 1.15945 c 0,0 -0.2406,0.002 9.7e-4,0.002 0.37504,0 0.96716,0.0733 1.52019,-0.35884 0.99355,-0.77803 1.0355,-1.78643 1.02661,-2.06249 l -0.005,-28.67681 c 0,-3.80767 0,-3.80767 3.814,-3.80767 l 45.05482,0.1796 c 1.20457,0.005 2.18415,0.97793 2.18415,2.17925 v 35.42333 z"
       id="path2-3-3-2"
       sodipodi:nodetypes="scscsscssssssssscsssssscsccccccsccccsscc"
       style="fill:url(#linearGradient3483);fill-opacity:1;stroke-width:0.635139" />
    <path
       style="color:#232629;fill:url(#linearGradient1125);fill-opacity:1;stroke:none;stroke-width:0.839479"
       d="m 430.11291,511.798 c -0.44249,0 -0.80475,0.33029 -0.80475,0.7395 v 0.67642 c -1.42587,0.3386 -2.45176,1.50812 -2.45176,2.91381 0,0.984 0.508,1.85971 1.3009,2.41084 0.0844,0.0922 0.13639,0.20891 0.13639,0.339 0,0.0379 4e-5,0.0749 -0.005,0.11038 l -3.5242,6.9077 h -1.45776 c -0.23787,0 -0.43306,0.17737 -0.43306,0.39734 v 0.002 c 0,0.21998 0.19519,0.39734 0.43306,0.39734 h 1.05198 l -2.72115,5.33412 c -0.17137,0.33825 -0.0862,0.72922 0.18243,0.98231 l -1.04856,1.96935 1.65724,-1.66031 c 0.43993,0.10644 0.91044,-0.0875 1.10994,-0.47775 l 3.13717,-6.14772 h 2.75695 v 0.52821 c 0,0.33588 0.29577,0.60704 0.66153,0.60704 h 0.0358 c 0.36576,0 0.66324,-0.27116 0.66324,-0.60704 v -0.52821 h 2.82004 l 3.13546,6.14772 c 0.19695,0.39265 0.67086,0.58419 1.10824,0.47775 l 1.65724,1.66031 -1.04515,-1.96935 c 0.26601,-0.25309 0.3521,-0.6417 0.18073,-0.98231 l -2.72115,-5.33412 h 0.98718 c 0.24043,0 0.43306,-0.17736 0.43306,-0.39734 0,-0.21998 -0.19263,-0.39658 -0.43306,-0.39892 h -1.39297 l -3.52249,-6.9077 c -0.005,-0.0355 -0.005,-0.0725 -0.005,-0.11038 0,-0.12773 0.0512,-0.24675 0.13299,-0.339 0.7929,-0.55113 1.30431,-1.42684 1.30431,-2.41084 0,-1.42492 -1.07413,-2.60887 -2.51655,-2.92958 v -0.66065 c 0,-0.40921 -0.358,-0.7395 -0.80305,-0.7395 z m 0.76554,2.72777 c 0.67844,0.26355 1.15427,0.88119 1.15427,1.60196 0,0.96034 -0.84385,1.73915 -1.88741,1.73915 -1.04868,0 -1.88742,-0.77881 -1.88742,-1.73915 0,-0.69743 0.44832,-1.29514 1.0946,-1.572 0.0958,0.30837 0.39245,0.53924 0.76042,0.53924 0.37749,0 0.68029,-0.24482 0.76554,-0.5692 z m -0.74849,5.77561 h 0.0154 0.0154 c 0.10231,0 0.19266,0.0442 0.24893,0.11037 l 2.79787,5.4839 h -2.41425 v -0.64173 c 0,-0.33825 -0.29748,-0.6102 -0.66324,-0.6102 h -0.0358 c -0.36576,0 -0.66153,0.27432 -0.66153,0.6102 v 0.64173 h -2.35117 l 2.79787,-5.4839 c 0.0588,-0.0686 0.14833,-0.11037 0.25064,-0.11037 z"
       class="ColorScheme-Text"
       id="path12-3" />
  </g>
</svg>
