<?xml version="1.0" encoding="UTF-8" standalone="no"?>
<svg
   width="64"
   version="1.1"
   height="64"
   id="svg15"
   sodipodi:docname="folder-android.svg"
   inkscape:version="1.1.2 (0a00cf5339, 2022-02-04)"
   xmlns:inkscape="http://www.inkscape.org/namespaces/inkscape"
   xmlns:sodipodi="http://sodipodi.sourceforge.net/DTD/sodipodi-0.dtd"
   xmlns:xlink="http://www.w3.org/1999/xlink"
   xmlns="http://www.w3.org/2000/svg"
   xmlns:svg="http://www.w3.org/2000/svg"
   xmlns:rdf="http://www.w3.org/1999/02/22-rdf-syntax-ns#"
   xmlns:cc="http://creativecommons.org/ns#"
   xmlns:dc="http://purl.org/dc/elements/1.1/">
  <sodipodi:namedview
     pagecolor="#ffffff"
     bordercolor="#666666"
     borderopacity="1"
     objecttolerance="10"
     gridtolerance="10"
     guidetolerance="10"
     inkscape:pageopacity="0"
     inkscape:pageshadow="2"
     inkscape:window-width="1920"
     inkscape:window-height="1003"
     id="namedview17"
     showgrid="true"
     inkscape:zoom="9.8124999"
     inkscape:cx="40.407644"
     inkscape:cy="37.503185"
     inkscape:window-x="0"
     inkscape:window-y="0"
     inkscape:window-maximized="1"
     inkscape:current-layer="layer1"
     inkscape:document-rotation="0"
     inkscape:pagecheckerboard="0">
    <inkscape:grid
       type="xygrid"
       id="grid850" />
  </sodipodi:namedview>
  <defs
     id="defs5455">
    <linearGradient
       inkscape:collect="always"
       xlink:href="#linearGradient991"
       id="linearGradient3483"
       gradientUnits="userSpaceOnUse"
       gradientTransform="matrix(1.0016646,0,0,1,-0.64349,-0.6)"
       x1="386.57144"
       y1="516.39801"
       x2="446.62146"
       y2="516.39801" />
    <linearGradient
       inkscape:collect="always"
       id="linearGradient991">
      <stop
         style="stop-color:#cccccc;stop-opacity:1"
         offset="0"
         id="stop987" />
      <stop
         style="stop-color:#cccccc;stop-opacity:1"
         offset="0.03132199"
         id="stop1929" />
      <stop
         style="stop-color:#0069a6;stop-opacity:1"
         offset="0.05527586"
         id="stop1263" />
      <stop
         style="stop-color:#0069a6;stop-opacity:1"
         offset="0.10902679"
         id="stop1027" />
      <stop
         style="stop-color:#cccccc;stop-opacity:1"
         offset="1"
         id="stop989" />
    </linearGradient>
  </defs>
  <metadata
     id="metadata5458">
    <rdf:RDF>
      <cc:Work
         rdf:about="">
        <dc:format>image/svg+xml</dc:format>
        <dc:type
           rdf:resource="http://purl.org/dc/dcmitype/StillImage" />
      </cc:Work>
    </rdf:RDF>
  </metadata>
  <g
     inkscape:label="Capa 1"
     inkscape:groupmode="layer"
     id="layer1"
     transform="translate(-384.57143,-483.798)">
    <g
       transform="matrix(0.74351172,0,0,0.74285356,332.49565,-244.90835)"
       id="g4" />
    <path
       inkscape:connector-curvature="0"
       id="fill"
       d="m 387.57143,492.798 v 45 c 0.10878,1.51131 1,3 3.90646,3 h 49.82407 c 3.26947,0 4.38407,-0.49903 4.26947,-4 v -36 c -1,-2 -8,0 -8,-6 -12,-1 -34,1 -33.92879,-5 h -12.07366 c -1.99755,0 -3.99755,1 -3.99755,3 z"
       style="color:#1e92ff;fill:#4e5a7e;fill-opacity:0.30000001;fill-rule:nonzero;stroke:none;stroke-width:10.5116"
       class="ColorScheme-ButtonFocus"
       sodipodi:nodetypes="cccccccccc" />
    <path
       d="m 442.63027,498.20849 h -3.19931 v -1.18101 c 0,-2.05106 -0.9001,-3.06199 -1.65528,-3.54937 -0.80983,-0.52229 -1.60505,-0.54894 -1.75698,-0.54894 h -28.10856 c -0.60198,0 -1.16772,-0.63461 -1.76652,-1.30666 -0.76217,-0.85546 -1.62604,-1.82451 -2.93742,-1.82451 h -12.54362 c -2.33226,0 -4.09115,1.75533 -4.09115,4.08309 v 43.83382 c 0,2.2516 1.83517,4.08309 4.09115,4.08309 h 51.96769 c 2.25599,0 4.09116,-1.83149 4.09116,-4.08309 v -35.42333 c 0,-2.2516 -1.83517,-4.08309 -4.09116,-4.08309 z m 2.18416,39.50642 c 0,1.20196 -0.97957,2.17926 -2.18416,2.17926 h -51.96769 c -1.20458,0 -2.18415,-0.9773 -2.18415,-2.17926 v -43.83382 c 0,-1.28255 0.8982,-2.17926 2.18415,-2.17926 h 12.54362 c 0.45577,0 0.9694,0.57623 1.51289,1.18609 0.77233,0.86624 1.73346,1.94445 3.19105,1.94445 h 28.09711 c 0.28796,0.008 1.1048,0.13326 1.40483,1.24256 h -43.76115 c -2.43151,0.0501 -3.70284,1.31936 -3.70284,3.8578 l 0.11188,34.90359 h 1.15945 c 0,0 -0.2406,0.002 9.7e-4,0.002 0.37504,0 0.96716,0.0733 1.52019,-0.35884 0.99355,-0.77803 1.0355,-1.78643 1.02661,-2.06249 l -0.005,-28.67681 c 0,-3.80767 0,-3.80767 3.814,-3.80767 l 45.05482,0.1796 c 1.20457,0.005 2.18415,0.97793 2.18415,2.17925 v 35.42333 z"
       id="path2-3-3-2"
       sodipodi:nodetypes="scscsscssssssssscsssssscsccccccsccccsscc"
       style="fill:url(#linearGradient3483);fill-opacity:1;stroke-width:0.635139" />
    <path
       class="st0"
       d="m 432.44643,529.39608 c 0.6375,0 1.125,-0.58522 1.125,-1.35053 0,-0.7653 -0.4875,-1.35053 -1.125,-1.35053 -0.6375,0 -1.125,0.58523 -1.125,1.35053 0,0.76531 0.4875,1.35053 1.125,1.35053 z m -9.75,0 c 0.6375,0 1.125,-0.58522 1.125,-1.35053 0,-0.7653 -0.4875,-1.35053 -1.125,-1.35053 -0.6375,0 -1.125,0.58523 -1.125,1.35053 0,0.76531 0.4875,1.35053 1.125,1.35053 z m 16.125,4.50163 c -0.375,-7.02264 -5.2875,-12.60464 -11.25,-12.60464 -5.9625,0 -10.875,5.582 -11.25,12.60464 z"
       id="path4-3"
       style="clip-rule:evenodd;fill:#a1cd32;fill-opacity:1;fill-rule:evenodd;stroke-width:0.410867" />
    <path
       class="st1"
       d="m 418.98393,516.92642 c 0.375,-0.27008 0.825,-0.09 1.0125,0.31509 l 2.325,4.63673 0.825,1.48566 -0.7125,0.49526 c -1.425,0.9903 -2.625,2.34071 -3.5625,3.96129 -0.075,0.18007 -0.1125,0.36017 -0.1125,0.54024 0,1.57563 2.625,2.83601 5.8875,2.83601 5.8125,0 10.5,-1.98069 10.5,-4.45667 0,-0.6752 -0.3375,-1.30539 -0.975,-1.84556 h 1.35 l 3.75,8.55305 h -4.875 v 1.35048 h -18.825 l 0.0375,-0.94531 c 0.2625,-4.63668 2.325,-8.64312 5.3625,-11.07408 l -2.25001,-4.6365 c -0.18749,-0.40509 -0.075,-0.99062 0.26251,-1.21569 z"
       id="path6-6"
       style="fill:#f0f0f0;fill-opacity:1;stroke-width:0.410867" />
    <path
       class="st2"
       d="m 433.53393,534.798 h 6.0375 l -0.0375,-0.94531 c -0.2625,-4.63668 -2.325,-8.64312 -5.3625,-11.07408 l 2.25,-4.6365 c 0.225,-0.4501 0.075,-0.99062 -0.2625,-1.21569 -0.33748,-0.22507 -0.825,-0.13504 -1.04999,0.31509 l -2.28751,4.63673 c -1.575,-0.94528 -3.375,-1.48545 -5.2875,-1.48545 -1.9125,0 -3.7125,0.54017 -5.325,1.48545 l 0.75,1.53067 v 0.0457 c 1.3875,-0.81024 2.925,-1.26042 4.575,-1.26042 5.2875,0 9.675,4.68167 10.3875,10.80386 h -4.38751 z"
       id="path8-7"
       style="fill:#2ca05a;fill-opacity:1;stroke-width:0.410867" />
    <path
       class="fil1"
       d="m 422.80226,525.83 c 1.057,0 1.86529,0.87047 1.86529,1.86529 0,1.05699 -0.80829,1.86528 -1.86529,1.86528 -1.05699,0 -1.86528,-0.87047 -1.86528,-1.86528 0,-1.057 0.80829,-1.86529 1.86528,-1.86529 z m 1.11917,1.36788 c 0.24871,0 0.49741,0.18652 0.49741,0.49741 0,0.2487 -0.18652,0.49741 -0.49741,0.49741 -0.2487,0 -0.4974,-0.18653 -0.4974,-0.49741 0,-0.24871 0.18652,-0.49741 0.4974,-0.49741 z"
       id="path12-5"
       style="fill:#263740;fill-opacity:1;stroke-width:0.0621762;image-rendering:optimizeQuality;shape-rendering:geometricPrecision;text-rendering:geometricPrecision" />
    <path
       class="fil1"
       d="m 431.80226,525.73 c 1.057,0 1.86529,0.87047 1.86529,1.86528 0,1.057 -0.80829,1.86529 -1.86529,1.86529 -1.05699,0 -1.86528,-0.87047 -1.86528,-1.86529 0,-1.05699 0.80829,-1.86528 1.86528,-1.86528 z m 1.11917,1.36788 c 0.24871,0 0.49741,0.18652 0.49741,0.4974 0,0.24871 -0.18652,0.49742 -0.49741,0.49742 -0.2487,0 -0.4974,-0.18653 -0.4974,-0.49742 0,-0.2487 0.18652,-0.4974 0.4974,-0.4974 z"
       id="path12-3-3"
       style="fill:#263740;fill-opacity:1;stroke-width:0.0621762;image-rendering:optimizeQuality;shape-rendering:geometricPrecision;text-rendering:geometricPrecision" />
  </g>
</svg>
