<?xml version="1.0" encoding="UTF-8" standalone="no"?>
<svg
   id="svg2"
   height="64"
   version="1.1"
   width="64"
   sodipodi:docname="folder-unlocked.svg"
   inkscape:version="1.1.2 (0a00cf5339, 2022-02-04)"
   xmlns:inkscape="http://www.inkscape.org/namespaces/inkscape"
   xmlns:sodipodi="http://sodipodi.sourceforge.net/DTD/sodipodi-0.dtd"
   xmlns:xlink="http://www.w3.org/1999/xlink"
   xmlns="http://www.w3.org/2000/svg"
   xmlns:svg="http://www.w3.org/2000/svg"
   xmlns:rdf="http://www.w3.org/1999/02/22-rdf-syntax-ns#"
   xmlns:cc="http://creativecommons.org/ns#"
   xmlns:dc="http://purl.org/dc/elements/1.1/">
  <sodipodi:namedview
     pagecolor="#ffffff"
     bordercolor="#666666"
     borderopacity="1"
     objecttolerance="10"
     gridtolerance="10"
     guidetolerance="10"
     inkscape:pageopacity="0"
     inkscape:pageshadow="2"
     inkscape:window-width="1920"
     inkscape:window-height="1003"
     id="namedview18"
     showgrid="true"
     inkscape:zoom="10.210463"
     inkscape:cx="28.842962"
     inkscape:cy="30.948646"
     inkscape:window-x="0"
     inkscape:window-y="0"
     inkscape:window-maximized="1"
     inkscape:current-layer="svg2"
     inkscape:document-rotation="0"
     inkscape:pagecheckerboard="0">
    <inkscape:grid
       type="xygrid"
       id="grid1095" />
  </sodipodi:namedview>
  <defs
     id="defs5455">
    <linearGradient
       gradientTransform="matrix(1 0 0 0.99967455 0 0.17645)"
       x2="0"
       gradientUnits="userSpaceOnUse"
       y2="499.78421"
       y1="541.79797"
       xlink:href="#linearGradient4172-5"
       id="linearGradient4178" />
    <linearGradient
       id="linearGradient4172-5">
      <stop
         id="stop4174-6"
         style="stop-color:#3daee9" />
      <stop
         id="stop4176-6"
         style="stop-color:#6cc1ef"
         offset="1" />
    </linearGradient>
    <linearGradient
       inkscape:collect="always"
       id="linearGradient1535">
      <stop
         style="stop-color:#00ffcc;stop-opacity:1"
         offset="0"
         id="stop1531" />
      <stop
         style="stop-color:#00a3cc;stop-opacity:1"
         offset="1"
         id="stop1533" />
    </linearGradient>
    <linearGradient
       inkscape:collect="always"
       xlink:href="#linearGradient991"
       id="linearGradient3483"
       gradientUnits="userSpaceOnUse"
       gradientTransform="matrix(1.0016646,0,0,1,-385.21492,-484.398)"
       x1="386.57144"
       y1="516.39801"
       x2="446.62146"
       y2="516.39801" />
    <linearGradient
       inkscape:collect="always"
       id="linearGradient991">
      <stop
         style="stop-color:#cccccc;stop-opacity:1"
         offset="0"
         id="stop987" />
      <stop
         style="stop-color:#cccccc;stop-opacity:1"
         offset="0.03132199"
         id="stop1929" />
      <stop
         style="stop-color:#0069a6;stop-opacity:1"
         offset="0.05527586"
         id="stop1263" />
      <stop
         style="stop-color:#0069a6;stop-opacity:1"
         offset="0.10902679"
         id="stop1027" />
      <stop
         style="stop-color:#cccccc;stop-opacity:1"
         offset="1"
         id="stop989" />
    </linearGradient>
    <linearGradient
       inkscape:collect="always"
       xlink:href="#linearGradient1535"
       id="linearGradient1175"
       gradientUnits="userSpaceOnUse"
       gradientTransform="matrix(0.94166667,0,0,0.88278388,-358.97976,-421.12424)"
       x1="421.57144"
       y1="526.54797"
       x2="439.57144"
       y2="526.54797" />
  </defs>
  <metadata
     id="metadata5458">
    <rdf:RDF>
      <cc:Work
         rdf:about="">
        <dc:format>image/svg+xml</dc:format>
        <dc:type
           rdf:resource="http://purl.org/dc/dcmitype/StillImage" />
      </cc:Work>
    </rdf:RDF>
  </metadata>
  <path
     inkscape:connector-curvature="0"
     id="fill"
     d="m 3,9 v 45 c 0.10878,1.51131 1,3 3.90646,3 H 56.73053 C 60,57 61.1146,56.50097 61,53 V 17 C 60,15 53,17 53,11 41,10 19,12 19.07121,6 H 6.99755 C 5,6 3,7 3,9 Z"
     style="color:#1e92ff;fill:#4e5a7e;fill-opacity:0.30000001;fill-rule:nonzero;stroke:none;stroke-width:10.5116"
     class="ColorScheme-ButtonFocus"
     sodipodi:nodetypes="cccccccccc" />
  <path
     d="m 58.05884,14.41049 h -3.19931 v -1.18101 c 0,-2.05106 -0.9001,-3.06199 -1.65528,-3.54937 C 52.39442,9.15782 51.5992,9.13117 51.44727,9.13117 H 23.33871 c -0.60198,0 -1.16772,-0.63461 -1.76652,-1.30666 C 20.81002,6.96905 19.94615,6 18.63477,6 H 6.09115 C 3.75889,6 2,7.75533 2,10.08309 V 53.91691 C 2,56.16851 3.83517,58 6.09115,58 H 58.05884 C 60.31483,58 62.15,56.16851 62.15,53.91691 V 18.49358 c 0,-2.2516 -1.83517,-4.08309 -4.09116,-4.08309 z M 60.243,53.91691 c 0,1.20196 -0.97957,2.17926 -2.18416,2.17926 H 6.09115 c -1.20458,0 -2.18415,-0.9773 -2.18415,-2.17926 V 10.08309 c 0,-1.28255 0.8982,-2.17926 2.18415,-2.17926 h 12.54362 c 0.45577,0 0.9694,0.57623 1.51289,1.18609 0.77233,0.86624 1.73346,1.94445 3.19105,1.94445 h 28.09711 c 0.28796,0.008 1.1048,0.13326 1.40483,1.24256 H 9.0795 c -2.43151,0.0501 -3.70284,1.31936 -3.70284,3.8578 l 0.11188,34.90359 h 1.15945 c 0,0 -0.2406,0.002 9.7e-4,0.002 0.37504,0 0.96716,0.0733 1.52019,-0.35884 0.99355,-0.77803 1.0355,-1.78643 1.02661,-2.06249 l -0.005,-28.67681 c 0,-3.80767 0,-3.80767 3.814,-3.80767 l 45.05482,0.1796 c 1.20457,0.005 2.18415,0.97793 2.18415,2.17925 v 35.42333 z"
     id="path2-3-3-2"
     sodipodi:nodetypes="scscsscssssssssscsssssscsccccccsccccsscc"
     style="fill:url(#linearGradient3483);fill-opacity:1;stroke-width:0.635139" />
  <path
     id="Lock-7"
     class="st0"
     d="m 47.8875,43.703846 c 0,0.496566 -0.2825,0.926923 -0.70625,1.158654 v 1.489698 c 0,0.364148 -0.31781,0.662088 -0.70625,0.662088 -0.38844,0 -0.70625,-0.29794 -0.70625,-0.662088 V 44.8625 C 45.345,44.630769 45.0625,44.200412 45.0625,43.703846 c 0,-0.728297 0.63563,-1.324176 1.4125,-1.324176 0.77688,0 1.4125,0.595879 1.4125,1.324176 z m 3.53125,-5.958791 h 1.4125 v 1.324176 H 54.95 v 7.282967 c 0,1.820742 -1.58906,3.310439 -3.53125,3.310439 H 38 V 39.069231 h 13.41875 z"
     style="clip-rule:evenodd;fill:url(#linearGradient1175);fill-opacity:1;fill-rule:evenodd;stroke-width:0.341906" />
  <path
     id="Lock-s-5"
     class="st1"
     d="m 41.53125,35.968999 h -1.4125 V 35.758791 C 40.11875,32.481456 42.97906,29.8 46.475,29.8 c 3.49594,0 6.35625,2.681456 6.35625,5.958791 v 1.986264 h -1.4125 v -1.986264 c 0,-2.549038 -2.22469,-4.634615 -4.94375,-4.634615 -2.71906,0 -4.94375,2.085577 -4.94375,4.634615 z M 54.95,39.069231 h -3.53125 v 1.324176 h 2.11875 v 6.620879 c 0,1.456593 -1.27125,2.648351 -2.825,2.648351 h -11.3 v 1.324176 h 11.3 c 2.33063,0 4.2375,-1.787637 4.2375,-3.972527 z"
     style="fill:#f3f3f3;fill-opacity:1;stroke-width:0.341906"
     sodipodi:nodetypes="ccsssccssscccccssccssc" />
</svg>
