<?xml version="1.0" encoding="UTF-8" standalone="no"?>
<svg
   width="64"
   version="1.1"
   height="64"
   id="svg15"
   sodipodi:docname="folder-Neon.svg"
   inkscape:version="1.1.2 (0a00cf5339, 2022-02-04)"
   xmlns:inkscape="http://www.inkscape.org/namespaces/inkscape"
   xmlns:sodipodi="http://sodipodi.sourceforge.net/DTD/sodipodi-0.dtd"
   xmlns:xlink="http://www.w3.org/1999/xlink"
   xmlns="http://www.w3.org/2000/svg"
   xmlns:svg="http://www.w3.org/2000/svg"
   xmlns:rdf="http://www.w3.org/1999/02/22-rdf-syntax-ns#"
   xmlns:cc="http://creativecommons.org/ns#"
   xmlns:dc="http://purl.org/dc/elements/1.1/">
  <sodipodi:namedview
     pagecolor="#ffffff"
     bordercolor="#666666"
     borderopacity="1"
     objecttolerance="10"
     gridtolerance="10"
     guidetolerance="10"
     inkscape:pageopacity="0"
     inkscape:pageshadow="2"
     inkscape:window-width="1920"
     inkscape:window-height="1007"
     id="namedview17"
     showgrid="true"
     inkscape:zoom="9.8125"
     inkscape:cx="19.312102"
     inkscape:cy="24.356688"
     inkscape:window-x="0"
     inkscape:window-y="0"
     inkscape:window-maximized="1"
     inkscape:current-layer="layer1"
     inkscape:document-rotation="0"
     inkscape:pagecheckerboard="0">
    <inkscape:grid
       type="xygrid"
       id="grid933" />
  </sodipodi:namedview>
  <defs
     id="defs5455">
    <linearGradient
       inkscape:collect="always"
       id="linearGradient963">
      <stop
         style="stop-color:#0089d9;stop-opacity:1"
         offset="0"
         id="stop959" />
      <stop
         style="stop-color:#79ceff;stop-opacity:1"
         offset="1"
         id="stop961" />
    </linearGradient>
    <linearGradient
       inkscape:collect="always"
       xlink:href="#linearGradient991"
       id="linearGradient3483"
       gradientUnits="userSpaceOnUse"
       gradientTransform="matrix(1.0016646,0,0,1,-0.64349,-0.6)"
       x1="386.57144"
       y1="516.39801"
       x2="446.62146"
       y2="516.39801" />
    <linearGradient
       inkscape:collect="always"
       id="linearGradient991">
      <stop
         style="stop-color:#cccccc;stop-opacity:1"
         offset="0"
         id="stop987" />
      <stop
         style="stop-color:#cccccc;stop-opacity:1"
         offset="0.03132199"
         id="stop1929" />
      <stop
         style="stop-color:#0069a6;stop-opacity:1"
         offset="0.05527586"
         id="stop1263" />
      <stop
         style="stop-color:#0069a6;stop-opacity:1"
         offset="0.10902679"
         id="stop1027" />
      <stop
         style="stop-color:#cccccc;stop-opacity:1"
         offset="1"
         id="stop989" />
    </linearGradient>
    <linearGradient
       inkscape:collect="always"
       xlink:href="#linearGradient963"
       id="linearGradient1203"
       gradientUnits="userSpaceOnUse"
       x1="420.44281"
       y1="522.79858"
       x2="434.70172"
       y2="522.79858" />
    <linearGradient
       inkscape:collect="always"
       xlink:href="#linearGradient963"
       id="linearGradient1205"
       gradientUnits="userSpaceOnUse"
       x1="415.57144"
       y1="522.79797"
       x2="439.57187"
       y2="522.79797" />
  </defs>
  <metadata
     id="metadata5458">
    <rdf:RDF>
      <cc:Work
         rdf:about="">
        <dc:format>image/svg+xml</dc:format>
        <dc:type
           rdf:resource="http://purl.org/dc/dcmitype/StillImage" />
      </cc:Work>
    </rdf:RDF>
  </metadata>
  <g
     inkscape:label="Capa 1"
     inkscape:groupmode="layer"
     id="layer1"
     transform="translate(-384.57143,-483.798)">
    <path
       inkscape:connector-curvature="0"
       id="fill"
       d="m 387.57143,492.798 v 45 c 0.10878,1.51131 1,3 3.90646,3 h 49.82407 c 3.26947,0 4.38407,-0.49903 4.26947,-4 v -36 c -1,-2 -8,0 -8,-6 -12,-1 -34,1 -33.92879,-5 h -12.07366 c -1.99755,0 -3.99755,1 -3.99755,3 z"
       style="color:#1e92ff;fill:#4e5a7e;fill-opacity:0.30000001;fill-rule:nonzero;stroke:none;stroke-width:10.5116"
       class="ColorScheme-ButtonFocus"
       sodipodi:nodetypes="cccccccccc" />
    <path
       d="m 442.63027,498.20849 h -3.19931 v -1.18101 c 0,-2.05106 -0.9001,-3.06199 -1.65528,-3.54937 -0.80983,-0.52229 -1.60505,-0.54894 -1.75698,-0.54894 h -28.10856 c -0.60198,0 -1.16772,-0.63461 -1.76652,-1.30666 -0.76217,-0.85546 -1.62604,-1.82451 -2.93742,-1.82451 h -12.54362 c -2.33226,0 -4.09115,1.75533 -4.09115,4.08309 v 43.83382 c 0,2.2516 1.83517,4.08309 4.09115,4.08309 h 51.96769 c 2.25599,0 4.09116,-1.83149 4.09116,-4.08309 v -35.42333 c 0,-2.2516 -1.83517,-4.08309 -4.09116,-4.08309 z m 2.18416,39.50642 c 0,1.20196 -0.97957,2.17926 -2.18416,2.17926 h -51.96769 c -1.20458,0 -2.18415,-0.9773 -2.18415,-2.17926 v -43.83382 c 0,-1.28255 0.8982,-2.17926 2.18415,-2.17926 h 12.54362 c 0.45577,0 0.9694,0.57623 1.51289,1.18609 0.77233,0.86624 1.73346,1.94445 3.19105,1.94445 h 28.09711 c 0.28796,0.008 1.1048,0.13326 1.40483,1.24256 h -43.76115 c -2.43151,0.0501 -3.70284,1.31936 -3.70284,3.8578 l 0.11188,34.90359 h 1.15945 c 0,0 -0.2406,0.002 9.7e-4,0.002 0.37504,0 0.96716,0.0733 1.52019,-0.35884 0.99355,-0.77803 1.0355,-1.78643 1.02661,-2.06249 l -0.005,-28.67681 c 0,-3.80767 0,-3.80767 3.814,-3.80767 l 45.05482,0.1796 c 1.20457,0.005 2.18415,0.97793 2.18415,2.17925 v 35.42333 z"
       id="path2-3-3-2"
       sodipodi:nodetypes="scscsscssssssssscsssssscsccccccsccccsscc"
       style="fill:url(#linearGradient3483);fill-opacity:1;stroke-width:0.635139" />
    <path
       d="m 427.57223,525.91514 c 1.72121,0 3.11659,-1.39538 3.11659,-3.11662 0,-1.72115 -1.39538,-3.11654 -3.11659,-3.11654 -1.72119,0 -3.11659,1.39539 -3.11659,3.11654 0,1.72124 1.3954,3.11662 3.11659,3.11662 z m 0.54078,-1.00237 c 0.58422,-0.14902 1.08578,-0.53908 1.37566,-1.07187 0.0276,-0.0509 0.0804,-0.0798 0.13705,-0.0798 0.0251,0 0.0502,0.005 0.074,0.0198 0.0749,0.0424 0.10271,0.13597 0.064,0.21145 -0.33142,0.60793 -0.9048,1.05432 -1.57271,1.22445 -0.0847,0.0227 -0.16828,-0.0282 -0.18935,-0.11297 -0.0218,-0.0833 0.0284,-0.16798 0.11296,-0.18909 z"
       id="path2-6-1"
       style="fill:#f2f2f2;fill-opacity:1;stroke:#ffffff;stroke-width:0.266644;stroke-opacity:1" />
    <path
       d="m 428.65963,515.75184 c -0.0193,-0.58634 -0.49628,-1.05674 -1.0874,-1.05674 -0.59119,0 -1.06901,0.4704 -1.08742,1.05674 -3.41706,0.52555 -6.042,3.48504 -6.042,7.04676 0,3.56159 2.62518,6.52106 6.042,7.04661 0.0193,0.58641 0.49623,1.05684 1.08742,1.05684 0.59112,0 1.06895,-0.47043 1.0874,-1.05684 3.41715,-0.52555 6.04208,-3.48502 6.04208,-7.04661 0,-3.56172 -2.62493,-6.52121 -6.04208,-7.04676 z m -0.0178,13.85907 c -0.0947,-0.50662 -0.53684,-0.89058 -1.07094,-0.89058 -0.53411,0 -0.97651,0.38362 -1.07087,0.89058 -3.29546,-0.51656 -5.82461,-3.37389 -5.82461,-6.81231 0,-3.43845 2.52915,-6.29584 5.8249,-6.81235 0.0947,0.50665 0.53679,0.89062 1.0708,0.89062 0.53412,0 0.9765,-0.38371 1.07096,-0.89062 3.29521,0.51651 5.8244,3.3739 5.8244,6.81235 0,3.43842 -2.52919,6.29575 -5.82464,6.81231 z"
       id="path4-7"
       style="fill:url(#linearGradient1203);fill-opacity:1;stroke-width:0.266644" />
    <path
       d="m 439.57145,522.7986 c 0,-0.58104 -0.45493,-1.05116 -1.02767,-1.08446 -0.2184,-2.22762 -1.10268,-4.2624 -2.45,-5.90311 0.38469,-0.42822 0.3751,-1.08496 -0.0381,-1.49717 -0.41194,-0.412 -1.06894,-0.42187 -1.49696,-0.0382 -1.64042,-1.34757 -3.67547,-2.23136 -5.90278,-2.44998 -0.032,-0.57212 -0.50371,-1.02768 -1.0848,-1.02768 -0.58096,0 -1.05114,0.45556 -1.0844,1.02768 -2.22736,0.2184 -4.26217,1.10241 -5.90279,2.44998 -0.42807,-0.38504 -1.08526,-0.37514 -1.49755,0.0382 -0.41191,0.41221 -0.42177,1.06947 -0.0373,1.49747 -1.34757,1.64041 -2.23137,3.67545 -2.44999,5.90281 -0.57278,0.0318 -1.02768,0.50342 -1.02768,1.08446 0,0.58098 0.4549,1.05113 1.02768,1.08446 0.2184,2.22728 1.10242,4.26185 2.44974,5.90238 -0.38508,0.42839 -0.37519,1.08564 0.0378,1.4979 0.41227,0.41185 1.06926,0.42173 1.49782,0.037 1.6404,1.34787 3.67545,2.23136 5.90285,2.44999 0.0318,0.57211 0.50338,1.02767 1.08441,1.02767 0.58101,0 1.05119,-0.45556 1.08442,-1.02767 2.22739,-0.2184 4.2622,-1.10212 5.90279,-2.44999 0.42862,0.38504 1.08536,0.37514 1.49756,-0.037 0.41191,-0.41226 0.42178,-1.06951 0.0377,-1.49756 1.348,-1.64038 2.23137,-3.67544 2.45,-5.90272 0.57289,-0.0318 1.02767,-0.50348 1.02767,-1.08446 z m -1.2613,1.07374 c -0.2154,2.17133 -1.07725,4.15523 -2.38993,5.75664 -0.4264,-0.30667 -1.02202,-0.27187 -1.40544,0.11229 -0.38356,0.3837 -0.4188,0.97934 -0.11229,1.40546 -1.60119,1.31268 -3.58533,2.1745 -5.75719,2.3899 -0.0804,-0.52102 -0.52901,-0.92012 -1.07324,-0.92012 -0.54425,0 -0.99145,0.3991 -1.07333,0.92012 -2.17182,-0.2154 -4.15596,-1.07722 -5.75719,-2.3899 0.30692,-0.42668 0.27197,-1.02271 -0.11218,-1.40569 -0.38346,-0.38354 -0.97939,-0.41909 -1.40578,-0.11249 -1.31271,-1.60096 -2.17477,-3.58485 -2.39022,-5.75617 0.52104,-0.081 0.92018,-0.52952 0.92018,-1.07376 0,-0.5443 -0.39914,-0.99147 -0.92018,-1.0738 0.21545,-2.17136 1.07722,-4.15496 2.38972,-5.75647 0.42662,0.30718 1.02282,0.27205 1.406,-0.11214 0.38347,-0.38341 0.41842,-0.97966 0.11224,-1.40606 1.60146,-1.31235 3.58509,-2.17422 5.75692,-2.38968 0.0804,0.52099 0.52905,0.92016 1.07329,0.92016 0.5442,0 0.99142,-0.39917 1.07329,-0.92016 2.17182,0.21546 4.15567,1.07733 5.757,2.38968 -0.30675,0.42666 -0.27213,1.02233 0.11211,1.4058 0.38339,0.3834 0.97945,0.4184 1.40582,0.11215 1.3126,1.60126 2.17445,3.58536 2.39,5.75672 -0.52105,0.0809 -0.92014,0.5295 -0.92014,1.0738 0,0.54424 0.39933,0.99138 0.92059,1.07376 z"
       id="path6-2"
       style="fill:url(#linearGradient1205);fill-opacity:1;stroke-width:0.266644" />
  </g>
</svg>
