<?xml version="1.0" encoding="UTF-8" standalone="no"?>
<svg
   width="64"
   version="1.1"
   height="64"
   id="svg15"
   sodipodi:docname="folder-Pop_OS.svg"
   inkscape:version="1.1.2 (0a00cf5339, 2022-02-04)"
   xmlns:inkscape="http://www.inkscape.org/namespaces/inkscape"
   xmlns:sodipodi="http://sodipodi.sourceforge.net/DTD/sodipodi-0.dtd"
   xmlns:xlink="http://www.w3.org/1999/xlink"
   xmlns="http://www.w3.org/2000/svg"
   xmlns:svg="http://www.w3.org/2000/svg"
   xmlns:rdf="http://www.w3.org/1999/02/22-rdf-syntax-ns#"
   xmlns:cc="http://creativecommons.org/ns#"
   xmlns:dc="http://purl.org/dc/elements/1.1/">
  <sodipodi:namedview
     pagecolor="#ffffff"
     bordercolor="#666666"
     borderopacity="1"
     objecttolerance="10"
     gridtolerance="10"
     guidetolerance="10"
     inkscape:pageopacity="0"
     inkscape:pageshadow="2"
     inkscape:window-width="1920"
     inkscape:window-height="1003"
     id="namedview17"
     showgrid="true"
     inkscape:zoom="9.8125"
     inkscape:cx="47.541401"
     inkscape:cy="32"
     inkscape:window-x="0"
     inkscape:window-y="0"
     inkscape:window-maximized="1"
     inkscape:current-layer="layer1"
     inkscape:document-rotation="0"
     inkscape:pagecheckerboard="0">
    <inkscape:grid
       type="xygrid"
       id="grid850" />
  </sodipodi:namedview>
  <defs
     id="defs5455">
    <linearGradient
       inkscape:collect="always"
       xlink:href="#linearGradient991"
       id="linearGradient3483"
       gradientUnits="userSpaceOnUse"
       gradientTransform="matrix(1.0016646,0,0,1,-0.64349,-0.6)"
       x1="386.57144"
       y1="516.39801"
       x2="446.62146"
       y2="516.39801" />
    <linearGradient
       inkscape:collect="always"
       id="linearGradient991">
      <stop
         style="stop-color:#cccccc;stop-opacity:1"
         offset="0"
         id="stop987" />
      <stop
         style="stop-color:#cccccc;stop-opacity:1"
         offset="0.03132199"
         id="stop1929" />
      <stop
         style="stop-color:#0069a6;stop-opacity:1"
         offset="0.05527586"
         id="stop1263" />
      <stop
         style="stop-color:#0069a6;stop-opacity:1"
         offset="0.10902679"
         id="stop1027" />
      <stop
         style="stop-color:#cccccc;stop-opacity:1"
         offset="1"
         id="stop989" />
    </linearGradient>
  </defs>
  <metadata
     id="metadata5458">
    <rdf:RDF>
      <cc:Work
         rdf:about="">
        <dc:format>image/svg+xml</dc:format>
        <dc:type
           rdf:resource="http://purl.org/dc/dcmitype/StillImage" />
      </cc:Work>
    </rdf:RDF>
  </metadata>
  <g
     inkscape:label="Capa 1"
     inkscape:groupmode="layer"
     id="layer1"
     transform="translate(-384.57143,-483.798)">
    <path
       inkscape:connector-curvature="0"
       id="fill"
       d="m 387.57143,492.798 v 45 c 0.10878,1.51131 1,3 3.90646,3 h 49.82407 c 3.26947,0 4.38407,-0.49903 4.26947,-4 v -36 c -1,-2 -8,0 -8,-6 -12,-1 -34,1 -33.92879,-5 h -12.07366 c -1.99755,0 -3.99755,1 -3.99755,3 z"
       style="color:#1e92ff;fill:#4e5a7e;fill-opacity:0.30000001;fill-rule:nonzero;stroke:none;stroke-width:10.5116"
       class="ColorScheme-ButtonFocus"
       sodipodi:nodetypes="cccccccccc" />
    <path
       d="m 442.63027,498.20849 h -3.19931 v -1.18101 c 0,-2.05106 -0.9001,-3.06199 -1.65528,-3.54937 -0.80983,-0.52229 -1.60505,-0.54894 -1.75698,-0.54894 h -28.10856 c -0.60198,0 -1.16772,-0.63461 -1.76652,-1.30666 -0.76217,-0.85546 -1.62604,-1.82451 -2.93742,-1.82451 h -12.54362 c -2.33226,0 -4.09115,1.75533 -4.09115,4.08309 v 43.83382 c 0,2.2516 1.83517,4.08309 4.09115,4.08309 h 51.96769 c 2.25599,0 4.09116,-1.83149 4.09116,-4.08309 v -35.42333 c 0,-2.2516 -1.83517,-4.08309 -4.09116,-4.08309 z m 2.18416,39.50642 c 0,1.20196 -0.97957,2.17926 -2.18416,2.17926 h -51.96769 c -1.20458,0 -2.18415,-0.9773 -2.18415,-2.17926 v -43.83382 c 0,-1.28255 0.8982,-2.17926 2.18415,-2.17926 h 12.54362 c 0.45577,0 0.9694,0.57623 1.51289,1.18609 0.77233,0.86624 1.73346,1.94445 3.19105,1.94445 h 28.09711 c 0.28796,0.008 1.1048,0.13326 1.40483,1.24256 h -43.76115 c -2.43151,0.0501 -3.70284,1.31936 -3.70284,3.8578 l 0.11188,34.90359 h 1.15945 c 0,0 -0.2406,0.002 9.7e-4,0.002 0.37504,0 0.96716,0.0733 1.52019,-0.35884 0.99355,-0.77803 1.0355,-1.78643 1.02661,-2.06249 l -0.005,-28.67681 c 0,-3.80767 0,-3.80767 3.814,-3.80767 l 45.05482,0.1796 c 1.20457,0.005 2.18415,0.97793 2.18415,2.17925 v 35.42333 z"
       id="path2-3-3-2"
       sodipodi:nodetypes="scscsscssssssssscsssssscsccccccsccccsscc"
       style="fill:url(#linearGradient3483);fill-opacity:1;stroke-width:0.635139" />
    <path
       style="fill:#f2f2f2;fill-opacity:1;stroke-width:0.0282398"
       id="path2-3-3-3"
       d="m 436.45093,526.12991 c -0.0553,0.22553 -0.16757,0.42518 -0.36308,0.55079 -0.30745,0.19711 -0.68178,0.13983 -0.9472,-0.1 -0.24862,-0.22262 -0.33248,-0.59916 -0.25429,-0.92474 0.0806,-0.3398 0.33807,-0.63949 0.66777,-0.73374 0.73476,-0.20822 1.03938,0.60799 0.8968,1.20763 z m -0.44977,-2.31787 c -0.45532,-0.18567 -0.29899,-2.62604 0.11768,-5.58865 0.11769,-0.82786 0.31859,-1.21924 0.54491,-1.41911 0.32406,-0.28238 0.91357,-0.29401 1.31295,-0.23405 0.45826,0.0658 0.89696,0.28565 1.22938,0.61382 0.29338,0.29142 0.32686,0.588 0.22621,0.97356 -0.16469,0.61381 -0.44689,1.20182 -0.71802,1.77521 -0.0628,0.13971 -0.62587,1.22737 -0.70115,1.36148 -1.35501,2.4378 -1.62604,2.67466 -2.01149,2.51774 z" />
    <path
       style="fill:#48b9c7;fill-opacity:1;stroke-width:0.0282398"
       id="path4-6"
       d="m 426.80949,522.71301 c 0.26815,1.1706 0.2402,2.45494 0.007,3.37968 -0.21502,0.87345 -0.79893,1.65551 -1.7265,1.9181 -0.81319,0.23129 -1.7601,0.0618 -2.34137,-0.50804 -0.95544,-0.93628 -1.51419,-3.13421 -1.26558,-4.72981 0.20123,-1.28134 0.87732,-2.92288 2.36092,-2.99443 0.0967,-0.004 0.18997,-0.002 0.28477,0.004 1.5116,0.1399 2.33575,1.44166 2.67669,2.92889 z m -2.73225,2.66318 c 0.0824,0.0163 0.16751,0.0163 0.25128,-0.007 0.28221,-0.0817 0.44427,-0.38257 0.51964,-0.67361 0.11539,-0.44248 0.0986,-0.91916 -0.0532,-1.35307 -0.0768,-0.21983 -0.18692,-0.4339 -0.35766,-0.59377 -0.60051,-0.56225 -1.201,0.0218 -1.30454,0.68792 -0.0806,0.5196 0.0377,1.12183 0.35472,1.5415 0.14812,0.19409 0.36065,0.36242 0.58695,0.4024 z" />
    <path
       style="fill:#48b9c7;fill-opacity:1;stroke-width:0.0282398"
       id="path6-7"
       d="m 430.08109,525.19374 c -0.002,2.16053 0.20943,3.81328 -0.72092,4.01031 -0.75426,0.15689 -0.72906,-0.51953 -0.78788,-1.08758 -0.22337,-2.20062 -0.42731,-5.85698 -0.51406,-8.06951 0.0609,-0.95058 0.68462,-1.53282 1.33277,-1.67527 1.0002,-0.21987 2.06733,-0.15731 2.95305,0.4023 1.75177,1.10769 1.89148,3.13991 0.82982,4.7982 -0.58118,0.90488 -2.33846,1.56159 -3.09278,1.50425 z m 0.22341,-4.84398 c -0.10839,0.0182 -0.28771,0.0657 -0.33807,0.17667 -0.1201,0.25402 -0.11298,1.86716 0.0986,2.5435 0.0356,0.11262 0.10706,0.21682 0.21788,0.25679 0.39675,0.14851 0.7544,-0.34832 0.91644,-0.64795 0.22628,-0.41671 0.2988,-0.90759 0.15637,-1.36449 -0.13444,-0.42518 -0.55035,-1.04189 -1.05042,-0.96452 z" />
    <path
       style="fill:#48b9c7;fill-opacity:1;stroke-width:0.0282398"
       id="path8-5"
       d="m 420.06227,521.42282 c -0.65655,1.4189 -1.74618,2.54614 -3.25472,3.10295 0.43328,1.15603 0.87433,2.29789 1.30462,3.45085 0.24043,0.62218 0.46943,1.30444 0.25976,1.91812 -0.21791,0.628 -1.06685,0.80207 -1.68447,0.13443 -1.18757,-1.29031 -5.20206,-9.4652 -5.49816,-10.07903 -0.25166,-0.52803 -0.62842,-1.0933 -0.61764,-1.70405 0.0197,-0.91923 1.41127,-1.84979 2.07842,-2.32622 0.93342,-0.66539 2.01168,-1.1193 3.16559,-1.12187 0.89974,0 1.66794,0.25145 2.34975,0.6963 1.04476,0.68539 1.77133,1.77822 2.03968,3.01421 0.23442,1.08767 0.18424,2.20118 -0.14275,2.91464 m -3.05904,-1.55295 c -0.23479,-0.87037 -0.76569,-1.67244 -1.43349,-2.23469 -0.1449,-0.12266 -0.30182,-0.23726 -0.48291,-0.29978 -1.25174,-0.41974 -0.70973,1.71824 -0.50577,2.25789 0.28211,0.7563 0.70974,1.71244 1.28224,2.28323 0.12535,0.12525 0.27386,0.23707 0.44414,0.27124 0.25988,0.056 0.50005,-0.13182 0.63162,-0.34814 0.10706,-0.1799 0.15052,-0.39396 0.17601,-0.60218 0.0451,-0.44232 0.004,-0.89364 -0.11334,-1.32757 z" />
    <path
       style="fill:#f0f0f0;fill-opacity:1;stroke-width:0.0282398"
       id="path10-3"
       d="m 435.02995,532.28878 c -0.004,1.25321 -0.75433,2.50622 -2.40559,2.50622 -1.65107,0 -2.41937,-1.23301 -2.41937,-2.49192 0,-1.56992 1.07001,-2.54041 2.45298,-2.54041 1.6037,0.0161 2.38597,1.23024 2.37198,2.52611 z m -2.37198,-1.73538 c -1.03649,0 -1.61775,0.73651 -1.62324,1.74119 0,0.87346 0.47769,1.69265 1.60357,1.69265 1.12593,0 1.55619,-0.88763 1.55619,-1.70121 0.0163,-0.84499 -0.42457,-1.71264 -1.53652,-1.73263 z m 3.06477,3.59935 c 0,0.18562 0.004,-0.88201 0,-1.04464 h 0.75994 l 0.0554,0.65371 c 0.24876,0.14555 0.63422,0.25406 0.94993,0.25406 0.58679,0 1.19862,-0.15141 1.19862,-0.73654 -0.0197,-0.53093 -0.70127,-0.63935 -1.25162,-0.69655 -0.93595,-0.098 -1.69026,-0.33092 -1.69026,-1.40429 0,-0.95627 1.0588,-1.43276 1.84665,-1.43276 0.63423,-0.0162 1.08402,0.0856 1.65671,0.5564 0,0.38553 -0.004,0.61382 -0.004,0.99907 h -0.73462 l -0.0451,-0.63353 c -0.29615,-0.1457 -0.60071,-0.18564 -0.83532,-0.17983 -0.50571,0.004 -1.04493,0.24821 -1.04493,0.68213 0,0.42523 0.34924,0.54228 0.96943,0.63374 1.01146,0.13708 1.98642,0.37096 1.98642,1.47282 -0.004,1.20446 -1.11196,1.52143 -2.06182,1.52143 -0.72357,0.002 -1.17621,-0.13451 -1.74891,-0.64522 z"
       inkscape:connector-curvature="0" />
    <path
       style="fill:#ffdd55;fill-opacity:1;stroke-width:0.0282398"
       id="path12-5"
       d="m 429.17962,534.38406 c 0,0.21981 -0.1733,0.39667 -0.38826,0.39667 h -4.48979 c -0.21516,0 -0.38822,-0.17686 -0.38822,-0.39667 v -0.036 c 0,-0.21987 0.17306,-0.39657 0.38822,-0.39657 h 4.48979 c 0.21496,0 0.38826,0.1767 0.38826,0.39657 z"
       inkscape:connector-curvature="0" />
  </g>
</svg>
