<?xml version="1.0" encoding="UTF-8" standalone="no"?>
<svg
   width="64"
   version="1.1"
   height="64"
   id="svg15"
   sodipodi:docname="folder-mega.svg"
   inkscape:version="1.1.2 (0a00cf5339, 2022-02-04)"
   xmlns:inkscape="http://www.inkscape.org/namespaces/inkscape"
   xmlns:sodipodi="http://sodipodi.sourceforge.net/DTD/sodipodi-0.dtd"
   xmlns:xlink="http://www.w3.org/1999/xlink"
   xmlns="http://www.w3.org/2000/svg"
   xmlns:svg="http://www.w3.org/2000/svg"
   xmlns:rdf="http://www.w3.org/1999/02/22-rdf-syntax-ns#"
   xmlns:cc="http://creativecommons.org/ns#"
   xmlns:dc="http://purl.org/dc/elements/1.1/">
  <sodipodi:namedview
     pagecolor="#ffffff"
     bordercolor="#666666"
     borderopacity="1"
     objecttolerance="10"
     gridtolerance="10"
     guidetolerance="10"
     inkscape:pageopacity="0"
     inkscape:pageshadow="2"
     inkscape:window-width="1920"
     inkscape:window-height="1003"
     id="namedview17"
     showgrid="true"
     inkscape:zoom="9.8124999"
     inkscape:cx="40.713376"
     inkscape:cy="33.019109"
     inkscape:window-x="0"
     inkscape:window-y="0"
     inkscape:window-maximized="1"
     inkscape:current-layer="layer1"
     inkscape:document-rotation="0"
     inkscape:pagecheckerboard="0">
    <inkscape:grid
       type="xygrid"
       id="grid850" />
  </sodipodi:namedview>
  <defs
     id="defs5455">
    <linearGradient
       inkscape:collect="always"
       xlink:href="#linearGradient991"
       id="linearGradient3483"
       gradientUnits="userSpaceOnUse"
       gradientTransform="matrix(1.0016646,0,0,1,-0.64349,-0.6)"
       x1="386.57144"
       y1="516.39801"
       x2="446.62146"
       y2="516.39801" />
    <linearGradient
       inkscape:collect="always"
       id="linearGradient991">
      <stop
         style="stop-color:#cccccc;stop-opacity:1"
         offset="0"
         id="stop987" />
      <stop
         style="stop-color:#cccccc;stop-opacity:1"
         offset="0.03132199"
         id="stop1929" />
      <stop
         style="stop-color:#0069a6;stop-opacity:1"
         offset="0.05527586"
         id="stop1263" />
      <stop
         style="stop-color:#0069a6;stop-opacity:1"
         offset="0.10902679"
         id="stop1027" />
      <stop
         style="stop-color:#cccccc;stop-opacity:1"
         offset="1"
         id="stop989" />
    </linearGradient>
  </defs>
  <metadata
     id="metadata5458">
    <rdf:RDF>
      <cc:Work
         rdf:about="">
        <dc:format>image/svg+xml</dc:format>
        <dc:type
           rdf:resource="http://purl.org/dc/dcmitype/StillImage" />
      </cc:Work>
    </rdf:RDF>
  </metadata>
  <g
     inkscape:label="Capa 1"
     inkscape:groupmode="layer"
     id="layer1"
     transform="translate(-384.57143,-483.798)">
    <g
       transform="matrix(0.74351172,0,0,0.74285356,332.49565,-244.90835)"
       id="g4" />
    <path
       inkscape:connector-curvature="0"
       id="fill"
       d="m 387.57143,492.798 v 45 c 0.10878,1.51131 1,3 3.90646,3 h 49.82407 c 3.26947,0 4.38407,-0.49903 4.26947,-4 v -36 c -1,-2 -8,0 -8,-6 -12,-1 -34,1 -33.92879,-5 h -12.07366 c -1.99755,0 -3.99755,1 -3.99755,3 z"
       style="color:#1e92ff;fill:#4e5a7e;fill-opacity:0.30000001;fill-rule:nonzero;stroke:none;stroke-width:10.5116"
       class="ColorScheme-ButtonFocus"
       sodipodi:nodetypes="cccccccccc" />
    <path
       d="m 442.63027,498.20849 h -3.19931 v -1.18101 c 0,-2.05106 -0.9001,-3.06199 -1.65528,-3.54937 -0.80983,-0.52229 -1.60505,-0.54894 -1.75698,-0.54894 h -28.10856 c -0.60198,0 -1.16772,-0.63461 -1.76652,-1.30666 -0.76217,-0.85546 -1.62604,-1.82451 -2.93742,-1.82451 h -12.54362 c -2.33226,0 -4.09115,1.75533 -4.09115,4.08309 v 43.83382 c 0,2.2516 1.83517,4.08309 4.09115,4.08309 h 51.96769 c 2.25599,0 4.09116,-1.83149 4.09116,-4.08309 v -35.42333 c 0,-2.2516 -1.83517,-4.08309 -4.09116,-4.08309 z m 2.18416,39.50642 c 0,1.20196 -0.97957,2.17926 -2.18416,2.17926 h -51.96769 c -1.20458,0 -2.18415,-0.9773 -2.18415,-2.17926 v -43.83382 c 0,-1.28255 0.8982,-2.17926 2.18415,-2.17926 h 12.54362 c 0.45577,0 0.9694,0.57623 1.51289,1.18609 0.77233,0.86624 1.73346,1.94445 3.19105,1.94445 h 28.09711 c 0.28796,0.008 1.1048,0.13326 1.40483,1.24256 h -43.76115 c -2.43151,0.0501 -3.70284,1.31936 -3.70284,3.8578 l 0.11188,34.90359 h 1.15945 c 0,0 -0.2406,0.002 9.7e-4,0.002 0.37504,0 0.96716,0.0733 1.52019,-0.35884 0.99355,-0.77803 1.0355,-1.78643 1.02661,-2.06249 l -0.005,-28.67681 c 0,-3.80767 0,-3.80767 3.814,-3.80767 l 45.05482,0.1796 c 1.20457,0.005 2.18415,0.97793 2.18415,2.17925 v 35.42333 z"
       id="path2-3-3-2"
       sodipodi:nodetypes="scscsscssssssssscsssssscsccccccsccccsscc"
       style="fill:url(#linearGradient3483);fill-opacity:1;stroke-width:0.635139" />
    <rect
       class="st0"
       height="21.75"
       width="21.75"
       x="416.69638"
       y="511.9231"
       id="rect4-3"
       style="fill:#ff5555;stroke-width:0.375" />
    <path
       class="st1"
       d="m 418.57143,510.798 c -1.65,0 -3,1.35 -3,3 v 18 c 0,1.65 1.35,3 3,3 h 16.5 l 3.375,-1.125 v -15.375 h -0.375 c 0,4.575 -2.8875,8.55 -7.125,10.575 -1.3125,0.8625 -3.675,1.425 -6.375,1.425 -4.125,0 -7.5,-1.35 -7.5,-3 v -13.5 c 0,-0.825 0.675,-1.5 1.5,-1.5 h 4.5 v -1.5 z"
       id="path6-6"
       style="fill:#ff8080;stroke-width:0.375" />
    <path
       class="st2"
       d="m 421.57143,510.798 h 15 c 1.65,0 3,1.35 3,3 v 18 c 0,1.65 -1.35,3 -3,3 h -3 v -1.5 h 3 c 0.825,0 1.5,-0.675 1.5,-1.5 v -18 c 0,-0.825 -0.675,-1.5 -1.5,-1.5 h -15 z"
       id="path8-7"
       style="clip-rule:evenodd;fill:#f0f0f0;fill-opacity:1;fill-rule:evenodd;stroke-width:0.375" />
    <path
       id="path3360-3-6-5"
       d="m 424.31861,515.49846 c -0.44529,-0.002 -0.89694,0.0902 -1.33144,0.28608 -2.7e-4,1.1e-4 -6e-4,2.2e-4 -8.2e-4,3.7e-4 -0.0355,0.0161 -0.0709,0.0328 -0.1062,0.0502 -0.74634,0.36205 -1.38541,1.00565 -1.76333,1.8858 l -2.83412,6.60065 c -0.83459,1.94378 -0.0913,4.27045 1.65992,5.19676 1.5544,0.82215 3.37983,0.26402 4.35436,-1.23075 0.97455,1.49477 2.79997,2.0529 4.35437,1.23075 0.58113,-0.30737 1.05043,-0.7695 1.38874,-1.32012 0.95897,1.56219 2.82678,2.15859 4.41201,1.32012 1.7513,-0.92631 2.49451,-3.25298 1.65992,-5.19676 l -2.83416,-6.60065 c -0.59985,-1.39707 -1.85157,-2.21618 -3.15846,-2.22243 -0.51138,-0.002 -1.03117,0.11952 -1.52372,0.38008 -0.58127,0.30746 -1.05064,0.76972 -1.38898,1.32051 -0.66101,-1.07686 -1.75357,-1.69517 -2.88805,-1.70059 z m -0.006,1.98557 c 0.64148,0.004 1.2558,0.40508 1.55024,1.09082 l 2.8401,6.61555 c 0.39957,0.95106 0.0344,2.08354 -0.82067,2.53587 -0.85961,0.45465 -1.88854,0.0498 -2.29819,-0.90426 l -2.83414,-6.60065 c -0.40964,-0.95407 -0.0449,-2.09609 0.81473,-2.55077 0.24176,-0.12787 0.49694,-0.18776 0.74795,-0.18656 z m 5.80076,0 c 0.64146,0.004 1.2558,0.40508 1.55024,1.09082 l 2.83415,6.60065 c 0.40964,0.95408 0.0449,2.09609 -0.81472,2.55077 -0.85962,0.45465 -1.88855,0.0498 -2.29819,-0.90426 l -2.83966,-6.61433 c -0.40038,-0.95129 -0.0353,-2.08457 0.82025,-2.53709 0.24175,-0.12787 0.49693,-0.18776 0.74794,-0.18656 z m -8.71662,4.20007 1.90995,4.44829 -0.29613,0.68962 c -0.40966,0.95407 -1.43859,1.35891 -2.2982,0.90426 -0.85962,-0.45468 -1.22438,-1.59669 -0.81474,-2.55077 z m 7.25494,7.83421 z m -4.35435,-1.23075 v 0 0 l 10e-4,-0.008 -10e-4,0.008 v 0 0 0 l 10e-4,-0.008 -10e-4,0.008 v 0 0 0 0 0 0 0 0 0 0 0 c -0.012,0.002 0.006,-0.0125 10e-4,-0.008 z m 5.7431,-0.0894 z m 4.41201,1.32013 z m 0,0 z"
       style="fill:#fdfeff;fill-opacity:1;fill-rule:nonzero;stroke:none;stroke-width:0;stroke-linecap:round;stroke-linejoin:round;stroke-miterlimit:4;stroke-dasharray:none;stroke-opacity:1"
       inkscape:connector-curvature="0"
       sodipodi:nodetypes="scccccccscsccsscssccccccsscccccssccccccccccccccccccccccccccccccccccccccccccccccccscccccccccccccccccccccccccccccccccccccccccc" />
  </g>
</svg>
