<?xml version="1.0" encoding="UTF-8" standalone="no"?>
<svg
   width="64"
   version="1.1"
   height="64"
   id="svg15"
   sodipodi:docname="folder-rpm.svg"
   inkscape:version="1.1.2 (0a00cf5339, 2022-02-04)"
   xmlns:inkscape="http://www.inkscape.org/namespaces/inkscape"
   xmlns:sodipodi="http://sodipodi.sourceforge.net/DTD/sodipodi-0.dtd"
   xmlns:xlink="http://www.w3.org/1999/xlink"
   xmlns="http://www.w3.org/2000/svg"
   xmlns:svg="http://www.w3.org/2000/svg"
   xmlns:rdf="http://www.w3.org/1999/02/22-rdf-syntax-ns#"
   xmlns:cc="http://creativecommons.org/ns#"
   xmlns:dc="http://purl.org/dc/elements/1.1/">
  <sodipodi:namedview
     pagecolor="#ffffff"
     bordercolor="#666666"
     borderopacity="1"
     objecttolerance="10"
     gridtolerance="10"
     guidetolerance="10"
     inkscape:pageopacity="0"
     inkscape:pageshadow="2"
     inkscape:window-width="1920"
     inkscape:window-height="1003"
     id="namedview17"
     showgrid="true"
     inkscape:zoom="9.8125"
     inkscape:cx="28.484076"
     inkscape:cy="34.343949"
     inkscape:window-x="0"
     inkscape:window-y="0"
     inkscape:window-maximized="1"
     inkscape:current-layer="layer1"
     inkscape:pagecheckerboard="0">
    <inkscape:grid
       type="xygrid"
       id="grid918" />
  </sodipodi:namedview>
  <defs
     id="defs5455">
    <linearGradient
       inkscape:collect="always"
       id="linearGradient1243">
      <stop
         style="stop-color:#d40000;stop-opacity:1"
         offset="0"
         id="stop1239" />
      <stop
         style="stop-color:#ffaaaa;stop-opacity:1"
         offset="1"
         id="stop1241" />
    </linearGradient>
    <linearGradient
       inkscape:collect="always"
       xlink:href="#linearGradient1243"
       id="linearGradient1245-3"
       x1="0"
       y1="30"
       x2="64"
       y2="30"
       gradientUnits="userSpaceOnUse" />
  </defs>
  <metadata
     id="metadata5458">
    <rdf:RDF>
      <cc:Work
         rdf:about="">
        <dc:format>image/svg+xml</dc:format>
        <dc:type
           rdf:resource="http://purl.org/dc/dcmitype/StillImage" />
      </cc:Work>
    </rdf:RDF>
  </metadata>
  <g
     inkscape:label="Capa 1"
     inkscape:groupmode="layer"
     id="layer1"
     transform="translate(-384.57143,-483.798)">
    <path
       inkscape:connector-curvature="0"
       id="fill"
       d="m 387.57143,492.898 v 45 c 0.10878,1.51131 1,3 3.90646,3 h 49.82407 c 3.26947,0 4.38407,-0.49903 4.26947,-4 v -36 c -1,-2 -8,0 -8,-6 -12,-1 -34,1 -33.92879,-5 h -12.07366 c -1.99755,0 -3.99755,1 -3.99755,3 z"
       style="color:#1e92ff;fill:#4e5a7e;fill-opacity:0.30000001;fill-rule:nonzero;stroke:none;stroke-width:10.5116"
       class="ColorScheme-ButtonFocus"
       sodipodi:nodetypes="cccccccccc" />
    <path
       d="m 442.63027,498.20849 h -3.19931 v -1.18101 c 0,-2.05106 -0.9001,-3.06199 -1.65528,-3.54937 -0.80983,-0.52229 -1.60505,-0.54894 -1.75698,-0.54894 h -28.10856 c -0.60198,0 -1.16772,-0.63461 -1.76652,-1.30666 -0.76217,-0.85546 -1.62604,-1.82451 -2.93742,-1.82451 h -12.54362 c -2.33226,0 -4.09115,1.75533 -4.09115,4.08309 v 43.83382 c 0,2.2516 1.83517,4.08309 4.09115,4.08309 h 51.96769 c 2.25599,0 4.09116,-1.83149 4.09116,-4.08309 v -35.42333 c 0,-2.2516 -1.83517,-4.08309 -4.09116,-4.08309 z m 2.18416,39.50642 c 0,1.20196 -0.97957,2.17926 -2.18416,2.17926 h -51.96769 c -1.20458,0 -2.18415,-0.9773 -2.18415,-2.17926 v -43.83382 c 0,-1.28255 0.8982,-2.17926 2.18415,-2.17926 h 12.54362 c 0.45577,0 0.9694,0.57623 1.51289,1.18609 0.77233,0.86624 1.73346,1.94445 3.19105,1.94445 h 28.09711 c 0.28796,0.008 1.1048,0.13326 1.40483,1.24256 h -43.76115 c -2.43151,0.0501 -3.70284,1.31936 -3.70284,3.8578 l 0.11188,34.90359 h 1.15945 c 0,0 -0.2406,0.002 9.7e-4,0.002 0.37504,0 0.96716,0.0733 1.52019,-0.35884 0.99355,-0.77803 1.0355,-1.78643 1.02661,-2.06249 l -0.005,-28.67681 c 0,-3.80767 0,-3.80767 3.814,-3.80767 l 45.05482,0.1796 c 1.20457,0.005 2.18415,0.97793 2.18415,2.17925 v 35.42333 z"
       id="path2-3-3-5"
       sodipodi:nodetypes="scscsscssssssssscsssssscsccccccsccccsscc"
       style="fill:#eb0a42;fill-opacity:1;stroke-width:0.635139" />
    <g
       id="Dashboard_1_-3"
       transform="matrix(0.35714286,0,0,0.35714286,418.03572,512.54086)">
      <path
         id="Dashboard-5"
         class="st0"
         d="M 58.8,44 C 59.6,41.5 60,38.8 60,36 60,20.5 47.5,8 32,8 16.5,8 4,20.5 4,36 c 0,2.8 0.4,5.5 1.2,8 H 20 c 0,-6.6 5.4,-12 12,-12 6.6,0 12,5.4 12,12 z M 64,36 c 0,6 -1.6,11.5 -4.5,16.3 L 54,56 H 7 C 2.6,50.5 0,43.6 0,36 0,18.3 14.3,4 32,4 49.7,4 64,18.3 64,36 Z"
         style="fill:url(#linearGradient1245-3);fill-opacity:1" />
      <path
         id="Dashboard-s-6"
         class="st1"
         d="m 22.1,14.2 c 2.2,-1 4.5,-1.6 6.8,-1.9 l 0.5,4 c -2,0.3 -3.9,0.8 -5.7,1.6 -2.2,1 -4.2,2.4 -5.9,4.1 L 15,19 c 2.1,-2 4.4,-3.7 7.1,-4.8 z m 13,-2 -0.5,4 c 1.9,0.3 3.8,0.8 5.6,1.6 2.5,1.1 4.7,2.7 6.5,4.7 L 29.6,39.6 32.4,42.4 52,22.8 v 0 c -0.6,-0.9 -1.3,-1.8 -2,-2.6 -2.3,-2.6 -5,-4.6 -8.1,-6 -2.2,-1 -4.5,-1.7 -6.8,-2 z M 9,29.1 C 8,32.4 7.7,35.8 8.2,39.2 l 4,-0.5 c -0.4,-2.8 -0.1,-5.7 0.7,-8.4 0.4,-1.5 1.1,-2.9 1.8,-4.2 l -3.5,-2 c -0.9,1.5 -1.6,3.2 -2.2,5 z m 45,-2.6 -3.1,3.1 c 0.1,0.2 0.1,0.4 0.2,0.6 0.8,2.7 1.1,5.6 0.7,8.4 l 4,0.5 C 56.2,35.7 56,32.3 55,29 54.7,28.1 54.4,27.3 54,26.5 Z M 58.8,44 c -0.3,1.1 -0.7,2.2 -1.2,3.2 -1.1,2.4 -2.4,4.7 -4.1,6.7 -1.1,1.4 -3,2.1 -5.1,2.1 H 12 v 4 h 36.5 c 3,0 6.1,-1.1 8.1,-3.6 1.9,-2.3 3.5,-4.9 4.7,-7.6 C 62,47.2 62.5,45.6 63,44 Z"
         style="fill:#f0f0f0;fill-opacity:1" />
    </g>
  </g>
</svg>
