<?xml version="1.0" encoding="UTF-8" standalone="no"?>
<svg
   width="64"
   version="1.1"
   height="64"
   id="svg15"
   sodipodi:docname="folder-Manjaro.svg"
   inkscape:version="1.1.2 (0a00cf5339, 2022-02-04)"
   xmlns:inkscape="http://www.inkscape.org/namespaces/inkscape"
   xmlns:sodipodi="http://sodipodi.sourceforge.net/DTD/sodipodi-0.dtd"
   xmlns:xlink="http://www.w3.org/1999/xlink"
   xmlns="http://www.w3.org/2000/svg"
   xmlns:svg="http://www.w3.org/2000/svg"
   xmlns:rdf="http://www.w3.org/1999/02/22-rdf-syntax-ns#"
   xmlns:cc="http://creativecommons.org/ns#"
   xmlns:dc="http://purl.org/dc/elements/1.1/">
  <sodipodi:namedview
     pagecolor="#ffffff"
     bordercolor="#666666"
     borderopacity="1"
     objecttolerance="10"
     gridtolerance="10"
     guidetolerance="10"
     inkscape:pageopacity="0"
     inkscape:pageshadow="2"
     inkscape:window-width="1920"
     inkscape:window-height="1007"
     id="namedview17"
     showgrid="true"
     inkscape:zoom="9.8125"
     inkscape:cx="31.949045"
     inkscape:cy="32"
     inkscape:window-x="0"
     inkscape:window-y="0"
     inkscape:window-maximized="1"
     inkscape:current-layer="layer1"
     inkscape:document-rotation="0"
     inkscape:pagecheckerboard="0">
    <inkscape:grid
       type="xygrid"
       id="grid838" />
  </sodipodi:namedview>
  <defs
     id="defs5455">
    <linearGradient
       inkscape:collect="always"
       id="linearGradient1194">
      <stop
         style="stop-color:#00a489;stop-opacity:1"
         offset="0"
         id="stop1190" />
      <stop
         style="stop-color:#2affd5;stop-opacity:1"
         offset="1"
         id="stop1192" />
    </linearGradient>
    <linearGradient
       inkscape:collect="always"
       xlink:href="#linearGradient991"
       id="linearGradient3483"
       gradientUnits="userSpaceOnUse"
       gradientTransform="matrix(1.0016646,0,0,1,-0.64349,-0.6)"
       x1="386.57144"
       y1="516.39801"
       x2="446.62146"
       y2="516.39801" />
    <linearGradient
       inkscape:collect="always"
       id="linearGradient991">
      <stop
         style="stop-color:#cccccc;stop-opacity:1"
         offset="0"
         id="stop987" />
      <stop
         style="stop-color:#cccccc;stop-opacity:1"
         offset="0.03132199"
         id="stop1929" />
      <stop
         style="stop-color:#0069a6;stop-opacity:1"
         offset="0.05527586"
         id="stop1263" />
      <stop
         style="stop-color:#0069a6;stop-opacity:1"
         offset="0.10902679"
         id="stop1027" />
      <stop
         style="stop-color:#cccccc;stop-opacity:1"
         offset="1"
         id="stop989" />
    </linearGradient>
    <linearGradient
       inkscape:collect="always"
       xlink:href="#linearGradient1194"
       id="linearGradient1196"
       x1="415.57143"
       y1="522.79801"
       x2="437.86234"
       y2="522.79801"
       gradientUnits="userSpaceOnUse" />
  </defs>
  <metadata
     id="metadata5458">
    <rdf:RDF>
      <cc:Work
         rdf:about="">
        <dc:format>image/svg+xml</dc:format>
        <dc:type
           rdf:resource="http://purl.org/dc/dcmitype/StillImage" />
      </cc:Work>
    </rdf:RDF>
  </metadata>
  <g
     inkscape:label="Capa 1"
     inkscape:groupmode="layer"
     id="layer1"
     transform="translate(-384.57143,-483.798)">
    <path
       inkscape:connector-curvature="0"
       id="fill"
       d="m 387.57143,492.798 v 45 c 0.10878,1.51131 1,3 3.90646,3 h 49.82407 c 3.26947,0 4.38407,-0.49903 4.26947,-4 v -36 c -1,-2 -8,0 -8,-6 -12,-1 -34,1 -33.92879,-5 h -12.07366 c -1.99755,0 -3.99755,1 -3.99755,3 z"
       style="color:#1e92ff;fill:#4e5a7e;fill-opacity:0.30000001;fill-rule:nonzero;stroke:none;stroke-width:10.5116"
       class="ColorScheme-ButtonFocus"
       sodipodi:nodetypes="cccccccccc" />
    <path
       d="m 442.63027,498.20849 h -3.19931 v -1.18101 c 0,-2.05106 -0.9001,-3.06199 -1.65528,-3.54937 -0.80983,-0.52229 -1.60505,-0.54894 -1.75698,-0.54894 h -28.10856 c -0.60198,0 -1.16772,-0.63461 -1.76652,-1.30666 -0.76217,-0.85546 -1.62604,-1.82451 -2.93742,-1.82451 h -12.54362 c -2.33226,0 -4.09115,1.75533 -4.09115,4.08309 v 43.83382 c 0,2.2516 1.83517,4.08309 4.09115,4.08309 h 51.96769 c 2.25599,0 4.09116,-1.83149 4.09116,-4.08309 v -35.42333 c 0,-2.2516 -1.83517,-4.08309 -4.09116,-4.08309 z m 2.18416,39.50642 c 0,1.20196 -0.97957,2.17926 -2.18416,2.17926 h -51.96769 c -1.20458,0 -2.18415,-0.9773 -2.18415,-2.17926 v -43.83382 c 0,-1.28255 0.8982,-2.17926 2.18415,-2.17926 h 12.54362 c 0.45577,0 0.9694,0.57623 1.51289,1.18609 0.77233,0.86624 1.73346,1.94445 3.19105,1.94445 h 28.09711 c 0.28796,0.008 1.1048,0.13326 1.40483,1.24256 h -43.76115 c -2.43151,0.0501 -3.70284,1.31936 -3.70284,3.8578 l 0.11188,34.90359 h 1.15945 c 0,0 -0.2406,0.002 9.7e-4,0.002 0.37504,0 0.96716,0.0733 1.52019,-0.35884 0.99355,-0.77803 1.0355,-1.78643 1.02661,-2.06249 l -0.005,-28.67681 c 0,-3.80767 0,-3.80767 3.814,-3.80767 l 45.05482,0.1796 c 1.20457,0.005 2.18415,0.97793 2.18415,2.17925 v 35.42333 z"
       id="path2-3-3-2"
       sodipodi:nodetypes="scscsscssssssssscsssssscsccccccsccccsscc"
       style="fill:url(#linearGradient3483);fill-opacity:1;stroke-width:0.635139" />
    <path
       id="List"
       class="st0"
       d="m 415.57143,529.97048 0.0531,-19.17248 17.97103,0.0516 c 2.35335,0.007 4.27339,1.9731 4.26676,4.36966 l -0.0265,19.57876 h -5.1346 V 515.18973 H 429.2781 V 534.798 h -5.1346 l -1e-5,-22.22273 -3.38926,-0.0196 -0.0482,17.42952 z m 13.70667,4.82752 v 0 h -5.1346 v 0 z m 3.42307,0 v 0 h 5.1346 v 0 z"
       sodipodi:nodetypes="ccsscccccccccccccccccccc"
       style="opacity:1;fill:url(#linearGradient1196);stroke-width:0.431794;enable-background:new;fill-opacity:1" />
    <path
       id="List-s"
       class="st1"
       d="M 437.83577,534.798 Z M 424.1435,512.57527 v 0 -1.74296 0 z m 0.0338,-0.01 8.55764,0.0246 0.005,-1.74295 -8.55764,-0.0246 z m 8.55764,0.0246 1.71152,0.005 c 1.88268,0.005 3.41871,1.57848 3.41341,3.49573 l -0.0386,13.94362 1.71153,0.005 0.0386,-13.94362 c 0.008,-2.87587 -2.29609,-5.23549 -5.12011,-5.24359 l -1.71153,-0.005 z m 6.81236,19.15775 h -1.71153 v 3.05018 h 1.71153 z"
       sodipodi:nodetypes="ccccccccccccccccccccssccssccccccc"
       style="fill:#ffffff;stroke-width:0.431794" />
  </g>
</svg>
